<svg xmlns="http://www.w3.org/2000/svg" viewBox="0 0 332.22 1000"><title>Asset 3</title><g id="Layer_2" data-name="Layer 2"><g id="Layer_1-2" data-name="Layer 1"><path d="M154.22,330.32a44.67,44.67,0,0,0,7.47-86.71c-18.18-6.36-39.39-1-51.92,13.76a44.23,44.23,0,0,0-3.77,52.2C116.22,325.53,135.67,333.53,154.22,330.32Zm-45.68-65.56c9.41-15.28,28-22.93,45.54-19.68,19.88,3.7,34.75,20.65,35.12,40.92A42.22,42.22,0,0,1,169.42,321c10.05-6.69,16.13-18.57,16.4-31-.32-14.85-8.7-28.88-22.87-34.35-13.82-5.34-29.6-.64-38.78,10.83-19.75,24.7.18,65.88,33.16,59.5a33.13,33.13,0,0,0,5.42-1.54c-.64.26-1.3.52-2,.75-16.85,5.94-36.32,1.12-48.15-12.33A40.8,40.8,0,0,1,108.54,264.76Zm42.37,58.4c-17.89,0-31.53-15.84-31.53-33.22s13.64-33.22,31.53-33.22c18.17,0,31.16,15.85,31.53,33.22C182.07,307.31,169.08,323.16,150.91,323.16Z"/><path d="M331.94,944.43l-43.25-76.66-6.25-11.08-22.29-42.36.33-41.16.81-99.88q.48-60.45,1-120.9.44-52.53.85-105,.13-17.22.28-34.45c0-5.16,1-11.25.13-16.37a.56.56,0,0,1,0-.13L272,385.74a1.73,1.73,0,0,0,0-2.39l-8.51-8.52V276.92a22.51,22.51,0,0,0-.07-3.44,1.73,1.73,0,0,0,0-.88c-.79-3.14-1.2-6.76-2.2-10l4.22,1.81c1.22.53,3-.36,2.48-1.91a99.69,99.69,0,0,0-6.33-15.79c-2.29-4.33-4.25-9.35-7.12-13.4,0-9,1.29-18.62-1-27.31l-9.19-34.72a1.71,1.71,0,0,0-3.26,0q-2.16,9.25-4.31,18.51c-1.23,5.24-3.13,10.74-3.63,16.1-.1,1-.25,2.43-.34,3.88-3.49-3.5-7-7-10.37-10.51-.16-15.05.4-30.29-.54-45.3,0-.22,0-.41,0-.6L231,145c2-1.85,3.08-2.41,3.24-5.1.48-8.36,0-16.88,0-25.25a1.43,1.43,0,0,0-.22-1.19l0-.05C220.53,93.57,206.7,74.23,192.44,55L178,1.46a1.42,1.42,0,0,0-.35-.85A1.62,1.62,0,0,0,176,0a1.58,1.58,0,0,0-1.1.65l-.11.15h0a1.19,1.19,0,0,0-.15.35Q166.22,28.07,157.81,55A22.77,22.77,0,0,0,156,57.09C147.3,67.54,138,77.4,131.16,89.18l-12.68,22a1.6,1.6,0,0,0-.07,1.47,6.41,6.41,0,0,0-.16,1.13c-.37,8.11,0,16.32,0,24.43,0,5.67,1.39,9.34,3.41,14.74l0,.13c-.6,3.07,0,6.88,0,10v39.78L116,204c.14-8.67,1-17.64-1.36-26l-10-35a1.7,1.7,0,0,0-3.25,0Q95.72,161.7,90,180.33C88.9,184.07,89,187.1,89,191.09v19.5c-.22.22-.45.45-.7.74-3.83,4.32-7.47,8.82-11.19,13.22a1.71,1.71,0,0,0,.34,2.66L84.91,231c-.49,1.1-.85,2.32-1.24,3.18l-3.39,7.46a1.45,1.45,0,0,0-.28.83,1.55,1.55,0,0,0,0,.21V348.82l-9.64,7.5a1.71,1.71,0,0,0,0,2.39c3,3.33,6.15,8.56,9.88,11l0,0q2.32,5.4,4.64,10.82a44.08,44.08,0,0,1,1.86,4.29,43.41,43.41,0,0,1-.08,4.42q-.19,12.74-.41,25.46-.78,49.31-1.57,98.62-1,63-2,126-.9,55.8-1.79,111.6l-.6,37.5c-.09,5.66-1,12.07-.28,17.69a.86.86,0,0,1,0,.16q-17.67,21.56-35.36,43.1a1.71,1.71,0,0,0-.46.58Q25,888.81,5.76,927.71,3,933.27.25,938.86a1.64,1.64,0,0,0-.25.89v58.56A1.71,1.71,0,0,0,1.69,1000H248.32l82.21-7.88a1.73,1.73,0,0,0,1.69-1.69v-45A1.67,1.67,0,0,0,331.94,944.43Zm-54-89L214.76,847q-5.69-21.75-11.39-43.5l53.95,12.69ZM199.12,798a9.53,9.53,0,0,0,0,1.62l-25.44,1.2.42-44.14q.51-53.21,1-106.4.6-64.62,1.22-129.26l1-111.35q.18-18.51.35-37c.05-5.32.94-11.45.24-16.79l14.52-2.21,6-.91,7.53-1.14q-.31,21.46-.64,42.94-.81,53.91-1.61,107.82-1,65.24-2,130.46l-1.68,112.8q-.28,18.54-.56,37.07C199.54,787.55,198.83,793,199.12,798Zm-28.78,2.44a3.24,3.24,0,0,1,0,.54l-67.83,3.2q.26-20.64.5-41.28l1.26-105.54q.77-63.82,1.52-127.67l1.32-110.34.43-36.1c.07-5.31,1-11.43.28-16.76l1.52-.23,65.2-9.9q-.19,21.3-.4,42.59-.51,53.19-1,106.39-.62,64.64-1.22,129.26-.53,55.68-1.06,111.35-.16,18.52-.35,37C170.45,788.54,169.48,795,170.34,800.45Zm33-44.12L205,648.51,207,518q.84-56.4,1.69-112.8.27-18.53.55-37.06c.07-4.67.72-9.85.52-14.69l.49.42,3.3,2.82,5.1,4.36q-.33,21.66-.67,43.33-.83,52.95-1.64,105.9-1,64.08-2,128.15-.87,55.44-1.73,110.87L212,786.05c-.07,5-.92,10.8-.42,15.93l-8.85-2.08Q203.06,778.11,203.38,756.33Zm-78.46-603v0c0,.63.66-.71,1.56-1.68l2-2.12,3.57-3.87c1.3-1.41,2.64-2.81,3.93-4.25.57-.57,1.87-1.78,1.79-2a15.57,15.57,0,0,1,1.95-.71c1.66-.41,3.49-.64,4.93-1l25.92-6.48c.53-.13,1.1-.33,1.66-.47l.22.06c1.69.44,3.38.84,5.07,1.26,2,.5,4,1,6.13,1.39.8.19,1.59.38,2.38.59l13.24,3.43c.75.19,1.6.33,2.4.55.25.1.52.18.77.27l.11,0,.13.1c.3.26.59.59.85.85,3.15,3.17,6.57,6.13,9.84,9.18a40.7,40.7,0,0,0,4.46,4.16l.74.69c1,7.74.14,16.24.23,24l.21,18.3c-1.56-1.64-3.13-3.28-4.69-4.93-1.35-1.41-3.33-4.46-5.39-5.63l-.08-.06,0,0a1.57,1.57,0,0,0-.91-.32l-.1,0c-1-.17-2.53.5-3.44.7l-1,.2-37.26,7.88-27.28,5.77L125,202.12V158.81C125,157.06,124.76,155.09,124.92,153.3ZM260.15,290.56v81.07L225.7,339.34a10.76,10.76,0,0,0,7.68.07c14.27-5,16.49-28.11,16.63-40.46-.14-12.52-2.1-31.15-13.63-38.91-10-6.72-18.54,3.62-22.12,12.2a66.82,66.82,0,0,0-4.79,20.9v-75.4l17.09,18.87L260,273.55a8.18,8.18,0,0,1,.14,1.72C259.81,280.31,260.15,285.51,260.15,290.56ZM212.87,300a59.72,59.72,0,0,1,3.26-19.49c1.55-4.26,4.78-11.41,10.23-11.41,5.09,0,8.16,6.25,9.77,10.23,2.79,6.93,3.65,14.45,3.75,21.86a62.62,62.62,0,0,1-3.28,20.69c-1.56,4.25-4.79,11.41-10.24,11.41-2.86,0-5.11-2-6.83-4.48a40.31,40.31,0,0,1-2.25-4.69A65.5,65.5,0,0,1,212.87,300Zm4.38,31.41-7.78-7.3V305.86a66.85,66.85,0,0,0,2.66,14.67,39,39,0,0,0,4.22,9.37C216.64,330.41,216.94,330.92,217.25,331.42Zm2.46-62.7c2.31-4,5.6-7.5,10-7.5,6,0,9.86,6.62,12,11.37,3.69,8.22,4.81,17.43,4.91,26.36-.1,8.93-1.22,18.14-4.91,26.36-2.11,4.73-6,11.37-12,11.37a8,8,0,0,1-1.64-.19,10.59,10.59,0,0,0,1.35-.38c12.07-4.34,13.67-24.5,13.81-34.91-.14-10.63-1.57-26.82-11.32-33.57C227.31,264.43,223.07,265.72,219.71,268.72Zm33.72-7.47-16.68-18.41-12.29-13.57-12.28-13.56h0l-2.65-2.93c0-.12,0-.28-.06-.45v-.73a27.77,27.77,0,0,0,0-3.87v-.89c4.31,5.3,9.27,10.23,13.76,15.32l15.27,17.3,16.7,18.93h0c.54.61,1.07,1.22,1.61,1.82a1.06,1.06,0,0,0,.18.33,5.59,5.59,0,0,0,.15.67l1.29,5.13C256.73,264.6,255,262.92,253.43,261.25Zm-31.17,103,26.35,22.51,1.25,1.07q-.17,20.7-.32,41.4-.37,50.93-.77,101.85l-.93,122.69L247,759.84q-.14,17.58-.26,35.15c0,4.79-.81,10.31-.3,15.2l-31.35-7.38.67-42.76q.81-52.95,1.64-105.89,1-64.08,2-128.16.87-55.44,1.72-110.87l.57-36.7C221.78,374,222.46,368.88,222.26,364.21Zm31.28,26.72,5,4.23,1.65,1.41-.33,40.81q-.4,49.94-.8,99.87-.5,60.45-1,120.91l-.84,105q-.15,17.24-.28,34.45l-.09,10.66c0,1-.32,2.81-.29,4.24L250,811q.16-20.41.31-40.83l.78-101.85L252,545.65q.41-53.06.8-106.11l.27-35.16C253.14,400.15,253.74,395.36,253.54,390.93Zm15-6.26-7,8.73-8.85-7.56,0,0-13.6-11.61-17.55-15a1.54,1.54,0,0,0-.19-.17l-4.7-4q-1.81-1.53-3.61-3.08a22.69,22.69,0,0,0-3-2.56h0l-.59-.5V328.75q25.59,24,51.17,48ZM236.47,205.76c1-8.64,3.87-18.18,6.27-27.29q3.66,13.85,7.33,27.7c1.81,6.85,1.33,15,1.13,23-4.69-5.47-9.73-10.72-14.87-15.9A42.54,42.54,0,0,1,236.47,205.76Zm-3,10c.85,1.47,2.64,2.78,3.72,3.91l12.29,12.9c3.05,3.21,4.52,6.89,7,11.5a114.23,114.23,0,0,1,7.07,15.81l-4-1.72-1.18-1.33h0c-5.41-6.21-10.9-12.36-16.35-18.53L227,221.36l-16.44-18.63h0l-1.12-1.26v-1.63c.17-3,.11-6.05.06-9.08.46.42.91.81,1.24,1.16l7.21,7.57,1.55,1.62h0ZM176.13,7.67Q182.4,30.85,188.68,54H168.55c-1.91,0-4.54-.4-6.8-.32Q168.94,30.68,176.13,7.67Zm-44.64,87.7c2.56-4.45,5.24-9.91,7.89-13.07q8-9.63,16.06-19.28c1.49-1.79,2.92-4,4.61-5.62l.12,0h.93c1.64.12,3.33,0,5,0h24c12.78,17.27,25.2,34.64,37.34,52.33-5-2.62-10.08-5.29-15.23-7.66-1-.49-2-.94-3-1.33-6.25-2.6-13.79-3.29-20.51-4.55L186,95.65c-3.75-.78-7.79-2.13-11.63-2.16-6.4,0-13.1,1.31-19.45,2h0c-4.39.44-10.28,0-14.46,1.59-5.27,2-10.52,6.65-15.28,9.65h0l-.37.23Zm-10.07,17.69c-.14.19-.25.2,0,0Zm.21,30.42c-.46-2.52,0-5.56,0-8.12,0-7.28.91-15.22.07-22.49l.54-.34.32-.18c1.64-.9,3.2-2,4.78-3l11.5-7.26c.7-.44,1.4-1,2.13-1.42l.75-.39.13-.09a5.05,5.05,0,0,1,.56-.09l.27,0,.27,0c3.64-.21,7.29-.73,10.91-1.09l10.83-1.09c3.29-.33,6.87-1.1,10.19-1h0c-.19,0,1.5.27,1.91.36l4.48.93,1.13.23.74.15h0L195.31,101c5.61,1.16,10.59,1.8,14.95,4l12,6c2.72,1.36,5.7,3.4,8.64,4.41,0,.21,0,.48-.07.84a59.63,59.63,0,0,0,0,6.55v15.06c0,.49-.13,2-.07,2.72a2.47,2.47,0,0,1-.43.4,19.28,19.28,0,0,0-2.46,2.24l-7.73,7c-2.58-2.61-5.34-5.08-8.07-7.57-2.26-2.26-4.63-5.11-7.24-6.82a9,9,0,0,0-1.17-.72c-2.56-1.24-6.1-1.58-8.84-2.29L179.8,129c-2.28-.59-5-1.8-7.38-1.68h-.2c-2.29-.07-4.8,1-7,1.56-6.59,1.7-13.3,3.18-19.91,4.93a29.94,29.94,0,0,0-8.37,2.48c-2,.91-3.22,2.48-4.8,4.24-2.6,2.8-5.17,5.61-7.76,8.41l0,0-.5.54A39.16,39.16,0,0,1,121.63,143.48Zm-28.14,37.1Q98.25,165,103,149.5q4.11,14.35,8.21,28.72c2.32,8.13,1.51,17.26,1.43,26.52L92.35,209V192.11C92.35,187,92.18,184.87,93.49,180.58ZM80.94,225.2l8.12-9.59c.72-.85,1.41-1.75,2.17-2.57.17-.19.3-.32.37-.41l1.09-.23h0c7.63-1,15.28-3.23,22.8-4.82l15.39-3.26,31.27-6.61,28.3-6,10.68-2.26c1.35-.28,3.39-.39,5-.84v12.14L101.91,225.1l-10.65,2.49a34.15,34.15,0,0,0-4,.78Zm7.12,6.62c-.21.14-.23.1,0,0Zm.2-.06.4-.09h0c1-.17,2-.48,3.06-.72l25.8-6L190,208l16-3.73a39.71,39.71,0,0,0-.18,7.83l-109,25.32-12.39,2.87C85.47,237.31,86.6,234,88.26,231.76Zm-4.92,24.17V244l59.59-13.83,49.72-11.54L203,216.2l3.08-.71v108L97,344.91l-13.61,2.67Zm-2,110c-.94-1.29-2.19-2.43-3.25-3.62L74,357.72l8.38-6.51,110.13-21.63,13.61-2.68v21.29L87,366.27h0l-4.67.71A5.45,5.45,0,0,1,81.39,366ZM84.07,761.2q.86-53.84,1.72-107.66,1-63.49,2-127l1.67-104.08q.24-14.86.47-29.74c.1-6.06.06-8.66-2.39-14.37-1.18-2.75-2.35-5.49-3.53-8.23l.15,0L104.36,367q-.26,21-.5,42L102.6,514.55l-1.53,127.67L99.75,752.57q-.21,18-.43,36.1c-.06,5-.85,10.62-.4,15.69l-2.25.1-13.3.63Q83.71,783.15,84.07,761.2Zm-1.6,47.31,16.85-.79a1.77,1.77,0,0,0,3-.15L186,803.63l13.74-.65,11.49,43.89-145,2-17,.22ZM41.54,862.82q2.57-5.18,5.12-10.36l146.18-2,19.42-.26,30.06,78.54q1.77,4.63,3.56,9.29H4.4Zm205.09,133.8H3.38V941.44H246.63ZM219.42,859.51q-1.72-4.47-3.43-9l63.93,8.52,42.9,76.07,4.71,8.33-78-5.34ZM328.85,988.9,250,996.46V941.55l78.84,5.4Z"/></g></g></svg>