<svg xmlns="http://www.w3.org/2000/svg" viewBox="0 0 481.06 1000"><title>Asset 9</title><g id="Layer_2" data-name="Layer 2"><g id="Layer_1-2" data-name="Layer 1"><path d="M478.67,223.31a116.18,116.18,0,0,0-21-8.55,129.4,129.4,0,0,1,19.23,6.11c4.12,1.68,5.9-5,1.84-6.65-31.37-12.76-71.55-14.73-99.73,6.1a3.7,3.7,0,0,0-.46.42l-.53-.65c-8.28-10.29-16.14-19.78-28.71-25.11-17.84-7.57-36-2.8-51.89,6.68-16.88-16.52-35.74-34-56.92-42.79a234.68,234.68,0,0,0-60.35-34.57,79.2,79.2,0,0,1-8.78-3.94c0-.11,0-.22-.06-.34-4.34-16.93-18.69-27.46-35.87-27.69-18.11-27.64-40.75-52.77-66.17-72C53.35,8.25,14.2-15.52,2.6,14.75c-6.13,16-.19,36.08,5.23,51.35,9.2,25.88,23.41,49.72,39.35,72,16.93,22.93,36,44.67,59,61.75,12.1,9,28.74,20.07,44.82,19.15,3.66,5.08,9.91,8.19,16.11,9a3.6,3.6,0,0,0,.73,0,3,3,0,0,0,1.44,1.24c35.66,15.87,68.5,41.86,93,72.37-1.65,6.51-.59,13.55,2,20.31a3.88,3.88,0,0,0,1.31,6.11c.63.27,1.26.55,1.88.85l.12.23a147.33,147.33,0,0,0-12.44,21.67,6.55,6.55,0,0,0-1.71,2.42c-12,28-15.76,60.75-14.41,90.88.06,1.49.17,3,.27,4.47-.77,1.1-1.52,2.24-2.23,3.45-1.49,2.59.69,5,3,5.14.16,1.54.35,3.08.55,4.61-.59,1-1.16,2-1.68,3.14a3.72,3.72,0,0,0,2.94,5.21c.44,2.63.94,5.23,1.47,7.83a3.75,3.75,0,0,0,.58,2.82c.13.61.28,1.21.41,1.81a9,9,0,0,0,1.81,7.48q1.6,6.24,3.5,12.4c-1,1.72-.72,4,1.47,4.66.19.6.39,1.2.59,1.81a3,3,0,0,0-1,2.57c.41,7.07,3.93,13.37,8.85,18.77q1.9,4.79,3.92,9.57,2.4,5.67,4.87,11.29a3.36,3.36,0,0,0-1.06,4.44,92.65,92.65,0,0,0,10.08,15c3.61,7.39,7.41,14.66,11.49,21.77a3.58,3.58,0,0,0-1,5.53q6.3,7.05,12.87,13.51,5.4,8,11.48,15.58a77.16,77.16,0,0,1,9.49,15.65c-1.87-1.55-3.71-3.13-5.5-4.77-3.27-3-8.16,1.87-4.88,4.88a196.13,196.13,0,0,0,15.42,12.66c1.82,5.53,3.34,11.24,4.63,17-1.08-1.56-2.13-3.16-3.13-4.87-2.26-3.83-8.22-.35-6,3.48a101.08,101.08,0,0,0,12,16.38c.3,1.7.59,3.4.87,5.08-2.5-3-5-5.94-7.48-8.85-2.88-3.39-7.74,1.52-4.88,4.88,2.35,2.77,4.72,5.56,7.06,8.39-23.18,16.34-48.47,31.44-70.23,49.63-6.95,5.8-22.13,20.49-18.68,30.86a10.93,10.93,0,0,0,4.62,5.63c5,11.64,18.19,17.61,31.72,20.74a25.75,25.75,0,0,0,3.65,12.42A113.55,113.55,0,0,0,252,890.1c.93,52.47,38,98.83,90.31,108.2a111.08,111.08,0,0,0,113.39-50.65c24.35-39.52,20.61-91.6-8.81-127.4-2.3-2.79-4.73-5.43-7.27-8,24.78-4.62,32.62-36.25,13-51.32,9.56-23.37,13.69-48.53,9.22-74.45-4.42-25.67-15.91-44.95-31.54-62.19v-.07l.24-.92a3.25,3.25,0,0,0-.13-2.18c0-.64.05-1.29.06-1.94.43-21.35-3.43-34-14-52.2a210.48,210.48,0,0,0-23.18-32.7,2.85,2.85,0,0,0,1.81-3C393.37,507,379.16,486.37,360.59,470c2.09-.43,3.88-2.68,2.47-5.06-8.84-15-19.94-30.19-33.65-41.42,0-.07,0-.13,0-.2A50.54,50.54,0,0,0,318.65,406c41.57-32.37,67.93-88.05,44.56-139.31,11.73-6.05,15.93-22.64,17.45-34.55,27,1.19,55.66,25.34,75.43,42,3.38,2.84,8.28-2,4.88-4.88-5.11-4.29-10.69-9-16.62-13.63q5.23,2.89,10.37,5.94c3.83,2.27,7.3-3.7,3.48-6s-7.38-4.29-11.13-6.36c4.2,2.14,8.3,4.35,12.25,6.57s7.35-3.78,3.48-6a262.79,262.79,0,0,0-41.39-18.64l-4.23-1.44a156.19,156.19,0,0,1,53.64,18c3.89,2.16,7.36-3.8,3.48-6-23-12.76-50.09-20.39-76.57-20.34,25.11-8.45,54-4.46,77.46,7.9C479.12,231.34,482.6,225.38,478.67,223.31Zm-109,4.31c-4.56,2.58-9.11,5.94-13.55,8.59a91.64,91.64,0,0,0-8.91-8.6C354.15,224.67,362.37,225.21,369.71,227.62Zm-11,33.52a3.54,3.54,0,0,0-2.13,4.68,3.44,3.44,0,0,0,.07,2.92,89.44,89.44,0,0,1,3.65,8.89c-2.06-4.23-4.24-8.36-6.43-12.37a3,3,0,0,0-2.42-1.68,3.28,3.28,0,0,0-2.92-1.05,69,69,0,0,0-9.93-28.38c.46-.51.92-1,1.39-1.51s.77-.74,1.16-1.1a84.58,84.58,0,0,1,8.95,8.29c-1.49,2.24,1.13,5.93,4.3,5a75.28,75.28,0,0,1,8.46,13.31,23.27,23.27,0,0,1-2.74,2.19C359.56,260.73,357.89,261.43,358.7,261.14ZM333.43,368.47c11.26-20.64,16.28-45.21,16.89-69.23C351,323.39,345.33,347.71,333.43,368.47Zm9.94-81.28c-4.55,2.2-10.31,2.89-15.66,3q-.13-6.17-.31-12.31l.45-.6c3.95-5.21,9.11-7.76,14.32-6.34C342.77,276.24,343.18,281.68,343.37,287.19Zm22.53-67.6c-7.36-1.49-15.12-1.37-21.82,1.64a27.9,27.9,0,0,0-3,1.6,95.29,95.29,0,0,0-31.15-14.59,3.26,3.26,0,0,0-3.9,1.85l-.88-.87C325.83,200.53,349.55,203.43,365.9,219.59Zm-30.7,7.59c-.33.29-.64.59-1,.89q-1.39-1.74-2.92-3.37Q333.29,225.89,335.2,227.18Zm-36.89-15,3.67,3.6a3.22,3.22,0,0,0,4.24.37,3.53,3.53,0,0,0,1,.52A48.94,48.94,0,0,1,329.41,233c-4.17,4.61-8.1,9.66-12.27,14A274.17,274.17,0,0,0,296,215.24,16.46,16.46,0,0,1,298.31,212.17ZM312,251.88l-.07.06q-9.51-8.66-18.81-17.53a41.43,41.43,0,0,1,.14-11.41A265.2,265.2,0,0,1,312,251.88ZM293.4,207.32a23.12,23.12,0,0,0-1.89,2.22c-6.45-8-13.28-15.69-20.37-23C279,193.18,286.36,200.38,293.4,207.32ZM288,216.2a37.1,37.1,0,0,0-2,11.45c-6-5.85-12-11.8-17.54-18.12s-6.44-10.95-9.41-18.73a67,67,0,0,0-6.68-12.87A326,326,0,0,1,288,216.2Zm-74.1-63.85c9.82,6.52,19.28,13.87,27.12,22.73a53.05,53.05,0,0,1,9.64,16.08l-62.79-53.85A234,234,0,0,1,213.9,152.35Zm-52.33-38.28c-1.74-1.29-3.54-2.69-5.52-4.26l-11.52-9.16A28.8,28.8,0,0,1,161.57,114.07Zm-3.44,7.17a33.58,33.58,0,0,1-7.13-2.47c-1-1.9-2-3.79-3.08-5.68C151.26,115.94,154.66,118.69,158.13,121.24Zm.79,96.23c.22-.08.42-.19.64-.27.51.55,1,1.11,1.51,1.66A15.5,15.5,0,0,1,158.92,217.47Zm6.71-3.84s0,0,.07-.07a2.25,2.25,0,0,1,.08.24ZM164,202a6.27,6.27,0,0,0-1.07-.08c-3.31.06-4.15,3.89-2.54,5.82l-.08.07-.46-.51c-2.62-2.88-6.65.48-5.66,3.56a3.69,3.69,0,0,0-5.52,1.06,37,37,0,0,1-9.92-1.79c-35.41-10.94-64.6-47.05-85.64-75.54C38,113.38,24.23,90.74,15.19,66.18,10,52,2.57,30.9,9.54,16.06,23.19-13,71.81,30.42,83.27,41.29a323.15,323.15,0,0,1,45.91,54.36,3.46,3.46,0,0,0-1.29,3.44,35.24,35.24,0,0,0,18,24.81,261.28,261.28,0,0,1,12.16,27C162.92,163.6,169.35,188.22,164,202Zm10,19.24a3.49,3.49,0,0,0,.34-2.34c-.6-3.19-1.68-8-3.8-11.75,8.47-17.16-1.79-48.24-7.32-62q-3.54-8.79-7.75-17.52A42.33,42.33,0,0,0,166.64,129a3.84,3.84,0,0,0,1.11-.2,3.21,3.21,0,0,0,.82,1l85.56,73.38a3.58,3.58,0,0,0,1.63.79c5.95,13,20.93,24.33,30.86,33.85h0a87.33,87.33,0,0,0,3,13.17c1.29,4.24,8,2.42,6.65-1.84-.29-1-.59-2-.89-3.12q7,6.54,14,12.95a3.58,3.58,0,0,0-1.06,1c-5.78,7.81-17,14.16-27.79,17.74-28.18-25.37-67.3-56.2-106.55-56.48Zm91.35,73.35a262.84,262.84,0,0,0-74.63-62.28c29.45,11.16,55.55,39.25,74.68,62.2A.35.35,0,0,1,265.34,294.58ZM225,244.27c17.65,10.15,34.11,23.59,47.85,35.8-2.69,1.86-.81,7,3,6.13,14.34-3.3,29.43-10.6,38.41-22.75h0c.73.65,1.44,1.32,2.17,2a3.35,3.35,0,0,0,3.64.62q.18,4.68.31,9.37c-4.59,5.14-10.33,9.26-15.91,13.78a101.72,101.72,0,0,0-14.11-6.65c-4.16-1.59-5.95,5.08-1.84,6.65A92.22,92.22,0,0,1,299,293.92c-1.06.95-2.12,1.91-3.16,2.88a67.8,67.8,0,0,0-14.73-9.55,3.58,3.58,0,0,0-4.36,1,3.78,3.78,0,0,0-5.12-.48c-.59.47-1.14.94-1.68,1.42C257.54,274.38,242.23,257.54,225,244.27Zm93.9,52.63,2,.1c0,1.47.05,2.95.07,4.42a74.78,74.78,0,0,0-10.05-8.21c3.28-2.57,6.57-5.12,9.75-7.81,0,1.57.07,3.13.11,4.7l-1.89-.1C314.46,289.77,314.49,296.67,318.91,296.9ZM321.1,312c0,.53,0,1.05,0,1.58,0,5.21.18,10.6.31,16.07a120.3,120.3,0,0,0-20.49-28.16q2.19-2,4.45-3.83A59,59,0,0,1,321.1,312Zm-47.76-10.73a2.68,2.68,0,0,0-3.53,0,20.92,20.92,0,0,1,6.68-8.59,1,1,0,0,0,.15-.14,3.18,3.18,0,0,0,1,.68,62.88,62.88,0,0,1,13.17,8.44q-3.94,3.9-7.69,8A110.05,110.05,0,0,0,273.34,301.29Zm5.24,13.48q-3.42,4-6.59,8.22c-2.71-5.71-4.24-11.76-3.38-17.41a3.61,3.61,0,0,0,1.24,1.66A96.91,96.91,0,0,1,278.58,314.77Zm-7.06,20.84a77.53,77.53,0,0,0,7.46,9.28c2.39,2.54,5.88.08,5.82-2.65a110.75,110.75,0,0,1,8.84,10.81,129.73,129.73,0,0,0-13.37,8,197.33,197.33,0,0,0-16.34-12.54A143.39,143.39,0,0,1,271.52,335.61ZM316.61,391c-.9.94-1.81,1.85-2.75,2.75-9-9.41-18.25-18.95-28.05-27.77a117.56,117.56,0,0,1,11.77-7.15c5.9,9,10.93,18.43,15.2,26.55C310.05,388.19,313.62,392.35,316.61,391Zm-23.95-8.63a4,4,0,0,0,.7.22l2,2c-2.59-.55-5.26-1-8-1.36l-.33-.18a3.32,3.32,0,0,0-2.88-.17,64.65,64.65,0,0,0-13.92.19,11,11,0,0,1,1-2.84A38.06,38.06,0,0,1,292.66,382.32Zm-15.37-9.55c1-.9,1.94-1.77,3-2.62q1.62,1.44,3.21,2.91A47.12,47.12,0,0,0,277.29,372.77Zm-6.44,31.54a3.05,3.05,0,0,0,1.32-1.13c1.09,1.08,2.22,2.11,3.38,3.05a71.17,71.17,0,0,0-13.06,2.71A88.59,88.59,0,0,1,270.85,404.31Zm2.56-10.82a24.9,24.9,0,0,1-2.11-3.83,56,56,0,0,1,13.69,0c11.34,6,24.55,14.5,32.44,25.48a68.46,68.46,0,0,0-30.68-9.29,3.19,3.19,0,0,0-1.41-1.38A33.8,33.8,0,0,1,273.41,393.49Zm-9.94-28.13c.38-1.14,3.12-8.14,1.85-5.17a7.91,7.91,0,0,0,.51-1.87c3,2.24,5.95,4.59,8.85,7a45.43,45.43,0,0,0-8.1,8.77,53.29,53.29,0,0,0-6.36,1.9C261.2,372.43,262.26,368.87,263.47,365.36Zm-5.34,19.09a51.06,51.06,0,0,1,4.88-2.08,17,17,0,0,0-.15,2.25,34,34,0,0,0-5.25,2.14C257.78,386,258,385.22,258.13,384.45Zm-2.43,12.1a23.73,23.73,0,0,1,8.49-5.19,29.16,29.16,0,0,0,3.71,6.8,5.62,5.62,0,0,0-.53.19,104,104,0,0,0-13,7.26C254.76,402.58,255.19,399.56,255.7,396.55Zm-2.87,47.73c13.3-9.87,31.59-7.84,48-2.08-1.43,1.45-2.93,2.94-4.49,4.45-14.61-3.39-30.93-3.73-43.15,3C253,447.84,252.92,446.07,252.83,444.28ZM311.64,459c2.56,1.19,5.08,2.47,7.54,3.87q-.54,5.46-1.09,10.91a128.06,128.06,0,0,0-14.64-6.34C306.23,464.63,309,461.8,311.64,459ZM304,448.76c1.11-1.12,2.2-2.22,3.24-3.3a4,4,0,0,0,.46-.58c1.86.79,3.68,1.62,5.45,2.46l-3.28,3.47C308,450.09,306,449.4,304,448.76Zm20.72,53.86c.16,5.78.28,11.56.32,17.33v.94q-2.44-1.27-4.89-2.49l.18-1.57c.56-4.86,1.07-9.74,1.61-14.6C322.89,502.34,323.82,502.48,324.74,502.62Zm-2.08-6.77c.4-3.64.83-7.28,1.21-10.93l.12.07c.2,3.65.39,7.31.53,11Zm2.42,32.81c0,8.08-.11,16.29-.51,24.5-2.58-.8-5.19-1.56-7.82-2.31,1-8.42,1.77-16.85,2.63-25.14Q322.25,527.15,325.08,528.66Zm-29.19-34.35a66.32,66.32,0,0,1,4.35-20.8,123.18,123.18,0,0,1,17.11,7.66c-.5,4.77-1,9.54-1.55,14.32C309.69,495.16,302.82,494.79,295.89,494.31Zm19.24,7.33c-.45,4.07-.88,8.15-1.34,12.22-.06.5-.11,1-.17,1.51A152.72,152.72,0,0,0,296,509.14q-.27-3.76-.32-7.61c6.59.11,11.68,0,13.44,0C311.18,501.47,313.16,501.54,315.13,501.64Zm4.79-46.23c-.56-.3-1.12-.58-1.69-.86.6-.25,1.22-.48,1.84-.7ZM298,463.14l-1.93,1.94c-2.78-.77-5.58-1.42-8.39-1.91,3.81-2.9,7.44-6,10.82-9.12q2.73.79,5.39,1.75A39.69,39.69,0,0,0,298,463.14Zm-44-5.35c9.63-6.65,23.31-7.87,34.38-6.06.68.11,1.34.27,2,.4a116.3,116.3,0,0,1-13.07,10c-7.81-.17-15.35,1.2-22,4.82Q254.51,462.4,254,457.79Zm3.36,20.06c7.53-1.3,14.92-4.56,21.87-8.84a65.2,65.2,0,0,1,11.13,1.6,160.78,160.78,0,0,1-25.61,20.12c-1.62-.32-3.12-.67-4.51-1C259.15,485.77,258.18,481.83,257.32,477.85Zm34.14,1.09a84.52,84.52,0,0,0-2.25,14.87c-5-.41-9.84-.89-14.36-1.47A174.5,174.5,0,0,0,291.46,478.94Zm-28.37,20.68c.58-.31,1.17-.62,1.75-.95A158.07,158.07,0,0,0,289,501.33q0,3,.15,5.94c-8.33-2.09-16.8-3.69-25.22-5.06C263.61,501.35,263.35,500.48,263.09,499.62Zm13.44,36.2c-3.69-8.71-7.13-17.45-10.19-26.27,7.8,1.32,15.65,2.87,23.32,4.89a140.6,140.6,0,0,0,2.69,16.45c1,4.33,7.63,2.49,6.65-1.84-.85-3.76-1.63-8-2.22-12.59a131.17,131.17,0,0,1,16.07,6.06c-.9,8.73-1.72,17.62-2.74,26.49l-2.71-.73C299.26,546.09,286.92,542,276.53,535.82ZM297.85,581c-6.13-11.48-11.72-23.25-17-35.15.55.27,1.1.55,1.63.8,8.6,4.11,17.68,6.68,26.8,9.1A267.43,267.43,0,0,1,304,585.33C301.92,584,299.87,582.51,297.85,581ZM315,607.66c-2.52-3.38-5-6.77-7.4-10.26a3.83,3.83,0,0,0,.45-.88c2.08,1.17,4.19,2.28,6.31,3.28.92.44,1.87.86,2.8,1.28C316.54,603.3,315.81,605.49,315,607.66ZM310.19,589A260.24,260.24,0,0,0,316,557.47c2.75.74,5.5,1.5,8.24,2.31a203.94,203.94,0,0,1-4.95,33.83C316.17,592.19,313.15,590.68,310.19,589Zm16.14,34.09c-.22-.32-.42-.66-.64-1-2-2.88-4.06-5.67-6.13-8.43a3.57,3.57,0,0,0,1.18-1.58c1.05-2.72,2-5.49,2.83-8.28,2.63,1.1,5.32,2.18,8,3.25A149.43,149.43,0,0,1,326.33,623.13Zm60.83-48c0,.92,0,1.81.06,2.74,0,2.66-.05,5.32-.17,8-.64-.49-1.3-1-1.95-1.45q.54-5.26.83-10.56C386.34,574.28,386.76,574.7,387.16,575.14Zm-.87-10.83c0-1.06,0-2.11,0-3.16.12,1.14.22,2.31.31,3.48ZM407,610.84A319.15,319.15,0,0,1,416,649.73c-.38,1.24-.76,2.48-1.16,3.71-6.49-7.53-13.06-14.43-19.11-20.46a74.65,74.65,0,0,0-8.25-7c1.25-4.38,2.32-8.69,3.18-12.82.94-4.5,1.71-9.18,2.33-14C397.65,602.93,402.38,606.8,407,610.84Zm-13.19-19.77q.3-3.6.46-7.23a76.18,76.18,0,0,1,8.3,14.41C399.7,595.82,396.79,593.42,393.83,591.07ZM426.57,753c9.66,11.49,9.21,27-4.95,35.42a3.78,3.78,0,0,0-.36-1.24c-6.85-13.62-19.64-23.52-34.17-30.72,3.78-1,7.48-2.11,11-3.41.85-.31,1.68-.64,2.49-1,5.42.26,10.84.51,16.27.7C419.72,752.86,423.44,753.48,426.57,753Zm-7.27-17a32.33,32.33,0,0,0,2.71-6.82,100,100,0,0,1,8.67,17.19A127.64,127.64,0,0,0,419.3,736Zm-26.16,35.47h-25a3.15,3.15,0,0,0,.24-1.61c-.27-3-.57-6-.94-9q4.44-.87,8.81-1.8c16.48,6.82,31.63,16.81,39.07,31.6a3,3,0,0,0,1.88,1.64,3.85,3.85,0,0,0,3.24,3.84,3.16,3.16,0,0,0,3.17,2.13l-.46.64a111.63,111.63,0,0,0-27.32-13.18,3.43,3.43,0,0,0,.78-2.14v-8.7A3.5,3.5,0,0,0,393.14,771.43Zm-35.78-47.54c-1.42-2.67-3-5.28-4.64-7.86l-.27-1.73q10.86,7.14,22,13.88a49.46,49.46,0,0,1-11.56,9.33A75.65,75.65,0,0,0,357.36,723.89ZM362,771.43H359.3c-.23-2.95-.49-5.9-.76-8.85l2.12-.41c.3,2.57.57,5.13.8,7.65A3.54,3.54,0,0,0,362,771.43Zm-5.73-31.57h0l-.17,0-.15-1.26C356,739.05,356.16,739.45,356.28,739.86Zm-10.92-66c-.44-2.12-.9-4.24-1.4-6.36l.07,0c1.34.89,2.7,1.75,4.05,2.61Q346.76,672.06,345.36,673.89Zm.14,97.54h-11q5.31-2.7,10.46-5.7C345.15,767.63,345.35,769.53,345.5,771.43Zm-13.82-267.5a94.91,94.91,0,0,1,13.76,4.32Q344.27,519.64,343,531q-5.44-3.33-11-6.38v-1.36C332,516.82,331.85,510.37,331.68,503.93Zm.26,28.51c3.42,2,6.8,4,10.14,6.17-.73,6.45-1.42,13.09-2.18,19.83q-4.26-1.65-8.58-3.11C331.73,547.66,331.89,540,331.94,532.44ZM345.46,568a223,223,0,0,1,32.46,19.64,212.15,212.15,0,0,1-5.5,29c-5.13-2.7-10.43-5.12-15.66-7.39.15-2.25.2-4.49.16-6.69-.08-4.44-7-4.44-6.9,0,0,1.26,0,2.53,0,3.82l-4.67-1.95c-1.86-.78-3.72-1.53-5.56-2.28C342.31,591,344,579.44,345.46,568Zm31,175.86q5.19-4.2,10.05-8.53c5.08,2.95,10.23,5.83,15.49,8.47-.87.45-1.77.87-2.68,1.26q-7.92-.39-15.83-.81Zm1.38,7-2.34.51-2-.75Zm.6-16.93c.7-.71,1.38-1.42,2-2.12l.28.17Zm6.69-7.39c1.4-1.66,2.77-3.34,4.1-5.07l1.53.84c-1.48,1.64-3,3.24-4.66,4.81Zm6.7,3.93c1.62-1.57,3.13-3.19,4.56-4.86.59.37,1.19.74,1.77,1.12a86.78,86.78,0,0,1,12.46,10.5,24.77,24.77,0,0,1-2.17,2.18C402.76,736.7,397.24,733.6,391.82,730.46Zm3.57-13.85c-.61-.38-1.21-.77-1.82-1.14q3.84-5.58,7.24-11.51l1.64,1.46A93.12,93.12,0,0,1,395.39,716.61Zm3.36-23.13c-10-7.83-20.92-14.56-32-21.16a133.13,133.13,0,0,0,6.95-11.65c10.91,7,20.62,15.07,28.66,25.42C401.19,688.58,400,691.05,398.75,693.48Zm-34.47-32.34c-1.42,2.36-2.88,4.75-4.39,7.12l-1.69-1q3.6-5.76,6.72-11.84c.68.38,1.34.77,2,1.16Q365.64,658.88,364.28,661.14Zm5.8-10.5c-.73-.43-1.47-.85-2.21-1.27a184.74,184.74,0,0,0,8.66-22.48c.92.55,1.83,1.09,2.72,1.65A159.35,159.35,0,0,1,370.08,650.64ZM355.9,616.77c5,2.12,9.94,4.35,14.58,6.75a177.87,177.87,0,0,1-8.54,22.54l-.1,0c-4.58-2.48-9-4.84-13.31-7.22A68.48,68.48,0,0,0,355.9,616.77Zm-3.49,32.09c2.22,1.09,4.4,2.21,6.55,3.34q-3,5.94-6.6,11.57c-3.76-2.27-7.48-4.56-11.15-6.93-.58-2-1.17-4-1.81-6a49.36,49.36,0,0,0,5.29-6.08C347.21,646.2,349.78,647.56,352.41,648.86Zm-5,33.46q3.41-4.17,6.47-8.58l1.61,1a65,65,0,0,1-8.18,9.37c-.09-.46-.17-.92-.25-1.38A3,3,0,0,0,347.45,682.32Zm4.72,7.13a83,83,0,0,0,10-10.87c11.43,6.57,22.91,13,33.26,21-2.44,4.32-5,8.51-7.86,12.54-4.87-2.63-9.84-5.07-14.72-7.46a153.73,153.73,0,0,1-23-13.27C350.67,690.75,351.44,690.11,352.17,689.45ZM383,718.29c-1.25,1.59-2.55,3.15-3.88,4.68q-14.31-8.62-28.2-18c-.07-.44-.14-.88-.22-1.32-.12-.73-.25-1.49-.37-2.23C360.43,708.11,372,712.86,383,718.29Zm31.85,23.94.37-.42,1,1C415.76,742.6,415.32,742.41,414.87,742.23Zm-.55-10.58c-1-.91-2-1.81-2.9-2.73a79.46,79.46,0,0,0-10.75-8.84A95.22,95.22,0,0,0,407,709.74c1.3,1.34,2.59,2.72,3.82,4.15,2,2.28,4,4.8,6,7.49A25.46,25.46,0,0,1,414.32,731.65ZM404.13,697.9q1.41-2.7,2.74-5.44c.34.52.69,1,1,1.56q-1.09,2.61-2.29,5.16C405.12,698.75,404.62,698.32,404.13,697.9Zm6.8-11.78c-.22-.32-.44-.65-.67-1,1.57-3.55,3-7.16,4.43-10.78Q413,680.31,410.93,686.12ZM414.58,708l-.47-.51.19-.35C414.39,707.42,414.49,707.7,414.58,708Zm-2.33-46.78q-3.09,9-6.79,17.82c-8.22-9.71-17.94-17.47-28.76-24.35a181.19,181.19,0,0,0,8.65-21.82c.56.44,1.14.86,1.68,1.31C396.22,641.81,404.64,651.34,412.25,661.21ZM386.5,594.09a158.17,158.17,0,0,1-5.18,27.68c-.92-.58-1.85-1.15-2.8-1.71a215.31,215.31,0,0,0,5.65-27.78Zm-7.78-14.27c-6-4.18-12.15-8.13-18.49-11.76a147,147,0,0,0-13.92-7c.73-6.21,1.42-12.34,2.14-18.33a257.35,257.35,0,0,1,30.34,24l.62.6C379.29,571.51,379.07,575.67,378.72,579.82ZM346.27,500a87.21,87.21,0,0,0-9.21-2.91,42.15,42.15,0,0,0-5.61-.68q-.51-13.36-1.64-26.69a137,137,0,0,1,17.81,15.57Q347,492.63,346.27,500ZM330.9,561.92c2.78,1,5.53,2,8.23,3.17a336.37,336.37,0,0,1-5.68,34.56c-2.63-1.06-5.22-2.12-7.79-3.21A204.41,204.41,0,0,0,330.9,561.92Zm.63,66.66a149.73,149.73,0,0,0,6.38-19c3.8,1.48,7.62,3,11.42,4.49a62.22,62.22,0,0,1-6.82,21.32C338.78,633.23,335.12,631,331.53,628.58ZM334.91,639c1.24.79,2.48,1.57,3.74,2.33-.6.78-1.22,1.53-1.86,2.27C336.19,642.05,335.57,640.52,334.91,639ZM253.46,763.3a72.64,72.64,0,0,1,8.66-9.8c18.48-17,46-32.86,67.72-48.22,1.4-1,2.86-2,4.33-2.95,1,1.3,2.07,2.59,3.08,3.9.22,1.38.44,2.75.66,4.08q2.61,15.78,4.58,31.68c-3.79-.09-4.55,6-.81,6.78l1.62.34c.32,2.84.65,5.68.94,8.52l-2.87,1.7c-24.58,6-49,12.55-73.52,19.12a3.12,3.12,0,0,0-2.43,2.84c-4.77-.28-9.58-1-12.51-2.86C246,774.17,249.32,768.8,253.46,763.3Zm31.45,35c1.65-5,5.63-9.21,10.53-12.59a152.1,152.1,0,0,0,29.19-9.56v7.47a3.17,3.17,0,0,0,.93,2.35.46.46,0,0,0,.07.07,1.14,1.14,0,0,0,.11.11l.11.1-1.26.43A108.21,108.21,0,0,0,299.07,800C295,799.66,290,799.14,284.91,798.26Zm6.21,7.88c-1.8,1.54-3.56,3.14-5.25,4.79a19.34,19.34,0,0,1-1.68-5.76C286.55,805.56,288.87,805.88,291.12,806.14Zm-2.3-26.23,5.3-1.45-1,.62C291.71,779.39,290.27,779.66,288.82,779.91Zm-10.63,17c-8.27-2-16.3-5-21.57-9.84a90,90,0,0,0,18.57,1.16q4.1-.13,8.19-.59A27.37,27.37,0,0,0,278.19,796.89ZM450.6,837.58c22.07,37.19,18.14,85.79-9.79,118.85a104.12,104.12,0,0,1-114.38,30.48c-40.71-14.84-66.82-54-67.58-96.81A105.92,105.92,0,0,1,301.2,807l1.15.06a3,3,0,0,0,3.31-3.2,100.88,100.88,0,0,1,36.62-15C384.63,780.71,428.6,800.5,450.6,837.58ZM433.71,806a3.87,3.87,0,0,0-.93.13q-2-1.67-4-3.23a203.9,203.9,0,0,0,20.9-35.14C463.54,780.85,456.12,805.72,433.71,806Zm7.6-43.74a3.21,3.21,0,0,0,1,.68c.37.17.71.35,1.07.53-.61,1.42-1.24,2.85-1.89,4.25A47.57,47.57,0,0,0,441.31,762.23Zm15-51.89c-.69-22.31-6-44.55-16.49-64C452.7,666,457.45,688.07,456.34,710.34ZM428.7,641c13,19.87,19.64,43.6,20.68,67.51-5.4-15-14.45-29.59-24.55-42.79,0-1.23-.07-2.47-.16-3.69A201,201,0,0,0,428.7,641Zm-4.43,36.86c12,17.59,24.39,40.13,23.26,62.13a150.72,150.72,0,0,1-3.47,16c-.09.22-.19.44-.28.67a3.91,3.91,0,0,0-2.88,2.14C439,746.25,432.64,733.55,426,722.9q-1.33-2.13-2.76-4.15a51.2,51.2,0,0,0-5-20.19,91.71,91.71,0,0,0,5.78-21Zm-5.18-49.51c.76.87,1.5,1.75,2.24,2.63-.32,1.19-.64,2.37-1,3.56Q419.76,631.46,419.09,628.38Zm-4.69-50.79c7,13,9.39,26.12,9.35,39.9-3.31-3.32-6.77-6.58-10.36-9.82-4.3-12.58-10.25-24.43-19-34.72A137.21,137.21,0,0,0,390.54,542,201.22,201.22,0,0,1,414.4,577.59Zm-59-103c16.75,14.48,30.06,32.56,32.51,53.87q-1.55-1.59-3.14-3.15a154.09,154.09,0,0,0-30-43.38Q355.08,478.3,355.36,474.62Zm-1.46,17.51c2.71,3.13,5.31,6.34,7.77,9.62,2.63,3.5,5,6.92,7.19,10.32a103.38,103.38,0,0,0-15.95-9.3C353.26,499.22,353.58,495.68,353.9,492.13ZM352,511.18a110.4,110.4,0,0,1,25.26,17.25,230.17,230.17,0,0,1,2.2,29.5A245,245,0,0,0,349.37,535Q350.79,523.12,352,511.18Zm-3.66-35.47a140.61,140.61,0,0,0-21.93-16.63c.14-1.48.3-3,.45-4.44a196.68,196.68,0,0,1,22,14.66C348.73,471.44,348.54,473.58,348.38,475.71Zm0-15.51a208.84,208.84,0,0,0-35.67-20.7c-19-8.68-42.51-13.16-60.07-3.23q-.09-7.86.38-15.7c.9-.52,1.8-1,2.74-1.5,18.66,2,49.15,5.48,61,21.55,2.23,3,6.93.94,6.57-2C332.34,444.48,341.9,451.56,348.35,460.2Zm-12.92-21.58c-4.68-3.41-9.49-6.5-14-9.27a3.2,3.2,0,0,0-4.69,1.45c-11.73-10-29.74-14.37-46-16.77a64.05,64.05,0,0,1,10.62-1.31C303.32,412,321.18,423.3,335.43,438.62Zm-17.55-59.09a3,3,0,0,1-.23.27c-9.68-18.22-22.56-40.48-40.09-52.72q2.85-3.75,5.89-7.34A174.5,174.5,0,0,1,303.51,347c2.31,3.79,8.28.32,6-3.48A178.13,178.13,0,0,0,288,314.6q3.87-4.28,8-8.32c11.12,11,19.53,25.4,25.46,39.07.06.13.14.24.2.35C321.46,357.29,320.64,368.85,317.88,379.53ZM327,264.47a3.31,3.31,0,0,0-2.65-3.2A3.61,3.61,0,0,0,324,260c-1.06-2.19-2.17-4.36-3.31-6.52a180.52,180.52,0,0,0,13.15-14A60.27,60.27,0,0,1,341.68,263a3.91,3.91,0,0,0,.22.88,18.11,18.11,0,0,0-14.83,4.07C327,266.78,327,265.62,327,264.47Zm1.37,72.26a3.79,3.79,0,0,0,6-2.56c1-9.13-1.6-17.29-6.34-24.39q0-6.36-.15-12.74a53.52,53.52,0,0,0,15.67-2.48c-.06,24.41-4.65,49.76-16.13,70.71A244.19,244.19,0,0,0,328.33,336.73Zm36.26-25.09a3.75,3.75,0,0,0,.38,1.2c-1.89,28.46-16.72,55.8-37.46,76.3,23.66-28.52,33.32-67.47,28.6-104.39C360.12,293.42,363.4,302.48,364.59,311.64Zm3-59.36a80.17,80.17,0,0,0-6.92-10.71c4.19-2.54,8.93-5.72,12.93-8C372.62,240,370.93,246.67,367.54,252.28Z"/></g></g></svg>