<svg xmlns="http://www.w3.org/2000/svg" viewBox="0 0 1000 771.05"><title>Asset 14</title><g id="Layer_2" data-name="Layer 2"><g id="Layer_1-2" data-name="Layer 1"><path d="M204.8,214.63l-14.89-3.94a1.1,1.1,0,0,0-1.38,1.05L186.34,252c0,.06,0,.1,0,.15a1.2,1.2,0,0,0,0,.2.83.83,0,0,0,0,.15.87.87,0,0,0,.71.56L202,255.75a1.11,1.11,0,0,0,1.38-1.06l2.28-39A1.11,1.11,0,0,0,204.8,214.63Zm-14.16-2.29c.05-.43.2-.26,0,0Zm12,16.35q-.37,6.5-.76,13c-.18,3.17.93,9.64-2.33,11.41-1.59.86-8.12-1.21-11-1.93.75-12.34,3.19-25.82,2.06-38,0-.06,0-.11,0-.17,1.05.24,2.33.81,3,1,1.92.5,9.15,1.18,10.33,2.73C204.47,217.29,202.75,227.21,202.66,228.69Z"/><path d="M200.5,325.42l-12.78-2.18a1.1,1.1,0,0,0-1.38,1.05v34.16c0,.05,0,.08,0,.12a.93.93,0,0,0,.78.94l12.78,2.62a1.1,1.1,0,0,0,1.38-1.05v-34.6A1.12,1.12,0,0,0,200.5,325.42Zm-1.2,34.52c.25,1.15-.45.27,0,0Zm-.19-23.18v16.6c0,1.65-.52,4.31,0,5.9.06.19.11.34.14.48-3.53-.85-7.15-1.47-10.72-2.19V332.29c0-1.78.54-4.42,0-6.11a2.09,2.09,0,0,1-.05-.56c2.06.54,4.33.7,6.41,1.05,1.42.25,4.81,1.65,4.37.24C200.12,329.2,199.11,334.6,199.11,336.76Z"/><path d="M197.8,444.54l-10.08-3.06a.93.93,0,0,0-1,.22.71.71,0,0,0-.15.15h0a1,1,0,0,0-.25.67v36.35a1.13,1.13,0,0,0,.8,1.06l10.07,2.92a1.12,1.12,0,0,0,1.39-1.06V445.6A1.13,1.13,0,0,0,197.8,444.54ZM196.41,479a7.69,7.69,0,0,1-.06,1.34,39.79,39.79,0,0,0-4.27-1.22c-1-.29-2-.5-3-.87a5.16,5.16,0,0,0-.8-.28c-.67-2.61.25-7.36.25-9.66V444l4.33,1.32c1.28.39,4,1.87,3.68.67.83,2.22-.13,7.34-.13,9.45V472A68.49,68.49,0,0,0,196.41,479Z"/><path d="M111.09,268,122,264.47a1.06,1.06,0,0,0,.42-.23,1,1,0,0,0,.39-.82V221.81a1.11,1.11,0,0,0-1.65-.94l-11,5.69a1.12,1.12,0,0,0-.54.95v39.41A1.11,1.11,0,0,0,111.09,268Zm.8-38.56a5.38,5.38,0,0,0,.09-1.21,1.15,1.15,0,0,0,.32-.25c1.62-1.67,4.82-2.13,6.71-3.49a14.46,14.46,0,0,1,1.67-1c.23,4.08,0,8.27,0,12.35v26.82l-5.48,1.75a28.52,28.52,0,0,1-3.55,1.21c-.72-3.3.27-8.49.27-11.54V235.73A45.82,45.82,0,0,1,111.89,229.42Z"/><path d="M81.57,281.88l9.37-4.38a1.08,1.08,0,0,0,.54-.94V239.33a.29.29,0,0,0,0-.09s0,0,0-.06a1,1,0,0,0-.7-.85,1.05,1.05,0,0,0-.76,0h0a.88.88,0,0,0-.15,0l-9.37,5a1.1,1.1,0,0,0-.54,1v36.57A1.11,1.11,0,0,0,81.57,281.88Zm.24-2.06c.22.26-.12.74,0,0Zm.3-35.07c-.34.73,1.47-.52,2.76-1.21l4.42-2.38v23.23c0,3,1.14,8.72,0,11.57a20.66,20.66,0,0,1-2.12.89,48.92,48.92,0,0,0-5.24,2.47c0-.19.1-.39.18-.65.49-1.56,0-4.16,0-5.77V256.14C82.11,253.35,80.92,247.33,82.11,244.75Z"/><path d="M90,326.8a1,1,0,0,0-.71,1v57.37a1.1,1.1,0,0,0,1.39,1.06l16-6.57a1.15,1.15,0,0,0,.8-1.06V321.66a1.1,1.1,0,0,0-1.39-1.05l-16,6.13A.33.33,0,0,0,90,326.8Zm1.48,41.41V328.54l8-3.06c1.68-.64,4.06-1.11,5.55-2.12.24-.17.43-.28.58-.37,1.08,4.56-.3,11.77-.3,16.08v35.47c0,1.29-.64,4.14.3,3.38-2,1.81-7.6,2.94-9.88,3.88-1.46.59-2.92,1.17-4.37,1.78C90.81,378.62,91.48,373.13,91.48,368.21Z"/><path d="M106.12,425.71,87.73,431.4a1.22,1.22,0,0,0-.43.25,1,1,0,0,0-.37.81v62.19a1.1,1.1,0,0,0,1.38,1.05l18.4-7a1.16,1.16,0,0,0,.8-1.06V426.77A1.11,1.11,0,0,0,106.12,425.71Zm-.57,61a3.13,3.13,0,0,0-.54.28,22.48,22.48,0,0,1-3.43,1.31c-3.49,1.32-7.3,2.39-10.64,4.05-.47.23-1.17.57-1.85.83,0-1.38,0-2.78,0-4.16V433.28c4.61-1.25,12.16-2.15,15.54-4.82a1.57,1.57,0,0,1,.66-.25c0,1.77,0,3.56,0,5.33v42.23C105.32,478.48,106.35,483.82,105.55,486.73Z"/><path d="M106.12,551.84l-20.71,3.5a.87.87,0,0,0-.78.93s0,.08,0,.12v78.39A1.11,1.11,0,0,0,86,635.84l20.72-3.94a1.11,1.11,0,0,0,.8-1.06v-78A1.11,1.11,0,0,0,106.12,551.84Zm-.68,2c-.23-.18-.08-.37,0,0Zm-.12,76.91c1-1.86-3.7-.08-5.56.28-4.18.79-8.94,1.08-13,2.47l-.1,0a3.83,3.83,0,0,0,.1-.45c.37-2.15,0-4.7,0-6.88V557.3c6-1.1,12.6-3.1,18.66-3.25a6.55,6.55,0,0,1-.14,1.56c-.48,2.64,0,5.82,0,8.49V617C105.32,620.11,106.83,627.88,105.32,630.72Z"/><path d="M196.52,549.78a1.06,1.06,0,0,0-.11.48v81.9a1.11,1.11,0,0,0,1.1,1.09L226,635.88a1.12,1.12,0,0,0,1.1-1.1V552.89a1.12,1.12,0,0,0-1.1-1.09l-28.46-2.63A.89.89,0,0,0,196.52,549.78Zm2.08,77.09V551.46l22.58,2.08a29.06,29.06,0,0,1,3.76.27c.37,1.92-.06,4.43-.06,6.31v57.41c0,4.56,1.26,11.42.19,16.09a26.73,26.73,0,0,1-4.54-.43l-15.38-1.42a47.39,47.39,0,0,0-5.69-.53,3.61,3.61,0,0,1-1.06-.09A39.83,39.83,0,0,1,198.6,626.87Z"/><path d="M132.69,664.34H115.76a1.12,1.12,0,0,0-1.1,1.1v50.8a1.12,1.12,0,0,0,.81,1.06l16.93,2.62a.54.54,0,0,0,.22,0h.19l.09,0a1,1,0,0,0,.89-1V665.44A1.12,1.12,0,0,0,132.69,664.34Zm-1.09,16.8V717.6l-7.93-1.23c-1.64-.26-8-2-6.82-.21-1.59-2.28,0-10.94,0-13.61V677.6a76.69,76.69,0,0,0,0-8.71,10.73,10.73,0,0,1-.06-2.49c2.75-.73,7.26.13,9.94.13,1.4,0,2.8,0,4.2,0h1C133,670.32,131.6,677.69,131.6,681.14Z"/><path d="M100.72,668.29h-15a1,1,0,0,0-.69.27l-.08.05-.05.07a1,1,0,0,0-.27.7v43.79a1.1,1.1,0,0,0,.8,1.06l15,2.19a1.12,1.12,0,0,0,1.39-1.06v-46A1.11,1.11,0,0,0,100.72,668.29Zm-.83,45.84-.37,0c-1.72-.17-3.44-.5-5.15-.75-1.44-.21-5.47-.08-7.39-.79a12.32,12.32,0,0,1-.18-2.31,76.78,76.78,0,0,0,0-8.17V670.48h6.41c1.81,0,3.68.15,5.48,0a4.37,4.37,0,0,1,1.3.09c.58,2.84-.36,8-.36,10.22v21.62C99.63,705.6,100.59,710.71,99.89,714.13Z"/><path d="M39.12,147.84l-8.32,3.07A1.12,1.12,0,0,0,30,152v36.79a1.11,1.11,0,0,0,1.38,1.06l8.32-3.29s.06,0,.1-.06a1,1,0,0,0,.71-1V148.9A1.11,1.11,0,0,0,39.12,147.84ZM38.32,161V184.7a24.88,24.88,0,0,0-4.71,1.88,8,8,0,0,1-1.55.72c-.51-3.09.13-7,.13-10V160.58c0-1.41-.13-7.17-.24-8,.45.16,4.23-1.18,4.94-1.6a8.57,8.57,0,0,1,1.52-.66C38.86,153.73,38.32,157.67,38.32,161Z"/><path d="M56.42,277.83l9,1.31a.5.5,0,0,0,.21,0,.89.89,0,0,0,.23,0h0a1,1,0,0,0,.89-1v-28A1.08,1.08,0,0,0,66,249l-9-1.32a1.11,1.11,0,0,0-1.38,1.06v28A1.09,1.09,0,0,0,56.42,277.83ZM57.81,269V250l3.1.45a13,13,0,0,0,3.08.45,1.12,1.12,0,0,1,.82.1c.33,2.06-.22,5.05-.22,6.85v19l-3.1-.45a13,13,0,0,0-3.09-.46,1.11,1.11,0,0,1-.81-.09C57.26,273.77,57.81,270.78,57.81,269Z"/><path d="M53.86,382.32l11.83,1.31a1.09,1.09,0,0,0,1.09-1.09v-32a1.13,1.13,0,0,0-1.09-1.1l-11.83-1.53a.84.84,0,0,0-1,.61,1,1,0,0,0-.11.48v32.19A1.13,1.13,0,0,0,53.86,382.32Zm10.76-.56c-.08.2-.15.14,0,0Zm0-30.54c-.16-.19-.06-.27,0,0ZM55,379a32.88,32.88,0,0,0,0-5.7v-23c3.12.28,6.86.25,9.73,1.18a4.32,4.32,0,0,1-.1,1.17,33.78,33.78,0,0,0,0,5.69v16c0,1.85-.34,4.09,0,5.92a4.31,4.31,0,0,1,.09,1.34,34.8,34.8,0,0,1-9.66-1A2.91,2.91,0,0,1,55,379Z"/><path d="M52.55,487.85h11a1,1,0,0,0,.89-.51,1.06,1.06,0,0,0,.2-.58q.55-15.43,1.1-30.87a1.12,1.12,0,0,0-1.1-1.1H53.86a1.11,1.11,0,0,0-1.09,1.1q-.66,15.44-1.31,30.87A1.1,1.1,0,0,0,52.55,487.85Zm11-31.27c-.22-.2-.07-.3,0,0Zm-9.8,28.11a41.28,41.28,0,0,0,.23-5.22q.32-7.61.64-15.21l.24-5.61c0-.47.16-1.17.2-1.69a36.84,36.84,0,0,0,4.19,0c1.3,0,2.93-.25,4.34-.13a4.2,4.2,0,0,1-.14,1.11c-.43,1.73-.15,4-.21,5.76l-.78,22a66.67,66.67,0,0,1-8.82.1A6.36,6.36,0,0,1,53.73,484.69Z"/><path d="M62,591.43H53.86a1.11,1.11,0,0,0-1.09,1.09v31.1a1.11,1.11,0,0,0,1.09,1.09H62a1,1,0,0,0,.69-.27l.08-.05,0-.07a1,1,0,0,0,.27-.7v-31.1A1.11,1.11,0,0,0,62,591.43Zm-1.1,11.22v19.87H56.72c-.53,0-1.18.06-1.79.06-.2-2.8,0-5.72,0-8.51v-14.2c0-1.62.13-3.3,0-4.92a11,11,0,0,1,.07-1.34,32.7,32.7,0,0,0,4.08,0c.53,0,1.18,0,1.79,0C61.11,596.55,60.87,599.67,60.87,602.65Z"/><path d="M319.72,358.69a1.14,1.14,0,0,0,.16.15,1,1,0,0,0,1,.23l19.7-5.91a1.13,1.13,0,0,0,.81-1.06V306.55A1.11,1.11,0,0,0,340,305.5l-19.71,6.35a1.12,1.12,0,0,0-.8,1V358a1,1,0,0,0,.25.67Zm3.62-45.53c3.26-.51,6.66-2.15,9.8-3.16a48.24,48.24,0,0,0,5.9-1.88c0,.81.14,1.83.14,2.31v32.84c0,2.4.34,5.12,0,7.49-.25,1.71,1.4.63-1.69,1-5.23.68-10.69,3-15.83,4.72V321.65a55.67,55.67,0,0,1,0-7.42C321.89,312.64,320.26,313.64,323.34,313.16Z"/><path d="M262,447.46l-10.22,1.75a1.1,1.1,0,0,0-.8,1.06V483a1.1,1.1,0,0,0,1.38,1l10.22-3.21a1.08,1.08,0,0,0,.42-.24,1,1,0,0,0,.38-.81V448.52A1.11,1.11,0,0,0,262,447.46ZM261.22,479l-8,2.53V459.81c0-1.78-.89-6.32-.31-7.67.66-1.51-.29-.16,1.1-1.09.59-.4,2.83-.48,3.51-.6l3.72-.64Z"/><path d="M340,399.58,315.31,406a1.13,1.13,0,0,0-.8,1.06v79.7a1,1,0,0,0,.43.84.94.94,0,0,0,.95.21l24.67-7a1.11,1.11,0,0,0,.81-1.05V400.64A1.11,1.11,0,0,0,340,399.58Zm-.8,79.39,0,0c-3.19,2.13-9.62,2.65-13.19,3.66l-9.27,2.63V419.19c0-2.89.24-5.91,0-8.79-.17-1.94.43-2.87,0-2.64,2.49-1.47,7.26-1.73,9.89-2.42,4.23-1.1,8.51-2.07,12.7-3.3,0,.1-.05.21-.07.34-.48,2.49,0,5.59,0,8.11v55.57c0,3.38-.29,6.91,0,10.29A9.58,9.58,0,0,1,339.18,479Z"/><path d="M301.59,626l26.35-1.24a1,1,0,0,0,.54-.18,1,1,0,0,0,.55-.91V538.15a1.12,1.12,0,0,0-1.38-1.06l-28.25,4.67a1.11,1.11,0,0,0-.81,1.06q1,41,1.9,82A1.11,1.11,0,0,0,301.59,626Zm-1.1-82.16c1.63-1.34,7.39-1.22,9.43-1.56l12.9-2.13c1.39-.23,2.78-.42,4.16-.69,0,1-.14,2.15-.14,3V622.6c-6.39.57-21,3.42-24.24-1.16-1.51-2.16-.25-10.93-.31-13.68q-.17-6.82-.32-13.67l-.63-27.34L301,553.07C301,551.77,300.2,544,300.49,543.79Z"/><path d="M266.41,630.33l23.94-1.17a1.1,1.1,0,0,0,1.09-1.09V546a1,1,0,0,0-.11-.48.86.86,0,0,0-1-.61c-8.11.83-16.22,2.8-24.23,4.27a1.09,1.09,0,0,0-.81,1v79A1.1,1.1,0,0,0,266.41,630.33ZM267.2,551c-.2.89,1.51-.19,2.81-.27a64.33,64.33,0,0,0,7.49-1.36c3.89-.7,7.82-1.59,11.75-2.08v66.32c0,3.29,1.24,9.77.29,13.41l-.52,0c-1.61.16-3.26.16-4.88.24-4.73.23-9.61.13-14.31.7-.42,0-1.59-.06-2.34,0-.14-2.27,0-4.6,0-6.87V566.74C267.5,563.49,265.92,554.66,267.2,551Z"/><path d="M299.69,705.66h7a1,1,0,0,0,.69-.27l.08-.06,0-.07a1,1,0,0,0,.27-.7V668.07a1.11,1.11,0,0,0-1.09-1.1h-7a1.12,1.12,0,0,0-1.1,1.1v36.49A1.12,1.12,0,0,0,299.69,705.66Zm1.18-36.58a42.76,42.76,0,0,0,4.73.08h0c0,.1,0,.21,0,.34-.48,3.81,0,8,0,11.83v22.14h-4.82v0c0-3.81,0-7.62,0-11.44v-15.3c0-2,.18-4.16,0-6.18A12.6,12.6,0,0,1,300.87,669.08Z"/><path d="M281.59,705.66h6.13a1,1,0,0,0,.69-.27l.08-.06.05-.07a1,1,0,0,0,.27-.7V669.38a1.11,1.11,0,0,0-1.09-1.09h-6.13a1.11,1.11,0,0,0-1.1,1.09v35.18A1.12,1.12,0,0,0,281.59,705.66Zm5.12-35.6c-.21-.24,0-.36,0,0Zm-4,21v-14c0-1.76.16-3.61,0-5.36a10.8,10.8,0,0,1,.08-1.32c.94.12,2.86-.08,4,0a4.36,4.36,0,0,1-.1.67c-.77,3.56,0,8.15,0,11.79v20.65a28.8,28.8,0,0,1-4.05,0c0-.16.06-.35.11-.59C283.45,699.34,282.68,694.73,282.68,691.1Zm-.12,12.46c.26.3-.16,1.08,0,0Z"/><path d="M409.76,676H384.65a1.11,1.11,0,0,0-1.1,1.1l1.17,61.31a1.11,1.11,0,0,0,1.1,1.09h23.94a1,1,0,0,0,.69-.27l.08,0,.05-.07a1,1,0,0,0,.27-.7V677.12A1.11,1.11,0,0,0,409.76,676Zm-1,2c-.23-.23-.06-.44,0,0Zm-.11,1.68c-.93,5.6,0,12.21,0,17.87v39.79H392a32.3,32.3,0,0,0-4.4,0,4.9,4.9,0,0,1-.92.06c-.07-1.07.14-2.5.13-3.2q-.42-21.84-.83-43.68c-.06-3.23-1.22-8.8-.48-12.29h.06a29.63,29.63,0,0,1,3.65,0h11.36c2.34,0,5.82-.61,8.19-.08A6.16,6.16,0,0,1,408.66,679.67Z"/><path d="M513.69,671.35h-26a1.12,1.12,0,0,0-1.1,1.1v66a1.11,1.11,0,0,0,1.1,1.09h26a1,1,0,0,0,.7-.27l.07,0,0-.07a1,1,0,0,0,.28-.7v-66A1.11,1.11,0,0,0,513.69,671.35Zm-1,1.91c-.12-.14-.06-.21,0,0Zm0,1.93c-.88,6.1,0,13,0,19.16v43H494.21a24.17,24.17,0,0,0-4.42,0,2.71,2.71,0,0,1-1.17,0c0-1,.18-2.28.18-2.9V688c0-4.09-1.2-10.39-.17-14.56a24.56,24.56,0,0,1,3.46.07h12.78c2.27,0,5.5-.59,7.81-.1A6.73,6.73,0,0,1,512.6,675.19Z"/><path d="M480.19,514.79V626a1.1,1.1,0,0,0,1.1,1.09l40.87-3.5a.89.89,0,0,0,.29-.09l.16,0h0a1,1,0,0,0,.63-1V510.7a1.1,1.1,0,0,0-1.09-1.09l-40.87,4.09A1.12,1.12,0,0,0,480.19,514.79Zm2.11,1h.09c2.17-.36,4.42-.45,6.6-.66l20.23-2,8.9-.89c.48-.05,1.93,0,2.85-.2-.13,1.23.09,3.48.09,4.3V621.52l-31.36,2.69c-2.08.18-4.63,0-6.64.57-.38.11-.66.17-.86.22-.4-2.12.18-5.28.18-7.21V539.11C482.38,532,480.87,522.89,482.3,515.79Z"/><path d="M465.23,516.66l-37.08,5.54a1.1,1.1,0,0,0-.8,1.06q.58,54.15,1.16,108.31a1.11,1.11,0,0,0,1.1,1.1l35.91-2.34a1.28,1.28,0,0,0,.35-.09l.07,0,.09-.05a1,1,0,0,0,.58-.93V517.71A1.1,1.1,0,0,0,465.23,516.66Zm-.81,16.73v94.82l-25,1.63c-1.25.08-9,1.23-8.7,1.58-.19-.22.14-.88,0-1.14-1.62-2.85-.12-11.46-.16-14.66L430,562.73c-.13-12.52-1.47-25.69-.41-38.18,0-.13,0-.25,0-.36h0c2.34-1.08,6.22-.93,8.75-1.3,7.79-1.17,16.84-4,24.7-3.7.55,0,2.24-.7,2.66-.4C464.9,518.19,464.42,532.46,464.42,533.39Z"/><path d="M413.84,524.83l-34.45,4.67a1.1,1.1,0,0,0-.8,1.06V634.78a1.11,1.11,0,0,0,1.1,1.1l34.45-4.38a1.29,1.29,0,0,0,.21-.07,1,1,0,0,0,.88-1V525.89A1.12,1.12,0,0,0,413.84,524.83Zm-.8,8.8v95.82l-29.19,3.71c-.71.09-2,.5-3.08.58,0-.09,0-.18,0-.28.11-3,0-6,0-9V538.28c0-1.62-.61-4.82-.22-6.69a2.36,2.36,0,0,0,.38-.11c1.92-.67,4.47-.6,6.48-.88L407,528c1.59-.22,4.26-.13,5.76-.78l.38-.16C413.31,529.17,413,531.51,413,533.63Zm.71-6.85c.23-.07.17,0,0,0Z"/><path d="M441.87,374.47l-28,7a1.12,1.12,0,0,0-.8,1.06l-1.17,86.71a1.1,1.1,0,0,0,1.39,1.05l29.19-7.08a1,1,0,0,0,.7-.57.72.72,0,0,0,.05-.21.7.7,0,0,0,0-.14.61.61,0,0,0,0-.13V375.53A1.11,1.11,0,0,0,441.87,374.47Zm-.8,7v79.84l-23.82,5.77c-1.05.26-2.11.57-3.18.81,0-2.19.07-4.39.1-6.58q.4-29.65.8-59.31c.07-5.21-1.43-13.55.18-18.64,1.2-.63,3.46-.81,4.64-1.11l15.89-4a33.18,33.18,0,0,0,5.26-1.32l.31-.13C441.36,378.33,441.07,380.14,441.07,381.47Z"/><path d="M486.54,364.55l-31.82,6.13a1.11,1.11,0,0,0-.81,1.05q.73,45.22,1.46,90.44a1,1,0,0,0,.45.84,1,1,0,0,0,.94.21l28.61-7.52a1.11,1.11,0,0,0,.81-1.05q.87-44.52,1.75-89A1.11,1.11,0,0,0,486.54,364.55Zm-.83,2.59c-.34,2.93-.12,6-.18,9q-.63,31.81-1.25,63.63c-.08,3.78-.51,7.76-.23,11.53a12.31,12.31,0,0,1,0,2.44l-.35.15c-7.62,3.72-17.75,4.85-26.19,6.9q-.36-22.78-.73-45.56-.27-15.93-.52-31.86c0-2.87.3-6.11-.14-9a11.43,11.43,0,0,1-.12-1.76,3.86,3.86,0,0,0,.66-.11c4.22-1,8.56-1.65,12.82-2.47,4.54-.87,11.28-.88,15.39-3a4.51,4.51,0,0,1,.85-.35C485.73,366.9,485.72,367,485.71,367.14Zm.63-.49c.25,0,.19.16,0,0Z"/><path d="M449,242.08l0,0a.92.92,0,0,0,1,.25l5.25-1.83a1.12,1.12,0,0,0,.8-1.05V220.21a1.11,1.11,0,0,0-1.38-1.06l-5.26,1.46a1.13,1.13,0,0,0-.8,1.06v19.64a1,1,0,0,0,.24.65Zm1.86-14.3a39.55,39.55,0,0,0,.13-5.25c.33-.1.68-.25.92-.32l2-.56v11.83a38.89,38.89,0,0,0-.11,5.2c-.33.12-.68.3-.93.39l-2,.7Z"/><path d="M453.91,272.47v49.19a1.12,1.12,0,0,0,1.39,1.06l17.81-4.23.13-.07.05,0a.94.94,0,0,0,.28-.16,1.15,1.15,0,0,0,.14-.17l.09-.12a.89.89,0,0,0,.08-.34v0c0-.05,0-.09,0-.15L472,267.21a1.11,1.11,0,0,0-1.39-1l-15.91,5.25A1.14,1.14,0,0,0,453.91,272.47Zm10.14-1.84a26.32,26.32,0,0,0,4.37-1.44,4.41,4.41,0,0,1,1.91-.56c.74,3.28-.08,9.76,0,12.11l1.35,35.85c-4.24,1.18-11.12,4.12-15.5,4.07a10.05,10.05,0,0,1-.09-2.48c.26-2.87,0-5.89,0-8.77V276.94a22.61,22.61,0,0,0-.05-3.95C457.29,272.75,462.73,271.07,464.05,270.63Z"/><path d="M449.46,272.29l-18.39,5.25a1.14,1.14,0,0,0-.8,1.06v52a1.1,1.1,0,0,0,1.38,1.05l18.4-6.27.1-.07a1,1,0,0,0,.7-1v-51A1.1,1.1,0,0,0,449.46,272.29Zm-.8,3.64c-.63,2.89,0,6.65,0,9.61v38c-5.26,1.88-10.79,4.53-16.23,5.61a12.47,12.47,0,0,1,0-1.94,79.22,79.22,0,0,0,0-8.58v-25c0-3-1.66-12.22,0-15-1.12,1.85,4.37-.5,6-1,3.24-.93,7-2.68,10.43-3.06A8.75,8.75,0,0,1,448.66,275.93Zm.22-1.45c-.28-.25,0-.75,0,0Z"/><path d="M624.12,224.59v57.22a1,1,0,0,0,.47.87,1.55,1.55,0,0,0,.22.12h0a1,1,0,0,0,.69.07l26.28-6.72a1.11,1.11,0,0,0,.8-1V220.21a1.12,1.12,0,0,0-1.39-1.06l-26.27,4.38A1.1,1.1,0,0,0,624.12,224.59Zm2,.77c.21.74,2.91-.31,4.48-.57,6.57-1.1,13.25-1.95,19.78-3.29a.93.93,0,0,1,0,.14,60.22,60.22,0,0,0,0,7.48v41.75a24.77,24.77,0,0,0,0,3.56,59.55,59.55,0,0,0-6,1.35l-18.08,4.62V228.67A29.41,29.41,0,0,1,626.16,225.36Z"/><path d="M656.46,331.85l-39.41,5.54a.84.84,0,0,0-.78.93.61.61,0,0,0,0,.13v82a1.11,1.11,0,0,0,1.1,1.09h39.41a1.11,1.11,0,0,0,1.09-1.09V332.9A1.11,1.11,0,0,0,656.46,331.85Zm-.8,28.56v35.8c0,7.59-.48,15.35,0,22.93,0,.07,0,.18,0,.3a2.79,2.79,0,0,1-1.24,0c-4.51-1.21-11,0-15.66,0H622.86a28.85,28.85,0,0,1-4.46,0c-.86-6.65,0-14.05,0-20.71V339.39l24.74-3.48c3.88-.54,8.75-.44,12.44-1.75l.15-.05a8.23,8.23,0,0,1-.1,1.26C654.14,343.06,655.66,352.59,655.66,360.41Zm.61-26.43c.59-.11.37.19,0,0Z"/><path d="M686.53,491.22,646,489.46a1.12,1.12,0,0,0-1.1,1.1q-1.17,60.59-2.33,121.16a1.1,1.1,0,0,0,1.09,1.09l42.92,1.46a.92.92,0,0,0,.89-.48,1,1,0,0,0,.2-.61V492.31A1.11,1.11,0,0,0,686.53,491.22Zm-1.1,8.79v112l-34.11-1.16c-2.19-.08-4.42,0-6.61-.23h0c-.37-2.69.17-5.91.22-8.57q.81-42.09,1.63-84.18c.16-8.51-.69-17.79.47-26.25a57.89,57.89,0,0,1,6.32.31l22.18,1c2.66.11,5.7.7,8.33.36a4.53,4.53,0,0,1,1.81,0C686,495.35,685.43,498.23,685.43,500Z"/><path d="M628.43,488l-36.2,4.38a1.13,1.13,0,0,0-1.1,1.1v119.7a1.1,1.1,0,0,0,1.1,1.09l36.2-2a1.06,1.06,0,0,0,.38-.1h0l.12-.06a1,1,0,0,0,.57-.92v-122A1.11,1.11,0,0,0,628.43,488Zm-35.53,6.39c-.15.09-.22.05,0,0Zm34.44-3.94c-.18,3.22,0,6.5,0,9.72V610.09c-10.53.55-21.35.44-31.77,1.81a12,12,0,0,1-2.35,0,7.31,7.31,0,0,1,.1-1.06c.68-3.43,0-7.67,0-11.15V516.6c0-6.5-1.7-15.75-.13-22.25a7.62,7.62,0,0,1,1,0c2.56.08,5.4-.66,7.93-1l21.26-2.58c1.12-.13,2.68-.59,4-.62C627.35,490.26,627.34,490.35,627.34,490.45Z"/><path d="M584.58,557.78l-.75-59.63c0-.75-1-1.47-1.64-.95-7,5.26-5.94,5.77-5.83,14.24q.25,18.82.5,37.63l.84,64.11a1.1,1.1,0,0,0,2,.55l2.34-3.11a.93.93,0,0,0,.29-.39,1.06,1.06,0,0,0,.2-.49c2.52-6,2.54-9.15,2.46-15.85Zm-2.9-59.22c0-.22,0-.3,0,0Zm-1.2,110.56-.63.84-1.26-95.84c0-2.68-.9-10-.23-11.54,0,0,1.85-1.4,3.26-2.37,0,1.86.1,3.75.12,5.59l.72,58,.38,30.13C582.92,600.29,583,603.32,580.48,609.12Z"/><path d="M759.62,385.35l.07,0a1,1,0,0,0,.7.27h13.43a1.11,1.11,0,0,0,1.1-1.09l1.17-42a1.11,1.11,0,0,0-.81-1.06l-14.6-2.26a1.11,1.11,0,0,0-1.38,1.06v44.3a1,1,0,0,0,.27.69A.56.56,0,0,0,759.62,385.35Zm14.26-42.06c-.11-.15,0-.21,0,0Zm-12.54-1.8a29,29,0,0,1,3.58.59c2.08.32,7,.23,9,1.3a5.33,5.33,0,0,1-.07,1.68,58.77,58.77,0,0,0-.2,7.15q-.27,9.82-.55,19.66c-.07,2.66.84,8.51,0,11.59l-.79,0c-1.44.06-2.9,0-4.34,0h-6.45V353.89C761.49,350.16,760.69,345.31,761.34,341.49Z"/><path d="M815.57,674.6l-11.38-1.75a1.55,1.55,0,0,0-.22,0h-.29a1,1,0,0,0-.88,1v70.36a1.11,1.11,0,0,0,1.1,1.09h11.38a1.11,1.11,0,0,0,1.1-1.09V675.66A1.1,1.1,0,0,0,815.57,674.6Zm-1.38,69.52c1.15-1.84-4.1-1-6.29-1-.69,0-2,.22-2.92.16-.86-3.93,0-9.13,0-13.12v-55a41,41,0,0,0,6.77,1c.33,0,1.68.36,2.37.37l.06.22c1,3.94,0,9.33,0,13.38v43.67C814.19,736,815.36,742.26,814.19,744.12Z"/><path d="M839.22,678.11l-10.8-2.05a.74.74,0,0,0-.26,0s0,0-.07,0a.85.85,0,0,0-.23,0,1,1,0,0,0-.83,1v67.15a1.11,1.11,0,0,0,1.1,1.09h10.8a1.11,1.11,0,0,0,1.09-1.09V679.16A1.08,1.08,0,0,0,839.22,678.11Zm-1.39,66c1-1.76-3.62-1.1-5.9-1a20.5,20.5,0,0,1-2.76.16c-.89-3.27.05-8.26.05-11.57V678.44l5.62,1.06a29.37,29.37,0,0,1,2.94.41,1.46,1.46,0,0,0,.05.2c1.08,3.5,0,9,0,12.68v41.3C837.83,736.27,839,742.17,837.83,744.12Z"/><path d="M827.84,630.59c5.24.82,10.59,1.42,15.76,2.62a1,1,0,0,0,.64-.05l.14-.06.11-.06a1,1,0,0,0,.5-.88l.48-114.27a1.09,1.09,0,0,0-.55-.95l-16.24-7.47a1.11,1.11,0,0,0-1.65.94V629.53A1.12,1.12,0,0,0,827.84,630.59Zm1.32-119.51c-.18,1.25,8.89,4.65,10.6,5.89,6.58,4.76,3.43,20.92,3.4,28.62l-.12,27.7-.24,57.52c-2.55-.51-5.14-.86-7.71-1.27-2.21-.36-6.49-1.58-5.87-.31-1-2,0-6.86,0-9V514.27A13.51,13.51,0,0,1,829.16,511.08Z"/><path d="M799.22,624.16l19.27,4.09a1.12,1.12,0,0,0,.61,0,1.75,1.75,0,0,0,.24-.11h0a1,1,0,0,0,.52-.89l1.46-119.41a1.09,1.09,0,0,0-.54-.94l-20.73-9.93a1.11,1.11,0,0,0-1.65.95V623.11A1.11,1.11,0,0,0,799.22,624.16Zm1.29-124.61c1.91.93,3.83,1.83,5.75,2.75l9,4.29c.87.41,4.15,2.6,4,1.59.32,1.29-.16,3.72-.17,4.83q-.08,6.22-.16,12.46l-.46,37.67q-.37,31.36-.76,62.71l-13.88-3c-1.27-.27-2.87-1-3.3-.74,0-.39.08-.79.08-1,.12-8.17,0-16.35,0-24.51V518.75C800.61,512.49,800,505.83,800.51,499.55Z"/><path d="M836.8,358.82l-20.67-12a1.1,1.1,0,0,0-1.65.94q-.74,48.06-1.46,96.12a1.07,1.07,0,0,0,.54.94L833.12,455l.09,0,.12,0a1,1,0,0,0,.7,0,1,1,0,0,0,.69-.8.74.74,0,0,0,0-.14s0,0,0-.06q1.29-47.15,2.57-94.3A1.08,1.08,0,0,0,836.8,358.82Zm-1.7,2.93c.18,2.87-.16,5.86-.24,8.73q-.4,15.16-.83,30.34-.69,25.73-1.4,51.47l-9-4.65L818,444.7c-1.15-.6-3.14-2.23-2.9-1.21-1.33-3.72.26-11.17.32-14.93l1-63.4c.08-5.1.19-10.2.24-15.29,1.18,1,3.26,1.69,4.42,2.36,4.32,2.5,9,4.75,13.08,7.58.63.43.93.48,1.06.45A3.41,3.41,0,0,0,835.1,361.75Z"/><path d="M825.86,245.32v41.9c0,3.82-1.53,11.41,0,15,1.46,3.4,8.52,6,11.64,8a1,1,0,0,0,1.22-.1,1,1,0,0,0,.43-.84V268.35c0-3.61,1.41-10.59,0-14-1.57-3.77-8.23-7.23-11.42-9.83A1.11,1.11,0,0,0,825.86,245.32Zm2.19,2.3,5.57,4.54a17.46,17.46,0,0,1,3,2.41,2.49,2.49,0,0,0,.41.5c1.44,4.5,0,11.84,0,16.46v35.72c-2.17-1.41-4.33-2.85-6.57-4.13-.2-.11-1.59-1.1-2.23-1.41a3.42,3.42,0,0,0-.11-.54c-1.37-5.08,0-12.74,0-18Z"/><path d="M813,235.39l-.84,41.91c-.08,4.37-1.86,12.35-.32,16.51,1.25,3.41,7.21,6.06,10.17,8.22a.89.89,0,0,0,1.27-.15,1,1,0,0,0,.38-.8q.41-20.46.82-40.93c.09-4.67,1.8-12.4.34-16.9-1.12-3.44-7.09-6.38-10-8.63A1.11,1.11,0,0,0,813,235.39Zm8.19,7c.84.91,1.14,1,1.24,1a3.87,3.87,0,0,0,.17,1.2c1.25,5.47-.27,13.24-.38,18.82q-.36,17.79-.71,35.58a63.18,63.18,0,0,1-6.27-4.6,4,4,0,0,0-1.14-.82,2.28,2.28,0,0,0,0-1.1c-1.09-5.89.27-13.27.38-19.24l.72-35.73A38.3,38.3,0,0,1,821.21,242.37Z"/><path d="M829.62,218.23a.93.93,0,0,0,1.22-.1,1,1,0,0,0,.43-.84V195.65c0-2,.79-6,0-7.81-.86-2-3.74-3-5.54-4.19a1.1,1.1,0,0,0-1.64.94q0,11.67,0,23.34C824.11,214.94,823.77,214.45,829.62,218.23Zm-3.34-31.71a14.45,14.45,0,0,1,2.35,1.59,1.46,1.46,0,0,0,.4.28,3.23,3.23,0,0,0,.05.54c.45,3.11,0,6.61,0,9.75v16.53c-2-1.52-2.44-2.73-2.78-6.05a72.47,72.47,0,0,1,0-7.37Q826.29,194.15,826.28,186.52Z"/><path d="M912.21,542.35l-18.1-5.84a.9.9,0,0,0-1,.24.43.43,0,0,0-.1.09l0,.06a1,1,0,0,0-.25.66v99.27a1.13,1.13,0,0,0,1.1,1.09L910.17,640c.59.07,1.08-.57,1.09-1.1q.88-47.73,1.75-95.47A1.11,1.11,0,0,0,912.21,542.35ZM910.5,561q-.57,30.79-1.13,61.59c-.07,3.64,1.25,11.22,0,15.17-.18,0-.47-.1-.92-.23-2.25-.62-5-.62-7.29-.91-1.89-.23-3.77-.52-5.66-.7a4,4,0,0,0-.66,0c-1.19-5,0-11.89,0-17V539.07l9.25,3c2,.63,4.09,1.1,6,1.93a4.11,4.11,0,0,0,.82.29C912.25,548.74,910.58,556.65,910.5,561Z"/><path d="M895.89,486.54l14.31,6.13.11,0a1.28,1.28,0,0,0,.34.07h0a1,1,0,0,0,1.14-.88.93.93,0,0,0,0-.52V417.22c0-2.72.86-7.11,0-9.71-1.53-4.6-10.63-7.54-14.85-10a1.1,1.1,0,0,0-1.65.94V485.6A1.08,1.08,0,0,0,895.89,486.54Zm1.65-17.61V413.75c0-4.41.24-8.92.06-13.34,1.1.65,2.22,1.28,3.33,1.92l5.56,3.23c.7.41,3.58,2.68,3.28,1.54,1.1,2.9-.11,9.11-.11,12v71l-7-3c-1.24-.53-4.11-1.21-5.08-2.15v0C896.09,480.7,897.54,473.27,897.54,468.93Z"/><path d="M899.29,301.08q-.79,25.69-1.6,51.38a1.09,1.09,0,0,0,.54,1l9.92,6.13.09,0,0,0a.94.94,0,0,0,1.11-.19,1,1,0,0,0,.4-.8q.78-18.33,1.55-36.66c.13-3.06,1.57-8.95.48-11.95-1.26-3.47-7.94-7.3-10.67-9.68A1.11,1.11,0,0,0,899.29,301.08Zm6.79,6.42c.92.81,3.74,3.41,3.56,2.95,1.32,3.49-.46,11-.61,14.62q-.67,15.82-1.34,31.66c-3.64-2.07-7.44-3.82-7.76-6-.75-5.12.35-11.15.51-16.32q.48-15.48,1-31Z"/><path d="M933.67,658.21,967,660.4a1.11,1.11,0,0,0,1.1-1.09v-106a1.14,1.14,0,0,0-1.1-1.1l-33.28-3.06a.89.89,0,0,0-1,.61,1.21,1.21,0,0,0-.11.48V657.12A1.12,1.12,0,0,0,933.67,658.21ZM934.76,648V551.47c9.56,1,20.1,3.31,29.56,2.71a3.94,3.94,0,0,1,1.61.21c0,.29,0,.57-.07.72-.56,3.18,0,6.94,0,10.15v86.36c0,1.68.58,4.72.19,6.65l-.82-.17a40.19,40.19,0,0,0-5.91-.39l-19.45-1.28c-1.26-.08-3.67.2-5.15-.17C934.29,653.71,934.76,650.59,934.76,648Z"/><path d="M967,406l-30.22-2.63a.88.88,0,0,0-1,.61,1.06,1.06,0,0,0-.11.48v97.66a1.11,1.11,0,0,0,1.09,1.1h27.59a1.12,1.12,0,0,0,1.1-1.1q1.3-47.52,2.63-95A1.12,1.12,0,0,0,967,406Zm-1.13,2.54c-.35,3-.17,6.12-.26,9.11l-1.79,64.81c-.14,5.26,1.15,13.27-.31,18.55l-.32,0c-2,.14-4,0-6,0-5.57,0-11.84-.84-17.34,0a5.76,5.76,0,0,1-2-.12c0-.08,0-.16,0-.21-.06-2.62,0-5.24,0-7.86V405.64c8.53.83,17.73,2.74,26.2,2.26a5.28,5.28,0,0,1,1.83.21C965.84,408.28,965.83,408.43,965.82,408.51Z"/><path d="M999.69,373.44a25.83,25.83,0,0,0-6.6-5.49Q965.42,303.48,937.73,239l-7.93-18.48a1.1,1.1,0,0,0-1.89,0c-3.76,7.22-7.34,14.38-10.77,21.61-2.54-2.09-4.58-4.2-7.75-4.41-5.4-.34-12.48,2.2-17.78,3.14l-35.92,6.32c0-.27-.08-.61-.15-1.06-.5-3.36.42-7,.2-10.38-.27-4.27-3.31-3.9-4.35-6.56-1.59-4.1,1.83-10.83-.51-14.61-.84-1.36-2.73-1.67-3-2.27-1-2.43-.12-7.31-.21-10-.16-4.85-2.4-3.49-3.86-6.37-1.82-3.62,1.48-9.47-.47-13.17-.86-1.61-4.68-3.21-5.06-4.21-1-2.68.63-7.17.46-10.08-.25-4.23-3.77-4.9-4.86-7.94-1.67-4.68,1.25-10.4-1-14.91-1.65-3.24-2.17-2.5-2.25-6.79-.07-3.35-.13-6.7-.2-10a1.1,1.1,0,0,0-.54-1L824,125h0l-.21-.07-.1,0a.72.72,0,0,0-.21,0h-14a1.11,1.11,0,0,0-1.09,1.1c0,2.41.59,5.49,0,7.78a3.06,3.06,0,0,0-.15,1l-.11.07c-.84.59-2.59.65-3.61.9a1.13,1.13,0,0,0-.8,1.06c0,1.46,0,2.92,0,4.37-.4-.35-.86-.75-1.42-1.22l-9.83-8.3s0,0-.06,0a.28.28,0,0,0-.11-.08h0a1.06,1.06,0,0,0-.9-.17l-33.91,8.25-.07-.19a1.1,1.1,0,0,0-2.11,0c-.08.26-.17.51-.25.77L734,145c-1.82.43-5,.51-6.6,1.59-1.89,1.28-3.1,5.39-4.18,7.4a1.08,1.08,0,0,0,0,1.1c1.56,2.54,2.18,3.17,2.1,6l-.21,7.66-65.93,15.94c0-2.37.09-4.75.09-7.1a1.11,1.11,0,0,0-1.09-1.09,28.48,28.48,0,0,0-4.43,0H652a.28.28,0,0,1,0-.09c-1-2.5,0-7.43,0-10.2a1.12,1.12,0,0,0-1.1-1.1c-1.54,0-6.24-.69-6.07.53-.38-1.36.16-4.78.16-5.69V145.18a1.11,1.11,0,0,0-1.1-1.1h-2.25c-.37-3.43-.24-8.34-2.24-10.81-3-3.67-9.75-6.49-13.65-9.1l-32-21.32a.87.87,0,0,0-.61-.23,1.39,1.39,0,0,0-.35,0h0l-18.1,6.13a1.14,1.14,0,0,0-.8,1.06q-.87,50.91-1.8,101.8c-14.45,1.52-28.92,4.89-43.23,7.4-2-1.66-6.16-2.66-8.12-3.54l-23-10.29c-2.62-1.18-5.81-2.08-8.2-3.67-2.71-1.8-1.62-.61-1.62-4.7a1.12,1.12,0,0,0-.81-1c-3.08-1.27-3.63-1.14-4.68-3.21-.88-1.76-.38-5-1.67-6.51-1.07-1.25-3.65-1-4.58-2.22-.29-.38.06-5.32.06-6.86a1.15,1.15,0,0,0-.8-1.06c-2.63-1-5.85-2-6.43-3-1.36-2.33-1.13-7.08-1.57-9.81a1.06,1.06,0,0,0-.76-.76l-8.11-2.05h-.13a.76.76,0,0,0-.16,0h-8.54a1.11,1.11,0,0,0-1.09,1.09c0,2.6-.14,5.26-.18,7.92-8.17.16-14.36,1.86-22.45,4.31a1.11,1.11,0,0,0-.8,1v36.21c-.05,3.58-.11,7.16-.16,10.75-.07,4.83.24,3.18-4.73,4.18a1.08,1.08,0,0,0-.8,1c-.11,3.35-.33,6.71-.33,10.06,0,4.29-.38,2.63-5,3.34a1.1,1.1,0,0,0-.8,1.06c-.29,3.45-1,7.13-.87,10.58a11,11,0,0,1-.05,1.65l-.07,0c-1.26.48-3.55,0-4.93,0a1.11,1.11,0,0,0-1.09,1.1c0,1.12,0,2.25,0,3.37l-10.71,3.47V224.59c0-.05,0-.09,0-.14l0-.18-.05-.11a.61.61,0,0,0-.05-.12q-8.61-13.56-17.23-27.12l-11.84-18.64c-1.48-2.33-3.16-6.74-5.36-8.45-3.24-2.51-9.16-1.34-13-2.76v-14a1.29,1.29,0,0,0,0-.19.36.36,0,0,0,0-.1,1.09,1.09,0,0,0-.11-.27.6.6,0,0,0-.09-.13.8.8,0,0,0-.17-.15.57.57,0,0,0-.11-.11l-8.18-5a1,1,0,0,0-.47-.14,17.45,17.45,0,0,0-1.77-3.46c-4-6.09-10.61-12.65-10.44-19.14.5-18.18.64-36.37,1-54.56,0,0,0,0,0-.09a.91.91,0,0,0-.06-.32s0-.07-.05-.1a.82.82,0,0,0-.16-.22l-.14-.12a.54.54,0,0,0-.12-.09l-14.3-7.67h0a.91.91,0,0,0-.83-.11l-18.83,7.68.09-10.56.23-24.69c0-1.25.47-3.42,0-4.62S293,28.4,292,27c-4.11-5.44-12.75-10-18.15-14.18a1.13,1.13,0,0,0-.77-.29c-2.94-5-10.86-8.81-15.16-12.15a.94.94,0,0,0-.4-.25,1,1,0,0,0-1,0L235.83,12.33c-3.68,2.17-8.52,3.52-9.6,7.52-.76,2.81,0,6.94,0,9.83v35.8L201.3,55.12V35.26a1.11,1.11,0,0,0-1.09-1.1h-28.1a1.11,1.11,0,0,0-1.1,1.1c0,1.57.41,3.69,0,5.19a2.09,2.09,0,0,0-.11.94c-.87.06-2.13-.12-2.61-.11-2.3,0-2.84.11-3-.11-.83-1.05-1-3.77-1.31-5.11a1.09,1.09,0,0,0-1.05-.8L132.69,35a1.1,1.1,0,0,0-1.09,1.09v5.19l-.66.56v-7.5a1.11,1.11,0,0,0-1.65-1c-.82.52-1.73,1-2.51,1.58v0c.12-2.81,0-5.66,0-8.48a1.11,1.11,0,0,0-1.65-.95,34.08,34.08,0,0,0-4,2.3c.08-2.56,0-5.14,0-7.7a1.11,1.11,0,0,0-1.65-.95c-.92.43-2.1.64-2.72,1,0-.78.11-1.57.13-1.72.39-2.7,0-5.71,0-8.43A1.11,1.11,0,0,0,115,9.3c-2,2-5.33,4.09-6.16,6.79-1.61,5.29,2,8.92-2.08,12-3.36,2.6-3.17,2.3-3.17,6.68,0,6.78.58,6.06-5.15,9.36a1.11,1.11,0,0,0-.54,1c0,2.61,1,7.26,0,9.61-.39.92-3.1,1.29-4.07,3.11s-.23,6.33-.09,8.26c.26,3.77-1,2.56-5.33,3.8A1.13,1.13,0,0,0,87.58,71c0,2.4.84,6.75-.08,8.81a6.52,6.52,0,0,1-2.19,2.18C83.52,76,79.45,69.78,77,64.35Q71.13,51.72,65.32,39.08a1.1,1.1,0,0,0-1.89,0L29.74,108.25c-3.11,6.4-7.28,19.14-11.44,23.6-3.75,4-8.52,4.94-8.28,11.79.12,3.39,2.13,9.27,5.75,11-.13,3.77.3,7.85.21,11q-.51,18.42-1,36.85c-2.47,2.25-3,5.1-.24,8.73-.09,3.47-.19,6.94-.28,10.41-1.76,2.3-2.24,5.34-.21,7.62q-.84,30.54-1.67,61.09Q10,383.76,7.46,477.18l-1,36.23c-1.55,1.63-2,3.85-.19,6.92L2.68,652Q1.85,681.85,1,711.7q-.26,9.51-.52,19c-.08,2.93-.94,7-.27,9.89a5.84,5.84,0,0,1,0,1.32,1.06,1.06,0,0,0,.54,1c20.45,8.72,45.2,7.33,66,.17L154,758.75h.07a.54.54,0,0,0,.22,0l43.21-2.14h0l10.47-.52,28.65-1.43,127.29,4.09,149.87,7.14,21.8,1,196.9,3.58,27.9.5,111.53-7,.19,0h.1l49-7.23c19,9,45.14,4.19,64.4-.07a1.12,1.12,0,0,0,.8-1.06q.81-43.33,1.63-86.69a1,1,0,0,0,0-.53l.48-26.06q.8-41.67,1.57-83.34h0q1.59-85.23,3.19-170.45c0-2.63.27-4.35-.09-5.83l6.46-7.76A1.13,1.13,0,0,0,999.69,373.44Zm-81.7-129c.07-.15.13-.31.2-.46,1.4-3,3.06-5.89,4.58-8.82,1.68-3.22,5.21-7.7,6-11.31.34.71.75,1.43,1,2q3.18,7.4,6.35,14.78l43.26,100.74q5.28,12.33,10.58,24.65a54,54,0,0,0-11.7-4.54c-1.06-.31-2.14-.6-3.23-.87a95.55,95.55,0,0,0-12.46-2.43,126.15,126.15,0,0,0-24.62-1,1.15,1.15,0,0,0,.36-.79q.27-21.63.56-43.26l1.41.12a.89.89,0,0,0,1-.71,1,1,0,0,0-.06-.94L926,285.35a1.1,1.1,0,0,0-1.89,0L916,299.57c.07-.62.14-1.21.14-1.64l.08-7.21a1.06,1.06,0,0,0-.54-1,2.7,2.7,0,0,1-.66-.4,1.31,1.31,0,0,1-.12-.11,3.08,3.08,0,0,1-.39-.42,1.83,1.83,0,0,1-.13-.24,2.56,2.56,0,0,1-.22-.4c-.07-.17-.13-.36-.19-.56l0-.12c-.59-2.45.35-6.19.1-9.14a7.91,7.91,0,0,0-.59-3.11,1.84,1.84,0,0,0-1.05-.77l0,0c-.45-.88-.9-.57-1.25-.94a22.76,22.76,0,0,0-.19-2.63c0-.18,0-.36-.07-.54a9.06,9.06,0,0,0,0-1c0-1.53-.06-2.93-.18-4.27,0-1.2.1-2.4.09-3.55Zm18.52,79-.3,22.89c0,2.65-.28,5.39-.11,8a5.34,5.34,0,0,0,.15,1,1.5,1.5,0,0,0-.63-.1c-5.36.24-10.79,0-16.16,0l-1.26-44L936.75,313a10.49,10.49,0,0,1-.13,1.82C936.11,317.49,936.54,320.76,936.51,323.48Zm-17,35.49c0-.49,0-1,0-1.47H934c-2.8.26-5.55.63-8.22,1.11-2.07.24-4.14.5-6.19.78A.78.78,0,0,0,919.56,359Zm-45.63-46c-4-1.87-3.82-.64-3.92-5l-.21-10.12a1.09,1.09,0,0,0-.54-.95c-1.7-.91-2.55-1.42-3-2.07-.07-.41-.1-1.05-.29-2.21,0-.18,0-.38-.06-.56,0-.69.06-1.52.06-2.58,0-2.54,1.13-7.75,0-10a3.2,3.2,0,0,0-.56-.72,5.31,5.31,0,0,0-2-1.53l-.78-.47a2.81,2.81,0,0,1-.79-.74c-1-1.52-.19,0-.39-2.59-.1-1.27-.14-1.84.1-2.1L876.16,270c.72-.06,3-.21,4.65-.42l1.34-.12a13.93,13.93,0,0,0,.06,1.76.41.41,0,0,1,0,.11,8.05,8.05,0,0,0,0,1.54,1.22,1.22,0,0,0-.14.66l-.29-.07a6.65,6.65,0,0,0-1.66-.15,1.11,1.11,0,0,0-1.1,1.09c0,2.3-.06,4.6,0,6.9,0,.44.18,1.78.16,2.67a7.3,7.3,0,0,0-2,0,1.1,1.1,0,0,0-1.1,1.09c.22,2.15.17,4.5.82,6.55.78,2.51,3.14,5.15,3.54,7.32,1.37,7.47-.65,17-.94,24.6-.16,4.14-1.6,10.26-.07,14.12,2.22,5.58,9.11,11.31,13.07,16.06,1.11,7.95,3.86,16,6,23.82-5.33-3.91-10.6-8-16.11-11.56h0l-1.54-1.11a.69.69,0,0,0-.23-.16,1,1,0,0,0-.35-.15c-5.18-2.2-6.25-1.58-7.55-6.82q-2.37-9.56-4.73-19.12c-.68-2.73-1.53-5.48-2-8.25-.06-.31-.11-.55-.15-.77-.23-2.13.21-2,2.21-5.14l6.29-9.93A1.11,1.11,0,0,0,873.93,313Zm17.73-60.36a36.28,36.28,0,0,1-.92-4.33s0-.07,0-.12c.41,0,1.22-.32,2.59-.49.58-.08,1.4-.24,2.32-.44a18.71,18.71,0,0,0,4.74-.43,16.39,16.39,0,0,1,2-.39,5.76,5.76,0,0,0,.1,2,29.91,29.91,0,0,0,.06,3.42c0,.53.11,1,.16,1.28a3.68,3.68,0,0,1-.14.72l-1.84-.33a1.11,1.11,0,0,0-1.39,1c0,2.39-.51,5.35,0,7.68.68,3.06,1,1.47-2,.32a1.11,1.11,0,0,0-1.39,1.05q.11,3.88.19,7.78c0,.8.25,2,.22,2.93a9.14,9.14,0,0,0-1.09-.56,1.12,1.12,0,0,0-1.65,1,55.63,55.63,0,0,1-1.88,13.21c-.19.57-.4,1.15-.63,1.75a.88.88,0,0,0-.05.15l0,.07a.9.9,0,0,0,0,.6l.09,4.2h0q.23,9.35.44,18.71l.39,16.81c.15,6.42-.27,13.23.21,19.74-3.84-4.19-8.72-8.81-10.83-13.48v0s0-.16,0-.61a20.86,20.86,0,0,1,.16-4.17l.51-13.29c.23-6.1,2-14,.76-20-.49-2.44-2.52-4.5-3.35-6.83a10.41,10.41,0,0,1-.81-4.22c.1-2.34-1.26-1.12,1.61-1.12a1.11,1.11,0,0,0,1.09-1.1c0-2.29,0-4.6,0-6.89-.08-3.89-1.05-2.65,2.12-2.65a1.11,1.11,0,0,0,1.09-1.1c0-4.55.78-7.53,1.93-11.9.2-.76.33-1.45.44-2.08.34-1.53.45-2.6.64-3.41.42-1.26,1.26-2.17,3.49-3A1.13,1.13,0,0,0,891.66,252.62Zm14.93,7.29c.47,1,1.91,1.85,2,2,0,4.12-.86,9.48.58,13.12a.56.56,0,0,0,.16.16c.52.9,1.79.89,2.07,1.48a4.18,4.18,0,0,1,.23,1.77c0,.58-.06,1.13-.07,1.58v.38l.39,9.39a1.12,1.12,0,0,0,.54,1c2.94,1.25,1.4,9,1.36,12.77,0,0,0,.07,0,.1a.86.86,0,0,0,.05.23l.06.16a1.07,1.07,0,0,0,.19.28h0a1,1,0,0,0,.3.21l.07,0a1.17,1.17,0,0,0,.38.08h.73a3.88,3.88,0,0,0,0,.42c0,1.68-.07,3.37-.11,5.05q.81,23.14,1.61,46.28a1.42,1.42,0,0,0,0,.2c.11,3.76.2,7.52.29,11.28L895.14,355.1l-.52-2.06q-.32-13.11-.61-26.24h0l-.78-33.86c.13-3.23,1.59-5.33,2.23-8.5a13.86,13.86,0,0,0,.19-2.69c.11-1.53.1-3.15.06-4.63a6.71,6.71,0,0,0-.08-.93,9.31,9.31,0,0,0,1.14.58,1.11,1.11,0,0,0,1.65-.94c-.07-2.8.14-5.81-.21-8.58,0,0-.08-1-.12-1.91.54.22,1.37.35,2,.59a1.09,1.09,0,0,0,1.38-1.05c0-2.28.11-4.59,0-6.86-.18-3.7-1.19-2.42,1.83-1.87a1.1,1.1,0,0,0,1.38-1V247a.84.84,0,0,0,.49,0,2.21,2.21,0,0,1,.4.28s.08.11.13.17c.22,1.32.15,2.86.24,4.13C906.13,253.81,905.61,257.79,906.59,259.91Zm-26,136.76q.21-9.82.41-19.66c0-2.61.1-5.23.16-7.84,0-.38,0-.78.07-1.19,5.4,5,12.74,8.92,18.64,13.17.82.58,1.83-.38,1.61-1.24l-5.55-21.86,21.75,12.4q.27,11.52.48,23a1.1,1.1,0,0,0,.54.95l.48.23a62.31,62.31,0,0,1,7.62,3.95,2.51,2.51,0,0,0,.92.49v0a1.56,1.56,0,0,1,0,.16,5,5,0,0,1,.18,1.08c0,1.16-.25,2.51-.27,3.38,0,.67,0,1.35,0,2h0l-.06,2.95q-.18,8.85-.37,17.69-.78,38-1.58,76.06c-7-2.34-13.81-6.31-20.52-9.37q-13.11-6-26.26-11.81Zm37.59-87.51-.16-5.6a1.08,1.08,0,0,0-.42-.83,1,1,0,0,0-.68-.26h0l8.19-14.37q6.59,11.4,13.18,22.81Zm-10.22-69c3.94-.78,2.29-.44,6,2.18,2.87,2,1.91.29,1.42,2.87-.44,2.29-2,4.76-2.89,6.92-.3.71-.58,1.47-.86,2.23-.7,1.6-1.4,3.22-2.09,4.84a14.17,14.17,0,0,1-1.05-4.39q-.33-4.19-.64-8.38a1.15,1.15,0,0,0-.81-1l-2.81-1.07a.91.91,0,0,0-.42-.14.89.89,0,0,0-.43,0l-1.68.21c-4-.08-8.2,1-12.25,1.5a1.12,1.12,0,0,0-1.05,1.39c.23,1.1.52,4.09,1,4.74l-.25.23c-.52.53-1.7.38-2.25.87l0,0a2.27,2.27,0,0,0-.93.6c-1.51,1.78-1.48,4.94-1.77,7.91-.58,1.82-1.27,3.62-1.68,5.45h0l-.1,0h0l-3.2.29h0l-4.65.43L862,269.09a4.53,4.53,0,0,1,0-.73c.21-1.06.39-2,.48-2.61a1.2,1.2,0,0,0-.51-1.24c-3.18-2.44-2.91-1.55-3.18-4.93-.24-3,.15-6.25.22-9.3a1.07,1.07,0,0,0-.54-.94l-.6-.31C874.55,246.13,891.31,243.48,907.92,240.21ZM824.55,139.63v-12a11.51,11.51,0,0,1,2.68,1.41c1.36,1.18,1,3,1.1,6.44,0,2.45-.67,6.2.18,8.51.54,1.47,2.69,2.44,3.19,3.6.94,2.2,0,7.4,0,10,0,1.43-.29,3.11.32,4.41,1,2.19,4.13,3.58,4.6,5.29,1.42,5.25-2.34,9.56,1.43,13.8,2.87,3.24,3.16,1.86,3.58,5.65.29,2.6-1,7.11,0,9.52.59,1.38,2.06,1.68,3,2.84,1.11,1.36.89,4.62,1,7.89,0,1.68-.62,5,.17,6.49.66,1.26,3.07,2.12,3.18,2.36,2.15,4.52-1.82,11.4,1.28,15.56,3,4,3.4,1,3.3,6.36l-.21,10.76v.05a.9.9,0,0,0,.29.7.87.87,0,0,0,.25.19c2.1,1.05,2.77,1.39,2.94,2.28,0,.48,0,1.16-.07,2.22,0,1.9-.61,4.73-.46,6.92a5,5,0,0,0,.41,2.21c.34.63,1.32.87,1.73,1.41,1.94,3,2,.56,1.28,5.49-.26,1.89-.52,3.79-.79,5.68a1.2,1.2,0,0,0,.51,1.24c3.94,3,4.42,2.26,4.42,6.78v12.13a1.08,1.08,0,0,0,.54.94c3.76,2,3.26,1.24,3.35,5.72.07,3.13.13,6.26.2,9.39a1.06,1.06,0,0,0,.54.95,22,22,0,0,0,3.16,1.53l.26.13a7.23,7.23,0,0,1-.56,1.32c-.95,1.48-2.41,3.15-2.95,4-1.41,2.23-4.73,5.73-5.13,8.42a9.41,9.41,0,0,0,.51,3.68c.62,3.72,2.33,7.89,3.15,11.24h0c1.17,4.69,1.74,10.7,3.45,15.53a9.88,9.88,0,0,0,1.4,4c1.36,1.72,4.09,2.32,6.33,3.18l0,0a2.57,2.57,0,0,0,.79.53c0,.1.05.22.09.37h0l-2.34,113.5q-21.45-9.52-43-18.86l-38.23-16.63c1.92-1.6,4.06-3.43,4.87-5.17a6.49,6.49,0,0,0,.4-1.37,6,6,0,0,0,.17-4.33c-.08-1.75-.25-3.5-.25-4.87V312.29c0-5.24,1.31-12.57.06-17.92l9.55-11.78a3.45,3.45,0,0,0,.2-.32h0a.9.9,0,0,0,.08-.75l-.09-.18s0,0,0-.08c-1.18-2.8-3.74-5.06-6.57-6.86a8.29,8.29,0,0,1-2-2.52l-6.6-19.69h0q-3.29-9.81-6.58-19.62l-3.48-10.38c.69.13,1.75-.07,2.69,0a1.11,1.11,0,0,0,1.09-1.1v-9.43c0-.4-.13-1.45-.18-2.44.49.43,1.4.78,2.33,1.43a1.1,1.1,0,0,0,1.65-.94c0-2.92.47-6.22,0-9.08a4.93,4.93,0,0,1-.08-1.5c1,.33,2.26,1.09,3.07,1.42s1.34-.43,1.39-1.06c.21-2.89,1-6.21.66-9.08a4.48,4.48,0,0,1,0-1.51c1.07.4,2.35,1.26,3.15,1.61a1.11,1.11,0,0,0,1.64-.95,83.45,83.45,0,0,0,0-8.37s-.06-1-.08-1.82c.53.21,1.34.34,2,.59s1.33-.43,1.39-1c.26-2.78.79-5.69.81-8.48,0-4.11-.89-2.56,2.47-2,.52.09,1.26-.13,1.35-.76.31-2.27.71-4.54.94-6.81.41-3.93-.79-2.92,2.09-1.77.72.29,1.33-.43,1.39-1.06.28-2.93,1.09-6.22.88-9.15a4.42,4.42,0,0,1,.11-1.54c1.25.45,2.93,1.61,3.78,2a1.11,1.11,0,0,0,1.65-.94,75.29,75.29,0,0,0,0-7.95,4.49,4.49,0,0,1,0-.82c.6.4,1.3.77,1.55,1A1.11,1.11,0,0,0,824.55,139.63Zm52,342.91q-.17,8.63-.35,17.25-1.5,73.15-3,146.3-14.6-2.7-29.19-5.42l-62.93-11.85c-6.59-1.24-13-2.83-19.62-3.49V469.78h0a3.87,3.87,0,0,0,1.82.09c2.74.15,5.53.26,7.75-1,4.54-2.56,8.88-8.88,12.52-12.53,3.33-3.32,6.71-6.6,10-9.93l77.42,33.67ZM714.31,292.43a42.77,42.77,0,0,1,12-7.49l2.38-.83a83.4,83.4,0,0,1,15.63-3.69,112.65,112.65,0,0,1,14.44-.73c3.37,0,7,.12,10.73.42,1.7.2,3.38.43,5,.72,5.19.89,12.32,2.79,17.45,6.21a22.78,22.78,0,0,1,5,5.06,10.42,10.42,0,0,1,1.21,3.08c-.49,3.24.22,7.38.22,10.35V430.36c-4.58-4.14-14.17-7.07-18.69-8.5a88,88,0,0,0-30.9-3.67l-.72.05a104.91,104.91,0,0,0-21.57,3.11,97.21,97.21,0,0,0-10.27,3.13c-.52.19-1.41.39-2.08.69V299.22C714.19,297.22,714.69,294.5,714.31,292.43Zm74.62-9.73c-6.27-3.12-13.77-4.39-20.93-4.9-17.21-1.68-38.91,0-52.6,10.63a10,10,0,0,0-1.89,1.92,27.29,27.29,0,0,0-2.42-3.27c-.29-.49-.57-1-.86-1.41s-.53-.78-.8-1.17a1.3,1.3,0,0,1-.08-.17,10.11,10.11,0,0,0-1.72-2.6.51.51,0,0,1,0-.14,5.38,5.38,0,0,1,.77-2c.45-.51,1.07-1.17,1.93-2.05.51-.51,2.77-1.78,3.5-2.67,8.45-4.92,18.79-7.13,28.92-7.94,3.53-.24,7-.34,10.41-.38h3.19c14.72.26,31.13,2.34,44.65,8.77a1.34,1.34,0,0,0,.27.07l.12.13c.89,1.16,2.62,1.71,4,2.61a11.29,11.29,0,0,1,2.67,3.37h0a1.14,1.14,0,0,0-.3.38c-.41.46-.93,1.44-1.49,2.14l-3.51,4.33a22.87,22.87,0,0,0-3.07,3.18C797.66,287.6,793.56,284.75,788.93,282.7ZM711.46,432.05l-13.23.77C668.09,428,637.3,426.43,607,430.6c-11.55,1.59-23.74,3.63-34.6,8.1a1.14,1.14,0,0,0-.81,1.06v12.18q-17.48,2.19-34.89,4.69V338.78a14.36,14.36,0,0,1,2.13-.57,111.87,111.87,0,0,0,12.61-2.48c21.14-4.06,42.2-8.7,63.29-13a1.12,1.12,0,0,0,.8-1.06V311c0-.38,0-.8,0-1.24,0-3.89-.07-7.78-.14-11.66a.88.88,0,0,0,0-.15l.33-.13h0l4.3-.94h0l14.9-3.25,15.49-3.37h0l8.63-1.89a4.92,4.92,0,0,1-.18,1.22c-.59,2.24,0,5.38,0,7.69v12a1.11,1.11,0,0,0,1.38,1.05l27.42-5.18,17.1-3.23c1.9-.36,4.47-.4,6.24-1.18l1-.18q0,.81,0,1.65v120C712,424.8,711.36,428.73,711.46,432.05ZM646.65,688.29c-2.32.64-5.79,0-8.2,0H624.07c-17.93-10.43-31.6-28.38-43.45-45-.82-1.15-3.91-4.67-6.31-7.95a1,1,0,0,0-.87-1.65l-.28,0a13,13,0,0,1-1.75-3.36,334,334,0,0,1,36.49-6.23,468.19,468.19,0,0,1,90.54.18Q680.7,646.56,663,668.83q-5,6.28-10,12.56c-1.52,1.91-3.33,5.38-5.39,6.77l-.11.08C647.52,688.14,647.43,688.07,646.65,688.29ZM571.57,491.73a1,1,0,0,0,.34.73,11.35,11.35,0,0,0-.27,2.77c.1,7.52.3,15,.45,22.56q.66,33.65,1.33,67.28c.15,7.59.87,15.43.46,23-.38,6.78-3.18,14.29-4.9,21.15v.07a.78.78,0,0,0,0,.22v0a1,1,0,0,0,.14.53l2.33,3.72q-17.37.94-34.74,2V458.63c11.52-1.59,23-3,34.89-4.5v5.72c-3.82,3.58-4.58,8.19,0,14.09C570,478.76,571.57,486.69,571.57,491.73Zm125.54-21.91V478q-5.88-.75-11.81-1.3c-21.85-2.26-44.54-3.6-66.48-1.15-11.3.89-22.54,2.84-32.59,6.95-4.62,1.58-9.25,3.69-12.59,6.71-.35-4.71-1.3-11.32,0-15,5.75-6.14,16.18-8.9,23.89-10.87a159.23,159.23,0,0,1,25-4.18c7.57-.4,15.17-.37,22.6-.22a446,446,0,0,1,44.58,3.21c.27,0,.6.05,1,.06l6.61.92C696.53,463.77,697.11,468.18,697.11,469.82Zm-32.56,150c-31.25-1.16-63.13.6-92.85,8.18.14-.68.22-1.44.33-1.9,1.21-4.84,2.81-9.73,3.66-14.64,1.78-10.27,0-22-.2-32.34l-1.23-62-.42-21.17a18.82,18.82,0,0,1-.16-3.65,19.74,19.74,0,0,1,3.57-3.15c2.35-1.32,5.22-2.52,6.57-3.13,2.15-1,4.36-1.81,6.6-2.59s4.51-1.22,6.49-1.72a165.4,165.4,0,0,1,23.48-4.09c12.07-.95,24.31-.7,35.74-.39q14.91.42,29.8,1.79c2.49.23,5,.49,7.48.76l1.71.19c1.47.24,2.19.63,2.3.35.5,2.64-.18,6.66-.14,9l.38,23.78,1.77,109.18Q682,620.19,664.55,619.8ZM697.6,461q-6.84-1-13.76-1.81c-19.24-2.3-38.75-3.55-58.06-2.22l-1.48.06c-14.38.73-30.12,2.16-43.12,8.89-2.74,1.42-7.41,3.9-9.14,6.91a.29.29,0,0,1-.14,0c-1.36-.24-.16-10.15.79-11.26a3.45,3.45,0,0,1,.63-.53l.12-.08.14-.11.57-.39a27.93,27.93,0,0,1,4.89-2.74,68.44,68.44,0,0,1,14.75-4.61c3.89-.83,7.83-1.5,11.79-2.05a326.27,326.27,0,0,1,41-1.77c17,.16,34,.95,50.93,2.58-.29.66,1.5,3.86,1.51,4.81A7.87,7.87,0,0,1,697.6,461Zm-.18-11.37c-.17,0-.39,0-.7,0a489.81,489.81,0,0,0-70.09-2.32c-.73,0-1.73.07-2.92.14-6.67.31-13.32.82-19.94,1.66-10,1.27-21.52,2.9-30,8.9V446.63c0-1.67-.58-4.59,0-6.17,0,0,0,0,0-.06,3.94-2.94,12.48-3.72,17-4.71,34.82-7.7,71.34-6.36,106.37-.84v6.69C697.11,443.09,697.77,447.36,697.42,449.61Zm107.35-301a1.12,1.12,0,0,0,1.1-1.1c0-.82,0-1.5,0-2.09a41.43,41.43,0,0,1,0-5.35c.35-3.76-.47-2.39,3.86-3.47a1.12,1.12,0,0,0,.81-1.06v-5.61a18.62,18.62,0,0,1-.1-2.91l0,0c3-1.13,8.23-.22,11.88,0v8.31c0,.49.13,1.36.18,2.2-.35-.25-.93-.53-1.74-1.12a1.1,1.1,0,0,0-1.65.94c0,2.9.05,5.8,0,8.7,0,.41,0,.71,0,.95-1.22-.49-2.76-1.55-3.58-1.93a1.12,1.12,0,0,0-1.65,1q-.36,3.82-.74,7.64a23.32,23.32,0,0,1-.15,3.23c-.07-.28-.57-.53-1.81-1a1.08,1.08,0,0,0-1.34.76,62.53,62.53,0,0,0-1.05,7.53c0,3.54.67,2.18-2.57,1.64a1.12,1.12,0,0,0-1.39,1.05c-.26,2.78-.79,5.69-.81,8.48,0,0,0,1-.11,2-.59-.29-1.57-.46-2.12-.68a1.1,1.1,0,0,0-1.39,1.05c0,2.88-.54,6.28,0,9.08a4.67,4.67,0,0,1,.1,1.48c-1.06-.41-2.29-1.23-3.07-1.58a1.12,1.12,0,0,0-1.65.95c-.21,2.93-.88,6.16-.66,9.08a4.91,4.91,0,0,1-.06,1.52c-1-.31-2.32-1.11-3.15-1.44a1.1,1.1,0,0,0-1.38,1.06,75.39,75.39,0,0,0,0,8.37s0,.62.07,1.28c-.57-.41-1.45-.77-2.22-1.32a1.11,1.11,0,0,0-1.65.95v9.43c0,.39.2,2.07.2,3.25a.5.5,0,0,0-.05.13h-.2a8.16,8.16,0,0,0-2.38-.16l-1.74-5.18h0L779.72,206c-.12-.38-.52-1.7-.85-2.55-.1-.3-.21-.6-.31-.91,1.22-2.59,2.44-5.19,3.65-7.78h0q3.6-7.65,7.19-15.31t7.18-15.31c1.26-2.69,2.84-5.4,3.85-8.2l0-.07,0-.08a.58.58,0,0,0,.08-.18l.19-.74c0-.2.11-.39.15-.58l1.17-4.57a.24.24,0,0,1,0-.08A3,3,0,0,1,804.77,148.61Zm-10-7.12c.15-1.24,1.08-2.76,1.17-4.1l3.49,3c1.29,1.08,3.16,2.19,4.17,3.52l0,0a2.67,2.67,0,0,0,0,.32,11.92,11.92,0,0,1,0,2.16l0,0h-2.17a1.12,1.12,0,0,0-1.06.8c-.33,1.29-.74,2.6-1.11,3.93-.32,1-.65,2.07-1,3.09h-3.57C794.69,150,794.28,145.61,794.77,141.49Zm-1.1,14.93c1.2-.09,2.62.26,3.79,0h.1c-1.1,3-2.33,6-3.64,8.91-.83,1.42-1.59,2.73-2.09,3.81L782.51,189c-1.24,2.64-3.8,6.35-5.22,9.75q-5.22-15.57-10.45-31.13c-.78-2.35-1.5-4.73-2.36-7.05l0-.08.66-.09c7.08-.1,14.63-2,21.64-3l6.91-1Zm-33-15.43,18.52-4.5c2.39-.58,8.63-3.3,11.79-3.2l1,1.46a13.15,13.15,0,0,1,1.41,3.38,9.54,9.54,0,0,1-.52,2.44,1.52,1.52,0,0,0-.06.2,2.68,2.68,0,0,0-.07.27c0,.1-.05.2-.07.29s-.06.34-.08.5a29.36,29.36,0,0,0-.12,3.13c-.06,3.13.08,6.29.11,9.41h0l-.51.16c-9.46.7-18.9,2.5-28.27,3.84q-2.84-8.48-5.68-16.94C759,141.26,760,141.16,760.66,141ZM756,144.32l6,15.56,4.95,14.78q4.71,14,9.4,28c0,2.27,1.87,5.58,2.56,7.63q1.82,5.38,3.61,10.75,4.35,13,8.72,26l5.7,17c.74,2.21,1.28,5.27,2.22,7.81-.79-.38-1.56-.72-2.28-1-16-6.81-35.67-7.75-53.26-6.16-3.39.25-6.8.64-10.17,1.22-5.85.9-12.44,2.35-17.95,5.22,1.16-3.07,1.84-6.59,2.79-9.54q3.06-9.52,6.13-19c.21-.66.43-1.33.64-2,.07-.23.15-.46.22-.69q12.07-37.53,24.14-75.07c1.91-2,2.63-8.17,3.42-10.64l.12-.37Q754.43,149,756,144.32Zm-30,9.24c.51-1.33,3-5.33,2.6-5.06,3.68-2.26,10.7-2.48,14.88-3.45l10.78-2.51q-1.49,4.61-3,9.21h0l-3.69,11.49c-.37-.19-2.06.57-2.93.78l-5.8,1.4-1.83.44-2.22.54-7.41,1.79c.26-3.37.94-7.41.09-10.43-.28-1-1.39-1.81-1.73-2.81a1.31,1.31,0,0,0-.23-.47A4.46,4.46,0,0,0,726,153.56Zm-62,32.22,27.9-6.75,34.42-8.32c5.6-1.36,13.65-1.89,19.37-4.23l.65-.17c-.84,1.83-1.25,4.68-1.75,6.24q-3.09,9.62-6.19,19.24l-25.83,80.36a6.17,6.17,0,0,1-1,1.38,22.46,22.46,0,0,0-1.83,1.53,13,13,0,0,0-2.31,2.39c-1.86,2.44-2.14,3.84-1.54,5.37.46,2.53,2.52,4.86,4.49,7.37a12.46,12.46,0,0,1,1.47,5,27.22,27.22,0,0,0,0,3.13l-30.69,5.8c-5.24,1-10.7,1.66-15.93,2.86-1,.19-1.89.4-2.8.67h0c-.42.06-.92.09-1.35.13.38-5.08.18-10.3.06-15.46.08-5.37.23-10.74.42-16.1q.83-17.73,1.66-35.46c0-.27,0-.55,0-.85l.33-6.85a52.61,52.61,0,0,1,.33-7c.4-2.25-.39-.11,1-2.27,3.41-5.44,8.22-10.37,12.22-15.4a1.11,1.11,0,0,0-.23-1.72c-2-.91-9.63-3.92-9.69-4-1.48-2.35-.43-9.21-.57-12.09a1.11,1.11,0,0,0-1.09-1.09c-1.71,0-3.43-.05-5.14,0a2.87,2.87,0,0,0-.55,0l-.16,0a1.37,1.37,0,0,0-.36-.12,5.31,5.31,0,0,0,0-1.07c0-.43.14-1.37-.06-1.6v0A33.51,33.51,0,0,1,664,185.78Zm-21.12-39.72a29.06,29.06,0,0,0-.05,4.57V166.2a1.11,1.11,0,0,0,1.09,1.09c1.62,0,3.63-.33,5.19,0a2.61,2.61,0,0,0,.67.07,3.55,3.55,0,0,0,.06.66c.5,3,0,6.5,0,9.56a1.11,1.11,0,0,0,1.09,1.1c1.71,0,3.43,0,5.14,0a2.89,2.89,0,0,0,1.16-.22,3.25,3.25,0,0,0-.1,1.16c.13,2,.12,4,.08,6a1,1,0,0,0-.08.38v4.56a1.12,1.12,0,0,0,1.1,1.1,28.48,28.48,0,0,0,4.43,0c3-.52,1.55-.68,1.85.57.79,3.28.35,7.31.51,10.7a1.08,1.08,0,0,0,.54,1c2.3,1,5.59,3.41,8,3.66h0l1.1.5c-.31.37-.6.69-.65.73-3.64,3-9.49,10.17-11.48,14.47-2.77,6-1.41,15.7-1.71,22.3q-1,20.29-1.9,40.59l-37.67,8.21h0l-6,1.29v-.18c0-.18.08-.37.15-.61,1.46-5-.49-13.55-.68-18.65l-.3-8.08-.63-17.27c-.19-5.18.56-11.53-.61-16.58-.73-3.17-3.44-5.68-5.47-8.29a37.59,37.59,0,0,0-3-3.85,5.09,5.09,0,0,1-1.25-1.66c.64-.31,1.48-.6,1.87-.74a63.3,63.3,0,0,0,5.79-2.7,1.09,1.09,0,0,0,.55-.95c0-3.16-.86-7.62,0-10.61.51-1.79,3.57-2.52,6.75-3.92a1.07,1.07,0,0,0,.54-.94c0-3.73-.54-7.91,0-11.58a4.12,4.12,0,0,0,.07-1.18,1.4,1.4,0,0,0,.69-.2c1.74-.84,4.38-.81,6.32-1.17a1.09,1.09,0,0,0,.81-1.05c0-4.13-.09-8.26,0-12.39.06-2.9-.48-1.34.64-2.14,1.47-1.06,4.13-1.37,5.85-1.94a1.12,1.12,0,0,0,.81-1.05V151.59c0-.35-.06-1-.13-1.64a22.31,22.31,0,0,1,.13-3.39c0-.16,0-.28,0-.4h.16c.92.4,3.35.25,5,.16A22.72,22.72,0,0,0,642.86,146.06Zm-48.48-39.85c1.6,1.24,3.92,2.29,5.36,3.24q6.46,4.32,12.94,8.63C620.5,123.3,629.3,128,636.56,134c2.49,2.06,1.66,1.93,2.27,6.07.18,1.21.44,2.45.55,3.67,0,.13,0,.24,0,.34H633.1a1.11,1.11,0,0,0-1.09,1.1v16.35c0,7.43.69,5.4-6.5,7.77a1.13,1.13,0,0,0-.8,1.06c0,4.12.14,8.26,0,12.38-.11,3,.59,1.26-.76,2-1.68.87-4.45.82-6.32,1.17a1.1,1.1,0,0,0-.8,1.06c0,3.65.66,8,0,11.57a3.72,3.72,0,0,0-.12,1.38c-.08,0-.29,0-.79.46-1.44,1.22-4.07,1.79-5.85,2.57a1.08,1.08,0,0,0-.54,1c0,3.06,1.26,8.92,0,11.58.11-.24-1.6.73-3.11,1.44l-5.11,2.38a1.11,1.11,0,0,0-.22,1.72c2,2.55,3.78,5.56,6,7.82a12.79,12.79,0,0,1,1.36,2c-.37.43-.75.87-1.12,1.32l-.46.41c-4.41,3.92-8.23,8.83-12.15,13.37q-.18-43.89-.35-87.78-.1-24.15-.2-48.3C594.22,108.84,594.44,107.42,594.38,106.21ZM573.55,247.72l.3-13.13.5-22c0-.06,0-.11,0-.17q.48-24.3.86-48.62.39-23.1.79-46.21c0-1.89.1-3.8.09-5.7,0-.88.18-1.45.14-1.61,2.25-1.34,7-2.07,8.94-2.74l6.88-2.33.57,142.42-.13,0c-.64-.13-2.13.44-3.81.65l-1.51.18h0c-3.43.43-6.88.82-10.31,1.26-1.72.14-3.11,0-3.47.46h0C573.34,249.41,573.54,248.33,573.55,247.72ZM458.85,173.4c.88-3.12.5-7.16.51-10.62l2.69.68c1.67.42,3.44,1,3.41,1,1.47,2.12,1.21,7.6,1.63,10.22a1.11,1.11,0,0,0,.77.77c1.46.55,6.28,2,6.41,2.24s-.21,5.56-.21,6.92a1.08,1.08,0,0,0,.54.95c1.93.84,3.5,1.27,4.49,2.66,1.26,1.79.37,5.2,1.72,6.9.74.93,1.62.65,2.52,1.48,2.77,2.59,2.41-.16,2.41,4.94a1.07,1.07,0,0,0,.54.95l29.26,13.1c3.06,1.37,9.4,2.86,12.05,5.28h0c-.21-.11-.11.25.2,1.08q.53,2.7,1,5.41h0q3.54,18.47,7.06,36.93,2.57,13.39,5.12,26.79c.23,1.22.86,3.7,1.26,5.6,0,.47.06.94.08,1.4a6.78,6.78,0,0,0,.08.95,1.71,1.71,0,0,0-.32.6c-1.08,2.59-3.38,5.13-4.92,7.48q-1.87,2.83-3.74,5.69h0l-4.21,6.41c.09-2.06,0-4.17.07-6.3.15-5.54-.64-11.25,1.92-15.59.32-.53.62-1,.91-1.48a31,31,0,0,0,3.12-4.38c1.47-2.85,1.43-3.89,1.43-7.45a1.11,1.11,0,0,0-1.09-1.09,24.47,24.47,0,0,1-4.7-.17,2.74,2.74,0,0,0-.61-.08,4.25,4.25,0,0,0-.12-.7c-.77-3-.62-6.48-.92-9.56a1.12,1.12,0,0,0-1.39-1.06,24.58,24.58,0,0,1-4.54.81l-.27,0a4.81,4.81,0,0,0,0-1c-.31-3.43-.24-6.93-.36-10.38,0-.54-.49-1.17-1.09-1.09a23.73,23.73,0,0,0-4.39.53,12.24,12.24,0,0,1-1.66.31c0-.13,0-.29-.09-.5-.58-3.25,0-7.1,0-10.42a1.09,1.09,0,0,0-1.09-1.09,25.33,25.33,0,0,0-4.38.53,12.33,12.33,0,0,1-1.68.32c0-.15,0-.32,0-.53-.24-3.49.12-7.11.19-10.61a1.12,1.12,0,0,0-1.1-1.1,32.32,32.32,0,0,0-4.51,0c-3.05.46-1.62.71-1.87-.5-.64-3.17-.13-7-.19-10.23a1.11,1.11,0,0,0-1.09-1.09,26.56,26.56,0,0,1-5,.16,2.09,2.09,0,0,0-.63,0,3.62,3.62,0,0,0-.07-.66c-.56-3.07-.12-6.62-.18-9.75a1.11,1.11,0,0,0-1.39-1.06,22.87,22.87,0,0,0-4.12,1.46,9.29,9.29,0,0,1-1.37.61c0-.09,0-.18,0-.29-.31-3.59-.5-7.2-.76-10.8a1.1,1.1,0,0,0-1.38-1,31.2,31.2,0,0,1-4.71,1.46,1.67,1.67,0,0,0-.37.09,5.56,5.56,0,0,0-.09-.8c-.57-3.33-.6-6.84-.89-10.21-.05-.54-.47-1.16-1.1-1.09a24.25,24.25,0,0,1-4.54.49,1.75,1.75,0,0,0-.47,0,5.53,5.53,0,0,0-.06-.91c-.44-3.12-.12-6.51-.18-9.66a1.11,1.11,0,0,0-1.39-1.06,21.37,21.37,0,0,0-4.11,1.06,7.92,7.92,0,0,1-1.34.46c0-.1,0-.21,0-.34-.13-3.47-.25-6.94-.38-10.41a1.11,1.11,0,0,0-1.65-1c-1.35.65-3.31,1.21-4.47,2.16l-.27.22A5.76,5.76,0,0,1,458.85,173.4Zm-31.43,2.35c0-.11,0-.22.05-.31,5.7-3.5,13.53-3.58,19.9-4a5.32,5.32,0,0,0,1.1-.16c0,1.34.06,2.68.19,4a12.57,12.57,0,0,1,.1,1.95.55.55,0,0,0-.25.1,20.82,20.82,0,0,0-2.61.86l-5,1.4a1.13,1.13,0,0,0-.8,1.06c.05,3.48.11,7,.16,10.44,0,.33,0,.95,0,1.58s-.15,1.28,0,1.47A30.53,30.53,0,0,0,436,194a1.11,1.11,0,0,0-1.1,1.09c-.11,3.59.92,9.38-.39,12.62a2.66,2.66,0,0,0-.21.68,13.83,13.83,0,0,1-2.14.25,34.26,34.26,0,0,0-4.7.87V179.73A22,22,0,0,1,427.42,175.75Zm-21.73,84.8c.13-.07.37-.18.64-.29a6.21,6.21,0,0,0,0,1.62c0,.93,0,1.85,0,2.78a9.29,9.29,0,0,0,.11,1.28,2.43,2.43,0,0,1,0,.3l-.41.16c-1.68.58-4,.36-5.79.52a1.13,1.13,0,0,0-1.1,1.1c-.05,3.42-.1,6.85-.16,10.27a24.92,24.92,0,0,0-.07,3.12,32.27,32.27,0,0,0-4.37.18,1.12,1.12,0,0,0-1.09,1.1c0,3.72.26,7.55,0,11.27a4.37,4.37,0,0,0,0,1.08,1.35,1.35,0,0,0-.4.1c-1.73.65-4.1.52-6,.76A1.11,1.11,0,0,0,386,297c0,3.33-.15,6.68,0,10,0,1.14-.44,2.71-.08,2.72-1.06.48-3.63.44-4.6.6a1.09,1.09,0,0,0-.8,1.05c-.24,3.52.31,8.12-.77,11.43-.42,1.3,1.14,1-1.85.4-1.9-.37-4.2,0-6.14,0a1.1,1.1,0,0,0-1.09,1.09c.14,2-.26,4.89.59,6.68,1.26,2.7,5.23,4,6.61,6.67,1.58,3,.72,12.56.9,17.31a1.1,1.1,0,0,0,.8,1.05c.82.12,3.67.43,4.92.47l.4.14v0c-.32,0-.14,1,0,2.08,0,.71.06,1.4.06,1.72s0,.63,0,1c.11,4.44.59,9.19,0,13.48a3.17,3.17,0,0,0,0,.64l-.19.07a2.25,2.25,0,0,0-.4.15,12.88,12.88,0,0,1-1.28.45c-1.33.4-2.78.64-4.06,1l-16.35,4.41-3.76,1L353.8,384a68.2,68.2,0,0,0-7.49,2,19,19,0,0,0,1.19-3.84c1-3.94,1.11-8.83,1.76-12.26q1.07-5.65,2.14-11.3s0-.08,0-.12a1,1,0,0,0,0-.17q.3-17.88.61-35.77c.07-4.4-1-10.93.26-15.21.85-2.88,5.87-8.32,8.18-11.53a1.11,1.11,0,0,0-.4-1.5c-1.47-.82-4.33-3.24-4.77-2.22.43-1.39,3.25-4,4.07-5a1.11,1.11,0,0,0-.17-1.32c-2-2.45-4.05-4.94-6.12-7.36l-.33-.57,1.64-.54.72-.22,26.75-8.67C389.19,265.91,399.06,264.47,405.69,260.55ZM312.11,318.9c-.95-3.3-3.44-6.15-4.38-9.45a5,5,0,0,0-.32-.87,2.12,2.12,0,0,0,.51-.34,24.05,24.05,0,0,1,4.22-2.27,1.07,1.07,0,0,0,.54-1l-1.11-9.68a2.64,2.64,0,0,1,.22-1h0l5.77-5.12a19.51,19.51,0,0,0,4.78-3.93,5.66,5.66,0,0,0,1.14-1.4c1.07-2.11.15-6.61.15-8.88,0-1.4-.11-2.59-.16-3.61a14.88,14.88,0,0,1,.16-1.79,12.17,12.17,0,0,0,.14-1.28,4.39,4.39,0,0,1,2.31-2.22,1.09,1.09,0,0,0,.54-.95c0-7.25-.45-11,3-17,.76-1.32,1.48-2.77,2.22-4.24.83-1.23,1.63-2.44,2.29-3.58l1.28-2.23.21.4c1.07,1.92,3,3.74,4.38,5.44l1.17,1.42a14.59,14.59,0,0,1,3.67,8.24c0,.18.05.35.07.52.12,2.57,0,5.3,1,7.39a13.71,13.71,0,0,0,2,2.76c1.24,3.52.51,8,1.65,11.94a.14.14,0,0,0,0,.07c0,.31,0,.62.06.92a1.2,1.2,0,0,0,.14.49,1,1,0,0,0,.18.29c.29.34.6.7.93,1.05a50.72,50.72,0,0,0,3.42,4.17c.8,1,2,2.89,2.55,3.21l.13.16a2.6,2.6,0,0,0-.84,1,49.07,49.07,0,0,1-3.08,4,1.11,1.11,0,0,0,.39,1.5,27.28,27.28,0,0,0,2.74,1.53l.68.3c.22.15.44.28.64.44a1.94,1.94,0,0,0,.36.22,5,5,0,0,0-.46.64c-1.91,3.15-5.2,5.94-6.67,9.3a12.9,12.9,0,0,0-.89,4.48c-1.4,11.3-.24,23.61-.43,34.93h0q-.11,6.24-.22,12.47l-37.64,8.9.87-37.52C312.57,325.39,313,322.06,312.11,318.9Zm-14.05-12.29c0-.41-.28.4,1.2-1.12,2.69-2.75,5.82-5.17,8.69-7.72l1.57-1.4v.15a21.19,21.19,0,0,0,.82,4.42,9.6,9.6,0,0,1,0,2.35,2.68,2.68,0,0,1-1.29,1.94c-1.29.63-3.06,1.59-3.66,1.91a1.13,1.13,0,0,0-.39,1.5c1.7,3.66,4.91,8.91,5.53,12.05.85,4.24-.22,9.71-.32,14q-.37,16.44-.76,32.88-.9,5.77-1.78,11.54h0c-.09.56-.18,1.12-.26,1.68-.41,2.61-.46,7.71-1.56,10.1a9.73,9.73,0,0,1-4.21,4l-12.16,3.85-6.62,2.1h0l-42.05,13.33,23.9-23,17.8-17.13.79-.76c2.78-2.67,8-6,9.82-9.45,1.34-2.48.88-6.67,1.1-9.43s.43-5.48.65-8.22q1.13-14.07,2.24-28.13l.66-8.41A24.66,24.66,0,0,0,298.06,306.61ZM339.91,150l6,3.64v12.18l-3.4-2.37c-.65-.45-1.29-.92-1.95-1.37l-.63-.59c0-.13,0-.27,0-.4a18.08,18.08,0,0,0,.12-4.62,38.63,38.63,0,0,0-.13-5.08Zm-26.57-20.2c.06.06.15,0,0-.94V63.84a6.55,6.55,0,0,1,.61.51c1.22,1.11,3.44,1.84,4.89,2.62l6.6,3.53q-.46,27-.94,53.91c-.12,6.29,4.23,10.38,7.67,15.6,1.73,2.63,5,6.58,5.55,9v5.39c0,1.27-.21,2.94-.27,4.52l-20.28-24.4c-.37-.45-.81-.91-1.26-1.38L313.4,130l-.06-.12Zm-20.4-41.79h0q.07-8.47.16-16.94a17.46,17.46,0,0,1,3.32-1.3l9.9-4a43.41,43.41,0,0,0,4.83-2v1.09c-.83,4.85,0,10.6,0,15.52V127q-9.16-12.53-18.34-25Q292.89,95,292.94,88.05Zm-.75,81.6h0q.12-12.53.23-25.06l.36-39,18.52,25.28a1.22,1.22,0,0,0,.9.5c1,2.1,2.63,3.77,5.2,6.85q7.58,9.13,15.17,18.26h0L338,163a.85.85,0,0,0,.44.28,13.64,13.64,0,0,0,1.71,1.24l6.24,4.34a1,1,0,0,0,1.39-.26,35.46,35.46,0,0,0,6.26,1.73c5.75,1,4.9.23,8,5.12l10.66,16.77,19.06,30L318.13,191.8l-2.95-1.22L299,183.86a53.24,53.24,0,0,0-5.37-2.22l-1-.41c-.2-.11-.36-.22-.49-.3C292.12,177.17,292.16,173.41,292.19,169.65Zm-.35,38.8q.09-10.92.2-21.85c0-1,.11-2.15.07-3.21l6.25,2.58h0l42.76,17.69,52.16,21.58h0l.16.1s0,.08,0,.14c1.13,6.5,0,14.24,0,20.83V262l-22.73,7.47-15.16,5-.7.25-2.95,1a8.26,8.26,0,0,1-.2-.86,18.68,18.68,0,0,0-.23-6.18,13.5,13.5,0,0,0-.71-4.53,5.91,5.91,0,0,0-1.34-1.74,34.56,34.56,0,0,1-2.14-7c-.18-2.55-.23-5.17-1.24-7.4-2-4.41-7-8.67-10.07-12.48a1.11,1.11,0,0,0-1.72.22c-3,5.2-7.82,11-9.61,16.7-.57,1.82-.25,4-.25,5.92,0,4.38,1,5.64-2.45,7.43a1.07,1.07,0,0,0-.54.94v9.15c0,1.69.17,3.49,0,5.17-.22,2-1.71,3.63-3.61,5.3-.83.61-1.61,1.18-2.16,1.66l-2.55,2.27c-1.23,1.1-2,1.72-2.56,2.27l-1,.89c-3.09,2.74-7.22,5.3-10.2,8.44a12.66,12.66,0,0,0-3.55,4.3c-1.32,3.19-1,8.27-1.05,12.19-.85,10.15-1.54,20.32-2.34,30.46-.32,4,.28,9.82-1.08,13.63a14.88,14.88,0,0,0-1.43,1.48c-.69.68-1.39,1.35-2.09,2l-.23.21-27.47,26.42-21.88,21.06,4.32-25.73c1.52-9.07,4-18.5,4.64-27.69.68-10.47-.7-21.46-1-31.94-.08-2.24-.15-4.49-.22-6.73l1.48.11h0c4.76,1.43,11.07.77,16.06,1.12a1.11,1.11,0,0,0,1.05-.81c1.67-4.4,4.39-9.24,5.26-13.86.05-.3.09-.61.12-.92.46-3.34,0-7.07-.06-10.52,2.68.75,6.06,2,8.25,1,2-.88,4.47-3.48,6.72-6.17,2.5-2.44,4.91-5.16,5.94-7.35,2.15-4.59.5-13.42.54-18.37q.19-21.94.4-43.87Q291.77,215.15,291.84,208.45ZM245.78,316.53q-1.91-58.44-3.82-116.88,5.68-15.6,11.38-31.21V297.53C253.34,304.89,249.68,310.08,245.78,316.53Zm28-280c.1-6.51,1.34-14.22.4-20.75l7.77,6.08c2.05,1.6,8.24,4.67,9.37,6.8.16.32-.13.91,0,1.24.72,2.09,0,5.75-.07,7.94q-.15,16.78-.31,33.57l-.28,30.49a.89.89,0,0,0,0,.58q-.35,37.14-.68,74.3l-.39,42-.3,33.36c0,2.58-.05,5.16-.08,7.73l-.06,7.32h0c0,1.41,0,2.82,0,4.23,0,3.2.72,7.72-.1,10.85a4.07,4.07,0,0,0-.11.51,4.21,4.21,0,0,0-.64.82c-.05.08-.11.15-.17.23-1.1,1.07-2.88,3-3.51,3.7-.34.36-.73.84-1.15,1.38-.77.75-1.53,1.49-2.21,2.22-.86.9-3.87,3.94-4.12,4.58-.11.05-.21.11-.32.15.67-.24-1.39-.33-2.7-.67-2.58-.67-3.41-.32-4.18-1.77,0-3.63.11-7.26.17-10.89,0-.41,0-.82,0-1.23h0c0-.38,0-.76,0-1.14q.51-34.4,1-68.8Q272.43,124,273.76,36.57ZM258,8.54l.15-5.26c4,3.16,8.1,6.31,12.13,9.48,2.54,2,1.29-.1,1.67,2.49h0q-.4,26.86-.82,53.72l-.63,41.57q-1.29,84.79-2.57,169.58c-.08,4.87-.18,9.74-.22,14.61h0v.51c0,.19,0,.39,0,.58a94.69,94.69,0,0,1,0,9.68,22.9,22.9,0,0,1-1.7,6.58c-.17.45-.35,1.08-.55,1.79a52.3,52.3,0,0,0-2,5c-.08.26-.28,1-.5,1.62l-.11,0a2.11,2.11,0,0,1-.29.06c-1-.49-4.75-.41-5.88-.49-3-.21-6.91-1.17-9.92-.75,3.43-5.69,8.22-11.8,8.85-18.21.89-8.9,0-18.34,0-27.27V162.38a.71.71,0,0,0,0-.29V154.2C255.53,105.59,256.59,57.14,258,8.54Zm-29.53,12a5.11,5.11,0,0,0,0-1.21,1,1,0,0,0,.31-.23c3.87-3.84,10.84-6.38,15.52-9.14l11.68-6.88c-.6,21.18-1.27,42.37-1.78,63.55q-.33,12.08-.67,24.16C250.53,85.1,247.6,78.34,243.19,74a10.22,10.22,0,0,0-2.49-2.46c-2.5-1.69-7.06-3.29-9.93-4.13l-2.29-1-.06-.27c-1.17-4.87,0-11.44,0-16.43V28.23C228.42,25.68,228.26,23.06,228.42,20.51ZM201.3,66.07v-8.6l34.15,14.19c1.64.69,2.74,1.12,3.55,1.53a9.48,9.48,0,0,1,3.08,3.16c3.12,5.47,6.45,10.84,9.72,16.23L216.73,78.42h0l-15.38-6.21a3,3,0,0,0,0-.6Zm0,41.55V74.53l52.12,21a9.29,9.29,0,0,1-.08,2.14c-.52,3.87,0,8.15,0,12.06,0,.88,0,1.79,0,2.7,0,3.9,0,7.8,0,11.71V130l-1.14-.41h0c-2.58-1.58-6.35-2.31-9.19-3.34l-25-9.08h0l-16.74-6.08Zm0,5.83.77.28c2,1.37,5.28,1.92,7.58,2.76h0c13.67,5,27.53,11.45,41.6,15.12l2.09.75v28.3l-32.18-12.47c-6.15-2.38-12.26-5.07-18.51-7.17h0l-1.3-.51,0,0Zm-.19,50.4.19-1.59V160.7c.14-3.84,0-7.71,0-11.55a28,28,0,0,0,0-5.26v-1.06l51.75,20.06q-6.44,17.61-12.85,35.22l-41.51-13.84,0-.24c.57-1.05.58-4.9.74-6.22C200,173.18,200.75,168.52,201.11,163.85Zm-35.19,2a12,12,0,0,1,1.65,0,67.5,67.5,0,0,0,8.26-.61l20.69-1.54,1.88-.13c-.45,7-1.1,13.91-1.94,21.06L185,197.25a16.78,16.78,0,0,0-2,2.14l-2.34-3.76h0L174,184.83q-3.27-5.27-6.53-10.53a10.66,10.66,0,0,1-1.71-6.1c0-.48.06-1,.08-1.49,0-.13,0-.26,0-.41A4.54,4.54,0,0,0,165.92,165.81ZM188.4,162h0l-22,1.63c-.94.05-1.89.08-2.83.12H129.88c0-.08,0-.16,0-.24,0-4.88-.23-9.81-.14-14.7.06-1.16.1-2.29.12-3.38l0-.47s0-.05,0-.08l.79,0c2.25.08,4.56-.17,6.82-.25l3.38-.13,44.8-1.64h0l13.46-.5q0,3.75-.1,7.42a67.67,67.67,0,0,0-.23,6.81c-.07,1.57-.15,3.13-.24,4.69ZM66.66,147.74c-.26-.51-2-1.48-2.78-2.07-1.51-1.12-3.27-2.88-5-4a6.79,6.79,0,0,0-1.73-1c-2.37-.84-5,.29-7.48.83a1.12,1.12,0,0,0-.8,1.06v31.7c0,4.78-1,10,0,14.58v1.89a1,1,0,0,0,.3.74s0,0,0,0L51.32,194h0l.24.27c-6.84.31-25.77,1.61-34.35,6.58.1-3.81.2-7.61.31-11.42q.48-17.76,1-35.52h0c.18-6.75,4.35-10.58,10.34-14.08a40.33,40.33,0,0,1,4.7-2.34,59.27,59.27,0,0,1,14.89-3.4c9.27-.91,18.58.07,27.7,1.88l.36.07,1.2.25c1.78.37,3.54.77,5.26,1.18l-7.29,4.63c-2.17,1.38-4.42,2.68-6.53,4.15A20.6,20.6,0,0,0,66.66,147.74Zm.1.21h0l-.09,0a0,0,0,0,0,0,0ZM53.37,196.44l11.07,12.95h0l0,0c-11.92.92-24,2.06-35.6,5.17-3.81,1-8.74,2.31-12.19,4.88q.21-7.92.43-15.85C24.22,197.9,49.05,196.59,53.37,196.44Zm1.88-1.16q-.24-.28-.51-.57a1,1,0,0,0-.29-.31,23.09,23.09,0,0,1-3-3.33l2.46-1.46h0L85.28,171l29.09-17.29c3.29-2,9.6-4.37,13.21-7.46,0,.56.08,1.14.08,1.6,0,5.26-.82,11.14,0,16.33v.72a1,1,0,0,0,.14.53v0c.08.15.14.32.21.47,1.05,4.39,3.38,8.91,5.59,13.21,1.36,3.16,2.79,6.27,4.39,9.26.11.21.24.4.36.6l-63,29.51c-1.47-2.49-4.54-5-6.17-6.92-.53-.61-1.06-1.23-1.58-1.85a.94.94,0,0,0-.23-.26ZM75.9,224.8a33.88,33.88,0,0,0,.21-4.25l63.42-29.71c3.05,4.32,7.47,8,11.07,11.75a1,1,0,0,0,.27.19,1.09,1.09,0,0,0,.41.13h.13a.83.83,0,0,0,.73-.3.76.76,0,0,0,.18-.25l11.3-25.05q-1.74,96.42-3.46,192.84-1,58-2.09,116.06a69.11,69.11,0,0,0-9.78,2l-44.72,10.81-32.08,7.76c0-1.07,0-2.14.05-3.21Q72.91,416,74.28,328.44ZM163.57,170a9.77,9.77,0,0,1-.49,3.19q-2.24,4.94-4.46,9.88h0q-3.8,8.38-7.58,16.79l-.72-.72-.22-.3c-2-3.27-5.65-6.21-8.55-9a22.18,22.18,0,0,1-2-3.35c-3.21-6.76-6.11-13.68-9.12-20.53h30.06a26.43,26.43,0,0,1,3.21,0C163.64,167.29,163.52,168.69,163.57,170ZM133.8,52.91l36.14-2.58,13.35-.95,15.82-1.13a3.55,3.55,0,0,1,0,1.43c-.84,4.36-.32,9,0,13.59v8.44a.54.54,0,0,0,0,.18l-.62,0c-2.52.09-5.05.33-7.56.5l-48.34,3.13c-2.62.17-5.6,0-8.18.53h0l-.64,0,0-1.11C135.26,68.35,133.93,59.92,133.8,52.91Zm0-14.77a5.58,5.58,0,0,0,0-1,19.6,19.6,0,0,1,2.38.15c6.56.48,13.3.1,19.89.15,1.45,0,4.44-.53,6-.07-.11.06-.11.3.21.9a22.07,22.07,0,0,1,1.16,4.54,1.12,1.12,0,0,0,1.06.81l7.63-.22a1.11,1.11,0,0,0,1.09-1.1c0-1.43-.53-4.17-.22-5.78a6.38,6.38,0,0,1,2.05-.13c5,.49,10.27,0,15.28,0,1.73,0,9.66,0,9.28-.41,0,0-.37,7-.46,10.12-21,1.45-42.53,1.6-63.33,4.52l-2,.14v-.21c.51-1.26,0-4.71,0-6.07V41.82a1.23,1.23,0,0,0-.08-.39A23.87,23.87,0,0,1,133.79,38.14Zm-1.85,70.37c1.48-3.08.58-9.78.77-13.09.34-5.68.8-11.37,1-17.06h0v0l65.38-4.25v.23c-.09,2,0,4,0,5.94v59.93h-.22c-1.22,0-2.45.09-3.66.13l-15.63.58-37.68,1.38c-3.64.14-7.72-.25-11.29.42h0l-.48,0c1.65-4.65.53-12.88.8-17.45ZM119.08,21.28c-.49-.22-.07-.61,0,0Zm-31,61c1.91-2.63,1.7-3,1.7-6.68,0-1,.42-4.18-.2-3.81,1-.75,4.52-1.2,5.53-1.49a1.12,1.12,0,0,0,.81-1c0-2.79-.93-7.24,0-9.81.38-1.07,3-1.26,4.06-3.13s0-6,.1-8.1c.24-3.69,1.26-3.15,5.15-5.39a1.1,1.1,0,0,0,.54-1c0-2.65-1-7.69,0-10.12.3-.73,4.26-2.25,5.16-4.12,1.22-2.55-.5-6.61.09-9.35.54-2.49,1.84-3.88,3.65-5.61v9.5a1.11,1.11,0,0,0,1.65.94c.65-.3,1.85-1.08,2.77-1.45a5,5,0,0,1-.18,1c-.56,2.09,0,4.92,0,7.13a1.1,1.1,0,0,0,1.64.95,40.17,40.17,0,0,0,4-2.31c-.09,2.86,0,5.73,0,8.59a1.1,1.1,0,0,0,1.65.94c.81-.51,1.74-1,2.51-1.56-.11,2.6,0,5.24,0,7.84a1.11,1.11,0,0,0,1.87.78l1-.83V69.46c0,5.3-.17,10.6-.48,15.9l-.18,3.11-1.14,19.14-.07.19-1.54,1c-2.66,1.62-5.26,3.35-7.89,5h0L86.83,135c0-.61-.09-1.25-.1-1.77-.06-3.42-.13-6.85-.19-10.27l-.21-11.67C86.18,103.09,87.48,93.21,86,85,86.18,83.86,86.51,84.36,88.07,82.23Zm.42,54.35,23.28-14.77,11.2-7.12c1.72-1.09,4.26-2.19,5.9-3.6l.47-.26c-1.52,7-.66,15.75-1.08,22.8h0c-.18,3.1-.37,6.2-.55,9.3h0a.43.43,0,0,0,0,.29L51,188.8V153.54c0-2.75.19-5.58,0-8.32,0-.48-.06-.85-.08-1.14a1.47,1.47,0,0,1,.08-.3,1.17,1.17,0,0,0,0-.42,12.62,12.62,0,0,0,3.15-.64,7,7,0,0,1,2.85.57c3,1.43,6.52,4.84,9.14,6.77a1.06,1.06,0,0,0,1.1,0Q77.88,143.32,88.49,136.58ZM65.3,40.22a3.49,3.49,0,0,1-.75,1.51C64.64,41.23,65.15,40.7,65.3,40.22Zm-1.57.61a3.89,3.89,0,0,0,.29.85C63.57,41.12,63.44,39.42,63.73,40.83ZM14,149.37a10.45,10.45,0,0,1,1.2-12.75c1.11-1.13,3.24-1.76,4.24-2.88,3.38-3.81,5.29-10.14,7.52-14.73L60.51,50.07c1-2,3.39-5.24,3.9-7.62.19.36.38.7.53,1q8,17.32,15.94,34.63a30.35,30.35,0,0,1,2.37,7.51c-.5,3.73.59,9.12.65,12.32l.07,4h0q.3,16.86.61,33.73l-.48-.12a128.44,128.44,0,0,0-26.67-4c-14.35-.6-28.93,1.87-37.28,12a14.71,14.71,0,0,0-3.42,5.08c0,.05,0,.1,0,.15a4.66,4.66,0,0,0-.27.74c0,.09,0,.19-.05.29a16.89,16.89,0,0,0-.37,1.93A13.67,13.67,0,0,1,14,149.37Zm-.69,195q1.58-57.75,3.16-115.51a.48.48,0,0,0,0-.12q.09-3.08.17-6.15a12,12,0,0,1,1.53-1.36c4-3,9.8-4.25,14.61-5.36,11-2.53,22.28-3.56,33.49-4.41l7.54,8.82v.13a28.55,28.55,0,0,0-.07,4.29q-1.38,87.09-2.77,174.18-.87,54.1-1.72,108.21c-17.39-.45-35.75-1.37-52.87,2.18a29.38,29.38,0,0,0-7.65,2.46Q11,428.08,13.28,344.4ZM66.5,677.54c-.29,18.49-.72,37-.83,55.48-.22,2.5-.6,5.43,0,7.55v.57c-17.2,5.79-37.47,7.72-55,3-8.32-2.26-8.26-.44-8.08-7q.53-19.44,1.06-38.88L7.92,540.44q.27-10.19.56-20.39a.48.48,0,0,0,0-.12l.15-5.43c3.75-3.73,15.77-4.24,18.88-4.51,13.83-1.23,27.8-1,41.67-.68Q67.85,593.42,66.5,677.54Zm88,8.12q-.63,35.37-1.27,70.74L79.74,743.17c-3-.55-9.14-.46-11.92-2.1L69,668.72q.17-10.15.32-20.29l72.4-8.62c4.55-.54,9.11-1.38,13.67-1.53Q154.92,662,154.49,685.66ZM146.6,637,102,642.34,69.3,646.23q1.08-68.57,2.15-137.14l71.16-17.21c4.82-1.16,10.83-3.17,15.43-3.65q-1.33,74-2.66,148C152.56,636.38,149.75,636.66,146.6,637Zm78.28,70.53v45.34c-1.46.17-2.88.33-4.17.4l-21.77,1.08h-.14c0-.45-.2-1.35-.2-2.71V702.23c0-5-.28-10.11,0-15.11.54-9.81,7.67-19.21,18.6-14C228.35,678.49,224.88,697.76,224.88,707.57Zm10.65-51v96.28c-.21-.06-.49-.13-.86-.2a27.31,27.31,0,0,0-7.6,0V715.07c0-10.26,1.51-21.72-.35-31.9C224.07,668.66,204,664,198,678.85c-3.51,8.76-1.61,20.55-1.61,29.62v46l-36.8,1.83c-1.39.07-2.8.2-4.2.21l0-.82c.8-3.18.13-7.48.19-10.74q1-53.36,1.91-106.73c.64,0,1.28,0,1.92.09,13.54,1.06,27.06,2.67,40.58,4l35.5,3.49Zm0-125.59V643.65l-72.64-7.15c-1.86-.18-3.61-.26-5.32-.26L159,559.58q.63-35.73,1.28-71.45.48,0,.93.06c13,1.53,26.05,4.27,39,6.4l35.37,5.8Zm.68-118.31c-.22,1.26-.43,2.52-.64,3.77v.07a.59.59,0,0,0,0,.13s0,.06,0,.09v81.49L164,486.45a22.39,22.39,0,0,0-3.72-.31l4.35-242.07,0-2.13,1.17-65.18v-.44c1.18,1.81,2.58,3.59,3.59,5.21L182,201.78a1.07,1.07,0,0,0,.27.29l.12.08.14.08a1.07,1.07,0,0,0,1.19-.22l11.63-12.91h0l2.52-2.8h0l5,1.66h0l36.55,12.18a4.08,4.08,0,0,0,.43.18l.06,1.83c-.28,3.31.23,6.91.34,10.23q.34,10.73.7,21.44,1.41,43.28,2.83,86.55h0l.54,16.67c.24,7.3,1,14.79.74,22.1-.15,1.58-.34,3.13-.59,4.66l-3.63,21.63c-.05.28-.11.56-.15.84C239.15,395,237.21,403.79,236.21,412.63ZM354.34,687.94v68.35l-19.8-.63a10.4,10.4,0,0,0,.11-1c.2-2.64,0-5.37,0-8V694.5c0-3.34-1.27-10-.3-13.65H335c1.75-.05,3.51,0,5.26,0,3.89,0,8.87.88,12.65,0a3.6,3.6,0,0,1,1.41,0,1.08,1.08,0,0,0,0,.18A64.64,64.64,0,0,1,354.34,687.94Zm9.29-41.49a1.1,1.1,0,0,0,0,2.08q-.22,31.32-.46,62.64-.12,17.46-.25,34.91c0,3.33-.3,6.77-.07,10.1v.22c-.42,0-1.24.13-2.47.09l-3.83-.12V679.75a1.11,1.11,0,0,0-1.1-1.1H333.56a1.11,1.11,0,0,0-1.1,1.1v75.84l-94.74-3V641.94l126-8Zm.62-84.64q-.15,19.94-.29,39.87-.1,15-.22,30l-126,8V511.59c42.34-8.61,84.59-18.1,127.08-25.85Zm.57-77.64q-25.11,4.5-50.21,9.57l-76.89,15.63V449.74h0v-7.26c0-7.46,1-15.75,0-23.15,0-.11,0-.26,0-.4,0-.35,0-.7,0-1l0-.38.42-.15,68.45-21.72a1.08,1.08,0,0,0,.77-.76q.84-5.47,1.69-11h0q1.14-7.41,2.29-14.82a3.31,3.31,0,0,0,.21-.58l4.83-1.14h0l16-3.77,14.33-3.38h0l2.26-.54-.12.61h0c-2.13,4.09-2.1,11.12-3,15.65q-1.06,5.64-2.14,11.29a1.11,1.11,0,0,0,1.35,1.35l12.56-3.39c2-.54,5.18-.79,7-1.89l.88-.24q-.36,49.17-.71,98.34ZM534.49,708.86v55.87L414.2,759l-33.09-1.58c-5.05-.24-11.05.3-16.09-.7q.39-54.13.79-108.27C422,645,478.24,641.33,534.47,638h0Zm0-239.93v167c-46.58,2.7-93.15,5.69-139.73,8.58l-28.93,1.79q0-7.8.11-15.6.21-29.37.43-58.76l.63-86.56c48.91-8.85,98.29-15.61,147.37-23.42,6.77-1.07,13.45-2.05,20.12-3Zm0-126.13V456.94c-32.12,4.6-64.13,9.78-96.22,14.88-23.87,3.8-47.59,7.72-71.26,12q.11-15.42.22-30.83l.42-57.65h0l.09-12.61h0a.71.71,0,0,0,0-.15l.38-.17,1.26-.34h0c5.51-.42,11.57-3.12,16.94-4.57a1.12,1.12,0,0,0,.8-1.06V355.82a1.09,1.09,0,0,0-.8-1.05c-6.29-.9-5.3,1-5.54-5.37-.13-3.37.82-9.24-.54-12.39s-6-4.82-7-7.61a10,10,0,0,1-.25-3.52,2.55,2.55,0,0,0,0-.44l.16-.05c1.92-.75,5.46,0,7.57,0a1.12,1.12,0,0,0,1.09-1.1c.22-3.18.54-6.38.65-9.57.05-1.19.61-2.57.28-2.55,1.06-.51,3.61-.46,4.62-.62a1.08,1.08,0,0,0,.8-1.05c0-3.77-.25-7.64,0-11.4a4.52,4.52,0,0,0,0-1.1,1.48,1.48,0,0,0,.41-.1c1.73-.66,4.1-.52,6-.76a1.13,1.13,0,0,0,1.1-1.1c0-3.25.3-6.65,0-9.89-.1-1.1.35-2.4.13-2.66a32,32,0,0,1,4.25-.15,1.11,1.11,0,0,0,1.09-1.09c.06-3.88.23-7.78.18-11.66,0-.3-.08-1-.06-1.48a2.24,2.24,0,0,0,.44-.13c1.67-.6,4-.36,5.79-.53a1.11,1.11,0,0,0,1.1-1.09c0-2.94.15-5.93,0-8.86a19.16,19.16,0,0,0-.11-2.75c1-.54,3.74,0,4.93,0a1.12,1.12,0,0,0,1.09-1.09c.27-3.29.62-6.59.81-9.89.24-4.21.57-2.58,5.17-3.29a1.1,1.1,0,0,0,.81-1c.11-3.35.34-6.71.32-10.06,0-1.08.53-2.78.17-2.76,1-.55,3.62-.6,4.62-.8a1.1,1.1,0,0,0,.8-1.05c.06-3.8-1.15-10,.2-13.41a3.17,3.17,0,0,0,.19-.61l2.14-.41h0a58.13,58.13,0,0,0,6.08-1.16,1.12,1.12,0,0,0,.81-1.06c.11-3.48.41-7,.34-10.51,0-.55.12-1.32.14-1.93a2,2,0,0,0,.06-.63,34.46,34.46,0,0,0,4.27.16,1.12,1.12,0,0,0,1.1-1.1c-.06-4.09-.58-8.43-.19-12.5,0-.2,0-.36,0-.51a1.62,1.62,0,0,0-.05-.69,2.17,2.17,0,0,0,1.2-.26l.06,0,.14,0,6.33-1.78a1.13,1.13,0,0,0,.8-1.06v-10.1c0-1.62-.42-3.91,0-5.47a.43.43,0,0,0,0-.11c.59,0,1.41-.1,1.59-.08,1,.1,3.23-.39,4.62-.24-.15.21,0,.86,0,1.69,0,.25,0,.51,0,.76-.45,3.73-.34,7.6-.51,11.36a1.11,1.11,0,0,0,1.65.95,21.06,21.06,0,0,0,3.85-1.86,7.07,7.07,0,0,1,.91-.56v0c-.16,3.43.26,7,.38,10.42a1.11,1.11,0,0,0,1.39,1.05,21.56,21.56,0,0,0,4.11-1.06,10.35,10.35,0,0,1,1.31-.45c0,.09,0,.19,0,.3,0,3.41.12,6.82.19,10.23a1.1,1.1,0,0,0,1.09,1.1,22.77,22.77,0,0,1,4.54-.49,1.86,1.86,0,0,0,.55,0,4.42,4.42,0,0,0,.15,1c.73,3.23.6,6.9.89,10.21a1.11,1.11,0,0,0,1.39,1,30.73,30.73,0,0,1,4.7-1.46,2.29,2.29,0,0,0,.35-.08,6.88,6.88,0,0,0,.07.79c.5,3.34.48,6.84.72,10.21a1.1,1.1,0,0,0,1.38,1.05,21.88,21.88,0,0,0,4.12-1.46l1.39-.49c.84,2.8.06,7.2.12,10.09a1.11,1.11,0,0,0,1.09,1.1c1.54,0,3.54-.47,5-.17a1.78,1.78,0,0,0,.62.05,4.69,4.69,0,0,0,.08,1c.52,3.07.12,6.55.18,9.67a1.11,1.11,0,0,0,1.1,1.09,30.86,30.86,0,0,0,4.51,0c3.09-.46,1.6-.74,1.81.56.54,3.32-.13,7.23-.19,10.61a1.09,1.09,0,0,0,1.09,1.09,23.73,23.73,0,0,0,4.39-.53,12.24,12.24,0,0,1,1.66-.31c0,.14.05.29.08.5.58,3.25,0,7.1,0,10.42a1.1,1.1,0,0,0,1.1,1.09,25.33,25.33,0,0,0,4.38-.53,10.7,10.7,0,0,1,1.72-.32c0,.16,0,.34.09.59.5,3.57.25,7.39.38,11a1.11,1.11,0,0,0,1.38,1.06,31,31,0,0,1,4.55-.81l.32,0c0,.15,0,.32.05.52.55,3.12.62,6.4.92,9.56a1.14,1.14,0,0,0,1.1,1.1c1.89.06,3.32-.06,4.26,0a3.88,3.88,0,0,1,.44.13l.38.07a.76.76,0,0,1,.17.13v2a27.66,27.66,0,0,1-3.65,6.75,14.35,14.35,0,0,0-3.33,5.06c-2,6.77-.58,16.15-.67,23.38-.06.29-.13.56-.2.82-.14.49-.31,1-.49,1.47-2.81,4.9-5.47,9.88-8.15,15a1.11,1.11,0,0,0,1.24,1.61L530,339.7c1.3-.2,3-.71,4.47-.8ZM521,338.86c2-3.64,4.28-7.31,6-11.08,3.07-5.41,6.27-10.72,9.76-16,2.19-3.34,7.31-8.5,8-12.53.43-2.42-1.19-6.36-1.65-8.73l-8.67-45.37-3.3-17.3c-.31-1.63-.37-4.79-1-6.84h.39c13.78-.16,27.79-5.56,41.56-7.13q-.37,18.79-.79,37.6a1.09,1.09,0,0,0,1.1,1.09l11.49-1.41c2.83-.35,7.43,0,10-1.23a.92.92,0,0,0,.5-.27l0,0h0l0,0c2-1.29,3.84-4.24,5.28-5.83l10.17-11.24a4.16,4.16,0,0,0,.82.77c.09.21.18.43.25.63,0,0,0,.06,0,.09a5,5,0,0,0,0,1.16c.77,3.46.28,7.69.41,11.23q.3,8.06.59,16.1l1.26,34.32a2.72,2.72,0,0,1,0,.28v13.1a75.68,75.68,0,0,0,0,8.25,10.74,10.74,0,0,1-.17,2.42,16.67,16.67,0,0,1-2.7.52l-3.66.75h0l-14.64,3L567,330.22C551.67,333.36,536.44,336.44,521,338.86Zm238.34,322v108L603.66,766l-43.1-.78c-7.47-.13-16-1.44-23.39-.42l-.49.07v-127c12-.7,24.06-1.31,36.09-2,13.14,20.55,29.51,42.35,50.44,54.42h0a.68.68,0,0,0,.25.09,1.06,1.06,0,0,0,.23.05h14.73c2.67,0,7.91,1.08,10.32-.32,1.41-.81,2.8-3.52,3.79-4.76l10-12.55,35.5-44.56,49.77-.93c4.2-.07,7.89,0,11.48.32Zm0-190c-.85,4.23,0,9.44,0,13.74V625.17c-1.52-.1-3-.16-4.58-.13l-54.9,1c.45-.58.91-1.15,1.37-1.73a1,1,0,0,0,.34-.43,1.12,1.12,0,0,0,.11-.5L699.3,479.17V462.43c2.76-5.26,2-5.79,0-11.75V435l12.36-.73a7.68,7.68,0,0,0,.38,1.45,9.94,9.94,0,0,0,3,3.34c5,5.74,11,10.88,16.37,16.21,4,4,9,11.38,14,14l.38.17a6.73,6.73,0,0,0,.76.38,5.14,5.14,0,0,0,1.59.28,36.39,36.39,0,0,0,8.27-.06,6,6,0,0,0,2.75-.19h.17Zm1.09-3.31c-3.45,0-6.93-.15-10.38,0-.6,0-1,.05-1.42.08a6.5,6.5,0,0,1-2.11-.55c-.23-.21-.53-.49-1-.86a121.18,121.18,0,0,1-9.1-8.78c-1.18-1.35-2.34-2.66-3.47-3.79l-4.25-4.24h0l-11.88-11.87c-.47-.48-1.64-1.57-2.29-2.22a1.64,1.64,0,0,1-.14-.22l-.09-.15a4.29,4.29,0,0,0-.1-.62,6.13,6.13,0,0,1-.1-1,1.35,1.35,0,0,0,0-.6,31.68,31.68,0,0,0,.07-4.19v-.95c2.46-1.09,5-2.06,7.53-2.9,2.16-.46,4.18-.8,5.31-1.08a111.21,111.21,0,0,1,27.91-3.4,89.25,89.25,0,0,1,42.81,13,6.31,6.31,0,0,1,.7,1.24c0,1.83.06,3.24-.58,4.41-1.17,1.72-3.2,3.29-5,5.06l-7.24,7.24-11.35,11.35-2.55,2.55c-2.19,2.19-3.75,2.64-5.9,2.65l-2.46-.08c-.74,0-1.57-.08-2.49-.09ZM871.56,727.28l-.45,21.62c-.07,3.71-1,8.44-.24,12.1,0,.33,0,.66,0,1a3.49,3.49,0,0,1-.62,0,28.9,28.9,0,0,0-4.73.3l-37.23,2.34-66.78,4.2V627.86c4.57.46,9.13,1.2,14.53,2.22,32.39,6.1,64.76,12.3,97.16,18.3q-.3,14.8-.61,29.61Q872.08,702.64,871.56,727.28Zm49,14.34c-.07,3.58-.42,7.27-.22,10.85h0l0,2.23-.16,0c-8.29,2.4-17.85,2.63-26.38,3.89L873,761.69q1.17-56.46,2.32-112.91c15.66,2.88,31.34,5.68,47,8.53Q921.49,699.46,920.6,741.62Zm-45.19-95.13q.18-8.85.37-17.72l1.32-64.37q.82-40.46,1.66-80.89c6.09,2.72,12.14,5.51,18.21,8.28,8.79,4,18.9,10.7,28.57,13l-.11,5.49Q924,579,922.56,647.76l-.15,7.34Q898.91,650.83,875.41,646.49ZM984.9,721.18l-.4,21.35c-.06,3.06.9,8.44-.22,11.32-.17.44.24,1.4,0,1.79.11-.16-8.29.83-8.88.94-3.76.66-7.54,1.22-11.34,1.63a139.39,139.39,0,0,1-14.73.83c-8.6,0-18.74-.37-26.78-4.08l1.86-89.34c8.62-.35,17.27-.5,25.9-.46,6.93,0,13.87.16,20.78.7,3.28.26,12.29.06,14.81,3.17Zm2.85-152.34q-.3,16.24-.61,32.49-.3,16.5-.61,33c-.14,7.13-1.1,14.8-.42,21.9h0c0,.43,0,.85,0,1.27s-.15.78-.18,1a48,48,0,0,1-10.72,0,6.48,6.48,0,0,1-.08-2.1c.43-2.91.13-6.12.2-9.06q.63-30.65,1.28-61.29.28-13.34.56-26.67a25.12,25.12,0,0,1,.07-3.13c3.3.29,7.53,2.45,10.7,3.57Q987.85,564.33,987.75,568.84Zm.22-11.29L976.44,554a1.1,1.1,0,0,0-1.39,1.05l-2.19,104.23a1.11,1.11,0,0,0,1.1,1.09H986l-.12,6c-2.18-1.23-5.13-1.53-7.37-1.88a160.63,160.63,0,0,0-21.14-1.42c-11-.23-22-.08-33,.37l.6-28.65,2.7-129.58.41.07c19.42,2.88,43.39-.74,60.62,10.69Zm-.12-140.9c-.59,7.18-.35,14.54-.53,21.75q-.72,29.36-1.43,58.72c-.07,2.77.88,8.62.11,12-.2-.18-1,0-2.34-.54a28.92,28.92,0,0,0-6.77-1.63,8.07,8.07,0,0,1-1.87-.47c0-.38.11-.79.12-1,.28-16.36,1.45-32.76,2.18-49.11l2-46c2.81.91,6.94,1.87,8.79,3.51C987.34,413.21,988,415.26,987.85,416.65Zm2.95-10q-.48,25.18-.95,50.36-.52,28.23-1.06,56.46a42.51,42.51,0,0,0-4.72-2.52l2.3.56a1.1,1.1,0,0,0,1.38-1.06q1.18-48.62,2.38-97.22a1.12,1.12,0,0,0-.81-1.05l-10.69-4.38a.85.85,0,0,0-1.18.48,1.06,1.06,0,0,0-.21.57q-2.18,49.2-4.37,98.4c-12-2.81-25.29-3.09-36.19-3.73-3-.18-6.37-.18-8.91-.54q.63-30,1.25-60l.93-44.48a1.09,1.09,0,0,0-.55-.94L924.59,395c-.9-.46-3.06-1.78-3.94-2.07-.24-.11-.38-.15-.35-.08a10.58,10.58,0,0,1-.7-3.2c-.18-3.54.49-8.18.45-10.54,0-.18,0-.41,0-.64s0-.68,0-1c0-1.94-.1-3.87-.14-5.8a.45.45,0,0,1,0-.11,1.79,1.79,0,0,0,0-.84c1.64-.27,3.33-.52,5.06-.74.78,0,1.42,0,1.67,0a147.39,147.39,0,0,1,28.41-.37c10.83,1,22.26,3.43,31.57,9.33l.38.23a43.17,43.17,0,0,1,4.26,3.37l0,.16C993,389.62,990.93,399.56,990.8,406.61Zm1.45-26-.59-.51a14.5,14.5,0,0,0-1.81-1.54C975.25,367.75,955.2,366,936.62,367a87.34,87.34,0,0,0-14.89,1.33c-.46.09-1.19.08-1.79.12a26.63,26.63,0,0,0-.2-3.21c0-.37,0-.7,0-1,0-.84,0-1.68-.06-2.51a.5.5,0,0,1,0-.13q3.81-.48,7.66-.86c10-.66,20.23-1.27,30.27-.61a105.85,105.85,0,0,1,17.24,2.77l2.8.73a65.63,65.63,0,0,1,10.05,4c.94.47,2,1,3.12,1.58.25.18.52.35.76.54a1.24,1.24,0,0,0,.73.28,15.69,15.69,0,0,1,5,4c.16.21.26.36.35.47C996.63,376.48,993.89,378.88,992.25,380.58Z"/></g></g></svg>