<svg xmlns="http://www.w3.org/2000/svg" viewBox="0 0 1000 258.61"><title>Asset 4</title><g id="Layer_2" data-name="Layer 2"><g id="Layer_1-2" data-name="Layer 1"><path d="M975.77,100.56c3.73-20.36,9.36-42.82,23.61-58.68a2.18,2.18,0,0,0-1-3.61C989.36,34.73,976.7,38,968,40.52c-37.05,10.54-69.8,35.3-99.06,59.12-4.4,3.43-9,8.32-13.9,11,1.33-.77-1.36,0-2.61,0-3.44,0-6.9.22-10.35.23A345.52,345.52,0,0,1,755.24,100c3.28-1.23,8.54.33,11.34.2A23.75,23.75,0,0,0,775.94,98a16,16,0,0,0,8.11-9c3.47-10-3.24-18.78-12.19-22.84-24.2-11-46.86,5.05-63,22.6l-13.47-3.1c-36.29-8.29-72.69-16.22-109.3-23.06-16.75-3.13-33.59-6.17-50.55-8-5.09-.55-10.19-.83-15.29-1.15L500.18,23.47c-3.93-5.86-7.77-11.79-11.8-17.6-2.14-3.1-4.49-6.65-8.88-5.72-4.09.87-8.88,5.55-12.18,7.91-7,5-13.9,10.12-20.81,15.24Q431.26,34.61,416.1,46c-26.35,1.1-52.82.75-79.18,1.51-35.12,1-71,1.25-105.8,6.44-17.07,2.54-34.21,6.86-51.07,10.52C144.23,72.27,108.47,80.79,73.5,91.74c-15.42,4.83-30.87,10.07-45.46,17-8.16,3.9-19,8.93-23.6,17.19a7.13,7.13,0,0,0,.36,8.23c-3.19.17-5.76,1.54-4.45,5.65.85,2.68,4,5.63,5.71,7.73,12.5,15.07,28.77,27.17,45.43,37.4,25,15.34,51.79,24.31,78.73,35.33a241.34,241.34,0,0,0,33.26,10.92c47.67,11.87,98,15.65,147.07,15.35q67-.42,134-.86,36.4-.24,72.82-.52c6,0,12,0,18,0,6.53.2,13,.17,19.49-.05q11.68-.39,23.28-1.86c3.19-.42,10.15-.21,13.57-2.17h0c36.54-5.37,73.59-10.13,109.59-18.4a43.5,43.5,0,0,0,7.62-2.27c18.73,15,49.33,33.18,73.54,21.58,7.8-3.74,3.68-15-4-16.56-5.62-1.13-11.9.92-16.19-3.94-4.79-5.41-5.53-14.35-6-21.32,11.92-3.94,23.9-7.76,36-11,14.47-3.89,29.25-7.23,44.21-8.6,11.43-1,25.18-1.78,35.17,4.8,17.76,18.92,37.17,37,58.31,52.21,14,10.05,26.76,16,43.86,18.52,6.51,1,13.24,2.24,19.84,2.42,1.25,0,3,.36,4.09-.33a2.17,2.17,0,0,0,.78-3C979.9,222.8,969.75,184,970.92,146.89A311.89,311.89,0,0,1,975.77,100.56Zm-209-31.82c8.68,3,17.86,11.51,12.2,21-4.85,8.07-13.89,5.09-21.48,5.44-2.94.13-5.85,1.18-7.56,3.49l-1.11-.26q-17.47-4.42-35-8.49C727.53,75.36,746.14,61.74,766.73,68.74Zm-321.67-39q9.82-7.3,19.72-14.52C468.7,12.37,473.4,7.73,478,6c5.35-2.07,6.18,1.42,8.74,5.24l11.56,17.26q8.25,12.28,16.49,24.59l-2.51-.2c-22-2.54-44.33-5.39-66.57-6.51L444,46.26l-2.05-.1c-6.15-.28-12.29-.4-18.41-.32Q434.29,37.77,445.06,29.74Zm-326.41,178c-19.21-8.24-37.38-19.95-55-31q-13.2-8.3-25.88-17.34c-7.73-5.5-23.21-13.19-17.4-24.79,3.82-5.87,10.54-10.34,16.46-13.81C53.51,111,73.06,107.6,91.64,103.05c9.08-2.22,18.47-4,27.43-6.64,16.93-5.08,32.93-8.78,50.57-4,19.71,5.3,34.61,20,37.67,40.31a67.94,67.94,0,0,1-8.05,42.66c-8.85,15.87-23.89,29-41.4,34.81C144.12,214.7,131.73,213.32,118.65,207.72ZM281,222.12a2.53,2.53,0,0,0-2.15.46c-9.84,7.51-30-3.15-40.18-7.13q-16-6.22-31.78-12.91c-3-1.55-7.27-4-8.74-7.16-3-6.51,2.13-7.57,6.66-8.53,8.63-1.83,17.93-1.58,26.71-1.4a156.91,156.91,0,0,1,24.62,2c13.17,2.22,27.92,4.46,39.82,10.74,9.25,4.89,6.14,8-1.31,13.64-3.63,2.72-7.27,5.48-11.05,8-.45.3-2.66,1.34-2.85,1.85-.24.15-.5.29-.76.42A1.56,1.56,0,0,1,281,222.12Zm308.42,15-.53.1a4.27,4.27,0,0,0-1.69.3c-16.89,2.93-33.68,3.18-50.64,3.26a238.39,238.39,0,0,1-33.71-3.18c11.32-10,28.22-13.63,42.69-16,6.17-1,12.71-2.18,19-2.14,7.65.05,12.33,4.58,17.63,9.56,1.64,1.54,7.48,6.92,7.53,6.43A4.92,4.92,0,0,1,589.41,237.11Zm169-13.58c4.24,5.46,9.58,5.58,16.13,5.9q5.36-1.31,5.3,4.34,4.2,5.28-2.62,5.63a37.22,37.22,0,0,1-12.84,1.68c-7.67-.28-15.09-2.62-22.08-5.65a134,134,0,0,1-29.22-17.28,136.38,136.38,0,0,1,29.59-13.46l6.21-2.08,3.12-.87C752.6,209.25,753.7,217.52,758.39,223.53Zm113.84-42.91c-17.61-10.24-44.37-4-62.75-.1-18.94,4-37.17,10-55.51,16.1l-1.22.4c-14.12,4.08-33,8.59-43.92,18.79a19.78,19.78,0,0,1-1.9.95c-7.29,3-16.35,3.79-24.06,5.22-12.16,2.26-24.36,4.3-36.57,6.28q-25.93,4.23-51.93,8.07c.07-3.6-3.24-6.9-6.12-8.69-6-3.7-11.07-10.85-18.58-12.39-5.63-1.15-12.49.36-18.07,1.08-18.66,2.42-41.58,6.6-54.81,21.07a2.07,2.07,0,0,0-.58,1.4,1.84,1.84,0,0,0,1.54,2.21h0l-30,.23q-68.59.47-137.2.89c-44.12.27-88.12-1.15-131.78-8.19-23-3.71-44.69-9.81-66.22-17.24a47.49,47.49,0,0,0,9.16.79c17.67-.32,34.87-9.66,47.21-21.68q2-1.92,3.79-4c-.36,6.45,6.67,11.77,11.93,14.46,13,5.47,26,10.81,39.19,15.8,10.54,4,26.95,11.51,37.64,3.87a7,7,0,0,0,.69-.16c2-.55,4.22-2.68,5.86-3.84,5-3.54,10.74-7,15.16-11.29,9.71-9.34-4-16.28-12.15-19.25-24.91-9.14-54.38-12.4-80.76-9.68-3.39.35-7.89.71-11.49,2.24,16.13-23.86,20.48-57.86-.55-80-13-13.69-32.79-19.13-51.35-18.13-13.45.71-25.93,5.67-38.9,8.8-22.21,5.37-46.18,9-66.84,18.92-8.7,4.19-18.63,10.12-24.21,18.32a2.11,2.11,0,0,0-.35.5,2.26,2.26,0,0,0-.26.58c-7,15.19,10.86,24.23,21.3,31.6a652.69,652.69,0,0,0,62.84,38.93c2.94,1.61,6,3.24,9,4.81l-1.44-.55C77.55,196,47.32,180.52,22.9,158.62A122.67,122.67,0,0,1,7.52,142.5c-3.68-4.74-5-5.64,2.52-3.22,2,.65,3.75-2.18,2.13-3.61-5.76-5.08-5.7-6.87-.17-12,4-3.72,9-6.48,13.83-9,13.94-7.25,29-12.43,44-17.25C104.44,86.29,140,77.73,175.53,69.91c17.12-3.76,34.32-7.5,51.5-10.88,32.89-6.46,68.07-5.85,101.46-6.9,28.68-.91,57.38-.88,86-1.76l1.6,0a1.61,1.61,0,0,0,1.31,0c1.1,0,2.2,0,3.3-.08,26.18-.23,52.45,3,78.46,5.6q5.81.6,11.59,1.15l8.45,1a1.63,1.63,0,0,0,.7-.08C538,59.65,556,61.52,574,64.74c37.31,6.65,74.37,14.69,111.33,23q14.1,3.18,28.16,6.55c12.27,3,24.57,5.92,36.86,8.84l.1,0c23,5.43,45.9,9.82,69.59,11.32,9.59.6,19.22.86,28.83.58,2.9-.09,6,.19,8.57-1.07,4.13-2,8-5.78,11.75-9,3.82,9.07,17.23,9.35,25.79,9.36a21.92,21.92,0,0,1,12.76,3.6c5.61,4,8.28,11,8.73,18.46,0,.73.06,1.47,0,2.22,0,1.19-.06,2.41-.13,3.64a.28.28,0,0,1,0,.09c-.88,10.08-3.64,20.84-10.85,28.42a26.85,26.85,0,0,1-3.3,3.05A8,8,0,0,1,899,175h-.47c-6.38,0-14-1.2-20.26,0a7.63,7.63,0,0,0-1.63.5C874.44,176.4,873.53,178.24,872.23,180.62Zm106.34,40.2a229.21,229.21,0,0,0,14.34,33.31h0c-6.45-.46-12.87-1.46-19.25-2.41a83.06,83.06,0,0,1-35.95-14c-21.39-14.27-40.44-32.29-58.33-50.57-1.2-1.22-2.37-2.49-3.57-3.71a19.63,19.63,0,0,0,1.15-1.87c.41-.68.69-1.49,1.1-2.17l.23,0c6.36-.44,14.06,1.28,20.6.36A13.11,13.11,0,0,0,902,179l.11,0h0a14.63,14.63,0,0,0,4.78-2.76,31.27,31.27,0,0,0,8.32-11.51c.31-.64.6-1.28.86-1.88,5.16-11.93,7.74-29,1.31-41a22.27,22.27,0,0,0-17-11.81c-3.55-.36-8.63.08-13.49-.17-5.79-.42-10.92-2-13.78-8.09,28.33-23,60.24-46.94,96-57.12C976.18,42.67,986,40,994,41.5,974.86,65,970.27,99.39,967.69,128.35,964.87,159.93,968,190.66,978.57,220.82Z"/><path d="M79.46,119.71a15.32,15.32,0,0,0-.74,30.63c8.85.4,15.44-6.33,16.21-14.64a2.66,2.66,0,0,0,.06-.65,1.83,1.83,0,0,0-.06-.63C94.2,126.38,88,119.72,79.46,119.71ZM68.29,135c0-14.24,21.56-14.1,22.33,0C89.84,149.15,68.29,149.27,68.29,135Z"/></g></g></svg>