<svg xmlns="http://www.w3.org/2000/svg" viewBox="0 0 1000 350.02"><title>Asset 13</title><g id="Layer_2" data-name="Layer 2"><g id="Layer_1-2" data-name="Layer 1"><path d="M1000,273.5a.69.69,0,0,0,0-.13v-.06L998.68,266a.73.73,0,0,0-.69-.52c-1.22,0-2.45,0-3.67-.07-1.55-8.63-9.21-14.62-17.24-17.07a38.24,38.24,0,0,0-6.39-12.42.43.43,0,0,0-.14-.19c-3-2.57-4.08-2.19-8.12-2.19-1.85,0-4.18-.41-6.08,0a.64.64,0,0,0-.2,0,36.12,36.12,0,0,0-5.86.09l-37.54-18.84a.57.57,0,0,0-.48-.73c-.47-.09-.95-.15-1.43-.23l-23.92-12a.61.61,0,0,0-.5-.68c-.47-.1-.95-.17-1.42-.26l-1.63-.76-.74-.45a.69.69,0,0,0-.43-.09c-3.85-1.8-7.9-3.94-9.61-7.61-.75-2.4-1.23-6.41-2.8-8.62q-.15-8.94-.29-17.88c-.12-7-1.29-14.81-.36-21.72.37-2.72,4.06-6.34,4.17-9.74a.79.79,0,0,0,.22-.31,7.55,7.55,0,0,0,.25-5.41,5.19,5.19,0,0,0-1.45-2.07,8.37,8.37,0,0,0-1.81-.7c.11-.19.24-.4.21-.5-.47-1.87.9-3.73-.09-5.9-.93-2-2.71-3.08-4.63-4-.17-19.15-8.25-39.26-18.69-54.91a110.81,110.81,0,0,0-9.54-12.31l-.08-.09a123.8,123.8,0,0,0-33.62-26.34c-2.34-1.27-4.73-2.45-7.14-3.59l-.86-.79a.67.67,0,0,0-.9,0A160.72,160.72,0,0,0,779,10.73c-.41-.32-.82-.64-1.25-1a.59.59,0,0,0-.92.25c-2.69-.85-5.41-1.65-8.14-2.38-4.52-1.21-9.3-3-14-3.15.45-.45,1-1.06,1.69-1.89A.72.72,0,0,0,756,1.42c-3.1-.53-6.48-1.66-9.6-1.37a54.93,54.93,0,0,0-7.15,1.67l-33.33,7.8-81.41,19c-6.48,1.52-13.06,2.55-19.12,5.31a.71.71,0,0,0,0,1.22l1.32.7q-3.76.84-7.5,1.74a105.9,105.9,0,0,0-10.84,3.24,1.27,1.27,0,0,0-.18.06q-4.86,1.76-9.49,3.93a.75.75,0,0,0-.31.1l-.31.2a105.75,105.75,0,0,0-28,19.49,37.53,37.53,0,0,0-8.74,9.57c-.89,1.1-1.75,2.22-2.6,3.36l-.15,0a.66.66,0,0,0-.48.82A107.89,107.89,0,0,0,526.82,98a.55.55,0,0,0-.19.42c-1,2.37-2,4.78-2.91,7.25-1.36,3.8-2.51,7.67-3.51,11.58a.71.71,0,0,0-.2.82c-.63,2.55-1.21,5.11-1.72,7.69q-8.77-.56-17.56-1.26c.3-.47.6-.94.89-1.43a.71.71,0,0,0-.43-1L111.69,47.48,1.83,26.46a1,1,0,0,0-.17,0h0a.8.8,0,0,0-.15,0,.64.64,0,0,0-.54.65V62.91S1,63,1,63a.56.56,0,0,0,.5.6l1.5.25,16,39.4-7.7-.93q-.84-2.24-1.69-4.46L2.72,79.7c-.32-.84-1.69-.48-1.36.38,2.78,7.36,5.63,14.71,8.49,22l-.63-.07c-2.08-.26-5.05-1.2-7.13-.87a3.65,3.65,0,0,1-.91-.11.63.63,0,0,0-.34.06c-.46-.08-1,.27-.8.84Q2.5,109.06,5,116.13a9.79,9.79,0,0,0-2.35,0,4.69,4.69,0,0,1-1-.12c-.9-.1-.89,1.31,0,1.42l3.93.45q1.8,5.19,3.61,10.39c-2.16-.33-5-1.13-7-.79a3.89,3.89,0,0,1-.95-.1c-.9-.1-.89,1.31,0,1.41l8.52,1q1.82,5.25,3.64,10.49.84,2.4,1.76,4.82l-5-.5c-1.22-.12-2.65-.42-4.07-.64-1.2-3.43-2.41-6.85-3.6-10.29-.3-.85-1.67-.48-1.37.38l3.4,9.73a10,10,0,0,0-2.26,0,4.55,4.55,0,0,1-1-.1c-.9-.09-.89,1.32,0,1.41l3.89.39Q8.74,156,12.43,166.51c.18.52.34,1.05.51,1.58l-.62-.05c-2.49-.22-5.71-1.06-8.2-.7a4.71,4.71,0,0,1-1.05-.09c-.9-.08-.9,1.34,0,1.41l10.34.88a81.07,81.07,0,0,1,.42,43.7l-12.08-.66a.59.59,0,0,0-.6.35.63.63,0,0,0-.1.35v7.35Q.9,258.94.76,297.25q.17,5.65.32,11.31.12,20.37.25,40.75a.7.7,0,0,0,.11.37A.61.61,0,0,0,2,350l61.73-2.59L212,341.21l179.39-7.53,155.14-6.51L598,325l15.78-.66c2.55-.11,5.82.29,8.3-.35a3.72,3.72,0,0,1,1-.05c5.81,2.69,12.41,4.1,18.61,5.53,22.61,5.21,45.87,7.74,69,9.61,42.78,3.44,85.74,3.51,128.64,4.06q42.35.54,84.7.82c9.57,0,19.14.11,28.7,0H953l.08,0,.05,0,6.5-2.52a.71.71,0,0,0,.52-.68q-1.61-15.88-3.23-31.76s0-.05,0-.08q.75-21.85,1.51-43.71V259A27.75,27.75,0,0,1,960,247.32c.33,1.33.88,2.68,1.13,4.2a97.66,97.66,0,0,1,1.2,16v71.82a.71.71,0,0,0,.9.68l16-6.2.06,0a.63.63,0,0,0,.46-.64V306.38l18.23-1.5a.72.72,0,0,0,.71-.71V280.82c0-1.91.17-1.81.89-3.4A9.15,9.15,0,0,0,1000,273.5Zm-6.86-6.69.64.05.12,0,.89,0c.74,0,1.49,0,2.23,0l.48,0c.76,1.47.8,4.07,1,6h-15a14,14,0,0,0-3.48,0h-.19v-.17c.43-2,0-4.54,0-6.66,4.44.3,8.89.66,13.33.85Zm-39.39-31.92c-5.66,4.55-5.79,16.45-5.64,22.74-1.72-.1-3.45-.18-5.17-.26-.77-7.23-.39-17.41,6-21.76A11.2,11.2,0,0,1,953.72,234.89Zm-22.17-2.23a26,26,0,0,0-4.93-3.39l2,.09,2.56,1.56c5.68,3.47,9.49,8.19,10,15.43a.7.7,0,0,0,.25.48,42.75,42.75,0,0,0-.16,7.49,11.08,11.08,0,0,0,.14,1.94c0,.35.06.7.1,1.05l-1,0C941.34,249,937.62,238.37,931.55,232.66Zm-95.76-5.54,3.56.06c5.89,7.45,8.57,17.57,8.66,26.88l-4.79-.16A50.16,50.16,0,0,0,835.79,227.12Zm-65-1.14,7.25.12c2,8.39,2.44,17.05,2.83,25.74l-7-.23C774.1,242.72,772.63,234.39,770.77,226Zm-6.27-.09,4.82.07c1.87,8.4,3.36,16.74,3.14,25.6l-6.68-.22A157,157,0,0,0,764.5,225.89Zm-12-27.73c.28,3.68.57,7.36.85,11l-3.34,0c0-3.67,0-7.33,0-11ZM750,196.89c0-3.35,0-6.69,0-10h1.52c.26,3.34.51,6.69.77,10Zm156.24,21.42,14.7,9.25-.94,0c-.39-.25-.77-.51-1.17-.75l-20.8-13,1.14.07Zm-4-4.21,1.63.16,9.31,5.68L926,227.77l-2.14-.09-.93-.57Zm15.35,13.32-.64,0c-.41-.27-.82-.56-1.24-.82L905.36,220C909.42,222.47,913.62,224.85,917.57,227.42Zm-16.29-8.34c4.35,2.77,8.82,5.41,13.18,8.21l-1.52-.06c-4.61-3.22-9.57-6.08-14.06-9-2.4-1.58-4.81-3.14-7.21-4.71l.85,0ZM895,217.35c4.93,3.24,10,6.41,14.86,9.76l-2.56-.08c-.19-.13-.38-.27-.57-.39l-20.11-13.29,2.32.06Zm-134.33-6.63c.84,4.56,1.58,9.15,2.18,13.74l-7-.11q-.52-6.85-1.06-13.72Zm-6-1.5c-.29-3.68-.57-7.37-.86-11.05l4.38,0q1.15,5.52,2.21,11.12Zm5-11,3.26,0q1.29,5.58,2.57,11.17l-3.63-.06C761.19,205.6,760.45,201.88,759.69,198.2Zm4.72,0,4.14,0q2,5.61,4,11.21l-5.53-.08Q765.7,203.83,764.41,198.24Zm113,13.62-1.19,0-17.44-11.67,1.43,0Zm-14.6-11.62,1.54,0L882.05,212l-2-.06Zm10.74,11.49-.5,0-4.76-3.5Zm-3-.1-.58,0-15.51-11.55h.38Zm-3-.1-1.91-.07-15.45-11.52L852,200Zm-4.36-.15-2.54-.07L845.2,199.79l2.46.07Zm-5-.13-2.89-.08-14.59-11.52,2.09.07Zm-5.24-.15-2.38-.06q-7.29-5.78-14.6-11.53l2.39.07Zm-4.72-.13-1.47,0-13.84-11.52.7,0Zm-3.73-.09-2.62-.06-12.55-11.51,1.3,0Zm-4.77-.11-3-.07-12.31-11.52,2.78.06Zm-5.15-.12-3.13-.07-12-11.51,2.85.07Q828.39,204.89,834.53,210.65Zm-5.22-.11-3.82-.08L814.55,199l2.73.07Zm-5.81-.13-2.3,0-10.27-11.49,1.63,0Zm-4.23-.08-1.69,0-2.44,0q-4.77-5.75-9.53-11.48l3.39.07Zm-6-.12-4.69-.09-8.37-11.44,3.54,0Zm-6.46-.12-4.9-.09-7.63-11.41,4.17.06Zm-6.61-.12-3.46-.06-7.06-11.39,2.88,0Zm-5.14-.1-3.47-.06-6-11.35,2.43,0Zm-5.08-.09-5-.09q-2.68-5.66-5.36-11.31l4.34.05Zm-6.57-.12-4.09-.06Q777,204,774.61,198.33l3.45,0Q780.75,204,783.42,209.66Zm-5.62-.08-3.79-.06-4-11.23,3,0Q775.45,203.95,777.8,209.58Zm-4.8,1.31q1.63,4.68,3.29,9.36c.52,1.47,1,3,1.37,4.46l-7.21-.12c-.56-2.52-1.16-5.06-1.75-7.62l-1.41-6.16Zm1.5,0,3.89.05,3.5,8.36c.77,1.82,1.43,3.65,2,5.49l-4.74-.08c-.38-1.41-.8-2.8-1.28-4.18Q776.19,215.75,774.5,210.92Zm9.06,8.77q-1.81-4.35-3.64-8.69l4.16.06,4.31,9.09c.75,1.58,1.41,3.17,2,4.77l-4.94-.08C784.9,223.11,784.28,221.39,783.56,219.69Zm6.69,1.09q-2.31-4.84-4.6-9.69l5.08.08,5,9.49c.8,1.52,1.6,3,2.33,4.39L792,225C791.48,223.55,790.9,222.15,790.25,220.78Zm7.39.42-5.3-10,3.59.06,4.74,7.64c1.31,2.13,2.64,4.15,3.8,6.26l-4.83-.08C799,223.82,798.36,222.56,797.64,221.2Zm5.11-1.62-5.14-8.29,3.52.06,3.45,5.16c1.94,2.9,4.09,5.77,5.95,8.75l-4.52-.07C805,223.32,803.94,221.5,802.75,219.58Zm4.13-2.17-4-6,5,.09,4.5,6.14c1.89,2.59,3.83,5.17,5.7,7.78l-5.92-.1C810.51,222.58,808.64,220,806.88,217.41Zm7.79,1-5.07-6.92,4.83.09,3.48,4.2c2.65,3.2,5.72,6.32,8.17,9.72l-4.75-.08-1.49,0C818.21,223.13,816.36,220.74,814.67,218.43Zm6.14-1.34c-1.51-1.82-3-3.64-4.52-5.45l4.22.08,3.66,4.09c2.89,3.23,6.21,6.37,8.88,9.82l-5.26-.08C825.8,222.55,823.1,219.84,820.81,217.09Zm6.32-.09-4.69-5.24,2.4.06,4.76,5c2.81,3,5.83,5.81,8.51,8.89l-3.3-.05C832.6,222.57,829.65,219.82,827.13,217Zm5.46.91-5.76-6,3.95.09,4.38,4.19c3.3,3.16,7.22,6.21,10.31,9.67l-5.51-.08C837.7,223,835,220.49,832.59,217.91Zm5.74-.69L832.88,212l3.17.07,4.94,4.62c3.27,3.06,6.87,6,10,9.2l-3.69,0C844.74,222.71,841.24,220,838.33,217.22Zm5.84.51-6-5.61,3.07.08,5.38,4.93c3.22,3,6.35,5.84,9.23,8.82l-2.82,0C850.27,223,847.06,220.44,844.17,217.73Zm5.63.4-6.41-5.87,2.8.07,5.28,4.4c3.73,3.1,7.79,6.05,11.43,9.32l-5.09-.07C855.32,223.3,852.62,220.72,849.8,218.13Zm5-.48-6.33-5.26,1.56,0,5.59,4.41c3.94,3.11,8.12,6.08,12,9.28l-2.63,0C861.83,223.07,858.13,220.43,854.79,217.65Zm4.24.1-6.66-5.26,2.37.06,7.45,5.89c3.3,2.6,6.67,5.14,10,7.76l-2.16,0C866.5,223.2,862.58,220.55,859,217.75Zm5.73.93-7.67-6.05c1,0,2,.06,3,.09l5.54,4.15c4.21,3.15,8.65,6.17,12.82,9.44l-3.81-.07C871.43,223.6,867.94,221.19,864.76,218.68Zm4.85-.59-7.07-5.3,2.56.08,7.83,5.84,10.33,7.69-2.45-.05C877.21,223.45,873.28,220.84,869.61,218.09Zm7.13,1.71-9.19-6.86,1.91.06,6.38,4.76c3.73,2.78,7.76,5.64,11.62,8.73l-1.38,0C883,224.11,879.67,222,876.74,219.8Zm3.06-.84-7.89-5.88h.6l7.78,5.72c3.44,2.53,7.07,5.07,10.61,7.76l-1.28,0C886.39,223.86,883,221.36,879.8,219Zm4.36,1L875,213.16h.7l8.45,5.66c3.92,2.62,8,5.15,12,7.86l-3-.07C890.17,224.31,887.13,222.1,884.16,219.92Zm-5.88-6.7,1.13,0,8.39,5.69c3.79,2.58,7.84,5.14,11.79,7.87l-1.07,0a2.2,2.2,0,0,1-.25-.17Zm3.7.06,2,0,8.62,5.69c4,2.61,8.11,5.19,12.1,7.95l-2.74-.08Zm7.71-1.09q-8.88-5.81-17.8-11.56l.39,0,18.19,11.55Zm-2.68-.06-2.29,0L867,200.38l2,.09Q878,206.28,887,212.13Zm-17.31-12.9q-5.69-3.66-11.37-7.3h.24l11.49,7.31Zm-2.79-.12-1.92-.06-.42-.28-10.85-7.17,1.67.12C859.24,194.17,863.07,196.65,866.91,199.11ZM862.3,199l-1.48,0-1-.69-10.2-6.92,1.23.09Zm-4.12-.13-1.42-.05h-.08l-.68-.45-11-7.33,1.77.13Zm-5.31-.19-.37,0L842,190.8l.24,0Zm-2.84-.1-1.9-.07-10.65-7.95,2,.12Zm-4.36-.16-2.47-.08-10.8-8.1,2.51.16Zm-4.9-.15-2,0L828.38,190l1.47.09Zm-4.32-.12-2.38-.06-10.64-8.41,2.49.16Zm-4.72-.13h-.61l-10.18-8.47h0Q826.35,193.75,831.73,198Zm-2.87-.06-1.13,0-9.29-8.53h.15Zm-3.26-.07-2.75-.06-9.29-8.69,2.66.14Zm-4.86-.1-2.81-.06-9.24-8.85,2.68.14Zm-4.89-.1-2.59,0-8.55-9,1.81.09Zm-4.57-.08-1.54,0-8.13-9.09,1,.06Zm-3.47,0-3.28-.06-7.66-9.23,2.75.12Zm-5.13-.08-3.4-.05L792.43,188l2.58.11c0,.05,0,.09.07.13Zm-5.16-.07-4.08-.05-6.38-9.53,3.57.16Zm-5.8-.07-2.81,0-6-9.65,2.38.11Q788.52,192.51,791.72,197.3Zm-4.48-.06-2.32,0-5.16-9.74,1.46.06Q784.22,192.39,787.24,197.24Zm-3.93-.05-4.27-.06-4.67-9.84,3,.07.77,0Zm-5.84-.08-3.39,0q-2.07-5-4.15-9.9l2.86.07Zm-4.91,0-2.94,0-3.51-10,2.29.06Zm-4.44,0-4,0-2.28-10,2.77,0Zm-5.45,0-3.24,0q-1.06-5-2.13-10l3.08.05Q761.52,192,762.67,197ZM758,197l-4.21,0-.78-10,2.86,0C756.56,190.24,757.28,193.58,758,197Zm-4.57,13.66q.52,6.85,1.06,13.71l-4.57-.07.06-13.68Zm1.17,15.12,1.95,25.3-6.74-.22q0-12.57.1-25.15Zm1.41,0,7.08.1a154.5,154.5,0,0,1,1.29,25.43l-6.41-.21Q757,238.42,756,225.76Zm8.33-1.27c-.6-4.6-1.34-9.19-2.17-13.75l3.69,0,1.29,5.65c.63,2.73,1.27,5.43,1.88,8.13Zm15.21,1.64,4.83.08c2.56,8.38,3.64,17,4.42,25.89l-6.52-.22C781.88,243.24,781.56,234.51,779.53,226.13Zm6.37.1,5,.09c2.9,8.34,4,17,4.75,26l-5.45-.18C789.43,243.31,788.44,234.62,785.9,226.23Zm6.61.11,6.27.11A27.63,27.63,0,0,1,801,232.8a156.37,156.37,0,0,1,2.52,19.78l-6.42-.21C796.3,243.45,795.38,234.68,792.51,226.34Zm10,7.16a29.89,29.89,0,0,0-2.25-7l4.91.08a27.88,27.88,0,0,1,2.09,5.36,112.44,112.44,0,0,1,3.2,20.9l-5.59-.18A170.52,170.52,0,0,0,802.54,233.5Zm6.56-.19a33,33,0,0,0-2.4-6.73l4.69.08c.05.09.11.17.16.25,4.33,7.58,6.34,17.49,7.4,26.18l-7-.23A127.19,127.19,0,0,0,809.1,233.31Zm5.18-3.8c-.41-1-.88-1.9-1.37-2.82l6.15.11c.07.1.14.19.2.29,5.35,7.67,7.31,17,7.28,26.25l-6.18-.2A89.06,89.06,0,0,0,814.28,229.51Zm6.86-2.2c-.1-.16-.22-.32-.33-.47l6.24.11c4.68,7.29,7,18,7.37,26.65l-6.46-.21C828,244.33,826.18,235,821.14,227.31Zm7.55-.32,5.42.1c5,7.21,7.86,18,7.69,26.76l-5.61-.19h-.35C835.45,244.8,833.29,234.76,828.69,227Zm12.42.23,5.63.1c5.38,6.9,7.47,18.21,7.66,27l-5-.17C849.34,244.74,846.72,234.88,841.11,227.22Zm7.41.14,4,.09.28.3c6.32,7,8.87,17.59,8.89,26.78l-5.89-.2C855.65,245.53,853.78,234.78,848.52,227.36Zm5.92.13,2.92.06c6.78,7.39,11.77,15.6,12.28,27.25l-6.52-.22C863.1,245.31,860.59,234.75,854.44,227.49Zm4.82.1,5.42.12c7,6.83,11.17,17.65,11.05,27.3l-4.67-.16C870.57,243.5,865.86,235.11,859.26,227.59Zm7.42.17,3,.06c.43.37.86.74,1.28,1.12,7,6.31,11.81,17,12.11,26.33l-5.91-.21A40.8,40.8,0,0,0,866.68,227.76Zm5.73.56-.48-.45,2.34,0,1.67,1.37c7.4,6.29,11.12,16.74,12.82,26.18l-1.83-.06-2.46-.09A41.64,41.64,0,0,0,872.41,228.32Zm6.56,1.84c-.73-.75-1.51-1.48-2.3-2.19l4,.09.79.64c7.38,6.29,12.06,17.26,12.89,27l-1.73-.07-2.4-.08C888.65,246.64,885.28,236.71,879,230.16Zm4-2,2.68.06,1.18.88c8.09,6.13,11.91,17,13.32,26.82l-4.38-.15C894.92,245.89,890.33,234.7,882.94,228.11Zm8.52,3.17a34.12,34.12,0,0,0-3.18-3.05l1.33,0c8.67,7.3,16,16,16.6,27.83l-4.67-.16C900.32,247.33,897.32,237.78,891.46,231.28Zm.23-3,1.49,0c9.15,7.25,17.15,15.74,18.64,28-1.4-.05-2.79-.11-4.19-.15C907.1,244.41,900.08,235.65,891.69,228.31Zm3.64.08,3.27.07c9.35,6.79,17.1,14.92,17.61,28l-3-.1C911.79,244.17,904.2,235.67,895.33,228.39Zm5.65.12,1.08,0c9.72,7,18.25,15.41,19.71,28.11l-4.15-.15C917.16,244.31,910.22,235.35,901,228.51Zm3.46.08,2.7.07c9.55,7,17.67,15.29,19,28.13l-3-.09C921.81,244.63,913.84,235.48,904.44,228.59Zm5.29.13,2.59.07c1.44,1,2.88,2,4.28,3.1,7.71,5.87,12.66,15.49,14.21,25.05l-3.26-.1C926.32,245,919,235.59,909.73,228.72ZM921,233.83a50.57,50.57,0,0,0-5.8-5l1.74.05c.86.58,1.74,1.14,2.59,1.74,8.19,5.75,13.58,16.32,14.11,26.36l-1.39,0C931,248.57,927,239.85,921,233.83ZM919.18,229l.78,0c9.36,6.48,16.74,14.44,16.45,28.1l-1.36-.05C934.48,245.34,928.15,235.79,919.18,229Zm3.17.11,1.14,0,4.39,2.76c7.56,4.76,12.24,16.43,11.26,25.31l-1.32-.05C938.11,244.44,931.66,235.78,922.35,229.11Zm9.56.4,1.88.09c3.82,2.5,7.08,5.49,8.87,10.35a.69.69,0,0,0,.4.42,20.3,20.3,0,0,0-1,2.78C940.68,237.08,936.73,232.92,931.91,229.51Zm7.14.39c3.06,1.51,6.13,3,9.25,4.27l.08,0a8,8,0,0,0-1.07.64,6,6,0,0,0-2.26,2.23,13.85,13.85,0,0,0-1.28,1.88,19.59,19.59,0,0,0-7.39-9.2Zm-3.16-1.59-1.86-.1c-1.85-1.13-3.86-2.24-6-3.54l-5.76-3.49C926.8,223.55,931.32,226,935.89,228.31Zm-26.63-13.37,15.25,9.25c2.27,1.38,4.58,2.59,6.77,3.87l-1.67-.09c-3.9-2.47-8.16-4.62-12-7l-10.38-6.34C907.89,214.74,908.57,214.83,909.26,214.94Zm-3.49-2.12h0l.56.35c-.63-.08-1.26-.16-1.9-.22l-7.33-4.48ZM883.85,202l17.46,10.67-1.48-.11-17.07-10.74Zm-3.44-1.92-.53-.08-1.41-.89Zm-1.13,1.22,17.66,11.11-1.14-.06-18-11.22Zm-4-1.77-.84-.53-10.79-6.73,1.48.1,11.59,7.3Zm-4-6.71c1.16.54,1.73,2.48,3.12,3.72l-6.29-4c.29,0,.66,0,1,0,.68.07,1.37.13,2.05.21Zm-.29-1.46A1209.6,1209.6,0,0,0,749.4,185.1h-.07l-4.25,0a.74.74,0,0,0-1,0h-2.39a.7.7,0,0,0-.84,0h-3.65a.74.74,0,0,0-.83,0h-6.7a.81.81,0,0,0-.68,0l-3.44,0a.61.61,0,0,0-.51,0H722.9a.67.67,0,0,0-1.11,0l-3.2,0a.69.69,0,0,0-1,0c-3.65,0-7.31.11-11,.18a.57.57,0,0,0-.26,0q-9.35.18-18.7.42a.71.71,0,0,0-1,0l-.07.07-4.16.11a.65.65,0,0,0-.53,0q-8.91.24-17.83.51c-9.82.29-19.64.62-29.45,1.1h-.14c-1.41.07-2.83.13-4.24.21-6.36.35-13.35.22-19.58,1.83l-.25,0a4.77,4.77,0,0,1-1.27-.59c-.39-.3-.79-.58-1.22-.85-.56-.42-1.1-.84-1.54-1.12l-6-3.83c.84-.07,1.68-.18,2.42-.22l16.21-.8L662.17,180c12.25-.6,24.5-1,36.75-1.33a.77.77,0,0,0,.56,0l8.43-.2,1.72,0h0l4-.06a.81.81,0,0,0,.63,0l3.24,0h0a.87.87,0,0,0,.28,0l4.15-.06a.78.78,0,0,0,.7,0l1.61,0,1,0h1.46l2.78,0a.77.77,0,0,0,1,0q16.37-.13,32.72,0a.78.78,0,0,0,.6,0q10.65.06,21.3.18a.75.75,0,0,0,1,0h1.5q6.15.08,12.32.19h0c12.59.23,25.17.61,37.74,1.36l2.83.16h0c2.9.14,5.9.26,8.91.45a.77.77,0,0,0,.63,0,69.23,69.23,0,0,1,17.61,3C869.82,185.1,870.19,188.46,871,191.39Zm-137.34,58.9-6.17-.19a187.53,187.53,0,0,1,1.79-24.75l1.76,0,3.73.06A142,142,0,0,0,733.63,250.29Zm-15.2-.48-6.3-.2c-1.29-8.25,0-16.54,2.47-24.48l5.56.09C718.37,233.3,717.43,241.67,718.43,249.81Zm-7.72-.25-6-.19c0-7.92,0-16.8,2.68-24.34l5.7.08C710.73,233,709.52,241.47,710.71,249.56Zm-7.41-.24-5.62-.17c-.33-8.26.27-16.77,4.11-24.2l4.12.06C703.38,232.56,703.29,241.45,703.3,249.32Zm-7-.22-5.9-.19c0-8.17.34-17.14,5.08-24l4.72.06C696.46,232.29,695.94,241,696.27,249.1Zm-14.07-.45-6.48-.21c-.13-9.48,2.59-16.8,6.76-23.77l4.24.06C682.82,231.75,681.77,240.75,682.2,248.65ZM662,248l-5.68-.17a32.79,32.79,0,0,1,7-23.41l4.1.05C662.08,230.92,661.45,240,662,248Zm-7.1-.22-5.42-.17c1-7.05,2.29-16.13,6.59-22,.33-.45.69-.89,1.05-1.33l4.35.06c-.22.29-.44.58-.65.88A34.28,34.28,0,0,0,654.87,247.78Zm-6.77-.21-4.76-.15c.64-8.12,3.41-16.95,8.78-23.15l3.19,0c-.37.49-.72,1-1,1.48-3.82,6.21-5.21,14.39-6.2,21.51A.78.78,0,0,0,648.1,247.57Zm-22.89-.72-1.21,0a45.45,45.45,0,0,0,.89-5.11,11.49,11.49,0,0,0,.23-1.2,53,53,0,0,0,0-9.51c0-.2,0-.39-.07-.59l49.82-42.74,2.47-.07-31.21,26.62C635.85,223,624.15,231.55,625.21,246.85Zm35.24,14.78-23.84-.81a.75.75,0,0,0-.87,0l-6.26-.22a.77.77,0,0,0-1,0l-4.67-.16v-6c2.75,1,8,.51,10.07.65,9.92.63,19.86,1.07,29.79,1.5v5.26Zm3.25,1.52V296l-7.35-.57V262.9Zm-8.76-.3v32.5l-6.2-.49.72-32.19Zm-6.89-.23-.72,32.13-4-.32v-32Zm-6.18-.21v31.91l-5.76-.47q.36-15.81.71-31.61Zm-6.46-.22q-.36,15.76-.71,31.55l-5-.42V262Zm-11.69,15.58q0-8,.08-16l4.47.15v31.27l-4.53-.37c0-.19-.06-.49-.08-.86v-.63C624.05,286.89,623.7,282.24,623.72,277.77Zm0-56.37c-.12-.58-.24-1.16-.37-1.74L659,188.27l3.39-.14-29.32,25.23-7.47,6.43A19.23,19.23,0,0,0,623.73,221.4Zm-49.49,8.88c-1.31-4.43-2.78-9.91-5.92-13.57l3.11.26c2.68,3,3.71,7.12,4.82,10.95a166.19,166.19,0,0,1,3.81,16.49l-2.42-.13h0C576.74,239.56,575.6,234.88,574.24,230.28Zm-31.4-15.74,2.9.25c8.2,6.7,11.06,18.12,12.16,28.4l-4.72-.26A38.26,38.26,0,0,0,542.84,214.54Zm-9.92-.84,1.46.13.46,0c8,7,12.23,18.09,12.19,28.74l-2.56-.15a.52.52,0,0,0,0-.14C544.3,232.22,540.14,221,532.92,213.7Zm-77.23-6.41-.15-.17,3.49.3c7.55,7.73,11.54,20.24,11.32,31l-3.89-.21s0,0,0-.06C465.57,227.6,462.66,215.45,455.69,207.29Zm-23.86-2.18,4,.34c8.24,8.25,11.4,20.1,11.84,31.68l-5.35-.3v0C443.56,225.6,439.3,213.54,431.83,205.11Zm-6.92-.59,4.67.4c7.91,8.46,12.6,20.14,11.35,31.83l-5.31-.29A39.41,39.41,0,0,0,424.91,204.52Zm-4.81,3c-1-1.27-2-2.49-3.09-3.67l5.56.47c8.39,8.56,13.21,19.76,11.65,32.06l-2.94-.16C434.87,227.14,424.81,213.65,420.1,207.52Zm-9.44-4.21,4.45.38a62.58,62.58,0,0,1,13.4,20.85c1.15,3.14,2.79,8.19,1.27,11.6l-4.35-.24C426.17,222.88,419.2,212.43,410.66,203.31Zm-5.31-.45,3.42.29c8.44,8.41,15.84,20.32,15.24,32.67l-5.41-.3h0C419.53,222.41,413.39,212,405.35,202.86Zm-1.41,3a34,34,0,0,0-3.16-3.37l3.12.27c8,8.32,14.1,21,13.29,32.71l-5.19-.29C412.2,225.29,410.23,213.66,403.94,205.84Zm-29.49-5.61,4.94.42c8.44,8.66,13.05,21.6,13.45,33.46l-6.86-.38C389.31,220.89,382.86,209.65,374.45,200.23Zm-19.58-1.66,3.13.26c8.7,9,13.58,21.76,14.31,34.15l-5.2-.29C369.57,221.78,361.59,206.85,354.87,198.57Zm2.24,19.86c-1.8-6.64-4.62-14.66-8.82-20.42l4.43.37a60.7,60.7,0,0,1,10.36,18c1.82,4.75,3.82,11.06,2.6,16.28l-6.59-.36A45.09,45.09,0,0,0,357.11,218.43Zm-22.38-21.58,6.33.54c7.68,9.18,11.37,22.81,11.47,34.5l-7-.39C346,219.45,342.63,206.16,334.73,196.85Zm-7.51-.43-.27-.23,5.63.48c8.28,9.39,12,22.25,11.48,34.75l-6.08-.33C338.23,219.77,336.63,203.89,327.22,196.42Zm-9.67-1,6.39.55a28.7,28.7,0,0,1,3.86,2.91c3.65,3.71,5.52,9,6.74,13.9a71.44,71.44,0,0,1,2,18.26l-7.24-.4A42.77,42.77,0,0,0,317.55,195.39Zm-13.76-1.16,5.38.45c8.16,9.76,11.7,22.89,11.53,35.46l-6.14-.34C315.31,217.27,312,204,303.79,194.23Zm-8.19-.7,6.15.52c8.7,9.57,12.14,23,11.4,35.67l-6.36-.35C307.6,217.11,303.12,203.41,295.6,193.53Zm-7-.6,5,.43c7.75,9.36,12.54,23.66,11.76,35.93l-7.4-.41C299.76,216.14,297,202.93,288.59,192.93Zm8,35.88-7.21-.4c1.65-12.34.3-26.23-8.33-35.91l-.2-.22,5.68.48c8.68,9.94,11.94,23,10.06,36Zm-22.12-37.08,4.17.36c9.13,9.94,11.15,23.12,9.34,36.24l-5.77-.31C283.15,216.15,281.23,202,274.47,191.73Zm-9-.76,7.17.61c7,9.61,9.11,24.52,8.19,36.36l-5-.28C277.45,215.4,272.1,201.18,265.44,191Zm-7.88-.67,6.1.51c6.88,9.46,12.43,24.89,10.74,36.78l-7.7-.43C267.61,215.19,264.15,200.69,257.56,190.3Zm-8.59-.73,6.73.57c6.83,9.78,10.47,25.1,9.59,37l-4.93-.28C262.23,213.56,256.51,200.63,249,189.57Zm-7.48-.55s0-.06-.06-.1l6.25.54c6.83,9.61,13,25.13,11.27,37.28l-8-.44C253.24,213.94,247.76,199.51,241.49,189Zm-10.74-1,9,.76c6.6,9.62,12.09,25.6,9.8,37.44l-8.83-.49C241.58,213.25,237.46,198.77,230.75,188Zm-6-.52,4.23.36c7.12,10.55,11.19,25.44,10.35,37.79l-5.05-.27C235.46,212.7,231.77,198.32,224.72,187.5Zm-8.19-.69,6.33.54c7.24,10.61,11.18,25.12,10,38l-10.21-.56C225.31,211.69,224.06,197.75,216.53,186.81Zm-9.22-.79.67.06,6.69.57c7.82,11.18,9.35,24.62,6.54,38l-5.32-.29C218.15,211.21,214.67,197,207.31,186Zm-8.93-.75,7.08.6c7.48,11.14,11.41,25,9,38.42l-8.07-.45C207.16,210.71,205.42,196.64,198.38,185.27Zm-9.28-.79,7.49.63c7.3,11.38,9.16,25.35,8.41,38.66l-7.63-.42C198.6,210,196.08,196,189.1,184.48Zm-9.39-.8,7.6.64c7.2,11.56,9.88,25.45,8.65,39l-7.46-.41C189.33,209.12,187.16,195.34,179.71,183.68Zm-7.94-.68,6.16.53c7.67,11.7,10,25.34,9.17,39.25l-8.62-.47C180.55,209.82,177,194.45,171.77,183Zm5.34,39.23-8.68-.48c2.78-12.21-2-26.49-6-37.92-.2-.57-.42-1.13-.67-1.68l8.41.72a66.26,66.26,0,0,1,3.4,9.9c2.8,9.34,5.16,19.54,3.51,29.3A.42.42,0,0,0,177.11,222.23Zm-19.35-16a147,147,0,0,0-4.26-19.89,40.14,40.14,0,0,0-1.72-5l8.57.73c1.94,4,3.11,9.36,4.27,13.76,2.14,8.17,4.37,17.47,2.39,25.88l-9.75-.53C159,216.46,158.39,211,157.76,206.18Zm-14.31-25.46-.06-.13,7.15.61c2.16,5.06,3.16,11.11,4.3,16.46,1.47,7,3.9,16.49.93,23.4l-7.69-.43C151,207.92,148.21,192.69,143.45,180.72Zm-8.94,1.5a20.06,20.06,0,0,0-.79-2.45l8.16.69a71.06,71.06,0,0,1,3.33,11.31c2.26,9.33,3.68,19.32,1.44,28.78l-7.56-.41-1.52-.09C141.22,208.38,137.32,193.67,134.51,182.22Zm-20.19-1.93a19,19,0,0,0-.62-2.22l8.51.72c5.16,11.2,8.48,28.47,4.86,40.69L117.9,219C119.57,206.27,116.9,192.7,114.32,180.29Zm-12.22-3.21,10.32.88c1.51,4.33,1.89,9.54,2.6,14,1.38,8.77,2.69,18.06,1.48,26.93l-8.59-.47C111.39,204.3,107.75,190.16,102.1,177.08ZM97,202.41a142.38,142.38,0,0,0-6.36-26.3l10.14.86c5.73,12.42,9,28,5.66,41.37l-9.28-.51C98.5,213,97.66,207.16,97,202.41Zm-15.8-27.1L89,176c4,11.77,7.78,24.65,7.3,37.22a20.72,20.72,0,0,1-.53,4.56l-10.26-.56A85,85,0,0,0,81.22,175.31Zm-7,16.94c-.82-5.85-1.66-12.17-3.53-17.83l8.88.75c5.1,12.37,6.66,28.68,4.46,41.94l-9.84-.54C76,208.62,75.38,200.26,74.26,192.25Zm-15-18.81,4.38.37,5.53.47a84.44,84.44,0,0,1,2.37,10.37c2,10.26,3.68,21.51,1.23,31.84L64,216C67.51,201.65,64.26,187.16,59.28,173.44Zm-32.59,6.24c-.43-3.11-.84-6.15-1.54-9.14l10.8.92c4.55,13.38,6.89,29.53,2.54,43.14l-11-.61C29.63,202.78,28.24,190.87,26.69,179.68Zm297.82-58.19a14.33,14.33,0,0,1,3,1.81.64.64,0,0,0,.28.22,4.08,4.08,0,0,0-.24.86c-.28,1.38-1.66,5.21-.64,4.79-.89.37-3.19-.34-4.12-.44L287.16,125c-4.78-.51-4.91-.11-8-2.89l-12-10.86c3-1.44,5.35-3,7.95-2.65l36.64,6a23.83,23.83,0,0,1,4.9,2.19Zm-6-5.78L320,116l2.4,2.21C321.13,117.29,319.84,116.46,318.54,115.71Zm85.54,16.9c1.16.66,3.74,1.55,5.16,2.6l.43.36a3.58,3.58,0,0,1,.27.29c-.12.45-.41,1.22-.38,1.15a7.88,7.88,0,0,0-.25.9.64.64,0,0,0-.08.36c-.12.54-.23,1.1-.39,1.62a.66.66,0,0,0-.24.61,4.68,4.68,0,0,1-.2.45c-.06.11-.11.2-.14.27a7.42,7.42,0,0,1-1.37-.17c-1.94-.38-4-.4-6-.59l-19.34-1.92-.36-.31a.73.73,0,0,0-1.09.17l-9.05-.9L366.81,134l-.15-.13-10.4-9c.76-.61,1.9-1.85,2.25-2,.88-.47-.21-.43,1.73-.24L386.93,127l8.85,1.45C398.66,129.14,401.36,131.09,404.08,132.61Zm-2-3.17.25,0,.34.28Zm147.27,20.2v3.6c-.92-.51-1.84-1-2.77-1.5l-1.33-.77v-1Zm-4.1-1.1v-9.63c.26,0,.89-.23,1.86-.35l2.24-.29v9.95Zm67.13,46.59c.68,1.22,1.34,2.46,2,3.73l-74-47.4,2,.3Zm-58.23-45.87v6.8c-1.12-.68-2.25-1.36-3.39-2v-4.51Zm-3.39-1.15v-10l3.39-.43v10.19ZM558,149v9.41l-1.17-.68-1.24-.77v-7.78Zm-2.41-1.23V137.48l1.08-.14,1.33-.17v10.38Zm6.27.93v12l-2.45-1.42V148.86Zm-2.45-1.23V137l2.45-.32v10.58Zm3.86,14V136.49l.44-.05,2.57-.33v27.08Zm6.85-13.64q.1,8.88.2,17.75L567.67,164V148.16Zm-2.43-1.06V135.93l2.3-.3.12,10.76Zm10.42-.1.09,23.49-2.79-1.62V147Zm-2.7-1V134.94l2.65-.34c0,3.54,0,7.08,0,10.62Zm5,27.81L599.84,185c1.29.76,2.78,1.5,4.28,2.27l.18.11c1.57,1,3.74,3,5.64,3.64.32.52.64,1.05.95,1.58l-38.95-24.13ZM579.49,145q0-5.31,0-10.6l2-.26v10.57Zm1.94,1.13V172c-.61-.36-1.22-.72-1.84-1.07l-.09-24.53Zm3.49-.51-.33,28.22-1.74-1V145.94Zm-2.07-1.11V134l2.21-.28q-.06,5.27-.13,10.52ZM586,174.68l.48-41.16,2.2-.28q-.45,21.24-.91,42.47Zm5.63-29.38q.38,16.55.74,33.09l-3.2-1.87.66-31Zm-1.77-1.21.24-11,1.25-.16q.12,5.49.25,11Zm3.15-.37-.25-11,2.28-.29c.08,3.67.16,7.35.25,11Zm2.31,1.14.81,35.74c-.7-.4-1.46-.87-2.32-1.38q-.39-17-.77-34.09Zm1.38-1.57q-.13-5.52-.25-11l2.12-.27.27,11.06Zm2.18,1.15q.46,18.62.92,37.23l-.62,0a4.74,4.74,0,0,1-1.62-.39q-.42-18.3-.83-36.61Zm1.37-1.57L600,131.79l3.24-.41.12,11.13Zm3.11,1q.21,18.78.41,37.56l-2.55.12-.93-37.32Zm-31.63,22.45q-.11-9.37-.2-18.77l2.46-.36v20.45ZM574,145.82l-2.48.36-.12-10.73,2.6-.33Zm37.75,45.43c.4,0,.8,0,1.22,0-.15.38-.29.77-.44,1.16-.15-.21-.3-.41-.46-.6S611.84,191.43,611.73,191.25Zm5.85,26.87-78.11-54.43L516.93,148l1.61.24,90.75,62.93,12.54,8.69c.13.62.26,1.23.37,1.85C620.59,220.76,618.76,219,617.58,218.12Zm4.91,5.14c.1.59.19,1.18.28,1.77A43.59,43.59,0,0,0,619,222.4l-81.56-57.72-24.41-17.27.75.11L609.22,214Zm-15.79-24.5,10.78,6.94c.4,1,.77,2,1.13,3-.29-.23-.57-.46-.82-.62l-9.34-6.12-64.39-42.18-15.27-10,1.2.18h0l1.07.16Zm-72.25-48.18,2.49.37,78.61,50.35c.25.52.5,1,.73,1.58a2,2,0,0,1,.1.21c.1.22.18.44.28.66-.9-.62-1.82-1.43-2.36-1.78l-9.63-6.19-57.43-37Zm73.28,52.57,11.6,7.6c.16.48.33,1,.49,1.45s.23.79.35,1.18L534.08,155.7l-9.92-6.64,1.29.19Zm12.78,12.16a.59.59,0,0,0,.24.09c.25.92.49,1.85.7,2.78-2-1.09-4.14-3.19-5.75-4.3L542,162.8l-2.85-2L608,206.9Zm1.51-.81c-.17-.6-.36-1.2-.54-1.79l27.55-24,3.2-.15Zm-1-3.26c-.1-.32-.22-.65-.33-1L643.78,189l3-.14Zm12.17-14.4c-4,3.72-9.58,7.43-12.87,11.85l-.13.15c-.24-.66-.48-1.32-.73-2l19.93-17.64,2.18-.12Zm-14.28,8.63,0-.08,15.47-15.87,2.77-.16Zm6.53-8.83-5.58,5.72c-.49.49-1.22,1-1.63,1.46-.1-.22-.19-.45-.28-.67l-.53-1.23L629,189.84l2.57-.16.71,0Q628.83,193.14,625.43,196.64Zm-8.62,3.87-.45-1,7.2-9.28,3.33-.21Zm-1.1-2.49q-.35-.77-.72-1.5l3.68-6c.24,0,.47-.06.69-.07l2.33-.15Zm-1.49-3c-.23-.43-.48-.85-.74-1.26l1-2.71c.79-.1,1.59-.22,2.36-.34Q615.55,192.92,614.22,195.07Zm-70.39-55.23c-.47,2.67,0,5.86,0,8.58v2.17c-.11,0-.23,0-.34,0l-.76-.17-.07,0c-1.7-.35-3.46-.5-5.26-.77h0l-.17,0-2.29-.34-3.41-.5a.62.62,0,0,0-.18,0l-5.42-.81a.46.46,0,0,0-.2,0l-.11,0-4.23-.63a.58.58,0,0,0-.22,0l-2.12-.32a.6.6,0,0,0-.26,0l-4.49-.67a.48.48,0,0,0-.26,0l-3.56-.53a.56.56,0,0,0-.28,0l-3.65-.54a.61.61,0,0,0-.29-.05l-9.17-1.36,1.38-15.12,45.26,10.22.08,0c0,.11,0,.24.06.4ZM601.57,218c.08.05.15.12.22.17L600,218l0,0c-4.71-4.76-11.66-8.39-17.08-12.29l-2.65-1.91.52.07Zm-18-14c.24,0,.47,0,.7,0a2.17,2.17,0,0,1,.75.06l16.19,10.76,5.22,3.75-1.79-.15-.18-.17c-5.94-4.93-13.08-8.88-19.45-13.22Zm-60.87-39.66-.56-.07-6.35-4.63Zm-23.37-19,3.85.57,13.61,11-.68-.45Zm21.42,20.16c.29,0,.59.08.9.14l17.57,12.8-2-.24-17.65-12.84Zm54.75,36.13-2.38-.24-13-9.46c.66.08,1.4.22,2.17.37Q568.89,197,575.48,201.66Zm-2.28-3,4.74,3.21-.31,0Zm-23-9.27-1.49-.17-13.51-9.84,1.49.18Zm-10.67-9.5,2,.23L555,190l-2-.22Zm6.35,9-1.55-.17q-6.78-4.94-13.57-9.86l1.59.18Zm-4.38-.49-2.32-.27L526,178.35l1.9.22Zm-4.83-.55-1.37-.15-13-9.83,1,.11,1.31,1C528.54,182,532.6,184.94,536.67,187.89Zm-3.86-.44-2.3-.26-12.69-9.8,1.68.2,2.11,1.59Q527.16,183.35,532.81,187.45Zm-12.32-6.23q3.71,2.86,7.45,5.68l-2.66-.3-12.75-9.82,2.59.3Zm-42.78-8.49,2.14.25,12.64,9.92-2.36-.27Zm10.1,9.64-2.16-.25-12.39-9.91,2,.24Q481.57,177.4,487.81,182.37Zm-5.62-9.12,1.07.13.57.06q6.36,5,12.69,9.91l-1.86-.21Zm4.05.47,3.63.42,12.74,9.9-3.82-.43Zm5.94.69,2.17.26,12.52,9.85-2.13-.24Zm5,.59,3.56.41,6.49,5q3.15,2.43,6.33,4.83l-1.54-.17-2.25-.26Zm6.25.72,1.68.2,6.09,4.71c2.22,1.73,4.48,3.44,6.73,5.15l-1.8-.21Zm4.37.51,2,.23,4.83,3.73c2.66,2.05,5.35,4.09,8,6.12l-2.16-.24Zm2.54-1.12-16.65-12.83-.05,0,2.68.33L513,175.42Zm-2.7-.31-2-.23L489.3,161.88l-.26-.2,1.91.23Zm-4.68-.54-1.67-.2L485.72,162l-1.05-.82,1.65.2Zm-4.36-.51-2.46-.29-1.08-.12L481,162.28l-2.38-1.87,3.38.41Zm-6.38-.74-2.18-.26-14.88-11.69-1.59-1.25,2.23.27Q484,166.54,492.25,173Zm-4.52-.53-3.6-.42L470.3,161.17l-2.64-2.08,3.33.4Q479.35,166,487.73,172.48Zm-6-.7-1.6-.18-14-11.08-2.41-1.91.14,0,1.17.14Zm-4-.46-2.1-.24q-8.14-6.51-16.31-13l1.79.21Q469.41,164.82,477.73,171.32Zm-4.52-.53-2-.23-16.27-13,1.82.22Q465,164.29,473.21,170.79Zm9.82,11-2.37-.27-12.21-9.91,2.18.26Zm-4.72-.54-3.61-.41-12-9.9,3.37.4Q472.18,176.33,478.31,181.29Zm-6.3-.71-2.31-.26-12-9.92,2.32.27Zm-4.88-.55-1.8-.21-12-9.92,1.75.2Zm-4.45-.51-2.13-.24-12-9.93,2.11.24Zm-4.07-.46-2.57-.29-11.8-9.93,2.25.26ZM407,164.51l3.41.4q5.93,5,11.83,10l-3.75-.42Zm9.07,9.74-3.33-.37-11.56-10,3.35.39,7.1,6.2C413.09,171.7,414.58,173,416.06,174.25Zm-3.69-9.11,3.41.39,11.29,10-3.11-.35Zm6,.69,3,.35,11.41,10-3.08-.35Zm5.38.63,3,.34q5.73,5,11.47,9.95l-3.1-.35Zm5.4.62,3.15.37,11.74,10-3.46-.39Zm5.27.62,2.44.28,11.76,10-2.63-.3Zm4.85.56,2.9.34q6,5,12,10l-3.18-.36Zm3.05-1.06-15.54-13.07,1.7.2,16,13.12Zm-2.13-.25-2.85-.33-14.45-12.28-.94-.8,2.42.29Zm-5.26-.61-2.41-.28L418.2,153.78l-.94-.81,2.16.27Zm-4.56-.53-3.09-.36-14.11-12.27-.94-.82,2.64.32Zm-5.51-.64-3-.34L408,152.68l-1.11-1,2.85.35Zm-5.37-.62-3-.35-13.32-11.71-1.61-1.42,2.86.35Zm-5.52-.65-3.46-.4-14.83-12.8-.47-.41,3.87.47Zm-5.48-.63-3.34-.39-13.69-11.94L390,149.66l2.84.35Zm-5.81-.68-3.36-.39L384,148.94l3.44.42Zm7.61,11-2.88-.33-11.72-10.08,3,.36Zm-5.37-.61-4.42-.5L389,162.42l4.19.48Zm-6.9-.78-3.36-.38-11.4-10.08,3.23.37Zm-5.8-.65-4.16-.48L376.88,161l3.9.45Zm-6.57-.75-4.55-.51-10.92-10.07,4.31.5Zm-6.67-.75-2.43-.28-1-.11-10.61-10,2.9.33Q373.36,165,379,170.06Zm-5.67-.64-3.27-.37L359.21,159l3.42.39ZM319,154.28l4.65.54,11.58,10.29-5.11-.57Zm9,10-4.84-.55-10.78-10.23,4.4.51ZM325.49,155l4.48.52,11.58,10.27-4.72-.53Zm6.36.74,4.51.52,11.36,10.23-4.51-.51Zm6.62.77,4.92.57,11.11,10.17-4.8-.54Zm7.11.82.74.09,4,.46,8,7.52,2.75,2.6-4.48-.51Zm7.1.83,4.54.53q5.49,5,10.95,10.11l-4.69-.53Zm4.8-.86L343.18,144l3.64.44,14.1,13.31Zm-2-.23-4.51-.53L337.41,143.9l-.76-.71,4.27.52Zm-6.86-.8-4.78-.55-14.61-13.47,3,.37,2.06.25Zm-7-.81-4.93-.57-14.89-13.54,5.09.62Zm-7.06-.82-4.5-.53L315,140.57l4.48.54Zm-6.42-.75-4.44-.51L308.64,139.8l4.07.49Q320.4,147.12,328.13,153.93Zm-6.32-.73-4.58-.54-14.77-13.61,3.92.47Q314.08,146.36,321.81,153.2Zm-6.77-.79-4.33-.5-14.31-13.6,3.74.46Zm6.35,11.14-2.87-.32L307.93,153l2.51.29Zm-4.94-.56-4.56-.51-10.63-10.26,4.39.51Q311,157.88,316.45,163Zm-6.87-.77-3.33-.38-10.77-10.29,3.46.4Q304.27,157.08,309.58,162.22Zm-5.65-.64L298.8,161l-10.33-10.27,4.69.55Zm-7.39-.84-6.37-.72L280,149.75l6.19.72Zm-8.61-1-5.56-.63-10-10.27,5.35.62Zm-8.27-.94-2.27-.25-9.6-10.25,2,.23Q274.7,153.71,279.66,158.83Zm-4.12-.46-7.22-.82q-5.06-5.18-10.12-10.33l7.69.89ZM263,154.12l3.12,3.18-4.86-.55-9.69-10.31L256,147Zm-61.2-13.46,6.11.71,6.12,7.38c.81,1,1.64,2,2.47,2.94l-3.9-.44-2.24-.26Zm6.55,10.11-6.34-.72-7.84-10.28,5.61.65,5.89,7.12Zm1.59-9.17,5.81.68,4.28,5.11c1.45,1.73,2.93,3.47,4.41,5.2l-6-.68Zm7.84.92,4.64.54,5.46,6.29,3.47,4-4.94-.56Zm6.72.78,6.81.79,5.36,6.14c1.21,1.39,2.44,2.77,3.67,4.15l-6.92-.78Zm8.9,1,2.92.34q4.47,5.15,9,10.27l-2.92-.33Zm5.38.63,4.62.53,9.45,10.31-5-.56Q243.31,150.1,238.76,145Zm6.69.77,4.44.52q5,5.16,9.9,10.34l-4.92-.56Zm4.61-.87-12.91-13.74,3.74.46q6.78,6.87,13.54,13.78Zm-1.69-.2-4.36-.51-12.56-13.72,3.68.45Q241.75,137.78,248.37,144.66Zm-6.44-.75-4.57-.53-12.14-13.7,4.11.49Zm-7-.81-2.93-.34-12-13.71,2.94.35Q229,136.24,234.93,143.1Zm-5-.58-6.8-.8L211.21,128l6.74.81Zm-8.88-1-4.59-.53q-5.76-6.87-11.51-13.73l4.19.5Zm-6.63-.77-5.79-.67-11.4-13.76,5.67.69Zm-7.81-.91-.33,0-5.79-.68-11.43-13.8,6.14.74Zm-8.14-.94-5.49-.64q-5.24-6.85-10.46-13.73L187,125Zm1.76,11-5-.57-8-10.32.71.09,4.47.52Q196.31,144.7,200.22,149.85Zm-6.95-.79-5.33-.6-7.71-10.31,5,.59Zm-7.4-.83-6.67-.76-7.54-10.31,6.51.75Q182,143.09,185.87,148.23Zm-8.55-1-5.46-.62-7.08-10.28,5,.58Zm-7.19-.81-7.14-.81-7-10.3,7,.82Zm-8.87-1-7.28-.83q-3.4-5.15-6.8-10.31l7.13.83Q157.79,140.29,161.26,145.45Zm-9.49-1.08-7-.79q-3.6-5.19-7.21-10.39l7.48.87Zm-11.84-5.27,3,4.27-7-.79L129,132.2l6.69.78Zm-7.72.48c.61.93,1.23,1.86,1.85,2.79l-6.64-.75q-3.27-5.18-6.52-10.36l6.25.72Zm-55.8-13.49,7.82.9L89,135.54l1,1.85-8.29-.94Zm4.12,10.23-7.29-.83q-2.61-5.22-5.33-10.39l7.19.83Q77.83,131.12,80.53,136.32ZM86,127.2l7.25.84,4.56,8,1.39,2.42-7.44-.84Zm9,1,5.85.68,5.23,8.36,1.29,2.07-6.43-.73Zm7.65.89,8.52,1q2.55,4.13,5.09,8.26l1.3,2.12-8.4-.95Zm10.32,1.2,6.17.72,6,9.59.49.78-6.29-.72Zm7-.6-8.74-13.89,5.69.69q4.62,7,9.25,13.92Zm-1.8-.21-6.14-.71q-4.32-7-8.65-13.92l6,.73Zm-8-.92-8.53-1q-4.36-7-8.74-14l8.62,1Q105.89,121.63,110.19,128.6Zm-10.33-1.2-5.77-.67-8-13.93,5,.61Q95.49,120.4,99.86,127.4Zm-7.51-.88-7.23-.84-7.74-13.94,7,.85Zm-9-1-7.75-.9-7.11-13.91,7.12.86Zm-9.08-1-5-.58-2.22-.26q-3.78-7.08-7.76-14l7.64.93Q70.64,117.45,74.31,124.43Zm-2.59,10.89-.83-.09-8.57-1q-2.4-5.19-4.79-10.37l8.79,1Q69.08,130.09,71.72,135.32ZM61,134.11l-9.3-1.05-4.83-10.41,9.3,1.08C57.77,127.19,59.39,130.65,61,134.11Zm-10.94-1.24L41.92,132l-4.44-10.39,7.74.9Zm.69,1.49q3.48,7.5,6.95,15L49,148.46l-6.42-15Zm1.64.19,5.24.59,4.06.46q3.43,7.41,6.82,14.83l-9.18-.93Q55.84,142,52.38,134.55ZM63,135.75l9.46,1.07q3.63,7.29,6.91,14.71l-6.12-.62-3.4-.34Q66.42,143.16,63,135.75ZM78.3,146c-1.4-3-2.84-6-4.31-9l7.32.83q3.81,7.32,7.53,14.67l-7.92-.81Q79.61,148.82,78.3,146Zm4.17-8,8.36,1,8.11,14.61-9-.91Zm10.09,1.14,7.46.85,8.31,14.51-7.68-.77Zm9.2,1,6.52.74,9.06,14.5-7.28-.74Zm8.32.94,8.37,1,8.79,14.34-8.12-.82Q114.6,148.31,110.08,141.07Zm10.18,1.15,6.32.72,9,14.26-6.53-.65Q124.66,149.38,120.26,142.22Zm8.11.92,6.7.76,9.45,14.21-7.19-.73Zm8.53,1,7,.79,9.82,14.15-7.44-.76Zm8.91,1,7,.79q4.6,7,9.25,14l-6.42-.65Zm9.18,1,7.31.83q4.68,6.93,9.34,13.87l-7.46-.75Zm9,1,7.17.81,9.48,13.78-7.31-.73Zm8.9,1,5.53.62,10.05,13.75-6.1-.61Zm7.41.83,6.69.76q5.11,6.84,10.23,13.67l-6.89-.7Zm8.76,1,4.06.45,1.32.15L205,164.23l-5.76-.59Zm7.33.82,5,.57q5.15,6.73,10.28,13.5l-4.72-.48Zm6.75.77,6.45.73,11.17,13.49-1.63-.17-5.72-.57Q208.31,158.33,203.17,151.6Zm8.46,1,6.16.7c3.81,4.48,7.7,8.94,11.56,13.43l-6.56-.66Zm8.12.92,6,.68c3.83,4.45,7.71,8.88,11.56,13.34l-6.52-.66Zm7.95.9,5,.57,11.47,13.24-5.35-.54Zm7.06.8,7,.79c3.94,4.39,7.94,8.77,11.91,13.18l-7.43-.75Zm9,1,2.94.33q5.76,6.57,11.56,13.09l-3.06-.31Zm5.55.63,5,.57q6,6.51,11.92,13l-5.37-.55Zm7.06.8,5,.56q6.15,6.47,12.24,13l-5.33-.54Q262.27,164.1,256.32,157.61Zm6.41.72,4.93.56c4.25,4.32,8.53,8.63,12.79,13l-5.54-.56Zm7.13.81L277,160q6,6.36,11.94,12.76l-6.58-.67Q276.12,165.59,269.86,159.14Zm9,1,2.33.26q6.19,6.39,12.42,12.76l-2.82-.29Zm5,.57,5.6.63L302.05,174l-5.8-.59Zm7.84.88,6.39.73,12.67,12.57-6.55-.66Zm8.66,1,5.2.59,13.11,12.53-5.68-.57Zm7.52.85,3.31.38,12.9,12.44-3.13-.32Zm5.62.64,4.59.52q6.51,6.17,13,12.37l-4.73-.48Zm6.63.75,2.91.33q6.53,6.14,13,12.31l-3.14-.32Zm4.7.53,4.9.55q6.68,6.12,13.32,12.27l-5.29-.54Zm7,.79,5.18.58q6.8,6.08,13.52,12.2l-5.43-.55Zm6.77.76,4.74.54q6.76,6,13.47,12.11l-4.75-.48Zm6.38.72,4.51.51q6.64,6,13.25,12l-4.35-.44Zm6.48.74,4.77.54q6.48,5.94,12.95,11.9l-4.53-.45Zm6.88.77,4.42.5c4.06,3.89,8.1,7.83,12.16,11.75l-3.69-.37Zm6.83.78,4.72.53q6.3,5.84,12.55,11.7l-4.7-.47Zm6.54.74L375,171l12.28,11.62-3-.31Zm5.47.61,3.55.41q6.42,5.77,12.83,11.6l-4.14-.42Zm5.62.64,4.59.52,12.74,11.51-4.8-.48Zm7,.79,4.2.48,13,11.45-4.44-.45Zm6.64.75,3.38.38,13,11.39-3.49-.35Zm5.87.67,4.45.5L420,185.94l-4.66-.47Zm6.94.78,2.86.32,12.94,11.24-2.67-.27Zm5.33.6,3.36.38c4.37,3.74,8.77,7.45,13.16,11.19l-3.62-.37Zm5.74.65,3.8.43q6.47,5.52,12.87,11.09l-3.92-.4Zm5.51.62,3.06.35q6.22,5.5,12.47,11l-2.72-.28Zm5.65.64,3.09.35,12.48,10.92-3.12-.31Zm5.44.62,3.1.35,12.49,10.85-3.16-.32Zm5.48.62,3.5.39q6.31,5.39,12.59,10.8l-3.65-.37Zm5.44.61,2.65.3,12.66,10.75-2.79-.28Zm5,.57,3.23.36q6.38,5.33,12.7,10.69l-3.32-.34Zm5.13.58,2.62.29c4.27,3.54,8.55,7.08,12.8,10.64l-2.75-.28Zm4.54.51,2.13.24,12.8,10.59-2.15-.22Zm4.79.54,1.81.21,2.19,1.8q5.32,4.4,10.69,8.74l-1.95-.2Zm8.46,3.86L471.68,182l2.31.26,12.72,10.47-2.29-.23Zm.92-2.8,3.64.41q6.39,5.19,12.76,10.4l-3.74-.38Zm6,.68,2.39.27L498,193.83l-2.55-.26Zm5,.57,2.18.24q6.48,5.15,12.95,10.31l-2.22-.23Zm4.5.51,2.38.27q6.48,5.1,12.94,10.24l-2.44-.25Zm4.54.51,1.89.21q6.5,5.08,13,10.2l-2-.2Zm4.14.47,3.85.43q6.47,5,12.89,10.12l-3.83-.39Zm6,.67,2.14.24q6.4,5,12.83,10.06l-2.13-.21Zm5.08.58,3.88.43c4.46,3.35,8.94,6.68,13.4,10l-2-.2-2.52-.25Zm6.37.72,1.88.21c4.43,3.32,8.88,6.63,13.3,10l-2.35-.24Zm4.38.49,2.22.25q6.57,5,13.13,9.9l-2.57-.26Zm4.75.54,2.73.31c4.36,3.27,8.75,6.54,13.11,9.83l-3.08-.31Zm5.23.59,2.45.28c4.47,3.25,9,6.51,13.42,9.8l-3.25-.33Zm4.85.55,1.49.17c4.49,3.24,9,6.48,13.46,9.76l-2-.21Zm3.91.44,2.39.27,13.34,9.69-2.75-.27Zm5.23.59,1.54.18,13.23,9.62-1.49-.15Zm4.37.5,1.48.16,13.15,9.57-1.45-.14Q557.6,195.72,551,190.93Zm4.31.48,2,.22,13.05,9.51-1.92-.2Zm9.13-.38-14.56-9.89H550a2.36,2.36,0,0,1,.69.06l15,10Zm-4.77-.54-1.87-.21-13.32-9.7,1.57.29Q552.84,185.7,559.68,190.49Zm-12.33-11.08L530.53,168l-2.15-1.55.1,0,19.63,13.05ZM529.81,169.2l11.94,8.59,1.63,1.16-1.33-.15-17.21-12.54.81.11Zm4.57,8.7-1.49-.17L515.2,164.86l1.5.18Zm-4.34-.5-1.59-.19-17.77-12.9,1.65.2Zm-4.44-.52-1.83-.21L506.52,163.8l.61.08.68.08Zm-4.62-.53-.94-.11L503,163.37l.74.09Zm-3.69-.43-1.62-.19-16.6-12.83,1.13.14Zm-16.55-14.23L498.45,160q-7.89-5.94-15.77-11.89l.13-.21,18.65,13.92Zm-2.78-.34-1.06-.13-15.15-11.71.16-.25Zm-3.78-.46-2.68-.32-11.3-8.71a.69.69,0,0,0,.11-.13l.67-1Zm-5.41-.65-1.9-.23-10.52-8.15,1.7.11Zm-4.61-.56-1.65-.2-10.15-7.88,1.49.1Zm-4.36-.53-3.36-.41-9.58-7.5,3,.2Zm-6.1-.74-2.23-.27-9.15-7.2,2.06.14Q469,154.72,473.7,158.41Zm-4.86-.59-3.3-.4-8.67-6.83,3,.19Q464.33,154.31,468.84,157.82Zm-5.95-.72-1.27-.16-8.31-6.58,1.08.07Zm-3.9-.48-1.76-.21-7.92-6.32,1.54.1Zm-4.35-.52-1.8-.22-13.35-10.69L431,138.37l10.29,7.1Zm-2.36,1.12,16.28,13-2.15-.25-16.14-13ZM464,169.72l-3.32-.38-15.8-13,2.89.36Zm-6-.7-2.32-.26-15.82-13,2.37.29Zm-4.9-.56-1.73-.21L435.59,155.2l1.66.2ZM448.7,168l-2.1-.25-15.74-13.08,2.1.26Zm-19.84-15-3.08-2.56-15-12.47c.12-.4.23-.79.35-1.18L431,153.22Zm-2.43-.3-1.64-.2-14.67-12.35.21-.72Q418.36,146.06,426.43,152.67Zm-4.08-.49-2.37-.29-10.91-9.27a.78.78,0,0,0,.46-.48l.15-.54Q416,146.91,422.35,152.18Zm-4.88-.59-2.13-.26-10.56-9.08,1.9.19ZM412.9,151l-2.59-.31L400,141.78l2.3.23Q407.61,146.54,412.9,151Zm-5.07-.61-2.82-.35L395,141.28l2.66.26Zm-5.29-.64-2.84-.35-9.84-8.65,2.69.26Zm-5.35-.65-3.92-.48-9.86-8.51,4,.4Zm-6.33-.77-2.78-.34-9.6-8.37,2.5.25Q385.9,144.14,390.86,148.36Zm-5.27-.64-3.45-.42q-4.74-4.11-9.47-8.23l3.39.34Zm11.22,14.19-3.05-.35-15.48-13.31,3.25.39Zm-5.55-.64-4.15-.48-15.2-13.32,3.86.47Zm-6.66-.78-3.21-.37-15.06-13.33,3.06.38Zm-5.66-.65-3.86-.45-14.75-13.32,3.53.43Zm-6.28-.73-4.27-.5-14.45-13.32,4,.48Zm-8.54-2.51,1.9,1.74-1.34-.16-1.49-.17-14.05-13.3,2.4.29Zm-16.69-13.51-3.89-3.68-14.77-14c.08-.39.17-.78.25-1.17l20.75,19.12Zm-2.32-.28-3.67-.45-13.61-12.71c.19-.88.38-1.75.58-2.62Zm-5.95-.72-4.24-.52-12.21-11.43,4,.42Q332.92,136.33,339.16,142.09Zm-6.61-.81-5.11-.62-12.29-11.32,5.55.58a.65.65,0,0,0,.21.47Zm-7.45-.9-5.11-.62-12.34-11.21,5.14.54Zm-7.46-.91-4.47-.54-12.31-11.1,4.42.47Q311.45,133.89,317.64,139.47Zm-6.78-.82-4-.49-12.14-11,3.78.4Q304.64,133.14,310.86,138.65Zm-6.33-.77-3.83-.46-11.76-10.84,3.37.35Q298.39,132.44,304.53,137.88Zm-6.16-.74-3.68-.45-11.17-10.61a30.22,30.22,0,0,0,3.13.3C290.54,130,294.46,133.55,298.37,137.14Zm10.35,14.53-2.46-.28L292.18,137.8l2,.24Q301.43,144.87,308.72,151.67Zm-8.92-4.55,4.18,4-4.39-.51L285.46,137l4.39.54Zm-2.52,3.23-3.48-.41-14.31-13.68,3.65.44Zm-5.81-.68-4.61-.54-13.74-13.64,4,.48Zm-6.88-.8-6.16-.72-13.52-13.66,5.92.72Zm-10.72-3.32,2.31,2.34-5.32-.62L257.6,133.6l5,.62ZM268.22,147l-1.91-.22q-6.39-6.83-12.77-13.64l1.55.19Q261.65,140.14,268.22,147Zm-3.83-.45-7.75-.9q-6.75-6.88-13.5-13.77l8.35,1Zm-22.82-16.27c-3.52-3.57-7-7.14-10.62-10.66a37.27,37.27,0,0,0-4-3.91l2.71-6q10.14,10.83,20.35,21.62Zm-3.46-1.49,1.2,1.21-3.66-.44-12.41-13.2,2.54.29C230.36,119.42,234.4,125,238.11,128.76Zm-4.51.52-3.6-.44q-6-6.54-12-13.09l3.21.36a.7.7,0,0,0,.17.33Q227.46,122.89,233.6,129.28Zm-5.73-.7-4.06-.49-11.51-13,3.58.41Q221.88,122.05,227.87,128.58Zm-6.27-.76-2.94-.35L207.4,114.55l2.81.32Q215.93,121.32,221.6,127.82Zm-5-.61-6.73-.81-11.09-12.82,6.57.74Zm-8.81-1.07-4.14-.5-.31-.37L193,112.93l3.71.42Q202.23,119.74,207.76,126.14Zm-6.18-.75-3.85-.46-1.81-.22-10.45-12.62,5.47.61Zm-7.69-.93-6.14-.74-10.39-12.54,6.09.68Zm-8.18-1-4.39-.53q-6.91-9.09-13.84-18.16l-4.08-5.36,11.81,11.37ZM191.19,138l-5.19-.6-10.71-13.79,4.09.49,1.29.16Zm-7.15-.83-5-.57-10.3-13.78,4.55.55Zm-7-.81-6.48-.76-10.08-13.79,6.31.76Q171.88,129.48,177,136.37Zm-8.36-1-4.93-.57-9.47-13.75,4.31.52Zm-6.67-.77-7-.81L145.71,120l6.75.82Zm-8.71-1-7.1-.83q-4.54-6.9-9.1-13.8l6.87.83ZM144,132.53l-7.53-.88-9.66-13.91,8.19,1Zm-9.4-1.09-6.64-.77-9.24-13.91,6.22.75Zm-16.9-16.22-.17-.25-10.67-16,5.68.71q5.65,8.18,11.33,16.34Zm-1.85-.22-5.62-.69L100,98.05l5,.63Q110.45,106.84,115.86,115Zm-7.43-.91-6-.73c-.39-.61-.76-1.22-1.15-1.83-2.47-4-4.94-7.91-7.5-11.8-.42-.64-1-1.73-1.58-2.67l6,.76Q103.32,106,108.43,114.09Zm-15.61-13.2c2.05,3.13,4,6.3,6,9.46.58.93,1.15,1.86,1.74,2.79l-8.63-1L81.74,95.74,90,96.79C90.94,97.34,92.2,99.94,92.82,100.89Zm-2.66,11-4.91-.6c-.06-.11-.13-.22-.19-.34L75.94,95l4,.5Zm-6.66-.81-7-.85,0,0q-4.52-8.11-9-16.23l6.68.84Q78.85,102.92,83.5,111.07ZM74.8,110l-7-.85-.18-.34q-4.05-7.95-8.12-15.9l6.3.8Q70.29,101.87,74.8,110Zm-8.6-1h-.11L58.47,108q-4.77-8.3-9.75-16.47l9.05,1.15Q61.94,100.86,66.2,109Zm-.69,14.44-8.68-1q-3.21-7-6.43-13.93l3.52.42,3.73.46Q61.67,116.31,65.51,123.41Zm-10-1.17-9.3-1.08-6.49-14,9.26,1.12Q52.21,115.26,55.47,122.24ZM43.17,118c.46,1,.91,1.95,1.36,2.93l-7.69-.9q-3-7-6-14L38,107Zm-2.69,13.75-8.77-1-4.23-10.4,8.42,1Q38.18,126.59,40.48,131.79Zm.66,1.49q3.33,7.51,6.63,15.05l-9.31-.94-6.15-15.11ZM46.57,171l-9.8-.83c-1.06-3.21-2.2-6.36-3.37-9.45L28.52,147.8l9.42,1C41,156.11,43.92,163.49,46.57,171ZM43.2,159l-4.14-10.17,9.35.94c3.17,7.32,6.25,14.66,9.11,22.07l-9.43-.8C46.67,167,44.82,163,43.2,159Zm10-.76-3.57-8.35,8.77.89c.42.92.85,1.84,1.28,2.76,3,6.36,6.39,12.7,9,19.24L58.75,172C57,167.31,55.08,162.73,53.18,158.28Zm10.91,1.52q-2-4.41-4.09-8.82l9.18.93q5,10.88,9.82,21.79l-1.26-.1L70.23,173C68.56,168.47,66.1,164.12,64.09,159.8ZM73.31,158c-.93-2-1.85-4-2.77-6l9.5,1q4.63,10.59,8.43,21.5l-7.82-.66C78.49,168.48,75.73,163.27,73.31,158Zm8.27-4.86,8,.81q5.4,10.7,10.51,21.52l-10-.85C87.65,167.35,84.7,160.18,81.58,153.17ZM97.31,167q-3.28-6.45-6.59-12.9l9,.91,5.27,9.49c2.06,3.71,5.16,8.2,6.81,12l-10.39-.89C100.15,172.68,98.75,169.8,97.31,167Zm11.94,2.18-7.77-14,7.71.77q2.52,4.43,5.06,8.85c2.36,4.14,5.11,8.24,7.25,12.52l-8.34-.71A72,72,0,0,0,109.25,169.17Zm9.33.36-7.67-13.4,7.38.74,6,9.69c2.24,3.58,5.6,7.91,7.43,11.63l-8.74-.74C121.74,174.72,120.09,172.16,118.58,169.53Zm10,1.2-8.54-13.68,8.09.82,5,8.13c2.6,4.27,5.7,8.52,8,13l-8.05-.69A70.46,70.46,0,0,0,128.61,170.73Zm8.31-1.24-7-11.44,6.56.66L143,169.1c2.06,3.28,5,7.21,6.81,10.63l-7.09-.61C141.14,175.76,138.84,172.63,136.92,169.49Zm10.81,4.43-9.45-15,7.25.74,5.91,8.89c2.56,3.86,5.89,8,8.14,12l-8.47-.72A59,59,0,0,0,147.73,173.92Zm8.18-1.22-8.57-12.89,7.48.76,4.63,6.66c3.22,4.65,7.05,9.25,9.92,14.16l-8.3-.71A95,95,0,0,0,155.91,172.7Zm8.54-.72-7.79-11.23,6.38.65q6.9,10.35,13.9,20.63l-5.91-.5C169.21,178.17,166.61,175.09,164.45,172Zm5.14-3.68-4.41-6.69,7.48.76q6.87,10.22,13.7,20.46l-7.62-.65C176,178.08,172.53,172.76,169.59,168.3Zm8-1-3.2-4.74,7.33.74q7,10.16,13.9,20.34l-7.44-.64C184.75,177.68,181.11,172.51,177.58,167.28Zm10,2.2-4.15-6,6.17.62q7.24,9.93,14.5,19.84l.3.44-7-.59C194.24,179,190.87,174.24,187.59,169.48Zm7.16-.74-3.27-4.47,6.92.7q7.57,10.09,15.2,20.18l-7.31-.63C202.5,179.22,198.6,174,194.75,168.74Zm9.62,1.71-3.94-5.28,5.8.59,14.9,19.2c.22.28.43.59.65.88l-6.31-.54Zm5.89-1.78L208.15,166l4.68.48q7.39,9.75,14.76,19.52c.1.13.19.27.29.41l-4.17-.35-.05-.09C219.47,180,214.71,174.4,210.26,168.67Zm6.9,1.29-2.55-3.35,7.46.75,5.44,6.57c3.66,4.41,7.74,8.71,11.15,13.35l-8.86-.76C226,180.78,221.34,175.44,217.16,170Zm16.34,9-9.43-11.4,6.61.67c5.52,6.44,10.92,13,15.89,19.72l-6.11-.52C238.4,184.44,235.81,181.74,233.5,179Zm8.31,1.14-9.72-11.73,6.57.67c5.51,6.41,10.91,12.89,16,19.59l-6.68-.57C246,185.27,243.89,182.61,241.81,180.1Zm5.7-2.09q-3.7-4.41-7.4-8.83l5.39.55,5,5.81c3.95,4.56,8.28,9,12,13.76l-5.95-.5C253.94,185,250.47,181.55,247.51,178Zm9.25,2.57-9.22-10.65,7.49.76c5.67,6.33,11.24,12.74,16.44,19.37l-7.05-.6C262.14,186.32,259.28,183.5,256.76,180.58Zm7.91-.38-8.17-9.36,3.09.31q8.73,9.79,17.65,19.4l-3.8-.32C270.84,186.69,267.54,183.49,264.67,180.2Zm8.12,3.16-10.58-11.94,5.42.54q8.79,9.63,17.54,19.27l-5.71-.49C277.24,188.29,275,185.84,272.79,183.36Zm6.16-1-9.31-10.17,5.36.54q8.79,9.47,17.32,19.13l-5-.43C284.56,188.34,281.71,185.37,279,182.34Zm5.48-.93-8.05-8.56,5.62.57c6.19,6.29,12.34,12.63,18.33,19.1L294.4,192C291.33,188.3,287.72,184.91,284.43,181.41Zm8.87,1.87-9.39-9.67,6.51.66q8.76,9.4,17.43,18.89l-5.41-.46C299.51,189.46,296.33,186.41,293.3,183.28Zm4.62-2.79-5.66-6,2.9.3q9.33,9.51,18.74,18.92l-4-.34-.1-.12C306,188.84,301.88,184.72,297.92,180.49Zm4.46-.72q-2.29-2.39-4.61-4.76l5.83.59L306,178c5.31,5.36,10.4,11.38,16.09,16.39l-6-.51C311.37,189.29,306.93,184.45,302.38,179.77Zm9.67,2.36-6.24-6.31,6.58.67,18.34,18.21c.14.14.27.29.41.44l-6.11-.52C320.47,190.74,316.33,186.45,312.05,182.13Zm5.64-2.38-3.06-3,5.74.58,18.14,17.33c.41.4.8.82,1.2,1.25l-6.36-.55-.1-.11C328.19,189.94,322.87,184.9,317.69,179.75Zm6.07-1.17-1.1-1.06,3.12.32,18.38,17.73c.24.23.45.49.68.73l-2.86-.24c-.1-.12-.19-.24-.29-.35C336.16,189.65,329.69,184.24,323.76,178.58Zm6.42,1.54-2.13-2.05,4.73.48c6.25,6,12.45,12.08,18.5,18.26,0,0,0,0,0,0l-4.2-.36-.1-.12C342.06,190.52,335.69,185.44,330.18,180.12ZM339,183l-4.43-4.28,3.16.32q9.45,9,18.73,18.24l-2.9-.25C349.18,192,343.81,187.63,339,183Zm9.49,4.79-9-8.58,5.35.54q9.76,9.06,19.44,18.19l-5.57-.47C355.44,194.13,351.89,191,348.51,187.8Zm7.65.76L346.84,180l5.46.55q9.74,8.91,19.23,18l-4.89-.42C363.32,194.78,359.59,191.72,356.16,188.56Zm6.64.22-9-8.11,4.76.49q9.74,8.86,19.24,18l-4.78-.41C369.71,195.12,366.14,191.8,362.8,188.78Zm5.94.26-8.57-7.73,4.34.44q9.71,8.88,19.29,17.86l-3.67-.31C376.58,195.67,372.5,192.43,368.74,189Zm7.13,1.49L366.42,182l.88.08,3.62.37q9.54,8.82,19,17.73l-3.72-.31C383,196.53,379.22,193.57,375.87,190.53Zm6.18.43L373,182.61l3.59.36c6.28,6.06,12.64,12,19.24,17.66l-4.13-.35C388.65,197.1,385.38,194,382.05,191Zm8.14,2.36-10.74-10.06,4.7.48q9.18,8.65,18.22,17.45l-3.29-.28C396.11,198.3,392.84,195.8,390.19,193.32Zm3.32-2.32-7.58-7.08,3,.3q9.15,8.67,18.27,17.38l-3-.26H404C400.63,197.7,397,194.29,393.51,191Zm4.49,0-6.89-6.53,4.22.43c6.19,5.66,12.3,11.4,18.26,17.27l-4.39-.37C405.52,198,401.64,194.41,398,191Zm5.86.33L397.07,185l4.85.49q9.24,8.35,18.49,16.7l.56.54-5.39-.46C411.89,198.45,407.83,195,403.86,191.3Zm3.8-2.48-3.37-3,4.48.46L426.63,202c.49.44,1,.9,1.45,1.36l-4.76-.41c-.07-.06-.12-.12-.19-.17Q415.41,195.8,407.66,188.82Zm5-1-1.52-1.34,3.5.35,19.51,17.08-3.8-.33c-.31-.31-.61-.63-.93-.93C424,197.53,418.28,192.75,412.7,187.81Zm7.8,2.22-3.38-3,4.69.47,18.72,16.11c.32.27.62.57.93.86l-4.9-.41C431.25,199.36,425.85,194.72,420.5,190Zm5.33-.89-1.57-1.35,2.65.27,17.74,15.41c.53.46,1.05.95,1.55,1.45l-2.31-.2-.19-.21C438.17,199,431.73,194.22,425.83,189.14Zm4-.39-.52-.45,3.65.37c6.39,5.46,12.71,11,18.8,16.72l-3.19-.27c-.15-.15-.29-.32-.44-.47C442.42,199,435.92,194,429.86,188.75Zm13.75,7.69-8.68-7.57,3.93.4q9.39,8.19,18.56,16.6l-3.29-.28C450.91,202.28,447,199.43,443.61,196.44Zm4.55-.4-7.65-6.61,2.69.27q9.45,8.31,19,16.57l-2.35-.2C456.23,202.48,452,199.34,448.16,196Zm7.63,2.74-10-8.82,3.13.32q9.36,8.21,18.69,16.45l-2.76-.23C461.94,203.78,458.64,201.29,455.79,198.78Zm4.51-.29-9.1-8,3.17.32q9.38,8.17,18.73,16.37l-2.92-.25C467,204,463.5,201.28,460.3,198.49Zm5.47.47-9.07-7.89,3.67.37q9.3,8.06,18.45,16.25l-3.1-.26C472.53,204.46,469,201.75,465.77,199Zm5.41.34-8.93-7.67,2.81.28Q474.54,200,484,208.13l-2.68-.23C478.14,204.82,474.45,202.11,471.18,199.3Zm5.25.56-9.08-7.72,3.32.34q9.39,8,18.62,16.1l-2.65-.23C483.42,205.33,479.69,202.63,476.43,199.86Zm3.14-1.29-7-5.9,2.75.28q9.48,8,18.83,16l-2.42-.2C487.92,205.16,483.59,202,479.57,198.57Zm3.24-.8-5.57-4.63,2.16.22q9.71,8,19.42,16l-2.24-.19C492.23,205.16,487.37,201.56,482.81,197.77Zm2.34-1.53L482,193.62l2,.2c6.46,5.26,12.91,10.53,19.23,15.94l-1.93-.16Q493.23,202.91,485.15,196.24Zm7.91,3.34-6.68-5.51,2.3.23q9.68,7.95,19.37,15.87l-2.39-.2C501.8,206.19,497.17,203,493.06,199.58Zm1.22-2.57-3-2.44,3.75.37q8.73,7.16,17.41,14.35c.54.46,1.06.92,1.58,1.39l-3.53-.3Zm3.2-1.82,2.57.26,19.62,15.69,0,0-3.13-.26,0,0C510.4,205.41,503.85,200.36,497.48,195.19Zm7.47,2.38-2.32-1.86,2.21.22q9.71,7.77,19.33,15.61l-2-.16,0,0C516.67,206.53,510.68,202.15,505,197.57Zm8.72,3.82-6.56-5.23,2.45.25q9.65,7.69,19.16,15.52l-2-.17C522.52,208.13,518,204.83,513.67,201.39Zm5.65,1.3-7.66-6.07,1.54.16.45,0q9.71,7.68,19.31,15.47l-1.71-.14C527.46,208.81,523.27,205.83,519.32,202.69Zm5.25,1.23L515.84,197l3.83.39q9.6,7.6,19.08,15.35l-3.21-.27C532.06,209.46,528.18,206.76,524.57,203.92Zm4.44-.57-7.27-5.71,2.14.22q9.9,7.71,19.86,15.35l-2.52-.22-.33-.3C537.1,209.4,533,206.45,529,203.35Zm7.06,2.06-9.28-7.26,4.56.46c6.47,4.9,12.85,9.9,19,15.16l-1.85-.16-1.72-.15C543.36,210.6,539.45,208.06,536.07,205.41Zm4.57-.85-7.42-5.76,2.4.24c6.45,4.89,12.82,9.87,19,15.09l-1.75-.15C549.14,210.52,544.62,207.65,540.64,204.56Zm4,.18-7.11-5.5,2.63.26c6.44,4.91,12.83,9.88,19.05,15l-2.14-.18C553.27,210.85,548.73,207.9,544.65,204.74Zm4.23,0-6.59-5.07,3.11.31c6.39,4.85,12.71,9.78,18.82,14.92l-2.43-.21C558,211,553.07,208,548.88,204.79Zm6,1.24-7.5-5.8,3.35.34c6.47,4.81,12.86,9.72,19,14.85l-2.93-.25C563.17,211.83,558.76,209,554.88,206Zm3.59-.83-5.9-4.44,2.11.21c6.52,4.8,13,9.7,19.2,14.8l-1.55-.13C568.36,211.68,562.92,208.56,558.47,205.2Zm4,.33-5.86-4.37,2.82.29L579,215.72c.23.17.44.36.66.54l-3.23-.27C572.22,212.12,567,209,562.44,205.53Zm1.37-2.62-1.63-1.18,1.49.15L583,215.93c.33.24.62.47.91.69l-1.47-.12c-.06-.06-.11-.14-.17-.19C576.83,211.25,569.79,207.26,563.81,202.91Zm3.7,0-1.07-.78,1.45.14L588,217l-1.56-.13c-.09-.09-.16-.19-.25-.28C580.79,211.39,573.56,207.34,567.51,202.94Zm5.82,1.58-2.66-1.94,1.91.2,19.68,14.33.31.25-1.85-.16s0,0,0,0C585.75,212.32,578.9,208.58,573.33,204.52Zm4.85.59-2.83-2.05,1,.1c.48.05,1,.13,1.53.21,6.56,4.71,13.06,9.48,19.44,14.39l-2-.17,0-.05C590.33,212.81,583.67,209.12,578.18,205.11Zm2.7-2.91-13.78-9.36c.15,0,.3,0,.44-.05a2,2,0,0,1,.67.07l14.31,9.51Zm-51.72-37-23.27-18.86.14,0,63.94,46Zm-9.9-1.28-2-.24-11.76-8.56L490.05,143.9l2.19.36Zm-4.89-.59-1.5-.18-12.19-8.87-15.34-11.17,1.63.27Zm-4.37-.53-1.65-.2-12.65-9.19-15.29-11.11,1.84.31Zm-4.52-.55-1.22-.14-4.39-3.28L483,146.24c-3.3-1.62-6.61-3.52-10-5.14l4.32.7Zm-27-16.64c.85.42,1.71.82,2.55,1.25.3.15.5.27.63.35l-.19.33a.75.75,0,0,0-.42.63c-.88,1.24-2.08,2.69-1.52,2.48a2.36,2.36,0,0,1-.8.1l-.11-.09a.55.55,0,0,0-.75,0c-.66-.09-1.34-.23-1.79-.26l-1.76-.11-.09-.07a.76.76,0,0,0-.93,0l-25.06-1.64-8.85-6.11-6-4.16c-.64-.44-2.33-1.25-3.25-2,.9.36,2-1.65,2.81-1.82l30.31,5a37.5,37.5,0,0,1,8.64,2.88Zm-49.68-9.94a.69.69,0,0,0-.3.75l-4.16-3.33,6.85,1.13C430.57,134.58,429.81,135.05,428.84,135.68Zm21.35,19.88-2-.25-13.62-11-14.89-12,1.85.31ZM445.7,155l-2.83-.34L429.94,144l-15.17-12.5,2.4.4a.67.67,0,0,0,.22.36Zm-5.49-.66-2.38-.29q-14.19-11.72-28.4-23.41l2.57.42Q426.12,142.7,440.21,154.35Zm-5-.61-1.65-.2L420.84,143l-15.76-13,1.59.26ZM355.19,123.9l-3.07-2.67,5.19.85A27.23,27.23,0,0,0,355.19,123.9Zm-.93,1a.67.67,0,0,0,.18.63L365.82,135l13.82,12-3.27-.4-15.61-13.43-15.13-13,3.84.63Zm19.59,21.34-3.82-.46L355.36,133l-15.77-13.81,3.37.55Zm-6.33-.76-3-.37-15.2-13.45-15.21-13.45,2.89.47Zm-5.51-.67-3.48-.43-14.26-12.87-15.72-14.21,2.91.48Zm-5.92-.72-3.92-.48-13.23-12.19-16.39-15.1,3.42.56Zm-90.46-33.71a.55.55,0,0,0-.36.57.6.6,0,0,0,.22.54c4.7,4.28,9.27,8.78,14.15,12.86a6.91,6.91,0,0,0,1.1.75.62.62,0,0,0,.2.43q5.71,5.43,11.48,10.83l-1.91-.23L275.1,121.31,259.19,106l12,2C269.42,108.54,267.72,109.49,265.63,110.43Zm22.55,25.47-4.39-.53L267,119.17l-14.91-14.38,4.64.76Zm-6.72-.81-3.67-.45-17-16.25-15.38-14.7,4.23.69Zm-6-.73-3.95-.48-16.18-16.07-15.07-15,2.81.46a.59.59,0,0,0,.17.26Zm-6.24-.76-5.89-.72q-7.49-7.56-15-15.13l-16.05-16.22,5.56.92Zm-8.15-1-5-.61-15.3-15.77L225.39,100.4l4.52.74Zm-7.51-.91-1.51-.18-7.25-7.75L229.92,107.9c-2.73-2.34-5.77-5.86-9-8.24L223,100Q238.36,115.79,253.55,131.7ZM225.9,106.32a12.82,12.82,0,0,1,2.55,2.18.72.72,0,0,0,.13.15,2.86,2.86,0,0,0-.39.77c-.61,1.61-1.39,3.24-2.15,4.79-.33.66-.36.9-.34,1h-.06c-1.12.34-3.27-.37-4.42-.5l-4.75-.53a.54.54,0,0,0-.28,0l-3.54-.4-1.83-.21a.55.55,0,0,0-.31,0l-4.57-.51a.5.5,0,0,0-.32,0l-8.31-.93a.54.54,0,0,0-.33,0l-5.32-.6-.56-.67a.68.68,0,0,0-1.17.48l-5.84-.66a.53.53,0,0,0-.35,0l-7.71-.86L164.27,98.3A23.24,23.24,0,0,1,161.84,96a2.26,2.26,0,0,0,.26-.17c1.19-.93,2.3-2,3.45-2.94.49-.42,2.3-1.67,2.22-1.93l48.32,7.94C219.42,99.69,222.78,103.65,225.9,106.32ZM160.36,95.43l-5-6.54,10.12,1.66C163.64,92,161.69,94.28,160.36,95.43Zm19.12,27.28-5.4-.65-14.34-18.47-12.44-16,6,1Q166.39,105.66,179.48,122.71Zm-7.36-.89-4.5-.55L154.68,104,141.74,86.65l3.52.58ZM165.6,121l-6.29-.76q-6.59-9-13.19-18L133.78,85.34l6,1Q152.7,103.66,165.6,121Zm-8.18-1-4.23-.52-11.71-17L129.12,84.58l2.68.44Zm-6-.73-6.71-.82-12.42-18.41L120.89,83.22l6.52,1.07a.58.58,0,0,0,.11.44Q139.43,102,151.39,119.31Zm-8.49-1-6.84-.82q-5.82-8.83-11.65-17.67L112.6,81.86l6.38,1Q130.92,100.61,142.9,118.27ZM134,117.2l-8.26-1-.78-1.12-11.31-16.3c0-2.81.62-6.26-.37-8.81-.66-1.69-2.65-3.57-3.73-5-.82-1.1-1.7-2.79-2.71-4l3.85.63Q122.42,99.33,134,117.2ZM108.34,85.64c1.86,2.52,3.64,4.2,3.9,7a18.84,18.84,0,0,1,0,5.56c-1.51.14-3.6-.52-5-.7L86.82,95l-12-1.52h0l-8.35-1h-.09l-7.85-1a.65.65,0,0,0-.19,0L47.81,90,44.1,83.28l-2.58-4.69c-.44-.79-1.58-3.53-1.72-2.79.21-1.1,2-2.73,2.63-3.62.42-.58,1.25-1.37,1.23-1.65l60.87,10C104.82,80.67,107.37,84.34,108.34,85.64ZM38.46,75.25a.71.71,0,0,0,0,.72L46.75,91q5.09,8.31,10,16.79L49.7,107Q45,96.82,40.32,86.67q-4.17-9-8.35-18.06l10.1,1.66Zm9.78,31.54L39,105.67q-4.12-8.88-8.24-17.77L21.21,67.34c-.38-.82-1.6-.1-1.22.72l17.35,37.41-7.11-.86Q26,94.8,21.84,85t-8.3-19.41L30.3,68.33Q39.19,87.59,48.24,106.79Zm-14.9,8.66c.63,1.48,1.28,3,1.92,4.44l-8.39-1q-2.84-7-5.69-14l8.07,1Q31.29,110.67,33.34,115.45Zm-3.05,15.19L24.23,130l-2.58-.29q-2-5.2-3.94-10.4l8.2,1Q28.07,125.43,30.29,130.64Zm.63,1.48c2.14,5,4.29,10.1,6.4,15.16L28,146.33q-2.88-7.59-5.75-15.19ZM35.45,170l-7.74-.65-2.93-.25c-.22-.82-.46-1.63-.74-2.44l-7-20,10.33,1Q31.55,158.81,35.45,170Zm1.79,1.57,9.83.83a102.92,102.92,0,0,1,3,12.07c2,9.61,4.11,21.39.14,30.78L40,214.68C44.41,200.44,41.74,185.57,37.24,171.57Zm11.63,1.92-.3-1,9.53.81,0,.08c4.67,12.23,7.73,29.28,4.46,42.51l-10.89-.6C56.71,202.65,52.53,186,48.87,173.49Zm75.38,6.91c-.17-.5-.36-1-.56-1.48l8.74.74c1.86,4.64,2.45,10.35,3.29,15.2,1.36,7.93,2.94,17.25.4,25.11l-7.61-.41C132.13,207,128.36,192.42,124.25,180.4Zm186.93,14.45,4.21.36c9.34,9.84,14.06,21.31,12.52,35.32l-5.79-.32C322.3,217.83,319,204.72,311.18,194.85Zm32.08,2.73,2.93.25c3.55,4.39,5.77,9.93,7.7,15.16,2.17,5.91,4.11,12.75,3.78,19.18l-3.73-.2C353.86,220.68,350.37,206.68,343.26,197.58ZM360.14,199l5.74.49c8.68,8.66,13,21.67,13.22,33.85l-5.37-.3C373,220.82,368.42,208.24,360.14,199Zm9.33,2.23c-.44-.53-.9-1-1.37-1.55l5,.42c7.84,8.32,14.52,22,11.48,33.54l-3.43-.19-.6,0C380.37,222.17,376.7,209.89,369.47,201.24Zm12.09-.4,2,.17,1.84.15c8.51,8.41,12.17,21.56,13.27,33.27l-4.42-.25C393.89,222.44,389.5,209.78,381.56,200.84Zm7.45,2.07c-.43-.53-.88-1-1.34-1.55l3.89.33c8.94,8.73,14.54,20.58,14.67,33.15l-6.13-.33C399.09,223.64,396,211.47,389,202.91Zm4.1-1.09,4.52.38c6.11,5.19,9.49,10.35,11.35,18.38a60,60,0,0,1,1.61,14.5l-2.93-.16C407.55,221,401.41,210.89,393.11,201.82Zm45.06,3.83,4.82.41c7.56,8.2,11,20.63,12.15,31.48l-6-.34C448.71,226.21,446,213.74,438.17,205.65Zm7.13.6,2.37.2c7.48,8.3,11.57,20.35,11.9,31.33l-3-.17C455.44,227.27,452.26,214.45,445.3,206.25Zm4.7.4,3.38.29c7.67,7.86,10.76,20.48,11.67,31.14l-4.06-.22C460.69,227.56,456.87,214.77,450,206.65Zm11.24,1,2.68.23c8.36,7.54,11.59,19.93,12.89,30.89l-5.05-.28C472,227.93,468.25,215.64,461.24,207.61Zm6.89,2.38c-.54-.67-1.13-1.31-1.74-1.94l2.93.25c8.46,7.82,12.91,19.28,13.43,30.76l-4.52-.25C477.08,229,474.43,217.75,468.13,210Zm5.23.17c-.51-.56-1-1.11-1.58-1.66l3.06.26c8.4,7.74,12.39,19.24,12.8,30.57l-3.47-.2C483.72,229,480.24,217.78,473.36,210.16Zm5.44.37c-.48-.53-1-1.05-1.47-1.55l3.19.27c7.92,7.55,11.2,19.68,12.36,30.36l-3.82-.21C488.72,229.33,485.61,218.08,478.8,210.53Zm5.2.25c-.38-.46-.78-.9-1.18-1.34l2.95.25c8.14,7.41,11.43,19.52,12.8,30.24l-4.27-.24C493.24,229.79,490.41,218.55,484,210.78Zm5.55.6c-.43-.51-.88-1-1.35-1.48l2.77.24c7.65,7.57,11.35,19.48,12.29,30.05L500,240C498.76,230.22,496,219,489.55,211.38Zm3.68-1,2.62.22c7.84,7.56,11.92,19.35,13.57,30l-4.73-.26C503.78,230,500.34,218.11,493.23,210.33Zm4.91.42,2.48.21c8.38,7.75,12.73,18.43,14,29.85l-3.72-.21C509.32,230.32,505.43,218.49,498.14,210.75Zm4.91.41,1.88.16c8.11,7.76,12.9,18.79,14.66,29.76l-3.6-.19C514.86,230.07,511,218.75,503.05,211.16Zm4.89,1.21c-.26-.3-.53-.57-.79-.86l2.72.23c8.47,7.67,13.08,18.39,15,29.64l-3.85-.22A57.21,57.21,0,0,0,507.94,212.37Zm4.35-.42,3.36.28c7.77,7.88,12,18.18,13.21,29.36l-2.54-.14C524.55,230.71,520.29,219.51,512.29,212Zm5.89.5,3.27.28c7.58,7.32,10.62,19,12.51,29.15l-3.68-.21C529.2,231.29,525.56,220.05,518.18,212.45Zm5.62.48,2.19.18c7.88,7.28,12.25,18.41,12.93,29l-3.51-.19C533.64,232.38,530.77,220.3,523.8,212.93Zm4.57.38,2.17.19c7.76,7.14,12.34,18.32,12.54,28.81,0,0,0,0,0,.07l-2.75-.15C539.71,232,535.73,220.69,528.37,213.31Zm9.08.95-.21-.19,3.29.28a36.65,36.65,0,0,1,11.24,28.51l-3.32-.19C548.51,232.51,544.78,221.37,537.45,214.26Zm12,1.65c-.29-.3-.61-.59-.92-.89l3.55.31c6.86,6.71,9.21,18.84,10.71,28.13l-3.43-.19C558.35,234.07,556,222.67,549.41,215.91Zm4.91-.39,2,.17c7,6.74,9.69,18.63,11.32,28l-3.46-.19C562.75,234.61,560.52,222.64,554.32,215.52Zm4.31.37,2.33.19c6.57,6.7,9.08,18.85,10.32,27.85l-2.19-.12C567.54,234.75,565,223,558.63,215.89Zm4.58.39,2.79.23c6.71,6.39,8.53,18.86,10.19,27.69L572.7,244C571.51,235.3,569.11,223.33,563.21,216.28ZM578.3,230c-1-4-2.13-9.26-4.69-12.86l2,.17c2.78,2.84,3.93,6.79,5.05,10.61a144.34,144.34,0,0,1,3.77,16.72l-3-.17C580.63,239.63,579.57,234.79,578.3,230Zm4.42-.12c-1.07-4-2.18-8.94-4.84-12.38l3.44.3c6,6.64,6.6,18.51,7.31,27.07l-2.71-.15C585.08,239.75,584,234.78,582.72,229.9Zm4.74-1.31c-.79-3.36-1.7-7.55-3.79-10.57l.74.06,1.19.1c1.25,1.36,2,2.88,2.89,5.56a98.21,98.21,0,0,1,4.4,21.38L590,245A119.12,119.12,0,0,0,587.46,228.59Zm3.87-.19c-.82-3.2-1.71-7.14-3.64-10l2.07.17c2.09,2.33,2.86,5.31,3.74,8.61a168.56,168.56,0,0,1,3.64,18.21l-2.83-.15A127,127,0,0,0,591.33,228.4Zm4.12.7c-.79-3.26-1.53-7.41-3.51-10.38l2.36.2c1.64,1.81,2.43,3.89,3.23,6.84a122.4,122.4,0,0,1,3.34,19.8l-2.29-.13C597.76,240,596.75,234.48,595.45,229.1Zm4.53,1c-.7-3.46-1.38-7.85-3.47-11l2.5.21c1.89,2.22,2.42,5.05,3.2,8.15,1.51,6.05,2.66,12.21,3.68,18.37l-3.61-.2A156.61,156.61,0,0,0,600,230.07Zm4.13-.72c-.69-3-1.23-7-2.93-9.8.86.12,1.77.27,2.68.39,6.07,6.3,7,17.83,8.1,26.23l-4.63-.26C606.42,240.37,605.37,234.83,604.11,229.35Zm5.76-.41c-.84-3-1.77-6.25-3.63-8.78.34,0,.67,0,1,0,3.47,4.09,5,10.55,6.64,15.5q1.82,5.37,3.4,10.81l-3.89-.21A130.42,130.42,0,0,0,609.87,228.94Zm4.6,4.1c-1.31-3.75-2.58-8.32-4.81-11.91,7.29,6.65,12.27,15.3,12.72,25.61l-3.64-.2s0-.09,0-.15C617.42,241.91,616,237.45,614.47,233Zm-4.89-14a.65.65,0,0,0-.38-.28l-4-2.87c-1.55-1.18-3.15-2.32-4.77-3.43l-65.11-46.82-26.25-18.86.9.13,99.12,70.15L623,227c.08.65.15,1.29.21,1.94-1-.67-1.91-1.39-2.87-2.07ZM623,218.2c-.18-.74-.37-1.47-.57-2.2l32.09-27.54,2.23-.09-26.91,23.7-5.94,5.23C623.66,217.52,623.34,217.88,623,218.2Zm14-4-8.88,7.64c-1.06.91-2.37,2.49-3.68,3.44a1.55,1.55,0,0,0,0-.21l0-.17c-.08-.46-.16-.92-.25-1.37L624,223l40.64-35,2.84-.1Zm32.78-26.34,2.88-.11-32.58,28c-5,4.31-10.34,8.44-15.16,13-.08-.67-.16-1.34-.26-2Zm-20.24,25.34,30.07-25.64,0,0h.5l-22.82,20.81h0l-3.42,3.11c-4.15,3.78-8.67,7.39-12.57,11.47,0,0,0,0,0,.05-.35.37-.72.75-1.06,1.13-5.51,6.1-8.86,14.81-10.1,22.91l-3.47-.11C625.52,231,638.91,222.27,649.54,213.19Zm69.71-4.44-4.1-.05,5.08-10.62h3.31Zm5.8-10.67h2.65q-1.53,5.37-3.08,10.74l-3.86,0ZM713.6,208.69l-3,0,5.73-10.58h2.29Zm-4.54-.05-3.72,0,6.24-10.51h3.2Q711.92,203.35,709.06,208.64Zm-5.35-.06-4-.05L707,198.08h3Zm-5.73-.07-4,0,7.74-10.38h3.56Zm-5.77-.06-3.68,0,8.74-10.31h2.66Zm-5.51-.06-2.86,0,9.21-10.25h2.37Zm-4.74,0-3.39,0,9.76-10.19h2.82Zm-5.33-.05-3.15,0,10.18-10.13h2.71Q681.5,203.2,676.63,208.29Zm-5.13,0-2.72,0,10.53-10.06h2.34Zm-4.74-.05-2.27,0,10.84-10h1.93Zm-4.33,0-2.82,0,10.91-9.94h2.72Zm-1.51,1.4-5.07,4.68c-3,2.81-6.43,5.5-9.3,8.55l-3,0c4.2-4.06,8.68-7.87,13-11.79l1.56-1.43Zm-1.87,3.65,3.93-3.63,2.31,0-5.15,4.92c-2.84,2.72-6,5.35-8.65,8.34l-2.92,0C651.93,219.48,655.59,216.4,659.05,213.2Zm4.22.28,4.05-3.87,2.77,0-6,6c-2.33,2.31-5.3,4.7-7.64,7.32l-3.05,0C656.57,219.62,660,216.6,663.27,213.48Zm3.15,1.8,5.65-5.62,3.21,0-4.65,4.86c-2.65,2.76-5.57,5.47-8.07,8.44l-4.21-.05C660.89,220.25,663.92,217.76,666.42,215.28Zm7.25-1.86,3.55-3.71,3.48,0-6.09,6.77c-2,2.24-4.15,4.45-6,6.55l-4.11,0C667.42,219.73,670.61,216.61,673.67,213.42Zm3.79,2,5.12-5.7,2.93,0-4.34,5.12c-2.24,2.64-4.77,5.2-6.75,8.06l-.11.18h-.26l-3.48,0C672.84,220.62,675.2,218,677.46,215.46Zm6.59-1.77,3.29-3.88,3.82,0-3.49,4.67c-2.19,2.94-4.2,5.81-6,8.73l-5.68-.08C678.2,220.14,681.47,216.73,684.05,213.69Zm6-.05,2.81-3.78,4.11,0-3.48,5c-1.94,2.78-4.18,5.52-6,8.43l-4.21-.06C685.34,220.08,687.64,216.92,690.09,213.64Zm5.81.33,2.82-4.05,4.16.06-5.1,8.6c-1.31,2.21-2.11,3.42-3.14,4.86l-5.42-.08C691.28,220.15,693.73,217.08,695.9,214Zm4.15,3.55,4.46-7.52,3.78,0L704.54,217c-1.19,2.2-2.44,4.37-3.63,6.56l-4.52-.06C697.59,221.66,698.92,219.42,700.05,217.52Zm6.56-1.41q1.65-3,3.28-6.05l3,0-3.16,6.6c-1.09,2.28-2.36,4.55-3.31,6.91l-3.91-.05C703.89,221.07,705.27,218.6,706.61,216.11Zm5.19-.4,2.67-5.59,4.21,0c-.91,2.26-1.82,4.51-2.72,6.77s-1.7,4.46-2.44,6.78l-5.59-.09C709,221.11,710.61,218.19,711.8,215.71Zm6.2-.07,2.19-5.45,4,.05c-.66,2.29-1.31,4.58-2,6.87s-1.23,4.44-1.76,6.71l-5.44-.08C715.93,221,716.93,218.28,718,215.64Zm6.09.16,1.59-5.54,4.64.05Q729,217.09,728,223.93l-6.07-.09C722.6,221.13,723.33,218.44,724.09,215.8Zm2-7,3.09-10.76H733q-1.26,5.37-2.35,10.81Zm8.32-10.75h4.11q-.84,5.43-1.59,10.88l-4.88-.06Q733.14,203.48,734.4,198.09Zm5.53,0,3.4,0c-.15,3.65-.3,7.29-.44,10.94l-4.56-.06Q739.1,203.54,739.93,198.1Zm.21-1.26c.53-3.35,1.08-6.7,1.68-10.05l2,0q-.19,5-.41,10.05Zm-1.43,0-4,0c.8-3.38,1.65-6.73,2.52-10.06H738l2.42,0Q739.5,191.81,738.71,196.84Zm-5.46,0h-3.71q1.44-5,2.89-10.05h3.33C734.89,190.08,734.05,193.44,733.25,196.81Zm-5.18,0h-2.5q2-5,4-10H731Q729.52,191.77,728.07,196.79Zm-4,0h-3.2q2.4-5,4.79-10h2.44Zm-4.76,0h-2.21q2.71-5,5.41-10h1.58Zm-3.81,0h-3.13l5.91-10h2.62Zm-4.77,0h-2.83l6.91-9.92,1.82,0Q713.67,191.78,710.72,196.75Zm-4.54,0h-3.49l7.36-9.86,3,0Zm-5.24,0h-2.51l8.33-9.83h1.52Zm-4.36,0h-2.29l8.69-9.67a.56.56,0,0,1,0-.08l1.85,0Zm-4.19,0h-2.73l9.28-9.69,2.18,0Zm-4.69,0h-2.64l9.66-9.61,1.41,0h0l.79,0Zm-4.65,0h-2.27l10-9.53,1.93,0Zm-4.32,0h-1.88l10.22-9.44,1.58,0Zm-4,0h-2.68l10.21-9.32,2.64-.08Zm-32.65,27.37,3.2.05c-.19.21-.38.42-.55.64-4.92,6.15-7.38,14.59-8.28,22.38l-5-.15C632.83,238.83,636.27,230.11,642.11,224.13Zm5.07.07,3.13,0-.48.6c-4.75,6.29-7.27,14.68-7.89,22.54l-4.06-.13C638.82,239.13,641.55,230.18,647.18,224.2Zm22.15.3,4.08.05c-4.2,7-5.76,15.65-5.74,23.64l-4.29-.14C662.83,239.62,663.67,231,669.33,224.5Zm5.71.07,5.81.08a44.58,44.58,0,0,0-6.55,23.75l-5.22-.17C669.06,240.26,670.65,231.43,675,224.57Zm13.1.55c.07-.13.14-.25.22-.37l5.28.08c-4.65,6.43-4.68,16.47-4.68,24l-5.34-.17C683.19,240.94,684.16,232,688.14,225.12Zm33.49.12,6.2.09A188.92,188.92,0,0,0,726,250.05l-6.19-.2C718.77,241.64,719.8,233.33,721.63,225.24Zm7.82-1.29q1-6.84,2.31-13.62l5,.06c-.07.48-.14,1-.2,1.43-.55,4-1.12,8.11-1.62,12.2Zm6.68,1.5,6.08.1-1,25-6.15-.2A142.37,142.37,0,0,1,736.13,225.45Zm.17-1.4c.54-4.43,1.17-8.84,1.76-13.19,0-.15.05-.3.07-.45l4.7.06q-.29,6.84-.56,13.66Zm7.32,1.52,4.86.07-.11,25.12-5.77-.18Zm.06-1.42q.29-6.83.56-13.66l4.31.06-.06,13.67Zm.62-15.07.45-11h3.85l-.05,11Zm.5-12.22q.19-5,.41-10l3.44,0c0,3.34,0,6.69,0,10Zm-140-54.52c0-3.71-.09-7.43-.13-11.14l2.16-.28V142.1Zm2,1.17v37.82l-1.6.08-.42-37.66Zm1.42,37.75V130.74l2.34-.3v50.7Zm6.43-38.09v37.77l-1.23.06-1.45.08V143.27C612.84,143.25,613.73,143.22,614.63,143.17ZM612,141.86v-11.6l2.68-.34v11.84C613.73,141.8,612.84,141.84,612,141.86Zm7.08,1v37.86l-3,.15V143.09C617,143,618,143,619,142.86Zm-3-1.18V129.74l3-.39v12.1Zm7.1.81.42,38-3.11.17V142.74Zm-2.69-1.16V129.17l2.54-.32q.07,6.1.14,12.23Zm4.09-.39q-.07-6.13-.14-12.27l4.94-.64v12.46Zm4.8,1v38.26l-4.36.24-.42-38.06C626.15,142.19,627.75,142,629.34,141.91Zm5.12-1-.57,39-3.13.17V127.85l3.9-.5-.18,12.58A.8.8,0,0,0,634.46,140.89Zm4.35-.22q-.19,19.5-.4,39l-3.11.17q.29-19.44.58-38.87Zm-2.91-1.11.18-12.39,2.87-.37-.12,12.45Zm6.88.69v39.19l-2.95.16q.2-19.54.4-39.08Zm-2.54-1.15q.06-6.24.13-12.48l2.41-.31v12.52Zm7.06.67V179.2l-3.11.17V140.1Zm-3.11-1.09V126.13l3.11-.4v12.63Zm7.21.66V179l-2.68.14v-39.5Zm-2.68-1.13V125.55l2.68-.34v12.71Zm6.22.75V178.8l-2.12.11V139.19Zm-2.12-1.19V125l2.12-.27v12.79Zm3.53,41V124.58l3.81-.49v54.45Zm7.35-41.3v40.94l-2.13.1V137.53Zm-2.13-1.31V123.91l2.13-.27V136Zm7.08,1.08v40.94l-3.54.16V137.37ZM665.11,136V123.46l3.54-.46v12.79Zm9,1q-.25,20.49-.5,41l-3.55.15v-41Zm-4.05-1.22v-12.9l4.23-.54q-.09,6.63-.16,13.25Zm11,.9v41l-6,.23q.26-20.51.5-41Zm-5.49-1.16q.09-6.68.16-13.36l4.17-.53h0l.72-.09.44-.06V135.2Zm6.9,42.13V121.23l4-.53v56.76l-1.77,0Zm9.8-41.87v19.44c-1.46,0-2.91,0-4.36,0V136Zm-4.36-1.16v-14l4.36-.59v14.39Zm4.36,22V177.3l-4.36.12V156.59C689.33,156.62,690.78,156.61,692.24,156.57Zm6.24-21.22V154.9c-1.61.08-3.22.16-4.83.22V135.64Zm-4.83-1.13V119.74c1.61-.21,3.22-.42,4.83-.61v14.81Zm4.83,22.1v20.84l-4.83.1V156.53C695.26,156.48,696.87,156.4,698.48,156.32Zm4.82-21.25v19.62l-3.4.14V135.27Zm-3.4-1.21V119l3.4-.38v15.08Zm3.4,22.24v21l-3.4.07V156.25C701,156.19,702.17,156.14,703.3,156.1ZM704.71,177V118.43l3.29-.29q.46,29.42.92,58.84Zm4.93-44.87q-.12-7.08-.23-14.15c1.3-.1,2.6-.19,3.9-.26v14.18Zm3.67,1.18v43.57l-3,0q-.33-21.69-.67-43.38Zm3.7-.23v43.76l-2.29,0V133.26Zm-2.29-1.27V117.69l2.29-.12V131.7Zm6.93,1v44l-3.22,0V133Zm-3.22-1.21V117.5l3.22-.16v14.07Zm7.61.93v44.27l-3,0v-44.1Zm-3-1.23v-14c1,0,2-.08,3-.12v14Zm5.7,1.06.51,44.42h-1.83V132.46Zm-1.32-1.33v-14l1.14,0q.07,7,.16,13.93ZM730,117l3.68-.14q.27,30,.56,59.91l-3.55,0Zm5.22,13.93q-.06-7.05-.13-14.11l3.39-.11q.06,7.08.13,14.15Zm3.4,1.34q.21,22.25.41,44.47l-3.38,0q-.21-22.2-.41-44.41Zm1.4-1.44q-.06-7.08-.13-14.17l4-.11v14.2Zm3.82,1.34V176.7l-3.39,0q-.21-22.25-.41-44.49Zm4.66-.1q-.21,22.32-.41,44.63l-2.83,0V132.12Zm-3.24-1.35V116.5l3.38-.08-.13,14.22Zm11.31,1.18v44.79h-7.06q.19-22.34.4-44.66Zm-6.64-1.27q.06-7.11.13-14.22l6.51-.1v14.18ZM758,176.67V116.28l3.83,0,1,60.43H758Zm5.47-46.21q-.11-7.11-.22-14.23h3.1l.12,14.29Zm3,1.48.39,44.72h-2.67l-.72-44.78Zm1.4-1.39q-.06-7.16-.13-14.32h3.67v14.41Zm3.54,1.49v44.63h-3.14L767.88,132Zm5.23.11v44.53h-3.82v-44.6Zm-3.82-1.49V116.24l3.82,0v14.46Zm8.06,1.58V176.7l-2.83,0v-44.5Zm-2.83-1.47V116.29l2.83,0v14.5Zm6.87,1.55v44.4h-2.63V132.27Zm-2.63-1.47v-14.5c.88,0,1.75.05,2.63.06v14.5Zm4,45.88V116.45l3.8.08v60.23Zm8.54-44.14V176.8l-3.33,0V132.38ZM791.54,131v-14.4l3.33.11v14.5Zm7.72,1.9v44l-3,0V132.68Zm-3-1.6V116.73l3,.12v14.61Zm8.2,1.93v43.74l-3.82-.06V133Zm-3.82-1.66V116.91l3.82.17v14.71Zm9.6,2q-.37,21.75-.76,43.49L805.9,177V133.29Zm-4.37-1.69V117.16c1.55.08,3.1.16,4.65.26q-.12,7.36-.25,14.73Zm5,45.21L812,117.52l3.54.25v59.45ZM819,134.54v42.81l-2.12-.08V134.34Zm-2.12-1.62v-15l2.12.19v15.06Zm6.71,2.07q.25,21.27.5,42.56l-.68,0-3-.12V134.68Zm-3.17-1.72V118.19l3,.28.18,15.1Zm4.57.44-.18-15.08c1.09.11,2.18.22,3.27.35q.07,7.51.17,15Zm3.27,1.73q.26,21.15.49,42.29l-3.25-.12q-.24-21.24-.5-42.49Zm1.41-1-.18-15.31,3.2.43v58.35l-2.52-.12q-.26-21.27-.49-42.54A.79.79,0,0,0,829.71,134.46Zm6.87,1.82v41.85l-2.43-.12v-42.3Zm-2.43-2V119.77c.81.11,1.62.24,2.43.36v14.7Zm6,2.86q-.14,20.59-.26,41.19l-1.68-.1H838V136.62Zm-2.14-2v-14.8l2.25.36-.1,14.95Zm5.94,2.86v40.53l-2.65-.16q.13-20.47.26-40.94Zm-2.38-2,.1-15.06,2.28.4v15.22Zm5.43,2.73v40l-1.64-.11V138.35Zm-1.64-1.84V121.59l1.64.3v15.4Zm4.68,1.83q-.42,20.1-.85,40.19l-.78-.06v-56.7l1.61.32.37.09q-.17,7.53-.32,15.06A.74.74,0,0,0,850,138.73Zm6.13,1.77-.51,39.07c-.51-.06-1-.13-1.52-.18q.58-19.56,1.19-39.12Zm-.79-1.69q.23-7.35.44-14.71l.56.16q-.09,7.39-.19,14.78Zm-1.41-.39-2.49-.7q.15-7.4.31-14.78c.88.23,1.76.48,2.63.74Zm0,1.45-1.2,39.37-2.13-.2q.43-19.93.85-39.86Zm4.63,1.3q-.22,19.37-.47,38.72l-1-.15.51-38.85Zm-1-1.74q.09-7.35.19-14.69l1,.34-.18,14.63Zm4.13,2.62v38.42l-2.22-.38q.22-19.26.46-38.53Zm-1.74-2,.18-14.53,1.56.6v14.41Zm4.64,2.76V181c-.54-.09-1.06-.17-1.49-.26V142.45ZM863.12,141V126.74l1.53.68a.71.71,0,0,0,0,.21v13.76Zm6.69-2.58c-2.08,4.5-2.07,6.39-2,11.39q.18,11.55.38,23.1c0,2.77-.28,5.83.14,8.57,0,.11,0,.34.07.6a9.28,9.28,0,0,0-2.4-.81V128.11l.56.31a19,19,0,0,1,5.44,5.11C872.31,134.82,871.05,135.7,869.81,138.4Zm-.68-13.2a.7.7,0,0,0,.26,1,5.07,5.07,0,0,1,3.21,5.34c-1.54-2.47-5.12-4.22-7.56-5.39-1-.51-2.09-1-3.17-1.41-7.22-3-15.07-4.52-22.69-5.79-6.3-1-12.64-1.83-19-2.43a.79.79,0,0,0-.73-.08c-6.34-.58-12.71-1-19.08-1.24a.77.77,0,0,0-.75,0c-4.8-.2-9.6-.33-14.39-.42-26.19-.49-53-.52-79.11,2.08-17.86,1.79-35.7,4.22-53.52,6.67a.74.74,0,0,0-1.1.15l-7.92,1.09a.78.78,0,0,0-.4,0q-9.63,1.32-19.25,2.56l-19.66,2.52a.75.75,0,0,0-.89.11L545,137.42q-2.13-4.62-4.28-9.23l.15,0H541c7.39-.66,14.77-1.88,22.12-2.82l23.17-3a.71.71,0,0,0,1.38-.17h0L644.52,115c36.85-4.7,73.37-8.85,110.58-9.92a552,552,0,0,1,58.81,1c6.34.5,12.77,1.11,19.17,2a.73.73,0,0,0,.56.08c5.7.94,11.4,2,17,3.46a.59.59,0,0,0,.32.08c2.68.69,5.35,1.43,8,2.28l1.4.45c1.39.49,2.76,1,4.12,1.56C868.29,117.74,871.39,120.45,869.13,125.2ZM786.24,86.34c7.45.26,14.84.76,22.21,1.4q1.26,8,2,16.06c-8.05-.65-16.11-1-24.1-1.25Q786.58,94.47,786.24,86.34Zm-3.73-26.61a193.43,193.43,0,0,0-22.59.16c-.09-1.44-.17-2.88-.26-4.32-.35-5.37-.73-10.75-1.21-16.12,4.85.1,9.67.29,14.41.54l6.26.31A183.73,183.73,0,0,1,782.51,59.73Zm-2-19.36c5.61.27,11.2.55,16.78,1a190.12,190.12,0,0,1,5.89,20.24c-5-.46-9.91-.89-14.82-1.4-1.48-.16-3-.28-4.44-.38A196.58,196.58,0,0,0,780.49,40.37ZM594.27,85.94l.39-1.3,22-4c-2.09,6.79-3.9,13.74-5.33,20.76l-19.37,2.73c-.69.09-1.37.2-2,.3C591,98.19,592.52,92,594.27,85.94Zm-5.89,18.73c-6.75,1-13.43,2.26-20.13,3.38a190.88,190.88,0,0,1,5.06-19.53Q583,86.76,592.6,85l.51-.09A186.18,186.18,0,0,0,588.38,104.67Zm29.34-22.84.45-1.45q10.7-1.93,21.4-3.82a206.35,206.35,0,0,0-4.83,21.63c-1.55.17-3.1.36-4.64.58l-17.33,2.44C614.13,94.66,615.81,88.18,617.72,81.83Zm22.85-3.63c.18-.63.35-1.27.53-1.9q6.2-1.08,12.39-2.14c3.5-.6,7-1.16,10.49-1.73-1.93,7.41-3.56,15-4.78,22.58-7.53,1.59-15.29,2.18-23,3C637.34,91.33,638.82,84.69,640.57,78.2Zm.94-3.34a147.58,147.58,0,0,1,7-19.36c.9-.17,1.81-.34,2.71-.49q9.7-1.57,19.33-3.39a187.13,187.13,0,0,0-5.94,18.5c-.07.26-.13.52-.2.78l-1.13.18Q652.36,72.9,641.51,74.86Zm23.83-2.07c0-.2.11-.4.16-.61q11.1-1.8,22.22-3.54c.78-.12,1.56-.27,2.34-.4-1.83,7.27-3.34,14.71-4.47,22.2-8.39,1.09-16.71,2.45-24.9,4.27C661.9,87.32,663.48,80,665.34,72.79Zm.56-2.13a175.6,175.6,0,0,1,6.2-19.34q12.43-2.34,24.83-4.94a170.62,170.62,0,0,0-6.5,20.39C682.28,68.2,674.07,69.34,665.9,70.66Zm32.62-24.61q7.51-1.56,15-3.17l2-.4a193.32,193.32,0,0,0-5,20.47c-6.24.78-12.43,2.44-18.62,3.56A165.86,165.86,0,0,1,698.52,46.05Zm18.65-3.88A166.93,166.93,0,0,1,736,39.89c-.82,7.27-1.41,14.57-1.9,21.87-2.49.16-5,.3-7.46.41-4.83.21-9.79.13-14.61.61A191,191,0,0,1,717.17,42.17Zm18.17,22.22c0-.53.07-1.06.11-1.59,7.71-.57,15.42-1.16,23.14-1.54q.7,11.7,1.17,23.43c-8.55.11-17.08.48-25.52,1.13Q734.65,75.1,735.34,64.39Zm23.13-5.33c0,.3,0,.61,0,.91-7.67.47-15.32,1.16-23,1.69.49-7.29,1.07-14.59,1.89-21.85,6.52-.39,13.08-.48,19.6-.38C757.6,46,758.06,52.51,758.47,59.06ZM737.38,29.23c-.48,3.22-.89,6.45-1.27,9.68-6.08.42-12.15,1-18.2,1.75l-.27,0a136.35,136.35,0,0,1,5-13.2c5.08-.81,10.17-1.52,15.29-2.05C737.76,26.72,737.57,28,737.38,29.23Zm-21.3,11.69c-5.59.8-11.15,1.87-16.7,3.06a96.5,96.5,0,0,1,7-13.56c4.86-.94,9.73-1.84,14.61-2.64A137.18,137.18,0,0,0,716.08,40.92Zm-18.33,3.41c-8.36,1.81-16.69,3.85-25.07,5.55a91,91,0,0,1,7.26-14.3l2.36-.43c7.44-1.4,14.86-2.93,22.29-4.38A100.66,100.66,0,0,0,697.75,44.33ZM671.08,50.2c-2.69.54-5.38,1-8.08,1.47-4.67.76-9.32,1.64-14,2.57a92.44,92.44,0,0,1,8.2-14.33c6.89-1.57,13.89-2.75,20.86-4A97.14,97.14,0,0,0,671.08,50.2ZM647.4,54.57c-7.09,1.45-14.14,3-21.21,4.57a97.23,97.23,0,0,1,7.68-13.54c7.15-1.67,14.24-3.52,21.4-5.23A94.31,94.31,0,0,0,647.4,54.57Zm-.58,1.27A152.17,152.17,0,0,0,640,75.13L618.6,79a165,165,0,0,1,6.73-18C632.52,59.45,639.61,57.33,646.82,55.84ZM617.07,79.15a.36.36,0,0,1,0,.11c-7.27,1.31-14.56,2.62-21.85,3.87h-.07a133.81,133.81,0,0,1,6.78-17.71c7.28-1.17,14.57-2.55,21.78-4.07A171.64,171.64,0,0,0,617.07,79.15Zm-23.49,4.16,0,.1Q583.67,85.14,573.8,87A138.37,138.37,0,0,1,581,69c5.64-1.09,11.3-2.09,17-2.94l2.27-.35A136.7,136.7,0,0,0,593.58,83.31ZM572.8,85.49c-.19.59-.37,1.19-.57,1.78q-6,1.13-12,2.22c-2,.38-4.08.71-6.11,1a122.34,122.34,0,0,1,7.54-17.37q8.76-2.06,17.59-3.81A140.53,140.53,0,0,0,572.8,85.49Zm-16.06,6.08,15-2.76a183.48,183.48,0,0,0-5,19.48c-3.59.59-7.18,1.14-10.8,1.59-2.43.3-4.85.65-7.25,1a144.11,144.11,0,0,1,4.88-18.78Zm9.76,18c-.89,4.73-1.57,9.48-2,14.23L554.84,125h0l-8.22,1c.38-4.47,1-9,1.81-13.66C554.43,111.34,560.47,110.42,566.5,109.52Zm1.5-.22c6.58-1,13.16-2,19.71-3.08l.41-.07A145.88,145.88,0,0,0,586.34,121l-5.28.67-15.12,1.93C566.38,118.8,567.08,114,568,109.3Zm21.61-3.39c7.13-1.19,14.26-2.23,21.4-3.18-1,5.11-1.8,10.24-2.36,15.38l-4.46.57-16.43,2.1A144.45,144.45,0,0,1,589.61,105.91Zm22.89-3.38c7.32-1,14.65-1.85,22-2.74-.78,5-1.34,10.08-1.65,15.12-7.58,1-15.16,2-22.74,3C610.65,112.78,611.47,107.64,612.5,102.53ZM636,99.61c6.54-.79,13.07-1.59,19.6-2.47,1.13-.15,2.25-.32,3.38-.49-.77,5-1.35,10-1.75,15-7.65,1-15.29,2-22.93,3C634.56,109.68,635.15,104.63,636,99.61Zm24.46-3.19c8.31-1.33,16.65-3.07,24.92-4.22-.76,5.38-1.31,10.78-1.6,16.16q-12.57,1.47-25.12,3.12C659,106.45,659.62,101.43,660.41,96.42ZM686.8,92c6.57-.87,13.24-1.62,19.93-2.31-.51,5.42-.82,10.86-.87,16.28q-10.36,1-20.71,2.22C685.45,102.79,686,97.38,686.8,92Zm.25-1.75c1-6.63,2.34-13.21,3.89-19.67.2-.87.42-1.74.64-2.62,6.23-1.18,12.46-2.7,18.69-3.45-.43,2.28-.83,4.57-1.19,6.85-.89,5.54-1.64,11.15-2.2,16.77C700.26,88.74,693.64,89.41,687.05,90.25Zm21.1-.7c4-.4,7.91-.78,11.85-1.12q6.38-.56,12.77-1-.3,8.16-.43,16.32-12.54.84-25.06,2.06C707.33,100.41,707.64,95,708.15,89.55Zm22.68-3.47c-7.46.65-15,1.24-22.52,1.92.55-5.45,1.27-10.89,2.13-16.27q.6-3.69,1.29-7.4c1.09-.11,2.19-.19,3.28-.24,6.34-.27,12.68-.71,19-1.18q-.76,11.49-1.21,23C732.16,86,731.49,86,730.83,86.08Zm3.35,1.27c8.53-.56,17.08-1,25.63-1.15q.33,8.14.53,16.3-13.3.3-26.58,1.18Q733.88,95.51,734.18,87.35ZM760,61.19c7.55-.34,15.11-.46,22.68-.13.19,1.59.37,3.16.54,4.7.72,6.36,1.25,12.78,1.54,19.21-7.83-.28-15.71-.39-23.59-.31Q760.71,72.93,760,61.19ZM784.81,86.3c.23,5.41.28,10.82.12,16.22-7.73-.2-15.46-.2-23.18,0q-.19-8.16-.52-16.31Q773,85.94,784.81,86.3Zm-.61-24.23-.12-.94c6.45.34,12.94,1.07,19.41,1.86.28,1.19.56,2.36.82,3.51,1.5,6.48,2.81,13,3.89,19.63-4.06-.26-8.11-.46-12.11-.67-3.29-.18-6.59-.32-9.9-.44C785.84,77.33,785.16,69.65,784.2,62.07ZM805,63.18c4.63.57,9.25,1.17,13.85,1.66,2,.22,4,.54,6.07.89a151.61,151.61,0,0,1,5.77,22.89,185.59,185.59,0,0,0-21-2.4c-1.21-7.56-2.74-15.08-4.53-22.48C805.07,63.55,805,63.36,805,63.18Zm4.92,24.69q8.69.78,17.37,1.8c1.22.14,2.44.32,3.66.52a152.87,152.87,0,0,1,1.74,16.25c-6.89-1.11-13.84-1.93-20.8-2.52Q811.15,95.88,809.9,87.87Zm22.49,2.58a114.48,114.48,0,0,1,14.81,4q1.81,7.74,3,15.57c-3-.73-6-1.39-9-2-2.37-.48-4.76-.93-7.15-1.33A154.72,154.72,0,0,0,832.39,90.45Zm-.24-1.54A155.3,155.3,0,0,0,826.49,66c4.42.84,8.83,1.92,13.22,3.07.53,1.49,1.06,3,1.55,4.47,2.11,6.32,4,12.77,5.57,19.3A130.77,130.77,0,0,0,832.15,88.91Zm-6.23-24.6a133.16,133.16,0,0,0-9.08-20.61c4.17.74,8.32,1.65,12.43,2.8a124.94,124.94,0,0,1,9.8,20.84C834.69,66.16,830.3,65.08,825.92,64.31Zm-1.6-.28h-.1c-6.46-1-13-1.68-19.6-2.3a203.26,203.26,0,0,0-5.89-20.25c5.47.45,10.91,1.05,16.31,1.94A130.62,130.62,0,0,1,824.32,64ZM798.2,40a90.76,90.76,0,0,0-7.31-15.41c4.3.62,8.57,1.38,12.83,2.39a104.7,104.7,0,0,1,10.42,14.84C808.86,41,803.54,40.43,798.2,40Zm-1.47-.11c-5.51-.41-11-.68-16.58-.95a93.29,93.29,0,0,0-5.44-16.05L776,23c4.43.36,8.82.8,13.18,1.37A85.06,85.06,0,0,1,796.73,39.9Zm-18-1c-6.85-.33-13.64-.81-20.45-.89-.44-4.76-1-9.51-1.61-14.25a122.21,122.21,0,0,1,16.47-.9A89.21,89.21,0,0,1,778.77,38.88ZM756.88,38c-2.12,0-4.24,0-6.38.12-4.32.21-8.64.43-13,.71q.44-3.76,1-7.52c.28-1.95.55-4,.87-6q3.15-.32,6.31-.53c3.18-.22,6.43-.56,9.69-.91.07.71.13,1.36.21,1.95C756.09,29.87,756.51,33.93,756.88,38Zm-17.3-14c.92-5.65,2.19-11.35,4.67-16.35l2.37-.52h0l4.21-.92h0c3.3,3.46,3.93,11.07,4.41,16.54C750,23.12,744.8,23.53,739.58,24Zm-1.41.13c-4.34.4-8.68.83-13,1.36l-1.64.23a102.93,102.93,0,0,1,8.83-15.47L742.53,8A63.67,63.67,0,0,0,738.17,24.13ZM721.83,26c-4.82.75-9.61,1.8-14.39,2.85a60.54,60.54,0,0,1,15.85-16.57l7.05-1.54A104,104,0,0,0,721.83,26Zm-16.3,3.26c-2.49.55-5,1.07-7.47,1.54L681,34c4.52-6.71,10.14-12.44,17.23-16.26L710.56,15,720,13A64.9,64.9,0,0,0,705.53,29.21ZM679.1,34.32l-16.72,3.16c-1.32.25-2.64.52-4,.8a59.63,59.63,0,0,1,16.85-15.56l18.66-4.08A53.56,53.56,0,0,0,679.1,34.32Zm-22.71,4.42c-7.18,1.64-14.27,3.66-21.44,5.34a58.24,58.24,0,0,1,17.43-16.35l19-4.16A63.08,63.08,0,0,0,656.39,38.74Zm-23.48,5.81c-6.95,1.57-14,2.92-21,4.24a59.55,59.55,0,0,1,19-16.38l10-2.19,7.46-1.63A62.61,62.61,0,0,0,632.91,44.55Zm-8.65,3.16q3.82-.76,7.62-1.64a101.67,101.67,0,0,0-7.38,13.44c-7.26,1.58-14.54,3.1-21.88,4.39a90.58,90.58,0,0,1,8-13.36C615.17,49.57,619.72,48.61,624.26,47.71ZM600.92,64.19c-6.44,1.1-12.8,2-19.14,3.17A88.55,88.55,0,0,1,589.36,55c6.42-1.26,12.83-2.64,19.22-4A94.07,94.07,0,0,0,600.92,64.19Zm-20.86,3.5c-3.07.59-6.14,1.24-9.2,2-2.82.73-5.64,1.41-8.47,2.07a97.43,97.43,0,0,1,9.07-13.68c5.31-.79,10.6-1.72,15.89-2.74A93.23,93.23,0,0,0,580.06,67.69Zm-19.49,4.53-8.94,2.08A92.22,92.22,0,0,1,563,59.22c2.17-.25,4.33-.52,6.5-.83A99.74,99.74,0,0,0,560.57,72.22Zm-.72,1.35a126,126,0,0,0-7.3,17.19c-3.29.51-6.56,1-9.79,1.68a113.11,113.11,0,0,1,8-16.61Q555.27,74.66,559.85,73.57ZM552,92.37a147.07,147.07,0,0,0-4.79,18.76q-5.26.84-10.47,1.94a130.59,130.59,0,0,1,5.39-19C545.39,93.41,548.67,92.91,552,92.37Zm-16.74,21q-3.9.84-7.79,1.81,1.59-6.53,3.56-12.93c.55-1.79,1.12-3.65,1.74-5.55a57,57,0,0,1,7.74-2.29A131.23,131.23,0,0,0,535.28,113.39ZM535,115q-1.1,5.86-1.63,11.65l-8.18-.46c.57-3.13,1.23-6.26,2-9.37C529.74,116.12,532.35,115.51,535,115Zm1.48-.32q5.24-1.09,10.5-2c-.81,4.58-1.4,9.13-1.78,13.58l-4.41.56c-1.11.06-2.23.08-3.34,0l-2.68-.14C535.12,122.7,535.69,118.67,536.46,114.63Zm326.1-14.82c.66,3.09,1.2,6.21,1.57,9.34.14,1.21.85,3.9.61,5.42l-.41-.18a11.85,11.85,0,0,0-2.43-.92l-1.19-.41c-3-1-6-1.92-9-2.7q-1.14-7.74-2.94-15.42c4.55,1.54,9,3.23,13.48,4.84A.55.55,0,0,0,862.56,99.81ZM857.3,82.4a114.89,114.89,0,0,1,4.92,15.88c-4.59-1.67-9.19-3.36-13.84-4.91-1.19-5-2.54-9.87-4-14.71-.91-3-1.89-6.06-2.94-9.12,3.82,1,7.64,2.07,11.44,3A104.93,104.93,0,0,1,857.3,82.4ZM852,70.89c-3.7-1-7.43-2-11.18-3.07a124.42,124.42,0,0,0-9.28-20.63q2.49.75,5,1.63A111,111,0,0,1,852,70.89ZM834.47,46.62c-1.33-.44-2.68-.86-4-1.25a75.65,75.65,0,0,0-5.32-7.62A122.33,122.33,0,0,1,834.47,46.62ZM817.76,31.94c.2.16.39.31.59.49a62.15,62.15,0,0,1,9.55,11.82c.11.17.2.34.31.51-4.06-1.09-8.15-2-12.27-2.65A109.29,109.29,0,0,0,806,27.56c.77.2,1.55.39,2.33.61,3,.84,5.67,1.32,8.09,2.82Zm-7.14-4.88c-2.07-.56-4.19-1-6.23-1.47q-1.95-2.27-4-4.41C803.87,23,807.3,25,810.62,27.06ZM784.79,14.27q5.82,2.18,11.41,4.84,3,2.84,5.83,5.94c-4.06-.91-8.23-1.73-12.31-2.3a53.29,53.29,0,0,0-7.91-9.55C782.8,13.55,783.8,13.9,784.79,14.27ZM766.66,8.59q5.88,1.52,11.64,3.42a47.89,47.89,0,0,1,9.64,10.52,108.55,108.55,0,0,0-13.73-.74,54,54,0,0,0-9.09-13.62C765.65,8.32,766.16,8.47,766.66,8.59Zm-4.23-1.23a.3.3,0,0,0,.07.1,51.42,51.42,0,0,1,10.18,14.33c-5.3.08-10.61.45-16.11.85-.65-4.7-.93-12.69-4.17-16.82l.33-.11.64-.06C756.14,5.53,759.37,6.44,762.43,7.36Zm-7.29-4.69c.13.06.07.09,0,0ZM607.48,34.46c.68-.25,1.3-.67,2-.9.4-.14.82-.2,1.23-.32,2.71-.78,5.53-1.29,8.28-1.93l33.67-7.88L732,4.87c4.6-1.08,11.53-3.55,15.59-3.48a33.63,33.63,0,0,1,4.76.83,14.93,14.93,0,0,0,1.91.33l.48,0a6.22,6.22,0,0,1-2.11,1.78c-.16.08-.34.15-.51.22-.35,0-.7.08-1,.14h0c-.2,0-.4.06-.6.11l-4.72,1h0l-2.07.45a.58.58,0,0,0-.18,0L723,10.85a.43.43,0,0,0-.19,0L675,21.35h0l-3.07.67-17.62,3.85C639,29.2,623.66,32,608.72,35.35a12.91,12.91,0,0,1-1.59-.75Zm3.07,2.41,15.93-3.48a62.86,62.86,0,0,0-16.6,15.79q-5.93,1.11-11.83,2.24c-2.35.45-4.69.93-7,1.41A55.8,55.8,0,0,1,610.55,36.87Zm-21.87,5.31a139.43,139.43,0,0,1,17.5-4.59,59.39,59.39,0,0,0-17.29,15.67c-5.32,1.1-10.64,2.19-16,3.1A73.88,73.88,0,0,1,588.68,42.18Zm-9.63,3.94q2.19-1,4.46-2a78.28,78.28,0,0,0-12.72,12.56c-2.08.33-4.16.63-6.26.89A72.89,72.89,0,0,1,579.05,46.12ZM569,51.59a80.14,80.14,0,0,0-6.83,6.46l-.11.12a94.28,94.28,0,0,0-12.3,16.58q-4.23,1-8.43,2.08A101.69,101.69,0,0,1,569,51.59Zm-28.69,27q4.26-1.14,8.55-2.24a116.39,116.39,0,0,0-7.68,16.47,64.72,64.72,0,0,0-7.8,2.23A96.89,96.89,0,0,1,540.27,78.55Zm-4.52,6.29c-1.54,3.6-2.85,7.26-4,10.79-.82.33-1.63.68-2.44,1.05A115.72,115.72,0,0,1,535.75,84.84Zm-7.4,13.87c.92-.47,1.84-.92,2.77-1.32l-.3.93c-1.86,5.67-3.51,11.45-4.9,17.29-1.35.35-2.7.71-4,1.09A124.06,124.06,0,0,1,528.35,98.71Zm-6.9,19.57q2.06-.59,4.11-1.11c-.67,3-1.28,5.92-1.81,8.89l-4-.24C520.22,123.28,520.8,120.76,521.45,118.28Zm-2.89,9a.71.71,0,0,0,.26.06c6.64.32,13.56,1.26,20.23.94l.08,0a1.37,1.37,0,0,0,.23.4h0c.56,1.19,1.11,2.38,1.66,3.57h0l2.28,4.9-44.31-10a12.3,12.3,0,0,0,1-1.35C506.16,126.32,512.35,126.88,518.56,127.28ZM2.31,28l396.42,75.84,51,9.76,23.3,4.46,12.21,2.34c4.19.8,9.35,1,13.32,2.55a2,2,0,0,0,1.36.17,3.19,3.19,0,0,0-.76,1.24l-.09.19a.46.46,0,0,0-.13.18h0c-.13.2-.27.39-.41.58h0a2.66,2.66,0,0,0-.3.43l-.79,1.12L110.85,56.46,22.55,40.38l-.7-.13-.58-.1L4.36,37.07a3.51,3.51,0,0,1-2-1.81C1.62,33.73,2.17,30.17,2.31,28Zm0,20.87c0-.45-.07-.94-.11-1.46a2.25,2.25,0,0,1,1.45-1.54l4.37.7,6.55,1,14.19,2.27c1.7.27,11.25,1.09,11.44,1.54.48,1.09-.85,5.1-1,6.22-.23,1.33-.45,2.67-.67,4l-30.24-4c-2.3-.3-4.6.1-5.9-2.27V50.1c0-.25,0-.56,0-.88l0-.18C2.33,49,2.32,48.92,2.3,48.86Zm.05,13.45v-4l36.72,4.85a.33.33,0,0,0,.14,0h0a.48.48,0,0,0,.22-.06l0,0a.53.53,0,0,0,.14-.12l.07-.11,0-.08s0-.07,0-.12l1.89-11.3c0-.35-.09-.81-.5-.87L2,44.18c0-2.56.24-5,1.67-5.8L161.08,67l22.82,4.16,51,9.29,153.67,28,106.8,19.44a5.88,5.88,0,0,0,1.31.24l.26.05a.14.14,0,0,1,.08.07q-.53,5.67-1,11.34c-.06.61-.11,1.21-.17,1.81h0c0,.49-.09,1-.13,1.47a1.8,1.8,0,0,0-.19.64,3.3,3.3,0,0,0-1.27-.36l-.36,0a.58.58,0,0,0-.34,0l-.69-.1a.56.56,0,0,0-.55-.07c-1.49-.2-3-.4-4.48-.62l-.23-.17a.56.56,0,0,0-.74,0l-3.64-.55-.33-.24a.56.56,0,0,0-.79.07l-3.76-.6-.38-.28a.58.58,0,0,0-.81.08l-8.76-1.47c-3.12-1.09-6.63-1.32-9.89-1.85L438.37,134l-1.93-.32-39.22-6.45c-4-1.33-8.91-1.46-13.06-2.14L365,121.91l-51-8.38c-4.61-1.6-10.36-1.71-15.15-2.49l-19.28-3.17-2.85-.47h0l-40.87-6.72-18.34-3c-2.16-.83-5.06-.83-7.33-1.21l-6.49-1.06L171.3,90.08c-1-.16-2.6-.76-3.68-.6L146,85.92a.47.47,0,0,0-.38-.06L104.4,79.09c-3.44-1.52-8.87-1.46-12.21-2l-48.69-8h0L31.07,67a.54.54,0,0,0-.28-.05L12.71,64a.5.5,0,0,0-.34-.06ZM12.86,84.48Q8.72,74.29,4.57,64.11l7.33,1.2q8.35,19.55,16.72,39.1l-5.8-.7-2.24-.28Q16.71,94,12.86,84.48Zm6.73,20.25,4.62,11.37c.36.88.73,1.75,1.09,2.63l-1.39-.16-6.76-.79-5.31-14ZM1.74,102.56l8.69,1.06,5.46,14L10,117c-1-.12-2.22-.38-3.43-.59ZM7.12,118l9.35,1.09q2,5.2,4,10.41l-9.76-1.1Zm4.13,11.87L21.07,131q2.92,7.59,5.78,15.21l-1.72-.17-8.56-.87Zm2.95,37.4q-3.75-10.86-7.57-21.71l9,.91c2.81,7.37,5.89,14.88,7.73,22.48l-8.9-.76C14.39,167.92,14.3,167.6,14.2,167.3Zm.76,2.37,8.76.75c.22,1,.44,2.07.61,3.11,2.18,13,4.32,27.31,1.73,40.39l-10.79-.6C19,199.23,19.19,183.63,15,169.67ZM2.2,290.49q.07-17.48.13-34.93,0-10.87.08-21.75l23.51,1.12Q22,265.68,18.1,296.44L6,296.51C1.88,296,2.19,294.52,2.2,290.49ZM157,241.12l9.81.45-11.07,54-9.34.06q5.31-27.18,10.6-54.36A1.08,1.08,0,0,0,157,241.12Zm49.32,2.28,8,.37q-7.5,25.71-15,51.4a.49.49,0,0,0,0,.17l-7.79.05,14.82-51.48A.67.67,0,0,0,206.3,243.4Zm85.2,3.89,5,.22q-3.15,23.64-6.29,47.28l-6.5,0q3.93-23.58,7.85-47.15A.72.72,0,0,0,291.5,247.29Zm53.82,2.43,5.73.26-9.9,44.5-7.31,0,11.61-44.21A.63.63,0,0,0,345.32,249.72ZM412,252.67l6.81.3-8.1,41.09-3.09,0a.49.49,0,0,0,.05-.16q2.18-20.55,4.34-41.1A.76.76,0,0,0,412,252.67ZM442.05,254l5.48.24L441,293.73a.65.65,0,0,0,0,.14l-5.39,0,6.75-39.22A.72.72,0,0,0,442.05,254Zm43.38,39.61-5.52,0q1.68-18.92,3.35-37.84l2.2.1,2.15.09Q486.52,274.8,485.43,293.6ZM489,256.05l2.8.12v37.4l-5,0Q487.94,274.82,489,256.05Zm-10.52,37.6-4,0,5.79-38,1.57.07Zm.31-37.62c-1.58,3.54-1.39,9.15-2,13l-3.75,24.67h-.24a29.18,29.18,0,0,0-4.77,0h-1.5c0-.11.05-.19.07-.24,1.38-3.92,1.28-9.09,1.86-13.19q1.2-8.57,2.41-17.11c.16-1.18.67-6.51.88-7.88l3.79.16a11,11,0,0,0,2.27.1l1.07.05A3.33,3.33,0,0,1,478.81,256Zm-13.62,37.7-5.7,0q4.49-19.31,8.95-38.61l2.17.09Q467.9,274.49,465.19,293.73Zm-7.15,0-5,0q4.54-19.47,9.1-38.93l4.85.22Zm-6.43,0h-2.34q3.6-19.59,7.21-39.2l4.25.19Zm-3.77,0-5.48,0q3.28-19.8,6.58-39.58l6.12.27Q451.44,274.19,447.84,293.83ZM441,254.31q-3.4,19.71-6.79,39.42a.61.61,0,0,0,0,.19l-6.43,0q2.91-20.16,5.81-40.33l7.6.33A.52.52,0,0,0,441,254.31Zm-9.71,5.5q-.94,6.6-1.9,13.2-1.52,10.47-3,20.95h-4l-.58,0h-1.18c0-2.47.74-5.21,1.06-7.64l3.54-26.18c.22-1.58,0-5,.79-6.6l.28-.05a14.23,14.23,0,0,1,3,0c.85,0,1.7,0,2.55,0l.57,0C432.4,255.46,431.49,258.15,431.25,259.81ZM419.16,294l-7,0q4-20.51,8.09-41l4.44.2Q421.91,273.62,419.16,294Zm-8.57-41.19q-2.18,20.55-4.34,41.1a.41.41,0,0,0,0,.16l-4.44,0a.74.74,0,0,0,.56-.63q2.58-20.5,5.17-41l3.09.14A1.29,1.29,0,0,0,410.59,252.82ZM401,293.48a.53.53,0,0,0,.4.63l-5.32,0,4-42,6.08.26Q403.57,272.95,401,293.48Zm-6.34.68-5,0q1.47-21.19,2.95-42.37l6.11.26Q396.66,273.13,394.64,294.16Zm-6.45,0-7.06.05h-.52q2.55-21.36,5.11-42.73l5.43.24Q389.68,273,388.19,294.19Zm-9,.06-5.35,0,6.51-43,3.95.17Q381.76,272.86,379.2,294.25Zm-.64-40.46q-2,13.35-4,26.69c-.62,4.1-1.62,8.32-1.88,12.45a12,12,0,0,1-.3,1.36l-5.3,0,2-18.38c.88-8.07,2.55-16.44,2.69-24.56,0-.19,0-.35,0-.48l7.27.32C378.93,252.08,378.68,253,378.56,253.79Zm-12.94,40.54-9.89.06,9.63-43.77,5,.22Q368,272.59,365.62,294.33Zm-11.34.07-5.19,0q5-22.05,9.92-44.09l4.91.22Q359.1,272.48,354.28,294.4Zm-6.64,0-5,0q4.93-22.22,9.89-44.43l5.09.23Q352.62,272.35,347.64,294.44Zm-3.56-44.5-11.7,44.59-5.25,0,10.68-45.18,6.41.29A.69.69,0,0,0,344.08,249.94Zm-18.4,44.63-5.37,0L329.13,249l7.24.32Q331,271.94,325.68,294.57Zm-6.81,0-4.22,0,7.35-46,5.71.25Q323.3,271.77,318.87,294.61ZM320,252.13l-4.65,29.07c-.66,4.13-1.27,8.27-2,12.39,0,.21,0,.67-.1,1a3,3,0,0,0-.44,0l-5.81,0q1.29-9.69,2.57-19.36c1.12-8.45,3.55-17.7,3.48-26.23a2.75,2.75,0,0,1,.09-.83l4.1.18a7.37,7.37,0,0,0,2.3.12h.09l.94,0A27.93,27.93,0,0,1,320,252.13Zm-14.4,42.57-6.05,0q3.57-23.37,7.12-46.76l5.09.23Q308.72,271.45,305.63,294.7Zm-7.47,0-6.56,0q3.15-23.59,6.29-47.2l7.4.33Q301.72,271.33,298.16,294.74Zm-8-47.44-7.92,47.54-6.44,0q3.82-24,7.66-47.95l6.73.3ZM274.4,294.88l-7.54.05q3.42-24.23,6.83-48.44l8.37.37Q278.24,270.88,274.4,294.88Zm-9,.06-5.25,0a.7.7,0,0,0,.09-.3l4.47-48.59,7.53.34Zm-6.57-.27a.75.75,0,0,0,0,.31l-9.82.06,7.71-49.32,6.55.3Q261.1,270.35,258.87,294.67Zm-4.76-40.81q-1.25,7.9-2.48,15.81l-4,25.35-5.06-.24c-.36,0-1.21.08-1.85,0v-.09c.19-3.31.89-6.66,1.33-9.94l4.32-32.21c.21-1.58,0-5.42.76-7.28h.29c.61.53,3.41.24,4.55.29s2.16.12,3.24.14h.24C255.62,248.2,254.47,251.56,254.11,253.86Zm-14.8,41.24-10.88.06q6.81-25.05,13.61-50.1l1.16.05,2.79.13Q242.65,270.17,239.31,295.1Zm-12.35.07-7.57.05,14.79-50.38a.39.39,0,0,0,0-.15l6.41.3Zm-9.05.06-7.88,0q7-25.51,14-51l8.78.41Q225.34,269.92,217.91,295.23Zm-9.35,0-7.79.05q7.5-25.71,15-51.42s0,0,0-.07l6.75.31ZM205,243.53q-7.45,25.93-14.92,51.87l-8.72.05q7.23-26.15,14.45-52.29a.72.72,0,0,0,0-.25l9.27.43C205.06,243.4,205,243.46,205,243.53Zm-25.11,51.93-3,0q3.79-26.55,7.58-53.09l10,.46Q187.16,269.16,179.88,295.46Zm1.74-43.21q-1.26,8.83-2.53,17.66-1.82,12.79-3.65,25.57l-7,0c.82-3.46,1.08-7.15,1.62-10.66q2.58-17,5.17-33.92c.28-1.86.13-6.37,1.1-8.33l.27-.07c1-.34,2.72,0,3.8,0,.51,0,1.8-.19,2.64-.13C183.16,245.54,182.06,249.19,181.62,252.25ZM167,295.54l-9.84.06q5.53-27,11.06-54l6.95.32Q171.09,268.75,167,295.54Zm-22,0a.33.33,0,0,0,0,.1l-6.78,0-2.71,0q5.4-27.56,10.79-55.11l9.32.43Zm-10.93.17-8.53.05q6.06-27.74,12.1-55.48a.27.27,0,0,0,0-.09l7.23.33Zm-10,.06-10.21.06,11.4-56.21,10.94.5Q130.13,268,124.07,295.8Zm-11.65.07-9.61.06,12.33-56.57a1.2,1.2,0,0,0,0-.19l8.69.41Q118.13,267.72,112.42,295.87Zm-11.06.06-8,.05q4.26-28.71,8.51-57.44l11.83.56ZM99,248.58q-1.35,9-2.68,18.08L92,296,84.1,296c.85-3.54,1.14-7.34,1.72-10.92Q88.7,267,91.6,248.81c.43-2.69.24-7.63,1.59-10.06a16.63,16.63,0,0,1,3.75.06c1.2,0,2.42-.06,3.62,0C100.74,241.81,99.44,245.71,99,248.58ZM82.65,296.05l-5.83,0,8.52-58.33,6.55.31Zm-7.24,0-8.36.05q3.49-29.46,7-58.92l9.89.47Q79.67,266.88,75.41,296.09Zm-9.78.06-9.88.06,8.09-59.48,8.81.42Zm-11.3.07-10.69.06q3.9-30.06,7.79-60.14l11,.53Zm-12.1.07-10.63.07q4.07-30.39,8.12-60.77l10.31.49Zm-12,.08-10.67.06q3.9-30.72,7.81-61.43l11,.52ZM2.19,298l28.08-.17a.78.78,0,0,0,.88,0l23.23-.14a.68.68,0,0,0,1.14,0l10-.07a.74.74,0,0,0,1.27,0l9.34-.06h0l6.35,0a.63.63,0,0,0,.64.49l9.42-.54h.17l8.73,0a.72.72,0,0,0,.87,0l10.13-.06a.7.7,0,0,0,1,0l54.07-.32h0l8.3,1a.28.28,0,0,0,.13,0h.06a.43.43,0,0,0,.16-.05.34.34,0,0,0,.11-.07l.06-.05a1,1,0,0,0,.1-.17v0a.58.58,0,0,0,.05-.14l.08-.54,32.08-.19a.74.74,0,0,0,.71,0l33.83-.2,4.86,0h.17l17.07-.11c.27.54,1.13.66,1.27,0l39.56-.24h0l7.58-.05h0l18.69-.11a.75.75,0,0,0,.74,0l14.41-.09a.72.72,0,0,0,1,0l17.54-.11h0l6.79-.05h0l21.85-.13a.76.76,0,0,0,.61,0l30.83-.18H427l38.29-.23a.64.64,0,0,0,.51.24l7.92-.29h0l12.53-.08,26.65-.16h0l5.94.53a.59.59,0,0,0,.66-.57H522a.69.69,0,0,0,1.17.37,2.66,2.66,0,0,0,.28-.38l27.49-.17h0l6.41,0h0l5.7,0,7.25-.05,13-.08a.63.63,0,0,0,.92,0l13-.08h0a.71.71,0,0,0,1.42,0v0l3,0,7.73,0h0l12.85-.08v6.58a1.2,1.2,0,0,0,0,.27v1.16l-58.31.53-43.76.4L270.58,305.4,22.12,307.66h0l-15.8.15c-2.89-.3-3.42-.14-3.92-3A43.13,43.13,0,0,1,2.19,298Zm527.05-40.19,4.69.2q-2.92,17.67-5.84,35.33s0,0,0,.06l-4.06,0c.31-1.17.39-2.52.57-3.44.78-4.12,1.42-8.28,2.06-12.42q1.47-9.56,2.79-19.12A.73.73,0,0,0,529.24,257.76Zm49.53,2.12,4.2.17-5.52,33-3.86,0q2.58-16.57,5.18-33.16Zm13.84,1.48a2.38,2.38,0,0,1,.08-.89l4.51.19q-1,9.7-1.91,19.4c-.37,3.73-.91,7.49-1.11,11.24,0,.4-.22,1.24-.23,1.65h-.15c-1-.24-3.43-.56-3.77,0H590c-.3-1.61.64-5.77.72-6.79l1.05-13.49C592,269,592.81,265,592.61,261.36Zm4.65,13v18.6h-1.83ZM588.73,293l-4,0c.2-1.1.2-2.36.32-3.33.47-4,.88-7.94,1.3-11.91q.92-8.73,1.78-17.48l3.13.13Q590,276.7,588.73,293Zm-3.55-17.45q-.6,5.81-1.24,11.61c-.19,1.63-.05,4.17-.6,5.87l-4.47,0,5.52-32.92,2.35.1Q586,267.87,585.18,275.53Zm-13,17.55-5.71,0q3.46-16.73,6.95-33.46l4,.17Q574.77,276.44,572.16,293.08Zm-7.16,0-3.91,0q4-16.84,7.94-33.69l2.94.13Q568.49,276.35,565,293.12Zm-5.37,0h-1.46q2.54-17,5.06-34l4.37.19Q563.61,276.27,559.63,293.15Zm-1-12.79c-.59,3.93-1.28,7.86-1.76,11.81a5,5,0,0,1-.12,1l-4.93,0a7.21,7.21,0,0,1,.1-1.08c.41-1.65.56-3.41.84-5.1q1.19-7.29,2.38-14.58c.65-4,1.67-8.05,2-12.07a8.41,8.41,0,0,1,.34-1.4l4.33.18Q560.24,269.76,558.66,280.36Zm-8.31,12.85-5.05,0q3.11-17.26,6.22-34.53l4.44.19Zm-6.48,0-3.48,0q3.12-17.38,6.23-34.77l3.48.15Q547,276,543.87,293.25Zm-4.91,0-3.47,0q2.37-17.54,4.75-35.07l5,.21Zm-4.88,0v0l-4.58,0q2.93-17.65,5.84-35.32l3.5.15Q536.45,275.74,534.08,293.29Zm-6-35.28q-1.17,8.46-2.46,16.91C525,279,524.4,283,523.7,287c-.25,1.42-.3,4.64-1.05,6.39l-3,0q1.83-18,3.65-35.89l4.9.21A.63.63,0,0,0,528.09,258Zm-6.32.66c-1,4.15-.91,8.91-1.34,13.14l-2.19,21.6-3.89,0a1.39,1.39,0,0,0-.74,0h-.07c.05-.62.26-1.44.29-1.78q.63-6.27,1.25-12.54.79-7.89,1.58-15.78c.16-1.65.5-3.38.5-5a3.85,3.85,0,0,1,.12-1l4.55.2A3.58,3.58,0,0,1,521.77,258.67Zm-9.53,34.77-3.87,0q2.56-18.2,5.11-36.38l2.38.1Q514,275.32,512.24,293.44Zm-5.28,0-2.8,0h0q2-18.32,4.09-36.61l3.82.16Q509.52,275.26,507,293.47Zm-4.21,0v0l-4.26,0s0,0,0,0q1.55-18.45,3.1-36.89l5.23.22Q504.8,275.14,502.75,293.48Zm-5.66,0s0,0,0,0l-3.87,0V256.23l7,.29Q498.66,275,497.09,293.48Zm101.59-.56v-32.2l3.62.16a.53.53,0,0,0,0,.18V292.9Zm5-32,3.13.13v31.8l-3.11,0V261.06C603.67,261,603.65,261,603.65,260.94Zm4.55,31.92V261.13l3.86.17v31.54Zm5.27,0V261.36l3.87.16V292.8Zm5.28,0V261.58l3.64.16c0,.3,0,.6,0,.9,0,1,0,2,0,3q0,7.14-.07,14.28l-.06,12.85Zm3.57,29.79c-12.81,1.55-26.22,1.09-39.11,1.63l-86.72,3.64-115,4.82L256.4,337.93l-117.35,4.93L49,346.64c-15,.62-30,1.09-44.93,1.88l-1.32.06-.18-29.3c0-2.24-.61-5.39-.05-7.51s1.61-2.49,3.34-2.54l32.46-.3,49.31-.45,126.49-1.15,178.23-1.62,94-.86,66.73-.61,38.3-.34,15.81-.15,6.78-.06h0l8.33-.08.13,13.25,0,4C622.41,321.69,622.25,322.31,622.32,322.59Zm.07-61.71c-.38,0-5.41-.78-6-.81l-3.06-.13a.75.75,0,0,0-1,0l-3.8-.16-10.37-.44a.42.42,0,0,0-.12,0L592,259a.5.5,0,0,0-.13,0l-.37,0-3.91-.16h-.06l-18.9-.8a.73.73,0,0,0-.36,0l-5.44-.23a.77.77,0,0,0-.23-.06l-5.84-.25a1,1,0,0,0-.23,0l-5.44-.23a.74.74,0,0,0-.44,0l-4.45-.19a.8.8,0,0,0-.46,0l-6-.25a.72.72,0,0,0-.48,0l-4.38-.19a.78.78,0,0,0-.5,0l-5-.21L523,256.1a.6.6,0,0,0-.29-.08l-6-.38a.57.57,0,0,0-.43.16l-3.5-.15h0l-11-.48a.72.72,0,0,0-1.29-.06l-7.59-.33a.93.93,0,0,0-.47,0l-3.34-.14a.72.72,0,0,0-1.14-.05l-4.89-.21a.77.77,0,0,0-.45,0l-2.51-.11a1,1,0,0,0-.3-.08l-8.28-.36a.79.79,0,0,0-.25.05l-2.46-.1c-.1-.68-1.19-.89-1.37-.1v0l-5.49-.24a.66.66,0,0,0-.46,0l-5.27-.23a.72.72,0,0,0-.48,0l-6.6-.29c-.26-.49-1-.61-1.24,0l-14.5-.63a.66.66,0,0,0-.32-.08h-1.46l-11.05-.48c-.09-.71-1.21-.94-1.37-.14v.08l-11.78-.52a.89.89,0,0,0-.43,0l-7.1-.32a.74.74,0,0,0-.42,0l-7.17-.32a.86.86,0,0,0-.36,0l-6.5-.3h-.21l-4.67-.2a.63.63,0,0,0-.62-.45h-8.65a.5.5,0,0,0-.13,0q-43.76-1.95-87.51-3.92c-.26-.47-1-.58-1.21-.05l-2.05-.1Q156.7,239.79,33.16,233.87L2.42,232.4c0-2.19,0-4.39,0-6.58h0v-.95c0-2,.24-2.88,2.69-3.34h0l25.16,1.31L52.41,224l61.91,3.24,28.84,1.51L243.78,234l161.34,8.45,82.93,4.33,77.48,4.06,16.08.84,14.51.76L606,253l5.91.31c2.58.14,5.29.54,7.87.42l1.13,0a2.59,2.59,0,0,0,.75,0l.48,0a6.59,6.59,0,0,1,.31.77Zm0-9.07a4.9,4.9,0,0,1-.3.58l-2.37-.13h0c-2.93-.45-6-.31-9-.47l-30.39-1.59L518.44,247l-64.2-3.36-73.13-3.82-242-12.67L13.58,220.55l-2.82-.15h0L4,220.05c-2.12-1.19-1.67-3.78-1.56-6l11.13.61a.71.71,0,0,0,1.32.07l91.39,5a.72.72,0,0,0,1.24.06l140.76,7.75,109.46,6a.75.75,0,0,0,1.06.06l65.3,3.59a.74.74,0,0,0,1,.06l69.67,3.83,4.14.23a.8.8,0,0,0,1,.06l117.57,6.47c1.64.09,4.42-.43,4.93.48Zm.9-9.63a35,35,0,0,0-8.78-17.8l8.84,6.36A64.32,64.32,0,0,1,623.33,242.18Zm.32,52.08q12,1.28,24,2.42a.8.8,0,0,0,.66.07c52.89,5.06,106,8.33,159.13,10.44,36.24,2,72.51,3.5,108.76,3.61q9.35,0,18.68-.15a.78.78,0,0,0,.88,0c4.47-.11,8.94-.26,13.41-.51,1.39-.08,3-.37,4.46-.46h1.24c-1.44,2-3.35,4.33-4,6.49H950q-46.74-.47-93.48-1.54c-56.65-1.21-113.35-2.65-169.92-6.09-20.89-1.27-42.32-2.09-62.9-6.18Zm46-30.9v33.12l-4.54-.34V263.2Zm-4.54-1.57v-5.25l4.54.18v5.22Zm45.95,1.57a.71.71,0,0,0-1.33-.05l-6-.2a.75.75,0,0,0-1.07,0L689,262.61a.77.77,0,0,0-1,0l-17-.58v-5.21q21.3.89,42.59,1.65l.09,5Zm2.7,1.5.63,34.92-3.29-.24V264.77Zm-4.07-.13v34.71l-5.75-.41v-34.5Zm-7.16-.25v34.45l-6.23-.45V264.27Zm-7.65-.26v34.16l-5.63-.42V264Zm-7-.24v33.87l-5.37-.4q.46-16.81.92-33.62Zm-5.87-.2q-.45,16.79-.91,33.57l-5.31-.4.66-33.36Zm-7-.24q-.32,16.65-.65,33.3l-3.27-.25V263.41Zm40.17-.05-.09-5,6.59.23v5Zm6.5,1.64v35.15l-5.84-.4-.63-35Zm1.42-1.37v-5q18.6.66,37.22,1.26l8.75.28v5Zm46,3v36.65l-8.75-.55V266.45Zm-10.17-.34v36.35l-7.87-.5V266.13Zm-9.28-.32v36.08l-6.48-.43L742,265.83Zm-7.89,35.56-6.62-.44V265.59l5.53.19Q741.15,283.71,741.7,301.64Zm-8-36.1v35.57l-5.47-.38q-.36-17.7-.74-35.4Zm-8-.27h.37q.36,17.69.74,35.36l-3.72-.26v-35.2Zm51,1.73v36.85l-6.18-.37V266.79Zm-6.18-1.62v-5l6.18.2v5Zm7.59.26v-5.06q22.88.74,45.74,1.44l0,5.18Zm45.79,3q.13,18.9.29,37.8l-5.67-.21-1.54-.08V268.37Zm-8.33-.28V306L811,305.8l-1.74-.09v-37.6Zm-7.63-.26v37.57l-5.74-.32V267.87Zm-7.15-.24v37.42l-6.52-.36V267.6Zm-7.93-.27V304.8l-6.47-.38V267.33Zm-7.88-.27v37.06l-6.87-.41V267.05Zm43.61.08-3.29-.11c0-1.73,0-3.46,0-5.18l6,.18v5.2Zm2.72,1.49v37.81l-5.71-.21q-.15-18.9-.29-37.8Zm1.41-1.35v-5.21l42.12,1.26v5.39Zm42.12,2.83v37.53l-5.3-.12q-.5-18.81-1-37.62Zm-13.23-.45,5.54.19q.49,18.82,1,37.64l-5-.11Q862.33,288.74,861.55,269.88Zm.13,37.68-6.74-.17q-.42-18.88-.82-37.76l6,.2Q860.91,288.7,861.68,307.56Zm-8.16-.21-5.15-.14L847.2,269.4l5.5.18Q853.12,288.47,853.52,307.35Zm-6.56-.18-6.58-.21q-.37-18.9-.73-37.82l6.13.21Q846.38,288.25,847,307.17Zm-8.73-38.08q.38,18.92.73,37.83l-6.3-.21V268.9Zm43.34,1.47V308l-5.37-.1v-37.5ZM876.2,269V263.6l5.37.15v5.43Zm24,2.2.91,0,3.52.12,1.62,37-4.61,0Zm0,37.06-4.41-.06q-.45-18.58-.89-37.18l3.86.13ZM906,271.39l4.42.15,1.44,36.8-4.24,0Zm5.84.2,5.14.17v36.6h-3.7Zm-.75-1.42h0l-5.83-.19h0l-5.83-.2h0l-5.22-.17h0l-5.81-.19h0l-5.31-.19v-5.43l34,1v5.6Zm-16.75,38L889,308.1V270.81l4.46.15Q893.92,289.58,894.36,308.17Zm-6.76-37.4v37.31L883,308V270.61ZM924.35,272v36.37h-5.94V271.81Zm-5.94-1.59v-5.61l5.94.17v5.64Zm11.49.37a.7.7,0,0,0-1.38,0l-2.76-.09V265l19.14.54,5.65.16v5.73Q940.21,271.12,929.9,270.79Zm20.65,2.07v35.41l-2.36,0V272.78Zm-3.77-.12V308.3l-2.73,0V272.65Zm-12.53-.41,3,.1q.91,18,1.82,35.92h-3.16C935.27,296.38,934.29,284.32,934.25,272.33Zm.19,36h-4.53V272.19l2.93.1C932.88,284.29,933.86,296.37,934.44,308.37Zm4.18-35.9,4,.13v35.74h-2.19Q939.53,290.41,938.62,272.47Zm-10.12-.32v36.24h-2.74V272.06Zm-104.07,69.4c-45.54-.61-91.16-1-136.48-6-19.53-2.18-39.54-4.8-58.37-10.69-1.28-.41-4.42-.91-5.74-1.9v-.32c.27-.69,0-3.51,0-4.31q-.06-7.21-.13-14.44c5.24,1.66,10.91,2.23,16.32,2.89,10.12,1.23,20.3,2,30.47,2.72,28.2,1.95,56.46,3.06,84.71,4,56.25,1.92,112.53,3,168.8,3.74l22.86.27a24.84,24.84,0,0,0,3.73.16c-.06,1.37.21,2.86.28,4.17q.24,4.13.47,8.25l.72,12.53C909.49,342.88,867,342.13,824.43,341.55Zm133-12.85c.36,3.53.85,7.08,1.08,10.62a6.64,6.64,0,0,0,.12,1,.16.16,0,0,0-.14,0c-1.22,1-3.59,1.35-5.11,2l0-.38h0c.28-1.31-.18-3.19-.26-4.52q-.57-10.2-1.16-20.4v0c1.47-1.19,2.68-3.68,3.71-5.71Zm-1.32-40q-.33,9.75-.67,19.5l-3.51,0V272.9l5.07.17C956.86,278.31,956.32,283.62,956.14,288.73ZM952,271.49v-5.73l2.62.07h.24l2.12.06c.13,1.9.16,3.83.13,5.77Zm5-7.07a.13.13,0,0,0,0,.06l-1.27,0h0c-2-.18-4.11-.12-6.14-.18l-23.31-.68q-86.33-2.55-172.63-5.41c-28-.95-56-1.92-83.94-3.07-7.43-.3-14.92-.48-22.4-.79-3.68-.19-7.37-.38-11.06-.61l-.55,0c-3.6-.25-7.2-.55-10.78-1-.21,0-.62,0-.94-.08a1,1,0,0,0-.07-.39v-4l12.74.41a.77.77,0,0,0,.84,0q29.57.93,59.12,1.89a.8.8,0,0,0,1,0l26.33.84,72.4,2.36a.8.8,0,0,0,.46,0l14.06.46a.75.75,0,0,0,1.11,0q29.25,1,58.51,2h.1l18.69.63a.67.67,0,0,0,.78,0l16.43.6a.73.73,0,0,0,1.19,0c3.82.14,7.65.27,11.47.42l7.53.28a.77.77,0,0,0,.81,0q8.63.33,17.25.7l2.1.09,3.35.17,6.86.38.2.05A17.51,17.51,0,0,1,957,264.42Zm3-20.54c0,.1,0,.2-.06.29a27.31,27.31,0,0,0-3,14.06c-2.47-.21-4.95-.37-7.42-.52a68.24,68.24,0,0,1,.71-11.54,19.91,19.91,0,0,1,4.13-9.52c1.86-2.13,2.16-1.74,4.81-1.74a56.38,56.38,0,0,1,7.12,0,3.42,3.42,0,0,1,2.34,1C965,237.13,961.16,240.32,960,243.88Zm18.37,29.62v59.17l-9.05,3.5c-1.54.6-4.12,1.08-5.43,2.1l-.14.13c-.23-5.3,0-10.68,0-16v-53c0-4,0-7.79-.43-11.74-.22-2.18-.47-4.37-.82-6.53-.29-1.75-1.33-3.9-1.4-5.59a3.25,3.25,0,0,1,.41-1.38,16.24,16.24,0,0,1,8.22-7.1.61.61,0,0,0,.13,0c2.43,1.11,4.52,7.59,5.56,10.88a.48.48,0,0,0-.16.08.58.58,0,0,0-.28.75,58.61,58.61,0,0,1,3.35,16.12c0,.29,0,.58,0,.87Zm1.3-9c0-.16,0-.32,0-.47a.89.89,0,0,0,0-.77c0-.52-.1-1.05-.17-1.57a64.28,64.28,0,0,0-1.92-11.8c5.62,1.86,10.53,5.23,13.45,10.57.82,1.51,1.16,3.14,1.84,4.68a.83.83,0,0,1,0,.15c-.23,0-.45,0-.68,0a50.54,50.54,0,0,0-6.51-.37h-.39Zm17.64,36c0,1-.08,2,0,3l-1,.09L979.76,305V297.1c0-1,.08-2,0-3l1-.09,10-.85,3.09-.26,2-.16c.27,0,.91,0,1.38,0-.05.66.08,1.71.08,2.12Zm1.27-24.74c-.19,1-1,1.63-1.25,2.6-.64,2.16,0,5.4,0,7.63a23.81,23.81,0,0,0,0,4.7,1.83,1.83,0,0,1,0,.47c-3.19-.21-6.8.6-10,.87l-7.58.64V283c0-2.88,0-5.82.06-8.78h.39c3,.61,6.72,0,9.75,0a79.4,79.4,0,0,0,8.59,0C998.52,274.72,998.6,275.57,998.56,275.8Z"/><path d="M112.76,77l41.46,8c.34.07.82-.09.87-.49L157,70.71c0-.34-.08-.81-.49-.87L115,64a.72.72,0,0,0-.87.49q-.95,5.83-1.88,11.68a.66.66,0,0,0,0,.14A.6.6,0,0,0,112.76,77Zm2.65-11.6.56.11c1.44.25,2.9.4,4.34.61l28.89,4.07,4.61.65a14.27,14.27,0,0,0,1.75.3,39,39,0,0,0-.59,3.93c-.32,2.33-.87,4.74-1,7.09a9.51,9.51,0,0,1-.11,1.4,20.06,20.06,0,0,1-3.33-.69l-12.89-2.49L113.73,75.8C114.15,72.53,114.12,68.28,115.41,65.44Z"/><path d="M223.2,95.14l36.19,6a.72.72,0,0,0,.89-.68V89.41a.71.71,0,0,0-.51-.68l-36.19-5a.72.72,0,0,0-.9.68V94.46s0,.05,0,.08A.56.56,0,0,0,223.2,95.14Zm.9-10.06c3.1-.2,7.22,1.1,10.17,1.51l17,2.38,5.52.76c.92.13,2.31.73,2.21.16.53,1.56-.15,5.31-.15,6.7,0,1-.09,2,0,3a1.83,1.83,0,0,1,0,.21c-2.95.24-7.54-1.45-10.19-1.89l-24.6-4.1V88.34C224.1,87.26,224,86.16,224.1,85.08Z"/><path d="M317.48,111.32a.66.66,0,0,0,.15.05l30.53,3.77c.38,0,.7-.36.7-.71v-8.86a.71.71,0,0,0-.51-.68L317.81,99.8a.72.72,0,0,0-.89.69v10.17A.64.64,0,0,0,317.48,111.32Zm2.22-9.78c1.83.46,3.79.64,5.65.95l13.72,2.28c1.78.3,6.39.23,8.31,1.21l.07.25a12,12,0,0,1,0,3.23c0,1.18-.11,2.41,0,3.59a3.19,3.19,0,0,1,0,.8c-2.09.25-5.78-.93-7.53-1.14L318.33,110v-4.47a39.42,39.42,0,0,0-.11-4.19C318.63,101.44,319.25,101.43,319.7,101.54Z"/><path d="M397.77,122.27a.74.74,0,0,0,.14,0l26.77,3.48c.38,0,.7-.37.7-.71v-6.33a.71.71,0,0,0-.52-.68l-26.76-4.32a.72.72,0,0,0-.89.68v7.18A.65.65,0,0,0,397.77,122.27Zm.85-4.74c0-.8,0-1.61,0-2.41,2,0,4.52.87,6.36,1.16l12.25,2c1.51.24,5.88.16,7.12,1.15-.88-.71-.38,1.84-.38,3,0,.26.11,1.23.08,1.88-2.44.25-5.7-.77-8.09-1.08L398.62,121Z"/><path d="M467.84,134.48l22.23,4.38a.72.72,0,0,0,.9-.68v-7.47a.72.72,0,0,0-.52-.68l-22.24-3.09a.72.72,0,0,0-.89.69v6.17s0,0,0,.08A.58.58,0,0,0,467.84,134.48Zm.89-6,15.32,2.13c1.31.18,4,.05,5.47.59a2.48,2.48,0,0,1,0,.57c0,.76,0,1.53,0,2.3v3.3l-20.83-4.1Z"/></g></g></svg>