<svg xmlns="http://www.w3.org/2000/svg" viewBox="0 0 1000 439.82"><title>Asset 8</title><g id="Layer_2" data-name="Layer 2"><g id="Layer_1-2" data-name="Layer 1"><path d="M403.44,261a.75.75,0,0,0,.38,1.39h95.95a.92.92,0,0,0,.25.05h96.16a.75.75,0,0,0,.38-1.39l-84.2-41.44-12-5.9-.07,0a.74.74,0,0,0-.71,0l-84.19,41.45ZM500,215.19l83.88,41.29L593,261H500.23a.92.92,0,0,0-.25-.05H407l81.39-40.06Z"/><path d="M455.35,322.83c-.06-.27-.2-.13,0,0Z"/><path d="M429.94,322.88c.39-.16,0-.44,0,0Z"/><path d="M451.56,321.18c0-.21-.08-.12,0,0Z"/><path d="M69,292.45H55.76a.75.75,0,0,0-.74.75v21.56a.75.75,0,0,0,.74.75H69a.67.67,0,0,0,.47-.19l.05,0,0-.05a.68.68,0,0,0,.19-.48V293.2A.76.76,0,0,0,69,292.45ZM56.46,314.3c.32.29-.08.53,0,0Zm11.81-20.44a6.52,6.52,0,0,0,0,1.53V314H60c-1,0-2.34.18-3.45.09h0a5.31,5.31,0,0,0,0-1.26V295.66c0-.34.11-1.14.09-1.67a25.68,25.68,0,0,0,2.6-.05h6c.92,0,2.07-.16,3.08-.09Zm0-.2c-.33-.29.08-.53,0,0Z"/><path d="M69,329.26H51.4a.75.75,0,0,0-.74.74v38a.75.75,0,0,0,.74.74H69a.67.67,0,0,0,.47-.18l.05,0,0,0a.68.68,0,0,0,.19-.48V330A.75.75,0,0,0,69,329.26Zm-.75,11.66v26.33H57.94a51.79,51.79,0,0,1-5.71,0H52.1a3.27,3.27,0,0,0,0-.41c.45-8.94,0-18,0-27,0-2.54-.73-6.55-.09-9.15a8.87,8.87,0,0,1,1.48,0c2.37.22,4.86,0,7.24,0,2,0,4.48.38,6.46,0a7.72,7.72,0,0,1,1-.08C69,333.77,68.27,337.76,68.27,340.92Z"/><path d="M62.39,384.86H48.24a.75.75,0,0,0-.74.74v30.87a.75.75,0,0,0,.74.74H62.39a.67.67,0,0,0,.47-.18l0,0,0,0a.68.68,0,0,0,.19-.48V385.6A.75.75,0,0,0,62.39,384.86Zm-.75,6.73v24.13c-3.78-.07-8-.63-11.62,0a2.6,2.6,0,0,1-1,0v-.14c-.15-1.65,0-3.41,0-5.07V388.6a18.93,18.93,0,0,0,.06-2.32,33.59,33.59,0,0,0,4,.07c2.36,0,5.29.49,7.61,0a2.39,2.39,0,0,1,1,0c0,.06,0,.11,0,.15C61.79,388.17,61.64,389.93,61.64,391.59Z"/><path d="M130.36,384.86h-10.1a.75.75,0,0,0-.74.74v35.23a.75.75,0,0,0,.74.74h10.1a.67.67,0,0,0,.47-.19l0,0,0-.05a.67.67,0,0,0,.19-.47V385.6A.75.75,0,0,0,130.36,384.86Zm-.75,11.48v23.74h-4.88a18.76,18.76,0,0,1-3.82,0l-.11,0c-.71-2.43.21-7.29.21-9.43V388.55a15.66,15.66,0,0,0,0-2.38c1.13.18,4.6.18,5.4.18a16,16,0,0,1,3.25,0h0C130.53,389,129.61,393.86,129.61,396.34Z"/><path d="M150.71,384.86H140.62a.75.75,0,0,0-.74.74v35.23a.75.75,0,0,0,.74.74h10.09a.64.64,0,0,0,.47-.19l0,0,0-.05a.67.67,0,0,0,.18-.47V385.6A.75.75,0,0,0,150.71,384.86ZM150,396.34v23.74h-4.88a18.85,18.85,0,0,1-3.83,0l-.1,0c-.71-2.43.2-7.29.2-9.43V388.55a17,17,0,0,0,.06-2.38c1.12.18,4.6.18,5.4.18a16,16,0,0,1,3.25,0h0C150.88,389,150,393.86,150,396.34Z"/><path d="M185.37,384.86h-10.1a.75.75,0,0,0-.74.74v35.23a.75.75,0,0,0,.74.74h10.1a.67.67,0,0,0,.47-.19l0,0,0-.05a.67.67,0,0,0,.19-.47V385.6A.75.75,0,0,0,185.37,384.86Zm-.75,11.48v23.74h-4.88a18.76,18.76,0,0,1-3.82,0l-.11,0c-.71-2.43.21-7.29.21-9.43V388.55a15.66,15.66,0,0,0,0-2.38c1.13.18,4.6.18,5.4.18a16,16,0,0,1,3.25,0h.05C185.54,389,184.62,393.86,184.62,396.34Z"/><path d="M205.72,384.86H195.63a.75.75,0,0,0-.74.74v35.23a.75.75,0,0,0,.74.74h10.09a.65.65,0,0,0,.47-.19l.05,0,0-.05a.67.67,0,0,0,.18-.47V385.6A.75.75,0,0,0,205.72,384.86ZM205,396.34v23.74h-4.89a18.76,18.76,0,0,1-3.82,0l-.11,0c-.7-2.43.21-7.29.21-9.43V388.55a15.66,15.66,0,0,0,0-2.38c1.13.18,4.61.18,5.4.18a16.14,16.14,0,0,1,3.26,0h0C205.89,389,205,393.86,205,396.34Z"/><path d="M239.94,384.86H229.85a.75.75,0,0,0-.74.74v35.23a.75.75,0,0,0,.74.74h10.09a.65.65,0,0,0,.47-.19l.05,0,0-.05a.67.67,0,0,0,.18-.47V385.6A.75.75,0,0,0,239.94,384.86Zm-.74,11.48v23.74h-4.89a18.76,18.76,0,0,1-3.82,0l-.11,0c-.7-2.43.21-7.29.21-9.43V388.55a15.66,15.66,0,0,0,0-2.38c1.13.18,4.61.18,5.4.18a16.14,16.14,0,0,1,3.26,0h0C240.11,389,239.2,393.86,239.2,396.34Z"/><path d="M260.3,384.86H250.21a.75.75,0,0,0-.75.74v35.23a.75.75,0,0,0,.75.74H260.3a.67.67,0,0,0,.47-.19l.05,0,0-.05a.67.67,0,0,0,.19-.47V385.6A.75.75,0,0,0,260.3,384.86Zm-.74,11.48v23.74h-4.89a18.76,18.76,0,0,1-3.82,0l-.11,0c-.7-2.43.21-7.29.21-9.43V388.55a15.66,15.66,0,0,0,.05-2.38c1.13.18,4.6.18,5.4.18a16,16,0,0,1,3.25,0h.05C260.47,389,259.56,393.86,259.56,396.34Z"/><path d="M294.32,384.86H284.23a.75.75,0,0,0-.74.74v35.23a.75.75,0,0,0,.74.74h10.09a.67.67,0,0,0,.47-.19l0,0,0-.05a.71.71,0,0,0,.18-.47V385.6A.75.75,0,0,0,294.32,384.86Zm-.74,11.48v23.74h-4.89a18.76,18.76,0,0,1-3.82,0l-.11,0c-.7-2.43.21-7.29.21-9.43V388.55a15.66,15.66,0,0,0,0-2.38c1.13.18,4.6.18,5.4.18a16.14,16.14,0,0,1,3.26,0h0C294.49,389,293.58,393.86,293.58,396.34Z"/><path d="M314.68,384.86h-10.1a.75.75,0,0,0-.74.74v35.23a.75.75,0,0,0,.74.74h10.1a.67.67,0,0,0,.47-.19l.05,0,0-.05a.67.67,0,0,0,.19-.47V385.6A.75.75,0,0,0,314.68,384.86Zm-.75,11.48v23.74h-4.88a18.76,18.76,0,0,1-3.82,0l-.11,0c-.71-2.43.21-7.29.21-9.43V388.55a15.66,15.66,0,0,0,.05-2.38c1.13.18,4.6.18,5.4.18a16,16,0,0,1,3.25,0h.05C314.85,389,313.93,393.86,313.93,396.34Z"/><path d="M348.34,387.33H338.25a.75.75,0,0,0-.74.75V423.3a.75.75,0,0,0,.74.74h10.09a.71.71,0,0,0,.47-.18l.05,0,0-.05a.69.69,0,0,0,.18-.47V388.08A.76.76,0,0,0,348.34,387.33Zm-.74,11.48v23.75h-4.89a19.5,19.5,0,0,1-3.82,0l-.11,0c-.7-2.43.21-7.29.21-9.43V391a15.63,15.63,0,0,0,.05-2.38c1.13.18,4.6.18,5.4.18a16.14,16.14,0,0,1,3.26,0h0C348.51,391.46,347.6,396.33,347.6,398.81Z"/><path d="M368.7,387.33H358.6a.75.75,0,0,0-.74.75V423.3a.75.75,0,0,0,.74.74h10.1a.71.71,0,0,0,.47-.18l.05,0,0-.05a.65.65,0,0,0,.19-.47V388.08A.76.76,0,0,0,368.7,387.33ZM368,398.81v23.75h-4.88a19.5,19.5,0,0,1-3.82,0l-.11,0c-.71-2.43.21-7.29.21-9.43V391a15.63,15.63,0,0,0,0-2.38c1.13.18,4.6.18,5.4.18a16,16,0,0,1,3.25,0h.05C368.87,391.46,368,396.33,368,398.81Z"/><path d="M343.41,327.87c.15-.15,0-.3,0,0Z"/><path d="M366.59,327c2.39,0-1.79-8.09-2.42-8.87a9.81,9.81,0,0,0-7.54-4,9.63,9.63,0,0,0-7.06,3.44c-.81.89-5.4,9.41-2.89,9.41a.75.75,0,0,0-.75.74v33.93a.75.75,0,0,0,.75.74h19.91a.63.63,0,0,0,.47-.18l.06,0,0,0a.68.68,0,0,0,.19-.48V327.73A.75.75,0,0,0,366.59,327Zm-.74,2.27a18.44,18.44,0,0,0,0,4v27.66H352.18a39.3,39.3,0,0,0-4.77.12,21.66,21.66,0,0,0,0-3.22V331.57a21.64,21.64,0,0,0,0-2.79,2.86,2.86,0,0,1,0-.59c-.08.13-.27.28-.7.28a.75.75,0,0,0,.74-.74c.3-5.19,2.93-12.11,9.21-12.11s8.92,6.95,9.22,12.11a.75.75,0,0,0,.74.74,1.34,1.34,0,0,1-.63-.11A2.51,2.51,0,0,1,365.85,329.26Z"/><path d="M366,328.36c-.06-.37-.28-.16,0,0Z"/><path d="M347.38,328.19c.1-.16,0-.28,0,0Z"/><path d="M287.66,327.87c.16-.15,0-.3,0,0Z"/><path d="M310.84,327c2.39,0-1.79-8.09-2.41-8.87a9.84,9.84,0,0,0-7.54-4,9.63,9.63,0,0,0-7.07,3.44c-.81.89-5.4,9.41-2.89,9.41a.75.75,0,0,0-.74.74v33.93a.75.75,0,0,0,.74.74h19.91a.67.67,0,0,0,.48-.18l.05,0,0,0a.68.68,0,0,0,.19-.48V327.73A.75.75,0,0,0,310.84,327Zm-.74,2.27a18.44,18.44,0,0,0,0,4v27.66H296.44a39.42,39.42,0,0,0-4.78.12,21.66,21.66,0,0,0,0-3.22V331.57a21.64,21.64,0,0,0,0-2.79,3.84,3.84,0,0,1,0-.59c-.08.13-.27.28-.7.28a.75.75,0,0,0,.74-.74c.3-5.19,2.93-12.11,9.22-12.11s8.92,6.95,9.21,12.11a.75.75,0,0,0,.74.74,1.34,1.34,0,0,1-.63-.11A2.51,2.51,0,0,1,310.1,329.26Z"/><path d="M310.21,328.36c0-.37-.28-.16,0,0Z"/><path d="M291.63,328.19c.1-.16,0-.28,0,0Z"/><path d="M233.54,327.87c.16-.15,0-.3,0,0Z"/><path d="M256.73,327c2.38,0-1.8-8.09-2.42-8.87a9.83,9.83,0,0,0-7.54-4,9.63,9.63,0,0,0-7.07,3.44c-.8.89-5.39,9.41-2.89,9.41a.75.75,0,0,0-.74.74v33.93a.75.75,0,0,0,.74.74h19.92a.67.67,0,0,0,.47-.18l.05,0,0,0a.68.68,0,0,0,.19-.48V327.73A.75.75,0,0,0,256.73,327Zm-.75,2.27a18.44,18.44,0,0,0,0,4v27.66H242.32a39.46,39.46,0,0,0-4.78.12,21.66,21.66,0,0,0,0-3.22V331.57a21.64,21.64,0,0,0,0-2.79,3.84,3.84,0,0,1,0-.59c-.07.13-.26.28-.7.28a.75.75,0,0,0,.74-.74c.3-5.19,2.93-12.11,9.22-12.11s8.92,6.95,9.21,12.11a.76.76,0,0,0,.74.74,1.34,1.34,0,0,1-.63-.11A2.51,2.51,0,0,1,256,329.26Z"/><path d="M237.51,328.19c.1-.16,0-.28,0,0Z"/><path d="M256.09,328.36c0-.37-.28-.16,0,0Z"/><path d="M178.91,327.87c.15-.15,0-.3,0,0Z"/><path d="M201.45,328.36c0-.37-.27-.16,0,0Z"/><path d="M202.09,327c2.38,0-1.8-8.09-2.42-8.87a9.83,9.83,0,0,0-7.54-4,9.63,9.63,0,0,0-7.06,3.44c-.81.89-5.4,9.41-2.9,9.41a.75.75,0,0,0-.74.74v33.93a.75.75,0,0,0,.74.74h19.92a.65.65,0,0,0,.47-.18.1.1,0,0,0,.05,0l0,0a.67.67,0,0,0,.18-.48V327.73A.75.75,0,0,0,202.09,327Zm-.74,2.27a18.44,18.44,0,0,0,0,4v27.66H187.68a39.25,39.25,0,0,0-4.77.12,21.66,21.66,0,0,0,0-3.22V331.57a23.61,23.61,0,0,0,0-2.79,2.86,2.86,0,0,1,0-.59c-.08.13-.27.28-.7.28a.77.77,0,0,0,.74-.74c.29-5.19,2.92-12.11,9.21-12.11s8.92,6.95,9.22,12.11a.75.75,0,0,0,.74.74,1.43,1.43,0,0,1-.64-.11A2.43,2.43,0,0,1,201.35,329.26Z"/><path d="M182.88,328.19c.1-.16,0-.28,0,0Z"/><path d="M124.78,327.08c.15-.15,0-.3,0,0Z"/><path d="M148,326.2c2.39,0-1.79-8.09-2.41-8.87a9.84,9.84,0,0,0-7.54-4,9.66,9.66,0,0,0-7.07,3.43c-.81.9-5.4,9.42-2.89,9.42a.76.76,0,0,0-.75.74v33.93a.75.75,0,0,0,.75.74H148a.63.63,0,0,0,.47-.18l.06,0,0-.05a.64.64,0,0,0,.19-.47V326.94A.75.75,0,0,0,148,326.2Zm-.74,2.27a18.35,18.35,0,0,0,0,4v27.67H133.55a41.31,41.31,0,0,0-4.77.11,21.53,21.53,0,0,0,0-3.21V330.78a21.64,21.64,0,0,0,0-2.79,3.84,3.84,0,0,1,0-.59c-.08.13-.27.28-.7.28a.75.75,0,0,0,.74-.74c.3-5.19,2.93-12.11,9.22-12.11s8.91,6.95,9.21,12.11a.75.75,0,0,0,.74.74,1.2,1.2,0,0,1-.63-.12A2.54,2.54,0,0,1,147.22,328.47Z"/><path d="M128.75,327.4c.1-.16,0-.28,0,0Z"/><path d="M147.33,327.56c-.05-.36-.28-.15,0,0Z"/><path d="M48.61,261.09H64.34a.67.67,0,0,0,.47-.18.29.29,0,0,0,.09-.09.67.67,0,0,0,.18-.47V245.51a.75.75,0,0,0-.74-.74H48.61a.75.75,0,0,0-.74.74v14.84A.75.75,0,0,0,48.61,261.09Zm.74-14.84H63.6v13.36H49.35Z"/><path d="M68.5,163.54h7.12a.71.71,0,0,0,.47-.18l0,0,0,0a.69.69,0,0,0,.18-.47V144.3a.76.76,0,0,0-.74-.75H68.5a.76.76,0,0,0-.75.75v18.5A.75.75,0,0,0,68.5,163.54Zm.74-18.5h5.64v17H69.24Z"/><path d="M84.82,160l8.31,2.28a.76.76,0,0,0,.94-.72V148.06a.75.75,0,0,0-.54-.72l-8.31-2.47a.76.76,0,0,0-.94.71v13.66A.75.75,0,0,0,84.82,160Zm.94-13.37L90.43,148c.69.2,1.41.48,2.12.66,0,.22,0,.48,0,.67a102.78,102.78,0,0,0,0,11.24l-4.67-1.28c-.7-.19-1.41-.37-2.11-.57a6.91,6.91,0,0,1,0-.84Z"/><path d="M100.35,160.84l4.41,1.39a.75.75,0,0,0,.94-.72V152.9a.75.75,0,0,0-.37-.64l-4.4-2.17a.32.32,0,0,0-.09,0h0a1,1,0,0,0-.23,0,.7.7,0,0,0-.73.6s0,.07,0,.1v9.42A.76.76,0,0,0,100.35,160.84Zm.94-8.92,2.15,1.06c.12.06.46.26.72.38a5.63,5.63,0,0,1,0,.59v6.55l-2.92-.92Z"/><path d="M570,322.68c0-.23-.07-.14,0,0Z"/><path d="M548.42,321.37c.25-.15.06-.34,0,0Z"/><path d="M566.18,321.15c0-.24-.08-.15,0,0Z"/><path d="M985.75,283.15V275.4c1.56-.86,3-2.58,4.29-3.65l9.74-8.25a.75.75,0,0,0-.53-1.27H984.16V245.56a.75.75,0,0,0-.74-.74h-6.87a5.66,5.66,0,0,1,0-1,1,1,0,0,0,0-.16l0,0a8.54,8.54,0,0,1,.69-.78,2.52,2.52,0,0,0,.89-2,35.41,35.41,0,0,0,.17-3.57,6.65,6.65,0,0,0,.73-.43l1.48-.85a.75.75,0,0,0-.18-1.36,20.29,20.29,0,0,0-6.28-.92,19.13,19.13,0,0,0-5,.92q-.2-14.73-.38-29.46L968.54,188a11.39,11.39,0,0,0-.21-2.22.61.61,0,0,0,.18-.48,25,25,0,0,0-.27-3.9l5.79-3.68a.75.75,0,0,0,.15-1.16l-6.52-7c.12-6.9-4.76-12.51-11.32-14.37h-.06c-.52-1-1.44-1.58-3.21-2-5.18-1.26-10.47,7.34-11.76-2.09-.58-4.3-.32-8.86-.46-13.21,3.23-3.53,4.06-7.5-.87-9,1.29-2.92,1.19-5.9-1.72-7.61a5.33,5.33,0,0,0-1.77-5.43.58.58,0,0,0-.36-.43c-5-2.21-5.14-8.75-4.41-13.28a.58.58,0,0,0,0-.23c-.67-6.64-5.64-10-11.49-10.56a3.5,3.5,0,0,0-2.84-3A12.84,12.84,0,0,0,919,85.92c.42-.89,1.18-2.07.53-3-1.41-1.9-4.36-1.76-6.22-.72-1.06.68-2.57,1.89-1.93,3.32a8.78,8.78,0,0,0,2.9,3.06,5.22,5.22,0,0,0-3,4.44,19.76,19.76,0,0,0-11,14.38s0,.06,0,.08a.87.87,0,0,0,0,.32c1,4.64-.23,9.35-2.35,13.5-2.6,1.92-4.09,4.28-3,7.1l0,0c-3.26,2.51-3.58,6.07-2.47,9.75-3,2.22-5.45,5.95-.61,7.22-.45,2.13-.1,4.48-.1,6.75,0,3.23.66,7.28-.31,10.27-2,6.26-9.22,9.82-15.23,10.28a.76.76,0,0,0-.74.74v11.08c-3.9.08-7.56,2.16-8.24,6.15l-4.38.81c-.7.13-.62,1-.17,1.36l3.32,2.53a18.94,18.94,0,0,0,1.75,1.37v28.8c0,5.11,0,10.22,0,15.33,0,.74-.12,2.21-.1,2.15a22,22,0,0,1-1.54,3.35c-.45.67.38.62-.31,1.08h-1.86a.75.75,0,0,0-.64,1.11c.25.46.51.91.76,1.36H615.82v-.54s0,0,0,0c1.26-.88,1.89-2.44,3.27-4.44a.74.74,0,0,0-.64-1.11h-3.51v-15a21,21,0,0,0,2.7-1.83.76.76,0,0,0,.15-1.17l-2.49-2.25a13.14,13.14,0,0,0-2.26-2,7.16,7.16,0,0,0-2.66-.31l-2.66-.17V206.64l2.72-1.7a.76.76,0,0,0,.27-1c-.41-.9-.82-1.8-1.22-2.7-.17-.39-.34-.78-.52-1.16l0,0c.52-1.26,3.46-2.79,4.57-3.68.47-.38.15-1.08-.33-1.24-3.29-1.16-8.16-4-11.65-4a7.17,7.17,0,0,0-2.35.63v-9c2.72-.08,2.92-2.26,2-4.61-1.59-3.94-4.66-7.9-9-8.84-5.28-1.14-10.36,2.54-12.3,7.31-1.32,3.27-1.72,6,1.88,6.15q0,4.65.08,9.29a3.86,3.86,0,0,0-2.36-.64,10.49,10.49,0,0,0-3,1V155.2c2.39-.45,4.74-2.62,6.83-3.83a.74.74,0,0,0,0-1.28l-6.82-3c.08-5.51,1.39-12.78-2.29-17.3a9.27,9.27,0,0,0-10.9-2.73c.14-1.9-.32-4.65-.32-5.89v-8.07l2.6-2.06s.05-.07.07-.1a.61.61,0,0,0,0-.8h0l0-.05q-4.2-6.13-8.41-12.25a.7.7,0,0,0-.4-.29h0l-.09,0h-.2a.48.48,0,0,0-.12,0c-1.86.33-3.65.66-5.47.87-3.69-19-16.17-35-33.42-41.63a.63.63,0,0,0-.07-.3,12.8,12.8,0,0,0-1.87-2.58V46.77a.73.73,0,0,0-.37-.64q-.88-.43-1.8-.84a10.44,10.44,0,0,0,0-3.49c-.3-.9-1.49-1.36-1.79-2-.9-2.08,0-6.53,0-9a.75.75,0,0,0-.75-.74h-1.63a.75.75,0,0,0-.74.74c0,2.71.3,6.38-.07,8.67l-.88.9,0,0c-.3-.79-.42-.35-.44-1-.08-2.1,0-4.22,0-6.33a16,16,0,0,1,.25-3c.34-1.65,1.16-2.69.58-4.54a5.92,5.92,0,0,0-1.28-2.21,6.12,6.12,0,0,0,1.53-4.59,4.15,4.15,0,0,0-2.25-3.33c-3.44-3.85-5-9.41-5.05-14.52a.67.67,0,0,0-.09-.33.75.75,0,0,0-1.43.28c-.07,5.11-1.61,10.67-5.05,14.52a4.15,4.15,0,0,0-2.25,3.33,6.11,6.11,0,0,0,1.53,4.59,5.91,5.91,0,0,0-1.24,2.12c-.56,1.69,0,2.78.36,4.37a11.2,11.2,0,0,1,.43,3.3c0,1.85.43,4.27,0,6.06a6.06,6.06,0,0,1-.44,1.22l0,0-.57-.58a53.52,53.52,0,0,1-.38-9,.75.75,0,0,0-.74-.74h-1.64a.75.75,0,0,0-.74.74c0,2.39.88,7.05,0,9-.32.69-1.49,1.14-1.79,2a10.44,10.44,0,0,0,0,3.49q-.92.4-1.8.84a.73.73,0,0,0-.37.64v7.07a12.43,12.43,0,0,0-1.87,2.58.63.63,0,0,0-.07.3c-17.24,6.57-29.72,22.63-33.41,41.6-1.82-.2-3.61-.51-5.48-.84a.48.48,0,0,0-.12,0h-.19l-.1,0h0a.72.72,0,0,0-.41.29q-4.2,6.12-8.41,12.25l0,0v0a.59.59,0,0,0-.06.62h0a.54.54,0,0,0,.1.16s0,.09.08.11l2.6,2.06v7.49c0,1.37-.51,4.42-.34,6.47a9.26,9.26,0,0,0-10.88,2.73c-3.68,4.52-2.37,11.79-2.29,17.3l-6.82,3a.74.74,0,0,0,0,1.28c2.11,1.22,4.44,3.37,6.83,3.82V192a20.7,20.7,0,0,0-2.72-.6c-1.54-.2-1.53.11-2.69.52q0-4.63.08-9.29c3.55-.18,3.2-2.82,1.91-6.06-1.91-4.83-7-8.51-12.33-7.4-4.25.89-7.26,4.75-8.88,8.56-1,2.39-1.07,4.82,1.85,4.9v9a7.71,7.71,0,0,0-2.26-.56c-3.49-.1-8.45,2.86-11.74,4-.48.16-.8.86-.33,1.24,1.11.89,4.05,2.42,4.57,3.68l0,0c-.18.38-.35.77-.52,1.16-.4.9-.81,1.8-1.22,2.7a.76.76,0,0,0,.27,1l2.72,1.7V221l-2.66.17a7.39,7.39,0,0,0-2.66.31,13.14,13.14,0,0,0-2.26,2l-2.49,2.26a.75.75,0,0,0,.15,1.16,20.37,20.37,0,0,0,2.7,1.83v15h-3.51a.75.75,0,0,0-.64,1.12c1.34,1.93,2,3.51,3.27,4.42a.43.43,0,0,0,0,.05v.54H136.05c.25-.45.51-.9.76-1.36a.75.75,0,0,0-.64-1.11h-1.39c-.3-.23-.48-.37-.6-.45.12,0,.21,0-.16-.53a23.29,23.29,0,0,1-1.32-3.1,5.94,5.94,0,0,1-.34-2.24v-44.4c.55-.33,1-.82,1.55-1.2l3.52-2.69c.45-.34.53-1.23-.17-1.36l-4.38-.8c-.68-4-4.34-6.08-8.24-6.16V173.43a.76.76,0,0,0-.74-.74c-6.05-.46-13.17-4-15.23-10.28-1-3-.31-7-.31-10.27,0-2.27.35-4.62-.1-6.75,4.84-1.27,2.33-5-.62-7.22a8.91,8.91,0,0,0-2.57-9.64c1.19-2.87-.3-5.27-2.93-7.23-2.12-4.15-3.36-8.86-2.36-13.51a.87.87,0,0,0,0-.32s0,0,0-.08A19.76,19.76,0,0,0,88.76,93a5.22,5.22,0,0,0-3.05-4.44,8.79,8.79,0,0,0,2.9-3.06c.64-1.43-.88-2.64-1.93-3.32-1.9-1.06-4.75-1.15-6.22.72-.67.86.12,2.09.53,3a12.92,12.92,0,0,0,1.59,2.48,3.48,3.48,0,0,0-2.84,2.94c-5.85.54-10.82,3.93-11.49,10.56a.58.58,0,0,0,0,.23c.73,4.57.56,11.07-4.41,13.28a.58.58,0,0,0-.36.43,5.33,5.33,0,0,0-1.77,5.43c-2.92,1.71-3,4.7-1.72,7.61-4.91,1.56-4.15,5.44-.87,9-.14,4.35.12,8.91-.47,13.21-1.28,9.4-6.52.81-11.75,2.09-1.78.43-2.7,1-3.22,2h-.05c-6.56,1.86-11.44,7.47-11.32,14.37l-6.52,7a.76.76,0,0,0,.15,1.17l5.79,3.67a26.29,26.29,0,0,0-.27,3.9.63.63,0,0,0,.19.49c-1.37,4.4-.32,10.2-.38,14.33q-.21,17.26-.44,34.53a18.72,18.72,0,0,0-5-.92,20.23,20.23,0,0,0-6.28.91.75.75,0,0,0-.18,1.36l1.29.74a6.73,6.73,0,0,0,1,.56c.13,1.16.06,2.39.13,3.55a2.29,2.29,0,0,0,.75,1.83,9.29,9.29,0,0,1,.83.94l0,0a5.38,5.38,0,0,1,0,1.14H16.58a.75.75,0,0,0-.74.74v16.67H.75a.75.75,0,0,0-.53,1.27l8,6.78c1.67,1.42,3.89,4.15,6,5.22V371.6h-5a.75.75,0,0,0-.74.75V439a.67.67,0,0,0,.18.47.1.1,0,0,0,0,.05l0,0a.72.72,0,0,0,.48.18H473.55a.59.59,0,0,0,.23.05h517a.67.67,0,0,0,.47-.18l0,0a.1.1,0,0,0,0-.05.65.65,0,0,0,.18-.47V372.4a.75.75,0,0,0-.74-.75h-5v-88.5ZM974.1,235.22a17.45,17.45,0,0,1,3.95.37,2.79,2.79,0,0,0-1.08.88c-.48.81-.19,2.53-.23,3.41a12,12,0,0,1,0,1.46c0-.36-.91.89-1.15,1.24a3.4,3.4,0,0,0-.48,2.24h-1.43a5,5,0,0,0,0-1.74c-.21-.65-.7-.88-1.17-1.4l-.11-.1v-.2c0-.39,0-.8,0-1.2v-2.64a.75.75,0,0,0-.75-.74h-.94a.17.17,0,0,0,0-.05,1.33,1.33,0,0,0-.11-.24v0s-.07-.11-.11-.17a3.08,3.08,0,0,0-.28-.38A15.68,15.68,0,0,1,974.1,235.22Zm-2,9.1v.51c-.43,0-.89,0-1.37.08,0-.9.08-1.84.13-2.78.23.53.82.79,1.2,1.21C972,243.32,972.12,244,972.12,244.32Zm.74,2h3.22a35.82,35.82,0,0,0,5.18,0,6.49,6.49,0,0,1,1.66.08c.55,2.33-.24,6.36-.24,8.45v7.4H902.23c0-.22,0-.44,0-.66a49.8,49.8,0,0,0-.33-14.62h0c0-.16,0-.32,0-.48a6,6,0,0,1,.67-.16h.85c2.76.18,5.59,0,8.35,0h9.08a23.26,23.26,0,0,0,4.57,0h.45a.74.74,0,0,0,.64-.37l0-.07c1.17-.76,2.14-2.59,3.25-3.55a19.66,19.66,0,0,1,8.12-4.16,24.36,24.36,0,0,1,7.23-.48l.15,0c.4,0,.8.09,1.19.15a20.73,20.73,0,0,1,9.44,3.9c1.45,1.48,2.66,3.42,4.17,4.27h0a.65.65,0,0,0,.57.29h.26a18.81,18.81,0,0,0,3.52,0h8.41Zm11.4,35.37c0,.35.08.58.1.74h-1a36.55,36.55,0,0,0-6,0H901.85v-1.69a47.87,47.87,0,0,0,0-4.94h68.21c4.11,0,10.31,1.15,14.44.09C984.83,277.45,984.08,280.37,984.26,281.67Zm-10.84,2.26h0c.3.51,2.09.06,3.24.06,2.37,0,4.83.2,7.19,0l.39,0,0,.64c0,.1,0,.2,0,.26-.43,2.22,0,5,0,7.22v62.41c0,5.11-.44,10.44,0,15.53,0,.1,0,.23,0,.38a10.42,10.42,0,0,1,0,1.12c-.3,0-.9.13-1.75.13h-8.95V286.52C973.58,286,973.37,284.77,973.42,283.93Zm-1.33,0v87.72h-1V283.93Zm-10.34,0h4.19a15.28,15.28,0,0,0,2.62,0h1.13a6.61,6.61,0,0,1-.07.83c-.41,2.24,0,4.95,0,7.22v75.55a27.41,27.41,0,0,1,.16,4.12h-8V288A21.48,21.48,0,0,1,961.75,283.92Zm-1.43,0v87.74H921.44V283.9h38.88Zm-48.23.18c2.31-.4,4.83.37,7.15,0l.78-.1a5.86,5.86,0,0,1-.07,1c-.4,2.23,0,4.94,0,7.2v75.39a27.09,27.09,0,0,1,.16,4.1h-8V288.2A20.89,20.89,0,0,1,912.09,284.09Zm-1.44-.19v87.75h-.49V283.9Zm-2,87.75h-6.84V284.06c2.25-.15,4.5-.05,6.82,0v85.74A16.14,16.14,0,0,1,908.69,371.65ZM899.2,235.83V187.51l9-2h0l2.32-.52q-.11,23.83-.2,47.69h-1a.41.41,0,0,0-.11,0H909Zm0,1.45c0-.1,0-.2,0-.3S899.48,237.06,899.21,237.28Zm-5.28,26.88a5.4,5.4,0,0,1-1.1,2.52c-.52.29-1,.63-1.52.89a5.67,5.67,0,0,1-2.08.9l-.2,0h-4.17c-1.08-.07-2.15-.15-3.2-.2V251.44h3.52c2.38,0,5.91.65,8.48.19v.11A87.61,87.61,0,0,0,893.93,264.16Zm-.22-14.3a5.7,5.7,0,0,1-.84.1H877.73v-1.41a5.12,5.12,0,0,0,2.16-2.9l.12-.06a32.79,32.79,0,0,1,4.62-2.85,24.24,24.24,0,0,1,4.13-1.21l2.08-.33a.67.67,0,0,0,.44-.35.54.54,0,0,0,.05-.11.61.61,0,0,0,.06-.25c0-4.43.17-.85,2.21-2.58a22.63,22.63,0,0,0,3.31-.22h0l.8-.05c-.07,2.07,0,4.17,0,6.24v3a13.68,13.68,0,0,0-3,2.53A5.42,5.42,0,0,1,893.71,249.86Zm-17.44-31.8-.41-21.8a21.93,21.93,0,0,0,2.33,3.85,6.41,6.41,0,0,1,.34,1.13c0,3.24.05,6.47.08,9.71h0l.24,28.91h0l0,3.92c-.25,1.21-.29.88-.78,1.6a9.83,9.83,0,0,0-1.4,1.84c0-.71.09-1.64.08-2.11Zm16.3-20.74v38.89a1.09,1.09,0,0,1-.06.28l-1.87.11a.76.76,0,0,0-.74.75c0,2.61.41,2.51-1.43,2.75q.06-22,.11-44.06a18.79,18.79,0,0,1,0-3.27,3.54,3.54,0,0,0,.08-.61q1.92-1.41,3.9-2.7v.5A29.7,29.7,0,0,0,892.57,197.32Zm-11.92-.52a10.88,10.88,0,0,0-1.44,1.93,24.15,24.15,0,0,0-2.12-3.77,1,1,0,0,0-.1-.17c.24-.29.48-.56.73-.83a74.07,74.07,0,0,1,14.85-8.79v2.45A35,35,0,0,0,880.65,196.8Zm6.41,12q0,15.75-.08,31.49a13,13,0,0,0-1.53.42V194.48l1.61-1.16C886.3,198.21,887.08,203.9,887.06,208.82Zm-6.86,15.05q-.09-11.64-.19-23.26a14.47,14.47,0,0,1,4-4.8v38.84a48.66,48.66,0,0,1,0,5c-.14,1.4-.09,1.5-.41,1.88a23.1,23.1,0,0,0-2.43,1.37l-.72.5c0-.35,0-.7,0-1C880.58,236.2,880.25,230,880.2,223.87ZM953,208.15q.21,12.25.43,24.5h-5.34c0-.23,0-.45,0-.67.14-3.45-.1-7-.14-10.41l-.42-31.18h0c0-2.58-.07-5.15-.1-7.73l2.56-.08.64,0,1,0a7.28,7.28,0,0,0,1,0v0c.61,2.94.12,6.54.17,9.53Zm9.44-14.39V225c0,1.7.74,5.72.17,7.65h-2a5.37,5.37,0,0,0-1.65,0h-.88l-.32-.05s0,0,0-.06c-.66-3,0-6.95,0-10V182.36l1.44-.29,3.25-.23a2.65,2.65,0,0,1,0,.81C961.82,186.12,962.42,190.25,962.42,193.76Zm0-14.42c0,.33,0,.68,0,1l-.57,0c-2.41-.29-5.14.32-7.64.54H954v-3.18l3.68-.33a38.77,38.77,0,0,0,4.73-.3Zm-6.13,2.93v50.38h-1.4L954,182.43Zm-2.13,51.86h3.43a41.79,41.79,0,0,0,6.23,0h1v.38a45.13,45.13,0,0,0,0,9.15v1.13l-.23,0a21.93,21.93,0,0,1-3.44,0,7,7,0,0,0-.85-1.11,20.17,20.17,0,0,0-3.3-3.23,21.78,21.78,0,0,0-12.27-4.34,22.46,22.46,0,0,0-10.66,1.77,19.37,19.37,0,0,0-6.32,4.11,33.9,33.9,0,0,1-2.21,2.64.31.31,0,0,0-.09.07,3,3,0,0,0-.44.08,2.13,2.13,0,0,0-.25,0,3.33,3.33,0,0,0-.52,0l-1.63.05c-.44,0-.87-.05-1.26-.05h-8.66a21.48,21.48,0,0,1-2.78,0v-.4c.12-2.72,0-5.49,0-8.22,0-1,.21-1.75.12-2.09l.29,0,.34,0c5.43,1.19,12.49,0,18,0h25.5Zm12.63-51.65,0,.46a9.92,9.92,0,0,0-1.87-1.43,4,4,0,0,0-1-.77h0a6.34,6.34,0,0,0,0-1.57v-.95c.84,1,1.68,2,2.6,2.92l.19.22C966.74,181.73,966.76,182.11,966.79,182.48Zm-1.72,1.35,2,1.86a15.77,15.77,0,0,1,0,2.92l.21,16q.18,14.67.37,29.33c-.58-.38-1.15-.74-1.58-1.08h0a.65.65,0,0,0-.49-.2h-1.63v-49.8C964.31,183.19,964.73,183.51,965.07,183.83Zm-53.21.82.17,0a7.22,7.22,0,0,0,.75-.17l2.73-.62h0a5.7,5.7,0,0,1,.69,0c-.05,1.4-.05,2.8-.07,4.2q-.24,14.34-.47,28.67l-.23,13.49h0l0,2.49h-.23a11.7,11.7,0,0,0-3.39,0q.09-23.07.19-46.13C912,186.09,911.82,185.24,911.86,184.65Zm7.18,0,.13,0h.05a1.41,1.41,0,0,0,.57,0l.37,0c.69,2.45,0,6.38,0,8.82q.1,7.78.19,15.58.14,11.74.28,23.5h-3.72c0-.42-.07-1,0-1.37h0c.25-3.6.12-7.26.18-10.85l.6-36.17A5.11,5.11,0,0,0,919,184.7Zm-1.34-2.41v-4.12l.68.72c.06,1.29.13,2.57.19,3.86h0Zm34.83-2.87V181l-5.89.14-6.23.23h0l-2.79.11c-2.14.1-4.29.23-6.43.37h0l-.48,0c-1.32.09-2.64.18-4,.31-.42,0-.85.1-1.29.17l-.43,0-.58.06h0c-1.19.14-2.4.38-3.6.48a5,5,0,0,0-.66.06L920,181.3h0a8.24,8.24,0,0,0-.1-2.11v-.09l.07,0a3.13,3.13,0,0,0,.57-.1c2.31-.8,5.11-.82,7.52-1,4.87-.41,9.77-.49,14.66-.44.72,0,1.72-.08,2.8-.17l6.58.43C952.73,178.13,952.31,178.08,952.53,179.42Zm-6.4,19.6q.18,13.15.35,26.32h0c0,2.44.07,4.87.1,7.31H946c-1.6-.1-3.24,0-4.85,0V191.45c0-1.43-.79-5.68,0-7a9.7,9.7,0,0,1,2.37-1.68l2.39-.07.06,4.4h0Q946,193.07,946.13,199Zm-6.46,33.63h-7.43q-.18-24.68-.37-49.35l3.73-.22c1.35-.07,2.71-.12,4.07-.18Zm-14.55-10.9V190.63c0-1.28-.63-5-.21-6.75H925l.18,0c.53.26,2.3-.17,3.19-.25a7.65,7.65,0,0,0,2-.17c.69,2.86,0,6.75.05,9.66q.06,7.74.11,15.49.1,12,.19,24.07h-5.68c0-.13,0-.29,0-.5C925.35,228.72,925.12,225.19,925.12,221.75Zm-1.48-37.64v48.54h-1.49q-.3-24-.58-48.08C922.27,184.43,923,184.26,923.64,184.11Zm28.89-7.8c-10-.57-22.12-2-31.85,1l1-1.73a29.77,29.77,0,0,0,1.48-2.66l.19-.35c2.08.2,4.73-.52,6.75-.66,4.92-.35,9.87-.58,14.81-.49,2.48,0,4.91.33,7.35.42,0,.12.11.36.31.84Zm-33.61,1-1.12-1.18,1.74-5.21.62.31c.44.26.93.55,1.43.8A27.5,27.5,0,0,0,918.92,177.3Zm-2.54-1.63-21.11,4.59h0a7.76,7.76,0,0,1-3.92-.93l-.67-.41a.31.31,0,0,0-.15-.1l-1.47-.92,13.14-3.18,5.65-1.36c2.77-.67,7.49-.89,10-2.36A36.76,36.76,0,0,0,916.38,175.67ZM896,236.26a4.84,4.84,0,0,0-1.15.08l-.65,0c0-.26,0-.52,0-.73.81-5.1.14-10.85.12-16q0-15.5-.29-31c.79-.16,2-.41,2.92-.67l.69-.16a4.12,4.12,0,0,1,.05,1c-.52,3.37,0,7.29,0,10.69v29.54c0,1.72.67,5.25.12,7.09h0ZM894.1,187c0-.46,0-.93,0-1.36V182l15.29-3.32h0l6.86-1.5v1a22.8,22.8,0,0,0,0,2.65v1.21l-.36.08c-2.57.1-5.62,1.32-8.08,1.88C903.47,185,898.34,185.48,894.1,187ZM969,237a1.08,1.08,0,0,0,.19.13l.06.05s0,.1,0,.17a.92.92,0,0,0,0,.18v.09a66.31,66.31,0,0,0,0,7.19h-3V234.9l1.6,1.24ZM972.5,177l-4.92,3.12a49.66,49.66,0,0,0-3.48-3.95c.29-.4.51-.89.8-1.39l2.16-3.63Zm-15.62-20c5.33,1.89,9.21,6.53,9.3,12.26l-9.29,1c.05-4.17.46-8.56,0-12.66Zm-.74,14.77,9.4-1L964,173.34a9.15,9.15,0,0,0-1.27,2.14v0h-.1c-1.62-.27-3.82.34-5.46.49l-3.15.28v-4.36ZM912.87,85.15a1.72,1.72,0,0,1-.17-.28.59.59,0,0,1,0-.08,4.14,4.14,0,0,1,1.33-1.27,3.57,3.57,0,0,1,4.17.28,12.18,12.18,0,0,1-2.38,4.13A15.47,15.47,0,0,1,912.87,85.15Zm3.1,4.53a2.7,2.7,0,0,1,2.7,1.43,14.89,14.89,0,0,0-4.95,1l-.86.31A3.46,3.46,0,0,1,916,89.68ZM912,94.33a.77.77,0,0,0,.26-.07c.53-.26,1.08-.49,1.64-.71a21.07,21.07,0,0,1,2.65-.71c6.59-.68,10.28,1.38,13.2,7a3.46,3.46,0,0,1,.37,1,29.37,29.37,0,0,0-17.12-.07,30,30,0,0,0-10.87,5A18.39,18.39,0,0,1,912,94.33ZM902,110.2c-.14-2.61-.62-1.59,1.12-3.28.1-.1.23-.2.34-.3a31.52,31.52,0,0,1,26.74-4.2c-.54,3.94-.36,8.85,2.23,12a41.58,41.58,0,0,0-13.68-.17A49.2,49.2,0,0,0,907.13,117a41.91,41.91,0,0,0-7,2.89A21.84,21.84,0,0,0,902,110.2ZM897.26,124a6.7,6.7,0,0,1,1-.89.77.77,0,0,0,.27-.11q.88-.58,1.8-1.14c.75-.38,1.51-.72,2.19-1.06a51.66,51.66,0,0,1,16.8-5.13,47.7,47.7,0,0,1,15.78,1c.56.5,2.07,2.89,1.91,4.06-5.58-1.9-12.15-1.63-18.08-.65-1.52.22-3,.5-4.53.83-1.06.23-2.11.5-3.15.78-5.3,1.32-11.35,3.24-15.59,6.16A22.29,22.29,0,0,1,897.26,124ZM895,130.24a6.33,6.33,0,0,1,1-.84.5.5,0,0,0,.13-.05c.63-.36,1.28-.71,1.93-1s1.47-.62,2.16-.93a70.84,70.84,0,0,1,20.27-6l1.53-.17a47.63,47.63,0,0,1,14.89,1.1c-.15.38,3.15,4.77,1.75,6.25-10.11-2.1-23.15.25-32.82,3.33A50.46,50.46,0,0,0,893,137.78C892.24,137.42,894,131.3,895,130.24Zm-3.36,13.6c-1.9.83,1.06-3.77,2.51-5a46.64,46.64,0,0,1,6-3.26c1.13-.45,2.26-.87,3.33-1.26a75.23,75.23,0,0,1,19.62-4.23c.51,0,1.24-.11,2.11-.17a97.75,97.75,0,0,1,12,.1c3.46.59,5.71,2,4,4.94-.37-1.78-2.17-2.83-4.78-3.37a30.93,30.93,0,0,0-8.3-.88c-10.27.3-24,2.31-32.39,9.12a16.29,16.29,0,0,0-1.26,1.08l-.1.09-.1.1c-.22.22-.42.44-.62.66s-.58.68-.9,1c-.65.67-.73.88-.7.93A3.9,3.9,0,0,0,891.65,143.84ZM876.84,174a15,15,0,0,0,2.65-.12c7.32-.73,13.63-8,13.63-15.08,0-4.45-1.44-11.56,1.15-15.21,3.84-5.39,12.2-7.77,18.24-9.2,1.83-.44,20.87-3.7,26-.49a2.65,2.65,0,0,1,.92,3.42.36.36,0,0,0,0,.11.06.06,0,0,0,0,0,.62.62,0,0,0,0,.44q.21,5.87.41,11.73c.08,2.44-.29,5.74,2.16,7.17,4.41,2.56,8.79-4.83,12.8-1.09a2.73,2.73,0,0,1,.66,1.44v13.16a4.71,4.71,0,0,0-.95.12l-.73.08c-1.06-.17-2.19-.25-3.3-.32-8-.84-16.22-.19-24.17.53a21.27,21.27,0,0,0-3,.23c-1.28-.28-2.45-1.49-3.77-1.68l-.09,0a.55.55,0,0,0-.22-.06h0a.9.9,0,0,0-.23,0l-.17,0a25.31,25.31,0,0,0-4.82,1.16L887,176.87a.75.75,0,0,0-.17,1.36c.65.41,1.22.78,1.73,1.12a40,40,0,0,0-10.41,5.54c-.42.3-.85.59-1.28.88,0-.11,0-.22,0-.33.65-2.41,0-5.9,0-8.41C876.84,176.53,876.52,174.36,876.84,174Zm-.39,14,.06-.11s0,0,0,0l.15-.13a53.9,53.9,0,0,1,13.43-7.32,12.13,12.13,0,0,0,1.69.89,2.08,2.08,0,0,1,.77.76v1.5a3.42,3.42,0,0,1-.58.26,25.3,25.3,0,0,0-2.39,1l-.14.06c-4.79,2.06-10.2,4.62-13.25,8.48l-1.56-2.93A21.75,21.75,0,0,0,876.45,187.94Zm-1.13-1.89a2.85,2.85,0,0,0,0,.89l-.23.3-1.31,1.69c-.17.22-.56.57-.55.65l-4.55.84h0C869.42,187.51,872.38,186.15,875.32,186.05ZM866.44,194l-1.73-1.32,4.73-.87,1.82-.33c.58-.11,1.4-.14,2.1-.31l1.62,3-6.49,1.41a1.85,1.85,0,0,1-.3-.29A12.79,12.79,0,0,0,866.44,194Zm2.68,48.28c.37-2.13,0-4.68,0-6.84V197.09c1-.11,2.21-.59,3.07-.77l.31-.07a2.88,2.88,0,0,1,0,.83c-.51,3,.08,6.67.12,9.73q.16,14.22.32,28.42c0,1.77.69,5.06.19,6.94h0c-.94.31-2.12,0-3.09.17a2.07,2.07,0,0,0-.82.32A1.52,1.52,0,0,0,869.12,242.26Zm-.46,1.65,5.06-.28a.76.76,0,0,0,.75-.74q-.27-23.47-.55-46.95l.45-.1q.48,25.83,1,51.65h-7.9A21.56,21.56,0,0,1,868.66,243.91ZM866.6,249h9.65v1h-7.19l-2.09,0a4.22,4.22,0,0,1-1.57-.41h0v0c-.07-.17-.16-.35-.25-.52Zm-19.37,2.47h32.95v17.05H847.23Zm-20.38,0h15.83a12.88,12.88,0,0,0,3,.05c-.34.83,0,2.88,0,3.72v5.45c0,2.37-.43,5.25-.06,7.65l-.16-.05a19.12,19.12,0,0,0-4.21,0h-10.4a19.25,19.25,0,0,0-3.64,0,1.35,1.35,0,0,1-.35,0c.68-2.63-.08-6.61-.08-9.23Zm-33.44,0h32v17.05h-32Zm-22.52,8.08v-8.08h16.84a19.35,19.35,0,0,0,3.65,0h.55c0,2.84,0,5.69,0,8.53s0,5.68,0,8.52h-.33a18.87,18.87,0,0,0-4.25,0H772.16a12.34,12.34,0,0,0-1.36,0C770.42,265.64,770.89,262.31,770.89,259.52Zm-32.49-8.08h31v17.05h-31Zm-20.77,0h16.14a13.12,13.12,0,0,0,3.13,0c-.83,2.45,0,6.75,0,9.31,0,2.4-.41,5.28-.06,7.71h-.18c-1.22-.32-3,0-4.29,0h-10.6a19.26,19.26,0,0,0-3.72,0h-.37c.68-2.68-.07-6.67-.07-9.34Zm-34.63,0h33.14v17.05H683Zm-20.51,0h15.93a12.14,12.14,0,0,0,3.07,0c-.35.84,0,2.93,0,3.79v5.51c0,2.39-.43,5.29-.07,7.71h-.16c-1.21-.32-3,0-4.23,0H666.6a18.85,18.85,0,0,0-3.68,0h-.35c.68-2.66-.08-6.68-.08-9.34Zm-33.91.07c1.38,0,2.75-.07,4.11-.07H661v17.05h-22.5c-3.1,0-6.58-.36-9.93-.37ZM661.75,270H884.47a24.15,24.15,0,0,0,4.81,0l1.23,4.09a7.81,7.81,0,0,0,1,3.3l.09.3H891a28.76,28.76,0,0,0-5.33,0H616.94a2.86,2.86,0,0,0,0-1.08v-1.75c1.33-.85,2.5-2.49,3.54-3.52.46-.44.91-.89,1.36-1.34Zm-38.36-1.55,3.71-3.66v3.37a27.7,27.7,0,0,0-2.94.26Zm-7.57-11.09a23.76,23.76,0,0,0,0-4.77v-1l0-.09h1.58a91.77,91.77,0,0,0,9.68.1v11.73a.7.7,0,0,0-.25,0h-8.16c-.83,0-1.82-.09-2.87-.18Zm.88-12,.23,0c-.76.87-1.08,2.3-2,3-.23.19-.36.31-.44.39H580.73a5.53,5.53,0,0,1-.64-.17l-6-3,17.08-.21h21a.53.53,0,0,0,.25,0A18.33,18.33,0,0,0,616.7,245.31Zm-2.36,5.38h0v12.23a15,15,0,0,0-4.35.17,8.61,8.61,0,0,1-1.37-.35l-24.47-12.22c3.7.11,7.69-.37,11.15-.37,4.78,0,9.57.07,14.35,0a32.32,32.32,0,0,0,4.18,0,3.87,3.87,0,0,0,.56-.1.66.66,0,0,0,0,.33Zm-24.82,35.38h.72a23.56,23.56,0,0,0,6,0h.63v.66c0,2.21,0,4.43,0,6.64v43.69c0,8.69-.77,17.78,0,26.45a12.22,12.22,0,0,1,.08,1.22c-.16-.2-.63-.17-1.22-.11a29.67,29.67,0,0,0-6.18,0V289.45A23.64,23.64,0,0,1,589.52,286.07Zm-4.85-1.49h-8.92l-75.49,0a.85.85,0,0,0-.24-.05l-75.77,0H403.08v-3.29a5.42,5.42,0,0,0,0-2.46v0h96.69a.66.66,0,0,0,.25.05h96.84a6.43,6.43,0,0,0,.06,1.31v4.46l0,0H584.67Zm3.45,1.49V364.7l-1.17,0h-1.6V286.07h2.77Zm-11.66,0h.84a24.46,24.46,0,0,0,5.8,0h.82a4.5,4.5,0,0,0-.06.64c-.05,2.21,0,4.43,0,6.64v68a31,31,0,0,1,.16,3.39H584c-.25-.38-1.47,0-2.66,0h-4.75V289.43A23.36,23.36,0,0,1,576.46,286.07Zm-5.79,35.46c2.79,0-2.84-10.64-3.43-11.34a12.27,12.27,0,0,0-19.34-.59c-.79.86-6.79,11.93-3.91,11.93a.75.75,0,0,0-.74.74v15.55h-1.93V286.06h33.74v78.66h-3.64V322.27A.75.75,0,0,0,570.67,321.53Zm-.74,1.75a29.52,29.52,0,0,0,0,3.12v32.53a38.72,38.72,0,0,1,0,5.8h-2.34v-44a.75.75,0,0,0-.74-.75c2.19,0-1.69-6.49-2.3-7.15a9.7,9.7,0,0,0-14.51,0c-.62.66-4.5,7.15-2.3,7.15a.76.76,0,0,0-.75.75v38.34h-.86V338.56a.75.75,0,0,0-.74-.74h-.7V325.05c0-.62,0-1.26,0-1.88-.06-1.26.29-.16-.74-.16a.76.76,0,0,0,.75-.74c.34-7,4.37-15.62,12.59-15.62s12.25,8.58,12.6,15.62a.75.75,0,0,0,.74.74c-.46,0-.64-.19-.71-.33A3.69,3.69,0,0,1,569.93,323.28Zm-3.75-2.13a5.2,5.2,0,0,1,0,.59,23.6,23.6,0,0,0,0,2.66v7.17c0,4.72-.79,10.21,0,14.85a5.72,5.72,0,0,1,.06,1.08H548.52V325.27a14.32,14.32,0,0,0,0-3,2.67,2.67,0,0,1-.1-.9,1.33,1.33,0,0,1-.64.12.76.76,0,0,0,.74-.74c1-12.28,16.64-12.28,17.62,0a.77.77,0,0,0,.75.74C566.43,321.49,566.24,321.3,566.18,321.15Zm0,43.47h0c-.64-.05-1.46.09-2,.09H549.72c1.23-1.35,2.31-3.22,3.26-4.36a.75.75,0,0,0-.53-1.26h-3.93v-5.92a25.1,25.1,0,0,0,0-3.78,1.13,1.13,0,0,1,0-.32c1.71.54,4.9-.07,6.58-.07h8.81a16.57,16.57,0,0,0,2.19.09,13.73,13.73,0,0,0,.06,3.08v4.68C566.15,359.06,565.47,362.51,566.15,364.62Zm-49.91-2.17h-3.42c-.36-.62-.71-1.25-1.07-1.88h39.17c-1.3,1.69-3,3.93-3.54,4.14l-.07,0h-8.46l-.41,0H517v-1.54A.75.75,0,0,0,516.24,362.45Zm-2.64,43.09H491.47c-1.14,0-2.29,0-3.44,0h-.3c-.41,0-.81,0-1.2,0h-.1a3.82,3.82,0,0,1-.05-.93c.48-2.14,0-5,0-7.19a28.54,28.54,0,0,0,0-3.68c.57,0,1.51-.06,1.85-.06h11.54a.85.85,0,0,0,.24.05h13.71a5.46,5.46,0,0,1-.07.89C512.87,397.91,513.51,402,513.6,405.54Zm-28.6-13s0,.05,0,.07l0,0a.69.69,0,0,0-.05.24v12.69H474.56V371.8h12.32v17.43C486.09,390,485.5,391.7,485,392.55Zm15-.37H486.94l.33-.56a5.78,5.78,0,0,0,.63-1.07.93.93,0,0,1,.08-.2h24a.94.94,0,0,1,0,.09,5.7,5.7,0,0,0,.59,1l.43.74Zm-.28-20.38a.6.6,0,0,0,.24.05h11.34c0,2.59.32,5.36.32,7.7,0,3.08.07,6.17,0,9.25l-.68,0a28.26,28.26,0,0,0-4.87.05h-5.87a.66.66,0,0,0-.25-.05h-7.8a17.37,17.37,0,0,0-2.6,0c-.37,0-.8-.06-1.23-.06-.12-5.64-.05-11.3,0-16.95Zm-11.39-1.48c0-.68,0-1.35,0-2h19.39a20.85,20.85,0,0,0,3.87,0h.05l0,.1a13.71,13.71,0,0,0-.26,2H500.26a.6.6,0,0,0-.24-.05H488.35Zm24.14-3.49-.11,0H487.54a13.2,13.2,0,0,1-3,0,.84.84,0,0,0-.33,0,2.7,2.7,0,0,0,.24-1.41c0-.41.16-1.08.11-1.46a16.45,16.45,0,0,1,3,0h24.79a.69.69,0,0,0,.29-.07,7.27,7.27,0,0,1,2.74.07,1.39,1.39,0,0,0,.38.08c-.12.1-.29.44-.29,1.4s.22,1.22.33,1.28a1.29,1.29,0,0,0-.42.11A8.86,8.86,0,0,1,512.49,366.83Zm-78.64-7.41v-8.81c0-.53.06-1.11,0-1.66h.49c5.18.68,10.89,0,16.13,0,.22,0,.61.06.91.05,0,.92.05,1.89.05,2.78V359h-3.93a.76.76,0,0,0-.53,1.27c.94,1.13,2,3,3.25,4.35H438c-1.1,0-2.26-.11-3.36,0a5.48,5.48,0,0,1-.65,0C434.1,362.93,433.85,361.06,433.85,359.42Zm0-27.9v-7.17c0-.88.07-1.78,0-2.66a5.23,5.23,0,0,1,0-.67c0,.13-.2.42-.73.42a.77.77,0,0,0,.75-.74c1-12.28,16.64-12.28,17.62,0a.75.75,0,0,0,.74.74c-.42,0-.59-.14-.66-.26a3.12,3.12,0,0,1-.08.78,16.6,16.6,0,0,0,0,2.82v22.68h-17.7a6.63,6.63,0,0,1,.07-1.09C434.64,341.74,433.85,336.22,433.85,331.52ZM433.11,320a.75.75,0,0,0-.74.75v44H430c0-.13,0-.29,0-.49a32.42,32.42,0,0,0,0-3.27V327.1a14.22,14.22,0,0,0,0-3.45,2.15,2.15,0,0,1-.13-.77,1.92,1.92,0,0,1-.61.08.76.76,0,0,0,.74-.74c.35-7,4.38-15.62,12.6-15.62s12.25,8.58,12.59,15.62a.76.76,0,0,0,.75.74,1.2,1.2,0,0,1-.66-.13,2.89,2.89,0,0,1-.08,1,21.66,21.66,0,0,0,0,4.26v9.67h-.7a.75.75,0,0,0-.74.74V359H453V320.7a.76.76,0,0,0-.75-.75c2.19,0-1.68-6.48-2.3-7.15a9.7,9.7,0,0,0-14.51,0C434.8,313.47,430.92,320,433.11,320Zm-3.78,1.53a.75.75,0,0,0-.75.74v42.47h-2.71l-.93,0V286h33.74v51.72h-1.93V322.22a.75.75,0,0,0-.74-.74c2.78,0-2.85-10.64-3.43-11.34a12.27,12.27,0,0,0-19.34-.59C432.44,310.42,426.44,321.48,429.33,321.48Zm38.15-23.85v38.09c-.49.66-1,1.35-1.43,2h-5.89V289.1a21.07,21.07,0,0,1,0-3c.16,0,.39,0,.68-.07h6.71a2.53,2.53,0,0,1,0,.85C466.9,290.26,467.48,294.24,467.48,297.63Zm-7.41,41.62h10.39c.49,0,1,0,1.55,0h.09a11.52,11.52,0,0,0,0,1.19V359c-5.08,0-10.32-.41-15.38,0V339.39C457.85,339.43,459.1,339.25,460.07,339.25Zm11.77-8.67c-1,1-2,2.11-2.87,3.22V286.05h2.77v44.17A.69.69,0,0,0,471.84,330.58Zm1.16.92a38.73,38.73,0,0,1,18.39-10.07,40.46,40.46,0,0,0-5.17,17.72h-7.13a43.77,43.77,0,0,0-4.86,0l-.35.05h-.26v-.69a.75.75,0,0,0-.22-.52.73.73,0,0,0-.52-.22H469v-1.56A49.87,49.87,0,0,1,473,331.5Zm7.54-32V324a40.94,40.94,0,0,0-7.32,5.26V291.22c0-1.52,0-3,0-4.56,0-.26,0-.46,0-.61h7.42a4.6,4.6,0,0,1-.06.77C479.81,290.75,480.54,295.53,480.54,299.52Zm46.24-7.5v37.37a40.81,40.81,0,0,0-7.32-5.29v-25c0-3.87.7-8.4,0-12.2a6.42,6.42,0,0,1-.07-.82h.7a12.84,12.84,0,0,0,2.48,0h4.24c0,.15,0,.35,0,.63C526.73,288.46,526.78,290.24,526.78,292Zm5.38,45.8h-5a.75.75,0,0,0-.74.74v.64h-1c-1.57,0-3.15,0-4.73,0h-6.88a40.51,40.51,0,0,0-5.18-17.73A39.26,39.26,0,0,1,532.16,337.82Zm-3.9-7V286.06H531v47.79C530.15,332.79,529.23,331.77,528.26,330.81Zm4.15-44.73h0l.22,0h2.86l.67,0h3.76c0,.62-.1,1.42-.1,1.82v49.93H534c-.46-.71-.94-1.39-1.43-2.06v-48C532.52,287.4,532.4,286.66,532.41,286.08Zm4.28,53.22c2.53,0,5.51.41,8,.05,0,.07,0,.14,0,.22a17.35,17.35,0,0,0,0,4v10.86a32.87,32.87,0,0,0,0,4c0,.29,0,.5.06.66-5.6-.26-11.27,0-16.88,0V342.87c0-.89.37-2.67,0-3.48,0,0,0,0,0-.07C530.56,339.86,534,339.3,536.69,339.3Zm-10.31,10.57v9.22H510.91l-.37-.67v-2.73c3-2.29,3.25-10.42,3.3-13.5q0-.75,0-1.5h12.54v1.18C526,344.42,526.38,347.29,526.38,349.87Zm-52.69-8.33a2.29,2.29,0,0,1,0-.9h5.17c.34,0,.66.05.92.05h6.4c0,.48,0,1,0,1.45,0,3.24.27,11.11,3.3,13.47v2.76l-.37.67h-5.46c-2.91-.13-6.12-.46-8.86,0h-1.15v-4.16c0-.19,0-.38,0-.55l0-9.39A19.32,19.32,0,0,0,473.69,341.54Zm23.69-24.39c.8,0,1.62-.06,2.4-.06a.85.85,0,0,0,.24.05h.14c.75,0,1.52,0,2.28,0,1.82.15,2.26.79,4,3.6a39.12,39.12,0,0,1,5.88,22.35,27.46,27.46,0,0,1-1.74,9.09,19.88,19.88,0,0,0-1.21,2.37H490.64c.1-.31-1-1.85-1.24-2.42a27.71,27.71,0,0,1-1.74-9.09,38.89,38.89,0,0,1,5.88-22.35C495.25,318,495.71,317.31,497.38,317.15Zm-1.31-1.56h0C496,315.58,496,315.56,496.07,315.59Zm7.38.06h-3.22a.93.93,0,0,0-.25,0h-3.41v-1.09a19.64,19.64,0,0,1,0-2.17c.1-.87.66-.89,1.36-.89h1.95a.64.64,0,0,0,.28.06h1.9c.71,0,1.27,0,1.37.89a19.64,19.64,0,0,1,0,2.17C503.43,314.82,503.45,315.29,503.45,315.65ZM491,356.28c2.54.59,6.55-.16,8.83-.2a.72.72,0,0,0,.22,0c2.24,0,6.46.83,9.07.22,0,.5,0,1,0,1.51H497.7c-2,0-4.4-.36-6.37,0h-.39C491,357.38,491,356.75,491,356.28Zm-.31,1.57h-.16S490.56,357.79,490.66,357.85Zm-.74,2.72H510c.33.64.7,1.26,1.08,1.88H500.23a.92.92,0,0,0-.25-.05H488.89ZM518,323.31a40,40,0,0,0-10.43-3.6h0c-.13-.19-.25-.4-.39-.59a10,10,0,0,0-2.3-2.75,7.24,7.24,0,0,0,.06-1.92c0-1.34.33-3.14-.93-4-1-.71-2.66-.4-3.82-.4h0a.82.82,0,0,0-.28,0c-1.13,0-2.75-.29-3.75.34-1.34.86-1,2.74-1,4.09a7.63,7.63,0,0,0,.05,1.91,9.78,9.78,0,0,0-2,2.36c-.23.33-.45.67-.66,1h0A39.45,39.45,0,0,0,482,323.24V286.05H518Zm-62.9,15.8c-.16,0-.29,0,0,0Zm-6,21.41h6.79a.66.66,0,0,0,.28,0h16.49a.64.64,0,0,0,.24.05h15.34l-1.06,1.88h-3.4a.75.75,0,0,0-.74.74v1.48H462.59l-.63,0h-9l-.08,0C452.05,364.41,450.44,362.28,449.08,360.52ZM423.46,303v61.64c-2.37-.1-4.78-.22-7.19-.3a12.7,12.7,0,0,1-.13-1.5V297.35c0-2.93-1.05-8.24-.2-11.31H417a19.92,19.92,0,0,0,4.63,0h1.85a6.29,6.29,0,0,1-.06,1C422.59,292,423.46,297.93,423.46,303ZM414.65,286v78.22l-2.77,0V286ZM410.4,303v61.25a53.93,53.93,0,0,0-6.92.49l-.25,0a7.63,7.63,0,0,0-.1-1.12s0-.09,0-.12c.52-3.35,0-7.19,0-10.57q0-31.28-.05-62.54V286h.63a19.4,19.4,0,0,0,5.05,0h1.7a6.58,6.58,0,0,1-.06,1C409.53,292,410.4,298,410.4,303Zm-7.32-25.88v-5.48h96.69a.92.92,0,0,0,.25.05h96.9v5.64H500.23a.66.66,0,0,0-.25-.05h-96.9Zm172.5-6.92H500.23a.92.92,0,0,0-.25-.05H402.33c-4.12,0-4.29,0-7.22-2.86h0c-.75-.73-1.56-1.76-2.45-2.63H499.77a.66.66,0,0,0,.25.05H607.35c-.9.87-1.72,1.9-2.46,2.62-2.94,2.89-3.09,2.87-7.22,2.87ZM385.66,250.64v-.3a.59.59,0,0,0-.06-.32l.57.09a19.93,19.93,0,0,0,2.06.08c5.45.26,11-.08,16.47-.08,3.45,0,7.45.5,11.15.37l-14.66,7.32h0l-9.58,4.78a9.45,9.45,0,0,1-1.74.44,16,16,0,0,0-4.21-.14V250.65Zm8.12-50.51.09-.1a29.86,29.86,0,0,0,3.06-1.7,6.67,6.67,0,0,1,1.76-.44,15.65,15.65,0,0,1,2.87,1.31,9.5,9.5,0,0,0,1.51.83c0,2.23-.05,4.45-.08,6.67a.66.66,0,0,0,.2.5h0a.24.24,0,0,0,.08.06c-.16,1.51-.33,2.92-.34,3.91l-.3,25.77a28.61,28.61,0,0,0-4.44,0,30.54,30.54,0,0,0-4.42-.09v-.63c.25-4.23,0-8.59,0-12.83V204.14a13.65,13.65,0,0,1,0-3.13C393.9,200.54,394,199.89,393.78,200.13Zm0,38.33h8.66a1.46,1.46,0,0,0,.63,0c0,.06.08.23.45.62a50.87,50.87,0,0,1,3.77,4.69H393.78Zm10.35-1h0l.35-30h9.44v30.12c-.07.05-.15.08-.22.14-1.84,1.46-3.35,3.73-4.87,5.63C407.45,241.41,405.87,238.6,404.13,237.49Zm.35-31.53c0-1.87,0-3.73.07-5.6,1.7.17,3.68-.11,5.26-.11,1.27,0,2.76.18,4.1.08V206Zm9.59,33.57a5.67,5.67,0,0,1,.91-1.05l0,0h3.72a30.45,30.45,0,0,0,4.48,0h.65l.1.15a27.34,27.34,0,0,0,3.06,5.17h-16.6ZM424,202c0,2-.05,3.92-.08,5.87l-.23,17h0c0,.37,0,.74,0,1.11,0,3.38-.73,7.52-.21,10.93a31.61,31.61,0,0,0-4.41.1,22.84,22.84,0,0,0-3.7,0h0v-25.8c0-1-.15-2.39-.29-3.91a.73.73,0,0,0,.29-.57V200a11.81,11.81,0,0,0,1.91-1,12,12,0,0,1,1.48-.66,5.44,5.44,0,0,1,3.69.05,6.74,6.74,0,0,1,1.48,1.36C423.88,200.14,424.05,201.37,424,202Zm3.75,12.39v27.32a15.17,15.17,0,0,0-2.42-3.87,7.29,7.29,0,0,1-.32-1.19h0l.17-12.33h0l.3-21.85c.75,1.6,1.51,3.21,2.27,4.81v1.07A36.91,36.91,0,0,0,427.79,214.34Zm1.95,30.86,0,0,0,0,51.09-25.51,1.34-.67,1.33-.66c3.53-1.21,6.83-3.41,10.17-5.08l0,0,0,0,6.12-3.06,6.22,3.11,0,0,0,0c3.38,1.7,6.85,4.09,10.53,5.25l1,.49h0l19.38,9.68,21.48,10.72,3.44,1.72h0l8.13,4.06h0l0,0,0,0c2.92,1.47,6.22,3.83,9.42,4.7l15.86,7.92,4,2c2,1,4.06,2.3,6.17,3.34H500.23a.66.66,0,0,0-.25-.05H394.27c2.11-1,4.2-2.35,6.17-3.34l20-10C423.63,248.9,426.83,246.67,429.74,245.2ZM429.27,222v-.75l0,0c1.11-.51,2.34-1.17,3.6-1.77s2.71-.9,3.93-1.33v21.29a2.17,2.17,0,0,0,0,.52,1.13,1.13,0,0,0-.38.22l-.09.06L430.84,243l-1.57.63V226.07C429.27,224.72,429.29,223.37,429.27,222Zm5.51-19.46a.61.61,0,0,0,0-.12.21.21,0,0,0-.06-.08.64.64,0,0,0-.15-.13.55.55,0,0,0-.3-.16c-1.38-.67-4.23-1.6-5.18-2.66a5.78,5.78,0,0,1,1-.69,16.38,16.38,0,0,0,2.3-2.12.74.74,0,0,0-.15-1.16l-2.07-.92a4,4,0,0,1-.24-.63V160.66a3.27,3.27,0,0,0,.06-.78l.23-.11a2.49,2.49,0,0,0,.73-.33l.33-.17,3.35-1.6,1.37-.58-.87,48.67a20.35,20.35,0,0,0-1.77,1.88c-.6.6-1.57,1.26-1.86,2.08a3.54,3.54,0,0,0-.14,1.12,4.51,4.51,0,0,0,.07,1.31c0,.07,0,.14,0,.21s0,0,0,0c-.7.31-1.4.61-2.06.86h0v-4.49a3.07,3.07,0,0,1,.33-1.61h0l4.87-3.7a1,1,0,0,0,.25-.29l0-.07s0-.08.05-.13a.68.68,0,0,0,0-.14v0A.59.59,0,0,0,434.78,202.57Zm-9.74-22V167.38a27.34,27.34,0,0,1,0-4.34,3.06,3.06,0,0,0,.06-.87l.26-.12a3.37,3.37,0,0,0,.74-.35l2.28-1.09v33.18c-1.09-.46-2.21-.9-3.31-1.29a2.82,2.82,0,0,1,0-.78C425.37,188.07,425,184.22,425,180.55ZM425,155.19h.12l-.1.09A.31.31,0,0,1,425,155.19Zm.05,5.37v-1.42c0-.94.4-3,0-3.8a0,0,0,0,1,0,0l.07,0a5.51,5.51,0,0,0,1.55-.59c4-1.42,7.84-3.3,11.71-5a18.18,18.18,0,0,0,0,4.49Zm30-54.23v27.25a24.09,24.09,0,0,0-5.37-3.44,19.87,19.87,0,0,0-4.59-1.55c-.24-.06-.47-.13-.72-.17a5.14,5.14,0,0,0-.67-.08,22.08,22.08,0,0,0-4.67-.15.83.83,0,0,1-.4-.17c-.43-.39-.06-5.57-.06-6.91v-8c5.23-2.84,11-5.33,15.86-8.72a3.29,3.29,0,0,1,.55-.3C454.89,104.82,455,105.72,455,106.33Zm0,44v2.2l-12.31-3.63a9.36,9.36,0,0,0-2.72-.8l-.15-.05v0c.36-1.66-.09-3.86-.33-5.73l14.67,5.09c.21.08.57.26.84.37v.17C455,148.61,455,150,455,150.31Zm0,63.79c-.86-.06-1.73-.15-2.59-.29l-6.95-1.54a9.3,9.3,0,0,0,0-2.89,2,2,0,0,0-.3-.59s0-.09,0-.13a5.8,5.8,0,0,0-2.13-2,10.27,10.27,0,0,0-.86-.78,1.4,1.4,0,0,1-.22-.44q.06-9.06.13-18.12.06-7.18.11-14.39c0-1,0-2,.08-2.95.25-4.1,1-9.28.13-13,4.12,1.65,8.38,3,12.56,4.51a18.77,18.77,0,0,0,.12,2v35.52C455,204,454.38,209.29,455,214.1Zm-11.09-2.24c-1.94-.59-4.14-1.47-6-1.49a5.19,5.19,0,0,0-1.37.21,19.41,19.41,0,0,0-3.65,1.2,9.69,9.69,0,0,1,0-1.62s0,0,0,0L433,210c.37-.38.77-.76,1.15-1.14.13-.13.26-.28.39-.43a5.26,5.26,0,0,0,1.53-1.47l.28,0h.26a14.12,14.12,0,0,0,1.84,0,14.12,14.12,0,0,0,1.84,0h.23l.24,0a5.64,5.64,0,0,0,1.61,1.26c.18.19.36.36.54.52s.66.5.94.79l0,.07a.9.9,0,0,1,.08.23l0,.13A7.57,7.57,0,0,0,443.92,211.86ZM455,160l-11.14-4h0l-2-.71-.36-.2a2.16,2.16,0,0,0-1.4-.82c0-.24-.08-.68-.08-.84h0c0-.6,0-1.21-.05-1.81s0-1.34-.05-2l12.33,3.63A9.24,9.24,0,0,0,455,154h0v.21C454.47,155.63,454.83,158.13,455,160ZM439.4,140.65v-5.58c0-1.21.45-3.86.2-5.4,1.28.19,2.65,0,4,.17.44.07.88.15,1.32.25a22,22,0,0,1,9.78,5.7,3,3,0,0,1,.32.81v9.47Zm-.6,15a5.22,5.22,0,0,1,.55,0,7,7,0,0,0,1.33.72,1.89,1.89,0,0,1,.09.21l0,4h0l-.21,28c0,5.26-.66,10.88-.12,16.11,0,.23,0,.43,0,.63-.21,0-.42,0-.62,0a14,14,0,0,0-2.51,0l-.74,0v-.22c1.05-4.88.19-11,.28-16q.27-15,.53-29.93h0c0-.84,0-1.69.05-2.53a1.46,1.46,0,0,1,.15-.46Zm-9.47,59.26a1.45,1.45,0,0,0,.67-.28l2.36-.77,3.2-1.21,1.74-.66h0a9.68,9.68,0,0,1,1.52,0c1.9.35,3.86,1.11,5.69,1.57L450,214.8h0l5.52,1.22a.69.69,0,0,0,.35,0h0l6.91-1.07h0c9.23-1.43,18.18-1.62,27.43-1.64l-8,4a11.93,11.93,0,0,1-1.23.34l-.13,0c-3.22.17-6.38.5-9.53.94-1.09.1-2.17.23-3.23.42l-1.66.34c-3.22.54-6.45,1.15-9.71,1.76a10.39,10.39,0,0,1-2.21-.13l-4.17-1.14c-4.08-1.37-8.28-3.25-12.3-3.37l-.16,0a.6.6,0,0,0-.55-.07h-.05l-1,.41c-.47.18-.95.39-1.51.62a34.83,34.83,0,0,0-4.5,1.85l-1.1.45V216A2.34,2.34,0,0,0,429.33,214.92Zm27.17-52.29v-.89c3.68-.33,7.63-.36,11.2-1.16L467.64,171q-.06,9.72-.13,19.44h0l-.09,15.34h0c-.31,1.84-.51,1.06-1.83,3l-.19.23c-1.09,1.2-.89,2.65-.83,4.19l-4.77.74a21.87,21.87,0,0,1-3.3.22V167.64C456.5,166.1,456.83,164.14,456.5,162.63Zm0-5.29v-2.21a3.74,3.74,0,0,0,0-1,270.65,270.65,0,0,1,43.35-6.22l.16,0a269.72,269.72,0,0,1,43.47,6.23,3.74,3.74,0,0,0,0,1v2.21a16.19,16.19,0,0,0,0,2.09v.82l-10.9-1.15a16.56,16.56,0,0,1-1.86-.54l-3.27-1.47a.73.73,0,0,0-.24-.07l-.13,0-1.65-.2h0c-3.14-.55-6.28-.91-9.42-1.16l-3.4-.42h-3.37c-2.94-.14-5.89-.26-8.85-.42a.65.65,0,0,0-.35-.07c-3.11.18-6.22.29-9.32.44h-3.37l-3.4.42c-3.14.25-6.28.61-9.42,1.16h0l-1.65.21a.5.5,0,0,0-.13,0,.67.67,0,0,0-.24.07l-3.27,1.47a16.56,16.56,0,0,1-1.86.54l-8,.84h0l-2.89.31v-.82A16.19,16.19,0,0,0,456.5,157.34Zm.08-17.66a16.33,16.33,0,0,0,.06-3.34l.31-.13,8.21-2.18c2-.55,4.08-1,6.14-1.4l5.1-.7a210.87,210.87,0,0,1,23.43-1.8.53.53,0,0,0,.19,0c13.71.39,26.77,1.76,40.05,5.3.28.07,1,.27,1.68.45l1.61.43a35.29,35.29,0,0,0,.14,4.43v5.46L542,145.9l-.23-.05c-6.14-1.37-12.29-3.1-18.54-3.89a181.85,181.85,0,0,0-23-1.47.62.62,0,0,0-.25-.05c-1.34,0-2.66,0-4,.06a176.68,176.68,0,0,0-34.4,4.56,32.83,32.83,0,0,0-5,1.12h0c0-.17,0-.35-.05-.53v-.53A25.19,25.19,0,0,0,456.58,139.68Zm-.08-4.87V104.58l1.36,1.33h0l6,5.86c.32.5.34,1.06.34,2.57v18.4L459.63,134a13.66,13.66,0,0,0-2.82.76l-.08,0Zm9.58-27.32.24-.16a3.52,3.52,0,0,1,.38-.24,10.93,10.93,0,0,0,1.53-.46l3.53-1.3c.24-.07.47-.15.68-.23,1-.36,1.95-.69,2.88-1l.18-.06.44-.13c.95-.28,1.9-.52,2.87-.71l.09,0c.51-.09,1-.18,1.54-.25,1.66-.22,3.3-.42,4.93-.6,4.78-.53,9.5-.88,14.38-1.07a.42.42,0,0,0,.12,0c6.56.25,12.82.79,19.32,1.64a40.38,40.38,0,0,1,7.8,2l.57.2.13,0c1.34.47,2.69,1,4.08,1.48a13.4,13.4,0,0,0,1.34.43,2.69,2.69,0,0,1,.29.16,5.05,5.05,0,0,0,.56.35,13,13,0,0,0,.2,3.08l-1.12-.45h0a62.17,62.17,0,0,0-6.51-2.6,27.73,27.73,0,0,0-7-1.66l-1.15-.15-.57-.1a140.79,140.79,0,0,0-17.65-1.32h0a.65.65,0,0,0-.29-.05,137,137,0,0,0-17.65,1.32c-.19,0-.38.06-.57.09l-1.15.15a28,28,0,0,0-7,1.66L467.4,110l-.09,0-1.47.58A13.11,13.11,0,0,0,466.08,107.49Zm14.78-.12a148.93,148.93,0,0,1,19-1.51h.05a.72.72,0,0,0,.27.06,148.63,148.63,0,0,1,19,1.51c5.45.77,10.15,2.9,15.24,5a1.18,1.18,0,0,1,0,.2,3.57,3.57,0,0,0-.11.47c-1.06,6.16-.08,13.3,0,19.64h0a2.75,2.75,0,0,0-.62-.46c-1.82-1-5-1-7-1.3-3.8-.53-7.6-1.11-11.41-1.59-4.95-.62-10-.51-15-.64a1,1,0,0,0-.32-.05c-5,.14-10,0-14.89.59-3.76.45-7.51,1.05-11.27,1.57-2.27.32-5.35.35-7.48,1.37a2.88,2.88,0,0,0-.63.4c.08-6.29,1.13-13.51,0-19.58,0-.16-.08-.32-.12-.48a1.05,1.05,0,0,1,.05-.19C470.72,110.28,475.42,108.14,480.86,107.37Zm80.78,42.42c3.82,1.64,7.64,3.43,11.54,4.87a6.33,6.33,0,0,0,1.72.68l.07,0v0c-.38.79,0,2.62,0,3.52v1.7l-13.34-6.34A18.1,18.1,0,0,0,561.64,149.79ZM575,191.46c0,.32-.06,1-.05,1.49a12.35,12.35,0,0,1-1.3.48c-.46.13-.91.26-1.34.4l-.65.16V160.66l2.28,1.09a3.21,3.21,0,0,0,.79.37l.15.07a2.49,2.49,0,0,0,.12.67c.32,1.14,0,3,0,4.12v13C575,183.82,574.83,187.66,575,191.46Zm-7.28,5.2a16.38,16.38,0,0,0,2.3,2.12,5.78,5.78,0,0,1,1,.69c-1,1.06-3.8,2-5.18,2.66a.55.55,0,0,0-.3.16.64.64,0,0,0-.15.13.21.21,0,0,0-.06.08.67.67,0,0,0-.06.12.85.85,0,0,0,0,.23v.05a.68.68,0,0,0,0,.14l0,.14,0,.06a1,1,0,0,0,.25.29L570,207c.48.55.65.75.7,1.16v5.22l-.08,0c-.64-.25-1.32-.53-2-.83a6,6,0,0,0,.06-1.73,3.55,3.55,0,0,0-.12-.89c-.25-.82-1.1-1.4-1.7-2a18.58,18.58,0,0,0-2-2.06q-.42-24.31-.86-48.62c1.52.73,3,1.5,4.61,2.11l.22.08,1.18.56a2.41,2.41,0,0,0,.06.78v33a4.73,4.73,0,0,1-.27.92l-1.62.66-.42.18A.74.74,0,0,0,567.68,196.66ZM556,210a1.3,1.3,0,0,0,0-.13,1.55,1.55,0,0,1,.07-.23l0-.07c.27-.29.66-.55.94-.8a6.08,6.08,0,0,0,.53-.5,5,5,0,0,0,1.55-1.26l.31,0h.23a14.12,14.12,0,0,0,1.84,0,16.13,16.13,0,0,0,1.84,0h.26l.28,0a5.58,5.58,0,0,0,1.59,1.54c.11.12.22.25.33.36.34.34.69.67,1,1h0a3.36,3.36,0,0,1,.29,1.49c0,.14,0,.29,0,.43a24.49,24.49,0,0,0-2.87-1,6.25,6.25,0,0,0-2.15-.44c-1.91,0-4.08.9-6,1.5A7.63,7.63,0,0,0,556,210Zm6.55-52.76h0l.18,9.91h0q.13,7.57.26,15.14l.13,6.93c.09,5.09-.49,10.73.28,15.77h0v.41c-.65,0-1.36.09-1.91.09s-1.22-.1-1.87-.1l-.06-.51c.73-5.16-.09-11-.13-16.22l-.09-12.32-.15-19.87a7.55,7.55,0,0,0,1.24-.62,3.38,3.38,0,0,1,1.17.12l.25.07.64.3A2,2,0,0,0,562.59,157.24Zm-1.19-29.17a1,1,0,0,1-.45.17,21.9,21.9,0,0,0-4.05.08,5.41,5.41,0,0,0-.66.05c-.25,0-.49.11-.73.16a20.21,20.21,0,0,0-4.58,1.41,23.64,23.64,0,0,0-5.95,3.68V106.38c0-.42.12-1.37.11-2.14a14.42,14.42,0,0,0,1.51.88c4.64,3,10,5.41,14.86,8.06C561.57,116.6,562.69,126.89,561.4,128.07Zm-16.08,7.75c4.62-4.27,8.84-5.3,14.84-6.14h.24c-.25,1.54.2,4.21.2,5.43v5.58L545,146.12v-9.47A3.09,3.09,0,0,1,545.32,135.82Zm.51,11.58,3.14-1.09,11.52-4c-.24,1.87-.68,4.08-.33,5.73h0v0h0a17.29,17.29,0,0,0-2.86.84L545,152.55V147.7A6.11,6.11,0,0,0,545.83,147.4Zm1.94,5.88,12.32-3.63c0,1.53-.07,3.07-.11,4.6a.33.33,0,0,0-.19.05,2.18,2.18,0,0,0-1.37.88,2.71,2.71,0,0,1-.26.15l-2,.71h0l-11.15,4a21,21,0,0,0,0-5.55v-.39A14.42,14.42,0,0,0,547.77,153.28ZM545,161.74a7,7,0,0,0,1.23-.53l1.39-.49,2-.7c2.06-.71,4.11-1.44,6.14-2.21a9.7,9.7,0,0,0,1.86-.69,33.58,33.58,0,0,0,.16,5l.07,9.73.24,32.67c-.37,2.42-.67,1.16-2.34,3.38a3,3,0,0,0-1.21,1.45,9.88,9.88,0,0,0,0,2.93l-6,1.34-1,.22c-.84.13-1.68.23-2.52.29V161.93A1.15,1.15,0,0,0,545,161.74Zm.6,54.08h0c4.83-.59,9.74-2.18,14.47-3.35a6.41,6.41,0,0,1,4.45.27l.64.24,1.16.44.06,0a26.21,26.21,0,0,0,2.53.89l1.74.57a9.67,9.67,0,0,0,.09,1.17v3.68l-.28-.12c-2-1-5.56-3-7.76-3.18h0l-.07,0h-.06a.58.58,0,0,0-.49,0c-4,0-9.11,2.52-12.79,3.52h0a18.61,18.61,0,0,1-10,.47l-2.71-.5a106.4,106.4,0,0,0-15.16-2.15,16.17,16.17,0,0,1-4.94-1.06l-2.57-1.28-4.18-2.09h1.2a166.66,166.66,0,0,1,23.6,1.24l.11,0c2.73.4,5.51,1.13,8.26,1.28l1.18.18s0,0,.05,0a.69.69,0,0,0,.35,0Zm25.14,6v21.85L568,242.48l-3.72-1.85c-.15-.09-.31-.16-.46-.26a2.25,2.25,0,0,0-.64-.3,2,2,0,0,0-.06-.57V218.21c1.44.53,3,1,4.53,1.61.91.46,1.8.92,2.62,1.31l.18.11a.93.93,0,0,0,.23.13A2.36,2.36,0,0,0,570.73,221.82ZM545,230.46v-7.78l2.69-.74c2.2-.47,4.42-1.21,7-1.91l7-1.92v21.2l-16.33-8.15A1.86,1.86,0,0,0,545,231,1.73,1.73,0,0,0,545,230.46Zm-1.48-7.63v7.4l-21.79-10.88a141.68,141.68,0,0,1,14.63,2.05l3.88.72h0l1.46.27A12.94,12.94,0,0,0,543.5,222.83Zm-32.48-15a11.81,11.81,0,0,0,1.19,0h.26c1.28.61,1.73,1.09,1.87,1.84v2.17h-7.05v-3a1.66,1.66,0,0,1,.75-1h.19C509.16,207.89,510.09,207.86,511,207.86Zm-2.47-1.52V156.79l3.34.22v49.36h-.19a8.92,8.92,0,0,0-2.84,0Zm19.29-17.63V159.15c1,.36,1.9.75,2.91,1.08l.06.15q.11,15.33.19,30.64c0,4.81-.63,10.21.1,15,0,.12,0,.21,0,.31h-.31a6.56,6.56,0,0,0-2-.24c-.33,0-.66-.07-1-.08l0-.43V205C528.27,199.66,527.84,194.09,527.84,188.71Zm2.55,19h0c.35,0,.73.08,1.08.09a2.45,2.45,0,0,0,.3.44,22.29,22.29,0,0,0,1.78,1.83,4.81,4.81,0,0,0,.38.42V213l-8-1.06v-1.65c0-.37,0-.76,0-1.14l0-.12a1.48,1.48,0,0,1,.08-.13l.13-.14a8.35,8.35,0,0,0,.92-.88,4.68,4.68,0,0,0,.39-.38C528.42,207.68,529.43,207.67,530.39,207.75Zm13.11,6.05v.42c-.36,0-.72,0-1.09,0a46.17,46.17,0,0,0-7-1,7.92,7.92,0,0,0-.24-3.52,6.21,6.21,0,0,0-1.56-1.87,8.1,8.1,0,0,0-.94-1,1.24,1.24,0,0,1-.1-.2c0-3.94-.05-7.87-.08-11.8h0l-.12-19c0-4.6.6-9.76-.09-14.32h0v-.91c3.55.82,7.53.81,11.19,1.14h0v37.37C543.5,203.67,542.54,209.37,543.5,213.8Zm-17.14-54.74c-.17,1.8,0,3.7,0,5.5v41.29c-.31,1.2-1.24,1.2-1.83,2.53a2.75,2.75,0,0,0-.15,1.23,14.88,14.88,0,0,0,0,2.21,1.92,1.92,0,0,0-.59.05c-2.45.49-5.4.09-8,0v-3.65a.74.74,0,0,0-.37-.64c-.62-.28-1.27-.65-1.93-.92,0-.1-.09-.23-.15-.41V157.12c3.58.27,7.16.59,10.78,1a12.52,12.52,0,0,1,2.21.48Zm17.14-32.85v8.63a28.28,28.28,0,0,0-3.13-.83l-4.59-1.22V114.38c0-1.48,0-2,.29-2.51l5.68-5.54h0l1.75-1.7Zm-86.29,21.35c14.33-3.17,27.82-5.61,42.57-5.64a.64.64,0,0,0,.24.05c14.83,0,28.38,2.45,42.77,5.63.33.11.56.2.71.26v3c0,.73-.15,1.34-.14,1.71l-1-.21-.14,0a58.48,58.48,0,0,0-7.22-1.62c-3.24-.72-6.42-1.51-9.7-1.93-8.37-1.07-16.59-1.84-25-2.35a.87.87,0,0,0-.35-.07c-8.53.51-16.85,1.29-25.32,2.37-3.28.43-6.46,1.21-9.7,1.93a58.07,58.07,0,0,0-7.22,1.62l-.14.05-1,.21c0-.37-.14-1-.14-1.71v-3C456.65,147.75,456.88,147.66,457.21,147.56Zm48.59,63.12v.73l-5.41-2.7-.07,0a.69.69,0,0,0-.71,0l-5.42,2.7v-.73a14,14,0,0,0,0-3,.73.73,0,0,0-.36-.65l-.45-.22c-.35-.18-.44-.3-.44-.62V206c0-.29,0-.69,0-1.34v-48h0c.53.3,2.23-.13,3.17-.18l3.68-.21a.5.5,0,0,0,.13,0l7.06.41c-.06.61.06,1.78.06,2.26v47.35c-.07.33-.29.48-.89.76a.74.74,0,0,0-.37.64A14.74,14.74,0,0,0,505.8,210.68Zm-30.23-2a2.28,2.28,0,0,0-.47-.72,2.92,2.92,0,0,0-.21-.28,12.91,12.91,0,0,0-1.25-1.34V158.59a12.72,12.72,0,0,1,2.21-.48l2.44-.28c2-.18,4.26-.21,6.26-.6l2.08-.16v48.35c-.07.62-.08,1-.1,1.18-.68.27-1.34.65-2,.94a.74.74,0,0,0-.37.64v3.64h-6c-.3,0-1.73.15-2.57.12,0-.13,0-.26,0-.38A6.36,6.36,0,0,0,475.57,208.7Zm-9.5,1.82a.41.41,0,0,1,.05-.09,2.13,2.13,0,0,1,.23-.26,18.36,18.36,0,0,0,1.77-1.84,2.38,2.38,0,0,0,.35-.5l0,0,1.12-.09a18,18,0,0,0,2.94-.23l.21.21a10.84,10.84,0,0,0,1,.95l.27.29h0a.9.9,0,0,1,.08.23c0,.32,0,.64,0,.95v1.82l-8,1.06v-2.46ZM469,191q.11-15.39.2-30.79c1-.33,2-.72,3-1.09v.15c-.74,2.89,0,7,0,10v19.44c0,5.35-.12,10.71,0,16.06,0,.35,0,.78-.06,1.2-.83,0-1.75.24-2.49.3l-.71,0s0,0,0,0a.17.17,0,0,1,0-.07C469.82,201.46,469,195.72,469,191Zm16.67,18.53c.15-.67.62-1.1,1.87-1.69h.17c.42,0,.86,0,1.28,0h3a1.66,1.66,0,0,1,.75,1v3h-7ZM488.11,194V157l3.34-.22c0,.16,0,.37,0,.65v48.89c-.82,0-1.68.05-2.47.05h-.8c0-.41-.09-1-.07-1.38C488.31,201.31,488.11,197.62,488.11,194Zm-9.82,25.31-4.2,2.1-17.59,8.78v-7.5l.09,0a9.78,9.78,0,0,1,1.7-.31l1.46-.28h0l3.9-.72A141.68,141.68,0,0,1,478.29,219.3ZM455,230.82v.06a1.72,1.72,0,0,0-.21.15l-3.08,1.54h0l-13.41,6.69v-21.2l6.46,1.77h0c2.79.76,5.22,1.59,7.66,2.09l2.58.71v7.78A2.75,2.75,0,0,0,455,230.82Zm117.19-22.47v-1.07c.76-1.6,1.52-3.21,2.27-4.81q.24,17.09.46,34.18a6.89,6.89,0,0,1-.32,1.2,15.51,15.51,0,0,0-2.41,3.87V214.39A36.91,36.91,0,0,0,572.21,208.35Zm3.82-8.64a7.26,7.26,0,0,1,1.37-1.24,5.43,5.43,0,0,1,3.82-.1c.23.08.5.19.77.31a17.66,17.66,0,0,0,2.62,1.38v6.69a.74.74,0,0,0,.29.57c-.14,1.53-.29,3-.29,3.91V237a24,24,0,0,0-3.7,0,31.54,31.54,0,0,0-4.41-.09c.56-3.39-.17-7.58-.21-10.94,0-.36,0-.73,0-1.1h0q-.1-8.28-.22-16.54v-.8c0-1.85,0-3.7-.08-5.55A19,19,0,0,0,576,199.71Zm0,39,.13-.17h.65a30.45,30.45,0,0,0,4.48,0H585a5.67,5.67,0,0,1,.91,1l3.66,4.26H573A28.12,28.12,0,0,0,576,238.68Zm19.51-31.19.35,30c-1.74,1.21-3.32,4-4.7,5.89-1.52-1.89-3-4.16-4.87-5.63a1.35,1.35,0,0,0-.22-.14V207.49ZM586.09,206v-5.65c1.35.11,2.84-.07,4.1-.07,1.62,0,3.57.29,5.26.12,0,1.86,0,3.73.07,5.6Zm10.84-5.93a9.85,9.85,0,0,0,1.49-.8,15.4,15.4,0,0,1,2.89-1.34,5.07,5.07,0,0,1,1.39.32,29.75,29.75,0,0,1,3.27,1.67l.25.25c-.26-.24-.12.41,0,.88a13.65,13.65,0,0,1,0,3.13v19.29c0,4.24-.25,8.6,0,12.83V237a28.35,28.35,0,0,0-4.42,0,30.87,30.87,0,0,0-4.44-.08l-.3-25.71c0-1-.18-2.4-.34-3.91l.08-.06h0a.67.67,0,0,0,.21-.51C597,204.53,597,202.3,596.93,200.08Zm0,38.43h0a.76.76,0,0,0,.41,0H606l.19,0v5.3H592.74c1.19-1.49,2.39-3,3.57-4.48C596.89,238.6,596.85,238.5,596.9,238.51Zm14,5.32h-3.21v-4C608.84,241.07,609.88,242.46,610.92,243.83Zm-3.21-6.3v-8.34c1.9,0,3.8,0,5.7,0h0v14.65h-.66c-1.46-1.9-3.16-5.09-5.06-6.3ZM610,222.68c.6,0,1.21.11,1.81.12a1.77,1.77,0,0,1,.54.07c1.26,1.11,2.5,2.25,3.74,3.38-.56.37-1.11.74-1.64,1.13-.24.19-.42.28-.46.32h-6.25v-5.17Zm-2.26-17.76v-4.09a13.71,13.71,0,0,1,1.11,2.53C609.17,204.65,609.57,203.92,607.71,204.92Zm-26-25c0,1-.55,2.88-1.36.79-.38-1,.86-3.71,1.26-4.48,2.1-4,6.81-6.91,11.34-5.19a12,12,0,0,1,5.94,5.74c.67,1.2,2.42,4.09.29,4.38v-1.28a.72.72,0,0,0-.15-.43.76.76,0,0,0-.59-.31H585.35l-2.86,0a.75.75,0,0,0-.58.31A.74.74,0,0,0,581.75,179.93Zm16,2V192.2a3.54,3.54,0,0,1-.45.08h-.74V180.64h1.18A7.82,7.82,0,0,0,597.74,181.93Zm-2.67-1.29v11.64h-2.45V180.64Zm-3.93,0v11.63h-1.93V180.67l1.28,0Zm-3.42,0v11.58h-1.63V180.72Zm-4.43,0h.82l.5,0v11.6h-1.27L583.25,182h0A9.17,9.17,0,0,0,583.29,180.66Zm-5.11,12.78c2.24-.71,2.22-.24,4.07.22a.71.71,0,0,0,.35.1h.11c2.56.54,5.79,0,8.4,0,2.31,0,5,.41,7.32,0h.05a.74.74,0,0,0,.34-.08c1.88-.4,2.35-1,4.35-.5a60.56,60.56,0,0,1,8.43,2.92,7.31,7.31,0,0,1-.78.57,36,36,0,0,0-3.29,2.65.13.13,0,0,0,0,.05.61.61,0,0,0-.16-.16c-1.34-.77-3.8-2.94-5.32-3h0l-.15,0c-1.45-.11-3.73,1.49-5.31,2.4q-.57.15-1.17.27H587a18.16,18.16,0,0,1-2.59-.66c-1.44-.88-3.21-2-4.42-2a4.2,4.2,0,0,0-1.61.44,6.33,6.33,0,0,0-3.45,2,.58.58,0,0,0-.33.29l0,.07,0,.06h0a7.2,7.2,0,0,0-1.23,2.61c-.68,1.45-1.37,2.89-2,4.34a17.23,17.23,0,0,0-2.62-1.9l-1.33-1,5.1-2.73a.75.75,0,0,0,.15-1.17c-.24-.22-.5-.44-.77-.67l-.06,0a14.49,14.49,0,0,1-2.16-2,11.06,11.06,0,0,1,1.81-.77l4.56-1.26a.75.75,0,0,0,.42-.32C576.94,193.82,577.57,193.64,578.18,193.44Zm-2.85-45.24,5.93,2.61c-1.47.83-2.94,1.65-4.37,2.53a14.2,14.2,0,0,0-1.29.7l-2-.85h0l-12-5q.2-2.93.38-5.85l13.32,5.87Zm-11-20a7.74,7.74,0,0,1,7.63,1.54,9.07,9.07,0,0,1,3,7.22v9.46l-8.26-3.64h0l-4.55-2h0a.45.45,0,0,1-.06-.12V130.53h0C562.4,129,562.51,128.84,564.38,128.2Zm-1.48-19.47-12.14-5.53c-.5-.23-1-.49-1.53-.74l.22-.1c2.25-.44,4.7-2.1,6.86-3.22Q559.61,103.94,562.9,108.73ZM550.15,100h.17a.51.51,0,0,0,.22-.06l.61-.07-4.09,1.93a.75.75,0,0,0,0,1.29l10.37,4.72c1.77.81,3.54,1.81,5.38,2.46l.87.39a1.9,1.9,0,0,1-1,.72c-.52.15-.5.36-.64.36l-1.53-.84h0c-1.92-1.12-3.91-2.15-5.86-3.22l-10-5.5a.49.49,0,0,0-.21-.08h-.09a.41.41,0,0,0-.11,0h-.08l0,0-.07,0-.09,0a.5.5,0,0,0-.19.13c-2.32,2.26-6.05,4.76-8.08,7.66l-.12-1.58a3.27,3.27,0,0,1,.93-1.91c.65-.5,1.39-1.22,2.52-2.15.89-.73,2.27-2.14,3.5-3.18a12.22,12.22,0,0,1,1.37-.83c1.19-.62,4.15-.14,6.27-.3ZM514.09,47.13c-.07-.12,0-.16,0,0ZM500,6.68a23,23,0,0,0,3.16,7.52,19.67,19.67,0,0,0-2.78-.49.58.58,0,0,0-.39-.08,18.19,18.19,0,0,0-3.13.52A22.65,22.65,0,0,0,500,6.68ZM493.43,19a2.87,2.87,0,0,1,1.44-2.43l.11,0a17.26,17.26,0,0,1,4.91-1.41l.13,0a17.22,17.22,0,0,1,5,1.42l.11,0A2.87,2.87,0,0,1,506.57,19a4.28,4.28,0,0,1-1,3l-.13.12a11.31,11.31,0,0,0-5-1.86.64.64,0,0,0-.43-.1,11.59,11.59,0,0,0-5.37,1.91l-.14-.12A4.28,4.28,0,0,1,493.43,19Zm-3.56,21.28c.41-1,.1-2.5.1-3.53,0-1.72-.11-3.48,0-5.21,0,0,.15-.85.18-.34,0,.84,0,1.7,0,2.55,0,3.89-.64,5.51,2,8.24a.75.75,0,0,0,1.16-.15c1.72-2.69,1.2-5.23,1.2-8.43,0-1.22,0-2.44,0-3.65-.11-2.42-1.37-4.23.55-6.05l0,0c.45-.17.83-.56,1.33-.82a10.14,10.14,0,0,1,3.49-1l.13,0a9.74,9.74,0,0,1,3.35.94c.54.26,1,.73,1.54.91l.06,0c1.92,1.83.66,3.64.55,6.06,0,1.21,0,2.43,0,3.65,0,3.18-.52,5.75,1.2,8.43a.75.75,0,0,0,1.16.15c2.58-2.64,2-4,2-7.78,0-1,0-2,0-3,0-.5.15.32.18.35.08,1.73,0,3.49,0,5.21,0,1-.31,2.55.1,3.53.78,1.86,1.63,1.27,1.73,3.48,0,.4,0,.69.06.9-.76-.31-1.53-.59-2.31-.85l-1-.31a33.54,33.54,0,0,0-6.17-1.23h-.05l-.79-.07q-.57,0-1.14-.06a.75.75,0,0,0-.31-.06,16.3,16.3,0,0,0-1.71.07l-.8.07h0a33.29,33.29,0,0,0-6.22,1.25c-.33.09-.65.18-1,.29-.74.24-1.47.51-2.19.8,0-.12,0-.26-.06-.43C487.63,41.68,489.08,42.14,489.87,40.27ZM486,47.15a13.78,13.78,0,0,1,1.19-.7.54.54,0,0,0,.45,0,37.91,37.91,0,0,1,10.68-2.79l.7,0c.23,0,.47,0,.71,0a1.08,1.08,0,0,0,.19,0,26.75,26.75,0,0,1,5.51.63l.76.17.25.07a51.59,51.59,0,0,1,6,2,.56.56,0,0,0,.36,0,9.26,9.26,0,0,1,1.33.69,2.47,2.47,0,0,1-.05.38,14.14,14.14,0,0,0,0,2.52v2.36a2.83,2.83,0,0,0-.28-.2l-.06-.05c-3.76-2.76-8.94-3.76-13.51-3.61l-.21,0c-4.61-.17-9.87.81-13.68,3.61l-.06,0-.28.2V50.07c0-.76.07-1.56,0-2.31A3.19,3.19,0,0,1,486,47.15Zm.62,6.7c.17-.13.33-.28.51-.4l.22-.16c3.54-2.42,8.21-3.29,12.43-3.23a.84.84,0,0,0,.29,0c4.28-.11,9.06.76,12.68,3.22l.23.17.49.4A11.79,11.79,0,0,1,515,55.44a49.08,49.08,0,0,0-14.74-1.92.85.85,0,0,0-.24-.05A48.85,48.85,0,0,0,485,55.4,11.21,11.21,0,0,1,486.57,53.85Zm-35,40.75a65.63,65.63,0,0,1,11.29-22.26C472,60.82,485.16,55,499.77,55a.62.62,0,0,0,.25,0c23.67,0,40.58,15.86,47.72,37.53a31.63,31.63,0,0,1,1.68,5.95c-.52,0-1,.06-1.57.06a10.46,10.46,0,0,0-3.91,0,11.91,11.91,0,0,0-3.78,2.54c-2.1,1.44-4.6,3.39-5.63,4.92l-.07,0h-.09c-2.11-.77-4.17-1.55-6.23-2.25l-.19-.08c-8.77-3.18-18.2-3.52-27.48-3.87a.71.71,0,0,0-.34-.08c-8,.31-17.07.25-24.79,2.71-1.67.53-3.32,1.17-5,1.79-1.38.49-2.77,1-4.19,1.53a2.13,2.13,0,0,0-.62.18c-1.08-1.66-4.09-3.83-6.27-5.28a8.77,8.77,0,0,0-2.66-1.93,7,7,0,0,0-2.23-.26,16.25,16.25,0,0,0-3.13-.06l-.84,0A27.9,27.9,0,0,1,451.6,94.6Zm-7.91,4.49a53,53,0,0,0,6.44,3l.64.3-1.53.73-12.14,5.53Zm-7.39,11.58.58-.26h0c1.88-.39,3.93-1.79,5.7-2.6l10.36-4.72a.74.74,0,0,0,0-1.28l-4.09-1.94.61.08a.72.72,0,0,0,.21,0h.22c2.12.16,5.08-.3,6.27.3.23.11.47.26.72.4,1.15.94,2.85,2.54,3.72,3.26,1.4,1.15,2.26,2.05,3.08,2.61a3.14,3.14,0,0,1,.81,1.61c0,.6-.09,1.2-.13,1.8-2-2.91-5.73-5.4-8.08-7.69a.59.59,0,0,0-.19-.13.32.32,0,0,0-.09,0l-.07,0-.05,0h-.08a.48.48,0,0,0-.12,0h-.08a.66.66,0,0,0-.21.08l-10,5.5-3.59,2-3.46,1.91a3.86,3.86,0,0,0-1-.18A1.22,1.22,0,0,1,436.3,110.67Zm1.5,1.17-.07,0C437.32,111.91,437.51,111.89,437.8,111.84ZM425,137.22c0-2.57.35-4.81,2.2-6.87a7.84,7.84,0,0,1,7.89-2.34,5.59,5.59,0,0,1,2.19.94c.94.94.23-.32.59,1.53h0v6.12h0v4.1l-11.45,5.05-1.42.62Zm-1.63,16.24c-1.46-1-3.08-1.84-4.65-2.71L438,142.28q.18,2.92.38,5.85l-11.95,5h0l-2,.85A5.19,5.19,0,0,1,423.41,153.46Zm-22.53,23.61c1.36-2.57,3.34-5,6.13-6.07,4.29-1.63,8.88.9,11.05,4.69.54.94,2,3.73,1.53,4.94-.74,2.08-1.35.34-1.34-.75a.72.72,0,0,0-.15-.43.8.8,0,0,0-.59-.32l-2.86,0H401.52a.78.78,0,0,0-.74.74v1.29C398.76,180.86,400.25,178.28,400.88,177.07Zm15.87,4.85h0l-.09,10.31h-1.27V180.61h1.36A7.46,7.46,0,0,0,416.75,181.92Zm-2.84-1.31v11.62h-1.63V180.61Zm-3.12,0v11.63h-1.93V180.61h1.93Zm-3.41,0v11.6h-2.45V180.65Zm-5.07,0h1.14v11.63H403a5,5,0,0,1-.77-.13V181.88A11.24,11.24,0,0,0,402.31,180.58Zm-12.74,16.36c-.38-.31-.76-.66-1.16-1a48.1,48.1,0,0,1,8-2.68c2.53-.66,2.53,0,5.12.44,2.32.38,5,0,7.37,0,2.55,0,5.75.53,8.25,0h.26a.75.75,0,0,0,.45-.18c1.32-.37,1.8-.72,3.48-.34.73.17,1.5.39,2.28.63a.74.74,0,0,0,.49.45l4.56,1.26c.48.18.94.43,1.42.6l.3.09.1.07a20.11,20.11,0,0,1-3,2.75.75.75,0,0,0,.15,1.17l5.1,2.73-1.33,1c-.46.35-1.19.76-1.81,1.2a2.34,2.34,0,0,0-.81.7h0l-2-4.33a7.49,7.49,0,0,0-1.2-2.52l-.07-.16,0-.07a.65.65,0,0,0-.36-.3,6.13,6.13,0,0,0-3.41-1.94,4.14,4.14,0,0,0-1.62-.45c-1.19,0-3,1.14-4.44,2a19.09,19.09,0,0,1-2.53.65H404.4l-.68-.14c-1.61-.88-3.93-2.55-5.54-2.53h-.1l-.08,0c-1.3.12-3,1.43-4.34,2.38l-.45.31-.55.35a.61.61,0,0,0-.16.16l0,0Zm1.45,7.11L391,204a1.44,1.44,0,0,0,0-.24,8.79,8.79,0,0,1,1.31-3v4.11A4.4,4.4,0,0,1,391,204.05ZM384,226.2l3.79-3.43h.35c.64,0,1.3-.09,1.94-.13l2.26-.15v5.17H386a2.12,2.12,0,0,1-.3-.23A14.72,14.72,0,0,0,384,226.2Zm3.26,17.58h-.66V229.13h5.74v8.3C390.39,238.74,388.68,241.88,387.21,243.78Zm5.08-4v4h-3.18C390.17,242.46,391.24,241.14,392.29,239.82Zm-9.22,5.41.23,0a16.38,16.38,0,0,0,4.2,0,.49.49,0,0,0,.24,0h21.05l17.08.22-6,3a6.28,6.28,0,0,1-.64.18H385.48a3.42,3.42,0,0,0-.44-.39C384.15,247.53,383.83,246.1,383.07,245.23ZM372.9,251.4h11.28v1.11a21,21,0,0,0,0,4.19V263c-1.05.08-2.05.17-2.87.17h-8.16a.7.7,0,0,0-.25.05Zm0,13.31,3.71,3.66-3.71-.13ZM339,251.4h32.43v17H339Zm-20.51,16.7c.34-1.32,0-3.25,0-4.59V253.25c0-.59,0-1.21,0-1.81.36,0,.76,0,1.05,0h17.94v16c0,.28-.07.69-.05,1H325.59a66.13,66.13,0,0,0-7.18-.05C318.43,268.31,318.46,268.21,318.48,268.1Zm-34.62-16.7H317v17H283.86Zm-20.78,12.11V253.25c0-.6,0-1.21,0-1.81.37,0,.8,0,1.11,0h18.18v16c0,.28-.06.69-.05,1h-12a65.47,65.47,0,0,0-7.28-.05c0-.08,0-.18.07-.29C263.42,266.78,263.08,264.85,263.08,263.51ZM230.59,251.4h31v17h-31ZM208.07,263c0-3.47.28-7.07,0-10.53a4.65,4.65,0,0,1,0-1.07h21v6.29c0,3-.87,7.55,0,10.42,0,.13.07.23.09.32-1,0-1.92,0-2.88,0h-10.8c-2.49,0-5-.1-7.48,0a2.28,2.28,0,0,1,0-.54C208.42,266.46,208.07,264.45,208.07,263Zm-33.44-11.6h32v17h-32Zm-20.38,16.49c.33-1.3,0-3.21,0-4.54V253.22c0-.58,0-1.19,0-1.78.35,0,.75,0,1,0h17.82v15.8c0,.27-.06.68-.05,1H161.3a60.38,60.38,0,0,0-7.12,0C154.2,268.09,154.22,268,154.25,267.89ZM136.52,251.4h16.25v17h-33v-17h16.7Zm-30.18.29v-.11c2.46.43,5.81-.18,8.08-.18h3.92v16.84c-1,.05-2.12.13-3.2.2H111l-.2,0a5.33,5.33,0,0,1-2.08-.9c-.49-.26-1-.61-1.53-.89a4.89,4.89,0,0,1-1.1-2.37C106.27,260.09,106.71,255.77,106.34,251.69Zm8.48-1.78h-7.39a6.06,6.06,0,0,1-1.05-.08,4.37,4.37,0,0,1-1.06-.43,13.38,13.38,0,0,0-3-2.52v-2.64c0-2.22.07-4.44,0-6.65l.8,0h0a19.59,19.59,0,0,0,4,.25l.81.11a1.59,1.59,0,0,0,.73.08h0a21.88,21.88,0,0,0,0,2.35.61.61,0,0,0,.06.25.54.54,0,0,0,0,.11.67.67,0,0,0,.44.35l2.08.34a23.33,23.33,0,0,1,4.13,1.2,33.75,33.75,0,0,1,4.62,2.85.52.52,0,0,0,.13.06,5.07,5.07,0,0,0,2.13,2.9c0,.64-.16,1.2,0,1.41h-7.42Zm-12.67-62.15,1.22.28h0a9.88,9.88,0,0,0,2.25.54l.32.12q-.22,15.45-.29,30.9c0,5.15-.51,10.65.11,15.78a9.4,9.4,0,0,1,0,1l-3.22-.21h-.26a2.43,2.43,0,0,0,0-.36c-.12-1.28,0-2.64,0-3.93v-42C102.28,189.36,102.14,188.47,102.15,187.76Zm-11.1,44.86H89.71q-.09-23.85-.2-47.69l11.29,2.55v48.32Zm9.75,4.29c0,.12,0,.25,0,.38a.06.06,0,0,0,0,0C100.41,237.12,100.67,236.87,100.8,236.91ZM90.11,244v.77H75.61a4.3,4.3,0,0,0-.73,0c-.41,0-.29,0-.31,0a3.65,3.65,0,0,1-.3-.27,11.45,11.45,0,0,0-.76-1c-.17-.22-.35-.42-.53-.62a6.14,6.14,0,0,0-.71-.85,17.76,17.76,0,0,0-1.75-1.5,21.32,21.32,0,0,0-14.42-4.4A21.9,21.9,0,0,0,43,240.44a15.41,15.41,0,0,0-3.24,3.16,14.66,14.66,0,0,1-.94,1.15,10.63,10.63,0,0,0-2.46,0c.07,0-.66,0-1.18,0V234.08H71.34c5.55,0,12.58,1.19,18,0A6.27,6.27,0,0,1,90,234a4.33,4.33,0,0,0,0,1.5,37,37,0,0,0,0,4.47A21.49,21.49,0,0,0,90.11,244ZM33,186.72c.11-.83.07-1.08.11-1.23l.63-.58c.14-.12.31-.27.52-.48h0l.58-.53c.37-.35.84-.71,1.29-1.09V232.6H34.46a.67.67,0,0,0-.49.2h0c-.42.33-1,.69-1.58,1.08q.15-12.33.31-24.66l.22-17.39A41.61,41.61,0,0,1,33,186.72Zm.34-5.42.19-.21a34.36,34.36,0,0,0,2.6-2.91v.76a9.56,9.56,0,0,0,0,1.61,7.83,7.83,0,0,0-2.89,2.27l0-.39C33.24,182.06,33.29,181.68,33.3,181.3Zm0,.06,0,0C33.24,181.47,33.17,181.48,33.25,181.36Zm4.35-1.31c0-.2,0-.39,0-.58V177.1a38.91,38.91,0,0,0,4.47.27l3.94.35v3C43.22,180.35,39.92,179.61,37.6,180.05ZM46,182.38l-.87,50.22h-1.4V182.23Zm-7.69-.46a22.15,22.15,0,0,0,3.94.46v48.34c0,.45.14,1.25.11,1.86a2.13,2.13,0,0,0-.33,0H37.59c0-.12,0-.26,0-.44-.09-1.31,0-2.66,0-4V183.87c0-.31-.12-1.16-.13-1.85A6.06,6.06,0,0,1,38.29,181.92Zm9.06.54,1.34,0c.74.05,1.49.08,2.24.07l1.67,0q-.23,17.35-.46,34.71c-.06,4.54-.34,9.13-.18,13.67h0c0,.41-.11,1.14-.1,1.61H51.8a21.46,21.46,0,0,0-2.55,0H46.59l.84-48.29C47.43,183.93,47.32,183.09,47.35,182.46Zm.2-10.56c7.38.28,15-.61,22.39-.08,2,.15,4.66.85,6.74.65l.12.22c.23.57,1,1.8,1.28,2.29.41.75.82,1.5,1.24,2.25-9.73-2.95-21.88-1.54-31.85-1v-3.21A2,2,0,0,0,47.55,171.9Zm75.64,74.47a4.58,4.58,0,0,1,0,.63,11.19,11.19,0,0,0-1.63-2,10.5,10.5,0,0,1-.44-2.47q.11-13.66.22-27.34h0q.06-6.57.11-13.15a11.56,11.56,0,0,1,.56-2.27,18.5,18.5,0,0,0,2.12-3.52l-.87,46.11C123.24,243.66,123.11,245,123.19,246.37Zm-.28-51.47a20.49,20.49,0,0,0-2.13,3.77,11.67,11.67,0,0,0-1.43-1.92c-2.89-3.62-7.48-6.68-11.11-8.63-.27-.16-.54-.32-.81-.5v-2.51c5.28,2.32,10.41,4.92,14.78,8.73.27.29.54.59.79.9Zm-3.28,46.72c0,.57,0,1.14,0,1.71l-.72-.5a23.1,23.1,0,0,0-2.43-1.37c-.32-.38-.27-.48-.42-1.88-.16-1.63,0-3.35,0-5V195.76a14.38,14.38,0,0,1,4,4.8l0,2.81h0q-.09,9.63-.16,19.25c0,.4,0,.8,0,1.2C119.75,229.75,119.59,235.69,119.63,241.62Zm-6.72-48.38c.52.38,1.07.77,1.64,1.2v46.24a13,13,0,0,0-1.53-.42q0-15.75-.08-31.49C112.92,203.72,113.5,198.26,112.91,193.24Zm-3.55,43.32-1.78-.12a2.12,2.12,0,0,1-.15-.28v-45.3a13.57,13.57,0,0,0,0-1.42l.24.16h0a13.31,13.31,0,0,0,2.82,1.94l1,.68c0,.53-.08,1.24-.08,1.61-.16,8.25,0,16.53.06,24.78q0,10.73,0,21.43c-1.84-.24-1.43-.14-1.43-2.75A.75.75,0,0,0,109.36,236.56Zm-4.63-56.35h0l-6.45-1.4h0l-14.65-3.19c-.43-1.51-.74-3.61-1.59-4.73,3.2,1.13,6.83,1.62,10.11,2.42l1.6.38,4,1,13.14,3.18-1.47.92a.56.56,0,0,0-.15.1l-.59.36A8,8,0,0,1,104.73,180.21ZM79.9,185.87c0-.63,0-1,0-1.31l.56.13h.37l.2-.07.39-.21a2,2,0,0,0,.4-.22h0l.53-.28L82.68,206l.18,10.66q.12,6.75.22,13.49h0c0,.83,0,1.66,0,2.49h-.25a12.78,12.78,0,0,0-3.54,0C79.54,217,80.07,201.43,79.9,185.87Zm1.55-3.56c.06-1.16.11-2.31.17-3.47l.68-.72v3.95C82,182.14,81.71,182.23,81.45,182.31Zm.75-6.24c-.38.39-.75.78-1.12,1.18A26.79,26.79,0,0,0,78.39,172c.49-.24,1-.52,1.4-.77l.67-.33Zm-28.34,1.26c1.6.07,3,.13,3.43.13,4.89-.05,9.8,0,14.67.45a51.63,51.63,0,0,1,7.33,1L80,179l.15.05v.15a9.85,9.85,0,0,0-.1,2.05h0l-.07,1.5a5.38,5.38,0,0,1-1.75,0c-3.06-.44-6.15-.7-9.23-.91h-.1l-.51,0c-2.91-.19-5.81-.32-8.72-.43h0l-6.23-.23L49.43,181l-1.18,0-.78,0v-3.19C49.52,177.63,51.66,177.47,53.86,177.33Zm24.57,7q-.29,24.13-.58,48.27H76.36V184.15ZM69.6,185c0-.27-.09-.89-.1-1.43l5.4.5a15.83,15.83,0,0,1,0,3.44v43.45c0,.4-.11,1.19-.1,1.69H69.25C69.38,216.74,70,200.79,69.6,185Zm-1.47-1.54Q68,208,67.76,232.6H60.33V182.86C62.94,183,65.54,183.18,68.13,183.41Zm-9.28,6.82v42.34a15.69,15.69,0,0,0-4.39,0h-1l.09-6.87h0L53.87,199c0-.93,0-1.86,0-2.79l.18-13.53,2.25,0a7.84,7.84,0,0,1,1.84.88C59.59,185.11,58.85,188.24,58.85,190.23Zm29.22,4,.06,15q0,11.67.1,23.35H84.68c0-.22-.06-.48-.08-.72s0-.28,0-.41h0c.36-3.6-.12-7.48-.18-11.09q-.25-14.77-.49-29.56h0l-.12-7.2,2.42.54h0l.24.05a5.8,5.8,0,0,0,1.56.38.75.75,0,0,0,0,.26C88.73,187.58,88.06,191.46,88.07,194.25Zm9.27-9.1-8-1.8-1.31-.29A32.94,32.94,0,0,0,83.78,182v-1.64c0-.74,0-1.45,0-1.7,0-.46,0-1,0-1.43l6.39,1.39h0L105.94,182v3.17c0,.62-.06,1.29,0,1.93l-.2-.05C103,186.14,100.08,185.77,97.34,185.15Zm36.06,63.77h1.5l-.06.12h0c-1.37,1,.34.48-1.69.87h-9.4v-1Zm-.84-1.48h-7.9q.48-25.83,1-51.65l.45.1q-.28,23.48-.55,47a.76.76,0,0,0,.74.74l5.11.28A28.22,28.22,0,0,1,132.56,247.44Zm-5.13-51.26.13,0a28.71,28.71,0,0,0,3.32.84v37.88c0,2.24-.38,4.87,0,7.09a1.94,1.94,0,0,0,.07.33h0a12.92,12.92,0,0,1-3.61-.2,1.39,1.39,0,0,0-.29,0,3,3,0,0,0,0-.41c-.11-1.21,0-2.49,0-3.7q.17-13.5.31-27l.15-12.94C127.54,197.66,127.42,196.85,127.43,196.18ZM132,192l3.26.6-1.53,1.17c-.59.45-1.26.87-1.81,1.38-.25.23-.4.33-.47.39l-4.46-1-2-.44,1.62-3c.69.17,1.51.2,2.1.31l3.29.6Zm-7.34-6c2.94.1,5.89,1.46,6.63,4.38l-.39-.07-4.25-.78-.06-.08-.44-.57L125,187.3l-.32-.41A2.52,2.52,0,0,0,124.69,186Zm-1.22,1.76,0,0,.06.11a20.59,20.59,0,0,0,1.8,2.47l-1.56,2.93c-3.05-3.85-8.46-6.42-13.24-8.47l-.15-.07a25.3,25.3,0,0,0-2.39-1,3.52,3.52,0,0,1-.58-.3v-.73c.08-.51.13-1.05,0-.9a3,3,0,0,1,.77-.63,11.42,11.42,0,0,0,1.65-.86,53.88,53.88,0,0,1,13.45,7.33Zm-41.71-104a3.56,3.56,0,0,1,4.17-.29,4.36,4.36,0,0,1,1.33,1.27.31.31,0,0,1,0,.11.69.69,0,0,1-.15.25,20.27,20.27,0,0,1-3,2.78A12.48,12.48,0,0,1,81.76,83.76ZM84,89.63a3.48,3.48,0,0,1,3.11,2.69L86.28,92a14.63,14.63,0,0,0-5-.94A2.7,2.7,0,0,1,84,89.63ZM70.11,100.1c1.1-1.77,1.43-3.58,3.12-5,2.85-2.49,6.59-2.63,10.16-2.26a20.77,20.77,0,0,1,2.66.71c.57.22,1.12.45,1.65.71a1.12,1.12,0,0,0,.26.08,18.35,18.35,0,0,1,9.87,11.38,30.11,30.11,0,0,0-10.88-5,29.41,29.41,0,0,0-17.23.12A5,5,0,0,1,70.11,100.1Zm-.3,2.27a31.5,31.5,0,0,1,26.78,4.23l.3.27c1.71,1.73,1,.32,1.16,2.74a33.08,33.08,0,0,0,1.85,10.28A41.23,41.23,0,0,0,93,117a49.18,49.18,0,0,0-11.72-2.78,41.64,41.64,0,0,0-13.69.17C70.17,111.22,70.35,106.31,69.81,102.37Zm-4.94,14.25a47.67,47.67,0,0,1,15.46-1,51.85,51.85,0,0,1,16.16,4.69c.72.34,1.55.69,2.37,1.07s1.76,1,2.6,1.6a.68.68,0,0,0,.25.11c.17.15.34.3.5.46a22.08,22.08,0,0,1,2.22,4.4l-.05,0c-4.32-3.58-11.52-5.41-16.89-6.6L86.42,121q-2.69-.63-5.42-1c-5.82-1-12.22-1.23-17.71.56C62.64,119.9,63.23,117.73,64.87,116.62Zm-1.72,5.62a48.05,48.05,0,0,1,15.1-1.06,68.09,68.09,0,0,1,19.64,5.35c1,.4,2,.79,3.09,1.23s1.92,1,2.86,1.55a.35.35,0,0,0,.11,0c.23.17.45.34.66.53,1.44,1.31,3.09,7.79,2.41,7.86a49.61,49.61,0,0,0-12.89-5.88c-9.63-3.06-22.83-5.53-32.88-3.33C59.9,127.17,63.42,122.63,63.15,122.24Zm-4.4,12.63c-1.69-3,.51-4.34,3.89-4.93a100.13,100.13,0,0,1,11.52-.14l1.85.14a75.06,75.06,0,0,1,20.52,4.29c.93.34,2,.71,3,1.11a48.11,48.11,0,0,1,6.29,3.39c1.19,1.07,3.11,3.54,3,4.9-.09.77-.82.13-1.57-.73a11.16,11.16,0,0,0-1.59-1.94l0-.05a.1.1,0,0,0,0,0,15.7,15.7,0,0,0-1.37-1.18c-8.43-6.77-22.08-8.77-32.33-9.07a31.45,31.45,0,0,0-8.27.87C60.93,132,59.11,133.08,58.75,134.87ZM44.6,156.29c.75-2.15,5.52-1.07,8.09-.17,1.2.41,1.76,1.12,3.22,1.08,6.71-.19,4.65-14.79,4.73-19.4a.65.65,0,0,0,0-.43v0a.49.49,0,0,0,0-.11,2.64,2.64,0,0,1,1-3.44c5.18-3.17,24.14.08,26,.51,6,1.42,14.41,3.83,18.24,9.2,2.59,3.65,1.15,10.76,1.15,15.21,0,7.07,6.31,14.35,13.63,15.08a15,15,0,0,0,2.65.12c.32.41,0,2.58,0,3.09,0,2.5-.65,6,0,8.4,0,.12,0,.22,0,.33l-1.29-.88a39.84,39.84,0,0,0-10.41-5.54l1.74-1.12a.75.75,0,0,0-.17-1.36l-23.14-5.59c-2.53-.61-6.14-2.26-8.76-2.12h0a.9.9,0,0,0-.23,0h0a.79.79,0,0,0-.22.06l-.09,0h0c-1.86.31-3.18,1.39-5.19,1.51-.54,0-1.08,0-1.55-.07-8.46-.76-17.23-1.43-25.7-.33h-.27l-1.34.13-1.74-.18c0-.17-.07-.46-.1-.91Zm-.74,15.37h0l2.13.21v4.37L42.84,176c-1.57-.14-3.92-.82-5.46-.49h-.1v0A10.32,10.32,0,0,0,36,173.29c-.51-.86-1-1.72-1.54-2.59Zm-.74-14.77v.55c-.47,4.1-.06,8.49,0,12.66l-9.29-.94C33.91,163.42,37.79,158.78,43.12,156.89Zm-15.62,20,5.44-5.85c.68,1.14,1.36,2.28,2,3.42.34.57.59,1.13.94,1.6a46.29,46.29,0,0,0-3.49,4Zm3.27,60.21,0,0A.79.79,0,0,0,31,237c.35-.26.69-.53,1-.8h0l1.69-1.31v9.92h-3c0-2.39.14-4.81,0-7.19v-.08h0v-.05A2.44,2.44,0,0,1,30.77,237.11Zm-7.45,4.11c0-.32-.05-1.16-.06-1.39,0-.87.26-2.62-.23-3.41a2.91,2.91,0,0,0-1.09-.88,17.6,17.6,0,0,1,4-.37,15.46,15.46,0,0,1,4,.71,4.16,4.16,0,0,0-.32.45h0a1.83,1.83,0,0,0-.14.28l0,0,0,.09h-.93a.76.76,0,0,0-.75.75v2.63c0,.39,0,.82,0,1.2v.2l-.11.1c-.48.53-1,.74-1.17,1.41a4.94,4.94,0,0,0,0,1.73H24.93a3.4,3.4,0,0,0-.48-2.24,5.76,5.76,0,0,0-.84-.94C23.56,241.54,23.42,241.34,23.32,241.22Zm4.61,2.05c.38-.42,1-.67,1.21-1.22,0,.95.1,1.89.12,2.81-.49,0-1-.07-1.38-.08v-.51C27.88,244,28,243.3,27.93,243.27Zm-10.86,3a3.66,3.66,0,0,1,1.3-.05,33.38,33.38,0,0,0,5,0H35.55a16,16,0,0,0,3.73,0h0a.69.69,0,0,0,.51-.21h0c1.56-.89,2.8-2.89,4.3-4.39a21.2,21.2,0,0,1,11.51-4.07c.2,0,.41,0,.62,0H57a23.22,23.22,0,0,1,3.72.29l.18,0c.38.06.75.15,1.12.23a19.6,19.6,0,0,1,7.8,3.84c1.27,1,2.34,3,3.65,3.89l0,.07a.74.74,0,0,0,.64.37h.45a22.51,22.51,0,0,0,4.57,0H95.93a10.77,10.77,0,0,1,2.2.38c-.07.91,0,1.83-.07,2.74-.06,2.9-.13,5.8-.19,8.7h0c0,1.37-.07,2.74-.1,4.11h-.65c-2.88-.52-6.36,0-9.28,0H17.32v-7.4C17.32,253.06,16.52,248.5,17.07,246.3Zm-6.48,24-7.82-6.63H94a36.17,36.17,0,0,0,3.62,0h.12l.1,2.95c0,1,.06,2,.07,2.35l.18,5.29H15.65a2.46,2.46,0,0,0-.39-.06l-.19-.1C13.48,273.3,11.94,271.43,10.59,270.29ZM98.15,377.84v60.51l-.52-.06c-3.59-.6-7.81,0-11.44,0H10v-50c0-4.45.84-9.87,0-14.25a2.65,2.65,0,0,1,0-1c.74-.05,1.69.11,2.3.11h2.39a.71.71,0,0,0,.35.1H27.16a.66.66,0,0,0,.36-.1H98.15ZM15.74,352.06v-64c0-.15,0-.33,0-.53,0-1.21,0-2.41,0-3.62l.38,0c2,.16,4.09,0,6.09,0,.35,0,.83-.05,1.36-.1h2.81c0,.09,0,.2,0,.34.62,5.32,0,11.08,0,16.43v71H24.54a34.93,34.93,0,0,0-7,0h-.06c-.93,0-1.54-.16-1.81-.12a7.63,7.63,0,0,1,.08-1C16.6,364.61,15.74,358,15.74,352.06ZM27.91,371.6V283.85h1V371.6ZM38.2,330.69V371.6H34.29c-1.06,0-3.24-.41-3.88,0h-.2c-.05-.9.17-2.23.17-2.77V288a27.2,27.2,0,0,1-.15-4.12h.86a24.49,24.49,0,0,0,6.4,0h.78a11.8,11.8,0,0,1-.07,1.63C37.08,300.36,38.2,315.77,38.2,330.69Zm1.48,40.91V283.85H78.56V371.6Zm48.18-40.82V371.6H84c-1,0-3.24-.41-3.87,0h-.2c0-.9.17-2.22.17-2.77V288.15a24.13,24.13,0,0,1-.14-4.22l.85.11a23.58,23.58,0,0,0,6.39,0,4.73,4.73,0,0,0,.76-.15,8.64,8.64,0,0,1,0,1.78C86.75,300.52,87.86,315.89,87.86,330.78Zm1.49,40.82V283.85h.49V371.6Zm8.8-83v83H91.31c-.75-4.8,0-10.38,0-15.22V284c2.26-.08,4.56-.25,6.82-.11Zm0-9c0,1-.34,2.31-.09,2.76H15.64c0-.16,0-.39.1-.74.26-1.84-.28-3.82,0-5.66A27.45,27.45,0,0,0,23,276c3.68,0,7.4-.24,11-.24H98.15Zm.63-34.83H97.11c-.47,0-1,0-1.69,0H91.7a13,13,0,0,0-.1-2.6v-7.8a78,78,0,0,0,9.17,3,2.25,2.25,0,0,0,0,.58c-.11,2.62-.48,5.45-.06,7.89-.52-.33-1-.66-1.44-1A.56.56,0,0,0,98.78,244.77Zm.82,2.44a11.92,11.92,0,0,1,1.82,1.16l.28.21a6.43,6.43,0,0,0,3.1,2.52l.07,0-.36,14.14-5.26-2.79Zm7.06,126.25V438.3c-2.27.08-4.89.44-7,0v-1.13c.68-4.45,0-9.55,0-14v-50h.4a29.71,29.71,0,0,0,4.81,0h1a4.36,4.36,0,0,0,.85.07Zm-7-9.94V284.14c.3.06.83.05,1.61.22l3.15.65c0,.16,0,.34.08.51,1,5.29,0,11.8,0,17.18v65a27,27,0,0,1,.16,3.92h-.28a12.81,12.81,0,0,0-2.88,0H99.64v-1.23A54,54,0,0,0,99.64,363.52Zm7,3.9v4.18H106V285.34l.69.15Zm0-83.45-7-1.47v-6.42l7,2.78Zm.25-6.6-7.13-2.82-.16-.09-.06-1.88h0a47.38,47.38,0,0,0-.26-8.39l3.54,1.87,2.29,1.22a32.71,32.71,0,0,0,4,2.23l.11.06C108.28,272.07,107.65,274.78,106.91,277.37Zm1.23,77.36V287.29c0-.36.11-1.14.1-1.66h.12a37.29,37.29,0,0,0,4.1,0v85.82a20.53,20.53,0,0,0-3.94.11h-.37v-1.26C109,365.45,108.14,359.68,108.14,354.73Zm275,28.71v54.85H158.38c-16.67,0-33.43-.51-50.1,0,.11-.36-.14-1.19-.14-2.32V375.41a23,23,0,0,0,.07-2.32c2,.06,3.94,0,5.9,0H381c1.11,0,1.81.19,2.12.12Zm-261.33-79V371.6h-3.91c-1.1,0-3.07-.39-3.76,0l-.3,0c0-.84.15-2,.15-2.52V289.81a27.64,27.64,0,0,1-.15-4.16l.9,0a24.18,24.18,0,0,0,6.36,0h.77a6.8,6.8,0,0,1-.06,1.26C121,292.5,121.76,298.82,121.76,304.48Zm30.15,21.31c2.68,0-2.84-10.94-3.59-11.84a12.83,12.83,0,0,0-20.63,0c-.75.91-6.27,11.84-3.59,11.84a.75.75,0,0,0-.74.75v45a.43.43,0,0,0,0,.05h-.13v-86h29.53v86h-.13a.43.43,0,0,0,0-.05v-45A.75.75,0,0,0,151.91,325.79Zm-.74,2.62a32.58,32.58,0,0,0,0,4.94v37.46H132.36c-2,0-5.41.66-7.53.16,0-.11,0-.23,0-.39.09-1.12,0-2.28,0-3.41V331.68a22.36,22.36,0,0,0,0-3.75,3.27,3.27,0,0,1-.06-.85.9.9,0,0,1-.68.2.76.76,0,0,0,.75-.74c.34-7.38,4.6-16.31,13.16-16.31s12.81,8.95,13.15,16.31a.76.76,0,0,0,.75.74c-.54,0-.71-.14-.75-.19A2.39,2.39,0,0,1,151.17,328.41Zm10.9-23.93V371.6h-3.91c-1.15,0-3.22-.42-3.84,0h-.22c0-.84.15-2,.15-2.57V289.81a27.89,27.89,0,0,1-.16-4.18H155a24.41,24.41,0,0,0,6.39,0h.78a9.15,9.15,0,0,1-.06,1.26C161.3,292.5,162.07,298.82,162.07,304.48Zm1.48,67.12v-86H166v86Zm11.7-67.12V371.6h-3.91c-1.14,0-3.21-.42-3.84,0h-.22c-.05-.84.15-2,.15-2.57V289.81a26.69,26.69,0,0,1-.15-4.18h.86a24.49,24.49,0,0,0,6.4,0h.77a6.8,6.8,0,0,1-.06,1.26C174.48,292.5,175.25,298.82,175.25,304.48ZM206,326.58c2.67,0-2.84-10.94-3.59-11.84a12.84,12.84,0,0,0-20.64,0c-.74.91-6.27,11.84-3.58,11.84a.75.75,0,0,0-.74.75V371.6h-.76v-86H208v86h-1.19V327.33A.76.76,0,0,0,206,326.58Zm-.75,2.62a33.94,33.94,0,0,0,0,4.94V371.6H179a1.93,1.93,0,0,1,0-.23c.09-1.12,0-2.28,0-3.41V332.47a23.47,23.47,0,0,0,0-3.75,3.27,3.27,0,0,1-.06-.85.91.91,0,0,1-.68.2.75.75,0,0,0,.74-.74c.35-7.38,4.6-16.31,13.16-16.31s12.82,9,13.16,16.31a.76.76,0,0,0,.74.74c-.53,0-.71-.14-.75-.18S205.44,328.26,205.29,329.2Zm12-24.72V371.6h-3.91c-1.14,0-3.21-.42-3.83,0h-.23c-.05-.84.16-2,.16-2.57V289.81a27.89,27.89,0,0,1-.16-4.18h.87a24.41,24.41,0,0,0,6.39,0h.78a7.66,7.66,0,0,1-.07,1.26C216.5,292.5,217.27,298.82,217.27,304.48Zm1.49,67.12v-86h2.4v86Zm11.7-67.12V371.6h-3.91c-1.15,0-3.22-.42-3.84,0h-.22c-.05-.84.15-2,.15-2.57V289.81a27.89,27.89,0,0,1-.16-4.18h.87a24.41,24.41,0,0,0,6.39,0h.78a9.15,9.15,0,0,1-.06,1.26C229.69,292.5,230.46,298.82,230.46,304.48Zm30.21,22.1c2.68,0-2.84-10.94-3.58-11.84a12.84,12.84,0,0,0-20.64,0c-.75.91-6.27,11.84-3.59,11.84a.75.75,0,0,0-.74.75V371.6h-.18v-86H261.6v86h-.19V327.33A.76.76,0,0,0,260.67,326.58Zm-.74,2.62a32.58,32.58,0,0,0,0,4.94V371.6H233.6a1.93,1.93,0,0,1,0-.23c.09-1.12,0-2.28,0-3.41V332.47a23.47,23.47,0,0,0,0-3.75,3.44,3.44,0,0,1-.07-.85.87.87,0,0,1-.67.2.76.76,0,0,0,.74-.74C234,320,238.21,311,246.77,311s12.81,9,13.16,16.31a.75.75,0,0,0,.74.74c-.53,0-.71-.14-.75-.18S260.08,328.26,259.93,329.2Zm11-24.72V371.6H267c-1.15,0-3.22-.42-3.84,0h-.22c-.05-.84.15-2,.15-2.57V289.81a26.69,26.69,0,0,1-.15-4.18h.86a24.41,24.41,0,0,0,6.39,0H271a9.15,9.15,0,0,1-.06,1.26C270.13,292.5,270.9,298.82,270.9,304.48Zm1.48,67.12v-86h2.4v86Zm11.7-67.12V371.6h-3.91c-1.14,0-3.21-.42-3.84,0h-.22c-.05-.84.15-2,.15-2.57V289.81a26.69,26.69,0,0,1-.15-4.18H277a24.49,24.49,0,0,0,6.4,0h.77a6.8,6.8,0,0,1-.06,1.26C283.31,292.5,284.08,298.82,284.08,304.48Zm30.71,22.1c2.68,0-2.84-10.94-3.58-11.84a12.84,12.84,0,0,0-20.64,0c-.75.91-6.27,11.84-3.59,11.84a.75.75,0,0,0-.74.75V371.6h-.68v-86h30.65v86h-.68V327.33A.76.76,0,0,0,314.79,326.58Zm-.74,2.62a32.58,32.58,0,0,0,0,4.94V371.6H287.71a1.62,1.62,0,0,0,0-.23c.09-1.12,0-2.28,0-3.41V332.47a22.36,22.36,0,0,0,0-3.75,3.81,3.81,0,0,1-.06-.85.88.88,0,0,1-.67.2.76.76,0,0,0,.74-.74c.34-7.38,4.6-16.31,13.16-16.31s12.81,9,13.16,16.31a.74.74,0,0,0,.74.74c-.54,0-.71-.14-.75-.18S314.2,328.26,314.05,329.2Zm11.46-24.72V371.6H321.6c-1.14,0-3.21-.42-3.84,0h-.22c-.05-.84.15-2,.15-2.57V289.81a26.69,26.69,0,0,1-.15-4.18h.86a24.49,24.49,0,0,0,6.4,0h.77a6.8,6.8,0,0,1-.06,1.26C324.74,292.5,325.51,298.82,325.51,304.48ZM327,371.6v-86h2.4v86Zm11.7-67.12V371.6h-3.91c-1.14,0-3.21-.42-3.83,0h-.23c-.05-.84.16-2,.16-2.57V289.81a27.89,27.89,0,0,1-.16-4.18h.87a24.41,24.41,0,0,0,6.39,0h.78a7.66,7.66,0,0,1-.07,1.26C337.93,292.5,338.69,298.82,338.69,304.48Zm31.85,22.1c2.68,0-2.84-10.94-3.59-11.84a12.83,12.83,0,0,0-20.63,0c-.75.91-6.27,11.84-3.59,11.84a.75.75,0,0,0-.74.75V371.6h-1.81v-86h31.24v86h-.14V327.33A.76.76,0,0,0,370.54,326.58Zm-.74,2.62a32.58,32.58,0,0,0,0,4.94V371.6H343.46c0-.07,0-.14,0-.23.09-1.12,0-2.28,0-3.41V332.47a22.36,22.36,0,0,0,0-3.75,3.27,3.27,0,0,1-.06-.85.9.9,0,0,1-.68.2.76.76,0,0,0,.75-.74c.34-7.38,4.6-16.31,13.15-16.31s12.82,9,13.16,16.31a.76.76,0,0,0,.75.74c-.54,0-.71-.14-.75-.18A2.45,2.45,0,0,1,369.8,329.2Zm10.92-24.72V371.6h-3.91c-1.15,0-3.22-.42-3.84,0h-.22c-.05-.84.15-2,.15-2.57V289.81a26.69,26.69,0,0,1-.15-4.18h.86a24.41,24.41,0,0,0,6.39,0h.78a9.15,9.15,0,0,1-.06,1.26C380,292.5,380.72,298.82,380.72,304.48Zm2.37-17.59a50.23,50.23,0,0,0,0,6.94V371.6h-.89v-86h.86l0,.18Zm0-7.63a7.3,7.3,0,0,0,0,3.22v1.66H108.14v-.46a19.84,19.84,0,0,0,0-4.58H383.09Zm0-1.65H122.14c-3.92,0-9.54-1.05-13.35,0h-.39c.12-.37.23-.75.34-1.13a6.68,6.68,0,0,0,.38-1.25q.81-2.66,1.6-5.31h0a24.25,24.25,0,0,0,4.82,0H334.78c13.87,0,27.9.6,41.76,0h1.65c.45.45.9.9,1.36,1.34a28.66,28.66,0,0,0,3.43,3.46,22.25,22.25,0,0,1,.11,2.66Zm1.32-3.9-.29-.07h0s.05,0-.13-.2c-1.17-1.75-3.53-3.36-5-4.78l-4.05-4h10c1.57,0,3.21.16,4.77,0a2.9,2.9,0,0,1,.83.21c1.5,1.53,2.76,3.13,4.15,4.38a7.71,7.71,0,0,0,2.69,2.28c.88.39,2.32.08,3.23.1h1a.25.25,0,0,0,0,.07v2h-7.35c-1.06,0-2.28.1-3.54.19-2.1-.07-4.18-.15-6.23-.18Zm12.83,101.11v63.49l-.31,0c-1.22-.08-2.48,0-3.7,0-2.77,0-5.59-.19-8.35,0l-.31,0v-1.43c.17-2.35,0-4.78,0-7.14V298.41c0-6.94.71-14.32.05-21.24a13.58,13.58,0,0,0,0-1.8,15.09,15.09,0,0,0,3.67.14c2.32.06,4.85-.26,6.94-.26s4.24.14,6.33,0v90.18h0a.77.77,0,0,0,.47.69.82.82,0,0,0,.34.09h2.26l.2,0v4.84a7.63,7.63,0,0,0,0,1.79,9.23,9.23,0,0,1-.06,1.07l-.7.11a3.24,3.24,0,0,1-.66,0,41.45,41.45,0,0,0-5.46,0A.75.75,0,0,0,397.24,374.82Zm39.57,11.37c-.23.11-.07.7,0,1.59v34.78h-5.33c-1.53,0-4.94.64-6.68.17.54.07.14-.82.14-2.22V388.4a18.48,18.48,0,0,0,.06-2.18,48.93,48.93,0,0,0,5.3.13c1.48,0,4.73-.61,6.51-.22Zm0-1.33H424.2a.75.75,0,0,0-.74.74v37.7a.75.75,0,0,0,.74.74h12.61v14.25H405.87c-1.78,0-5.1.63-7.15.21v0c.27-.1,0-.76,0-2.06V379.8a28.84,28.84,0,0,1-.14-4.13v0a8.74,8.74,0,0,1,1.56-.09,35.54,35.54,0,0,0,5.46,0,.75.75,0,0,0,.74-.74c0-.9.05-1.78,0-2.37v-.65h30.47Zm6.24-11.72c-.63,11.35,0,22.91,0,34.27v30.87a29,29,0,0,0-2.95,0h-.67a3,3,0,0,0-1.24,0h0c0-.77.14-1.86.14-2.31V423.42s0-.08,0-.12V385.6s0-.08,0-.12v-4.24c0-2.07-.94-7.11-.21-9.44H439a3.85,3.85,0,0,0,.59,0H443A6,6,0,0,1,443.05,373.14Zm8.43,65.15h-7V371.8h7Zm6.23-65.15c-.62,11.35,0,22.91,0,34.27v30.87a28.81,28.81,0,0,0-2.94,0h-.68a3,3,0,0,0-1.23,0h0c0-.77.14-1.86.14-2.31V381.24c0-2.07-1-7.11-.21-9.44h.94a3.85,3.85,0,0,0,.59,0h3.35A5.6,5.6,0,0,1,457.71,373.14Zm9.13,65.15H459.2V371.8h7.64Zm6.23-65.15c-.6,10.95,0,22.1,0,33.08a.45.45,0,0,0,0,.11v31.95c-1,0-2-.06-2.91,0h-.68c-.6,0-1.06-.12-1.23,0h0c0-.77.13-1.86.13-2.31V381.24c0-2.07-.94-7.11-.2-9.44h.94a3.72,3.72,0,0,0,.58,0H473A6.2,6.2,0,0,1,473.07,373.14Zm-5.49-2.82H422.15c-4.79,0-9.93-.54-14.69,0h-.94l-.18,0v-4.08h46.15c1.74.51,4.52.16,6.62,0H483v1.34a.75.75,0,0,0,.74.74h3.12v2h-19.3Zm57.86,64.09a14.59,14.59,0,0,0,0,2.56v1.37H500.26a.6.6,0,0,0-.24,0H474.56V407.05a15.57,15.57,0,0,1,1.81,0h49.07Zm0-28.82H515.1V392.92s0-.05,0-.08,0,0,0-.08a.68.68,0,0,0-.12-.26,14.86,14.86,0,0,0-1.83-3.22V371.85h12.32Zm6.36,32.75h-.86a31.06,31.06,0,0,0-4,0v-32a.66.66,0,0,0,0-.15V375.93a19.19,19.19,0,0,1,0-4.08h0c.6.45,2.61.2,3.49,0h1.27c0,.21,0,.42,0,.54.11,1.62,0,3.28,0,4.9v57A22.61,22.61,0,0,1,531.8,438.34Zm9,0h-7.64V371.85h7.64Zm6.36,0h-.86a31.68,31.68,0,0,0-4,0V375.93a19.19,19.19,0,0,1,0-4.08h0c.6.45,2.61.2,3.49,0h1.27c0,.21,0,.42,0,.54.1,1.62,0,3.28,0,4.9v57A22.61,22.61,0,0,1,547.16,438.34Zm8.31,0h-7V371.85h7Zm6.36,0H561a31.68,31.68,0,0,0-4,0V375.93a19.19,19.19,0,0,1,0-4.08h0c.59.45,2.6.2,3.49,0h1.27c0,.21,0,.42,0,.54.1,1.62,0,3.28,0,4.9v8.24s0,.08,0,.12v37.7s0,.08,0,.12v10.79A22.61,22.61,0,0,1,561.83,438.34Zm-5.62-68H513.12v-2.08h3.12a.75.75,0,0,0,.74-.74v-1.34h24.16c2,.09,4.86.59,6.55,0h46v.05a9.08,9.08,0,0,0,0,3.06v.91a.66.66,0,0,0,0,.14H556.21Zm18.85,18.07v32.12c0,1.4-.4,2.29.14,2.22-1.75.46-5.15-.17-6.68-.17h-5.33V387.83c.07-.89.23-1.48,0-1.6v-.05c1.78-.39,5,.21,6.51.21a48.75,48.75,0,0,0,5.3-.12A18.24,18.24,0,0,0,575.06,388.44Zm26.22-9.24v19.63c0,13.11-.44,26.31,0,39.41v.1c-1.37.05-2.75,0-4.11,0h-34V424.09H575.8a.75.75,0,0,0,.74-.74v-37.7a.75.75,0,0,0-.74-.74H563.19V371.85h30.47v.65c0,.58,0,1.47,0,2.37a.75.75,0,0,0,.74.74h4.37c1.25,0,2.57.39,2.63-.15,0,.14.05.29.07.45C601.52,377,601.28,378.54,601.28,379.2Zm14.15-20v79.18h0c-2.83.24-5.78,0-8.63,0-1.23,0-2.47,0-3.7,0h-.31V374.87a.75.75,0,0,0-.74-.74h-4.94l-.68,0-.35,0a6.45,6.45,0,0,0-1-.11c0-.08,0-.15,0-.24a8.56,8.56,0,0,0,.16-.86,14,14,0,0,0,0-3.17v-3.19c0-.14,0-.25,0-.34h2.49a.75.75,0,0,0,.74-.74h0V285.33h0v-10a86.53,86.53,0,0,0,10.44,0,26.48,26.48,0,0,0,6.52.08,13.14,13.14,0,0,0,0,1.88c-.13,4.87,0,9.76,0,14.62Zm.48-85.51a2.06,2.06,0,0,1-.32.1l-.05,0c-2.11,0-4.25.11-6.41.18-1.21-.09-2.38-.2-3.37-.2h-7.35v-1.56a3.29,3.29,0,0,0,.07-.42l.2,0a11.1,11.1,0,0,0,3.41,0,2.46,2.46,0,0,0,.55-.14,5.57,5.57,0,0,0,1.43-.95c2-1.52,3.85-4.05,5.42-5.71a2.89,2.89,0,0,1,.84-.21c1.56.15,3.2,0,4.75,0h10l-4.06,4C619.53,270.14,617,271.86,615.91,273.65Zm1,13.29v-1.16s0-.07,0-.1h.87v86h-.89V293.14A40.1,40.1,0,0,0,616.91,286.94ZM891.85,394.19v42.34c0,.89-.15,1.5-.14,1.81h-.07c-2-.06-4,0-5.95,0H616.91V375.46a19,19,0,0,0,.12-2.32H842.56c16.38,0,32.85.5,49.23,0-.07.67.06,1.87.06,2.32ZM627.1,293.14v74.33a26.57,26.57,0,0,1,.16,4.18h-8V289.86a21.59,21.59,0,0,1,0-4.18h3.85a15.26,15.26,0,0,0,3.31,0h.78a6,6,0,0,1-.07.89C626.73,288.6,627.1,291.07,627.1,293.14Zm30.17,33.49c2.68,0-2.84-10.94-3.59-11.84a12.83,12.83,0,0,0-20.63,0c-.75.91-6.27,11.84-3.59,11.84a.75.75,0,0,0-.74.75v44.27h-.14v-86h31.24v86H658V327.38A.75.75,0,0,0,657.27,326.63Zm-.74,2.14a19,19,0,0,0,0,3.37V368c0,1.06-.07,2.14,0,3.2,0,.18,0,.32,0,.44H630.2v-37a33.66,33.66,0,0,0,0-5.12c-.34-2.19.65-1.4-.74-1.4a.76.76,0,0,0,.75-.74c.34-7.38,4.6-16.31,13.15-16.31s12.82,8.95,13.16,16.31a.76.76,0,0,0,.75.74,1,1,0,0,1-.67-.17A2.76,2.76,0,0,1,656.53,328.77Zm12.59-35.63v74.33a26.57,26.57,0,0,1,.16,4.18h-8V289.86a20.82,20.82,0,0,1,0-4.18h3.84a15.26,15.26,0,0,0,3.31,0h.78a6,6,0,0,1-.07.89C668.76,288.6,669.12,291.07,669.12,293.14Zm1.49,78.51v-86H673v86Zm11.7-78.51v74.33a25.48,25.48,0,0,1,.15,4.18h-8V289.86a20.82,20.82,0,0,1,0-4.18h3.85a15.26,15.26,0,0,0,3.31,0h.77a6.29,6.29,0,0,1-.06.89C681.94,288.6,682.31,291.07,682.31,293.14ZM713,326.63c2.68,0-2.84-10.94-3.59-11.84a12.84,12.84,0,0,0-20.64,0c-.74.91-6.26,11.84-3.58,11.84a.75.75,0,0,0-.74.75v44.27h-.68v-86h30.65v86h-.68V327.38A.75.75,0,0,0,713,326.63Zm-.75,2.14a19,19,0,0,0,0,3.37V368c0,1.06-.06,2.14,0,3.2a3.71,3.71,0,0,1,0,.44H686v-37a33.66,33.66,0,0,0,0-5.12c-.34-2.19.65-1.4-.74-1.4a.74.74,0,0,0,.74-.74c.35-7.38,4.6-16.31,13.16-16.31s12.82,8.95,13.16,16.31a.76.76,0,0,0,.74.74,1,1,0,0,1-.66-.17A2.88,2.88,0,0,1,712.27,328.77Zm11.47-35.63v74.33a25.48,25.48,0,0,1,.15,4.18h-8V289.86a20.82,20.82,0,0,1,0-4.18h3.85a15.26,15.26,0,0,0,3.31,0h.77a6.29,6.29,0,0,1-.06.89C723.37,288.6,723.74,291.07,723.74,293.14Zm1.48,78.51v-86h2.4v86Zm11.7-78.51v74.33a26.57,26.57,0,0,1,.16,4.18h-8V289.86a21.59,21.59,0,0,1-.05-4.18h3.85a15.26,15.26,0,0,0,3.31,0H737a6,6,0,0,1-.07.89C736.55,288.6,736.92,291.07,736.92,293.14Zm30.22,33.49c2.67,0-2.84-10.94-3.59-11.84a12.84,12.84,0,0,0-20.64,0c-.74.91-6.27,11.84-3.58,11.84a.75.75,0,0,0-.74.75v44.27h-.19v-86h29.66v86h-.18V327.38A.75.75,0,0,0,767.14,326.63Zm-.75,2.14a19,19,0,0,0,0,3.37V368c0,1.06-.06,2.14,0,3.2,0,.18,0,.32,0,.44H740.07v-37a35,35,0,0,0,0-5.12c-.34-2.19.65-1.4-.74-1.4a.75.75,0,0,0,.74-.74c.35-7.38,4.6-16.31,13.16-16.31s12.82,8.95,13.16,16.31a.76.76,0,0,0,.74.74,1,1,0,0,1-.66-.17A3.32,3.32,0,0,1,766.39,328.77Zm11-35.63v74.33a26.57,26.57,0,0,1,.16,4.18h-8V289.86a21.59,21.59,0,0,1,0-4.18h3.85a15.26,15.26,0,0,0,3.31,0h.78a6,6,0,0,1-.07.89C777,288.6,777.36,291.07,777.36,293.14Zm1.48,78.51v-86h2.4v86Zm11.7-78.51v74.33a26.57,26.57,0,0,1,.16,4.18h-8V289.86a20.82,20.82,0,0,1-.05-4.18h3.84a15.26,15.26,0,0,0,3.31,0h.78a6,6,0,0,1-.07.89C790.18,288.6,790.54,291.07,790.54,293.14Zm31.23,33.49c2.68,0-2.84-10.94-3.58-11.84a12.84,12.84,0,0,0-20.64,0c-.75.91-6.27,11.84-3.59,11.84a.75.75,0,0,0-.74.75v44.27H792v-86h31.24v86h-.76V327.38A.75.75,0,0,0,821.77,326.63Zm-.74,2.14a19,19,0,0,0,0,3.37V368c0,1.06-.07,2.14,0,3.2,0,.18,0,.32,0,.44H794.71v-37a35,35,0,0,0,0-5.12c-.35-2.19.64-1.4-.74-1.4a.76.76,0,0,0,.74-.74c.34-7.38,4.6-16.31,13.16-16.31S820.68,320,821,327.38a.74.74,0,0,0,.74.74,1,1,0,0,1-.67-.17A2.76,2.76,0,0,1,821,328.77Zm11.54-35.63v74.33a25.48,25.48,0,0,1,.15,4.18h-8V289.86a21.59,21.59,0,0,1,0-4.18h3.85a15.26,15.26,0,0,0,3.31,0h.77a6.29,6.29,0,0,1-.06.89C832.2,288.6,832.57,291.07,832.57,293.14Zm1.48,78.51v-86h2.4v86Zm11.7-78.51v74.33a26.57,26.57,0,0,1,.16,4.18h-8V289.86a21.59,21.59,0,0,1,0-4.18h3.85a15.26,15.26,0,0,0,3.31,0h.78a6,6,0,0,1-.07.89C845.38,288.6,845.75,291.07,845.75,293.14Zm30.15,32.7c2.68,0-2.84-10.94-3.59-11.84a12.82,12.82,0,0,0-20.63,0c-.75.91-6.27,11.84-3.59,11.84a.75.75,0,0,0-.74.74v45s0,0,0,0h-.13v-86h29.52v86h-.12a.43.43,0,0,0,0,0v-45A.75.75,0,0,0,875.9,325.84Zm-.74,2.14a18.07,18.07,0,0,0,0,3.37v35.87c0,1.06-.07,2.14,0,3.2a4.83,4.83,0,0,1,0,.67c-2,.47-5.8-.23-7.52-.23H848.83v-37a33.79,33.79,0,0,0,0-5.13c-.34-2.18.65-1.39-.74-1.39a.76.76,0,0,0,.75-.75c.34-7.37,4.59-16.3,13.15-16.3s12.82,9,13.16,16.3a.77.77,0,0,0,.75.75,1.06,1.06,0,0,1-.67-.17A2.77,2.77,0,0,1,875.16,328Zm10.89-34.84v74.33a29,29,0,0,1,.17,4.08c-.78.05-1.55.1-2.24.1h-5.74V289.86a20.82,20.82,0,0,1,0-4.18H882a15.26,15.26,0,0,0,3.31,0h.78a6,6,0,0,1-.07.89C885.69,288.6,886.05,291.07,886.05,293.14Zm5.8,11.89v49.75c0,4.91-1,11.16,0,16v.89h-.54a14.07,14.07,0,0,0-3.77-.18V285.68h4.24c-.06.63.07,1.7.07,2.1Zm0-23.36a19.09,19.09,0,0,0,0,2.41v.11H616.91v-1.62a7.76,7.76,0,0,0,0-3.21v-.21h1.61c5.05.39,10.3,0,15.36,0h216c13.57,0,27.29.59,40.85,0h1.15Zm8.51,92c0,1.76,0,3.52,0,5.28v59.39c-.45-.33-1.91,0-2.93,0h-4.09v-65.2h.81a15.79,15.79,0,0,0,5.4,0h.81Zm-7-20.88V285.54l.69-.15v86.26h-.69v-1.26C894.09,364.77,893.34,358.47,893.34,352.8Zm7-65.88v84.73H899a24.24,24.24,0,0,0-3.1-.12h-.4c0-.25,0-.48.06-.61.15-2.23,0-4.53,0-6.77V287a10.61,10.61,0,0,1-.06-1.89l1.95-.4c.28,0,.54-.07.73-.12.74-.16,1.49-.28,2.22-.37Zm0-4.37-7,1.47v-5.11l7-2.78Zm.08-9.92h0l-.06,1.88-.16.09-7.14,2.82-2.37-7.82a31.12,31.12,0,0,0,4.17-2.27l2.15-1.15,3.66-1.94A48.33,48.33,0,0,0,900.44,272.63Zm-5-7.31-.3-12.3h0c0-.61,0-1.22,0-1.84a6.48,6.48,0,0,0,3.17-2.55l1.21-.92a7.72,7.72,0,0,1,.89-.6q.18,7.71.35,15.42Zm5.25-20.4c-.43.33-.92.65-1.44,1,.42-2.43.05-5.26-.06-7.87a1.51,1.51,0,0,0,0-.57v-.1c3-1.1,6.13-2,9.19-3v7.31c0,.5-.09,2.15,0,3v.14h-.15a26.89,26.89,0,0,0-3.13,0c-.9,0-1.65,0-2.34,0h-1.56A.56.56,0,0,0,900.73,244.92ZM990,373a8,8,0,0,1,0,1.47c-.22,2.37,0,4.87,0,7.25v56.61H906.8a28.48,28.48,0,0,0-4.43,0l-.52.07V373.14h70.62a.84.84,0,0,0,.37.1H985a.75.75,0,0,0,.6-.33A16.5,16.5,0,0,1,990,373Zm-5.3-98.71H901.87c.12-3.53.23-7.06.35-10.59h95l-6.07,5.15-4.77,4A12.26,12.26,0,0,0,984.72,274.3Z"/><path d="M930.46,315.34l0,0a.67.67,0,0,0,.47.19h13.26a.75.75,0,0,0,.74-.75V293.25a.75.75,0,0,0-.74-.75H931a.75.75,0,0,0-.74.75v21.56a.67.67,0,0,0,.18.47A.21.21,0,0,1,930.46,315.34Zm13.08-1c.08.53-.32.29,0,0ZM934.42,294h6.38a26,26,0,0,0,2.61.05c0,.53.09,1.33.09,1.67v16.91a6.52,6.52,0,0,0,0,1.53h0c-1,.07-2.15-.09-3.07-.09h-8.7V295.71a7.74,7.74,0,0,0,0-1.8h0C932.61,293.85,933.6,294,934.42,294Zm-2.74-.28c-.08-.53.33-.29,0,0Z"/><path d="M930.46,368.56l0,0a.67.67,0,0,0,.47.18H948.6a.75.75,0,0,0,.74-.74v-38a.75.75,0,0,0-.74-.74H931a.75.75,0,0,0-.74.74v38a.67.67,0,0,0,.18.47Zm1.15-37.95c.13.67,1.89.18,3.28.18,4,0,9-.81,13,0a3.75,3.75,0,0,0,0,.42c-.08,1.59,0,3.2,0,4.79v28.55c0,.6.21,1.87.15,2.77h-.52c-1.09-.06-2.2,0-3.29,0H931.73V332.55C931.73,332.1,931.57,331.24,931.61,330.61Z"/><path d="M951.76,384.91H937.61a.75.75,0,0,0-.74.74v30.87a.69.69,0,0,0,.18.47l0,.05,0,0a.67.67,0,0,0,.47.18h14.15a.75.75,0,0,0,.74-.74V385.65A.75.75,0,0,0,951.76,384.91ZM951,415.76a2.18,2.18,0,0,1-1,0c-3.53-.76-7.9-.1-11.62,0V391.63c0-1.66-.16-3.41,0-5.07,0,0,0-.08,0-.15a2.36,2.36,0,0,1,1,0c2.13.46,4.85,0,7,0a37,37,0,0,0,4.52-.08c-.05.56.07,1.57.07,2v22.26c0,1.66.15,3.42,0,5.07Z"/><path d="M879.74,384.91h-10.1a.75.75,0,0,0-.74.74v35.22a.72.72,0,0,0,.18.48.1.1,0,0,1,0,0l0,0a.67.67,0,0,0,.47.19h10.1a.75.75,0,0,0,.74-.75V385.65A.75.75,0,0,0,879.74,384.91Zm-.6,35.22h0a16,16,0,0,1-3.25,0h-5.45v-23.2c0-3-.8-7.51-.06-10.54a13.7,13.7,0,0,1,2.64,0,44.83,44.83,0,0,0,4.49,0c.2,0,.92.08,1.44.08,0,.55.09,1.4.09,1.8v21.87C879,412.62,879.91,417.49,879.14,420.13Z"/><path d="M859.38,384.91H849.29a.75.75,0,0,0-.74.74v35.22a.67.67,0,0,0,.18.48l0,0,0,0a.68.68,0,0,0,.48.19h10.09a.75.75,0,0,0,.74-.75V385.65A.75.75,0,0,0,859.38,384.91Zm-.6,35.22h0a16.14,16.14,0,0,1-3.26,0H850v-23.2c0-3-.8-7.51-.06-10.54a13.8,13.8,0,0,1,2.65,0,44.63,44.63,0,0,0,4.48,0c.2,0,.93.08,1.44.08,0,.55.1,1.4.1,1.8v21.87C858.64,412.62,859.55,417.49,858.78,420.13Z"/><path d="M824.73,384.91h-10.1a.75.75,0,0,0-.74.74v35.22a.72.72,0,0,0,.18.48.1.1,0,0,1,0,0l0,0a.67.67,0,0,0,.47.19h10.1a.75.75,0,0,0,.74-.75V385.65A.75.75,0,0,0,824.73,384.91Zm-.6,35.22h0a16,16,0,0,1-3.25,0h-5.45v-23.2c0-3-.8-7.51-.06-10.54a13.7,13.7,0,0,1,2.64,0,44.83,44.83,0,0,0,4.49,0c.2,0,.92.08,1.44.08,0,.55.09,1.4.09,1.8v21.87C824,412.62,824.9,417.49,824.13,420.13Z"/><path d="M804.37,384.91H794.28a.75.75,0,0,0-.74.74v35.22a.67.67,0,0,0,.18.48l0,0,0,0a.68.68,0,0,0,.48.19h10.09a.75.75,0,0,0,.74-.75V385.65A.75.75,0,0,0,804.37,384.91Zm-.6,35.22h0a16.14,16.14,0,0,1-3.26,0H795v-23.2c0-3-.8-7.51-.06-10.54a13.8,13.8,0,0,1,2.65,0,44.63,44.63,0,0,0,4.48,0c.2,0,.93.08,1.44.08,0,.55.1,1.4.1,1.8v21.87C803.63,412.62,804.54,417.49,803.77,420.13Z"/><path d="M770.15,384.91H760.06a.75.75,0,0,0-.74.74v35.22a.67.67,0,0,0,.18.48l0,0,0,0a.68.68,0,0,0,.48.19h10.09a.75.75,0,0,0,.74-.75V385.65A.75.75,0,0,0,770.15,384.91Zm-.6,35.22h0a16.14,16.14,0,0,1-3.26,0H760.8v-23.2c0-3-.8-7.51-.06-10.54a13.8,13.8,0,0,1,2.65,0,44.63,44.63,0,0,0,4.48,0c.2,0,.93.08,1.44.08,0,.55.1,1.4.1,1.8v21.87C769.41,412.62,770.32,417.49,769.55,420.13Z"/><path d="M749.79,384.91H739.7a.75.75,0,0,0-.74.74v35.22a.72.72,0,0,0,.18.48.1.1,0,0,1,0,0l.05,0a.65.65,0,0,0,.47.19h10.09a.76.76,0,0,0,.75-.75V385.65A.75.75,0,0,0,749.79,384.91Zm-.6,35.22h0a16,16,0,0,1-3.25,0h-5.46v-23.2c0-3-.79-7.51-.05-10.54a13.7,13.7,0,0,1,2.64,0,44.83,44.83,0,0,0,4.49,0c.2,0,.92.08,1.44.08,0,.55.09,1.4.09,1.8v21.87C749.05,412.62,750,417.49,749.19,420.13Z"/><path d="M715.77,384.91H705.68a.75.75,0,0,0-.74.74v35.22a.67.67,0,0,0,.18.48l0,0,.05,0a.64.64,0,0,0,.47.19h10.09a.75.75,0,0,0,.74-.75V385.65A.75.75,0,0,0,715.77,384.91Zm-.6,35.22h0a16.14,16.14,0,0,1-3.26,0h-5.45v-23.2c0-3-.79-7.51-.06-10.54a13.8,13.8,0,0,1,2.65,0,44.63,44.63,0,0,0,4.48,0c.2,0,.93.08,1.45.08,0,.55.09,1.4.09,1.8v21.87C715,412.62,715.94,417.49,715.17,420.13Z"/><path d="M695.42,384.91h-10.1a.75.75,0,0,0-.74.74v35.22a.72.72,0,0,0,.18.48.1.1,0,0,1,0,0l.05,0a.67.67,0,0,0,.47.19h10.1a.75.75,0,0,0,.74-.75V385.65A.75.75,0,0,0,695.42,384.91Zm-.6,35.22h-.05a16,16,0,0,1-3.25,0h-5.45v-23.2c0-3-.8-7.51-.06-10.54a13.7,13.7,0,0,1,2.64,0,44.83,44.83,0,0,0,4.49,0c.2,0,.92.08,1.44.08,0,.55.09,1.4.09,1.8v21.87C694.67,412.62,695.59,417.49,694.82,420.13Z"/><path d="M661.75,387.38H651.66a.75.75,0,0,0-.74.75v35.22a.67.67,0,0,0,.18.47l0,.05.05,0a.65.65,0,0,0,.47.19h10.09a.75.75,0,0,0,.74-.74V388.13A.75.75,0,0,0,661.75,387.38Zm-.6,35.22h0a16.91,16.91,0,0,1-3.26,0H652.4v-23.2c0-3-.79-7.52-.06-10.55a14.67,14.67,0,0,1,2.65,0c1.47,0,3,.14,4.48,0,.2,0,.93.08,1.45.07,0,.55.09,1.4.09,1.8v21.87C661,415.1,661.92,420,661.15,422.6Z"/><path d="M641.4,387.38H631.3a.75.75,0,0,0-.74.75v35.22a.71.71,0,0,0,.18.47l0,.05.05,0a.67.67,0,0,0,.47.19h10.1a.75.75,0,0,0,.74-.74V388.13A.75.75,0,0,0,641.4,387.38Zm-.6,35.22h0a16.8,16.8,0,0,1-3.25,0h-5.45v-23.2c0-3-.8-7.52-.06-10.55a14.56,14.56,0,0,1,2.64,0c1.47,0,3,.14,4.49,0,.2,0,.92.08,1.44.07,0,.55.09,1.4.09,1.8v21.87C640.65,415.1,641.57,420,640.8,422.6Z"/><path d="M656.6,328c0-.34-.19-.16,0,0Z"/><path d="M653.32,327c2.39,0-1.79-8.09-2.41-8.87a9.85,9.85,0,0,0-7.55-4,9.65,9.65,0,0,0-7.06,3.43c-.81.9-5.4,9.42-2.89,9.42a.76.76,0,0,0-.75.74v33.93a.67.67,0,0,0,.19.47.1.1,0,0,0,0,.05l0,0a.72.72,0,0,0,.48.18h19.91a.76.76,0,0,0,.75-.74V327.78A.75.75,0,0,0,653.32,327ZM652.74,361a2.29,2.29,0,0,1-1,0,18.5,18.5,0,0,0-3.41,0H634.15V333.31a20.21,20.21,0,0,0,0-3.73,2.13,2.13,0,0,1,0-1.2,1.25,1.25,0,0,1-.71.14.75.75,0,0,0,.74-.74c.3-5.19,2.93-12.11,9.21-12.11s8.92,6.95,9.22,12.11a1,1,0,0,0,0,.23s0,.08,0,.6c0,.87,0,1.75,0,2.63v26.63A30,30,0,0,1,652.74,361Z"/><path d="M712.35,328c0-.34-.2-.16,0,0Z"/><path d="M709.07,327c2.39,0-1.8-8.09-2.42-8.87a9.83,9.83,0,0,0-7.54-4,9.65,9.65,0,0,0-7.06,3.43c-.81.9-5.4,9.42-2.9,9.42a.75.75,0,0,0-.74.74v33.93a.71.71,0,0,0,.18.47l0,.05,0,0a.71.71,0,0,0,.47.18h19.92a.75.75,0,0,0,.74-.74V327.78A.75.75,0,0,0,709.07,327ZM708.49,361a2.33,2.33,0,0,1-1,0,18.39,18.39,0,0,0-3.4,0H689.9V333.31a20.21,20.21,0,0,0,0-3.73,2.13,2.13,0,0,1,0-1.2,1.25,1.25,0,0,1-.71.14.76.76,0,0,0,.74-.74c.3-5.19,2.93-12.11,9.21-12.11s8.92,6.95,9.22,12.11a1,1,0,0,0,0,.23s0,.08,0,.6c0,.87,0,1.75,0,2.63v26.63A30,30,0,0,1,708.49,361Z"/><path d="M766.47,328c0-.34-.2-.16,0,0Z"/><path d="M763.19,327c2.38,0-1.8-8.09-2.42-8.87a9.83,9.83,0,0,0-7.54-4,9.65,9.65,0,0,0-7.06,3.43c-.81.9-5.4,9.42-2.9,9.42a.75.75,0,0,0-.74.74v33.93a.71.71,0,0,0,.18.47l0,.05,0,0a.71.71,0,0,0,.47.18h19.92a.75.75,0,0,0,.74-.74V327.78A.75.75,0,0,0,763.19,327ZM762.61,361a2.34,2.34,0,0,1-1,0,18.39,18.39,0,0,0-3.4,0H744V333.31a21.12,21.12,0,0,0,0-3.73,2,2,0,0,1,0-1.2,1.25,1.25,0,0,1-.71.14.77.77,0,0,0,.74-.74c.29-5.19,2.92-12.11,9.21-12.11s8.92,6.95,9.22,12.11a.64.64,0,0,0,0,.23s0,.08,0,.6c0,.87,0,1.75,0,2.63v26.63A30,30,0,0,1,762.61,361Z"/><path d="M821.1,328c0-.34-.19-.16,0,0Z"/><path d="M817.83,327c2.38,0-1.8-8.09-2.42-8.87a9.83,9.83,0,0,0-7.54-4,9.66,9.66,0,0,0-7.07,3.43c-.81.9-5.39,9.42-2.89,9.42a.75.75,0,0,0-.74.74v33.93a.67.67,0,0,0,.18.47.1.1,0,0,0,0,.05l0,0a.72.72,0,0,0,.48.18h19.92a.75.75,0,0,0,.74-.74V327.78A.75.75,0,0,0,817.83,327ZM817.25,361a2.34,2.34,0,0,1-1,0,18.5,18.5,0,0,0-3.41,0H798.65V333.31a20.21,20.21,0,0,0,0-3.73,2.24,2.24,0,0,1,0-1.2,1.25,1.25,0,0,1-.71.14.75.75,0,0,0,.74-.74c.3-5.19,2.93-12.11,9.22-12.11s8.92,6.95,9.21,12.11a1.89,1.89,0,0,0,0,.23s0,.08,0,.6c0,.87,0,1.75,0,2.63v26.63C817.08,358.54,817.33,360,817.25,361Z"/><path d="M875.23,327.16c0-.34-.2-.17,0,0Z"/><path d="M872,326.25c2.39,0-1.79-8.09-2.42-8.87a9.81,9.81,0,0,0-7.54-4,9.65,9.65,0,0,0-7.06,3.43c-.81.9-5.4,9.42-2.89,9.42a.75.75,0,0,0-.75.74v33.93a.67.67,0,0,0,.19.47l0,.05a.1.1,0,0,1,0,0,.72.72,0,0,0,.48.18H872a.76.76,0,0,0,.75-.74V327A.75.75,0,0,0,872,326.25Zm-.58,33.92a2.29,2.29,0,0,1-1,0,17.66,17.66,0,0,0-3.41,0H852.78V332.51a20.1,20.1,0,0,0,0-3.72,2.13,2.13,0,0,1,0-1.2,1.25,1.25,0,0,1-.71.14.75.75,0,0,0,.74-.74c.3-5.19,2.93-12.11,9.21-12.11s8.92,6.95,9.22,12.11a1,1,0,0,0,0,.23c0-.05,0,.07,0,.59,0,.88,0,1.76,0,2.64v26.63A29.83,29.83,0,0,1,871.37,360.17Z"/><path d="M951.39,244.82H935.66a.75.75,0,0,0-.74.74V260.4a.67.67,0,0,0,.18.47l0,.05,0,0a.72.72,0,0,0,.48.18h15.73a.75.75,0,0,0,.74-.74V245.56A.75.75,0,0,0,951.39,244.82Zm-.74,14.84H936.4V246.3h14.25Z"/><path d="M923.86,163.37l0,0a.64.64,0,0,0,.47.19h7.12a.75.75,0,0,0,.75-.74v-18.5a.76.76,0,0,0-.75-.75h-7.12a.75.75,0,0,0-.74.75v18.5a.67.67,0,0,0,.18.47Zm1.26-18.28h5.64v17h-5.64Z"/><path d="M906.87,162.28l8.31-2.28a.76.76,0,0,0,.54-.72V145.63a.76.76,0,0,0-.94-.71l-8.31,2.47a.75.75,0,0,0-.54.71v13.46A.76.76,0,0,0,906.87,162.28Zm7.36-3.41s0,.07,0,.1C914.34,159.43,914,159.16,914.23,158.87Zm-6.81-10.23c.7-.23,1.45-.41,2.15-.62l4.67-1.39V157.9c0,.25,0,.55,0,.83l-1.87.5-4.94,1.36c0-3.73.28-7.54,0-11.24A3.73,3.73,0,0,1,907.42,148.64Z"/><path d="M895.24,162.28l4.41-1.39a.76.76,0,0,0,.54-.71v-9.42s0-.07,0-.1a.7.7,0,0,0-.73-.6.85.85,0,0,0-.22,0h-.06l-.09,0-4.4,2.17a.75.75,0,0,0-.37.64v8.61A.75.75,0,0,0,895.24,162.28Zm.55-8.29c0-.18,0-.38,0-.57a4.89,4.89,0,0,0,.76-.39l2.15-1.06v7.66l-2.92.92Zm0-.56s0,0,0,0C895.67,153.91,895.24,153.45,895.75,153.43Z"/></g></g></svg>