<svg xmlns="http://www.w3.org/2000/svg" viewBox="0 0 726.83 1000"><title>Asset 15</title><g id="Layer_2" data-name="Layer 2"><g id="Layer_1-2" data-name="Layer 1"><path d="M218.53,159c4.65,4.09,10,7.26,15.55,8a6.86,6.86,0,0,0,1.67.34c4.42.35,10.19-2.08,13.31-5.06.17-.16.3-.34.46-.5a36.67,36.67,0,0,0,9.11-12.43,1.28,1.28,0,0,0-.76-1.86c-1.43-.29-3-.56-4.6-.79a1.54,1.54,0,0,0-.54-.15l-3.4-.3-1.27-.1-.43,0h-.14a43,43,0,0,0-12.65.59c-7,1.27-13.24,4.4-16.51,10.77l-.06.15A1.07,1.07,0,0,0,218.53,159Zm15.63-9.49c.73-.22,1.47-.4,2.23-.55a44.12,44.12,0,0,1,4.61-.44,6.12,6.12,0,0,0-1.5,4c0,2.4,1.52,5.2,4.18,5.31s4.29-2.53,4.51-5a1.08,1.08,0,0,0,0-.32,1.06,1.06,0,0,0,0-.31,6.54,6.54,0,0,0-1.42-3.64c1.21.08,2.42.18,3.6.29l1.14.13A16,16,0,0,1,248,159.7c-4.32,3.83-8.95,5.14-13.56,4.61C230.57,162.05,232.85,153.38,234.16,149.53Zm9.7.24c1.33,0,1.77,1.77,1.81,2.78s-.48,2.79-1.81,2.79-1.82-1.77-1.82-2.79S242.56,149.77,243.86,149.77Zm10.19-.39,1.63.28a34.31,34.31,0,0,1-1.94,3.3A19.68,19.68,0,0,0,254.05,149.38Zm-22.75.79c-1.1,3.78-2.12,9.46-.73,13.25a29.61,29.61,0,0,1-9.52-5.58A18,18,0,0,1,231.3,150.17Z"/><path d="M146.87,159.2a10.94,10.94,0,0,0,1.43-.2,3,3,0,0,0,1.54-.89,10.41,10.41,0,0,0,4.7-6.3,1.06,1.06,0,0,0,.11-.48s0,0,0-.06,0-.06,0-.09a.9.9,0,0,0-.12-.46,15,15,0,0,0-5.82-7.89c-3.73-3.45-10.39-4.77-14.89-5.37a1,1,0,0,0-.88.25h0a54,54,0,0,0-7-.19,1.3,1.3,0,0,0-1.27,1.27,20.81,20.81,0,0,0,8.92,17C137.7,158.54,142.69,160,146.87,159.2Zm-2.61-15.56c1.1.1,1.22,3.24,1.24,3.82s-.19,3.82-1.24,3.82S143,148,143,147.46,143.27,143.56,144.26,143.64Zm-9.4-3.16a35.8,35.8,0,0,1,7.19,1.68,8.9,8.9,0,0,0-1.56,5.3c0,2.26.77,6.12,3.61,6.34,3.1.24,3.87-4.1,3.94-6.34a13,13,0,0,0-.15-1.63c1.27,2,1.08,5.48.73,7.75a11.94,11.94,0,0,1-.45,2.5,7.49,7.49,0,0,1-2,.66l-.79-.13c-2.26-.07-5.5-.39-7.57-1.48-1.77-.94-2.33-3.25-2.72-5.26A31.74,31.74,0,0,1,134.86,140.48Zm16.72,12a18,18,0,0,0-.07-2.54,12.37,12.37,0,0,1,.53,1.36A11.6,11.6,0,0,1,151.58,152.44Zm-19.66-1.37a18.84,18.84,0,0,1-4.65-11c1.58,0,3.29,0,5.08.17a29.33,29.33,0,0,0,.73,12C132.67,151.84,132.28,151.46,131.92,151.07Z"/><path d="M717.48,912.16c.55-13.58-3.65-23.57-12.49-33.85-8.32-9.68-15.61-19.18-17.35-32-4.13-30.27-8.34-60.54-14.75-90.43-6.6-30.81-13.53-61.54-19.48-92.48a245.31,245.31,0,0,1-3.87-26.27c8.74-11.44,14.64-29.68,10.22-43.76-5.61-17.84-14.1-38.58-33.11-45.26-.46-.76-1-1.53-1.54-2.3-10.74-14.41-24.29-26.83-35.66-40.77-14-17.18-24-33.86-44.29-44.49-30.73-16.09-52.46-43.11-82.25-60.54-17.49-10.24-35.67-18.73-54.12-27-16.83-7.55-33.58-15.34-50.57-22.52-2.32-1-4.63-1.91-7-2.77l-59.56-40.93c-1.89-1.3-3.67,1.78-1.79,3.07l50.33,34.59a56.22,56.22,0,0,0-5.57-.9,1.08,1.08,0,0,0-.69.13l-72.51-48.07a1.7,1.7,0,0,0-2.6,1.59l-35.25-27c-1.82-1.39-3.59,1.7-1.8,3.08l35.82,27.43c1.33,1,2.62-.35,2.53-1.7l91.47,60.64c1.91,1.27,3.69-1.81,1.79-3.07l-15-9.94a66,66,0,0,1,7.86,2l5.33,3.66a1.58,1.58,0,0,0,2.44-.83c4,1.63,8,3.44,12,5.19,16.37,7.24,32.68,14.62,49,21.95,18.88,8.49,37.67,17.57,55.06,28.84,14.8,9.58,26.51,21.82,39.91,33,3.42,2.85,6.94,5.48,10.52,7.95a.09.09,0,0,0,0,.05c7.51,17.39,10.57,38.41,11.94,57.37,3.59,49.81-7.86,99.21-28.87,144.24-.69,1.47,1.5,2.76,2.19,1.28C527,605.92,538.67,556.08,535,505.82c-1.33-18.24-4-37.63-10.75-54.9,7.5,4.91,15.29,9.29,23.23,13.8,20.88,11.83,32.24,33.12,47.44,50.84,9.07,10.57,22.45,21.32,29.77,33.77a1.34,1.34,0,0,0,.18.57c2.37,4,3.25,8.44,3.79,13.05.09,2.83,0,5.7.29,8.61.8,8.29,4.15,14.71,9.49,20.92,11.88,13.84,6.63,29,8.15,45.78,1.35,14.85,5,29.69,7.94,44.28C660,709.8,666.3,736.88,672,764.07c6.08,28.8,8.09,58.27,13.73,87.08,2,10,8.45,18.52,15,26.14,6.08,7.12,11.82,13.78,13.8,23.25,1.52,7.28,0,14.76,1,22.15,1.95,15.28,9.09,28.73,7.95,44.56-1.47,20.28-15.51,23-32.52,25.52-15.73,2.33-38.5,8.43-54.08,2.53-19.7-7.44-11.44-35.11-4.37-48.14,13.58-25-2.37-56.2-12.83-79.65-12.85-28.8-16.83-60.26-33.88-87.2a85.29,85.29,0,0,1-7.87-16.67,1,1,0,0,0,.22-1.16l-5.7-15c-1.08-3.11-2.22-6.21-3.54-9.26-4.11-9.58-16-25-28-24.12-9.6.69-7.32,14.27-7.49,20.83-.3,12-2.72,24.21-2,36.19.05.81.13,1.6.2,2.4-.61,7.37,2.58,16.75,5.36,23.3,2.6,8.22,5.44,16.4,7,24.83,2.38,12.8,1.21,25.69,4.85,38.31,5,17.39,14.38,32.88,24,48.08,8.39,13.32,24.52,29.68,24.25,46.47-.51,30.92-26.45,36.06-50.73,38.31-17.07,1.59-36.06,3.8-53.09.55-15.49-3-19.52-22.15-5.91-32,6.35-4.62,13.56-7.08,20.24-10.92,2.68-1.54,4.3-2.58,5.13-5.76,2.53-9.76-8.63-23-13.31-30.32-10.59-16.63-21.73-33.51-28-52.34-.45-1.36-.88-2.73-1.3-4.1a1.23,1.23,0,0,0-.05-.25l-.28-.88c-2.82-9.53-4.94-19.19-8.76-28.45-.32-.77-.66-1.53-1-2.29l0-.09a1.39,1.39,0,0,0-.11-.21c-7.86-18-19.12-34.24-27.48-52-7.12-15.14-11.44-31.89-15.34-48.13-1.62-6.79-3.36-13.54-5-20.33-1.1-4.7-1.25-12.49-4.59-16.48-7.78-9.31-28.07,0-36.56,2.82-6.85,2.3-15.68,7.49-23.1,6.89-4.31-.35-9.36-8.09-13.66-6.54-6.32,2.28-.17,27.49,0,31.39,1.47,29.3-3.84,59.64-12.05,87.74-4.72,16.19-11,32-17,47.72-3.9,10.31-9.94,21.37-10.85,32.54-1.2,14.62,7.59,25.27,10.6,38.82,4.34,19.56-4.1,41.58-25.37,45.16C264,977.91,245,973,234,961.31c-8-8.53-9.74-21.3-6.82-32.38,2.5-9.46,9.39-16.56,11.26-26.31,1.73-9-.59-17.94-.12-27,.69-13,2.4-26,3.92-38.9,2.53-21.55,5.36-43,7.2-64.65,1-11.53,2-23.09,4.35-34.45,2-9.66,5.32-19.16,6.57-29,1-7.64-.6-15.79-9.9-14.65-.95.12-1.9.29-2.84.49l-.21-1.35c1.1.55,2.7.07,2.57-1.49-.12-1.41-.24-2.83-.35-4.25,1.11.5,2.62,0,2.44-1.5s-.33-2.86-.5-4.29a1.87,1.87,0,0,0,3.11.16,1.84,1.84,0,0,0,1.13.08,1.66,1.66,0,0,0,.87-.55,1.83,1.83,0,0,0,3.12-1.63c-.22-1-.43-2-.65-3,1,1.26,3.42,1,3.17-.91q-1.23-9.49-2.45-19a2,2,0,0,0-3.25-1.18c-.22-1.06-.45-2.13-.67-3.19a1.89,1.89,0,0,0,2.16-2.2q-1-5.22-2.11-10.44c1.06.29,2.31-.24,2.17-1.62q-.84-8.48-1.69-16.94c-.23-2.25-3.79-2.28-3.56,0s.43,4.31.65,6.47l-3.45-17.12,4.74,8.16A1.78,1.78,0,0,0,258,617l-9.15-15.75a1.78,1.78,0,0,0-3.07,1.79l1.74,3a2,2,0,0,0-1.1.69c-.75-1.76-3.75-.8-3.32,1.31l2.61,12.46a166.74,166.74,0,0,1-7.49-25.06q1.19,3.6,2.39,7.18c.72,2.16,4.15,1.23,3.43-1l-7.67-23,2.34,5.21c.63,1.4,2.21,1,2.9,0q.91,7.25,1.81,14.48c.28,2.24,3.84,2.27,3.55,0L240,542.65a1.93,1.93,0,0,0-1.86-1.68,1.7,1.7,0,0,0,0-1q-6.21-22-12.43-44c3.69,5.55,5.17,14.74,7.24,20.79q3.4,10,6.73,20c.72,2.16,4.15,1.23,3.43-1q-3.6-10.79-7.28-21.55c-2.11-6.16-3.61-15.59-7.64-20.87a2,2,0,0,0-3.19.12q-7.59-26.87-15.17-53.73c-.62-2.19-4.06-1.26-3.43,1q12,42.32,23.9,84.63l-8.4-23.67c-.77-2.15-4.2-1.22-3.43.94.11.33.23.66.35,1a1.87,1.87,0,0,0-2.91.93l-11.37-35.24a1.8,1.8,0,0,0,2.75-1.91q-3.2-11.08-6.4-22.16c-.63-2.2-4.06-1.27-3.42.94q1.61,5.6,3.22,11.19l-4.2-13c-.7-2.17-4.13-1.24-3.43.94l21.57,66.85a1.92,1.92,0,0,0-2.35,1.26q-7.89-28.55-15.79-57.08a1.79,1.79,0,0,0-3.49.35c-1-1.06-3.22-.7-3,1.11q2.7,28,5.41,56.1l-1.92-10.07a1.64,1.64,0,0,0-2.72-.87l-.63-4.42c.7,1.71,3.65,1.56,3.42-.52q-5.46-48.21-10.93-96.43c-.25-2.25-3.81-2.27-3.55,0q5.33,47.12,10.67,94.23-2-14.21-4.07-28.4c-.32-2.26-3.75-1.3-3.43,1q3.91,27.25,7.81,54.51a1.7,1.7,0,0,0,.21.6,1.77,1.77,0,0,0-.21,1.22c.58,3.3,1.15,6.6,1.73,9.89a1.36,1.36,0,0,0-1.48-1.23,1.93,1.93,0,0,0,0-.59q-4.64-31.25-9.28-62.49c-.33-2.26-3.76-1.3-3.42.94q.39,2.67.79,5.34a1.8,1.8,0,0,0-3.14,1.14v28.07c-.09-3.83-.17-7.65-.26-11.48a1.79,1.79,0,0,0-2.39-1.63,1.76,1.76,0,0,0,.87-1.42l3.13-39.88c.18-2.28-3.38-2.27-3.56,0l-2.22,28.35L172.18,457c.11-1.92-2.37-2.22-3.25-.92l.33-3.83c.15-1.85-2.16-2.19-3.14-1a1.79,1.79,0,0,0-2.19-.47l2.34-6.76c.75-2.16-2.68-3.09-3.43-.94l-27,77.68q.44-6,.85-12a1.88,1.88,0,0,0,3-.76l20.58-59.73c.75-2.17-2.69-3.1-3.43-.95L137,505.05l.9-12.66a1.82,1.82,0,0,0,3-.75L149.25,464c.67-2.19-2.76-3.13-3.43-.94q-2.46,8.12-4.93,16.25.71-4.09,1.42-8.2a1.92,1.92,0,0,0-2.78-2l.26-3.56c.16-2.28-3.4-2.27-3.56,0l-6,83.83a1.52,1.52,0,0,0,1.45,1.7,1.59,1.59,0,0,0-1.45,1.69l0,.92a1.8,1.8,0,0,0-2.43,1.62c0,.15,0,.3,0,.45a2,2,0,0,0-1.49-1.31,1.82,1.82,0,0,0,1.63-1.68q3.43-39,6.86-78.07c.2-2.28-3.35-2.27-3.55,0l-6.86,78.07a1.46,1.46,0,0,0,1.21,1.66,1.36,1.36,0,0,0-1.15,1.26l-4.37,30.52a1.94,1.94,0,0,0-1.73-1q2.28-16,4.58-32c.32-2.24-3.11-3.2-3.43-.94-.27,1.89-.54,3.79-.82,5.68a1.61,1.61,0,0,0-.46-.68,1.9,1.9,0,0,0,.58-1.14q5.83-45.3,11.68-90.61c.3-2.26-3.26-2.24-3.55,0L125,480.5c-.55-1.48-3-1.86-3.35,0q-6.09,33.13-12.17,66.28a2,2,0,0,0-3,.79c-.41,1.07-.83,2.15-1.25,3.23L125.12,464c.51-2.23-2.92-3.18-3.43-.94-.27,1.16-.54,2.32-.8,3.49a2,2,0,0,0-1.56-.49c1.13-3.51,2.43-7.47,2.13-10.66a1.93,1.93,0,0,0-2.84-1.48q.7-2.32,1.42-4.65c.66-2.2-2.77-3.14-3.43-.95q-2.2,7.25-4.4,14.47a1.8,1.8,0,0,0-3.3-.69C98.4,480.57,86.5,498.32,75.3,516.35c-1.21,1.95,1.86,3.73,3.07,1.79,6.14-9.88,12.49-19.68,18.7-29.55-.17,1-.36,2-.52,3q-10.42,21.86-20.87,43.7c-1,2,2.08,3.86,3.07,1.79l16.37-34.26c-.1.93-.18,1.87-.27,2.81q-4.29,12.49-8.6,25c-.75,2.17,2.69,3.1,3.43,1l4.16-12.11c-.08,1.51-.15,3-.22,4.53q-5.49,18-11,36.1c-.67,2.19,2.76,3.13,3.43.94l7-23c0,.75-.06,1.5-.08,2.25q-3,9.89-5.93,19.78c-.65,2.2,2.78,3.13,3.43.94l2.07-6.9q-.19,6.86-.31,13.71c-.68,2.5-1.37,5-2,7.49a1.67,1.67,0,0,0,1.19,2.11l-2.56,6.36c-.76,1.88,1.87,2.82,3.06,1.53a1.37,1.37,0,0,0,.25,1.34c0,5.09.09,10.18.23,15.26,1,37.41,5.4,75.07,11.47,112,6.38,38.79,17.69,75.89,31,112.78,7.37,20.42,15.1,40.7,22.45,61.12,4.23,11.73,9.75,24.81,9.48,37.52-.31,15-12.12,22.1-22.92,30.4-11.1,8.52-12.4,20.85-3.21,31.87,4,4.81,7.64,7.3,13.64,8,14.8,1.74,32,.75,46.56-1.58,12.37-2,20.27-11.12,22.93-23.15,2.72-12.29-2-23-4.71-34.66C213.4,912.06,208,887,205.57,862.19c-3-31.34-7.19-62.52-11-93.78-2.17-17.95-5-36.15-5.28-54.26-.07-3.76-.14-8.14.83-11.59a1.78,1.78,0,0,0,1.61-2.2c-.08-.32-.15-.63-.23-.94a5.92,5.92,0,0,1,.35-.48l-.06.54c-.25,2.27,3.31,2.25,3.56,0l.31-2.82.37-.07v2.89a1.78,1.78,0,0,0,3.55,0v-.27a1.79,1.79,0,0,0,2.8-1.43v-.41l.51.13v8.07a1.78,1.78,0,0,0,3.55,0v-3.48a1.85,1.85,0,0,0,2.7.74c.29,2.16.57,4.31.86,6.47s3.86,2.26,3.56,0c-.19-1.39-.37-2.78-.56-4.16a1.84,1.84,0,0,0,1.57,0v4.2a1.78,1.78,0,0,0,3.56,0v-.74a2,2,0,0,0,2.35.05v.69a1.78,1.78,0,0,0,3.55,0v-2.68a1.88,1.88,0,0,0,1.62,0c-.16,1.07-.31,2.14-.47,3.21-.33,2.24,3.09,3.21,3.43.95.06-.43.12-.87.19-1.3v.82a1.8,1.8,0,0,0,3,1.24,1.8,1.8,0,0,0,3-1.24v-5.07a2.06,2.06,0,0,0,1.15-.2v5.27a1.78,1.78,0,0,0,3.55,0v-4.6l1,5.08c.42,2.24,3.85,1.29,3.43-.95s-.81-4.31-1.22-6.46q1.49,3.4,3,6.82c.91,2.09,4,.28,3.07-1.8l-1.37-3.15a1.93,1.93,0,0,0,1.55-2.18l-.93-6c2.18-.69,4.51-1.22,6.18-.58,5.44,2.11,4,10.11,3.23,14.38-2,11.21-5.59,22.06-7.42,33.32-3.6,22.08-4.53,44.64-7.24,66.85-2.1,17.25-4.29,34.5-6,51.8-.77,8-1.48,15.82-.74,23.81,1,11-.58,20-6,29.73-4.25,7.55-6.82,15-6.62,23.79.6,27.61,30.95,41.36,55.53,37.73,31.12-4.61,33.43-38.6,23-62.28-6-13.68-6.42-24.7-1.35-38.3,6.55-17.55,13.52-35,19.66-52.66a307.59,307.59,0,0,0,15.95-78.17,179.26,179.26,0,0,0,.07-27.71c-.35-4.29-5.29-22.42,1.42-22.53.89,0,5.25,3.71,6.19,4a14.39,14.39,0,0,0,5.49.69c7.54-.36,15-4.59,22.06-7,7.7-2.57,24.48-10.35,32.19-5.08,3.38,2.31,3.52,6.41,4.32,10.08,1.31,6.05,2.84,12,4.32,18,3.26,13.19,6.49,26.32,10.57,39.3,5.88,18.66,16.25,34.72,25.45,51.82a197.36,197.36,0,0,1,8.59,18.13c-19.29,23-49.31,64.72-28.3,94.5,18.23,25.85,53,24.91,75.87,6.48,3.41,5.34,7.41,12.37,5.51,17.28-1.76,4.56-12.15,7.24-16.08,9.52-6,3.47-13.16,7.33-16,14-3.34,7.75-1.5,19.34,5.62,24.49,6.2,4.48,16,4.3,23.23,4.48a299,299,0,0,0,55.83-3.71c18.32-3,31.27-11.43,35.87-31,3.12-13.22-2.17-23.13-9.32-33.87-11.82-17.74-24.47-35.61-32.89-55.29-6.28-14.66-7.06-28-8.61-43.47-1.05-10.37-4.3-20.14-7.4-29.93a.88.88,0,0,0,.12-.15c8.3-14.23,21.5-25.94,35.45-34.71a105.48,105.48,0,0,0,9.09,18.6c8.44,13.36,14,28.12,18,43.34a281.17,281.17,0,0,0,16.21,45.38c7.13,15.59,14.72,33.78,16.11,51,1.34,16.61-11.18,27.79-12.66,43.65-1,11.06.71,24.82,11.94,30.08,11.44,5.37,27,2,38.92.56,13.1-1.61,31-1.39,42.5-9C740,972.66,716.62,933.16,717.48,912.16ZM657.31,594.08c3.78,12-.59,27.71-7.6,38.48,1.07-9.07,1.34-18.16-1-26.66a25.73,25.73,0,0,0-1.35-5.08,28.55,28.55,0,0,0-4.69-7.65c-4.37-6.18-8-9.54-10.09-17-2.38-8.62-.77-16.67-4-24.5C644.73,559,652.29,578.11,657.31,594.08ZM203.19,647.6a2,2,0,0,0-1-.12l1.05-14.26Zm-6.62,41.18a2,2,0,0,0,2.28-.44v1.91a1.92,1.92,0,0,0-2.49.42Zm-4.75-13a1.76,1.76,0,0,0-1.83-1.72l3.21-6.71L192,680.55Zm1.52-10c-.5-1.27-2.4-1.89-3.14-.35l-7,14.64c0-.11-.05-.22-.07-.32-.34-1.66-2.3-1.57-3.11-.51l-.3-3.76a1.78,1.78,0,0,0-1.25-1.61,1.91,1.91,0,0,0,1.13-.22l0,1c.08,2.28,3.63,2.29,3.55,0,0-.41,0-.82,0-1.23,1,.92,3.08.52,3-1.23l-.45-8.38a1.86,1.86,0,0,0-2.92-1.39l-.06-2a1.86,1.86,0,0,0,2.31-.24l1.42,4.9c.63,2.2,4.06,1.26,3.43-.95-.55-1.87-1.09-3.75-1.63-5.62a1.73,1.73,0,0,0,2-2.17c-.56-1.81-1.11-3.63-1.67-5.45a1.72,1.72,0,0,0,1.67-1.22c.39-1.19.78-2.39,1.18-3.58-.46,5.2-.91,10.38-1.5,15.47-.26,2.27,3.3,2.25,3.56,0,1.64-14.24,2.21-29.19,4.85-43.36l-1,15.16a1.68,1.68,0,0,0,.1.73,1.81,1.81,0,0,0-1.45,1.64Q194.7,650.73,193.34,665.73Zm-21.91,8.35a1.93,1.93,0,0,0,1.59-.61v.6a1.91,1.91,0,0,0-1.79,1.08C171.3,674.79,171.36,674.43,171.43,674.08Zm7.35-32.19v-7Q180,645,181.31,655.16a2,2,0,0,0-1.34.09l-.24-9a1.83,1.83,0,0,0-3.2-1.11,1.7,1.7,0,0,0-1.81-1.28l.51-11.24v9.22A1.78,1.78,0,0,0,178.78,641.89Zm5.88,11.67-.72-5.79c.58,1.87,1.15,3.75,1.72,5.62A2,2,0,0,0,184.66,653.56Zm2.45-7.6a1.78,1.78,0,0,0,.61.11l-.3.9C187.32,646.63,187.21,646.3,187.11,646Zm-3.91-4.19q-1-8.07-2-16.13,2,8,4.09,16A2,2,0,0,0,183.2,641.77Zm-4.42-25.53,1.92,7.47a2.08,2.08,0,0,0-1.92-.76Zm-2.2,45.64.27,10.24a1.68,1.68,0,0,0,1.17,1.62,1.73,1.73,0,0,0-1.44.47Zm11.69-56.64c-.27-1-.53-2.09-.79-3.13a2.32,2.32,0,0,0,.79-.1Zm11-35.61a2,2,0,0,0-.13-1,1.92,1.92,0,0,0,1.8-2.23l-7.45-42.72a1.58,1.58,0,0,0-.23-.61,1.63,1.63,0,0,0,.2-.49l8.16,42.91c.43,2.24,3.86,1.29,3.43-1s-.81-4.25-1.21-6.38Q205,563.6,206.27,569a1.9,1.9,0,0,0-2.82-.49,1.64,1.64,0,0,0-2.78.82q-2.76,15.06-5.54,30.14Q197.19,584.56,199.23,569.63ZM214.84,529l8.39,16.73a1.5,1.5,0,0,0,1.91.8l.43,1.31a1.84,1.84,0,0,0-2.52,2.08l5.16,21.85a2,2,0,0,0-1.87.67c-.77-1.52-3.51-1.3-3.36.71l1.59,20.66a1.51,1.51,0,0,0-1.59,1.7q.9,10.44,1.78,20.88a1.68,1.68,0,0,0-1.18-.45,1.84,1.84,0,0,0,.5-1.6q-1.72-10.89-3.44-21.8c.7,1.71,3.65,1.56,3.42-.52l-4.19-38.5,3.18,16.13c.44,2.24,3.87,1.29,3.43-1l-4.8-24.34c-.44-2.25-3.87-1.3-3.43.94.2,1,.39,2,.59,3a1.9,1.9,0,0,0-2.74.12l-.36-5.72c-.14-2.27-3.69-2.29-3.55,0l.27,4.36a1.94,1.94,0,0,0-2.56-.31v-8.46l.19.82c.52,2.23,3.95,1.28,3.43-.95-.34-1.48-.69-3-1-4.44q1.8,3.84,3.62,7.68c1,2.06,4,.26,3.08-1.8l-5.58-11.8a1.92,1.92,0,0,0,1.13-.16A1.75,1.75,0,0,0,214.84,529Zm19.91,79.24c.2.52.39,1,.59,1.57a1.59,1.59,0,0,0-2.44.07l-.09-.42A2.06,2.06,0,0,0,234.75,608.22Zm18.75,59,.24,1.14a1.89,1.89,0,0,0-1.87.48c-.08-.28-.15-.56-.22-.84A2,2,0,0,0,253.5,667.23Zm-10.42,20.9c.16,1,.31,2,.47,3l-.94-2.28A1.62,1.62,0,0,0,243.08,688.13Zm-6.34,5.07c.31.95.61,1.9.91,2.85v0a1.84,1.84,0,0,0-.86.29Zm-16.56-36q-.39-3.3-.79-6.6a2.14,2.14,0,0,0,1.18.25Zm-5.58,15.17v5q-.42-9.21-.83-18.41l1.5,11.24a1.74,1.74,0,0,0,.2.62A1.62,1.62,0,0,0,214.6,672.38Zm-4.7,23.73v-4.42l.17,0a2.22,2.22,0,0,0,0,.51l.75,4.09A2.06,2.06,0,0,0,209.9,696.11Zm-3.11-55.17,1,49h0a1.66,1.66,0,0,0-1.33,1Q206.63,666,206.79,640.94Zm3.37-9q.85,6.46,1.73,12.94a2,2,0,0,0-1.46.15Zm3-4.23a1.82,1.82,0,0,0,1.17.9,1.35,1.35,0,0,0-.91,1.06C213.33,629,213.24,628.38,213.15,627.72Zm-2.37-42.18c-.11-1.56-.21-3.12-.32-4.67a1.93,1.93,0,0,0,1.75.55l.48,4.16A2,2,0,0,0,210.78,585.54Zm-.93-13.42a1.78,1.78,0,0,0-1.32-1.3,1.86,1.86,0,0,0,1.26-1.14Zm8.31,9.14-1.59-25.43q1.91,17.49,3.8,35c-.33-2.14-.67-4.27-1-6.41-.28-1.83-2.6-1.54-3.27-.17-.05-.45-.1-.9-.16-1.35A1.64,1.64,0,0,0,218.16,581.26Zm9.08,19,3.63,17-.38-.61a1.69,1.69,0,0,0-2.2-.69q-.69-8.16-1.39-16.32l.32,0A1.64,1.64,0,0,0,227.24,600.31Zm11.24,39.88c-.63-2.19-1.27-4.39-1.91-6.58l2.88,4.73A1.73,1.73,0,0,0,238.48,640.19Zm-12.6-20.87.27.12a1.32,1.32,0,0,0-.16.25C226,619.57,225.92,619.45,225.88,619.32Zm5.76,7.9-1.17-3.66c.63,1,1.25,2.06,1.88,3.08A1.75,1.75,0,0,0,231.64,627.22Zm2.16,33.23L229,642.38q2.63,8.83,5.24,17.68a0,0,0,0,0,0,0A1.39,1.39,0,0,0,233.8,660.45Zm-11.75-43.81a.41.41,0,0,1-.05-.09h.12Zm-2.53-.38-.16-.62a1.55,1.55,0,0,0-1-1.17,1.4,1.4,0,0,0,1.07-1.62q-1.2-10.25-2.39-20.49,1.8,11.45,3.61,22.91a1.73,1.73,0,0,0,.24.65A2,2,0,0,0,219.52,616.26Zm-5.94-36.68-.57-23.8q.75,12,1.49,23.93A2.21,2.21,0,0,0,213.58,579.58Zm2.29,33.27a1.88,1.88,0,0,0,1.36,1.6,1.73,1.73,0,0,0-1.29,2.13q1.22,5.07,2.45,10.13a2,2,0,0,0-1.9,0q-.84-11.52-1.69-23C215.16,606.74,215.52,609.8,215.87,612.85Zm0,15.53c0,.12,0,.25,0,.37a2.23,2.23,0,0,0-.43-.16A1.47,1.47,0,0,0,215.9,628.38Zm6,20.52q-.9-7.56-1.82-15.1,1.9,7.91,3.83,15.79A1.77,1.77,0,0,0,221.93,648.9ZM228.3,666a1.71,1.71,0,0,0,.6.27,1.4,1.4,0,0,0-.26.5,3,3,0,0,0-.42,0Zm1.79,6.22c.42,1.34.85,2.69,1.28,4a2.05,2.05,0,0,0-1.29.23Zm.69-6.61a1.64,1.64,0,0,0,.36-1.34l.46,1.75A1.68,1.68,0,0,0,230.78,665.63Zm4.12-15.84-2.81-9.47c.71,2.23,1.43,4.46,2.14,6.68a1.85,1.85,0,0,0,3.42.17q.71,3.78,1.43,7.56l-.93-4.67C237.8,648.28,235.59,648.51,234.9,649.79Zm2.54-4.4-.57-1.79a1.81,1.81,0,0,0,2-1.48l.39,1.75A1.94,1.94,0,0,0,237.44,645.39Zm5.59-1.15,1.95,3.21a2,2,0,0,0-1.16.3C243.56,646.58,243.29,645.41,243,644.24Zm-9.79-23a1.83,1.83,0,0,0,1.62-2.2c-.24-1.15-.49-2.3-.73-3.45L246,642.29Q239.62,631.78,233.24,621.27Zm-4.8-23c0-.06,0-.12,0-.19q-.62-7.93-1.22-15.88,1.31,8,2.6,16.09A1.85,1.85,0,0,0,228.44,598.22Zm-17.58-71.53-7.71-33.07q4.51,16.33,9,32.67A1.83,1.83,0,0,0,210.86,526.69ZM193.68,459.4l1.23,4.45a2.15,2.15,0,0,0-.79.17Zm1.52,15.8.51,2.17a1.63,1.63,0,0,0-.31-.11C195.33,476.57,195.27,475.88,195.2,475.2Zm13.39,57.41a1.73,1.73,0,0,0-2.23,1.54q-4.1-23.1-8.18-46.2Zm.88,23.9q.14,5.9.28,11.8l-2.61-11.51A1.93,1.93,0,0,0,209.47,556.51Zm-2,14.31a1.5,1.5,0,0,0-1,.78l0-1.77v0A1.49,1.49,0,0,0,207.47,570.82Zm-8.72,41.43a1.9,1.9,0,0,0-2.31-.28q1.78-9.66,3.55-19.31ZM203,576.1c0,1.75.06,3.5.1,5.25a2.1,2.1,0,0,0-1.06-.06Zm-11.22,9.79a1.77,1.77,0,0,0,1.63,0q-.81,5.92-1.63,11.84Zm0,25.18v-3.2a1.69,1.69,0,0,0,1.79-.08c-.58,3.12-1.15,6.25-1.72,9.37a1.91,1.91,0,0,0,2.69,2c-.39,2.29-.74,4.61-1.05,6.93q-1.68-6.68-3.37-13.35A1.67,1.67,0,0,0,191.82,611.07ZM199.59,635v.2a1.29,1.29,0,0,0,0-.19Zm3.9-15.19a2,2,0,0,0-1.65-.15L203.4,595q.19,10.54.4,21.09c0,2.28,3.61,2.29,3.56,0q-.37-20-.77-39.93,1.35,20,2.68,39.93a1.89,1.89,0,0,0,3,1.36l.57,7.79q-.37-2.87-.76-5.72a2,2,0,0,0-2.95-1.43,1.78,1.78,0,0,0-2.74,1.08A1.86,1.86,0,0,0,203.49,619.79Zm11.3,78.37c-.42-2.32-.85-4.63-1.27-6.95a1.53,1.53,0,0,0-2.16-1.16V690l-.21-10.23.34,7.5a1.86,1.86,0,0,0,3.11,1.23v7.09a1.81,1.81,0,0,0,3,1.3v1.73C216.65,698.48,215.72,698.33,214.79,698.16Zm6.35.82v-3.4a1.8,1.8,0,0,0-3-1.3v-21.9a1.6,1.6,0,0,0-.11-.6,1.34,1.34,0,0,0,.77-1.52l-1-7.47a2.09,2.09,0,0,0,2,.31Q219,676.54,218.19,690c-.14,2.29,3.42,2.28,3.55,0l2.4-39.46a.27.27,0,0,0,0-.09q1.52,6.22,3,12.47a1.93,1.93,0,0,0-2.27,1.68q-1.57,15.49-3.14,31c-.19,1.84,2.11,2.18,3.11,1l-.57,2.5C223.23,699.11,222.19,699.06,221.14,699Zm10.38-.29c-1.2.16-2.39.27-3.56.34.23-1,.45-2,.68-3,.46-2-2.37-3-3.24-1.43.37-3.61.73-7.23,1.1-10.84,0,2.64,0,5.27,0,7.9a1.78,1.78,0,0,0,2.79,1.43v3.44a1.78,1.78,0,0,0,3.56,0V680.87c.54,1.69,1.07,3.39,1.61,5.08a1.59,1.59,0,0,0-1.34,1.67l.17,10.77C232.69,698.5,232.11,698.61,231.52,698.69Zm9.49-2.35a1.6,1.6,0,0,0,.07-1.23c-.33-1-.65-2.06-1-3.09l.48,1.15a2,2,0,0,0,3.36.42c.09.6.19,1.2.28,1.8C243.15,695.7,242.08,696,241,696.34Zm9.92-20.57c-.26-2.25-3.82-2.28-3.56,0l.33,2.77a1.61,1.61,0,0,0-2.19,1.63c.17,2,.33,4,.5,6a1.93,1.93,0,0,0-2.88,1.06s0-.07,0-.1l-1.26-5.25a1.89,1.89,0,0,0,2.15-2.2l-.61-3.06a1.86,1.86,0,0,0,3.1-1.69l-.24-1.31a1.83,1.83,0,0,0,3-1.73c0-.19-.09-.38-.13-.56a1.88,1.88,0,0,0,2.29,0v8.78Zm2.94-16.13a1.7,1.7,0,0,0,2.94.71q.85,6.67,1.72,13.34c-.69-3.19-1.38-6.39-2.08-9.58a1.72,1.72,0,0,0-3.06-.58c-.45-2.4-.89-4.8-1.34-7.21-.37-2-3.17-1.45-3.43.31L247.1,651c.1.16.2.32.29.48,1.19,2,4.27.17,3.07-1.8l-3.77-6.22c1.2,1,3.41-.61,2.61-2.41l-2.73-6.12a1.53,1.53,0,0,0,1.23-2.1q-1.53-4-3-8a2.07,2.07,0,0,0,1.56-1.22Zm-22.44-77.9c1.93,8.27,3.64,16.44,5.85,24.48a2,2,0,0,0-2.48.6q-2.51-15.54-5-31.07a1.91,1.91,0,0,0,1.79-.19c.45,1.33.89,2.67,1.34,4A1.78,1.78,0,0,0,231.43,581.74Zm5-39.57a1.88,1.88,0,0,0,0,.48q2.37,19.1,4.75,38.18l-4.59-10.25a1.94,1.94,0,0,0,2.95-1.9l-3.81-26.5,0-.13A1.83,1.83,0,0,0,236.46,542.17Zm-1.74-1.25v0a2,2,0,0,0-2.41,2.18l.06.42-3.3-11.1c.79,2.21,1.57,4.41,2.35,6.62a1.9,1.9,0,0,0,3,.78Zm-16.84-28.23q1.31,4.88,2.59,9.74l-4.75-9.14A2,2,0,0,0,217.88,512.69Zm5.17,11.93q.94,3.21,1.91,6.43-1.92-3.67-3.82-7.35a1.79,1.79,0,0,0,1.84.19A1.7,1.7,0,0,0,223.05,524.62Zm2.54-2a1.92,1.92,0,0,0-1.54,0,1.86,1.86,0,0,0-.05-.73L220,507Zm-2.36,12.82a1.71,1.71,0,0,0,3,0l6.07,20.44a1.71,1.71,0,0,0,2,1.22q.9,6.19,1.79,12.41l-.54-1.19c-.93-2.09-4-.28-3.07,1.79.45,1,.91,2,1.36,3.05a2,2,0,0,0-1.65.09q-2.22-9.33-4.42-18.68,1.83,5.49,3.64,11c.72,2.16,4.15,1.23,3.43-1q-4.19-12.63-8.38-25.25a1.86,1.86,0,0,0-2.92-.83l-5.64-11.26a1.55,1.55,0,0,0-2.23-.68,1.73,1.73,0,0,0,0-.93l-2.75-10Q218.08,525.52,223.23,535.42ZM199.61,521q-.48-5-1-10.07,2.61,14.76,5.23,29.51a1.58,1.58,0,0,0,2.48,1v11.9q-2-8.79-4-17.59a1.72,1.72,0,0,0-2.94-.72l-2.4-12.6C198.11,523,199.77,522.55,199.61,521Zm-2.13,46.37a.24.24,0,0,0,0,.08,1.5,1.5,0,0,0-1.14.25l-4.59-33Q194.62,551,197.48,567.34Zm-10.63-33.7a1.39,1.39,0,0,0,1.49,1.28,1.86,1.86,0,0,0,0,.58l4.74,34.13a1.45,1.45,0,0,0,.4.86,1.62,1.62,0,0,0-.4.82q-.62,3.3-1.25,6.6v-11a1.78,1.78,0,0,0-3.55,0v6.51a1.76,1.76,0,0,0-2.45,1.61v20.54l-1.32-5.26c-.56-2.21-4-1.27-3.43,1l9.63,38.25a1.65,1.65,0,0,0,2.26,1.15c-.2,1.72-.38,3.45-.55,5.17a1.8,1.8,0,0,0-.9.23q-4.48-18.33-9-36.65c-.55-2.22-4-1.28-3.43.94q4.62,18.83,9.23,37.65a1.57,1.57,0,0,0,1.64,1.26c-.3.92-.6,1.84-.91,2.76q-4-15.69-8.06-31.38a1.64,1.64,0,0,0-2.22-1.16v-9.6a1.78,1.78,0,0,0-3.55,0v19.22a1.91,1.91,0,0,0-1.56-.34q.68-6.88,1.34-13.75a1.49,1.49,0,0,0-1.59-1.7,1.75,1.75,0,0,0,1.55-1.68l1.21-23.43q.48,8.67.95,17.33c.13,2.28,3.68,2.29,3.56,0q-.84-15.42-1.69-30.83c0,.12,0,.23,0,.34a1.87,1.87,0,0,0,2,1.7c0,.06,0,.11,0,.17v18.8a1.78,1.78,0,0,0,3.55,0V572.25c.41,2.25,3.84,1.3,3.43-.94l-7-38.62a1.44,1.44,0,0,0-1.58-1.27c-.21-2.24-.43-4.48-.64-6.72a1.76,1.76,0,0,0-.52-1.13,1.61,1.61,0,0,0,.52-1.24V508.51l8.07,53.92c.34,2.25,3.76,1.3,3.43-.95l-9.28-62a1.49,1.49,0,0,0-2.22-1.12v-19.1Zm-5,23.75,1.42,7.83a1.83,1.83,0,0,0-.7-.05,1,1,0,0,0,0-.17Zm-3.33,2.39a1.91,1.91,0,0,0-2.13-.82l-.63-28.45Zm-2.91-36.33v0Zm0,45,0,.56a1.85,1.85,0,0,0-2.66,1.54q-.79,15.54-1.6,31.08a1.57,1.57,0,0,0,1.67,1.71,1.84,1.84,0,0,0-1.63,1.67L166,660.69a2.16,2.16,0,0,0-.86-.73q2.06-16.41,4.12-32.82c.24-2-2.43-2.21-3.31-.75V624a1.87,1.87,0,0,0,3.31-1L171.54,587c.15-2.28-3.41-2.28-3.55,0l-.22,3.33v-6.1a2,2,0,0,0,3.14-1.29q1.05-8.06,2.11-16.09h0A1.82,1.82,0,0,0,175.65,568.41Zm-13.44,94.86c0-.08,0-.14-.05-.21a1.28,1.28,0,0,0,.33.11c-.05.34-.11.67-.16,1Zm3.06-32.7-.39,3.12c.31-1.94-2.27-2.9-3.17-1.58l.69-3.39v.47A1.79,1.79,0,0,0,165.27,630.57Zm-4-35.81.94,5.71a1.56,1.56,0,0,0-2.21,1.15q-1.1,5.42-2.18,10.84a2,2,0,0,0-1.32-.74,1.41,1.41,0,0,0,1.59-1.28q3-18.75,6.08-37.49v19.89A1.91,1.91,0,0,0,161.32,594.76Zm-14.74,20.88Q145,622,143.47,628.28a1.8,1.8,0,0,0-3.24.44c-.65,2.36-1.31,4.73-2,7.1l.3-16.78a1.77,1.77,0,0,0,.83.52,1.88,1.88,0,0,0,1.36-.18q-.94,2.73-1.88,5.44c-.75,2.17,2.68,3.1,3.43.95L147.05,612a1.81,1.81,0,0,0,3.22-.48q4.92-17.71,9.86-35.45L156.41,599a1.69,1.69,0,0,0-2.71.92q-1.83,8-3.65,15.9C149.76,614.18,147.06,613.68,146.58,615.64Zm-6.36,25.89,0-.11a1.44,1.44,0,0,0-2-1.19l0-1.93a1.89,1.89,0,0,0,2.7.31l-.69,2.81A.41.41,0,0,0,140.22,641.53Zm20.13-66.84a1.85,1.85,0,0,0-2.19-1.39q2.11-5.62,4.24-11.23Q161.38,568.37,160.35,574.69Zm-5.47,35.95a2.07,2.07,0,0,0,1.56,1.07,1.58,1.58,0,0,0-1.73,1.26l-5,20.39Zm12.89-44.46a1.89,1.89,0,0,0,1.72.5q-.86,6.52-1.72,13.06Zm5.15-3.9a2,2,0,0,0-1.94-.11c.34-13.46.94-26.95,1-40.42Zm-5.55,34.33-.6,9.48c-.49-3-1-6-1.49-9A1.91,1.91,0,0,0,167.37,596.61Zm-1.44,13.1a2,2,0,0,0,.64-.47q-.3,4.85-.62,9.7v-9A2.28,2.28,0,0,0,165.93,609.71Zm6.22-116.94a1.57,1.57,0,0,0-.73,1.44c0,1.13.05,2.26.07,3.39a1.78,1.78,0,0,0-1.71-1.36c.09-1.41.18-2.81.26-4.22A1.74,1.74,0,0,0,172.15,492.77Zm-32.66,72.17a1.84,1.84,0,0,0,2.27.12l-2.79,11C139.14,572.37,139.31,568.65,139.49,564.94Zm7.19-4.79a1.91,1.91,0,0,0,.72.11,1.66,1.66,0,0,0-.56.86q-1.38,4.65-2.77,9.3Zm-.74-3.15a1.7,1.7,0,0,0-2.28.74l5-23.39Zm4.93-41.41a1.57,1.57,0,0,0-2.13,1.18l-9,42.22c0-.14,0-.28,0-.42a1.61,1.61,0,0,0-1.79-1.71.62.62,0,0,0,.07-.19l15.27-61.87Q152.09,505.2,150.87,515.59Zm-16.12,74.66-.93-37.44a1.71,1.71,0,0,0-1.63-1.7,1.81,1.81,0,0,0,1.63-1.69c.12-1.75.25-3.5.37-5.26a1.75,1.75,0,0,0,2.55-1l6.54-22.4-8.64,35a1.78,1.78,0,0,0,1.74,2.2,1.82,1.82,0,0,0-.15.64Q135.5,574.41,134.75,590.25Zm9-71.37a1.82,1.82,0,0,0-3.07-1.16l11.6-33.39Q148,501.61,143.73,518.88Zm11.69-41.64a1.87,1.87,0,0,0-.74.1l1.11-3.18C155.67,475.19,155.55,476.21,155.42,477.24Zm-17.35,47.93c.43-1.22.85-2.43,1.27-3.65l-4.68,16,.81-11.34A1.85,1.85,0,0,0,138.07,525.17Zm2.64-45.24c-.85,2.78-1.69,5.56-2.54,8.34.18-2.55.37-5.11.55-7.67A1.54,1.54,0,0,0,140.71,479.93ZM129.15,619.56a1.81,1.81,0,0,0,1.46-.67l-.1,3.19v-.85A1.63,1.63,0,0,0,129.15,619.56ZM114.71,586a2,2,0,0,0-2.13-.66q2.83-12.11,5.68-24.19Q116.49,573.61,114.71,586Zm-6.18-33.87q-1,5.36-2,10.7a2.12,2.12,0,0,0-1.81-1Q106.65,557,108.53,552.17ZM94.68,587a1.87,1.87,0,0,0,.67-.87q3.77-9.69,7.52-19.38a45.38,45.38,0,0,1-2.41,9.66q-2.86,7.51-5.75,15C94.7,590,94.68,588.49,94.68,587Zm6.9-26.71c-.11.3-.23.6-.35.91a1.93,1.93,0,0,0-3.42.27l-.39,1q1.92-7,3.82-13.9a1.62,1.62,0,0,0-.3-1.51,1.72,1.72,0,0,0,1.62-.32L100,558.1A1.81,1.81,0,0,0,101.58,560.3Zm-2.36-75.13,1.83-2.95c-.5,1-1,2.1-1.51,3.16A1.11,1.11,0,0,0,99.22,485.17ZM97,510.45q3-8.86,6.1-17.71c.5-1.47-.9-2.36-2.09-2.13q3.57-7.49,7.15-15a1.91,1.91,0,0,0-1.43-2.68q2.58-4.29,5.07-8.64l-15,49.49C96.8,512.68,96.87,511.56,97,510.45Zm-1,18.13,22-72.4c.07,4.32-2.5,10.12-3.5,14.09-2.59,10.38-5.28,20.73-8,31.08q-2.86,11-5.78,22a1.81,1.81,0,0,0-2.88.83q-1,3.24-1.94,6.48C95.89,530,95.92,529.29,96,528.58Zm-.61,17.81a1.78,1.78,0,0,0,3.13-.56q4.74-17.88,9.4-35.78l-8.24,34.84a1.67,1.67,0,0,0,.34,1.52,1.68,1.68,0,0,0-2.16,1.19L95,557.75C95.12,554,95.22,550.17,95.34,546.39Zm95.48,150.12q-1.41-5.84-2.83-11.65c-.54-2.22-4-1.28-3.43.95L188.25,701c-1.87,5.38-1.57,12.89-1.24,18.83,2.1,37.6,8.68,75,13,112.4,2.23,19.49,3.92,38.63,7.5,57.93,2.82,15.18,5.42,30.45,8.82,45.53,3.15,14,9.09,27,2.78,41.33-8.72,19.83-35.86,16.4-54,16.49-9.68,0-15.77.4-22.34-7.34-18.44-21.72,10.23-29.45,20.67-43.52,4.86-6.55,6.38-14.12,5.58-22.15-1.18-11.85-5.75-23.42-9.77-34.53-7.43-20.52-15.18-40.92-22.57-61.46A713.32,713.32,0,0,1,94.91,602c-.07-2.23-.11-4.47-.15-6.7a1.93,1.93,0,0,0,2.67-1q3.22-8.46,6.46-16.91a55.65,55.65,0,0,0,2.88-12.85,2,2,0,0,0,1.73.89q-4.44,14-8.87,27.92a1.71,1.71,0,0,0,2,2.16q-.84,2.82-1.69,5.63c-.66,2.2,2.77,3.14,3.43.95l.45-1.48q-.84,3.31-1.67,6.63c-.56,2.22,2.87,3.17,3.43.95l3.06-12.2a1.82,1.82,0,0,0-2.88-1.84l4.17-13.91a1.69,1.69,0,0,0-1.72-2.18l6-19c.61-1.93-2-2.88-3.08-1.58q6.61-36.11,13.25-72.2l-9.15,70.94a1.41,1.41,0,0,0,.37,1.23,1.65,1.65,0,0,0-.3.67l-7.56,32.17a1.84,1.84,0,0,0,2.34,2.15q-1.8,7.4-3.61,14.79c-.54,2.22,2.89,3.17,3.43.95q2.1-8.6,4.19-17.17a2,2,0,0,0,1.21,1.36l-3.78,14.86c-.57,2.22,2.86,3.17,3.43.95q2.27-8.92,4.54-17.85c-.28,2.21,3.11,3.16,3.43.91q2.4-16.82,4.82-33.63-.34,11.07-.68,22.14a1.87,1.87,0,0,0-2.68,1.53q-1,16.77-2,33.54c-.14,2.28,3.41,2.27,3.55,0q.89-14.52,1.76-29a1.83,1.83,0,0,0,2.81-1.45l.3-9.49.37,14.94a1.82,1.82,0,0,0-3.33.9l-.45,27.18a1.6,1.6,0,0,0,1.34,1.67,1.68,1.68,0,0,0-1.78,1.72v16.94a1.78,1.78,0,0,0,3.55,0V638c.26,3.72.51,7.45.77,11.18.15,2.27,3.71,2.28,3.55,0q-.51-7.45-1-14.91a1.88,1.88,0,0,0-3.31-1v-2.05a1.84,1.84,0,0,0,3.31-1q.51-16.26,1-32.52c.07-2.25-3.36-2.28-3.54-.1l.06-3.34a1.83,1.83,0,0,0,3.35.3,1.83,1.83,0,0,0,3.44-.75q.3-6.39.59-12.77a1.9,1.9,0,0,0,2.13.2l-2,6.67c-.66,2.2,2.78,3.14,3.43,1q4-13.4,8-26.78a1.71,1.71,0,0,0-1.74-2.19,1.78,1.78,0,0,0,.78-1.31q5.53-46.49,11.05-93a1.37,1.37,0,0,0-1-1.61q1.56-4.51,3.13-9-6.14,51.81-12.26,103.61c-.27,2.27,3.29,2.25,3.56,0q5.15-43.46,10.28-86.92l-7.23,84.55c-.2,2.28,3.36,2.27,3.55,0q3.85-44.93,7.69-89.86-2.64,43.23-5.27,86.47c-.14,2.29,3.42,2.28,3.55,0q1.08-17.62,2.15-35.24c0,15.5-.74,31-1.11,46.51a1.86,1.86,0,0,0-1.62-.57c.17-1.08.35-2.16.52-3.24a1.94,1.94,0,0,0-2.72-2,1.88,1.88,0,0,0-3.5,0l-17.19,45.51c-.81,2.14,2.62,3.07,3.43,1l8.28-21.93q-3.63,13-7.25,26.07a1.89,1.89,0,0,0-3.15.63q-1.11,3.19-2.21,6.41l.66-4.37a1.82,1.82,0,0,0-1.24-2.18,1.78,1.78,0,0,0-2.19,1.24c-.17,1.15-.35,2.31-.53,3.46l.09-4.91a2,2,0,0,0,2.9-1.47L143.72,592c.3-2.27-3.26-2.24-3.55,0-.43,3.22-.85,6.44-1.28,9.67,0-1.33.05-2.65.07-4,0-2.29-3.51-2.29-3.55,0q-.42,22.69-.83,45.39a1.73,1.73,0,0,0,2.51,1.56l2.1,15c.2,1.38,1.56,1.55,2.51,1,0,1.33-.09,2.65-.13,4-.08,2.29,3.48,2.28,3.55,0q.31-9.5.64-19c.07-2.29-3.48-2.29-3.56,0l-.27,8.12-1.56-11.08c.67,1.24,2.86,1.45,3.29-.29L148,625l-3.78,16.47a1.83,1.83,0,0,0,3.09,1.66c-.22.91-.45,1.83-.68,2.74-.55,2.23,2.88,3.17,3.43.95q2.55-10.28,5.09-20.56l-4.83,24c-.45,2.23,3,3.19,3.43.94L163,605c.18,1.13.37,2.27.56,3.4A1.62,1.62,0,0,0,162.4,610v11.38a1.59,1.59,0,0,0-2.35,1.1q-3.18,15.66-6.35,31.32c-.46,2.24,3,3.19,3.43,1q1.69-8.4,3.4-16.8l-3.47,19.54c-1.1-.45-2.56,0-2.41,1.54q.91,9.48,1.84,19c.22,2.25,3.78,2.28,3.56,0l-1.68-17.27a1.49,1.49,0,0,0,1.93-1.23q2.28-12.86,4.57-25.71-1.74,13.89-3.49,27.78a1.52,1.52,0,0,0,0,.57,2,2,0,0,0-2.63,2.1q1.26,9.4,2.54,18.8c.3,2.26,3.73,1.3,3.43-.94l-1.4-10.31a1.42,1.42,0,0,0,1.52-1.28c.33-2,.65-3.91,1-5.87a1.88,1.88,0,0,0,3.42-.87q.93-9.6,1.88-19.21l-1.08,24a1.44,1.44,0,0,0-.85.3c.28-2.13-3-3-3.45-.8-.49,2.43-1,4.85-1.48,7.28a1.86,1.86,0,0,0,3,1.82q-.74,3.89-1.48,7.75c-.42,2.24,3,3.2,3.43.95l1.81-9.45-1.11,11.26c-.18,1.85,2.14,2.19,3.13,1V690a1.78,1.78,0,0,0,3.56,0v-9.35l.93,12.06c.18,2.27,3.73,2.29,3.56,0l-.68-8.78q1.67,8,3.32,16c.47,2.24,3.9,1.29,3.43-1l-3.24-15.63a1.49,1.49,0,0,0,2-.78l2.42-5.07c.13,3.36.25,6.73.38,10.1.09,2.28,3.64,2.29,3.56,0l-.15-4a1.9,1.9,0,0,0,3.26-1.11l3.84-42.46q-1.68,22.8-3.37,45.61a2,2,0,0,0-2.66,1.57l-.9,8A7.71,7.71,0,0,0,190.82,696.51Zm5.16-2.45c0-.22.05-.43.08-.64v.63Zm6.43.83v-7.27a1.8,1.8,0,0,0-3-1.24l.19-2.52a1.86,1.86,0,0,0,3-1.32c.15-3.25.31-6.5.46-9.75l-.11,18.89c0,2.05,2.8,2.26,3.43.66v3.42a1.86,1.86,0,0,0-2.93-.56l-.61-.2Zm42.4,4.26-.36-.83.22-.07C244.72,698.55,244.76,698.85,244.81,699.15ZM486.53,898.84c3.58,5.94,7.37,11.75,11.08,17.6-14.87,10-33.77,7.35-45.1-7-14.37-18.16-4.41-41.54,15.39-49.8C472.28,873.53,479,886.34,486.53,898.84Zm15,28c-2.8,4.14-14.24,8.3-18.35,9.62a47.38,47.38,0,0,1-28.26.2c-17.19-5.25-31.63-20.75-30.64-39.49.89-16.82,9-32.4,17.77-46.37,2.64-4.2,12-21.33,16.41-20.68a233.86,233.86,0,0,1,8,24.46c.11.43.24.86.36,1.28l.36,1.38c-22.41,9.36-32.67,36.74-14.81,56,7.81,8.45,19.52,13.43,31.05,11.73a34.35,34.35,0,0,0,8.26-2.35c1.5-.62,5.79-4,7.23-4-.6-1.21-.53-1.18.21.11.62,1,1.23,2,1.85,3,.37.59.68,1,.93,1.42s.48.76.75,1.17C502.89,925.05,502.54,925.35,501.52,926.86Zm47-207.69c9.52,5.17,15.56,13.6,19.29,23.43A105.93,105.93,0,0,0,548.53,754c-4.23,3.17-11.37,7.8-14.72,12.65.12-9.39,1.68-18.82,2-28.18C536.06,730.08,533.38,710.94,548.53,719.17Zm9.86,55.71a102.55,102.55,0,0,0-15.46,16.19c-.65.83-1.27,1.69-1.85,2.57q-1.44,4.51-2.63.47l0-.05c-1.13-3.76-2.16-7.55-3-11.39-.06-.56-.11-1.06-.17-1.46-1.37-10.32,2-14.53,9.6-21.09a100.17,100.17,0,0,1,14.38-10.26c1-.56,8.3-5.3,8.68-5.22.89.2.09-.19,1.25,1.69,1.92,5.51,3.71,10.94,5.68,16.26A138.91,138.91,0,0,0,558.39,774.88Z"/><path d="M145.88,226.08c7.34,6.53,17.7,16.65,27.94,18.24q-.94,7.71-1.9,15.42c-1.2,11.31-8.87,20.17-20.15,22.4-1,.2-1.09,1.44-.56,2.12,7,9,17.51,18.62,29.74,13.4,6-2.56,11-8,14.09-13.66a1.28,1.28,0,0,0-.76-1.86,29,29,0,0,1-19.81-22.49q.93-7.56,1.87-15.12c10.39.11,22.47-8.8,30.52-14.18,1.35-.91.08-3.11-1.28-2.2-8,5.38-20.18,14.47-30.18,13.71s-20.55-11.2-27.73-17.57C146.45,223.21,144.65,225,145.88,226.08Zm37.66,53.33a28.44,28.44,0,0,0,8.08,4.48c.41.13,2.54-1.71.1.69-4.05,4-6.26,8.45-11.93,10.77-10.42,4.29-19.17-3.55-25.45-11.22a26.87,26.87,0,0,0,19-18.87A30,30,0,0,0,183.54,279.41Z"/><path d="M302.06,47,308,39.9c1.46-1.75-1.05-4.28-2.51-2.52l-5.93,7.11C298.09,46.24,300.6,48.77,302.06,47Z"/><path d="M311.55,52.43q2.19-2.72,4.4-5.42a1.84,1.84,0,0,0,0-2.52,1.79,1.79,0,0,0-2.51,0L309,49.91a1.84,1.84,0,0,0,0,2.52A1.8,1.8,0,0,0,311.55,52.43Z"/><path d="M185.55,89.37a1.88,1.88,0,0,0,3,0c.66,1.29,3.2,1,3.41-.91q2.55-22.14,5.08-44.29c.21-1.81-2-2.16-3-1.08q.64-5.69,1.27-11.37c.26-2.27-3.3-2.25-3.55,0l-4.83,43.09,3.81-51c.17-2.28-3.38-2.27-3.55,0l-4.83,64.61C182.2,90.33,184.64,90.64,185.55,89.37Z"/><path d="M169.66,89.36a1.84,1.84,0,0,0,3.16-.24c.64,1.56,3.42,1.34,3.42-.69a1.81,1.81,0,0,0,3,1.26,1.84,1.84,0,0,0,3.07-1.26q1-35.06,2-70.12c.07-2.28-3.49-2.28-3.56,0q-.5,17.54-1,35.06V1.72a1.78,1.78,0,0,0-3.56,0v9.14a1.78,1.78,0,0,0-3.55,0V76.05q-.65-30.94-1.27-61.88c0-2.29-3.61-2.3-3.56,0l.93,45.38-1.44-37.76c-.09-2.28-3.64-2.3-3.56,0q1.28,33.32,2.54,66.64A1.83,1.83,0,0,0,169.66,89.36Z"/><path d="M166.08,88.43,162.27,3c-.1-2.28-3.66-2.29-3.56,0l3.81,85.44C162.63,90.71,166.18,90.72,166.08,88.43Z"/><path d="M64.58,89.25l39,20.72L68,95.35c-2.12-.87-3,2.57-.95,3.43l37.49,15.39-29.94-9.84c-2.18-.72-3.11,2.71-.94,3.43L111,120a1.73,1.73,0,0,0,2.06-2.37l2.26.93a1.48,1.48,0,0,0,2.09-1.3l0,0c1.86,1,3.53-1.54,2.2-2.78a2.12,2.12,0,0,0,.36-1.37,1.79,1.79,0,0,0,1.25-2.63,1.81,1.81,0,0,0,2-2.88L106.84,90.05q1-.08,2-.21l17,18.56a1.71,1.71,0,0,0,2.88-.72c1.18-.16,2.2-1.33,1.31-2.53L117,87.4a19.94,19.94,0,0,0,1.75-1q5.59,8.67,11.21,17.33c1.19,1.83,4,.29,3.21-1.53a1.82,1.82,0,0,0,2-2.63l-11-19.17c.15-.31.3-.63.43-1q5.52,10.11,11,20.23a1.78,1.78,0,0,0,3.23-.45,1.87,1.87,0,0,0,2.39-2.53v0a1.77,1.77,0,0,0,1.36-.35,1.89,1.89,0,0,0,2.89-1.58,2.08,2.08,0,0,0,1.94-.77,2,2,0,0,0,2.86.18c1,1,3.19.65,3-1.14l-.09-.9a1.79,1.79,0,0,0,2.68-.71c.72,1.55,3.46,1.36,3.38-.62,1,1,3.16.64,3.05-1.16q-1.53-25.48-3.05-51c-.13-2.28-3.69-2.29-3.56,0,0,.52.07,1,.1,1.56-.71-1.6-3.53-1.41-3.4.64l0,.39q-.9-12.64-1.81-25.29c-.16-2.27-3.72-2.28-3.55,0l3.72,52.13q-1.49-14.71-3-29.43c-.23-2.26-3.79-2.28-3.56,0q1.47,14.58,2.93,29.17-3.36-25.31-6.74-50.6c-.3-2.23-3.86-2.26-3.55,0l5.94,44.58q-.72-4.45-1.43-8.93c-.37-2.26-3.79-1.3-3.43.94q1.25,7.83,2.5,15.66-1.44-7.27-2.89-14.53c-.44-2.24-3.87-1.29-3.42,1,.2,1,.41,2.1.62,3.15l-6-14.43a1.94,1.94,0,0,0-3.45-.23L120,31.22c-.85-2.09-4.29-1.18-3.43,1L126,55.42Q120,42,114,28.6c-.93-2.09-4-.28-3.07,1.79l23,51.43q-6.52-13.33-13.06-26.68c-.81-1.67-3-.79-3.24.69-7.11-6.11-17.5-8.47-26.81-8.52C76.06,47.22,71.07,60.19,76,72.85,78.82,80,84.85,85,91.78,87.67l20,18.76L83.91,86.17c-1.86-1.34-3.63,1.74-1.8,3.08L109,108.82,66.38,86.17C64.36,85.1,62.56,88.17,64.58,89.25Zm71.94-21.39L138.14,76l-3.44-8.52A2.07,2.07,0,0,0,136.52,67.86Zm3.1,15.59.87,4.38c-.63-1.39-1.25-2.79-1.87-4.18A2.27,2.27,0,0,0,139.62,83.45ZM117.2,93.69q-2.13-2.35-4.28-4.69l.69-.2Zm10.22-.4-5.94-9.17c.15-.14.29-.3.43-.45ZM121.48,64.9a30.33,30.33,0,0,1,1,3.25l-4.8-8.8A21.62,21.62,0,0,1,121.48,64.9Zm4.22,8.19L130.54,83q-2.43-4.44-4.85-8.9C125.7,73.74,125.71,73.42,125.7,73.09ZM78.22,71.48c-1.77-4.78-2.78-11.42.06-16,4.38-7.1,13.58-5.87,20.31-4.75a42.25,42.25,0,0,1,13.23,4.19A1.7,1.7,0,0,0,112,56.3l10.82,19.86c-.09.44-.21.87-.34,1.29Q117.22,68.3,112,59.16c-1.14-2-4.21-.19-3.07,1.8l11.6,20.27c-.16.21-.33.42-.5.62q-5.28-8.17-10.57-16.33c-1.24-1.92-4.32-.14-3.07,1.79q5.47,8.46,11,16.93a17.3,17.3,0,0,1-1.87,1.1L104.61,70.6c-1.34-1.83-4.43-.06-3.07,1.79L112,86.67l-1,.26q-5.37-5.9-10.76-11.78c-1.55-1.7-4,.82-2.51,2.51l9,9.9q-1.1.06-2.22.06l-8.11-8.7c-1.56-1.68-4.07.84-2.51,2.51l5.3,5.69a34.87,34.87,0,0,1-3.83-.91L89.6,80.74a1.83,1.83,0,0,0-3,1.2A22.41,22.41,0,0,1,78.22,71.48ZM101.94,90q8.81,9.43,17.6,18.88L99.09,89.66C100,89.81,101,89.93,101.94,90Z"/><path d="M32.2,121.62l78.25,4.83c1.86.12,2.2-2.22,1-3.17,1-.86,1.08-2.74-.56-3-18-3.2-36.08-6.52-54.11-9.78-2.24-.41-3.2,3-1,3.43,15.75,2.84,31.48,5.73,47.23,8.54L32.2,118.07C29.92,117.93,29.92,121.48,32.2,121.62Z"/><path d="M19.75,133.22h86.63a1.79,1.79,0,0,0,1.42-2.82l.33,0c2.24.34,3.21-3.09,1-3.43-13.57-2-27.86-1.65-41.57-2.35-2.28-.11-2.28,3.44,0,3.56,11.23.57,22.9.34,34.19,1.44H19.75A1.78,1.78,0,0,0,19.75,133.22Z"/><path d="M69.8,146l36.58-1.95c2.17-.11,2.28-3.33.31-3.54a2,2,0,0,0-1.58-2.64l-.42,0c1.58-.63,1.36-3.43-.67-3.43H26.61a1.78,1.78,0,0,0,0,3.56H45.13c-1.73.52-1.56,3.48.54,3.47,17.46-.08,36-1.84,53.54-.55L69.8,142.45C67.52,142.58,67.51,146.13,69.8,146Z"/><path d="M31.32,195.31,73.49,172.7c2-1.09.23-4.16-1.79-3.07L29.53,192.24C27.51,193.32,29.3,196.39,31.32,195.31Z"/><path d="M15.91,182.28l47.63-9.4c1.79-.36,1.54-2.62.23-3.28l17.93-1.06-52.17,29c-2,1.11-.21,4.19,1.79,3.07l53-29.47a1.7,1.7,0,0,0,.26-2.79l17.76-1-5.38,2.86a1.85,1.85,0,0,0-2.62-2.1l-64.78,34c-2,1.07-.23,4.14,1.79,3.07l5-2.65a1.82,1.82,0,0,0,2.32,2.65L80.25,183.1,42.48,206.21c-1.95,1.19-.16,4.27,1.8,3.07l49.41-30.23a1.82,1.82,0,0,0,0-3.08L106,169.39a1.59,1.59,0,0,0,.62-2.33c2-.38,2-3.65-.25-3.52l-43.31,2.54a1.84,1.84,0,0,0-.79,3.43L15,178.85C12.72,179.29,13.67,182.72,15.91,182.28Z"/><path d="M51,175.8l-25.92,9.14c-2.14.76-1.22,4.2.95,3.43L52,179.23C54.13,178.47,53.2,175,51,175.8Z"/><path d="M9.85,218.92H39.26l-11.38.51c-2.28.1-2.29,3.66,0,3.55l28.46-1.27a1.65,1.65,0,0,0,1.39-.78,1.69,1.69,0,0,0,2.66.26l46-47.5c1.59-1.65-.92-4.16-2.52-2.52q-23,23.76-46,47.51a1.58,1.58,0,0,0-.12.15,1.54,1.54,0,0,0-1.41-.67l-7.49.33a1.92,1.92,0,0,0,.39-2.16,1.83,1.83,0,0,0,2-.22L89.6,185.63c1.79-1.42-.74-3.93-2.51-2.52l-37.69,30a1.66,1.66,0,0,0-1.7-1.52H11.63a1.78,1.78,0,0,0,0,3.56H47.7a1.63,1.63,0,0,0,.45-.06,1.54,1.54,0,0,0,.17.42,2,2,0,0,0-.62-.11H9.85A1.78,1.78,0,0,0,9.85,218.92Z"/><path d="M15.44,209.52l23.11,1c2.29.1,2.29-3.46,0-3.56l-23.11-1C13.15,205.86,13.15,209.42,15.44,209.52Z"/><path d="M118.43,202.42,67.91,243.83c-1.77,1.45.76,3.95,2.51,2.51l50.52-41.4C122.72,203.48,120.19,201,118.43,202.42Z"/><path d="M81.88,246.62l45.21-27.94c1.95-1.2.16-4.28-1.79-3.07L80.08,243.55C78.14,244.75,79.92,247.83,81.88,246.62Z"/><path d="M125.3,206.72q-19.6,14.22-39.2,28.45c-1.84,1.33-.06,4.42,1.79,3.07l39.2-28.45C128.93,208.45,127.16,205.37,125.3,206.72Z"/><path d="M120.75,243.83l-101,80.53c-1.79,1.43.74,3.93,2.51,2.51l101-80.53C125.05,244.92,122.52,242.41,120.75,243.83Z"/><path d="M118.43,239,55.65,288.79c-1.79,1.43.74,3.93,2.51,2.52l62.78-49.79C122.74,240.1,120.2,237.59,118.43,239Z"/><path d="M35.39,286.89,98,248.24,25.72,297.66c-1.88,1.28-.11,4.37,1.79,3.07l99.58-68.08a1.81,1.81,0,0,0,.59-.65c-.9,4.69-1.89,9.26-2.7,13.51-1.12,6-1.66,11.46.58,17.28,4.46,11.64,11.34,22.31,15.72,34.11a42.35,42.35,0,0,1,2.5,22.24c-.6,3.93-1.58,6.92.12,10.76,2.78,6.29,9.54,10,17.4,11.87A1.78,1.78,0,0,0,160,343.4q-3.16,49.28-6.35,98.57c-.14,2.28,3.41,2.27,3.56,0l4.95-76.81L160,438.41c-.06,2.29,3.49,2.29,3.56,0l2.79-95a1.72,1.72,0,0,0-.12-.74,61.11,61.11,0,0,0,11.45.39q9.22,48.79,18.46,97.61c.43,2.25,3.85,1.3,3.43-1q-2.91-15.34-5.81-30.69l22.2,87c.56,2.22,4,1.28,3.42-1q-12.95-50.8-25.91-101.61a1.73,1.73,0,0,0-2.81-.86q-2-10.85-4.1-21.68c1.45,4,3.15,7.94,4.41,11.66q7.67,22.57,15.46,45.11,11.21,32.54,22.48,65c.75,2.15,4.18,1.22,3.43-.95q-11.28-32.49-22.48-65-5.91-17.17-11.78-34.35c5.93,11.66,10.19,24.9,15.22,36.51q9.21,21.3,18.33,42.64c.9,2.1,4,.29,3.07-1.8q-9.12-21.33-18.33-42.63c-6.28-14.52-11.37-31.61-20-44.92a1.72,1.72,0,0,0-2-.74c-2.25-6.34-5.58-13.29-6.76-20l47.1,98.36c1,2.07,4.06.26,3.07-1.79L185.91,349.87c-.8-1.66-2.94-.82-3.23.64l-1.47-7.78c.56-.06,1.12-.14,1.67-.22a1.62,1.62,0,0,0,0,1.79c20.58,36.29,40.49,73,60.71,109.49,1.11,2,4.18.21,3.07-1.8-20.22-36.5-40.13-73.19-60.71-109.49a1.94,1.94,0,0,0-.38-.46c.44-.08.87-.18,1.29-.28A1.61,1.61,0,0,0,187,343l67.44,113.3c1.17,2,4.25.18,3.08-1.8q-33.74-56.64-67.45-113.3a1.92,1.92,0,0,0-.23-.31,29.58,29.58,0,0,0,2.91-1.09,22.45,22.45,0,0,0,6.44-4.24l59.83,88.73c1.27,1.89,4.35.11,3.07-1.8q-30-44.44-60-88.91a1.76,1.76,0,0,0-.69-.62,26,26,0,0,0,4.05-10.4c2.75-14.38,5.3-28.69,10.45-42.48l.06-.17a1.83,1.83,0,0,0,.72,1l40.9,28.19c1.72,1.19,3.34-1.25,2.21-2.67l91.79,61.36c1.9,1.27,3.69-1.81,1.79-3.07l-92-61.48c-1.72-1.15-3.33,1.24-2.24,2.65l-25-17.21c1.36-.15,2.45-1.84,1.14-2.95l-14-11.81c-1.74-1.47-4.27,1-2.52,2.52l10.67,9-11-7.62a1.46,1.46,0,0,0-1.6-.14,90.84,90.84,0,0,1,4.89-9.29,1.88,1.88,0,0,0,.42.23l42.68,16.51c2.13.83,3.06-2.61.94-3.43l-42.24-16.34,1.12-1.9a1.6,1.6,0,0,0,1.05.82L251,271.42l104.76,68.43c1.92,1.26,3.71-1.82,1.8-3.07q-47.56-31-95.11-62.12l2.65.75L366.17,340l19.26,12.3c1.94,1.24,3.72-1.84,1.8-3.07L276.9,278.76l.19.05a1.74,1.74,0,0,0,2.19-1.88l92.38,51.9,19.62,11c2,1.13,3.79-2,1.79-3.07L256.71,260.16l-9.38-5.27,132,69.67L399.15,335c2,1.06,3.82-2,1.8-3.07L262,258.62l112.5,58.12c2,1,3.83-2,1.79-3.07L266.19,256.78l4.49.07a1.58,1.58,0,0,0,.52,2.47L326,286.89c2,1,3.84-2,1.79-3.07l-6.59-3.32,41.93,13.14,37.2,35.52c1.65,1.58,4.17-.93,2.51-2.52l-32-30.6,22.44,7c2.18.69,3.12-2.75.94-3.43L365,290.49,340.59,267.2c-1.65-1.58-4.17.93-2.51,2.52l19.24,18.37-47.87-15a1.55,1.55,0,0,0-1.82.59l-8.08-4.07,23.56,6.28c2.21.59,3.16-2.84.95-3.43l-15.55-4.14,39.22-2.58a1.76,1.76,0,0,0,.78,2.91l54.88,14.48c2.21.58,3.16-2.85.94-3.43l-53.64-14.16,64.86-4.26c2.27-.15,2.28-3.71,0-3.56l-68.17,4.49a1.67,1.67,0,0,0-1.69-2l-13.57.29,63.07-9.62c2.25-.35,1.29-3.78-.95-3.43l-58.82,9a1.75,1.75,0,0,0-1.67-2.18l-34.17-.51h37a1.78,1.78,0,0,0,0-3.55h-77.1a1.73,1.73,0,0,0-1.64,2.3l-11.18-5.78,5.31-.07a1.8,1.8,0,0,0,1.25,3H358.64a1.78,1.78,0,0,0,0-3.56H289.56l92.33-1.27c2.28,0,2.29-3.59,0-3.55l-10.87.14c7.11-.26,15.28-.77,20.68.55,2.22.55,3.17-2.88.95-3.43-7.43-1.81-16.85-.46-24.39-.53q-27.37-.24-54.74-.32-39.67-.16-79.36-.22a1.57,1.57,0,0,0-1.51.91c-.07-1-.17-2-.28-3a1.87,1.87,0,0,0,.78.18l77.9,1.4c2.29,0,2.29-3.52,0-3.56l-77.9-1.4a1.63,1.63,0,0,0-1.13.39c-.16-1.47-.31-2.95-.39-4.47-.52-10.52,5.75-17.63,13.18-24.14.29-.26.59-.5.88-.75a1.39,1.39,0,0,0,1.6,1l77.56-9.59c2.25-.28,2.27-3.84,0-3.56l-28,3.46c1.8-.59,1.67-3.64-.45-3.46l-10.73.92a1.8,1.8,0,0,0-1.21-3.08h-13.8a1.78,1.78,0,0,0,0,3.56h9.44l-22.3,1.91c2.16-1.34,4.39-2.63,6.71-3.86,3.69-2,7.06-3.85,9.75-7.11a26,26,0,0,0,2.21-3.19,1.83,1.83,0,0,0,1,.31l118.3,3.93c2.29.08,2.29-3.48,0-3.55l-29.72-1,26.16.61c2.29.05,2.29-3.51,0-3.56l-113.11-2.63c.11-.37.21-.75.31-1.12l65.3,2c2.29.07,2.29-3.49,0-3.55l-64.54-2c.06-.36.11-.74.15-1.11l.12,0,128.54,3c2.29.05,2.29-3.51,0-3.56l-128.37-3.05a1.21,1.21,0,0,0,0-.19l88.48,1.46c2.29,0,2.29-3.52,0-3.56l-86.39-1.43,49.49-2.3a1.74,1.74,0,0,0,1.59,2.46l61-1c2.29,0,2.3-3.6,0-3.56l-26.78.44,31.36-1.46c2.28-.1,2.29-3.66,0-3.55l-119,5.54-.12-1.1h.18l122.7-6.22c2.28-.12,2.29-3.67,0-3.56l-16.15.82c8.43-1.06,17.17-1.11,25.55-1.58,2.27-.13,2.29-3.68,0-3.56-10.63.6-21.77.55-32.23,2.61a1.68,1.68,0,0,0-.73,2.91l-99.14,5a1.78,1.78,0,0,0-.67.16c-.06-.36-.13-.71-.19-1.06l55.73-3.55c2.27-.14,2.29-3.7,0-3.55l-55.89,3.55a2.14,2.14,0,0,0-.58.14l-.06-.28,63-7c2.25-.25,2.27-3.81,0-3.56L277.7,145c-.17-.51-.34-1-.52-1.51l7.15-4.74c-.68,1.09-.22,2.84,1.4,2.72l109-8.22c2.27-.17,2.29-3.72,0-3.55l-109,8.21-.18,0L291.4,134a1.54,1.54,0,0,0,1.7,1.56l97.3-6.23c2.27-.14,2.28-3.7,0-3.55L294.55,132l14.06-9.32a1.43,1.43,0,0,0,1.68,1.41l81.88-9.44c2.25-.26,2.28-3.82,0-3.56l-80,9.22,5.62-3.72a1.83,1.83,0,0,0,2.2,2.06c22.78-5.34,45.92-9.41,68.85-14.06,2.24-.46,1.29-3.88-.95-3.43-22.51,4.57-45.23,8.59-67.61,13.78L338,103.17c1.89-1.25.12-4.34-1.8-3.07l-60.36,40c-.43-1-.88-1.9-1.37-2.83a1.49,1.49,0,0,0,2.22.43l55.21-38.61c1.86-1.3.08-4.39-1.8-3.07l-39.39,27.55,38.82-29c1.81-1.36,0-4.45-1.8-3.07l-4.28,3.2,6.44-5c1.8-1.4-.73-3.9-2.52-2.52l-8.19,6.35.44-.57,3.9-3a2,2,0,0,0-.29-3.28c.26-.62.5-1.24.7-1.86l20.18-17.15c1.75-1.48-.78-4-2.51-2.51L325,79.21c0-.41.06-.82.07-1.22l11.45-10.32c1.7-1.54-.82-4-2.52-2.51l-9.23,8.32c-.06-.37-.12-.73-.2-1.09l7.63-7.09c1.68-1.56-.84-4.07-2.52-2.52l-6.23,5.79a27.34,27.34,0,0,0-1.37-3l7.39-4.37a1.78,1.78,0,0,0-1.8-3.07l-7.45,4.41h0a31.54,31.54,0,0,0-12.3-10.19c-5.43-2.56-12.44-3.4-19.34-2.56a1.46,1.46,0,0,0-2.24.15,1.84,1.84,0,0,0-.17.22l-.76.14Q295,38.81,304.6,27.36c1.46-1.74-1-4.27-2.51-2.51L279.38,52c-.3.11-.59.21-.88.33l26.1-32.72c1.42-1.77-1.08-4.3-2.51-2.51l-32,40.06A22.57,22.57,0,0,0,263.88,65L241.25,93.31,261,62.48c1.2-1.88-1.68-3.61-3-1.92l19.23-30.17c1.23-1.94-1.85-3.72-3.08-1.79l-38,59.59,38.35-66.95c1.14-2-1.94-3.78-3.08-1.79Q258.27,42.55,245,65.64l14.54-27.46c1.07-2-2-3.82-3.07-1.79q-12.94,24.42-25.87,48.85,14.56-35.29,29.12-70.6c.87-2.12-2.57-3-3.43-1L234.86,65.75q9.27-23.47,18.55-47c.84-2.13-2.6-3.06-3.43-.95Q239.6,44.11,229.24,70.36,238,45.58,246.8,20.82c.77-2.16-2.67-3.09-3.43-.95L217.28,93.46h-.09q12.52-37.89,25-75.77c.72-2.18-2.72-3.12-3.43-1L213.45,93.46h-.14q11.24-38.52,22.48-77c.65-2.2-2.79-3.14-3.43-1Q221.15,53.9,209.93,92.34,217.1,55,224.28,17.69c.43-2.24-3-3.2-3.43-1q-6.69,34.75-13.36,69.51,6.45-34.92,12.89-69.83c.41-2.24-3-3.2-3.43-1L202.73,92.53a1.71,1.71,0,0,0,.06.91h-.44l13.2-78.8c.38-2.24-3.05-3.2-3.43-1q-6.6,39.42-13.21,78.84a2,2,0,0,0,.08.92h-.71Q205.53,50.75,212.76,8c.38-2.24-3-3.2-3.43-.94q-6.14,36.18-12.26,72.36L209,3.46c.35-2.24-3.08-3.2-3.43-.94q-6.86,43.86-13.72,87.72c-.3,2,2.26,2.94,3.16,1.66,0,.21-.07.42-.11.63a1.79,1.79,0,0,0,.08.93c-8.93,0-17.86.12-26.77.4-22.35.7-43.27,14-53.77,33.77A62.32,62.32,0,0,0,108,146.24a1.54,1.54,0,0,0-1.65-1.24l-31,1a1.82,1.82,0,0,0-1.59,2.54H30.42a1.78,1.78,0,0,0,0,3.56h76a1.67,1.67,0,0,0,1-.29,52.44,52.44,0,0,0,0,8.22,2.06,2.06,0,0,0-.56-.25,28.85,28.85,0,0,0-3.61-.67l1.87.1c2.29.16,2.28-3.4,0-3.56,2.29,0,2.29-3.6,0-3.55l-80.53,1.78c-2.28.05-2.29,3.6,0,3.55l59.52-1.31c-6.31.5-12.6,1.14-18.71,1.47Q46,158.65,26.61,159.73c-2.27.13-2.29,3.68,0,3.56l31.15-1.71q-8.09.45-16.16.94c-2.27.14-2.29,3.7,0,3.56q15.26-.93,30.52-1.73c7-.36,14.09-.72,21.14-1,3.82-.14,8.89-1.12,12.65-.15a1.62,1.62,0,0,0,1.79-.6,44.55,44.55,0,0,0,3.23,11.57,1.64,1.64,0,0,0-1.74.41L55.08,227.32c-1.64,1.6.87,4.11,2.51,2.51l54.11-52.71a1.73,1.73,0,0,0,.37-.52,38.18,38.18,0,0,0,3.77,5.92c5.6,7.16,11.41,11.74,13.7,21.07,1.35,8.56.07,18.17-1.67,27.38a1.65,1.65,0,0,0-2.57-1.39l-7.82,5.34a1.72,1.72,0,0,0-2.6-1.28l-56.22,34.7,68.43-42.42c1.95-1.21.16-4.28-1.79-3.07Q68.65,258,12,293.09c-1.94,1.2-.16,4.28,1.79,3.07l19.44-12.05C31.92,285.45,33.57,288,35.39,286.89Zm151,72.14a2,2,0,0,0-2,.64l-1.47-7.79ZM58.3,161.55l7.09-.39c6.88-.37,14-1.14,21.11-1.66-4.35.46-8.6,1-12.35,1.19Q66.23,161.1,58.3,161.55ZM163.21,342.28a.63.63,0,0,0-.11-.12l.19,0Zm63.55-81.4a1.94,1.94,0,0,0-.46-.06c.93-1.66,1.81-3.32,2.62-5a1.71,1.71,0,0,0,.79,1.74L241,264.9Zm25.66,7.26L231.5,254.47a1.55,1.55,0,0,0-2.08.26c.27-.58.53-1.17.77-1.76a1.85,1.85,0,0,0,.53.51l23.95,15.29ZM275,274.53l-8.5-2.41-14.73-9.41L235.64,252.4Zm5-14.77-5.68-2.86,51.52.77c-14.07,1.25-29.7.05-44.14.05A1.71,1.71,0,0,0,280,259.76Zm22.53,5.4a1.75,1.75,0,0,0-1.57,1.14l-4.06-1.08a1.78,1.78,0,0,0-2.2,1.94l-4.4-2.22,22.91-.49Zm-14.74-3.72a1.69,1.69,0,0,0-1.67,1.4L283,261.29q3.38,0,6.78.11Zm-23.61-7.72a2,2,0,0,0-.37,1.82l-3.51-1.82Zm-20.58-4.83-2.41-1.27a1.83,1.83,0,0,0-2.49,2.4l-1.58-.88A1.79,1.79,0,0,0,235,252l-2.43-1.55a1.59,1.59,0,0,0-1.32-.23,30.87,30.87,0,0,0,1.05-3.91c.08-.38.14-.75.2-1.12a1.64,1.64,0,0,0,1.71,1.71l9.68-.13A1.72,1.72,0,0,0,243.57,248.89ZM234.16,241q38.67.06,77.33.22,25.9.1,51.81.29l-129.14,1.78a1.66,1.66,0,0,0-1.64,1.26,27.4,27.4,0,0,0,.21-4.31A1.62,1.62,0,0,0,234.16,241ZM254.91,198l40.47-3.47-46.26,5.72q2.08-1.64,4.24-3.13A1.44,1.44,0,0,0,254.91,198Zm19.21-62.28a1.92,1.92,0,0,0,.08,1.21c-.23-.44-.48-.88-.73-1.31A1.41,1.41,0,0,0,274.12,135.68Zm4-38.8-.19.17.18-.18Zm13.12,6.51.3.07-13,11.69Zm16.33-4c-.49.22-1,.43-1.5.62l1.4-1.2A2.27,2.27,0,0,0,307.56,99.35ZM319.4,88.64l-.09.07.09-.09Zm2.93-7.15-19.54,16.6,19.82-17.88C322.53,80.63,322.44,81.06,322.33,81.49ZM323,75.1l-29,26.12-.4,0L322.89,74Q323,74.53,323,75.1ZM322,70,306.52,84.32l5-4.84c1.65-1.59-.87-4.1-2.52-2.51l-7.43,7.16A1.94,1.94,0,0,0,300,82.32l1-.89c1.72-1.51-.81-4-2.52-2.51L280.1,95.13l-.17-.12q8.37-8.42,16.71-16.84a1.78,1.78,0,0,0-2.51-2.51q-8.49,8.57-17,17.11c-.47-.41-.93-.83-1.39-1.27l17.52-18.75c1.56-1.67-.95-4.19-2.52-2.51L273.27,89l-.08-.09L290,69.53c1.5-1.72-1-4.24-2.52-2.51l-16.58,19-.15-.21L288.85,65.3c1.51-1.71-1-4.24-2.51-2.52l-13,14.78,12.37-14.72c1.46-1.74-1-4.27-2.52-2.51q-6.63,7.9-13.28,15.8l18.93-23.7a2,2,0,0,0,.17-.27C302.86,51.34,317.93,58.3,322,70ZM271.53,90.81c-.16.16-.31.33-.46.49l.44-.51Zm12.48-38Q275,64.13,266,75.43c-.12-.53-.2-1.07-.28-1.6L283.1,53Zm-7.61,2.69-9.92,11.85L275.55,56C275.83,55.82,276.11,55.66,276.4,55.51ZM235.61,95.76c.25-.38.5-.77.74-1.16a1.84,1.84,0,0,0,2.58,1.83c-.53,1.66,1.57,3.48,2.84,1.89l.56-.69c.42,1.13,1.85,1.86,2.83.69l18.43-22c.13.52.26,1,.42,1.55l-18,22.51c-1.41,1.77,1.09,4.31,2.52,2.52q1.5-1.91,3-3.79a2,2,0,0,0,1.54,1.48l-3.69,4.2c-1.51,1.71,1,4.23,2.51,2.51l17.15-19.51.16.21-15.59,17.89a1.89,1.89,0,0,0,1,3c-1.11,1.66,1.22,3.86,2.71,2.27L274,93.38c.44.42.89.83,1.34,1.23-5.54,5.69-10.95,12-17.11,17-1.78,1.43.75,3.94,2.52,2.51.68-.54,1.35-1.12,2-1.69a1.84,1.84,0,0,0,2.73.34l13.2-11.61L263,115.62c-1.69,1.56.83,4.07,2.51,2.52l18.81-17.37h0l-16.93,16.29a1.74,1.74,0,0,0,.78,2.92l-.78.73c-1.47,1.36.26,3.44,1.84,2.92a1.65,1.65,0,0,0,.58,2.5l-.39.33c-1.74,1.49.78,4,2.52,2.52l29.66-25.21a27.63,27.63,0,0,0,7-2.09l-36.82,28.51c-1.24,1-.42,2.45.79,2.83a1.76,1.76,0,0,0-.16.74A101.76,101.76,0,0,0,260,118.05c-8.09-8.71-16.87-17.85-28.19-22.2a.71.71,0,0,0,.07-.09l.39-.68A1.84,1.84,0,0,0,235.61,95.76ZM206.25,93a1.51,1.51,0,0,0,.09.48h-.18Zm-99.87,55.58a1.68,1.68,0,0,0,1.42-.79c-.06.43-.13.86-.18,1.3A1.64,1.64,0,0,0,106.38,148.55ZM132,203.22a1.08,1.08,0,0,0,0-.3.88.88,0,0,0-.08-.3c-2.75-10.68-10.41-15.59-16.12-24.54-7.75-12.14-7.28-28-2.69-41.21,7.36-21.13,28-38.32,50.62-40.28,11.22-1,22.71-.43,33.95-.52,3.9,0,7.87-.19,11.86-.27a1.85,1.85,0,0,0,3,0h.71a1.9,1.9,0,0,0,3.05,0h.79A2,2,0,0,0,220,96h0a2,2,0,0,0,2.47.22c.3,0,.61.06.91.09l.58.09a2,2,0,0,0,.8.12C234,98.09,242.32,104,249,110.31c9.6,9,19.88,19.45,25.06,31.84a2,2,0,0,0,.59,1.49c.23.6.46,1.2.66,1.81s.31.94.45,1.42a1.82,1.82,0,0,0,.34,1.17A57,57,0,0,1,278,158.46a1.92,1.92,0,0,0,.14,2.33c0,.24,0,.48,0,.72a1.94,1.94,0,0,0,0,2.56,40.62,40.62,0,0,1-.54,5.32h-.18c-2.05-.06-2.25,2.79-.62,3.43-.17.57-.35,1.14-.55,1.69a1.82,1.82,0,0,0-.54,1.37,22.07,22.07,0,0,1-7.1,9.19c-8.75,6.55-18.48,10.5-26.83,18-7.38,6.64-13.43,14.42-12.7,24.86.85,12.22,1.24,20.28-5.43,30.83-6.95,11-11.48,23.14-14.83,35.66-2.8,10.47-3.51,21.72-6.71,32-5.93,19.05-58.76,19.63-56.48-3.7,1.2-12.29.72-20.27-4.1-32-4.1-10-10.42-19.51-13.91-29.64-2.85-8.27.37-17.05,1.61-25.32C130.8,225.42,133.6,213.75,132,203.22Z"/><path d="M47.75,259.71,15.81,273.27c-2.1.89-.29,4,1.79,3.07L78,250.69c2.1-.9.29-4-1.79-3.07L51.66,258.05A1.61,1.61,0,0,0,50,256l-38.35,2.48c-2.28.14-2.29,3.7,0,3.55Z"/><path d="M60.4,250.17l-4.92.29.08-.05,65.38-53c1.78-1.44-.75-3.94-2.51-2.51l-65.38,53a1.58,1.58,0,0,0,.41,2.7l-7.79.47L117,190.46c1.75-1.49-.78-4-2.52-2.52l-72.4,61.48a1.44,1.44,0,0,0-.4,1.87L9.85,253.22c-2.28.13-2.29,3.69,0,3.55l50.55-3C62.67,253.59,62.69,250,60.4,250.17Z"/><path d="M9.85,250.93l31.75-1.78c2.28-.13,2.29-3.68,0-3.56L9.85,247.37C7.57,247.5,7.56,251.06,9.85,250.93Z"/><path d="M44.58,244.36a1.76,1.76,0,0,0,2.34-.05l62.94-56.4c1.71-1.53-.81-4-2.51-2.51L44.52,241.69a1.65,1.65,0,0,0-1.14-.41H1.72a1.78,1.78,0,0,0,0,3.55H43.38A1.66,1.66,0,0,0,44.58,244.36Z"/><path d="M1.72,239.75l25.6-3.42c-1.68.66-1.51,3.57.56,3.42l17.79-1.27c2.27-.16,2.28-3.72,0-3.56l-16.84,1.21L53,232.89c2.24-.3,2.27-3.86,0-3.55L1.72,236.19C-.52,236.49-.55,240.05,1.72,239.75Z"/><path d="M120.75,250.69l-70.5,65c-1.68,1.56.84,4.07,2.52,2.52l70.49-65C125,251.65,122.43,249.14,120.75,250.69Z"/><path d="M80.86,282.19,44.41,313.94c-1.73,1.51.79,4,2.51,2.52L83.38,284.7C85.11,283.2,82.58,280.69,80.86,282.19Z"/><path d="M124.94,270.5l-38.62,33,36.94-35.31c1.66-1.58-.86-4.1-2.51-2.51L70.26,313.94c-1.66,1.59.86,4.1,2.51,2.52l8.8-8.41a1.88,1.88,0,0,0,3.08,1.55L127.45,273C129.2,271.53,126.67,269,124.94,270.5Z"/><path d="M66.23,313.66l57-54.61c1.66-1.59-.86-4.1-2.51-2.52l-57,54.62C62.06,312.73,64.58,315.25,66.23,313.66Z"/><path d="M124.66,283.56,52.77,393.05c-1.26,1.92,1.82,3.71,3.07,1.8l71.89-109.49C129,283.44,125.91,281.66,124.66,283.56Z"/><path d="M58.44,381.13,125.7,280.28c1.27-1.91-1.81-3.69-3.07-1.8L55.37,379.34C54.1,381.25,57.18,383,58.44,381.13Z"/><path d="M107.07,292.46Q83.6,328,60.14,363.59c-1.27,1.91,1.81,3.7,3.07,1.79l46.93-71.13C111.4,292.33,108.33,290.55,107.07,292.46Z"/><path d="M98,298.3,54.8,359.78c-1.32,1.87,1.76,3.65,3.07,1.79l43.19-61.48C102.38,298.22,99.29,296.44,98,298.3Z"/><path d="M47.2,366.65,84.93,316.1c1.37-1.84-1.72-3.61-3.07-1.8L44.13,364.86C42.76,366.69,45.85,368.47,47.2,366.65Z"/><path d="M70.62,322.81l-21.53,14c-1.92,1.24-.14,4.32,1.79,3.07l21.53-14C74.33,324.64,72.54,321.56,70.62,322.81Z"/><path d="M64.08,332,44.77,345.67c-1.85,1.32-.08,4.4,1.79,3.07L65.87,335C67.72,333.71,66,330.63,64.08,332Z"/><path d="M138.07,299.67c.38-2.24-3-3.2-3.43-.95q-12.94,76.84-25.91,153.7a1.8,1.8,0,0,0,.58,1.68,1.84,1.84,0,0,0-.4.43c-1,1.47-1.91,2.93-2.86,4.39a1.88,1.88,0,0,0-2.47.52L82.83,488.23c-1.21,1.68,1.18,3.29,2.64,2.23-.62,1-1.25,1.9-1.87,2.86-1.25,1.92,1.83,3.7,3.07,1.79L112,456.33a1.52,1.52,0,0,0-.26-2.08,1.57,1.57,0,0,0,.44-.89Q125.12,376.52,138.07,299.67Z"/><path d="M106.83,437.36l9.9-55.42q-4,24.44-8,48.88c-.36,2.24,3.06,3.21,3.43.95q10.8-66,21.59-132c.37-2.24-3.06-3.21-3.43-.95q-5.79,35.43-11.59,70.86a2,2,0,0,0-2.5-1.28l8.89-39a1.84,1.84,0,0,0-2-2.21l4.77-15.83c.66-2.19-2.77-3.13-3.43-.94q-16.7,55.38-33.4,110.76c-.67,2.2,2.76,3.13,3.43.95q3-10,6-20.1l-9.48,35.92c-.59,2.21,2.84,3.16,3.43.94l13.8-52.25a1.81,1.81,0,0,0-2.48-2.07l12.57-41.67q-10.29,45.24-20.59,90.47c-.51,2.23,2.92,3.18,3.43.95q5.9-25.92,11.8-51.85-4.83,27-9.64,54C103,438.65,106.42,439.61,106.83,437.36Z"/><path d="M95.2,404q13.11-42.74,26.2-85.48a1.77,1.77,0,0,0-2.62-2l11.75-19.45c1.18-2-1.89-3.76-3.07-1.8L91.25,355.2c-1.18,2,1.89,3.76,3.08,1.8l11.55-19.14L92,363.59c-1.09,2,2,3.81,3.07,1.79l9.81-18.11Q99.94,359.33,95,371.38c-.86,2.12,2.58,3,3.43.94l11-27.19q-8.87,29-17.74,57.88C91.1,405.2,94.53,406.14,95.2,404Zm22.58-85.79q-1.07,3.48-2.14,7a2,2,0,0,0-1.6-.77Zm-8.38,20.67,4.71-8.7-2.93,9.54A1.84,1.84,0,0,0,109.4,338.83Z"/><path d="M124.66,290.17c-16.09,28.11-32.55,56-49.06,83.83a1.69,1.69,0,0,0-.25.82L63.72,384.9c-1.74,1.51.79,4,2.51,2.52L88,368.54c1.74-1.51-.79-4-2.51-2.52l-2.14,1.86c14.94-25.23,29.81-50.47,44.37-75.92C128.87,290,125.8,288.18,124.66,290.17Z"/><path d="M335.27,105.37c-2.29-.1-2.28,3.45,0,3.55,6.7.29,14.34-2.11,20.92-3.18q10.86-1.76,21.72-3.57c2.26-.38,1.3-3.8-.94-3.43q-10,1.67-20.07,3.3C350.11,103.15,342.18,105.66,335.27,105.37Z"/><path d="M352.07,120.25,302.49,127c-2.26.31-1.29,3.74.95,3.43L353,123.68C355.27,123.37,354.31,119.94,352.07,120.25Z"/><path d="M351.23,137.77c-2.29-.09-2.28,3.47,0,3.56,18.09.68,36.31,0,54.41,0,2.29,0,2.29-3.57,0-3.56C387.54,137.81,369.32,138.46,351.23,137.77Z"/><path d="M329.68,182.59l-52.25-1.9c-2-.08-2.25,2.63-.76,3.37l-.93-.07c-2.28-.17-2.27,3.39,0,3.56L322.57,191c2.28.16,2.27-3.39,0-3.56l-41.6-3,48.71,1.78C332,186.23,332,182.68,329.68,182.59Z"/><path d="M407.92,201.9l-71.34-4.57c-2.28-.15-2.27,3.41,0,3.55l71.34,4.58C410.21,205.6,410.2,202.05,407.92,201.9Z"/><path d="M349,194.41a1.78,1.78,0,0,0,0,3.55h15.24a1.78,1.78,0,0,0,0-3.55Z"/><path d="M401.57,229.34l-92.76-12.22,38.91,4.59c2.27.27,2.25-3.29,0-3.55l-73.18-8.64c11.35,0,22.7-.05,34-.06a1.92,1.92,0,0,0,1,3.36l51.08,6.1c2.27.27,2.25-3.29,0-3.56l-49.49-5.9q12.27,0,24.54.06c16.83.13,33.87,3.11,50.61,4.83,2.28.23,2.26-3.33,0-3.56-16.75-1.72-33.77-4.63-50.61-4.83-20.55-.23-41.12,0-61.67,0a1.81,1.81,0,0,0-.73,3.42l-13.38-1.58L298.7,202c-1.82.44-1.67,3.5.45,3.5h52.08a1.78,1.78,0,0,0,0-3.56H299.15l-.22,0,89.91-13.55c2.25-.34,1.29-3.77-.95-3.43l-143.28,21.6c-2.25.34-1.29,3.76.95,3.43l2.38-.36a2,2,0,0,0,1.21,3.21l135.16,17.8-51.58,2.78c-2.28.12-2.29,3.68,0,3.56l51.82-2.8a1.84,1.84,0,0,0,.83-3.4l16.19,2.13C403.84,233.19,403.81,229.63,401.57,229.34ZM258.34,208a1.89,1.89,0,0,0-.22,2.41l-8.41-1.11Z"/><path d="M369.53,224.38l25.66-7.81c2.18-.66,1.25-4.1-.95-3.43L368.58,221C366.4,221.62,367.33,225.05,369.53,224.38Z"/><path d="M341.27,229.27c2.24.31,3.21-3.12,1-3.43L244,212.38c-2.23-.31-3.2,3.12-.94,3.43Z"/><path d="M334.22,229.4c-32.38-6.61-65.14-8.59-98-11.24-2.28-.19-2.26,3.37,0,3.55,19.69,1.59,38.9,2.9,58.05,5.08l-60.08-1c-2.29,0-2.29,3.52,0,3.56l60.21,1c2.12,0,2.27-3,.45-3.49,12.8,1.47,25.57,3.34,38.45,6C335.51,233.28,336.46,229.86,334.22,229.4Z"/><path d="M149.31,457.72q4.45-56.21,8.9-112.42c.18-2.28-3.38-2.27-3.56,0q-4.46,56.2-8.89,112.42C145.58,460,149.13,460,149.31,457.72Z"/><path d="M143.72,465.59l6.61-122.19c.12-2.29-3.43-2.28-3.56,0l-6.6,122.19C140,467.88,143.6,467.87,143.72,465.59Z"/><path d="M120,442.44q10.41-60.33,20.83-120.67c.38-2.24-3-3.2-3.43-.95Q127,381.17,116.61,441.49C116.22,443.73,119.65,444.69,120,442.44Z"/><path d="M125.88,458.19l15.93-108.8L130.26,470.67c-.22,2.28,3.34,2.26,3.56,0L145.76,345.3c.18-1.9-2.29-2.2-3.22-.91.38-2.54.75-5.09,1.12-7.63.33-2.24-3.1-3.21-3.43-.95q-8.89,60.72-17.78,121.43C122.12,459.48,125.55,460.45,125.88,458.19Z"/><path d="M167.35,347.21q1.28,50.81,2.54,101.61c.06,2.29,3.61,2.3,3.56,0q-1.27-50.81-2.54-101.61C170.85,344.92,167.29,344.92,167.35,347.21Z"/><path d="M182.59,463.56,175,347.21c-.15-2.27-3.7-2.29-3.55,0L179,463.56C179.19,465.83,182.74,465.85,182.59,463.56Z"/><path d="M193.45,450.89,178.72,348.77c-.33-2.26-3.75-1.3-3.43.94L190,451.84C190.35,454.09,193.78,453.13,193.45,450.89Z"/><path d="M239,275.56c-2-1.12-3.8,1.95-1.8,3.07l49.67,27.69c2,1.12,3.79-1.95,1.79-3.07Z"/><path d="M344.3,334.75,273,286.55c-1.9-1.29-3.69,1.79-1.8,3.07l71.3,48.2C344.4,339.11,346.18,336,344.3,334.75Z"/><path d="M340.85,368.81c1.93,1.25,3.71-1.83,1.8-3.07l-124.1-80.27c-1.93-1.25-3.71,1.83-1.8,3.07Z"/><path d="M254.75,423.54l-52.59-82.31c-1.22-1.92-4.3-.14-3.07,1.8l52.59,82.3C252.91,427.26,256,425.48,254.75,423.54Z"/><path d="M287.25,413.18c1.24,1.91,4.33.13,3.07-1.79Q256,359,221.73,306.68c-1.25-1.91-4.33-.13-3.08,1.8q22,33.54,44,67.1a1.83,1.83,0,0,0-.06.94l7.83,40.77a1.55,1.55,0,0,0,2.2,1.15,1.83,1.83,0,0,0,.67,2.11c3.8,2.7,6.87,7.27,9.94,10.72,6,6.75,11.93,13.57,17.85,20.39q12.34,14.25,24.59,28.57c1.49,1.74,4-.79,2.51-2.52q-12.92-15.1-25.93-30.12c-8.32-9.58-16.73-22.68-27.16-30.11a1.48,1.48,0,0,0-1.27-.28,1.88,1.88,0,0,0,0-.86l-3.39-17.67a1.49,1.49,0,0,0,.14.24L289.81,425l-11.46-14c-1.45-1.77-4,.76-2.51,2.51Q301.41,444.77,327,476c1.45,1.78,4-.75,2.52-2.51q-11.13-13.59-22.27-27.19a1.53,1.53,0,0,0,.87-2.43l-34.47-46.74a1.92,1.92,0,0,0-3.38.66q-1.44-7.45-2.87-14.92Z"/><path d="M215.48,294.89c7.42,3.86,14.34,9.31,21.31,13.9Q259.89,324,283,339.31q33.09,21.92,66.15,43.86c1.91,1.27,3.69-1.81,1.79-3.07q-33.06-21.94-66.14-43.86Q262,321.18,239.23,306.15c-7.17-4.73-14.31-10.36-21.95-14.33C215.25,290.76,213.45,293.83,215.48,294.89Z"/><path d="M215.12,300.58c6,5.53,13.8,9.77,20.47,14.35l6.57,4.49a1.93,1.93,0,0,0-.77,3.41l97.05,72.66c1.83,1.37,3.6-1.72,1.79-3.07L249,324.08q16.05,11,32.12,21.92,32.85,22.37,65.75,44.66c1.9,1.29,3.68-1.79,1.8-3.07q-32.06-21.72-64.07-43.52-22.32-15.19-44.6-30.45c-7.25-5-15.83-9.55-22.31-15.55C216,296.51,213.44,299,215.12,300.58Z"/><path d="M294.19,402.58c-20.34-29.36-41.71-58.24-61-88.28-1.24-1.92-4.32-.13-3.07,1.8,19.32,30,40.69,58.91,61,88.28C292.41,406.25,295.5,404.47,294.19,402.58Z"/><path d="M300.69,399.41l-50-67.32c-1.35-1.82-4.44,0-3.07,1.79l50,67.32C299,403,302.06,401.25,300.69,399.41Z"/><path d="M336.39,397.52l-74.55-58.3c-1.78-1.39-4.32,1.11-2.52,2.51L333.87,400C335.66,401.43,338.19,398.93,336.39,397.52Z"/><path d="M305,399.68c1.14,2,4.22.19,3.07-1.8-4.59-7.95-12.06-15.08-17.86-22.13q-9.15-11.12-18.32-22.18c-1.47-1.76-4,.77-2.52,2.52q8.63,10.4,17.21,20.82C292.59,384.17,300.31,391.5,305,399.68Z"/><path d="M318,399.05l-30.65-33c-1.56-1.68-4.07.84-2.52,2.52l30.66,33C317,403.24,319.54,400.72,318,399.05Z"/><path d="M327.78,398.77c-5.4-3.28-10.11-8.58-14.76-12.81q-6.12-5.55-12.19-11.17c-1.67-1.56-4.19.95-2.51,2.51q6.48,6,13,11.94c4.62,4.19,9.27,9.34,14.64,12.6C328,403,329.74,400,327.78,398.77Z"/><path d="M212.43,307.46l46.62,73.67c1.22,1.93,4.3.15,3.07-1.79L215.5,305.67C214.28,303.74,211.2,305.52,212.43,307.46Z"/><path d="M269.72,426.84Q238,378.65,206.23,330.43c-1.25-1.9-4.34-.12-3.07,1.8l63.49,96.41C267.9,430.54,271,428.76,269.72,426.84Z"/><path d="M210.27,314.57,260.6,391.8c1.25,1.91,4.33.13,3.07-1.79q-25.16-38.62-50.33-77.23C212.1,310.87,209,312.65,210.27,314.57Z"/><ellipse cx="237.85" cy="364.86" rx="1.77" ry="6834.73" transform="translate(-164.03 196.96) rotate(-34.23)"/><path d="M89,368.82,66.85,389.65c-1.67,1.57.85,4.08,2.51,2.51l22.15-20.83C93.18,369.76,90.66,367.25,89,368.82Z"/><path d="M58.16,413.54,98,380.22c1.75-1.47-.77-4-2.52-2.51L55.65,411C53.89,412.5,56.42,415,58.16,413.54Z"/><path d="M57.23,406,83,387.7c1.85-1.32.07-4.4-1.8-3.07L55.44,403C53.59,404.27,55.36,407.36,57.23,406Z"/><path d="M46.92,428.15l44.87-36c1.79-1.43-.74-3.93-2.51-2.51l-44.87,36C42.62,427.07,45.15,429.57,46.92,428.15Z"/><path d="M60.22,424.68l31.29-25.41c1.77-1.44-.75-3.94-2.52-2.51L57.7,422.16C55.93,423.61,58.46,426.11,60.22,424.68Z"/><path d="M54.06,440.71c-1.75,1.47.78,4,2.52,2.51l35.21-29.68c1.25-1.05.33-2.61-.93-2.9l.29-.21c1.86-1.3.08-4.38-1.8-3.07L37.74,443.48c-1.86,1.3-.09,4.39,1.8,3.07l44.75-31.32Z"/><path d="M87.51,426.48,44.41,462.3c-1.76,1.47.76,4,2.51,2.52L90,429C91.79,427.53,89.26,425,87.51,426.48Z"/><path d="M65.15,456.69l26.64-24.14c1.7-1.54-.82-4.05-2.51-2.51L62.64,454.17C60.94,455.71,63.46,458.22,65.15,456.69Z"/><path d="M64.79,465.09l35.8-23.37c1.91-1.24.13-4.32-1.79-3.07L63,462C61.09,463.27,62.87,466.35,64.79,465.09Z"/><path d="M102.62,442.11,57.7,481.44c-1.72,1.51.8,4,2.52,2.51l44.91-39.33C106.86,443.11,104.33,440.6,102.62,442.11Z"/><path d="M103.85,450.11,69.56,491c-1.46,1.74,1,4.27,2.51,2.51q17.16-20.44,34.3-40.9C107.83,450.88,105.33,448.35,103.85,450.11Z"/><path d="M289.56,444.62l42.84,48.9c1.51,1.73,4-.8,2.52-2.51l-42.85-48.9C290.56,440.38,288.05,442.9,289.56,444.62Z"/><path d="M301.77,406.92l59.45,25.91c2.07.91,3.89-2.16,1.79-3.07l-59.44-25.91C301.49,402.94,299.68,406,301.77,406.92Z"/><path d="M366.31,426,311.1,402.78c-2.11-.89-3,2.55-.94,3.43l55.21,23.24C367.47,430.34,368.39,426.9,366.31,426Z"/><path d="M338.08,401.56c2.8,2.94,8.08,4.66,11.62,6.47q5.74,2.94,11.52,5.79c2,1,3.84-2.05,1.79-3.07q-5.37-2.65-10.69-5.37c-3.44-1.75-9-3.5-11.73-6.33C339,397.39,336.5,399.9,338.08,401.56Z"/><path d="M365.84,392.17l-22.44-.38c-2.29,0-2.29,3.52,0,3.56l22.44.38C368.13,395.77,368.13,392.21,365.84,392.17Z"/><path d="M366.74,417.48,333.29,400c-2-1.06-3.83,2-1.8,3.08l33.45,17.5C367,421.61,368.77,418.54,366.74,417.48Z"/><path d="M366.74,421.89,329.82,403a1.87,1.87,0,0,0-2.65,2.05c-2.17-.84-4.35-1.61-6.54-2.23s-3.15,2.8-.95,3.43c7.93,2.25,15.64,6.29,23.25,9.46a1.41,1.41,0,0,0,2-1l20,10.26C367,426,368.78,422.93,366.74,421.89Z"/><path d="M369.11,479.47l-35.83-26.63,27.94,19.37c1.88,1.3,3.66-1.78,1.79-3.07l-32.95-22.85,34.88,23.06c1.92,1.26,3.7-1.81,1.8-3.07l-23.58-15.59,12.55,7.84c2,1.22,3.74-1.86,1.8-3.07l-57-35.61a1.7,1.7,0,0,0-2.57,1.2l-3.52-4.87L349.11,449c2,1.18,3.75-1.9,1.79-3.08l-9.25-5.55,17.87,10c2,1.12,3.8-1.95,1.8-3.07l-42.76-23.87,42.66,20.08c2,1,3.86-2.09,1.79-3.07L328.3,424.09l32.92,14.33c2.07.9,3.89-2.16,1.79-3.07l-66.39-28.9c-2-.87-3.77,2-2,3a1.61,1.61,0,0,0,.17,2.82L317,422.69a1.86,1.86,0,0,0-2,1.69l-20-12c-1.82-1.09-3.47,1.43-2.19,2.75-1.32-.07-2.66,1.22-1.69,2.56l49.51,68.51q-3.79-3.24-7.6-6.47c-1.73-1.48-4.26,1-2.51,2.51L367,513.34c1.73,1.48,4.26-1,2.52-2.52l-2.34-2c1.49,1,3.86-.58,2.62-2.22l-.51-.66c1.46,1.21,4-.43,2.75-2.13l-6.74-9.1,3.95,3.46c1.71,1.5,4.24-1,2.51-2.52l-25.28-22.18a1.74,1.74,0,0,0-2.06-.23l-5.23-6.87L364.58,487c1.76,1.43,4.3-1.07,2.52-2.51l-31.35-25.41,31.56,23.46C369.15,483.9,370.93,480.82,369.11,479.47Zm-58.59-41-2.1-2.9,3,2.11A1.8,1.8,0,0,0,310.52,438.51Zm6,3.39-1.08-1.41,1.58,1.1A1.55,1.55,0,0,0,316.54,441.9Zm-12.39-15.56a1.84,1.84,0,0,0,.16,2.93l4.21,2.78a2,2,0,0,0-1.22,2l-7.58-10.48Zm37.8,61c1.41.37,3.11-1,2.05-2.5l-17.29-23.93,28.36,36.9a2,2,0,0,0,3.3-.32l8.3,10.9c.05.07.11.12.16.18Zm17.61,2.37a1.49,1.49,0,0,0-.68,2.34l7.6,10.26-14.94-19.64Zm-25.86-25.5c-1.53-2-3.05-4-4.58-6L335,463A1.8,1.8,0,0,0,333.7,464.22Zm-10.21-13.29-1.73-2.25,2.57,1.92A2,2,0,0,0,323.49,450.93Z"/><path d="M247.62,456.33l34,61.81a1.74,1.74,0,0,0,3.09-.14q7.13,13.88,14.23,27.75c.92,1.79,3.4.62,3.28-1.07l39,63.77a1.61,1.61,0,0,0-.34,2.14q2.46,4.08,4.91,8.15c1.18,2,4.26.17,3.07-1.79l-4.82-8a1.59,1.59,0,0,0,.33-2.14q-3.15-5.16-6.31-10.32l8.35,9.76c1.49,1.74,4-.78,2.51-2.51L343.23,597a1.58,1.58,0,0,0,.77-2.41L290.87,515a1.87,1.87,0,0,0-3.35.63q-13.92-27.17-27.86-54.33c-1-2-4.11-.24-3.07,1.79q8.12,15.81,16.21,31.62l-22.11-40.17C249.58,452.53,246.51,454.32,247.62,456.33Zm59,88.68,31.7,47.47a2,2,0,0,0-1.46,2Zm-4-6a1.92,1.92,0,0,0-2.53,1.16q-5.44-10.65-10.91-21.28Z"/><path d="M231.43,496q7.08,18.8,14.14,37.6c.8,2.12,4.24,1.2,3.43-.95q-7.06-18.8-14.14-37.6C234.06,493,230.62,493.89,231.43,496Z"/><path d="M223.05,464q13.45,34.8,26.93,69.61c.81,2.11,4.25,1.19,3.43-.95q-13.47-34.8-26.93-69.6C225.66,461,222.22,461.89,223.05,464Z"/><path d="M262.3,532.69,239,471.34c-.81-2.12-4.25-1.2-3.43,1l23.31,61.35C259.67,535.76,263.11,534.84,262.3,532.69Z"/><path d="M232.32,478.09l22.38,56.65a1.58,1.58,0,0,0-1.74,1.71q.53,10.62,1.06,21.24l-3.15-19.82c-.36-2.26-3.79-1.3-3.43.94L253,574c.36,2.25,3.79,1.29,3.43-1-.51-3.24-1-6.48-1.54-9.72a1.74,1.74,0,0,0,2.88-1.32q-.56-11.24-1.12-22.45c1.11,1.49,3.95.56,3.17-1.4l-24.09-61C234.92,475,231.48,476,232.32,478.09Z"/><path d="M369.47,526.83l-48.06-42.34c-1.71-1.51-4.23,1-2.51,2.51L367,529.34C368.66,530.85,371.19,528.34,369.47,526.83Z"/><path d="M373.19,523.44l-5.05-4.16c1.45,0,2.7-1.8,1.33-2.95l-30-25.32c-1.74-1.47-4.27,1-2.51,2.51l3.41,2.88-.9-.74c-1.75-1.44-4.28,1.06-2.51,2.52q16.84,13.89,33.7,27.77C372.43,527.4,375,524.9,373.19,523.44Z"/><path d="M366.69,551.55l-5-4.31a1.8,1.8,0,0,0,1.64-3l-7-6.92a1.65,1.65,0,0,0-1.47-.49,1.5,1.5,0,0,0-.39-1.88L318,502.26a1.84,1.84,0,0,0-3,1.76,2.09,2.09,0,0,0-.73,1.6c-.55-.65-1.09-1.31-1.63-2,1.44.48,3.26-1,2.16-2.46l-47.4-64,42,53.37a2.42,2.42,0,0,0,.27.28,1.63,1.63,0,0,0-.27,2.64l47.19,42.26c1.7,1.52,4.22-1,2.51-2.52l-6-5.36,7.77,6.52c1.74,1.46,4.27-1,2.51-2.51l-41.69-35a1.92,1.92,0,0,0,1.54-1.22l41,36.69c1.7,1.52,4.22-1,2.51-2.51L323.31,491a1.8,1.8,0,0,0-2.58.16L301.86,468.5,315.47,484c1.51,1.72,4-.8,2.51-2.51L281.53,440c1.39.36,3.07-1,2.05-2.53L209.66,329c-1.28-1.88-4.37-.11-3.07,1.79l72.64,106.59-6.5-7.38c-1.52-1.72-4,.8-2.52,2.51l11.55,13.12a2,2,0,0,0-1.28,2.52L263.4,426.48c-1.15-1.45-3-.07-2.93,1.45l-.81-1.09c-1.35-1.82-4.43,0-3.07,1.8q25.91,35,51.82,69.91c-7-8.58-13.85-17.28-20.49-26.24a2,2,0,0,0-3.23.19c-9.5-14.22-18.87-28.54-28.42-42.69-1.15-1.71-3.76-.42-3.31,1.25l-6.34-10.32a1.82,1.82,0,0,0-3.33,1.1q-23.47-40.3-47-80.61a1.78,1.78,0,0,0-3.07,1.8q30,51.44,59.95,102.88a1.78,1.78,0,0,0,3.07-1.79l-9.8-16.83,47.84,77.84L287.92,496a1.9,1.9,0,0,0-3.36.62q-10.44-19.5-20.89-39c-1.08-2-4.15-.22-3.07,1.8L289.28,513c1.08,2,4.15.22,3.07-1.8l-6.05-11.29,59.88,85.32a1.91,1.91,0,0,0,3.3-.39l2.21,3.1c1.31,1.85,4.4.08,3.07-1.8l-5.47-7.69,1,1.36c1.38,1.79,4.47,0,3.07-1.8l-52.3-68.08a2,2,0,0,0-3.27.25l-.75-1.06c1.38.61,3.29-.88,2.3-2.49L254.3,433.24c15.47,23,30.34,46.6,46.48,69.14a1.91,1.91,0,0,0-1.52,3.1l56.09,68.23c1.46,1.77,4-.76,2.52-2.51l-20.25-24.63c6,6.55,12,13.08,17.73,19.69,1.51,1.73,4-.79,2.52-2.51-16.71-19.19-37-39.31-51.07-59.07q-7-9.75-13.7-19.7c20.07,25.91,41.71,50.16,63.46,74.85,1.51,1.72,4-.81,2.51-2.52-9.58-10.88-19.08-21.6-28.41-32.38l33.52,29.14C365.9,555.56,368.43,553.06,366.69,551.55Zm-47.56-56.78-1.15-1a1.87,1.87,0,0,0-2.66.27L311.89,491a2.13,2.13,0,0,0-.32-.23,2,2,0,0,0,.32-2.69l-29-36.85Zm24.36,76.09a2,2,0,0,0-2.34,1L308.27,525Zm-21.17-55.63a2,2,0,0,0,1-3.09l-.77-1L352,537.47a1.71,1.71,0,0,0,1.52.43,1.61,1.61,0,0,0,.35,1.94l4.56,4.5L325.77,516a1.83,1.83,0,0,0-2.62.21Z"/><path d="M348.91,566c-1.37-1.79-4.46,0-3.07,1.8q4.62,6,9.23,12c1.38,1.79,4.47,0,3.07-1.8Z"/><path d="M350.65,594.59l-55-80.27c-1.28-1.88-4.37-.1-3.07,1.79l55,80.28C348.87,598.26,352,596.49,350.65,594.59Z"/><path d="M119.53,595q-1.36,7.79-2.72,15.58c-.39,2.24,3,3.2,3.43.94q1.37-7.78,2.72-15.58C123.35,593.72,119.92,592.76,119.53,595Z"/><path d="M300.33,550.32l45.51,75.87c1.18,2,4.26.18,3.07-1.79L303.4,548.53C302.22,546.57,299.15,548.35,300.33,550.32Z"/><path d="M349.25,637.27q-8-15.24-15.94-30.48c-1.06-2-4.13-.24-3.07,1.79l2.44,4.66A1.94,1.94,0,0,0,330,614.8a6.82,6.82,0,0,0,.86,3.25,1.58,1.58,0,0,0-.81,2l11.12,35.57c.68,2.17,4.12,1.24,3.43-1q-3-9.66-6-19.32c1.69,3.74,3.37,7.48,5.08,11.21,1,2.07,4,.27,3.07-1.8q-3.22-7-6.38-14c-1.51-3.36-3-6.72-4.46-10.11-.52-1.22-2.26-4.57-2.31-5.65l12.62,24.15C347.24,641.09,350.31,639.3,349.25,637.27Z"/><path d="M344.18,666.82,328.67,625a1.81,1.81,0,0,0,1.78-2.65l-39.58-70.46a1.6,1.6,0,0,0-1.91-.79q-1.79-4.82-3.55-9.64l41.15,72.86c1.12,2,4.2.2,3.07-1.8l-42.42-75.1a1.78,1.78,0,0,0-3.18.3q-2.91-7.95-5.84-15.89c-.78-2.13-4.22-1.21-3.43.95l7.46,20.28a1.9,1.9,0,0,0-1.8,1l-10.29-35.25,5.43,9.61a1.59,1.59,0,0,0,2,.76,1.91,1.91,0,0,0,.22.6l48.77,85.31c1.13,2,4.21.2,3.07-1.79L280.86,518a1.62,1.62,0,0,0-2-.76,1.83,1.83,0,0,0-.21-.59l-32.3-57.25a1.8,1.8,0,0,0-3.27.55l-2.37-5.46c-.9-2.09-4-.28-3.07,1.8l29,66.89a1.57,1.57,0,0,0,.27.44,1.81,1.81,0,0,0-.45,1.51l.72,5.1c0-.06,0-.13-.07-.2l-27.18-66c-.86-2.08-4.3-1.17-3.43.95l27.18,66c.76,1.83,3.48,1.36,3.57-.2.34,2.43.68,4.85,1,7.28l-1.17-3.53c-.71-2.17-4.14-1.24-3.43.94q8.32,25.32,16.64,50.64c.72,2.16,4.15,1.24,3.43-.95q-5.83-17.79-11.69-35.58a1.91,1.91,0,0,0,1.12-2c-.17-1.16-.33-2.31-.49-3.46l11.69,37.6a1.65,1.65,0,0,0,1.11,1.14,1.69,1.69,0,0,0-.78,1.9q3.11,13.38,6.22,26.76c.52,2.23,3.95,1.29,3.43-.94l-2.85-12.27L306.2,642c.73,2.16,4.17,1.23,3.43-.95q-7.94-23.62-15.88-47.26c1.42,1.94,2.88,3.84,4.14,5.7,1.48,2.17,3,4.33,4.43,6.5a1.74,1.74,0,0,0-2.17,2.14L310.52,642c.67,2.18,4.1,1.25,3.43-.95q-5-16.35-10-32.7l2.44,3.59c1.29,1.87,4.37.1,3.07-1.8L301,597.72c-2.79-4.11-6.58-8.39-8.61-13-.93-2.09-4-.28-3.07,1.79a25.51,25.51,0,0,0,1.26,2.43,1.84,1.84,0,0,0-1.08.5q-.66-2.84-1.31-5.65a1.53,1.53,0,0,0-1-1.17,1.55,1.55,0,0,0,.67-1.88q-7-22.53-14-45a1.77,1.77,0,0,0-2.44-1.09l-1.47-10.43a1.55,1.55,0,0,0-.42-.89,1.85,1.85,0,0,0,.24-1.9q-12.48-28.75-25-57.51L269.09,507a1.78,1.78,0,0,0-2.62,2q5.56,19.1,11.14,38.19a1.82,1.82,0,0,0,3.3.34l8.19,31.67a1.64,1.64,0,0,0,2,1.22,1.48,1.48,0,0,0,0,1.74q10.26,15.55,20.54,31.11a1.89,1.89,0,0,0-2.75,2q2.64,13.38,5.27,26.76c.45,2.24,3.87,1.29,3.43-.95q-2.62-13.38-5.27-26.76h0l6.19,9.39a2,2,0,0,0-2.68,2.07q1.29,9,2.59,18c.33,2.26,3.75,1.3,3.43-.94q-1.31-9-2.59-18a1.62,1.62,0,0,0-.15-.47c1.3.87,3.31-.39,2.76-1.92l1.09,1.73a1.71,1.71,0,0,0,2.11.71,1.68,1.68,0,0,0,.08.9q7.8,21,15.58,42C341.54,669.9,345,669,344.18,666.82Zm-50-86.45a1.74,1.74,0,0,0-1.85-.78,1.67,1.67,0,0,0,.19-1.34l-6.21-24L294,575.13a1.84,1.84,0,0,0,.8,1,1.6,1.6,0,0,0-.62,2.34l26.34,41.84Zm32.08,43.33a1.57,1.57,0,0,0-.22-1.33l-28.79-45.73a1.84,1.84,0,0,0-.52-.55,1.45,1.45,0,0,0,.7-1.9l-3.53-9.6,33.18,59A2,2,0,0,0,326.27,623.7Z"/><path d="M320.66,627.46q2.25,8.13,4.51,16.26c.61,2.2,4.05,1.27,3.43-.94q-2.25-8.13-4.51-16.26A1.78,1.78,0,0,0,320.66,627.46Z"/><path d="M302.23,637.69l-6.42-22.05c-.64-2.2-4.07-1.26-3.43.94l6.42,22.06C299.44,640.83,302.88,639.9,302.23,637.69Z"/><path d="M291.26,617.37q-3.18-13.59-6.35-27.18c-.52-2.23-4-1.29-3.43.95q3.16,13.59,6.35,27.18C288.35,620.54,291.78,619.6,291.26,617.37Z"/><path d="M299,642.78l-6.49-18.63c-.75-2.15-4.19-1.23-3.43.94l6.49,18.63C296.34,645.87,299.78,644.94,299,642.78Z"/><path d="M289,638.17v7.45a1.78,1.78,0,0,0,3.56,0v-7.45a1.7,1.7,0,0,0-2-1.71,1.64,1.64,0,0,0,.63-1.81l-12.45-48.1a1.78,1.78,0,0,0-3.17-.51c-.06-.28-.13-.56-.2-.85-.44-1.89-3-1.49-3.41,0l-1.93-3.77a1.79,1.79,0,0,0,1.26-2.62l-3.65-6.6a1.66,1.66,0,0,0-2.58-.46c-.48-.95-1-1.9-1.46-2.85a1.84,1.84,0,0,0-.46-.58,1.42,1.42,0,0,0,.71-1.48c-.35-3.25-.69-6.51-1-9.76q2.36,6.6,4.7,13.19a1.89,1.89,0,0,0,3.35.37l3.82,11.07c.74,2.15,4.18,1.22,3.43-1l-14.34-41.51c-.74-2.15-4.18-1.23-3.43.94l1.35,3.89c-1.21-1-3.55-.1-2.9,1.72.54,1.52,1.08,3,1.63,4.57a1.49,1.49,0,0,0-1.7,1.69L260.27,566l-.43-1.27c-.73-2.15-4.16-1.23-3.43.95l3.27,9.69c-1-1.69-4-.76-3.27,1.28.21.59.42,1.18.62,1.77-1.28-.86-3.45.06-2.74,1.79l5.28,12.72-4.82-9.52c-1-2-4.1-.24-3.07,1.8q4.17,8.22,8.33,16.46l-6.53-11.91a1.72,1.72,0,0,0-2.92-.12l-7.44-50.36c-.34-2.26-3.76-1.3-3.43.94q3.76,25.46,7.52,50.92c.26,1.75,2.38,1.56,3.16.33,0,0,0,.06,0,.09l10.41,19q-5.17-8-10.36-16c-1.24-1.91-4.32-.13-3.07,1.8q10.46,16.08,20.89,32.17a1.56,1.56,0,0,0-2.06,1.65q1.38,14.47,2.74,29c.22,2.26,3.78,2.28,3.56,0-.09-1-.19-2-.28-3a1.89,1.89,0,0,0,2.81.08,1.85,1.85,0,0,0,3.2-1.13q.27-5.07.53-10.16a1.92,1.92,0,0,0,1.49-.37v1.73a1.78,1.78,0,0,0,3.56,0V640c.18.67.37,1.34.56,2a1.78,1.78,0,0,0,3.42-.95l-4.05-14.56a1.79,1.79,0,0,0-3.49.33,1.8,1.8,0,0,0-2.95,1.33v13.37a2,2,0,0,0-1.22.3l.36-7.92c.1-2.28-3.46-2.28-3.56,0q-.45,9.93-.89,19.85L269.85,631l.09.14c1.24,1.91,4.32.13,3.07-1.8q-1.41-2.17-2.83-4.35a1.78,1.78,0,0,0,1.18-2.59l-2.46-4.49a2,2,0,0,0,2-1.18q1,5.38,2.06,10.76c.42,2.25,3.85,1.3,3.42-.94q-2-10.44-4-20.89,1.89,8,3.76,16.07c.53,2.23,4,1.29,3.43-.94q-3.21-13.72-6.41-27.44a1.76,1.76,0,0,0-3.2-.43l-1.17-6.14c.37.73.74,1.46,1.12,2.18a1.65,1.65,0,0,0,2.79.25q3.79,16.26,7.6,32.52c.53,2.23,3.95,1.29,3.43-.94-.7-3-1.41-6-2.12-9.08q3.09,12,6.19,23.91a1.61,1.61,0,0,0,1.81,1.25A1.64,1.64,0,0,0,289,638.17Zm-5.54.63a1.92,1.92,0,0,0-2.61-.26v-9.12Zm-22.16-70.48-.22.16-.15-.42A2.26,2.26,0,0,0,261.33,568.32Zm3.76,17.82q2.7,14.21,5.41,28.4l-4.37-8.64c1.15.07,2.31-.79,1.76-2.12-.92-2.2-1.83-4.41-2.74-6.61a1.59,1.59,0,0,0,1.51-2.15l-4.47-12.65c1.13,1.28,3.72.34,3.07-1.58l-1-2.85q1.54,3,3.08,6A1.91,1.91,0,0,0,265.09,586.14Z"/><path d="M243.07,538.81q3.47,21.47,6.91,42.93c.36,2.25,3.79,1.29,3.43-1q-3.45-21.46-6.91-42.92C246.14,535.61,242.71,536.57,243.07,538.81Z"/><path d="M268.58,664.59q-1.62-20-3.26-40a1.89,1.89,0,0,0-3.19-1.18l-.15-2.21c-.16-2.27-3.72-2.29-3.56,0q1.68,24.39,3.35,48.78c.15,2.27,3.71,2.29,3.55,0-.25-3.72-.51-7.43-.76-11.15.16,1.91.31,3.82.47,5.73C265.21,666.85,268.77,666.87,268.58,664.59Z"/><path d="M147,588.51,157.13,560c.76-2.16-2.67-3.09-3.43-.94l-10.17,28.55C142.77,589.72,146.2,590.65,147,588.51Z"/><path d="M146.52,650.7v16.6a1.78,1.78,0,0,0,3.56,0V650.7A1.78,1.78,0,0,0,146.52,650.7Z"/><path d="M150.2,655.1q.6,8.64,1.19,17.28c.15,2.27,3.71,2.29,3.56,0q-.6-8.64-1.19-17.28C153.6,652.83,150.05,652.82,150.2,655.1Z"/></g></g></svg>