<svg xmlns="http://www.w3.org/2000/svg" viewBox="0 0 1000 502.16"><title>Asset 16</title><g id="Layer_2" data-name="Layer 2"><g id="Layer_1-2" data-name="Layer 1"><path d="M692.37,94.07,692.3,94C692.24,94,692.28,94,692.37,94.07Z"/><path d="M693.89,94.28c0-.11,0-.07,0,0S693.89,94.32,693.89,94.28Z"/><path d="M693.91,94.06s0,0,0,0h0Z"/><path d="M692.93,105.14c-.07.11-.22.18-.31.27l0,0S692.75,105.4,692.93,105.14Z"/><path d="M1000,463.48a2,2,0,0,0-1.09-2,2.23,2.23,0,0,0-.58-.28l-32.65-14.59c-4.75-2.13-9.67-5-14.66-6.62l4.56-122.18q1.51-40.49,3-81c.46-12.26.36-24.21,2.91-34.75,2.44-10.05,6.3-20.59,6.76-31,.57-12.89,0-25.92,0-38.82a2.48,2.48,0,0,0-1.8-2.37l-38.3-8.24V85.14a2.49,2.49,0,0,0-2.45-2.45h-2.17v-5l17.82-6.81.1,0a2.49,2.49,0,0,0,1.7-2.31V58.46a2.27,2.27,0,0,0-.65-1.66l-.08-.08,0,0a2.25,2.25,0,0,0-1.67-.66H933a1.91,1.91,0,0,0-.82.05h0a.8.8,0,0,1-.15,0l-19.63,7.33-13.11-3.86a2.24,2.24,0,0,0-1.23,0h-.07L819.77,79.18a1.7,1.7,0,0,0-.52.22l-15.8,2.24a1.65,1.65,0,0,0-.75.31l-7.43,2.13a2.5,2.5,0,0,0-1.8,2.36v6.3l-31.78-6.83L437.6,16.19,363,.15a2,2,0,0,0-1.41,0l-36.93,15a2.52,2.52,0,0,0-1.8,2.36l5.2,51.93a1.55,1.55,0,0,0,0,.21,2.32,2.32,0,0,0,2.44,2.28l14.9,2.83V89.45a82.65,82.65,0,0,0-8,3,2.23,2.23,0,0,0-.84.36h0a2,2,0,0,0-1,2.8,2.39,2.39,0,0,0,1,1.43c1.72,1.13,3.94,3.2,6.15,4.4q-.79,5.79-1.58,11.58L114.1,65.34,81.87,58.56a1.93,1.93,0,0,0-1.42,0L47.87,71.91a2.52,2.52,0,0,0-1.8,2.37l4.79,45.78c0,.1,0,.19.06.29a2,2,0,0,0,1.48,2,1.94,1.94,0,0,0,.9.19l13,2.39q0,6.27,0,12.54c-2.18.7-4.37,1.57-6.8,2.62a2,2,0,0,0-.79.33l0,0a2,2,0,0,0-1.05,2.78,2.4,2.4,0,0,0,1.05,1.45c1.5,1,3.39,2.7,5.3,3.77Q46.35,281.76,28.73,415.07q-2.46,18.53-4.9,37.07l-3.72,10.38a.58.58,0,0,1,0,.14v0a1.72,1.72,0,0,0,0,.71q0,3.55,0,7.09l-8.54,5.19c-2.75,1.68-7.41,3.4-9.56,5.83C-1.45,485.3.65,494.83.68,499.71a2.48,2.48,0,0,0,2.45,2.45L45.78,502l6.69,0a2.49,2.49,0,0,0,2.45-2.45q0-4.78,0-9.57c0-2.57.73-6.3-1-8.39s-5.16-3.67-7.3-5.19l-1.75-1.25,58.61-.8-3.88,2.43c-2,1.23-6.26,2.83-7.58,4.83-2.68,4.05-.67,13.05-.65,17.76a2.48,2.48,0,0,0,2.45,2.45l44-.19,7.46,0a2.48,2.48,0,0,0,2.45-2.45l-.83-17.41a2,2,0,0,0-1.22-2.26l-16-7.57c0-3.36,0-6.73,0-10.09v0c0-.09,0-.18,0-.28a3,3,0,0,0-.06-.34h0q-2-6.84-4-13.67Q109.52,314,93.55,180.67q-2.14-17.86-4.28-35.73c2.37,0,4.71,0,6.79-.09a2.49,2.49,0,0,0,2.45-2.45c0-1.85,0-3.69,0-5.54A2.49,2.49,0,0,0,96,134.41c-2.59,0-5.12.1-7.65.21-.62-2-1.23-4-1.85-5.94l211.13,39,34.71,6.41a2.89,2.89,0,0,0,.5,0q-2.88,21.09-5.75,42.18L301.69,402.86l-5.86,43q-2.13,5.86-4.25,11.75a1.8,1.8,0,0,0-.09.91c0,2.75-.05,5.49-.08,8.23l-9.85,5.95c-3.06,1.85-8.52,3.81-10.85,6.55-3.59,4.22-1.29,14.94-1.29,20.34a2.48,2.48,0,0,0,2.45,2.45h55.82a2.48,2.48,0,0,0,2.45-2.45V488.74c0-2.8.85-6.93-1-9.25s-5.85-4.21-8.2-5.9l-2.81-2,68.48-.64-5.41,3.36c-2.17,1.35-7.1,3.16-8.54,5.38-2.93,4.54-.72,14.64-.72,19.91a2.49,2.49,0,0,0,2.45,2.45h58.21a2.47,2.47,0,0,0,2.45-2.45q-.43-9.88-.86-19.77a2,2,0,0,0-1.22-2.25l-18.26-8.72v-11.7a1.23,1.23,0,0,0,0-.19,2.52,2.52,0,0,0-.06-.41v0q-2.22-7.75-4.45-15.51L396.86,324.91l-16.32-142q86.11,15.9,172.23,31.79A21.62,21.62,0,0,0,555,215c2.1,10.6,5.14,22.14,5.55,31.48q.9,20.37,1.82,40.76L568,413.62q.69,15.38,1.37,30.75c-3.37,1.18-6.82,3.43-9.93,4.9l-30,14.21a2.39,2.39,0,0,0-1.21,2.12q0,13.23.11,26.46a2.49,2.49,0,0,0,2.45,2.45l106.6-.46a2.23,2.23,0,0,0,1.84-.86,2.32,2.32,0,0,0,.61-1.59l.4-26.47a2.54,2.54,0,0,0-1.8-2.36l-29.82-12.55c-2.14-.9-4.09-1.75-6-2.51a2.56,2.56,0,0,0,.77-1.76q1.81-55.06,3.64-110.13,1.15-35.25,2.33-70.52c.38-11.47.37-21.91,2.72-31.81,2.11-8.87,5.49-18.07,5.57-27.23.09-11-.1-22.11-.15-33.17a2.47,2.47,0,0,0-1.8-2.36L524.9,151.64q0-5.61,0-11.23A2.51,2.51,0,0,0,522.4,138L506,136.76l-15,.07a2.45,2.45,0,0,0-2.15,1.32c0-3.1,0-6.19,0-9.29a2.5,2.5,0,0,0-3.11-2.36l-14.54,2.36a1.19,1.19,0,0,0-.38.11l-6.72,1.95a2.52,2.52,0,0,0-1.8,2.36l0,5.22-58.13-12.22L374,119.93a2.82,2.82,0,0,0-.7,0l-2.58-22.43c2.79,0,5.56,0,8.05-.06A2.49,2.49,0,0,0,381.21,95V88.68a2.48,2.48,0,0,0-2.45-2.45c-3,0-5.94.08-8.87.2-.76-2.5-1.53-5-2.29-7.5L542.22,112,855,171.28l39.14,7.42a27.5,27.5,0,0,0,3.72.42c2.34,12.22,5.76,25.41,6.2,36.34l1.83,45.48q2.87,71.79,5.75,143.58.72,17.7,1.42,35.38c-3.77,1.3-7.61,3.76-11.1,5.4l-34.36,16.11a2.43,2.43,0,0,0-1.21,2.12v30a2.48,2.48,0,0,0,2.45,2.45H997.55a2.49,2.49,0,0,0,2.45-2.45v-30S1000,463.5,1000,463.48ZM935.08,60.91h3.18v5.2h-3.18ZM50,484.72q0,6.16,0,12.33H48.26a67.73,67.73,0,0,0-.08-9.27v-.21a12.64,12.64,0,0,0-1-4.85ZM142,483.11l.65,13.54h-2.36c.26-4.24.94-9.58,0-13.67,0-.24,0-.49-.09-.73Zm183.22-.45v14.48h-2.63a79.25,79.25,0,0,0,0-10.81v-.27a14.64,14.64,0,0,0-1.57-6.44Zm104.15-1.41.69,15.89h-3.34c.32-5,1.28-11.78,0-16.52,0-.22-.06-.45-.1-.67ZM930.18,62v6.58a2.45,2.45,0,0,0,.38,1.27l-7,2.68v-4a2.46,2.46,0,0,0-.77-1.77,2.55,2.55,0,0,0-1-.6l-1.59-.47Zm-6.92,29.27v29.41l-1.36-.29Q922.58,105.81,923.26,91.25ZM901,65.2l10.07,3a1.86,1.86,0,0,0,1.17.34l6.36,1.88V81.56c-5.71-2.36-11.77-5.37-17.6-6.47Zm-3.77,14.66,1.25-.36.18.06a2.37,2.37,0,0,0,.74.28L913.54,85l-50,16V94.81a2.51,2.51,0,0,0-2.45-2.45L856.16,92c.81-.27,1.61-.53,2.41-.76L864,89.64l32.56-9.56Zm21.21,8.69q-.71,15.39-1.43,30.78l-53.52-11.52v-1.69Zm-59.85,8.52v9.69L845,103.83V96Zm-35.82-1.53c0-.49.07-1,.07-1.36,0-2.69.39-5.77.08-8.5,0-.76,0-1.52,0-2.28,6.84-1.85,13.75-3.43,20.62-5.16l52.43-13.16a44.56,44.56,0,0,0,.09,8.73v1.26a19,19,0,0,0-2.08.48c-8.36,1.41-17,5.14-25.08,7.51l-24.76,7.26h0a27.13,27.13,0,0,1-4,.6H825.63a2.48,2.48,0,0,0-2.45,2.45v5.76l-.42-.09C822.77,97.87,822.79,96.71,822.81,95.54ZM840.1,96v6.75l-12-2.58V95.86C832,96,836.15,96.26,840.1,96Zm-33.69-4.76c0-1.71.05-3.42.08-5.14L818,84.5v6.85c0,2.21-.07,4.43-.11,6.64L811,96.52l-4.62-1.07Zm-8-3,3.14-.9v3.83l0,3.24-1.36-.29-1.73-.37Zm-436-47.67,2.13-35.14L487.33,31.9,742,86.68l53.28,11.45h0L803,99.79l7,1.51,9.63,2.22a2.48,2.48,0,0,0,.93,0l1.42.3,3,.65,16.92,3.64,18.53,4h0l58.28,12.54h0l6.35,1.36,16.32,3.51c6.6,1.42,13.3,3.34,20,4.3.56.08,1.35.4,2.11.61,0,.18-.06.36-.11.57-.89,4.33,0,9.77,0,14.17,0,8,.89,16.57,0,24.53-.63,5.66-3.89,15.92-5.56,22.82a107.91,107.91,0,0,0-3.46,22.83l-8.07,216.27c0,1.15-.08,2.3-.13,3.45-1.69-.1-3.41,0-5.13,0-2.34-46-5.34-92.12-7.76-138.21,0-.25,0-.5,0-.75l-.6-11.82-.12-2.42c-.18-3.56-.34-7.12-.51-10.68-.05-1.16-.11-2.33-.16-3.49-.16-3.31-.3-6.62-.44-9.93-.06-1.4-.13-2.81-.18-4.21-.14-3.18-.26-6.36-.38-9.54l-.18-4.56q-.18-5-.34-9.91l-.15-4.18q-.23-7-.41-14v0c0-1,0-2,0-3s0-2,0-3.05c0-1.93.1-3.85.19-5.78.05-1.11.12-2.22.19-3.33.18-2.84.41-5.68.67-8.53.29-3.19.61-6.37.93-9.56l.54-5.38.06-.58c.28-2.89.54-5.77.76-8.63a1.71,1.71,0,0,0,0-.45,1.82,1.82,0,0,0-.2-.65,2,2,0,0,0-1.56-1.27h0l-.14,0-.13,0L706.47,122.73,391.38,63.28l-20.2-3.81c-1.54-.3-6.44-2-9.2-2.21C363.19,52.94,362.19,43.86,362.38,40.62Zm-35-21.52c-.66.48-1.58.31,0,0Zm.46-.72a2.38,2.38,0,0,0,0-.54A1.27,1.27,0,0,1,327.87,18.38Zm3,29.92q-.79-8.1-1.61-16.18c-.35-3.44.19-9.2-1.24-12.4a1.78,1.78,0,0,1-.13-.7l.23,0c3.88-.57,8.28-3.36,11.91-4.84L359.57,6.2Q358,32,356.44,57.84l-1.63.56c-7.53,1.28-14.8,4.84-22.19,7.65Q331.73,57.17,330.84,48.3ZM80.89,108.09c.67-2.44.32-5.62.46-8.17l2-36,226.86,47.66,30.29,6.36c-.12.85-.23,1.69-.35,2.54a2.43,2.43,0,0,0-2.26-1.52l-3.82.14a2.49,2.49,0,0,0-2.45,2.45c0,3.1,0,6.21,0,9.31h-.2l-2.3-.19L329.15,119a2.42,2.42,0,0,0-2-2.36,3.7,3.7,0,0,0-.48-.09l-4.85-.62h0a1.92,1.92,0,0,0-2.27,1.6,2.52,2.52,0,0,0-.18.85h0l-1.14,31.56h0a2.47,2.47,0,0,0,1.8,2.37l5.11.74a2.68,2.68,0,0,0,2.83-1.23,2.39,2.39,0,0,0,.27-1.13q0-4.87,0-9.74l2.77.37.15,11a2.5,2.5,0,0,0,.5,1.43,2.43,2.43,0,0,0,2,1h1.91l-.18,1.31L90.81,111.13c-3.11-.58-6.67-1.73-10-2.07C80.86,108.73,80.88,108.41,80.89,108.09ZM50.94,75.86c-.46,1.86-2.67.14,0,0Zm0-1.48a5,5,0,0,1,0,.84A7.28,7.28,0,0,0,51,74.38ZM53.76,101C53,94.05,54,83,51.22,76.68a2.55,2.55,0,0,1-.16-.83h0c2.94-.08,7.23-3,9.89-4.06l17.45-7.17q-1.25,22.3-2.51,44.6c-6.67,1-14.13,4.86-20.53,7.43Q54.58,108.82,53.76,101Zm10.33,83.66q2.34-17.76,4.69-35.5a23.26,23.26,0,0,0,3.9-1.5q.91,8,1.84,16c0,.73,0,1.45,0,2.17-.19,4.64-1.24,9.4-1.85,14Q68.33,212.61,64,245.44L41.89,412.86q-2.52,19.14-5,38.27l-7.9-.59Q46.52,317.58,64.09,184.63Zm12.67,1.13c.06-.39.11-.78.17-1.17Q89.86,297.32,102.81,410q2.19,19,4.37,38.07c-.09,3.78-.18,7.55-.26,11.33-21.83.19-43.67.77-65.49,1.18l0-6.86Q59.08,319.75,76.76,185.76ZM27.87,455.36l8.64.65c0,1.55,0,3.1,0,4.65L26,460.7Zm15.45,41.72-37.76.16,0-7.14a27.48,27.48,0,0,0,0-5.05c4.83-1.6,9.77-5.38,14.35-8.57q0,4.13,0,8.25a2.43,2.43,0,0,0,.89,1.86,2.31,2.31,0,0,0,1.56.59l5.35,0a2.3,2.3,0,0,0,1.61-.61,2.11,2.11,0,0,0,.79-1.35,1.6,1.6,0,0,0,.05-.49l0-9.39h1.61c.72,0,3.12.16,4.27,0,.48.66,1.29,1.57,1.6,2,1.37,1.95,2.69,3.95,4.11,5.86,2.18,2.91,1.53,1.47,1.55,5.76C43.29,491.68,43.31,494.38,43.32,497.08Zm-5.75-26.79h0c-2.86-.74-7.26.13-9.85.14a2.48,2.48,0,0,0-1.87.9,2.43,2.43,0,0,0-.58,1.55l0,9.39h-.43q0-8.32.08-16.66L39,465.55c24.47-.44,48.95-1.13,73.43-1.27v1l.07,15.45h-.65c0-3,0-6,0-9a2.47,2.47,0,0,0-2.45-2.45ZM96,484.42c-.19-.93.29-.64,0,0ZM129.07,478l2.41,1.87c.92.72,2.53,2.49,3.71,2.92-.64,2.62.1,6.49.11,9.11,0,1.61,0,3.22,0,4.83l-39.09.17,0-5.56c0-1.65.55-4.56,0-6.12a4.41,4.41,0,0,1-.17-.52,95.9,95.9,0,0,1,10.92-6.87c0,1.81,0,3.62,0,5.43a2.49,2.49,0,0,0,2.45,2.45l9.76,0a2.49,2.49,0,0,0,2.45-2.45c0-2.83,0-5.67,0-8.5A24,24,0,0,1,129.07,478Zm-4.39-7.64-4.92-1.15a2.64,2.64,0,0,0-.55-.06h-.1l-.38,0-.24.05-.09,0a2.67,2.67,0,0,0-.85.45l-.21.16c0-1.86,0-3.72,0-5.58l7.34,0Zm-.85-11-12,.05.21-8.84,9.22,0ZM116.1,410.1q2.12,17.75,4.24,35.49l-8.54,0L80.52,173.25,79.35,163c-.12-5.72-1.22-11.53-2-17.21l.32-.08c1.52.48,4.41,0,6.72-.31Q100.27,277.76,116.1,410.1ZM93.6,139.35V140c-5.48,0-11.33-.33-16.58.7A47.76,47.76,0,0,0,67.46,144l-.61.21a15.27,15.27,0,0,1-1.26-.91c-.2-.17-.42-.32-.63-.47a35,35,0,0,1,4.18-1.75h0c-.35.16,1.25-.12,2-.2l.18,0h0c2.12-.16,4.24-.42,6.35-.64h0C83,139.71,88.24,139.43,93.6,139.35ZM71.15,125.84l9.95,1.83c.74,2.37,1.47,4.74,2.21,7.11L71.19,136C71.18,132.61,71.16,129.23,71.15,125.84Zm17.52-1.73-25.89-4.78,4.55-1.6c2.66-.93,5.42-1.72,8-2.81h0l.31-.11a18.08,18.08,0,0,0,2.84-1L87,115.39h0L143.1,125.7l153.51,28.21,38,7h.05l-1.14,8.38ZM316.5,330.17l25.44-186.59,5.64-41.39a26.11,26.11,0,0,0,5-1.88l2.13,19.31c0,.42,0,.84,0,1.23-.33,5.86-1.61,11.81-2.4,17.62q-5.4,39.72-10.81,79.46Q328.2,315.19,315,412.45l-3.87,28.45c-.18,1.33-.51,2.75-.68,4.13l-1.53-.12h0a51.6,51.6,0,0,0-7.92-.69Zm35.79-156,1.29-9.49,6.2,1.14c.34,3,.67,6.09,1,9.14Zm9,5.74q1.82,16.39,3.62,32.79l20.5,186.15,4.71,42.7-.37,13.16c-24.9.11-49.82.66-74.72,1v-8.11q8.48-62.3,17-124.6,9.8-72,19.6-144Zm-7.09-20.07q1.15-8.56,2.33-17.12c.12-.88.24-1.76.37-2.65l2.28,20.68Zm-54.38,289.2,10.31.82v5.9H297.42Zm17.81,38.55h0v9.5H274.32v-8.43c0-2,0-3.94,0-5.91v0l.11,0c5.81-2.73,11.34-6.56,16.84-10.09v10.07a2.51,2.51,0,0,0,2.45,2.45h6.06a2.27,2.27,0,0,0,1.66-.65.6.6,0,0,0,.08-.08s0,0,.05-.05a2.25,2.25,0,0,0,.66-1.67v-11h2.15c.84,0,3.75.17,5,0,.5.77,1.57,2,1.92,2.5h0c1.53,2.22,3,4.52,4.61,6.66C318.31,484.08,317.67,483.06,317.67,487.64Zm-6.75-20.9c-3.18-.88-8.24.11-11.14.11a2.45,2.45,0,0,0-1.86.89,2.39,2.39,0,0,0-.59,1.56v11h-1.14l.18-19.55h16.25c27.79-.37,55.59-1,83.38-1.07V479h-1.37V468.43a2.49,2.49,0,0,0-2.45-2.45Zm65.76,15.41c0-.19,0-.15,0,0Zm36.07-8.33,4.66,3.64c1,.82,2.93,2.94,4.26,3.36,0,.05,0,.11,0,.16-.78,2.95.06,7.41.06,10.37v5.79H376.88V490.5c0-2.16.41-4.81,0-6.94-.06-.34-.11-.62-.14-.84,3.67-3.12,8.54-5.6,13-8.08v6.78a2.49,2.49,0,0,0,2.45,2.45h11a2.49,2.49,0,0,0,2.45-2.45V471.35A38.94,38.94,0,0,1,412.75,473.82Zm-2.9-6.54-6-1.43a2.42,2.42,0,0,0-1.2,0,2.55,2.55,0,0,0-.79.35,2.11,2.11,0,0,0-1,1.16v-7.75h9Zm-.8-12.55H394.69l.3-10.68h11Q407.51,449.39,409.05,454.73ZM556.81,210.58c-.65-.11-1.33-.31-1.89-.43-11.86-2.56-23.92-4.42-35.85-6.62L407.23,182.89l-27.27-5-1-8.82,178.89,32.88L569.09,204c1.26.23,2.83.69,4.49,1.14l-12.15,4c-.83.27-3.56,1-4.2,1.36Zm8.77,37.74c-.51-11.3-3.36-22.42-5.59-33.51,7.12-.9,14.44-4.33,21.17-6.88-.08,1,0,2.21,0,3.22-1,11.17-2.28,22.45-2.28,33.58,0,7.52.54,15.09,1.09,22.64,1.36,26.85,3.1,53.7,4.57,80.54l1,18.38,4.23,77.26-5.71,0c-3.06,0-6.53-.35-9.77-.15ZM532.44,467.46c-.26.4-.32.26,0,0Zm103.32-.56c2.45,0,.07,1.86-.39,0Zm-.4-1.59a7.56,7.56,0,0,0,0,1.35A4.87,4.87,0,0,1,635.36,465.31ZM626.42,463c2.31,1,6.24,3.6,8.91,3.9a9.36,9.36,0,0,1,0,2.05c-1,6.43-.41,13.57-.34,20.24l-101.68.44c.11-6.69.65-13.67-.12-20.21-.06-.53-.15-1.43-.16-2.24a3.44,3.44,0,0,1,.42-.14c3.27-.83,6.69-3.17,9.73-4.61l25.72-12.18a17.59,17.59,0,0,1,5.86-1.7l10.22,0C598.56,448.41,613.11,457.37,626.42,463ZM520,142.69l0,7.92-11.49-2.42,0-6.35Zm-16.38-1c0,1.83,0,3.66,0,5.49l-10.07-2.11v-3.33ZM484,131.73c0,3.77,0,7.55,0,11.32l-9.67-2,0-7.73Zm-14.55,2.75c0,1.84,0,3.67,0,5.51l-2.2-.46c0-1.47,0-2.94,0-4.41Zm-5.27,9.4h0l7.11,1.49,14.57,3.06h0l4.6,1h0l15,3.14,16.4,3.45L594,171.16c5.48,1.15,11.14,2.88,16.71,3.51a10.1,10.1,0,0,1,1.65.43,7.68,7.68,0,0,1,.29-1.88,6.09,6.09,0,0,0-.1,1.93,3.76,3.76,0,0,0,1.41.2c1.26-.13-.63,1.63-1.34.74,0,.37.05.73.05,1.06,0,10.39.93,21.14.14,31.49-.49,6.41-3.82,16.87-5.61,24.4-2.22,9.36-2.23,18.2-2.55,27.84l-2.12,64.28q-1.95,59.18-3.91,118.35l-4,0c-1.57-28.26-3.43-56.54-5.2-84.83-2.35-37.43-4.52-74.88-5.61-112.3-.15-5.12,0-10.28.4-15.45l.24-3.2c.2-2.49.43-5,.67-7.46.51-5.37,1.06-10.72,1.44-16h0a1.33,1.33,0,0,0,0-.44,1.46,1.46,0,0,0-.07-.3h0a2,2,0,0,0-1.68-1.61h0l-.13,0-.18,0L404.21,168.72,378.54,164h-.18q-1.46-12.72-2.92-25.44-.79-6.83-1.57-13.64ZM379,212q10.71,93.18,21.43,186.35,2.34,20.42,4.69,40.81H394.79l-13.23-120Q373,241.28,364.42,163.46a3.44,3.44,0,0,0-.05-.45q-1.8-16.23-3.58-32.48l-1.32-12c0-6.65-1.37-13.48-2.2-20.07l.67-.16c1.93.56,5.25,0,7.93-.37ZM376.31,91.16v1.38c-6.27,0-13-.44-19,.7A58.69,58.69,0,0,0,346.48,97l-.65.23-.19.05a15.6,15.6,0,0,1-1.53-1.13c-.32-.26-.67-.51-1-.75,5.15-2.1,7.49-2.56,14.85-3.28h0C364.16,91.5,370.14,91.22,376.31,91.16Zm-26-3.22V75.66l11.82,2.24,2.64,8.64ZM899.85,174.8h0a23.44,23.44,0,0,1-3.2-.61l-31.93-6.05L733.88,143.36l-325-61.58L362.63,73l-14.09-2.67h0L340,68.73l4.4-1.53,10.29-3.57a33.1,33.1,0,0,0,4.08-1.42l.23-.08,3.95.75h0L396,69.11,527.66,94l.46.09,324.43,61.22,68.14,12.86-20.75,6.65Zm9.22,42.53c-.52-12.91-3.76-25.65-6.23-38.33l.27-.09c8.23-1,16.42-4.8,24.3-7.7-.12,1.73-.06,3.84,0,5.33-1.07,11-2.35,22.19-2.59,33.21,0,.93-.07,1.85-.08,2.77,0,1.75,0,3.51.1,5.27.25,11.92,1.37,23.91,2,35.79q.72,14.43,1.45,28.88l6,119.62q.93,18.54,1.87,37.07H930c-3.72,0-8.08-.54-12-.23Zm78.4,252.84q-.21,10.45-.4,20.91H871.32V473.72c0-2.9.14-5.83,0-8.72a13,13,0,0,1,1.61-.69c13.77-4.58,27.54-12.63,40.58-19,.9-.44,2.71-1,3-1.22h20.92c.55.05.76,0,.8,0l32,13.65c4.62,2,8.72,4,12.88,5.49,1.48.61,3,1.18,4.45,1.86C987.18,466.6,987.5,468.61,987.47,470.17Zm7.63,20.91H992l.48-25.1h2.65Z"/><path d="M632.22,107l5.77.87a2.49,2.49,0,0,0,3.1-2.37V94.09l3.77.53q.07,6.36.13,12.74a2.49,2.49,0,0,0,2.45,2.45h4.47a2.24,2.24,0,0,0,1.86-.89,2.29,2.29,0,0,0,.59-1.56q.28-17.52.58-35a2.47,2.47,0,0,0-2.45-2.45l-4.33.14a2.49,2.49,0,0,0-2.45,2.45v10.9l-3.47-.3V69.57a2.51,2.51,0,0,0-2.45-2.45l-5.48-.73c-1.35-.17-2.4,1.27-2.45,2.45l-1.44,35.78A2.45,2.45,0,0,0,632.22,107Z"/><path d="M684.14,113.38a8.31,8.31,0,0,0,12.33,3.37l1.78,2.49a2.49,2.49,0,0,0,3.84.49l3.3-2.87a2.19,2.19,0,0,0,.69-1,2.25,2.25,0,0,0,.08-.24v0a2.05,2.05,0,0,0-.38-1.68l-2.55-3.63,2.16-2.33a2.53,2.53,0,0,0,0-3.47l-2.32-3a2.43,2.43,0,0,0-3-.38l-.7.48a12,12,0,0,0-1-1.87c3.77-4.5,2.59-13.46-3.87-14.5C687,84,683.24,92.72,686.41,98.46,682.7,101.81,682.28,109.59,684.14,113.38Zm9.36-21.46c1,0,1.71,1,1.71,2.35s-.76,2.35-1.71,2.35-1.7-1.05-1.7-2.35S692.56,91.92,693.5,91.92Zm-1.7,11.3,3.84,6s-3.46,3.25-5.62,0S691.8,103.22,691.8,103.22Z"/><path d="M732.33,126.89l5,.72a2.48,2.48,0,0,0,3-1.71l.85-4.4c.31,2,.61,3.9.92,5.84a2.45,2.45,0,0,0,2.36,1.8h4a2.34,2.34,0,0,0,.39,0h.17a2,2,0,0,0,1.8-1.75q3.18-16.31,6.35-32.6a2.49,2.49,0,0,0-2.36-3.1l-4.33-.29a2.47,2.47,0,0,0-2.36,1.8c-.28,1.17-.57,2.35-.85,3.53l-.54-5.39a2.51,2.51,0,0,0-2.45-2.45h-4.19a2.49,2.49,0,0,0-2.36,1.8c-.18.71-.35,1.41-.53,2.12-.09-1.05-.19-2.1-.28-3.14a2.52,2.52,0,0,0-1.8-2.37l-4.9-.86c-1.42-.25-3.27.64-3.11,2.36q1.66,17.9,3.32,35.78A2.51,2.51,0,0,0,732.33,126.89Z"/><path d="M612.57,175.15l-.19-.05a1.53,1.53,0,0,0,.26,1C612.61,175.78,612.58,175.47,612.57,175.15Z"/><path d="M403.76,135.58c0,.12,0,.24,0,.36a1.47,1.47,0,0,0,0,.36l2.7,27.75.29,3.07a3.38,3.38,0,0,0,.52,1.48,3.92,3.92,0,0,0,.25.32,1.75,1.75,0,0,0,1,.56l4.47.62a3.59,3.59,0,0,0,.47,0,2.34,2.34,0,0,0,2.54-1.74c.15-.78.3-1.56.44-2.33.2,1.19.39,2.38.58,3.57a2.45,2.45,0,0,0,2.36,1.8h3.57a1.84,1.84,0,0,0,.41,0,2,2,0,0,0,2-1.75q2.74-14.4,5.48-28.78a3.21,3.21,0,0,0,.06-.6,2.46,2.46,0,0,0-2.42-2.5l-3.83-.24a2.41,2.41,0,0,0-2,1,2.38,2.38,0,0,0-.37.77l-.36,1.51c-.1-1-.21-2-.32-3.05,0,0,0-.06,0-.09a4.23,4.23,0,0,0-.18-.7,2.75,2.75,0,0,0-.46-.82.48.48,0,0,0-.09-.11,2.25,2.25,0,0,0-1.71-.73h-3.7a2.51,2.51,0,0,0-2.36,1.8,2.25,2.25,0,0,0-.05.22l0,0c0-.36-.06-.71-.1-1.07a2.5,2.5,0,0,0-1.8-2.36l-4.33-.75h-.12a2.54,2.54,0,0,0-.55,0,4.1,4.1,0,0,0-.49.06,2,2,0,0,0-1.95,2.32Z"/></g></g></svg>