<svg xmlns="http://www.w3.org/2000/svg" viewBox="0 0 1000 652.04"><title>Asset 1</title><g id="Layer_2" data-name="Layer 2"><g id="Layer_1-2" data-name="Layer 1"><path d="M78.7,148c4.4,3.68,15.18,2.24,20.2,1.85,17.26-1.32,14-20.15,13.73-33.69,21-.65,49.48-6.65,56.64-29.45,5.78-18.41-14.51-32-29.69-36.43a3.13,3.13,0,0,0-1-.12c-15.37-.66-32.42-3.69-47.66-2-13.73,1.52-11.75,16-12.21,26.17l-2.73,61C75.81,139.69,75,144.88,78.7,148Zm3.57-17q.7-15.49,1.39-31L85,69.87c.28-6.24-1.31-13.31,5.93-15.62,6.44-2.06,18.31.77,24.93,1l22.38.94C150.53,59.9,168.7,71,163.07,86c-7.62,20.27-35.18,24-53.47,24.18a3.09,3.09,0,0,0-3,3c-.23,7.65.9,16.66-.71,24.08-1,4.54-2.23,5.59-7.72,6.51-2.8.47-10.23,1.14-12.87,0C80.12,141.57,82.06,135.79,82.27,131Z"/><path d="M113.65,100.43c12.21-1.34,25.81-7.37,27.65-20.67a3.44,3.44,0,0,0,.11-.81,3.06,3.06,0,0,0,0-.81c-.6-13.78-15.8-19.45-27.73-20.67a3.07,3.07,0,0,0-3,3V97.39A3.06,3.06,0,0,0,113.65,100.43Zm3-36.46c8.39,1.44,18.63,5.64,18.64,15-.9,8.91-10.39,13.38-18.64,14.94Z"/><path d="M276.2,142.57c5.62-.36,11.38,0,17,0H329.5a2.91,2.91,0,0,0,1.05,0,3,3,0,0,0,.79-.23c8.78-3,14.78-14.27,2.89-18.16-7.78-2.55-18-1-26.63-.68l.3-18.6c8.26-.09,16.53-.13,24.79-.31,6.2-.14,12.49-2,12.89-9.68.38-7.15-4.94-9.7-10.77-10-8.49-.41-17.07-.09-25.59,0l.3-17c9.56-.3,19.57.06,28.9-1.45,8-1.29,15.56-9.15,9.28-17-4.93-6.13-14.83-3.78-21.62-3.78-13.09,0-26.2-.17-39.29,0-7.4.1-11.38,2-12.47,9.93-1.13,8.19-1.43,16.59-2.13,24.83q-1.8,21-3.61,42c-.37,4.36-3.4,16,.82,19.43C271.89,143.91,276.49,142.55,276.2,142.57Zm-.27-34.93q1.44-16.81,2.89-33.63c.47-5.46-.25-13.05,1.57-18.27,2.23-6.4,11.12-3.94,16.87-3.94h32.92c1.81,0,9.27-1.17,10.8,0-.41-.32.74,7-.93,8.21-1.1.78-2.94.34-4.25.49-9.63,1.11-19.57,1-29.27,1.43a3.1,3.1,0,0,0-3,3q-.19,11.48-.4,23a3.08,3.08,0,0,0,3,3h17.2c3.36,0,7.33-.57,10.64,0a7.9,7.9,0,0,0,1.89-.12q-1.77.91.37,7.38c-.68-.07-2.47.24-3.54.24-3.47,0-6.94.08-10.41.13l-17.37.21a3.1,3.1,0,0,0-3,3q-.19,12.36-.4,24.72a3.07,3.07,0,0,0,3,3h18.26c2.17,0,6.25-.87,8.23,0,3.73,1.64,2.61,5.49-1.46,6.89-16.77,0-33.6-.48-50.35,0-5,.14-5.23.91-5.41-3.8C273.47,124.53,275.23,115.77,275.93,107.64Z"/><path d="M163.69,143.61c-2.81,4.78,1.81,6.35,5.73,6.23a5.73,5.73,0,0,0-3.18,2.63,6.3,6.3,0,0,0-.49,5.45,6.14,6.14,0,0,0-1.89,1.55,6.22,6.22,0,0,0,2.37,9.95c4,1.82,10.63,2.35,14.55.36,4.6-2.33,6.93-8.83,3.79-13.26-.13-.18-.62-.62-.79-.87.57-.71,1.67-1.3,2.23-2a8.86,8.86,0,0,0,1.72-6.82,11,11,0,0,0-10.28-9.46C172.76,137.07,166.19,139.38,163.69,143.61Zm17.66,5.88a6,6,0,0,0-.11-3.52A3.37,3.37,0,0,1,181.35,149.49ZM177.51,154c-.55,1.54-.15,2.7.39,4.19.72,2,3.78.82,1.44,5-.45.8-1.71,1.21-3,1.41,2.24-2.4,2.23-6.58-.37-8.65a13,13,0,0,0-1.88-.78A22,22,0,0,0,177.51,154Zm-1.88-5.87a13.82,13.82,0,0,0-2.31.61A5.24,5.24,0,0,1,175.63,148.16Z"/><path d="M366.84,148.64c-.53,4.48-1.33,10.42,1.78,13.05,2.9,2.45,8.64,1.52,11.06-1.26,1.49-1.72,1.29-3.7,1.36-5.82l.42-12c.07-2.22.75-5.31.19-7.5-2.76-10.76-19.14,3.48-16.56,11.55A3.25,3.25,0,0,0,366.84,148.64Zm8.86-12.47a1.87,1.87,0,0,0-.09-.46A2.88,2.88,0,0,1,375.7,136.17Zm0,0a26.43,26.43,0,0,1-.22,3.32l-.48,14a17.74,17.74,0,0,1,0,3.49c.08-.62-1.52.29-2.09.43,0-.1-.05-.25-.12-.5-.94-3.06.3-8,.42-11.25a2.62,2.62,0,0,0-1.08-2.35,2.51,2.51,0,0,0-.91-.59C372.36,140.39,375.85,138.45,375.7,136.18Z"/><path d="M557.09,146.51c-.52,4.48-1.33,10.42,1.78,13.05,2.9,2.45,8.64,1.52,11.06-1.26,1.5-1.72,1.29-3.7,1.36-5.82l.42-12c.08-2.21.75-5.31.19-7.49-2.76-10.77-19.13,3.47-16.55,11.54A3.21,3.21,0,0,0,557.09,146.51ZM566,134a2.61,2.61,0,0,0-.08-.46A3.14,3.14,0,0,1,566,134Zm0,0a24.73,24.73,0,0,1-.21,3.32q-.24,7-.49,14a16.32,16.32,0,0,1,0,3.49c.09-.62-1.51.29-2.09.43a2.33,2.33,0,0,0-.12-.49c-.93-3.07.3-8,.42-11.26a2.63,2.63,0,0,0-1.07-2.35,2.69,2.69,0,0,0-.92-.59C562.61,138.26,566.11,136.33,566,134.05Z"/><path d="M468,138.41c4.27-3.18,7.61-8.63,11.05-12.64a24.85,24.85,0,0,1,2.62-3.06l.14-.11c3-.61,7.21.11,10.05.11,4.14,0,8.54.44,12.66,0,4.38-.46,1.26-1.32,3.25,1.38,3.3,4.48,8.27,12.35,14,14,8.4,2.46,31.92,2.82,28.81-11.45a3,3,0,0,0-.49-1.12q-16.4-35.59-32.79-71.17C513.41,46,505.14,42,493.64,45.48c-8.18,2.49-9.76,9.7-13.53,17l-22.88,44.26c-3.85,7.45-10.44,16.15-12.15,24.57C442.67,143.14,461.39,143.33,468,138.41Zm-16-8.32c1.65-7.34,8.07-15.61,11.5-22.25l18.74-36.25c2.72-5.25,5.31-14.08,9.49-18.37,3.87-4,15.12-3.62,18.49.24,1.91,2.18,3,6.59,4.23,9.17l30.28,65.73c1.2,6.06-11.09,3.84-14.83,3.84-6.61,0-8.41-1.2-12.41-6-2.33-2.79-5.1-8.13-8.62-9.49-3.28-1.26-8.93-.11-12.37-.11-10.07,0-15.78-2.06-22.35,5.59-3.23,3.76-6.86,9.92-11.48,11.74-1.73.68-6.38,1-8.12.45C451.14,133.33,451.14,133.83,452,130.09Z"/><path d="M482.14,114.36h22.49a3.08,3.08,0,0,0,2.63-4.58L496,89.57a3.07,3.07,0,0,0-5.25,0q-5.61,10.11-11.24,20.21a2.83,2.83,0,0,0,0,2.92A2.74,2.74,0,0,0,482.14,114.36Zm11.25-17,6.07,10.92H487.31Z"/><path d="M657.07,126.16c10.4,9,25.59,10.8,38.77,8.25,11.53-2.23,30.83-12.77,34.67-24.93,2.71-8.6-4.71-16-13.17-16-5,0-9,2.49-12.72,5.57-5.35,4.39-5.8,7.34-13.39,7.39-9,.06-11.53-5.67-12.56-13.88-1.27-10.08.18-20.81,6.85-28.77,11.31-13.53,20.4-3.4,32.05,1.65,8.72,3.78,20-1.07,17.67-12.18-2.36-11.4-19.66-17-29.41-18.4-19.09-2.71-34.35,1.63-48.65,14.58a2.79,2.79,0,0,0-.47.51C637.55,70.65,634.05,106.19,657.07,126.16Zm4.4-72.41c15.57-14.09,38.92-19,57.94-8.24,3.17,1.79,18.59,11.32,5.13,15.62-3.38,1.08-8.95-4.07-12-5.94-4.81-3-10-5.43-15.77-4.85-23.31,2.31-32.31,40.24-19.36,56.71a17.42,17.42,0,0,0,24.75,3c1.92-1.48,3.3-3.77,5.17-5.36,3.86-3.29,20.64-9.93,17.16,3.33-1.82,7-14.16,14.3-20.48,17.34-21.43,10.31-44.35,1.72-53.44-19.68C642.82,87.31,648.17,67.75,661.47,53.75Z"/><path d="M729.28,131.76c-2.82,4.77,1.81,6.34,5.73,6.23a5.76,5.76,0,0,0-3.18,2.62,6.31,6.31,0,0,0-.5,5.45,6,6,0,0,0-1.88,1.56c-2.9,3.57-1.68,8.08,2.36,9.95s10.63,2.35,14.56.36c4.6-2.34,6.93-8.84,3.79-13.26-.13-.18-.62-.62-.79-.87.57-.71,1.66-1.3,2.23-2a8.83,8.83,0,0,0,1.71-6.81A11,11,0,0,0,743,125.5C738.34,125.22,731.77,127.52,729.28,131.76Zm17.66,5.88a6.08,6.08,0,0,0-.11-3.53A3.41,3.41,0,0,1,746.94,137.64Zm-3.85,4.54c-.55,1.53-.15,2.7.39,4.18.73,2,3.78.83,1.45,5-.45.8-1.71,1.21-3,1.4,2.25-2.39,2.24-6.58-.37-8.64a11.64,11.64,0,0,0-1.87-.78A23.33,23.33,0,0,0,743.09,142.18Zm-1.88-5.87a14.83,14.83,0,0,0-2.31.6A5.37,5.37,0,0,1,741.21,136.31Z"/><path d="M839.39,121.06c.14,9.06,2.09,12.94,11.58,12.57,19.35-.75,38.82-.2,58.19-.19h.06l.22,0a3.51,3.51,0,0,0,.58-.1c8.08-2.11,13.59-10.87,7.42-18.4-3.27-4-7.51-4.11-12.3-4.26-9.58-.31-19.17-.45-28.76-.65q.3-7.56.59-15.13l21-.56c4.44-.12,11.43,1,15.53-.64,3.88-1.58,6.67-6.23,6.94-10.27.25-3.76-1.73-9.29-5.36-11.14s-11.72-.41-15.74-.41H878.76q.15-6.93.29-13.85l25.74-.58c4.71-.1,9.22.61,13.44-1.65,5.88-3.16,8.53-9.92,4.07-15.45a11.65,11.65,0,0,0-5.91-3.78c-7.88-2.28-19.07-.27-27.32-.38l-27.31-.39c-4.74-.06-12.68-1.87-17.13,0-10,4.28-5.24,20.48-5.24,28.91C839.39,83.48,839.12,102.28,839.39,121.06ZM845.47,107V57.66c0-3.49-1.18-9.37-.11-12.54,1.93-5.7,6.67-3.4,11.85-3.32l31.86.44c6.07.09,12.14.2,18.21.26l4.55.06q7.71-1.85,3.33,8c-3.27,2.67-15.78.95-19.95,1L876.07,52a3.09,3.09,0,0,0-3,3q-.21,9.93-.41,19.86a3.08,3.08,0,0,0,3,3h19c3.15,0,6.32.08,9.47,0,6-.16,8-2.65,7.58,4.76-.35,6.87-.86,5.22-6.51,5.35l-9.57.26L874,88.88a3.1,3.1,0,0,0-3,3L870.19,113a3.09,3.09,0,0,0,3,3l18.23.4,9.12.2q9.46-1.95,7.78,10.74l-35.65,0c-6.1,0-23.23,3.29-27.24-1.59C843.52,123.38,845.47,110.25,845.47,107Z"/><path d="M936,140.58c-.57,5.08-1.59,12.25,2.15,15,3.24,2.39,9.43,1,11.34-2.61,1-1.79.67-4.23.73-6.17q.21-6.62.41-13.22c.07-2.39.88-5.89.12-8.24-3.66-11.26-18.68,5.56-16.5,13.22A3.17,3.17,0,0,0,936,140.58Zm8.89-13.49c0,1.18-.24,3.29-.25,3.58q-.23,7.38-.46,14.78c0,1.1.32,3.57-.1,4.72-.11-.48-.84-.13-2.19,1.06a5.65,5.65,0,0,1,0-1c-1.15-3,.32-9.33.43-12.63a2.67,2.67,0,0,0-1-2.26,2.4,2.4,0,0,0-.82-.63C941.68,132.12,944.42,128.67,944.86,127.09Z"/><path d="M52.43,212.67h48.26c12.84,0,25.74.34,38.57,0,24.23-.64,44.86-14,55.21-35.83a44.28,44.28,0,0,0,9.88-4.1c5.81,19.52,22.69,32.09,43.4,32.71,15,.46,30.16,0,45.21,0,15.69,0,31.39.21,47.08,0,21.81-.28,40.66-10.61,52.36-28.63,7.53,17.06,22.6,28.09,42.06,28.63,15.87.44,31.81,0,47.69,0,15.25,0,30.55.34,45.8,0,21.49-.48,39.41-11.3,50.85-28.67,8.05,15.78,22.87,25.61,41.54,26.17,16.16.47,32.4,0,48.57,0,15.45,0,31,.31,46.4,0,23.54-.48,43.05-12.82,54.62-32.95l1.11-.56c7.1,19.32,23.22,31.67,44.21,32.29,16.16.48,32.4,0,48.57,0,15.45,0,30.95.32,46.4,0,24.36-.5,44.4-13.68,55.8-35.07a3.09,3.09,0,0,0,.37-1.28c11.28-8.91,17.59-23.28,17.67-39.57.11-23.11,0-46.21,0-69.32,0-22.9-6-45.17-30.55-53.27C936.61-2.35,914.63,1,897.25,1c-21,0-42-.54-62.94,0-20.33.52-36.59,12.45-42.8,30.2-4-12.6-12.06-23-27.19-28C747.43-2.35,725.45,1,708.06,1c-21,0-42-.54-62.94,0-20.32.52-36.58,12.45-42.8,30.2-4-12.6-12.06-23-27.18-28C558.24-2.35,536.26,1,518.87,1c-20.95,0-42-.54-62.94,0s-37.74,13.31-43.42,32.12C408.33,21.37,400.32,11.76,386,7c-16.89-5.58-38.87-2.23-56.26-2.23-21,0-42-.53-62.94,0C246.42,5.31,230.16,17.25,224,35c-4-12.59-12.06-23-27.18-28-16.9-5.58-38.88-2.23-56.27-2.23-20.72,0-41.52-.52-62.24,0a2.9,2.9,0,0,0-1.82-.59c-12.61,0-26.23-1.53-38.7.65A45,45,0,0,0,1,45.2C-1.14,71.16.84,98,.84,124c0,25.25-6,59.19,15.37,77.76C26.69,210.9,39.15,212.67,52.43,212.67ZM794.87,56.49v-.73c.27-18.64,3-36.87,23.48-45.57,14.24-6,34-3.11,49.09-3.11h62.21c6.29,0,13-.47,19.12,1.1,17.75,4.53,28.51,20,29.21,37.78.79,20.14,0,40.47,0,60.63,0,7.74.33,15.55,0,23.29-.92,21.65-16.4,38-38.31,38.88-33.88,0-67.76.13-101.63,0-24.87-.1-42.95-15.66-43.17-41.33,0-.46,0-.91,0-1.36a2.35,2.35,0,0,0,0-.26C795,102.7,794.87,79.6,794.87,56.49Zm-3.08,88a40,40,0,0,0,18.12,23.74c17.72,11,44.7,6.64,64.51,6.64h65.25a48.54,48.54,0,0,0,16.2-3.37c-11.32,15.7-28.1,24.09-48.34,24.18-13.76.07-27.53,0-41.29,0h-45c-20.9,0-37.92-8.62-44.92-29.57A45.13,45.13,0,0,0,791.79,144.46Zm-186.11-88v-.73c.28-18.64,3-36.87,23.49-45.57,14.24-6,34-3.11,49.09-3.11h62.2c6.29,0,13-.47,19.12,1.1,17.75,4.53,28.51,20,29.21,37.78,0,0,0,.09,0,.13s0,.06,0,.08c-.58,21.52,0,43.14,0,64.67,0,4.34,0,8.68.14,13,0,2,0,4.06-.14,6.08-.62,14.72-8,27-19.52,33.6a2.67,2.67,0,0,0-3.41,1.33l-.31.56a41.73,41.73,0,0,1-15.07,3.39c-33.87,0-67.75.13-101.63,0-24.87-.1-43-15.66-43.17-41.33v-1.62C605.8,102.7,605.68,79.6,605.68,56.49Zm-3.08,88a40,40,0,0,0,18.12,23.74c17.72,11,44.7,6.64,64.51,6.64h65.25a51.05,51.05,0,0,0,9.9-1.36c-11.31,15.19-27.87,23.29-47.76,23.39-13.76.06-27.53,0-41.29,0h-45c-19.82,0-36.16-7.75-43.76-26.42l0-.07a3,3,0,0,0,.35-1.56A44.41,44.41,0,0,0,602.6,144.46ZM440,10.19c14.24-6,34-3.11,49.09-3.11h62.2c6.29,0,13-.47,19.13,1.1,17.74,4.53,28.5,20,29.21,37.78v.21c-.59,21.52,0,43.14,0,64.67,0,4.34,0,8.68.13,13q0,3-.13,6.08c-.66,15.47-8.75,28.22-21.31,34.57a3.28,3.28,0,0,0-2.66,1.21,41.79,41.79,0,0,1-14.34,3.1c-33.88,0-67.76.13-101.63,0-24.82-.1-42.87-15.59-43.17-41.16.1-22.43,0-44.87,0-67.31,0-.84,0-1.68,0-2.51C416.6,38.44,418.74,19.2,440,10.19ZM414,146.37a39.83,39.83,0,0,0,17.52,21.83c17.71,11,44.7,6.64,64.5,6.64H561.3a49.6,49.6,0,0,0,13-2.22c-10.93,17.08-27.9,26.61-48.82,26.75-13.62.1-27.24,0-40.86,0H440.5c-20.44,0-36.89-8.4-43.95-28.5A45.23,45.23,0,0,0,414,146.37ZM227.31,60.29v-.73c.27-18.64,3-36.87,23.49-45.57,14.24-6,34-3.12,49.08-3.12h62.21c6.29,0,13-.47,19.12,1.1,17.43,4.46,28.11,19.43,29.16,36.83-.48,20.65.05,41.39.05,62,0,4.24,0,8.48.13,12.66,0,3.4,0,6.8-.13,10.18-.91,21.64-16.39,38-38.31,38.87-33.88,0-67.75.14-101.63,0-24.87-.09-43-15.66-43.17-41.33V129.6C227.42,106.5,227.31,83.39,227.31,60.29Zm-3.08,88A40,40,0,0,0,242.35,172c17.72,10.95,44.7,6.63,64.51,6.63h65.25a49.15,49.15,0,0,0,13.24-2.31c-21,28.51-57.74,23.05-90,23.05-30.43,0-76,8.07-85.69-30.21A45.34,45.34,0,0,0,224.23,148.25ZM110.7,10.87h62.2c6.29,0,13-.47,19.12,1.1,17.75,4.54,28.51,20,29.21,37.78a.66.66,0,0,1,0,.14s0,0,0,.08c-.58,21.52,0,43.14,0,64.67,0,4.33,0,8.68.14,13,0,2-.05,4.06-.14,6.09-.91,21.64-16.39,38-38.3,38.87-33.88,0-67.76.14-101.64,0-24.87-.09-42.95-15.66-43.16-41.33-.17-19.39,0-38.78,0-58.17,0-22.75-2-48.26,23.48-59.06C75.85,7.94,95.64,10.87,110.7,10.87ZM6.92,134.33V54c0-19.47,8.86-37.44,29.21-42.64C42.73,9.68,50,9.47,57.26,9.64,42.4,16.89,32.55,31.67,32.05,50c-.59,21.52,0,43.14,0,64.67,0,22-.29,44.13,21.11,57.36,17.72,10.95,44.7,6.63,64.51,6.63h65.26c1.33,0,2.63-.17,3.92-.31-10.14,17.56-27.55,27.78-48.36,28.27-9.89.24-19.81,0-29.69,0H64.19c-8.95,0-19.28,1.15-28.06-1.1C2.19,196.83,6.92,161.12,6.92,134.33Z"/><path d="M1000,495.71c0-22.9-6-45.17-30.55-53.27-16.89-5.57-38.87-2.22-56.26-2.22-21,0-42-.54-62.94,0-20.32.52-36.58,12.45-42.8,30.19-4-12.59-12.06-23-27.18-28-16.9-5.57-38.88-2.22-56.27-2.22-21,0-42-.54-62.94,0-20.32.52-36.58,12.45-42.8,30.19-4-12.59-12.05-23-27.18-28-16.9-5.57-38.87-2.22-56.26-2.22-21,0-42-.54-62.94,0s-37.75,13.31-43.43,32.12c-4.18-11.75-12.19-21.36-26.55-26.1C385,440.66,363,444,345.58,444c-21,0-42-.53-62.94,0-20.32.52-36.58,12.45-42.8,30.2-4-12.6-12.06-23-27.18-28-16.9-5.58-38.88-2.23-56.27-2.23-20.72,0-41.52-.52-62.24,0a2.84,2.84,0,0,0-1.82-.6c-12.61,0-26.23-1.52-38.7.66a45,45,0,0,0-36.76,40.35c-2.11,26-.14,52.82-.14,78.84,0,25.26-6,59.19,15.37,77.76,10.49,9.11,22.94,10.88,36.22,10.88h48.26c12.85,0,25.74.34,38.58,0,24.22-.64,44.85-14,55.2-35.83a43.89,43.89,0,0,0,9.88-4.1c5.82,19.52,22.7,32.09,43.4,32.71,15,.45,30.17,0,45.22,0,15.68,0,31.38.2,47.07,0,21.81-.28,40.66-10.61,52.36-28.63,7.53,17.06,22.6,28.09,42.06,28.63,15.87.44,31.81,0,47.69,0,15.26,0,30.55.34,45.81,0,21.48-.48,39.41-11.3,50.85-28.67,8,15.77,22.86,25.61,41.53,26.16,16.16.48,32.41,0,48.57,0,15.46,0,31,.32,46.4,0,23.54-.48,43.06-12.81,54.62-32.94l1.11-.56C794,628,810.16,640.33,831.14,641c16.16.48,32.41,0,48.57,0,15.46,0,30.95.31,46.4,0,24.36-.5,44.41-13.69,55.8-35.07a3.27,3.27,0,0,0,.38-1.28c11.28-8.92,17.58-23.28,17.66-39.58C1000.06,541.92,1000,518.81,1000,495.71ZM154.38,645.81c-9.88.23-19.8,0-29.69,0H80.08c-9,0-19.28,1.15-28.06-1.1-33.93-8.66-29.21-44.37-29.21-71.16V493.22c0-19.47,8.87-37.44,29.21-42.64,6.6-1.68,13.86-1.9,21.14-1.72-14.87,7.25-24.72,22-25.22,40.33-.59,21.52,0,43.14,0,64.67,0,22-.29,44.12,21.12,57.36,17.71,10.95,44.7,6.63,64.51,6.63h65.25c1.33-.05,2.64-.17,3.92-.32C192.61,635.1,175.2,645.32,154.38,645.81Zm44.44-34c-33.88,0-67.76.13-101.63,0-24.88-.09-42.95-15.66-43.17-41.33-.16-19.39,0-38.79,0-58.18C54,489.52,52,464,77.5,453.2c14.24-6,34-3.11,49.09-3.11h62.2c6.29,0,13-.47,19.13,1.1,17.74,4.54,28.5,20,29.21,37.78v.22c-.59,21.52,0,43.14,0,64.67,0,4.33,0,8.67.13,12.95q0,3-.13,6.08C236.21,594.54,220.73,610.88,198.82,611.77Zm112.43,26.82c-30.43,0-76,8.07-85.69-30.21a45.31,45.31,0,0,0,14.56-20.91,40.1,40.1,0,0,0,18.12,23.75c17.72,10.95,44.7,6.63,64.51,6.63H388a49.47,49.47,0,0,0,13.24-2.31C380.25,644.05,343.5,638.59,311.25,638.59ZM388,611.77c-33.87,0-67.75.13-101.63,0-24.87-.09-43-15.66-43.16-41.33,0-.45,0-.9,0-1.36,0-.08,0-.17,0-.26.11-23.1,0-46.21,0-69.31,0-.25,0-.49,0-.73.28-18.65,3-36.88,23.49-45.58,14.24-6,34-3.11,49.09-3.11H378c6.29,0,13-.47,19.12,1.1,17.43,4.46,28.11,19.42,29.16,36.83-.48,20.65.05,41.38.05,62,0,4.24,0,8.48.13,12.66,0,3.4,0,6.79-.13,10.17C425.4,594.54,409.92,610.88,388,611.77Zm153.33,26.82c-13.62.1-27.25,0-40.86,0H456.39c-20.44,0-36.89-8.4-43.95-28.5a45.25,45.25,0,0,0,17.48-24.5,39.77,39.77,0,0,0,17.51,21.83c17.72,11,44.7,6.64,64.51,6.64h65.25a49.6,49.6,0,0,0,12.95-2.22C579.21,628.92,562.24,638.45,541.33,638.59Zm52.86-34.92a3.31,3.31,0,0,0-2.66,1.21,41.79,41.79,0,0,1-14.34,3.1c-33.88,0-67.76.13-101.63,0-24.82-.1-42.86-15.59-43.16-41.16.09-22.44,0-44.88,0-67.31,0-.84,0-1.68,0-2.51.13-19.34,2.27-38.58,23.52-47.59,14.24-6,34-3.12,49.08-3.12h62.21c6.29,0,13-.47,19.12,1.1,17.75,4.54,28.51,20,29.21,37.78v.22c-.59,21.52,0,43.14,0,64.67,0,4.34,0,8.68.14,13,0,2,0,4.06-.14,6.08C614.85,584.56,606.75,597.32,594.19,603.67Zm134.32,32.42c-13.76.06-27.52,0-41.28,0h-45c-19.82,0-36.15-7.75-43.76-26.42a.25.25,0,0,0,0-.07,3.06,3.06,0,0,0,.36-1.56,44.4,44.4,0,0,0,19.66-24.36,40.11,40.11,0,0,0,18.12,23.74c17.72,11,44.71,6.64,64.51,6.64h65.26a51.84,51.84,0,0,0,9.89-1.36C765,627.89,748.41,636,728.51,636.09Zm56.66-33.39a2.68,2.68,0,0,0-3.42,1.33c-.1.19-.21.37-.31.55a41.73,41.73,0,0,1-15.06,3.4c-33.88,0-67.76.13-101.64,0-24.87-.1-43-15.66-43.16-41.34,0-.45,0-.9,0-1.35,0-.09,0-.18,0-.27.11-23.1,0-46.21,0-69.31,0-.24,0-.49,0-.73.28-18.64,3-36.87,23.49-45.57,14.24-6,34-3.12,49.09-3.12h62.2c6.29,0,13-.47,19.13,1.1,17.74,4.54,28.5,20,29.21,37.78v.22c-.59,21.52,0,43.14,0,64.67,0,4.34,0,8.68.13,13q0,3-.13,6.08C804.06,583.82,796.7,596.08,785.17,602.7Zm138.25,32.17c-13.76.06-27.52,0-41.28,0h-45c-20.9,0-37.91-8.62-44.91-29.57a45.16,45.16,0,0,0,15.49-21.62,40.07,40.07,0,0,0,18.12,23.74c17.72,11,44.7,6.64,64.51,6.64h65.25a48.74,48.74,0,0,0,16.2-3.37C960.44,626.39,943.66,634.77,923.42,634.87Zm70.45-65.77c-.91,21.64-16.39,38-38.31,38.88-33.87,0-67.75.13-101.63,0-24.87-.1-42.95-15.66-43.17-41.34V565c.12-23.1,0-46.21,0-69.31V495c.28-18.64,3-36.87,23.49-45.57,14.24-6,34-3.12,49.09-3.12h62.2c6.29,0,13-.47,19.12,1.1,17.75,4.54,28.51,20,29.21,37.78.8,20.15,0,40.48,0,60.63C993.87,553.54,994.2,561.36,993.87,569.1Z"/><path d="M185.16,525.94c5.79-18.41-14.5-32-29.69-36.43a2.83,2.83,0,0,0-1-.12c-15.37-.66-32.41-3.69-47.66-2-13.73,1.51-11.75,16-12.2,26.17l-2.73,61c-.2,4.33-1,9.52,2.7,12.65,4.39,3.68,15.17,2.24,20.19,1.85,17.26-1.33,14-20.15,13.73-33.7C149.53,554.73,178,548.74,185.16,525.94Zm-59.67,23.43a3.09,3.09,0,0,0-3,3c-.22,7.64.9,16.66-.71,24.08-1,4.54-2.22,5.59-7.72,6.51-2.8.47-10.23,1.14-12.87,0-5.14-2.21-3.2-8-3-12.77q.69-15.5,1.39-31l1.35-30.16c.28-6.23-1.31-13.3,5.92-15.62,6.45-2,18.32.77,24.93,1.05l22.38.94c12.29,3.66,30.45,14.78,24.83,29.74C171.34,545.46,143.78,549.23,125.49,549.37Z"/><path d="M129.54,496.69a3.07,3.07,0,0,0-3,3V536.6c0,1.52,1.4,3.22,3,3,12.21-1.33,25.81-7.37,27.65-20.67a2.92,2.92,0,0,0,.11-.8,3.15,3.15,0,0,0,0-.82C156.67,503.58,141.47,497.91,129.54,496.69Zm3,36.42V503.19c8.39,1.44,18.63,5.63,18.64,15C150.33,527.08,140.83,531.55,132.58,533.11Z"/><path d="M545.52,502.35c8.7-1.84,10.15-11.93,6.49-19.25a3,3,0,0,0-2.62-1.51H498.18c-4.8,0-10.78-1-14.23,3.16-2.55,3.11-2.17,8.45-2.5,12.27l-5.1,59.38c-.44,5.17-2.05,11.43-1.21,16.61.43,2.67,1,4.75,3.8,5.71,1.54.54,6.09-.42,4.34-.28,17.56-1.41,35.74-.06,53.39,0a2.56,2.56,0,0,0,1.61-.06,2.5,2.5,0,0,0,.92-.36c7.89-3.65,11-15.52.46-18.56-6.89-2-16.63-.53-24.46-.14l.3-18.59,23-.29c6.87-.09,12-.78,13.19-9.54,1-7.09-4.2-10.06-10.11-10.14-8.25-.11-16.51,0-24.76,0l.3-17C526.44,503.56,536.63,504.22,545.52,502.35Zm-31.79,24.48h18.4c5.32,0,16-2.79,12.59,4.92-1.52,3.45.48,1.61-3.65,2.57-3.35.78-7.74.09-11.19.14l-17.37.22a3.09,3.09,0,0,0-3,3q-.2,12.36-.4,24.72a3.07,3.07,0,0,0,3,3h13.57c2.84,0,6-.42,8.85,0,.82.13,2.34-.36,3.09,0h1c2.72-.12,2.15,2.18-1.68,6.89-16.69,0-33.45-.47-50.13,0-5,.14-5.23.91-5.41-3.8-.3-8.16,1.46-16.92,2.15-25q1.46-16.82,2.89-33.63c.47-5.46-.25-13.05,1.57-18.27,2.24-6.4,11.12-3.94,16.87-3.94h32.93c2,0,9.08-1.18,10.8,0s-1.85,6.69-2.53,8.43c-.83.07-2.13.29-2.65.27-9.63-.4-19.63,1-29.28,1.43a3.1,3.1,0,0,0-3,3q-.21,11.48-.41,22.95A3.08,3.08,0,0,0,513.73,526.83Z"/><path d="M193.34,576.57c-4.69-.28-11.26,2-13.75,6.26-2.82,4.77,1.81,6.34,5.73,6.23a5.76,5.76,0,0,0-3.18,2.62,6.31,6.31,0,0,0-.5,5.45,6,6,0,0,0-1.88,1.56c-2.9,3.57-1.68,8.08,2.36,9.95s10.63,2.35,14.56.36c4.6-2.34,6.93-8.84,3.79-13.26-.13-.18-.62-.62-.79-.87.57-.71,1.66-1.3,2.23-2a8.83,8.83,0,0,0,1.71-6.81A11,11,0,0,0,193.34,576.57Zm-1.82,10.81a14.83,14.83,0,0,0-2.31.6A5.37,5.37,0,0,1,191.52,587.38Zm3.72,15c-.45.8-1.71,1.21-3,1.41,2.25-2.4,2.24-6.59-.37-8.65a12.72,12.72,0,0,0-1.87-.78,23.33,23.33,0,0,0,3.41-1.14c-.55,1.54-.15,2.7.39,4.18C194.52,599.42,197.57,598.26,195.24,602.41Zm2-13.7a6,6,0,0,0-.11-3.52A3.39,3.39,0,0,1,197.25,588.71Z"/><path d="M381,585.84a3.23,3.23,0,0,0,1.74,2c-.52,4.48-1.33,10.42,1.78,13,2.9,2.45,8.64,1.53,11.06-1.26,1.5-1.71,1.29-3.69,1.36-5.82l.42-12c.08-2.22.75-5.31.19-7.5C394.78,563.52,378.41,577.77,381,585.84Zm10.6-10.45a2.46,2.46,0,0,0-.08-.46A2.92,2.92,0,0,1,391.59,575.39Zm-.21,3.33q-.24,7-.49,14a16.32,16.32,0,0,1,0,3.49c.09-.62-1.51.28-2.09.43a2.37,2.37,0,0,0-.12-.5c-.93-3.06.3-8,.42-11.25a2.63,2.63,0,0,0-1.08-2.36,2.53,2.53,0,0,0-.91-.58c1.16-2.34,4.66-4.27,4.5-6.55A24.77,24.77,0,0,1,391.38,578.72Z"/><path d="M571.24,583.71a3.2,3.2,0,0,0,1.75,2c-.53,4.48-1.33,10.42,1.77,13,2.9,2.45,8.64,1.52,11.07-1.26,1.49-1.72,1.28-3.7,1.36-5.82q.21-6,.41-12c.08-2.21.75-5.31.19-7.5C585,561.4,568.66,575.64,571.24,583.71Zm10.6-10.45a1.93,1.93,0,0,0-.08-.46A2.1,2.1,0,0,1,581.84,573.26Zm-.21,3.33-.48,14a17.74,17.74,0,0,1,0,3.49c.08-.62-1.52.29-2.1.43a2.87,2.87,0,0,0-.11-.49c-.94-3.07.3-8,.42-11.26a2.65,2.65,0,0,0-1.08-2.35,2.55,2.55,0,0,0-.92-.59c1.16-2.33,4.66-4.26,4.5-6.54A24.73,24.73,0,0,1,581.63,576.59Z"/><path d="M733.23,532.71c-5,0-9,2.48-12.72,5.56-5.35,4.4-5.79,7.35-13.39,7.4-9,.06-11.52-5.67-12.56-13.88-1.27-10.08.19-20.81,6.85-28.77,11.32-13.53,20.4-3.4,32.05,1.65,8.72,3.78,20-1.07,17.67-12.18-2.36-11.4-19.66-17-29.4-18.4-19.1-2.72-34.35,1.63-48.66,14.58a2.72,2.72,0,0,0-.46.51c-19.17,20.69-22.67,56.23.35,76.19,10.4,9,25.59,10.81,38.78,8.26,11.52-2.23,30.83-12.77,34.66-24.93C749.12,540.1,741.69,532.66,733.23,532.71Zm7.2,14.49c-1.83,7-14.17,14.3-20.49,17.34-21.42,10.3-44.35,1.72-53.44-19.69-7.79-18.33-2.44-37.88,10.87-51.89,15.57-14.09,38.92-19,57.94-8.23,3.17,1.79,18.59,11.32,5.12,15.62-3.38,1.08-8.95-4.07-12-5.94-4.8-3-10-5.43-15.77-4.85-23.31,2.3-32.3,40.24-19.36,56.71a17.44,17.44,0,0,0,24.76,3c1.91-1.48,3.3-3.77,5.16-5.36C727.12,540.58,743.9,533.94,740.43,547.2Z"/><path d="M758.93,564.72c-4.69-.28-11.27,2-13.76,6.26-2.82,4.77,1.81,6.34,5.73,6.22a5.82,5.82,0,0,0-3.18,2.63,6.31,6.31,0,0,0-.5,5.45,6.25,6.25,0,0,0-1.88,1.56c-2.89,3.57-1.68,8.08,2.37,9.95s10.63,2.35,14.55.36c4.6-2.34,6.93-8.84,3.79-13.26-.13-.18-.62-.63-.79-.87.57-.71,1.67-1.3,2.23-2a8.84,8.84,0,0,0,1.72-6.81A11,11,0,0,0,758.93,564.72Zm-1.83,10.81a13.7,13.7,0,0,0-2.3.6A5.34,5.34,0,0,1,757.1,575.53Zm3.72,15c-.45.81-1.71,1.22-3,1.41,2.25-2.39,2.24-6.58-.37-8.64a11.22,11.22,0,0,0-1.87-.78A22.93,22.93,0,0,0,759,581.4c-.55,1.53-.15,2.7.39,4.18C760.1,587.57,763.15,586.41,760.82,590.55Zm2-13.7a6,6,0,0,0-.11-3.52A3.37,3.37,0,0,1,762.83,576.85Z"/><path d="M932.28,475.77c-7.87-2.28-19.06-.27-27.31-.39L877.66,475c-4.75-.07-12.69-1.88-17.14,0-10,4.28-5.23,20.48-5.23,28.9,0,18.78-.28,37.58,0,56.35.13,9.07,2.08,13,11.58,12.58,19.34-.76,38.81-.2,58.18-.19h.06l.23,0a2.61,2.61,0,0,0,.57-.09c8.09-2.11,13.6-10.88,7.43-18.4-3.28-4-7.52-4.11-12.31-4.26-9.58-.32-19.17-.45-28.75-.65q.29-7.56.58-15.13l21-.56c4.44-.12,11.43,1,15.53-.64,3.87-1.59,6.67-6.24,6.93-10.28.25-3.75-1.73-9.28-5.35-11.13s-11.73-.41-15.75-.41H894.66q.14-6.93.28-13.85l25.74-.58c4.72-.11,9.23.61,13.44-1.66,5.88-3.16,8.53-9.91,4.07-15.44A11.61,11.61,0,0,0,932.28,475.77Zm-1.23,14c-3.27,2.67-15.77.94-19.94,1l-19.15.43a3.1,3.1,0,0,0-3,3q-.2,9.93-.4,19.86a3.07,3.07,0,0,0,3,3h19c3.15,0,6.32.09,9.47,0,6-.15,8-2.64,7.59,4.77-.35,6.87-.86,5.22-6.51,5.35l-9.58.26-21.54.57a3.08,3.08,0,0,0-3,3q-.42,10.54-.82,21.08a3.08,3.08,0,0,0,3,3l18.24.41,9.12.2q9.46-2,7.77,10.73l-35.65,0c-6.1,0-23.22,3.28-27.23-1.59-2-2.37,0-15.5,0-18.78V496.88c0-3.49-1.19-9.37-.11-12.55,1.92-5.7,6.66-3.39,11.84-3.32l31.87.45c6.07.09,12.14.2,18.21.26l4.55.06Q935.44,479.92,931.05,489.75Z"/><path d="M950.11,577.78a3.14,3.14,0,0,0,1.76,2c-.58,5.09-1.6,12.26,2.14,15,3.24,2.39,9.43,1,11.35-2.61,1-1.79.66-4.23.72-6.17q.21-6.62.41-13.22c.07-2.4.88-5.9.12-8.24C963,553.3,947.93,570.12,950.11,577.78Zm10.39-7.9-.45,14.78c0,1.11.32,3.58-.11,4.73q-.16-.72-2.19,1.05a6.83,6.83,0,0,1,0-1c-1.15-3,.32-9.32.43-12.62a2.7,2.7,0,0,0-1-2.27,2.62,2.62,0,0,0-.82-.62c1.14-2.57,3.88-6,4.32-7.6C960.75,567.48,960.51,569.6,960.5,569.88Z"/><path d="M337.86,472.24c-9.7.06-19.41,0-29.12.2-3.69.07-7.23-.28-10,2.56-2.5,2.59-2.37,5.74-2.4,9.07-.15,13.82.58,27.71.86,41.52.26,12.17-1,25.41.78,37.47.6,4.11,1.43,6.67,5.77,7.4,3,.51,8-.74,11.16-.6,8.65.38,17.31.56,26,.84a2.7,2.7,0,0,0,2.13-.81l.07-.06h0a2.73,2.73,0,0,0,.83-2.16q-1.51-46.18-3-92.39A3.07,3.07,0,0,0,337.86,472.24ZM321.43,564c-3.55-.12-12.6,1.28-15.55-.44-2.16-1.26-1.43.25-1.86-3.87-1.17-11.17-.47-22.87-.71-34.1l-.75-35.78c0-1.83-.72-5.07-.14-6.89,1.54-4.8,6.08-4.08,11.18-4.44,7-.49,14.23-.2,21.33-.17q1.41,43.11,2.83,86.21Z"/><path d="M301.31,421c10.49,9.1,22.95,10.87,36.23,10.87H385.8c12.84,0,25.73.35,38.57,0,24.23-.64,44.86-13.95,55.21-35.83a43.55,43.55,0,0,0,9.87-4.1c5.82,19.52,22.7,32.09,43.4,32.72,15,.45,30.17,0,45.22,0,15.68,0,31.39.2,47.07,0,23.18-.3,43-11.95,54.49-32.12a3,3,0,0,0,.4-1.42c13.73-8.51,21.49-24.22,21.57-42.32.11-23.1,0-46.2,0-69.31,0-22.9-6-45.17-30.54-53.27-16.9-5.57-38.88-2.22-56.27-2.22-20.95,0-42-.54-62.94,0-20.32.52-36.58,12.45-42.8,30.2-4-12.6-12.06-23-27.18-28C465,220.6,443,224,425.61,224c-20.73,0-41.53-.52-62.24,0a2.92,2.92,0,0,0-1.83-.59c-12.61,0-26.23-1.52-38.7.65a45,45,0,0,0-36.76,40.36c-2.11,26-.14,52.81-.14,78.84C285.94,368.45,279.92,402.38,301.31,421ZM512.42,279.44c0-.24,0-.48,0-.73.28-18.64,3-36.87,23.49-45.57,14.24-6,34-3.11,49.09-3.11h62.2c6.29,0,13-.47,19.12,1.09,17.75,4.54,28.51,20,29.22,37.79.79,20.14,0,40.47,0,60.62,0,7.74.32,15.56,0,23.3-.92,21.64-16.4,38-38.31,38.88-33.88,0-67.76.13-101.64,0-24.87-.1-43-15.66-43.16-41.33,0-.46,0-.91,0-1.36,0-.09,0-.18,0-.27C512.53,325.65,512.42,302.55,512.42,279.44Zm-3.09,88a40.08,40.08,0,0,0,18.12,23.74c17.72,11,44.7,6.64,64.51,6.64h65.26a49.94,49.94,0,0,0,13.24-2.31c-21,28.51-57.74,23-90,23-30.43,0-76,8.07-85.69-30.22A45.23,45.23,0,0,0,509.33,367.41ZM395.8,230H458c6.29,0,13-.47,19.12,1.09,17.75,4.54,28.51,20,29.21,37.79v.21c-.59,21.52,0,43.14,0,64.67,0,4.34,0,8.68.14,13,0,2-.06,4.06-.14,6.08-.92,21.64-16.4,38-38.31,38.88-33.88,0-67.76.13-101.63,0-24.87-.1-42.95-15.66-43.17-41.33-.16-19.39,0-38.79,0-58.18,0-22.74-2-48.25,23.48-59.06C361,227.1,380.74,230,395.8,230ZM292,353.49V273.15c0-19.47,8.87-37.44,29.21-42.63,6.6-1.69,13.87-1.9,21.14-1.73-14.87,7.26-24.72,22-25.22,40.33-.58,21.52,0,43.14,0,64.67,0,22-.29,44.13,21.12,57.36,17.72,11,44.7,6.64,64.51,6.64H468c1.34-.06,2.64-.17,3.92-.32-10.13,17.57-27.54,27.79-48.35,28.28-9.89.23-19.81,0-29.7,0H349.29c-9,0-19.27,1.14-28.06-1.1C287.3,416,292,380.27,292,353.49Z"/><path d="M446.54,378.63c-2.9,3.56-1.68,8.08,2.36,9.94s10.63,2.36,14.56.36c4.6-2.33,6.93-8.83,3.79-13.25-.13-.18-.62-.63-.79-.87.57-.72,1.66-1.3,2.23-2A8.81,8.81,0,0,0,470.4,366a11,11,0,0,0-10.27-9.45c-4.7-.28-11.27,2-13.76,6.25-2.82,4.78,1.81,6.35,5.73,6.23a5.82,5.82,0,0,0-3.18,2.63,6.31,6.31,0,0,0-.5,5.45A5.88,5.88,0,0,0,446.54,378.63Zm17.49-10a6,6,0,0,0-.11-3.52A3.4,3.4,0,0,1,464,368.64Zm-3.85,4.55c-.55,1.53-.15,2.7.39,4.18.73,2,3.78.82,1.45,5-.45.81-1.71,1.22-3,1.41,2.25-2.39,2.24-6.58-.37-8.65a12,12,0,0,0-1.87-.77A23.33,23.33,0,0,0,460.18,373.19Zm-1.88-5.87a13.75,13.75,0,0,0-2.31.6A5.09,5.09,0,0,1,458.3,367.32Z"/><path d="M376.31,358.5h33.31c8.76,0,13.25,0,20.69-5.23,16.94-11.82,18.68-37,1-45.28,15.44-9.77,18.69-31.35-2.29-39.46-6.66-2.58-13.85-1.61-20.88-1.61H376.31a3.08,3.08,0,0,0-3,3v85.5A3.08,3.08,0,0,0,376.31,358.5Zm3-85.51c13.41-.05,26.85-.33,40.25,0,5.16.12,11,1.42,15.43,6.25,9.84,10.74-2.31,23-12.76,26.31a2.38,2.38,0,0,0-2.42,2.24c-.42,1.83.82,4.06,3,3.88,25.3,3.33,14.31,37-3.64,40.74-6.77,1.41-15.44,0-22.31,0H379.35Z"/><path d="M403.37,311.65c8.24-.9,18.53-5.41,18.53-15.06,0-9.42-10.7-13.33-18.53-14.13a2.43,2.43,0,0,0-2.74,1.68,3.2,3.2,0,0,0-.3,1.36v23.11C400.33,310.13,401.73,311.83,403.37,311.65Zm3-22.59c4,.93,9.3,3.11,9.41,7.53.1,3.93-3.6,6.27-6.84,7.53a25.5,25.5,0,0,1-2.57.78Z"/><path d="M402.44,316v26.46a3.08,3.08,0,0,0,.3,1.34,2.35,2.35,0,0,0,2.74,1.7c8.95-1.13,18.61-6.78,18.53-16.87-.08-9.79-10-14.67-18.53-15.67C403.85,312.79,402.44,314.53,402.44,316Zm6.08,3.73a20,20,0,0,1,2.41.79c3.59,1.45,6.89,3.93,7,8.11.12,4.38-3.14,7.42-6.85,9.1a22.29,22.29,0,0,1-2.56.93Z"/><path d="M563.45,307.55c1.28,1.61,3.4,3.57,4.5,5.47-1.15-1.7-.45,5.2-.47,7.43-.08,9.33-1.71,20.34.09,29.54,1.55,7.9,7.81,8.5,14.65,8.67,8.07.21,21.43,2.55,24.46-7.48,1.73-5.72.69-13.13.89-19q.27-7.69.52-15.39a27.77,27.77,0,0,1,.16-4.74c0-.1,0-.19.06-.27l0-.07c3.87-8.48,11.08-16.54,16.25-24.26l14.09-21c1.3-1.95-.43-4.57-2.63-4.57-8.7,0-19.91-3.28-25.38,4.3-6.65,9.23-12.82,18.85-19.14,28.33l-9.47-12.73c-4-5.34-8.25-14.25-13.59-18.25-3.65-2.74-8.66-1.65-13.25-1.65H533.33c-2.86,0-3.72,3.23-2.15,5.19ZM553,267.93c2.86,0,7.58,1,10.32,0a4.25,4.25,0,0,0,.81-.36,2.2,2.2,0,0,0,.22.49c6.79,11.64,16.54,22.25,24.62,33.08a3.24,3.24,0,0,0,5,.55,2.74,2.74,0,0,0,.72-1l18.93-28.07c1.12-1.65,2.14-3.44,3.37-5,.26.09.59.19,1,.31,3.51.94,8,.62,12.16.31L608.21,301c-2.22,3.31-5.07,6.49-6,10.34-1.81,7.38-.57,16.72-.82,24.31-.32,9.22,2.16,15.48-9,17-3.44.48-11.55,1.14-15-.23-5.11-2-3.85-7.94-3.87-12.34,0-8.62,1.87-19.13.17-27.55-.68-3.34-2.68-5.25-4.87-8l-29.16-36.61Z"/><path d="M633.88,374.91c1.61,3.6,6.43,3.37,10.38,2.68.23,3.08,1.28,5.68,5.16,6,4.72.44,7.28-1.76,7.63-5.74,3.37-1,4.12-3,4.21-7.31a2.4,2.4,0,0,0-.79-2.7,2.84,2.84,0,0,0-.84-.57c-.93-.52-2.13-1-2.19-1.14-.75-1.8.81-5.91,1.15-7.89.55-3.29,1.09-5.77-2.5-7.32-6.42-2.76-12,6.29-15.16,10.79C638.85,364.72,632,370.58,633.88,374.91Zm18.63-17.61c-.15.67-.29,1.34-.43,2l-.18-.07a2.7,2.7,0,0,0-1.35,0A16.54,16.54,0,0,1,652.51,357.3Zm-1.41,14.62a2.81,2.81,0,0,0,2-.81.94.94,0,0,0,.1-.1l.06-.06a2.3,2.3,0,0,0,.32-.38c.46.25,1,.51,1.5.84,0,.22,0,.44-.08.66.45,1.51.1,1.61-1.07.31-1.49.16-3.23,1.26-3,3,.06.53.36,1.59.07,2-.06.08-.9,1.1-1.46.32.58.54.79-4.11.78-3.87a2.69,2.69,0,0,0-.71-2Zm-8.77-1.9c.11-.14.34-.46.66-.92a3.31,3.31,0,0,0,1.27,2.15c-1,.1-2,.18-3,.33C641.68,371,642,370.39,642.33,370Z"/></g></g></svg>