<svg xmlns="http://www.w3.org/2000/svg" viewBox="0 0 1000 951.06"><title>Asset 2</title><g id="Layer_2" data-name="Layer 2"><g id="Layer_1-2" data-name="Layer 1"><path d="M309.23,797H295.74a1.61,1.61,0,0,0-1.58,1.58v44.25a1.6,1.6,0,0,0,1.58,1.58h13.49a1.42,1.42,0,0,0,1-.39l.11-.08a.36.36,0,0,0,.07-.1,1.43,1.43,0,0,0,.4-1V798.6A1.61,1.61,0,0,0,309.23,797Zm-12.5,44.57c-.52,0-.34-.25,0,0Zm10.92-30.2v29.88h-5.17c-1.17,0-3.5-.47-4.63,0a4.59,4.59,0,0,1-.74.25c-.42-3.36.21-7.45.21-10.66V802.55c0-.59.15-1.59.17-2.36a48.56,48.56,0,0,0,5.83,0,21.8,21.8,0,0,0,4.35,0l.16,0C308.2,803.77,307.65,807.88,307.65,811.39Zm.83-11.32c.37,0,.27.08,0,0Z"/><path d="M32.77,530H43.3a1.43,1.43,0,0,0,1-.39l.11-.08.07-.1a1.43,1.43,0,0,0,.39-1v-35.4a1.6,1.6,0,0,0-1.58-1.58H32.77a1.6,1.6,0,0,0-1.58,1.58v35.4A1.6,1.6,0,0,0,32.77,530Zm1.58-35.4h7.37v32.24H34.35Z"/><path d="M41.62,456.71h8.43a1.42,1.42,0,0,0,1-.39l.11-.08a.36.36,0,0,0,.07-.1,1.43,1.43,0,0,0,.4-1V434.9a1.61,1.61,0,0,0-1.58-1.58H41.62A1.6,1.6,0,0,0,40,434.9v20.23A1.6,1.6,0,0,0,41.62,456.71Zm1.58-20.23h5.26v17.07H43.2Z"/><path d="M58.69,456.71h8.43a1.42,1.42,0,0,0,1-.39l.11-.08a.36.36,0,0,0,.07-.1,1.42,1.42,0,0,0,.4-1V434.9a1.61,1.61,0,0,0-1.58-1.58H58.69a1.6,1.6,0,0,0-1.58,1.58v20.23A1.6,1.6,0,0,0,58.69,456.71Zm1.58-20.23h5.27v17.07H60.27Z"/><path d="M221.35,769.65c0-.79-.29-.42,0,0Z"/><path d="M70.9,769.86c.29-.23.11-.42,0,0Z"/><path d="M929.12,769.85c-.12-.49-.33-.26,0,0Z"/><path d="M778.65,769.65c.28-.41,0-.76,0,0Z"/><path d="M653,761.27c0-.76-.25-.42,0,0Z"/><path d="M343.21,761.4c.35-.44,0-.88,0,0Z"/><path d="M93.33,786.6c0-.17,0-.23,0,0Z"/><path d="M197.27,786.59c0-.39-.09-.26,0,0Z"/><path d="M443,368.36c0-.62-.16-.37,0,0Z"/><path d="M337.66,368.63c.36-.45,0-.9,0,0Z"/><path d="M552.78,368.36c0-.62-.17-.37,0,0Z"/><path d="M447.44,368.63c.36-.45,0-.9,0,0Z"/><path d="M477.62,145.3c.28-.2.12-.35,0,0Z"/><path d="M522.69,145.3c-.13-.44-.35-.23,0,0Z"/><path d="M294.9,372.64H284.79a1.6,1.6,0,0,0-1.58,1.58v48a1.6,1.6,0,0,0,1.58,1.58H294.9a1.42,1.42,0,0,0,1-.39l.11-.08.08-.1a1.43,1.43,0,0,0,.39-1v-48A1.6,1.6,0,0,0,294.9,372.64Zm-1.58,3.46c-.64,5,0,10.53,0,15.58v29a57.5,57.5,0,0,0-6.95,0c0-5,0-10,0-15V385.56c0-2.66.25-5.48,0-8.13a12.35,12.35,0,0,1,.09-1.75,50.21,50.21,0,0,0,6.86.12h.05A2.51,2.51,0,0,0,293.32,376.1Z"/><path d="M303.12,141.49H293a1.6,1.6,0,0,0-1.58,1.58v48a1.6,1.6,0,0,0,1.58,1.58h10.12a1.42,1.42,0,0,0,1-.39l.11-.08a.36.36,0,0,0,.07-.1,1.43,1.43,0,0,0,.4-1v-48A1.6,1.6,0,0,0,303.12,141.49ZM301.54,145c-.65,5,0,10.53,0,15.58v29a57.68,57.68,0,0,0-7,0c0-5,0-10,0-15V154.42c0-2.66.26-5.49,0-8.14a12.48,12.48,0,0,1,.1-1.75,50.19,50.19,0,0,0,6.86.12h0C301.57,144.74,301.55,144.83,301.54,145Z"/><path d="M628.38,759.39c0-.26-.06-.19,0,0Z"/><path d="M371.89,759.4c.06-.18,0-.25,0,0Z"/><path d="M405,777.23c.08-.24,0-.34,0,0Z"/><path d="M1000,681.21a1.21,1.21,0,0,0,0-.19q-5-16.42-10-32.86h0V478.34l9.26-5.83a1.6,1.6,0,0,0,0-2.73c-5.6-3.33-10.91-7.61-16.91-9.65q.2-15.36.41-30.71a1.53,1.53,0,0,0-.19-.7s0-.06,0-.09l-42.57-86c-.66-1.33-2.45-.78-2.89.38q-16.23,43-32.45,86a1.6,1.6,0,0,0,1.53,2H908l.78,28.94c-.18.07-.38.1-.56.17C896,465,894.91,471.43,891.85,482.63H747.56V286.35a.24.24,0,0,0,0-.08c3.91-2.29,6.2-6.65,10.09-11.24a1.59,1.59,0,0,0-.32-2.48l-18.81-9.91V141.36c6.39-6.92,9.06-8.47,9.06-17.9a1.56,1.56,0,0,0-.78-1.36c-4.5-2.21-9.46-5.45-14.44-7.95.15-5.45.84-11.45.08-16.73l.22.19a1.59,1.59,0,0,0,2.48-1.92l-40-88.5c-.63-1.37-2.46-.74-2.89.38Q675.07,51.82,658,96.07a1.25,1.25,0,0,0,.57,1.65,1.3,1.3,0,0,0,1.75.14l3.14-2.18c-1.32,6.48.08,15.37.34,21.63-4.6,2.69-9.12,5.67-13.4,8a1.56,1.56,0,0,0-.78,1.36c0,10.29.85,10.56,8.32,17.35v36.49H636c-6,0-4.47,1.17-7.74-1.77-9-8.15-16.93-18.13-25.23-27L522.4,65.33,504.89,46.58c-.06-4.45-.32-9-.11-13.42.23-4.93.45-4.85,3.58-7.75,3.5-3.26,5.17-6.07,5.75-10.67a1.38,1.38,0,0,0,.09-.69,1.35,1.35,0,0,0-.12-.74C512.45,1.46,498-5.19,489.35,5.05a14.17,14.17,0,0,0-1.07,16.54c1.5,2.32,4.83,3.3,6.12,5.23,2.87,4.32,1.15,14.48,1,19.75l-121.68,130c-1,1.07-2.2,2.94-3.46,3.7s.71-.14-2.52.18c-8.37.83-17.17.11-25.63,0V144c7.47-6.79,8.32-7.06,8.32-17.35a1.56,1.56,0,0,0-.78-1.36c-4.33-2.3-8.83-5.22-13.41-7.88.26-6.26,1.68-15.19.35-21.7l3.14,2.18a1.3,1.3,0,0,0,1.75-.14,1.25,1.25,0,0,0,.57-1.65Q324.92,51.82,307.8,7.57c-.43-1.11-2.27-1.75-2.89-.38l-40,88.5a1.59,1.59,0,0,0,2.48,1.92l.22-.19c-.77,5.29-.07,11.3.08,16.76-5,2.49-9.93,5.71-14.44,7.92a1.56,1.56,0,0,0-.78,1.36c0,9.43,2.67,11,9.06,17.9V262.64l-18.81,9.91a1.59,1.59,0,0,0-.32,2.48c3.87,4.58,6.18,9,10.08,11.25,0,0,0,0,0,.07V482.63H108.15c-3.15-11.54-3.81-16.4-15.6-22-.42-.2-.86-.37-1.29-.54L92,431h1.83a1.6,1.6,0,0,0,1.53-2Q79.17,386,63,343c-.44-1.15-2.23-1.7-2.89-.38l-42.57,86s0,.06,0,.09a1.41,1.41,0,0,0-.19.7q.21,15.33.41,30.65c-6,2-11.32,6.39-16.91,9.71a1.6,1.6,0,0,0,0,2.73L10,478.34V648.15h0Q5,664.6.06,681a1.28,1.28,0,0,0,0,.19,1.89,1.89,0,0,0,0,.23V915.76H0v33.72a1.6,1.6,0,0,0,1.58,1.58H998.42a1.61,1.61,0,0,0,1.58-1.58v-268A1.89,1.89,0,0,0,1000,681.21ZM979.51,433c-1.9,7.8-.47,17.74-.39,26h-1.73c-14.43-1.42-29.69,0-44.19,0-6.43,0-14.29-1.16-20.92,0h-.15a1.53,1.53,0,0,0-.29,0,4.58,4.58,0,0,1,0-2c1-5.09-.31-11.69-.45-16.87-.06-2.2.36-5.07-.2-7.19a4.38,4.38,0,0,1-.07-2h56.42c3.57,0,7.39.35,10.94,0h1.08A4.57,4.57,0,0,1,979.51,433Zm-71.64-4.51c.43.65-.7,1.28,0,0Zm.3-.5.39-.56c3.57-4.81,5.14-13.62,7.24-19.17L926.08,381l12.69-33.61q19.92,40.22,39.83,80.44H909.5a1.48,1.48,0,0,0-.62.14Zm-10.28,44.76c4.31-9.62,13.83-10.49,23.74-10.55H978c4.48.56,7.95,3.35,12.83,6.25,1.5.9,3,2.05,4.62,2.8-2.41,1.64-5,3.11-7.47,4.65H916.66a1.6,1.6,0,0,0-1.58,1.58v4.37c-.06.32-.09.57-.11.79H902.35c-2.15,0-4.36-.15-6.5,0h-1.11C895.09,479.54,896.89,475,897.89,472.74Zm88.91,172a13.34,13.34,0,0,1,.15,1.79h-18.9c-.5-.88-2.18-3-2.67-3.73l-17-23.79-30.14-42.19c0-31.07,2.13-62.88,0-93.86.09-1.75.27-3.49-.18-4a7.21,7.21,0,0,1,2.36.08c8.12,1.32,17.64,0,25.84,0h30.4c2.81,0,6.25.55,9,0h1.4c.41,2.75-.3,6.65-.3,9.05V628.59C986.8,633.72,985.91,639.73,986.8,644.78ZM858.3,625.17c5.5,0-6.81-15.32-7.95-16.21-6.41-5-14.68-7.33-22.74-7.36s-16.25,2.32-22.57,7.23c-1.26,1-13.55,16.34-8.11,16.34a1.6,1.6,0,0,0-1.58,1.58v19.82H771.6a.64.64,0,0,1,0-.07v-2.27c2.65-13.49,0-30.13,0-43.87V580.12c.19-.49.34-.88.45-1.19h5.3c8.61,1.18,18.16,0,26.89,0H915.85c5,7.11,26.14,38.8,39.7,56.19,2.27,3.88,4.83,8.43,7.61,11.45H859.88V626.75A1.61,1.61,0,0,0,858.3,625.17ZM856.72,631c-.39,2,0,4.46,0,6.46v9.12H798.51v-9.12c0-1.88.36-4.6,0-6.46-.83-4.16,1.46-2.66-1.58-2.66a1.62,1.62,0,0,0,1.58-1.58c2.47-29.36,55.74-29.36,58.2,0a1.62,1.62,0,0,0,1.58,1.58C855.25,628.33,857.54,626.83,856.72,631ZM747.56,490.27c0-2.28.49-4,.18-4.59.48,0,1,.1,1.22.11,11.5.65,23.22,0,34.73,0H889c1,0,2.2-.06,3.44-.14a1.41,1.41,0,0,0,.58.14h22v.83c-.26,4.33,0,8.76,0,13.09v9.05H747.56Zm0,22.66a7.58,7.58,0,0,0,0-1v-.05H897c4.94,0,10.42.67,15.31,0h2.8v44.23c0,6.42-.22,12.9,0,19.32v.3h-2.36c-12-2.19-26.52,0-38.65,0H819.69c-15,0-30.35-1-45.3,0H771.7a30,30,0,0,0-.12-4.35V566a1.5,1.5,0,0,0-.06-.29,1.83,1.83,0,0,0-.15-1l-1.1-2.34c-2.67-9.75-8.86-18.94-13.07-27.94a1.55,1.55,0,0,0-1.36-.79h-7.3a2.52,2.52,0,0,0-.73,0h-.25Zm2.53,55.27v-.69l1,0,.27.06c5.11.88,11.05,0,16.26,0a51.43,51.43,0,0,1,.73,8.77c0,.61,0,1.22,0,1.83v95.22c-.48,0-1.24.12-2.11.17h-1.16c-4.94-.43-10.06-.09-15,0C750.14,638.49,751.49,603.19,750.09,568.2ZM729.15,112.5l0,.2a30.23,30.23,0,0,0-5.12-1.72c-7.59-1.7-17.22-.31-25.23-.1-6.71-.2-14.78-1.31-21.12.05a11.2,11.2,0,0,0-2.57.93,53.1,53.1,0,0,0-8.28,3.69,4.51,4.51,0,0,1,.11-.66c1.16-4.84,0-11.3,0-16.31,0-5.9-1.22-4.33,2.43-7h0l10.11-7a15.45,15.45,0,0,1,9.94-2.88c.81,0,1.75,0,2.77-.07,1.19,0,2.49.07,3.94.07,6.2,0,15.18-.85,18.5,1a38.46,38.46,0,0,1,4.24,2.86c2.15,2,4.23,4.17,6.05,5.67,4.1,3.41,3.64,2.16,4.2,6.24C729.81,102.3,728.07,107.75,729.15,112.5ZM662.88,92.06l31-80q17.64,39,35.3,78.05c-3.72-3.59-7.7-7.43-11.68-9.82a12.59,12.59,0,0,0-3.3-1.78c-4.73-1.54-12.52-.12-17.57,0-1.16,0-2.32-.06-3.49-.11-3.59-.22-7.59-.59-10.71.34-3.83,1.14-11.88,6.72-15.55,10.35ZM652.74,129c.63-2.56-.63-.46,2.57-2.76,3-2.13,6.7-3.57,9.92-5.28l.84-.47.11,0c10.1-5.37,13.54-6.33,24.92-6.33h26.81a33.4,33.4,0,0,1,11.76,3.13l.26.12h0l10.4,5.11c3.06,1.5,3.76,1.84,4.07,2.69,1.7,4.65-2.39,8.57-5.9,11.85v-6.15a1.6,1.6,0,0,0-1.58-1.58H659.48a1.6,1.6,0,0,0-1.58,1.58v9C654.38,137,651.4,134.4,652.74,129Zm8.32,4.05c0-.11,0-.27,0-.45a20.15,20.15,0,0,0,2.76,0c7.54,1.36,16.86-.1,24.43-.1h39.33c1.31,0,3.36-.31,5.24-.36.86.09,1.74.17,2.59.29a6.92,6.92,0,0,0,0,1.06c0,.64,0,1.29,0,1.93a2.13,2.13,0,0,1,0,.27c-.55,6.69,0,13.67,0,20.38v57.46c0,14.72-1.9,30.77,0,45.36a18.41,18.41,0,0,1,.16,3.2h-1.13c-8.57-.76-17.57,0-26.17,0h-26c-6,0-15-1.64-21.17-.25V174.92C661.06,161.38,662.84,146.47,661.06,133Zm-2.18,133.13c.44-.35.85-.68,1.2-1h76.45l8.35,4.4c1.48.78,7.39,4.14,9.57,4.74-1.8,1.42-6,7-7.31,8.23-3,2.85-.13,1.58-3.79,2.23H659.52c-3-.73-4.28-3.44-7-6.33-1.28-1.78-2.59-3.92-3.33-3.28a.38.38,0,0,1,0-.1c.06-.11.14-.23.21-.35a27.09,27.09,0,0,0,3.42-2.63C654.08,270.83,657.24,267.73,658.88,266.15ZM716.8,569.42V568c2.32-.27,6.36.37,7.8.37h16.72a41.68,41.68,0,0,0,5.61.09v345.7H716.8V591.3C716.8,584.18,717.59,576.51,716.8,569.42Zm.91-4.81q5.4-14.49,10.79-29h0l1.23-3.22q8.1,16.38,16.21,32.78Zm13.44-36.45a1.25,1.25,0,0,0-.54-.88,1.42,1.42,0,0,0-2,0,1.56,1.56,0,0,0-.61.74q-1.07,2.79-2.12,5.58H694.78c-5.76,0-12.6-1-18.28,0H674V287.93h1.05c11.13,1.94,24.23.13,35.61,0,10.1,0,20.21,0,30.31,0a15.11,15.11,0,0,0,3-.32l.35.07c0,.16,0,.33,0,.53.05,2.41,0,4.82,0,7.23V533.61a3.68,3.68,0,0,0-.46,0H733.86ZM670.86,296.5V513.38c0,5.59-1.31,13.1,0,18.57v1.67c-1.82-.06-3.65-.06-5.48,0v-166A1.6,1.6,0,0,0,663.8,366c4.28,0-2.71-23.18-3.48-25.18a67.05,67.05,0,0,0-11.41-19.27c-9.81-11.46-24-19-39.26-19-14.73,0-28.42,7.05-38.2,17.84a66.1,66.1,0,0,0-11.85,18.87,143.11,143.11,0,0,0-4.69,17.23,131.83,131.83,0,0,0-4.1-15.63,67.25,67.25,0,0,0-11.4-19.27c-9.82-11.46-24-19-39.27-19-14.73,0-28.42,7.05-38.19,17.84a65.91,65.91,0,0,0-11.86,18.87,142.58,142.58,0,0,0-4.83,18A132.08,132.08,0,0,0,441,340.77a67.05,67.05,0,0,0-11.41-19.27c-9.82-11.46-24-19-39.27-19-14.72,0-28.42,7.05-38.19,17.84a65.88,65.88,0,0,0-11.85,18.87C339.55,341,331.73,366,336.2,366a1.6,1.6,0,0,0-1.58,1.58V533.62h-5.48v-2c1.16-6.1,0-13.58,0-19.77V287.93h0c3.61,0,10.32,1.33,14,0h313.8c3.73,1.27,10.25,0,13.92,0h0v.42C670.64,290.6,670.86,295.19,670.86,296.5Zm-8.64,73.07a54.57,54.57,0,0,0,0,5.72v158.3l-4.47,0H557.07V375.29a33.7,33.7,0,0,0,0-5.41,7.26,7.26,0,0,1-.12-1.25,1.56,1.56,0,0,1-1.08.46V369a1.59,1.59,0,0,0,1.21-1.5c.91-29.59,19.77-61.63,52.57-61.91s51.66,32.76,52.56,61.91a1.61,1.61,0,0,0,1.24,1.54,1.35,1.35,0,0,1-1.16-.71A9.23,9.23,0,0,1,662.22,369.57ZM555.49,366a1.53,1.53,0,0,0-.6.12,1.5,1.5,0,0,0-.6-.12,1,1,0,0,0,.6-.21A1,1,0,0,0,555.49,366Zm-2.78,3.62a54.57,54.57,0,0,0,0,5.72V533.62H447.56V375.29a33.7,33.7,0,0,0,0-5.41,8.46,8.46,0,0,1-.12-1.25,1.74,1.74,0,0,1-1.35.47h0a1.6,1.6,0,0,0,1.48-1.56c.91-29.59,19.77-61.63,52.57-61.91s51.67,32.76,52.56,61.91a1.6,1.6,0,0,0,1.21,1.5v.05a1.34,1.34,0,0,1-1.13-.72A7.72,7.72,0,0,1,552.71,369.57ZM446,366a1.51,1.51,0,0,0-.73.21,1.58,1.58,0,0,0-.74-.21,1,1,0,0,1,1.47,0Zm-3.05,3.62a52,52,0,0,0,0,5.72V533.62H337.78V375.29a34.9,34.9,0,0,0,0-5.41,6.36,6.36,0,0,1-.12-1.25,1.8,1.8,0,0,1-1.45.48,1.61,1.61,0,0,0,1.58-1.58c.91-29.59,19.76-61.63,52.56-61.91s51.67,32.76,52.57,61.91a1.59,1.59,0,0,0,1.48,1.56h0a1.46,1.46,0,0,1-1.41-.74A8.76,8.76,0,0,1,442.93,369.57Zm-89.18-95.72c-2.59-2.44-5.43-6-8.51-8.68H654.72c-3.09,2.67-5.92,6.29-8.47,8.68a1.62,1.62,0,0,0,0,2.24c1.79,2.1,4.07,5.91,6.5,8.68H347.2c2.43-2.75,4.66-6.47,6.55-8.68A1.61,1.61,0,0,0,353.75,273.85Zm168.8-126.23c-.48,2.28,0,5.21,0,7.54v61.55H477.72V156.1c0-2.61.54-5.92,0-8.48a4.67,4.67,0,0,1-.1-2.32,2.76,2.76,0,0,1-1.47.29,1.62,1.62,0,0,0,1.58-1.58c.73-12.45,8.16-26.55,22.41-26.55s21.67,14.07,22.41,26.55a1.61,1.61,0,0,0,1.58,1.58,2.64,2.64,0,0,1-1.44-.29A5.27,5.27,0,0,1,522.55,147.62Zm86.15,72.25h49c0,.81.12,1.92.16,2.71v.61c-.72,7.83,0,16.11,0,24,0,3.78-.35,7.76,0,11.53v.61c0,.78-.18,1.9-.16,2.7H656.4c-6.18-1.5-14.7,0-21,0H342.1V219.87H608.7ZM494.63,4.63C502.29.16,510.32,6,511,14.05q-.66,8.31-8.32,10.55a1.64,1.64,0,0,0-1.16,1.53q.07,8.52.14,17l-.45-.48a1.61,1.61,0,0,0-2.23,0l-.47.51.06-17.1a1.64,1.64,0,0,0-1.16-1.53C488.79,21.45,486,9.71,494.63,4.63Zm-150.29,179c7.21,1.51,22.82,2.26,29-2,8.32-5.74,15.56-16.62,22.44-24l40-42.7L474.6,73.41c7.39-7.9,18.74-16.59,24.3-25.95,1.31-1.34,1.5-1.06,3.3.87a1.32,1.32,0,0,0,.7.4c1.1,1.3,2.15,2.65,3.15,3.73l31.63,33.86,75.45,80.78c4.07,4.36,9.59,13.3,15,16.06,4,2.06,11.81.46,16.23.46s8.61-.19,12.88,0l.66,0v3.14c-1,8,0,16.81,0,24.86,0,2.13-.57,4.18-.25,5H525.71V144a1.6,1.6,0,0,0-1.58-1.58c5,0-4.41-17.59-6-19.4-4.56-5.23-10.93-8.73-18-8.73a23.86,23.86,0,0,0-17,7.55c-1.81,1.89-12.45,20.58-7,20.58a1.6,1.6,0,0,0-1.58,1.58v72.7H342.1v-19c0-4.13.31-8.38,0-12.5V183A13.64,13.64,0,0,0,344.34,183.62ZM306.16,12.06l31,80-4-3c-3.67-3.64-11.45-8.85-15.4-10.25-3.16-1.11-7.56-.65-11.3-.42-1,0-2,.08-3.07.09-5.13-.08-12.53-1.44-17.34,0a12.47,12.47,0,0,0-3.21,1.63c-4.08,2.38-8.17,6.32-12,10Q288.52,51.07,306.16,12.06ZM270.85,98.34c.16-2.14,1.51-4.61,3.49-7a61.87,61.87,0,0,1,11-8.63c3.36-1.9,12.3-1,18.5-1,1.2,0,2.29,0,3.31,0s1.68,0,2.4,0a21.25,21.25,0,0,1,9.95,2.24c.32.19.65.41,1,.64l10.11,7h0c.66.49,1.16.82,1.55,1.07l.65.45c.79.63.4,1,.23,4.52-.24,5.17-.68,11.19,0,16.31.07.47.14,1.12.19,1.82a59,59,0,0,0-6.67-3.14A19,19,0,0,0,322.5,111c-6.2-1.42-14.25-.2-20.75,0-8.07-.15-17.87-1.65-25.6,0l-.18,0a1.59,1.59,0,0,0-.33.1,30.83,30.83,0,0,0-4.8,1.62C270.76,108,270.52,103.07,270.85,98.34ZM255.6,126.06c.49-2.87-.2-.89,3.14-3.15,3.14-2.14,7.13-3.5,10.55-5.18a37.81,37.81,0,0,1,14.09-3.64H308.9c11.4,0,14.73.92,24.83,6.29,3.37,1.79,6.71,3.69,10.14,5.39.79.39,2.55.92,3.18,1.64a3.32,3.32,0,0,0,.21.72c2,5.43-1.51,8.67-5.16,11.72v-9a1.6,1.6,0,0,0-1.58-1.58H263.08a1.6,1.6,0,0,0-1.58,1.58V137C258.22,133.87,254.81,130.65,255.6,126.06Zm83.34,17.21V261.74c-6.14-1.45-15.24.27-21.17.27H264.54c-2.07-11.31.12-25.27.12-36.63V145c0-1-.08-2.23-.19-3.49a1.56,1.56,0,0,0,.19-.74c0-2.43-.13-4.91,0-7.33a7.1,7.1,0,0,0,0-1c2-.19,4.19,0,6.15,0h54.65c3.3,0,7,.44,10.23,0a10.89,10.89,0,0,1,3.47.2C338.18,134.43,338.94,141.07,338.94,143.27ZM246.29,274.79a4.54,4.54,0,0,0-.44-.38c1.9-1.23,4.17-2.15,6.14-3.19l11.48-6.05h74a16.8,16.8,0,0,1,5.12,2.1c3,2.29,6.7,5.13,8.13,7.48-.12-.05-.25,0-.41.26-.73.38-1.68,2.27-2.8,3.59s-2.1,2.45-3.14,3.68c-2.08,1.86-2.94,2.37-4.63,2.49h-78.5C251.44,284.77,254.18,282.1,246.29,274.79ZM326,532v1.67H274.1Q273,530.83,272,528a1.6,1.6,0,0,0-.6-.74,1.43,1.43,0,0,0-2,0,1.27,1.27,0,0,0-.55.88q-1.33,2.73-2.69,5.44c-2.73-.1-7.43-.54-9.58,0h-1v-2.7c.45-7.35,0-14.88,0-22.25V340.32c0-16.82,2.1-35.16,0-51.87,0-.32-.07-.58-.08-.8l.31-.06a15.5,15.5,0,0,0,3.18.34c14.3,0,28.6,0,42.9,0h8c4.74,0,10.29.82,15,0H326V508.67C326,515.76,324.4,525,326,532Zm-43.7,32.66-28.22.57q8.1-16.39,16.21-32.78l1.23,3.23Zm-77-78.82h43.25a30.15,30.15,0,0,1,3.95-.09v.92c-.45,7.32-.07,14.79,0,22.14H88.87c-2,0-3.32-.31-4-.26V488.83c0-.8,0-1.55,0-2.21h0v-.83h2.17c4.16.75,9.14,0,13.36,0H205.24Zm47.2,27.14v5.64a93,93,0,0,0,0,12.27v2.77h-8.28a1.55,1.55,0,0,0-1.36.79c-4.21,9-11,19.18-13.61,29.08-.18.4-.37.8-.56,1.2a1.83,1.83,0,0,0-.15,1,1.5,1.5,0,0,0-.06.29v1.37a9.46,9.46,0,0,0,0,2.13v6.3H227.3c-11.63-.87-23.67,0-35.32,0H84.92V568.7h0V518.15h0v-6.23H252.19a1.1,1.1,0,0,0,.25,0v.27C252.43,512.42,252.43,512.65,252.44,512.93ZM203.07,625.17c5.51,0-6.8-15.32-7.95-16.21-6.4-5-14.67-7.33-22.73-7.36s-16.26,2.32-22.58,7.23c-1.25,1-13.55,16.34-8.11,16.34a1.6,1.6,0,0,0-1.58,1.58v19.82H36.86a53.43,53.43,0,0,0,5.79-8.37c2.94-4.25,5.56-9,8.34-12.85q4.35-6.09,8.69-12.17l24.46-34.25H228.42v67.64H226c-6.68-1.1-14.21-.52-21.34-.19V626.75A1.6,1.6,0,0,0,203.07,625.17ZM201.49,631c-.39,2,0,4.46,0,6.46v9.06c-1.1,0-2.19.06-3.25.06h-55v-9.12c0-1.88.37-4.6,0-6.46-.82-4.16,1.47-2.66-1.57-2.66a1.62,1.62,0,0,0,1.58-1.58c2.46-29.36,55.73-29.36,58.2,0a1.61,1.61,0,0,0,1.58,1.58C200,628.33,202.32,626.83,201.49,631ZM13.2,481.64a22,22,0,0,1-.13-2.59h.76c7.85.51,15.9,0,23.76,0H68.67c3.36,0,6.87.28,10.23,0a11.24,11.24,0,0,1,2.8.07c-.35.85.06,3.08.06,5.09v92.64L56.69,612,39.3,636.29c-1.79,2.51-3.72,5-5.4,7.56h0l-.21.3c-.67.88-1.86,2-2,2.42H21a52.05,52.05,0,0,0-6.49,0H12.84c-.34-2.53.36-6.62.36-8.41v-113C13.2,510.81,14.42,495.89,13.2,481.64Zm78.94-53.16c.31.65.07.8-.11.68a1.47,1.47,0,0,0-.1-.4A.78.78,0,0,1,92.14,428.48ZM61.23,347.4,73.92,381q5.13,13.62,10.28,27.24c2,5.39,3.61,14.65,7.24,19.17a6.5,6.5,0,0,1,.43.6c-.23,0-.46,0-.7,0a1.55,1.55,0,0,0-.67-.17H21.4Q41.32,387.63,61.23,347.4ZM20.46,431h1.08c3.55.35,7.38,0,10.94,0H88.83c-.85,1.27-.1,5.64-.17,8-.15,5.55-1.56,12.61-.48,18.05a4.59,4.59,0,0,1,0,2,1.5,1.5,0,0,0-.29,0l-.27,0c-6.61-1.24-14.35,0-20.8,0-14.5,0-29.13-.59-43.62,0h-2.3c.08-8.28,1.53-18.25-.39-26A4.42,4.42,0,0,1,20.46,431ZM4.59,471.18c1.2-.73,2.42-1.43,3.63-2.15,5-3,9.16-6.26,13.82-6.84H78.16c10,.06,19.38.9,24,10.55a41,41,0,0,1,3.11,9.84l-.33.05H85.39a4.32,4.32,0,0,0-.47-.13v-5a1.6,1.6,0,0,0-1.58-1.58H12.06C9.57,474.33,7,472.82,4.59,471.18ZM2.43,683h.1C2.35,683.2,2.27,683.13,2.43,683ZM67.85,920.58c-.78,5.75,0,12.15,0,17.94,0,1-.11,4.61,0,7.23v2a48.59,48.59,0,0,0-5.16.14h-50c-2.78,0-6.79.73-9.61.1a33.38,33.38,0,0,1,.1-4.27V917.34H67.85Zm107.31,27.31h-.61c-3.56-.14-7.16,0-10.73,0H112.59a24.87,24.87,0,0,1,.14-2.66c.55-6,0-12.4,0-18.47V816.88c0-4.26-.94-9.89-.12-14.21l.46,0c3.57.15,7.17,0,10.74,0H174.9V938.25C174.9,940.84,175.66,945,175.16,947.89Zm22.11-161.3a8.17,8.17,0,0,1,0,1.11c-.15,1.82,0,3.72,0,5.55V947.89H178.06V801.13a1.47,1.47,0,0,0-.39-1,1,1,0,0,0-.08-.11l-.1-.08a1.45,1.45,0,0,0-1-.39H111.15a1.6,1.6,0,0,0-1.58,1.58V947.89H94.37l-1,0V793.8c0-1.9.14-3.89,0-5.79a7.35,7.35,0,0,1,0-1.41,1.45,1.45,0,0,1-1.55.91,1.61,1.61,0,0,0,1.58-1.58c.93-29.17,19.8-60.06,51.93-60.34s51,31.6,51.93,60.34a1.6,1.6,0,0,0,1.58,1.58A1.42,1.42,0,0,1,197.27,786.59Zm24.08-16.94a7.64,7.64,0,0,1-.1,1.14,43.53,43.53,0,0,0,0,6.15V947.89H200.39v-162a1.6,1.6,0,0,0-1.58-1.58c4.13,0-2.44-22-3.11-23.78A64.8,64.8,0,0,0,184.1,741c-9.79-11.24-23.73-18.6-38.81-18.6-14.43,0-28.09,6.78-37.73,17.36a65,65,0,0,0-12,19.17c-.79,1.93-8.13,25.39-3.77,25.39a1.6,1.6,0,0,0-1.58,1.58V947.77c-6-.28-12.54-.9-18.12.12A6,6,0,0,1,71,948V781.32c0-2.84.53-6.34,0-9.15a5.71,5.71,0,0,1-.11-2.31,2.42,2.42,0,0,1-1.45.33A1.62,1.62,0,0,0,71,768.61c1.37-39.59,37-66.91,75.1-66.91s73.73,27.32,75.11,66.91a1.61,1.61,0,0,0,1.58,1.58A1.69,1.69,0,0,1,221.35,769.65Zm28,178.24h-25V917.34h25Zm.55-243.36V876.75c0,11.33-1.86,24.36,0,35.55v1.88h-2c-7-1.65-16-.23-23.46,0V768.61a1.6,1.6,0,0,0-1.58-1.58c4.43,0-3.18-22.24-4.16-24.44A70.58,70.58,0,0,0,201.28,719c-15-13.44-35.07-20.5-55.15-20.5-19.52,0-39,6.66-53.9,19.44a71.18,71.18,0,0,0-17.94,23.16C73.1,743.61,64.91,767,69.43,767a1.6,1.6,0,0,0-1.58,1.58V914.18H26.9c-6.62,0-14.84-1.28-21.39,0H3.23l-.08,0a.53.53,0,0,0,0-.12c-1.19-25.51,0-51.37,0-76.89V688.09c0-1.37-.31-3.41-.19-5.07H4.81c8.77,2.11,20.91,0,29.87,0H238c3.12,0,7.2.66,10.27,0h1.64Zm0-27.8c-.22.2-.19,1.06,0,1.85v1.28H3.86a1.67,1.67,0,0,0-.71,0h-1c1.93-1,6.37-15.8,6.74-17,1.54-5.07,1.66-10.53,7.19-12.87,5.32.44,12.05,1.18,16.31-.24H228.15a6.58,6.58,0,0,0,.27,2.2v23.19a1.4,1.4,0,0,0,.39,1,.44.44,0,0,0,.08.11l.1.08a1.43,1.43,0,0,0,1,.39h19.91Zm0-94.18v91H231.58V577.35h0a54.48,54.48,0,0,1,.73-9.89c1.94-.17,4.08.09,6,.09,2.6,0,5.75.45,8.34,0a6.6,6.6,0,0,1,1-.09l.69,0c.7,0,1.26.16,1.63.2Zm.62-18.18L233.1,564c.36-1.26.82-2.56,1.35-3.91,3.69-7.17,7.74-14.49,10.08-21.93a8.59,8.59,0,0,1,.56-1.39c.16,0,.36,0,.65,0,2.71.08,5.43,0,8.14,0h10.63ZM283.2,947.89H252.8c-.05-.19-.11-.36-.15-.57v-8.88c.2-2.25.42-4.41.42-6.11v-15H283.2Zm0-378.47a87.8,87.8,0,0,0,0,9.32V914.18H253.07V681.44h0v-6.32h0V568.48a41.68,41.68,0,0,0,5.61-.09h14.39c1.89,0,7.29-.89,10.13-.43Zm57,378.47H286.56c0-.33-.13-.79-.2-1.33v-1.91c.49-3.48,0-7.32,0-10.83V917.34h53.81Zm69-20c0,6.57.15,13.17,0,19.74a.61.61,0,0,0,.06.28h-1.56c-4.09-.39-8.44,0-12.54,0H343.33V917.34h46.33c2.61,0,7.68-.76,12.34-1a1.61,1.61,0,0,0,2.94-.06,18.28,18.28,0,0,1,4.27.48,5.17,5.17,0,0,1,0,2.19C408.67,921.61,409.21,925.17,409.21,927.87ZM628.36,760.59c-.13,1.71,0,3.47,0,5.18V914.18h-30V776.55a1.6,1.6,0,0,0-1.58-1.58c2.91,0,1.49-11.93-.85-24.38a1.71,1.71,0,0,0-.14-.74c-2.3-12.12-5.4-24.52-6.16-26.76a139.3,139.3,0,0,0-21.3-40.55c-16.41-21.28-40.68-37-68.22-37s-51.82,15.74-68.23,37a139.54,139.54,0,0,0-21.3,40.55c-.78,2.31-3.76,14.34-6,26.23a1.66,1.66,0,0,0-.37,1.94C402,763.47,400.65,775,403.46,775a1.6,1.6,0,0,0-1.58,1.58V914.18h-30V765.77c0-1.71.12-3.47,0-5.18a8.94,8.94,0,0,1,0-1.19,1.41,1.41,0,0,1-1.53.93,1.6,1.6,0,0,0,1.58-1.58c1.27-71.23,51.28-144.42,128.2-144.42s126.93,73.19,128.19,144.42a1.61,1.61,0,0,0,1.58,1.58,1.42,1.42,0,0,1-1.53-.94A7.09,7.09,0,0,1,628.36,760.59Zm-36-11.64H407.87c8.82-48.53,38.59-100.27,92.27-100.27S583.58,700.42,592.41,749ZM492.24,798.34V947.89H440.19c-.17-4.35,0-8.75,0-13.1V822.06c0-9.87-2.44-23.45-.17-33.27h.35c3.46,0,6.92,0,10.37,0h29.85c3.28,0,7.17.59,10.4,0,.67-.12,1.14-.17,1.46-.2C493,791.51,492.24,795.63,492.24,798.34Zm67.57,11v134.8c0,1.09.21,2.51.13,3.72h-1.38c-9.25-1.67-20.36,0-29.76,0h-21V808.48c0-5.56.45-11.34,0-16.88a22,22,0,0,1-.12-2.9c.21,0,.46.07.78.1,8.27.85,17.06,0,25.37,0s17.09.84,25.36,0c.32,0,.57-.07.78-.11a22.51,22.51,0,0,1-.12,3.35C559.41,797.75,559.81,803.64,559.81,809.37Zm27.82,106.39v32.13H563V787.22a1.6,1.6,0,0,0-1.58-1.58H506.18a1.61,1.61,0,0,0-1.58,1.58V947.89h-9.2V787.22a1.61,1.61,0,0,0-1.58-1.58H438.61a1.6,1.6,0,0,0-1.58,1.58V947.89H412.37V915.76a1.6,1.6,0,0,0-1.58-1.58H405V783.24c0-1.63.13-3.31,0-4.93a9.13,9.13,0,0,1,0-1.08,1.42,1.42,0,0,1-1.53.9,1.6,1.6,0,0,0,1.58-1.58,169.79,169.79,0,0,1,2.27-24.44H593a169.74,169.74,0,0,1,2.26,24.44,1.61,1.61,0,0,0,1.58,1.58c-2,0-1.47-2.68-1.56-.13-.05,1.56,0,3.12,0,4.68v131.5h-6A1.6,1.6,0,0,0,587.63,915.76ZM653,947.89H590.78c-.36-2.49,0-5.39,0-7.91,0-6.82,1.18-14.74,0-21.44a5.35,5.35,0,0,0-.36-1.25,3.48,3.48,0,0,0,1.07.05c1.63-.12,3.3-.13,5-.11a1.73,1.73,0,0,0,.68,0c2,0,4,.11,6,.11H653ZM653,761.27a8.46,8.46,0,0,1-.09,1.12,44.83,44.83,0,0,0,0,5.91V914.18H631.52V758.75a1.61,1.61,0,0,0-1.58-1.58c5,0-4-40.49-5.06-44A156.36,156.36,0,0,0,606.09,672c-14.74-22.71-35.77-41.43-60.91-51.82-52.24-21.58-110.5-1.67-144.21,42.21a153.9,153.9,0,0,0-22.87,42.39c-1.44,4.08-13.66,52.42-7.76,52.42a1.6,1.6,0,0,0-1.58,1.58V914.18H343.33V768.86a39.59,39.59,0,0,0,0-6.16,6.79,6.79,0,0,1-.12-1.3,1.73,1.73,0,0,1-1.43.48,1.6,1.6,0,0,0,1.58-1.58c1.06-67,35.84-135,99.3-162.71s134.8-2.6,174.62,51.9c23.5,32.16,35,71.21,35.64,110.81a1.6,1.6,0,0,0,1.58,1.58C653.61,761.88,653.21,761.56,653,761.27Zm60.59,166.36v14.56a42.53,42.53,0,0,0-.08,5.66l-.37,0H712c-6-1.3-13.75,0-19.93,0h-36V917.34h57.52Zm0-344.56V914.18H656.11V760.3a1.61,1.61,0,0,0-1.58-1.58c5.6,0-5.48-50.12-6.67-54.14a187.84,187.84,0,0,0-22.19-48.45C607.9,628.67,582.48,606,552.1,593.54c-63.16-26-133.46-1.56-173.85,51.7a184.81,184.81,0,0,0-27.15,51c-1.57,4.51-15.87,62.46-9.35,62.46a1.61,1.61,0,0,0-1.58,1.58V914.18H286.36V568.39H713.63Zm.29-18c-.54,0-1.2.08-1.73.11h-.7c-8.8-1.05-18.38,0-27.23,0H286.12c-.11-.3-.22-.59-.34-.89a17,17,0,0,0-1.17-3.1l-9.3-24.45H718.43c2.07,0,4.17.07,6.24,0a21.46,21.46,0,0,0-1.49,4Q718.55,552.94,713.92,565.12Zm33,382.61c-.82-.49-3.18.16-5.63.16H716.8V917.34h30.13V925C746.93,932.44,747.61,940.29,747,947.73ZM735.49,536.79H746c2.4,0,5.4.54,7.73,0l.31-.06a1.27,1.27,0,0,1,.18.06,3.88,3.88,0,0,1,1.14.94c0,.15.1.29.13.41,2.33,7.4,6.34,14.68,10,21.81.54,1.39,1,2.73,1.37,4l-17.39.39Zm40.1,411.1h-25V917.34h25Zm111.95,0h-.61c-2.92-.1-5.85,0-8.77,0H847.49c-6.42,0-14.83-1.52-21,0h-1.56a20.89,20.89,0,0,1,.19-2.66c2-14.12,0-29.93,0-44.16V802.71h44.54c5.18,0,12.31-1.24,17.63-.21h0c.14,1.83,0,3.73,0,5.57V936.55C887.27,939.58,888.19,944.57,887.54,947.89Zm19.15-161.3a8.17,8.17,0,0,1,0,1.11c-.15,1.82,0,3.72,0,5.55V947.89H890.43V801.13a1.61,1.61,0,0,0-1.58-1.58H823.52a1.42,1.42,0,0,0-1,.39l-.11.08a.61.61,0,0,0-.07.1,1.43,1.43,0,0,0-.4,1V947.89H802.77V793.8c0-1.9.14-3.89,0-5.79a8.37,8.37,0,0,1,0-1.41,1.45,1.45,0,0,1-1.55.91,1.61,1.61,0,0,0,1.58-1.58c.93-29.17,19.8-60.06,51.93-60.34s51,31.6,51.93,60.34a1.6,1.6,0,0,0,1.58,1.58A1.42,1.42,0,0,1,906.69,786.59ZM929,772.17c-.57,3,0,6.73,0,9.83v166a5.29,5.29,0,0,1-1.22-.16c-2.62-.59-6.09,0-8.77,0h-9.19v-162a1.6,1.6,0,0,0-1.58-1.58c4.13,0-2.44-22-3.11-23.78A64.8,64.8,0,0,0,893.52,741c-9.78-11.24-23.73-18.6-38.81-18.6-14.43,0-28.09,6.78-37.73,17.36A65,65,0,0,0,805,759c-.79,1.93-8.13,25.39-3.77,25.39a1.6,1.6,0,0,0-1.58,1.58v162H778.75V776.94a43.53,43.53,0,0,0,0-6.15,7.64,7.64,0,0,1-.1-1.14,1.66,1.66,0,0,1-1.47.54,1.61,1.61,0,0,0,1.58-1.58c1.38-39.59,37-66.91,75.11-66.91S927.6,729,929,768.61a1.61,1.61,0,0,0,1.58,1.58,2.25,2.25,0,0,1-1.43-.34A6.16,6.16,0,0,1,929,772.17Zm68.07,175.68-.45,0c-3.33.36-6.88,0-10.22,0H937.31a48.43,48.43,0,0,0-5.16-.13v-3c.08-2.76,0-6.12,0-7.13,0-5.34.67-11.29,0-16.58v-3.66l.23,0h64.44c-.12,8.81-1.08,18.21,0,26.87A30.8,30.8,0,0,1,997.06,947.85ZM996.84,703V910c0,2.24-.37,3.59-.23,4.18H932.15V768.61a1.6,1.6,0,0,0-1.58-1.58c4.42,0-3.18-22.24-4.17-24.44A70.55,70.55,0,0,0,909,719c-15-13.44-35.08-20.5-55.15-20.5-19.53,0-39,6.66-53.91,19.44A71.18,71.18,0,0,0,782,741.14c-1.18,2.47-9.37,25.89-4.85,25.89a1.6,1.6,0,0,0-1.58,1.58V914.18H750.1s0-.07,0-.12V683h1c8.59,1.92,20,0,28.72,0H983.68c3.47,0,7.41.51,10.85,0H997l.36.09C998.59,688.59,996.84,698.12,996.84,703Zm-18-23.11h-211c-4.78,0-9.73-.38-14.5,0h-3.17a3.4,3.4,0,0,0-.1-.41v-2.66c1.3.42,6.26-.09,7.93-.09h12a1.42,1.42,0,0,0,1-.39l.1-.08.08-.1a1.47,1.47,0,0,0,.39-1V649.73H967.66c3.66,1.22,9.08.85,13.9.45,4.67.83,5.33,2.21,8.11,7.9.37.77,7,20.89,8.43,21.78Z"/><path d="M704.26,797H690.77a1.61,1.61,0,0,0-1.58,1.58v44.25a1.43,1.43,0,0,0,.39,1,1,1,0,0,1,.08.11l.1.07a1.43,1.43,0,0,0,1,.39h13.49a1.6,1.6,0,0,0,1.58-1.58V798.6A1.61,1.61,0,0,0,704.26,797Zm-1.4,44.28-.16,0a21.8,21.8,0,0,0-4.35,0h-6V812.19c0-3.87-.42-8.08-.09-12,1.19,0,2.4,0,3.58,0a52.35,52.35,0,0,0,6.73,0,14.4,14.4,0,0,1,.11,1.91c-.23,2.53,0,5.22,0,7.76v20.24C702.68,833.58,703.23,837.68,702.86,841.3Zm.66.09c.26-.08.36,0,0,0Z"/><path d="M967.23,491.48H956.7a1.6,1.6,0,0,0-1.58,1.58v35.4a1.47,1.47,0,0,0,.38,1l.09.1.1.08a1.43,1.43,0,0,0,1,.39h10.53a1.6,1.6,0,0,0,1.58-1.58v-35.4A1.6,1.6,0,0,0,967.23,491.48Zm-1.58,35.4h-7.37V494.64h7.37Z"/><path d="M958.38,433.32H950a1.61,1.61,0,0,0-1.58,1.58v20.23a1.47,1.47,0,0,0,.39,1l.08.1.1.08a1.45,1.45,0,0,0,1,.39h8.43a1.6,1.6,0,0,0,1.58-1.58V434.9A1.6,1.6,0,0,0,958.38,433.32Zm-1.58,20.23h-5.27V436.48h5.27Z"/><path d="M941.31,433.32h-8.43a1.61,1.61,0,0,0-1.58,1.58v20.23a1.47,1.47,0,0,0,.39,1,1,1,0,0,1,.08.11l.1.07a1.45,1.45,0,0,0,1,.39h8.43a1.6,1.6,0,0,0,1.58-1.58V434.9A1.6,1.6,0,0,0,941.31,433.32Zm-1.58,20.23h-5.27V436.48h5.27Z"/><path d="M802.75,786.6c0-.17,0-.23,0,0Z"/><path d="M906.69,786.59c0-.39-.09-.26,0,0Z"/><path d="M662.29,368.36c0-.62-.17-.37,0,0Z"/><path d="M557,368.63c.36-.45,0-.9,0,0Z"/><path d="M715.21,372.64H705.1a1.6,1.6,0,0,0-1.58,1.58v48a1.4,1.4,0,0,0,.39,1,1,1,0,0,0,.08.11l.1.08a1.43,1.43,0,0,0,1,.39h10.11a1.6,1.6,0,0,0,1.58-1.58v-48A1.6,1.6,0,0,0,715.21,372.64Zm-1.58,12.12v20c0,5.19,0,10.39,0,15.58,0,.11,0,.2,0,.3h0c-2.31,0-4.63,0-7,0V392.6c0-4.74,1.26-11.51,0-16.11-.2-.72-.32-1.14-.39-1.38.1.28.26.68.39.69a46.2,46.2,0,0,0,6.85-.14,9,9,0,0,1,.1,1.77A68.93,68.93,0,0,0,713.63,384.76Z"/><path d="M695.77,192.22l.1.08a1.45,1.45,0,0,0,1,.39H707a1.6,1.6,0,0,0,1.58-1.58v-48a1.6,1.6,0,0,0-1.58-1.58H696.88a1.6,1.6,0,0,0-1.58,1.58v48a1.45,1.45,0,0,0,.39,1A1,1,0,0,0,695.77,192.22Zm2.69-47.57a46.2,46.2,0,0,0,6.85-.14,9.9,9.9,0,0,1,.11,1.77,68.93,68.93,0,0,0,0,7.33v35.62a2.91,2.91,0,0,0,0,.3h0c-2.32,0-4.64,0-7,0V161.45c0-4.74,1.27-11.5,0-16.11-.2-.72-.32-1.15-.39-1.38C698.17,144.24,698.34,144.65,698.46,144.65Z"/></g></g></svg>