<svg xmlns="http://www.w3.org/2000/svg" viewBox="0 0 1000 322.13"><title>Asset 17</title><g id="Layer_2" data-name="Layer 2"><g id="Layer_1-2" data-name="Layer 1"><path d="M282.91,282H269.3a.63.63,0,0,0-.62.62v24.06a.63.63,0,0,0,.62.63h13.61a.56.56,0,0,0,.39-.16l0,0,0,0a.56.56,0,0,0,.16-.4V282.57A.64.64,0,0,0,282.91,282Zm-.63,3.7V306h-9.73c-1.27,0-2.71-.43-2.73.19a17,17,0,0,1,.1-2.32V285.32a18.37,18.37,0,0,0,0-2.16,28.46,28.46,0,0,0,3.43,0h6.26c1.28,0,2.73.44,2.74-.19A18.45,18.45,0,0,1,282.28,285.65Z"/><path d="M356.93,282.73h-13.6a.64.64,0,0,0-.63.62v24.07a.64.64,0,0,0,.63.62h13.6a.58.58,0,0,0,.4-.16l0,0,0,0a.54.54,0,0,0,.16-.39V283.35A.64.64,0,0,0,356.93,282.73Zm-.62,3.7v20.36h-9.73c-1.27,0-2.71-.43-2.73.19a16.81,16.81,0,0,1,.1-2.31V286.1a18.37,18.37,0,0,0,0-2.16,28.65,28.65,0,0,0,3.43,0h6.26c1.28,0,2.73.43,2.73-.2A17.18,17.18,0,0,1,356.31,286.43Z"/><path d="M358.31,157.68H346.77a.63.63,0,0,0-.62.62v19a.63.63,0,0,0,.62.63h11.54a.56.56,0,0,0,.39-.16l0,0s0,0,0,0a.56.56,0,0,0,.16-.4v-19A.64.64,0,0,0,358.31,157.68Zm-11.15,19c-.24-.05-.16-.21,0,0Zm10.52-16.25v16.19H350a9.74,9.74,0,0,0-2.29,0,1.72,1.72,0,0,1-.38.07c0-.54.07-1.15.07-1.62V160.47c0-.29.1-1,.07-1.52a22.94,22.94,0,0,0,2.53,0h5.1a9.74,9.74,0,0,0,2.29,0,1.76,1.76,0,0,1,.37-.07C357.78,159.4,357.68,160,357.68,160.47Zm.23-1.6c.25,0,.17.21,0,0Z"/><path d="M310.87,177.91H322.4a.58.58,0,0,0,.4-.16l0,0,0,0a.56.56,0,0,0,.16-.4v-19a.64.64,0,0,0-.63-.62H310.87a.64.64,0,0,0-.63.62v19A.64.64,0,0,0,310.87,177.91Zm11.14-19c.25,0,.16.21,0,0Zm-10.52,16.24V160.47c0-.29.09-1,.07-1.52a22.75,22.75,0,0,0,2.52,0h5.11a9.74,9.74,0,0,0,2.29,0,1.66,1.66,0,0,1,.37-.07c0,.54-.07,1.15-.07,1.61v16.19h-7.7a9.74,9.74,0,0,0-2.29,0,1.56,1.56,0,0,1-.37.07C311.4,176.19,311.49,175.58,311.49,175.11Zm-.23,1.61c-.25-.05-.16-.21,0,0Z"/><path d="M274.37,177.91h11.54a.54.54,0,0,0,.39-.16l.05,0,0,0a.56.56,0,0,0,.15-.4v-19a.63.63,0,0,0-.62-.62H274.37a.64.64,0,0,0-.62.62v19A.63.63,0,0,0,274.37,177.91Zm11.15-19c.24,0,.16.21,0,0ZM275,175.11V160.47c0-.29.1-1,.07-1.52a22.94,22.94,0,0,0,2.53,0h5.1a9.74,9.74,0,0,0,2.29,0,1.72,1.72,0,0,1,.38-.07c0,.54-.07,1.15-.07,1.61v16.19h-7.7a9.74,9.74,0,0,0-2.29,0,1.72,1.72,0,0,1-.38.07C274.9,176.19,275,175.58,275,175.11Zm-.23,1.61c-.24-.05-.16-.21,0,0Z"/><path d="M238.2,177.91h11.54a.56.56,0,0,0,.39-.16l.05,0s0,0,0,0a.56.56,0,0,0,.16-.4v-19a.64.64,0,0,0-.62-.62H238.2a.63.63,0,0,0-.62.62v19A.63.63,0,0,0,238.2,177.91Zm11.14-19c.25,0,.17.21,0,0Zm-10.52,16.24V160.47c0-.29.1-1,.07-1.52a22.94,22.94,0,0,0,2.53,0h5.1a9.74,9.74,0,0,0,2.29,0,1.72,1.72,0,0,1,.38-.07c0,.54-.08,1.15-.08,1.61v16.19h-7.69a9.74,9.74,0,0,0-2.29,0,1.72,1.72,0,0,1-.38.07C238.73,176.19,238.82,175.58,238.82,175.11Zm-.23,1.61c-.24-.05-.16-.21,0,0Z"/><path d="M203.55,177.91h11.54a.54.54,0,0,0,.39-.16l.05,0,0,0a.53.53,0,0,0,.16-.4v-19a.64.64,0,0,0-.62-.62H203.55a.63.63,0,0,0-.62.62v19A.63.63,0,0,0,203.55,177.91Zm11.15-19c.24,0,.16.21,0,0Zm-10.53,16.24V160.47c0-.29.1-1,.07-1.52a22.94,22.94,0,0,0,2.53,0h5.1a9.74,9.74,0,0,0,2.29,0,1.72,1.72,0,0,1,.38-.07c0,.54-.07,1.15-.07,1.61v16.19h-7.7a9.74,9.74,0,0,0-2.29,0,1.72,1.72,0,0,1-.38.07C204.08,176.19,204.17,175.58,204.17,175.11Zm-.23,1.61c-.24-.05-.16-.21,0,0Z"/><path d="M167.63,177.91h11.53a.58.58,0,0,0,.4-.16l0,0,0,0a.56.56,0,0,0,.15-.4v-19a.63.63,0,0,0-.62-.62H167.63a.64.64,0,0,0-.63.62v19A.64.64,0,0,0,167.63,177.91Zm11.14-19c.25,0,.16.21,0,0Zm-10.52,16.24V160.47c0-.29.09-1,.07-1.52a22.75,22.75,0,0,0,2.52,0H176a9.74,9.74,0,0,0,2.29,0,1.56,1.56,0,0,1,.37-.07c0,.54-.07,1.15-.07,1.61v16.19h-7.7a9.74,9.74,0,0,0-2.29,0,1.66,1.66,0,0,1-.37.07C168.16,176.19,168.25,175.58,168.25,175.11Zm-.23,1.61c-.25-.05-.16-.21,0,0Z"/><path d="M133.45,178.66H145a.58.58,0,0,0,.4-.16l0,0,0,0a.56.56,0,0,0,.15-.4v-19a.63.63,0,0,0-.62-.62H133.45a.64.64,0,0,0-.62.62v19A.64.64,0,0,0,133.45,178.66Zm11.15-19c.24,0,.16.21,0,0Zm-10.52,16.24V161.22c0-.29.09-1,.07-1.52a22.75,22.75,0,0,0,2.52,0h5.11a9.74,9.74,0,0,0,2.29,0,1.18,1.18,0,0,1,.37-.07c0,.54-.07,1.15-.07,1.61v16.19h-7.7a9.74,9.74,0,0,0-2.29,0,1.76,1.76,0,0,1-.37.07C134,176.94,134.08,176.33,134.08,175.86Zm-.23,1.61c-.25-.05-.17-.21,0,0Z"/><path d="M98.6,177.91h11.53a.58.58,0,0,0,.4-.16l0,0,0,0a.56.56,0,0,0,.15-.4v-19a.63.63,0,0,0-.62-.62H98.6a.64.64,0,0,0-.63.62v19A.64.64,0,0,0,98.6,177.91Zm11.14-19c.25,0,.16.21,0,0ZM99.22,175.11V160.47c0-.29.09-1,.07-1.52a22.75,22.75,0,0,0,2.52,0h5.11a9.74,9.74,0,0,0,2.29,0,1.56,1.56,0,0,1,.37-.07c0,.54-.07,1.15-.07,1.61v16.19h-7.7a9.74,9.74,0,0,0-2.29,0,1.66,1.66,0,0,1-.37.07C99.13,176.19,99.22,175.58,99.22,175.11ZM99,176.72c-.25-.05-.16-.21,0,0Z"/><path d="M64.62,177.91H76.16a.54.54,0,0,0,.39-.16l0,0,0,0a.56.56,0,0,0,.15-.4v-19a.63.63,0,0,0-.62-.62H64.62a.64.64,0,0,0-.62.62v19A.64.64,0,0,0,64.62,177.91Zm11.15-19c.24,0,.16.21,0,0ZM65.25,175.11V160.47c0-.29.09-1,.07-1.52a22.78,22.78,0,0,0,2.52,0h5.1a9.74,9.74,0,0,0,2.29,0,1.72,1.72,0,0,1,.38-.07c0,.54-.07,1.15-.07,1.61v16.19h-7.7a9.74,9.74,0,0,0-2.29,0,1.72,1.72,0,0,1-.38.07C65.15,176.19,65.25,175.58,65.25,175.11ZM65,176.72c-.24-.05-.16-.21,0,0Z"/><path d="M43.1,157.68H31.56a.64.64,0,0,0-.62.62v19a.64.64,0,0,0,.62.63H43.1a.54.54,0,0,0,.39-.16l0,0,0,0a.56.56,0,0,0,.15-.4v-19A.63.63,0,0,0,43.1,157.68ZM32,176.72c-.25-.05-.17-.21,0,0Zm10.52-16.25v16.19h-7.7a9.74,9.74,0,0,0-2.29,0,1.72,1.72,0,0,1-.38.07c0-.54.08-1.15.08-1.62V160.47c0-.29.09-1,.07-1.52a22.78,22.78,0,0,0,2.52,0h5.1a9.74,9.74,0,0,0,2.29,0,1.72,1.72,0,0,1,.38-.07C42.57,159.4,42.48,160,42.48,160.47Zm.23-1.6c.24,0,.16.21,0,0Z"/><path d="M63,213.61H74.54a.53.53,0,0,0,.39-.15l0,0,0,0a.58.58,0,0,0,.15-.4V190.52a.63.63,0,0,0-.62-.62H63a.64.64,0,0,0-.62.62V213A.63.63,0,0,0,63,213.61Zm.62-3.8V193.09a19,19,0,0,0,.05-2,24.93,24.93,0,0,0,3,0h5.73c.51,0,1.09-.08,1.6,0a17.59,17.59,0,0,1-.07,2.92v18.33H65.49a13.69,13.69,0,0,1-1.93,0A22.08,22.08,0,0,1,63.62,209.81Z"/><path d="M97.85,214.42h11.54a.58.58,0,0,0,.39-.15l0,0,0,0a.53.53,0,0,0,.15-.39V191.33a.62.62,0,0,0-.62-.62H97.85a.63.63,0,0,0-.62.62V213.8A.63.63,0,0,0,97.85,214.42Zm.62-3.81V193.9a19.24,19.24,0,0,0,0-2,23,23,0,0,0,3,0h5.73c.5,0,1.08-.07,1.6,0a17.62,17.62,0,0,1-.07,2.92v18.32h-8.43a15.34,15.34,0,0,1-1.93,0A22.26,22.26,0,0,1,98.47,210.61Z"/><path d="M41.74,189.9H30.2a.63.63,0,0,0-.62.62V213a.62.62,0,0,0,.62.62H41.74a.55.55,0,0,0,.39-.15l0,0,0,0a.58.58,0,0,0,.16-.4V190.52A.64.64,0,0,0,41.74,189.9ZM41.11,194v18.33H32.69a13.72,13.72,0,0,1-1.93,0,20.11,20.11,0,0,1,.06-2.59V193.09a19,19,0,0,0,.05-2,24.76,24.76,0,0,0,3,0h5.74c.5,0,1.08-.08,1.6,0A18.72,18.72,0,0,1,41.11,194Z"/><path d="M131.21,214.42h11.54a.6.6,0,0,0,.39-.15l0,0,0,0a.54.54,0,0,0,.16-.39V191.33a.63.63,0,0,0-.62-.62H131.21a.62.62,0,0,0-.62.62V213.8A.63.63,0,0,0,131.21,214.42Zm.62-3.81V193.9a19.24,19.24,0,0,0,0-2,22.85,22.85,0,0,0,3,0h5.74c.5,0,1.08-.07,1.6,0a18.75,18.75,0,0,1-.08,2.92v18.32H133.7a15.38,15.38,0,0,1-1.93,0A20.26,20.26,0,0,1,131.83,210.61Z"/><path d="M167,214.42h11.53a.63.63,0,0,0,.4-.15l0,0,0,0a.53.53,0,0,0,.15-.39V191.33a.62.62,0,0,0-.62-.62H167a.63.63,0,0,0-.63.62V213.8A.64.64,0,0,0,167,214.42Zm.62-3.81V193.9a19.24,19.24,0,0,0,0-2,22.85,22.85,0,0,0,3,0h5.73c.51,0,1.09-.07,1.6,0a17.62,17.62,0,0,1-.07,2.92v18.32h-8.42a15.5,15.5,0,0,1-1.94,0A22.21,22.21,0,0,1,167.58,210.61Z"/><path d="M202.31,214.42h11.54a.58.58,0,0,0,.39-.15l0,0,0,0a.53.53,0,0,0,.15-.39V191.33a.62.62,0,0,0-.62-.62H202.31a.63.63,0,0,0-.62.62V213.8A.63.63,0,0,0,202.31,214.42Zm.62-3.81V193.9a19.24,19.24,0,0,0,0-2,23,23,0,0,0,3,0h5.73c.5,0,1.08-.07,1.6,0a17.62,17.62,0,0,1-.07,2.92v18.32H204.8a15.34,15.34,0,0,1-1.93,0A22.26,22.26,0,0,1,202.93,210.61Z"/><path d="M238.2,214.42h11.54a.6.6,0,0,0,.39-.15l.05,0s0,0,0,0a.54.54,0,0,0,.16-.39V191.33a.63.63,0,0,0-.62-.62H238.2a.62.62,0,0,0-.62.62V213.8A.63.63,0,0,0,238.2,214.42Zm.62-3.81V193.9a19.24,19.24,0,0,0,.05-2,23,23,0,0,0,3,0h5.73c.5,0,1.08-.07,1.6,0a18.75,18.75,0,0,1-.08,2.92v18.32h-8.42a15.34,15.34,0,0,1-1.93,0A20.26,20.26,0,0,1,238.82,210.61Z"/><path d="M273.07,214.42h11.54a.6.6,0,0,0,.39-.15l0,0,0,0a.54.54,0,0,0,.16-.39V191.33a.63.63,0,0,0-.62-.62H273.07a.62.62,0,0,0-.62.62V213.8A.63.63,0,0,0,273.07,214.42Zm.62-3.81V193.9a19.24,19.24,0,0,0,.05-2,22.85,22.85,0,0,0,3,0h5.74c.5,0,1.08-.07,1.6,0a18.75,18.75,0,0,1-.08,2.92v18.32h-8.42a15.38,15.38,0,0,1-1.93,0A20.26,20.26,0,0,1,273.69,210.61Z"/><path d="M309.65,214.42h11.53a.63.63,0,0,0,.4-.15s0,0,0,0l0,0a.54.54,0,0,0,.16-.39V191.33a.63.63,0,0,0-.63-.62H309.65a.63.63,0,0,0-.63.62V213.8A.64.64,0,0,0,309.65,214.42Zm.62-3.81V193.9a19.24,19.24,0,0,0,.05-2,22.85,22.85,0,0,0,3,0H319c.5,0,1.08-.07,1.6,0a18.75,18.75,0,0,1-.08,2.92v18.32h-8.42a15.38,15.38,0,0,1-1.93,0A20.26,20.26,0,0,1,310.27,210.61Z"/><path d="M357.93,191.54H346.39a.63.63,0,0,0-.62.62v22.46a.64.64,0,0,0,.62.63h11.54a.54.54,0,0,0,.39-.16l.05,0,0,0a.56.56,0,0,0,.15-.4V192.16A.62.62,0,0,0,357.93,191.54Zm-.62,4.14V214h-8.43a15.34,15.34,0,0,1-1.93,0,22.21,22.21,0,0,1,.07-2.6V194.73a19.59,19.59,0,0,0,0-2,23,23,0,0,0,3,0h5.73c.51,0,1.09-.07,1.6,0A17.62,17.62,0,0,1,357.31,195.68Z"/><path d="M325.11,220.8H304.2a.63.63,0,0,0-.53.94c2.31,4.06,2,8.08,2.07,12.63a.63.63,0,0,0,.62.62h2.36v23.68a.63.63,0,0,0,.63.62h11.53a.58.58,0,0,0,.4-.15l0,0,0,0a.58.58,0,0,0,.16-.4V235H324a.63.63,0,0,0,.62-.62c0-4.35-.64-8.71,1.08-12.63A.64.64,0,0,0,325.11,220.8Zm-4.85,10.88a28.73,28.73,0,0,0,0,4.73v21.64c-3.35,0-6.71.09-10.06,0h-.29a4.92,4.92,0,0,1,.06-.89,28.73,28.73,0,0,0,0-4.73V232.77c0-.36.11-1.4.06-2h.18c.39,0,.77,0,1.15,0,1.1,0,2.4,0,2.8,0h6.1Zm3.07-.86c0,.94.07,1.92,0,2.86-.31,0-.74.07-.91.07a2,2,0,0,0-.91.15V233a16.18,16.18,0,0,0,0-2.87.56.56,0,0,0-.16-.39l0,0s0,0,0,0a.58.58,0,0,0-.39-.16H309.35a.6.6,0,0,0-.44.19.63.63,0,0,0-.19.43h0v2.47h0v1.53h0c-.77.51-1.69-1.86-1.78-2.19-.58-2.21.51-4.89-.12-7.09a12.15,12.15,0,0,0-1.51-2.86h18.9C323.15,225,323.33,227.44,323.33,230.82Z"/><path d="M289.29,220.21H268.38a.63.63,0,0,0-.53.94c2.31,4.06,2,8.08,2.07,12.63a.62.62,0,0,0,.62.62h2.36v23.68a.64.64,0,0,0,.63.63h11.53a.58.58,0,0,0,.4-.16l0,0,0,0a.56.56,0,0,0,.16-.4V234.4h2.44a.62.62,0,0,0,.62-.62c0-4.35-.64-8.71,1.08-12.63A.64.64,0,0,0,289.29,220.21Zm-4.85,10.89a28.73,28.73,0,0,0,0,4.73v21.63c-3.35,0-6.71.09-10.06,0h-.29a5,5,0,0,1,.06-.89,28.73,28.73,0,0,0,0-4.73V232.18c0-.36.11-1.4.06-2h.18c.39,0,.77,0,1.15,0,1.1,0,2.4,0,2.8,0h6.1Zm3.07-.87c0,1,.07,1.92,0,2.86-.31,0-.75.07-.91.07a2,2,0,0,0-.91.15v-.86a16.07,16.07,0,0,0,0-2.86.58.58,0,0,0-.16-.4l0,0,0,0a.56.56,0,0,0-.4-.16H273.53a.64.64,0,0,0-.63.63v4c-.77.51-1.69-1.86-1.78-2.18-.58-2.22.51-4.9-.12-7.1a12.15,12.15,0,0,0-1.51-2.86h18.9C287.33,224.39,287.51,226.85,287.51,230.23Z"/><path d="M252.77,220.21H231.86a.63.63,0,0,0-.54.94c2.32,4.06,2,8.08,2.07,12.63a.63.63,0,0,0,.62.62h2.37v23.68a.63.63,0,0,0,.62.63h11.54a.54.54,0,0,0,.39-.16l0,0,0,0a.56.56,0,0,0,.15-.4V234.4h2.44a.63.63,0,0,0,.63-.62c0-4.35-.64-8.71,1.07-12.63A.63.63,0,0,0,252.77,220.21Zm-4.85,10.89a27.67,27.67,0,0,0,0,4.73v21.63c-3.35,0-6.72.09-10.06,0h-.3a8.09,8.09,0,0,1,.06-.89,27.67,27.67,0,0,0,0-4.73V232.18a19.29,19.29,0,0,0,.06-2h.19c.38,0,.76,0,1.14,0,1.1,0,2.4,0,2.8,0h6.11Zm3.06-.87c0,1,.08,1.92,0,2.86-.31,0-.74.07-.91.07a2,2,0,0,0-.91.15v-.86a15.18,15.18,0,0,0,0-2.86.58.58,0,0,0-.15-.4l0,0,0,0a.58.58,0,0,0-.4-.16H237a.64.64,0,0,0-.62.63v4c-.77.51-1.7-1.86-1.78-2.18-.59-2.22.51-4.9-.13-7.1a12.1,12.1,0,0,0-1.5-2.86h18.9C250.81,224.39,251,226.85,251,230.23Z"/><path d="M217.17,219.52H196.26a.63.63,0,0,0-.53.94c2.32,4,2,8.08,2.07,12.62a.63.63,0,0,0,.62.63h2.37v23.68a.63.63,0,0,0,.62.62h11.53a.56.56,0,0,0,.4-.15l0,0,0,0a.58.58,0,0,0,.16-.4V233.71H216a.63.63,0,0,0,.62-.63c0-4.34-.64-8.7,1.08-12.62A.63.63,0,0,0,217.17,219.52Zm-4.85,10.88a28.73,28.73,0,0,0,0,4.73v21.64c-3.35,0-6.71.09-10.06,0H202a6,6,0,0,1,.06-.88,28.73,28.73,0,0,0,0-4.73V231.48c0-.35.11-1.39.06-2h1.33c1.09,0,2.38,0,2.79,0h5.9a1.46,1.46,0,0,0,.21,0Zm3.07-.86c0,.94.07,1.91,0,2.86-.31,0-.74.07-.91.06a2.13,2.13,0,0,0-.91.16v-.86a16.18,16.18,0,0,0,0-2.87h0a.54.54,0,0,0-.16-.39l0-.05,0,0a.57.57,0,0,0-.38-.15H201.41a.63.63,0,0,0-.44.18.65.65,0,0,0-.18.44h0v2.48h0a.28.28,0,0,0,0,.13v1.4h0c-.78.52-1.7-1.85-1.79-2.18-.58-2.22.51-4.89-.12-7.09a12.4,12.4,0,0,0-1.51-2.87h18.9C215.21,223.7,215.39,226.16,215.39,229.54Z"/><path d="M146.48,220.21H125.57a.63.63,0,0,0-.53.94c2.32,4.06,2,8.08,2.07,12.63a.62.62,0,0,0,.62.62h2.37v23.68a.63.63,0,0,0,.62.63h11.53a.56.56,0,0,0,.4-.16l0,0,0,0a.56.56,0,0,0,.16-.4V234.4h2.44a.62.62,0,0,0,.62-.62c0-4.35-.64-8.71,1.08-12.63A.63.63,0,0,0,146.48,220.21Zm-4.85,10.89a28.73,28.73,0,0,0,0,4.73v21.63c-3.35,0-6.71.09-10.06,0h-.29a6.18,6.18,0,0,1,.06-.89,28.73,28.73,0,0,0,0-4.73V232.18c0-.36.11-1.4.06-2h.19c.38,0,.76,0,1.14,0,1.1,0,2.4,0,2.8,0h6.1Zm3.07-.87c0,1,.07,1.92,0,2.86-.31,0-.74.07-.91.07a2,2,0,0,0-.91.15v-.86a16.07,16.07,0,0,0,0-2.86.58.58,0,0,0-.16-.4l0,0,0,0a.55.55,0,0,0-.4-.16H130.72a.63.63,0,0,0-.62.63v2.48a.28.28,0,0,0,0,.13v1.4c-.78.51-1.7-1.86-1.79-2.18-.58-2.22.51-4.9-.12-7.1a12.15,12.15,0,0,0-1.51-2.86h18.9C144.52,224.39,144.7,226.85,144.7,230.23Z"/><path d="M181.83,218.86H160.92a.62.62,0,0,0-.54.93c2.32,4.06,2,8.08,2.07,12.63a.63.63,0,0,0,.63.62h2.36v23.68a.64.64,0,0,0,.62.63H177.6a.54.54,0,0,0,.39-.16l0,0,0,0a.56.56,0,0,0,.15-.4V233h2.45a.63.63,0,0,0,.62-.62c0-4.34-.64-8.71,1.07-12.63A.62.62,0,0,0,181.83,218.86ZM177,229.74a27.67,27.67,0,0,0,0,4.73v21.64c-3.35,0-6.71.08-10.06,0h-.3a5.91,5.91,0,0,1,.07-.89,28.61,28.61,0,0,0,0-4.72V230.82a19.59,19.59,0,0,0,.05-2h1.33c1.1,0,2.4,0,2.8,0H177Zm3.06-.87c0,.95.08,1.92,0,2.86-.3,0-.74.07-.91.07a2,2,0,0,0-.91.16v-.87a15.18,15.18,0,0,0,0-2.86.58.58,0,0,0-.15-.4l0,0,0,0a.55.55,0,0,0-.39-.15H166.06a.64.64,0,0,0-.57.38.6.6,0,0,0-.05.24v4c-.77.52-1.7-1.86-1.78-2.18-.59-2.22.51-4.9-.13-7.1a11.74,11.74,0,0,0-1.5-2.86h18.9C179.87,223,180,225.49,180,228.87Z"/><path d="M112,219.52H91.06a.63.63,0,0,0-.54.94c2.32,4,2,8.08,2.07,12.62a.64.64,0,0,0,.63.63h2.36v23.68a.64.64,0,0,0,.62.62h11.54a.53.53,0,0,0,.39-.15l.05,0,0,0a.58.58,0,0,0,.15-.4V233.71h2.45a.64.64,0,0,0,.62-.63c0-4.34-.64-8.7,1.07-12.62A.63.63,0,0,0,112,219.52Zm-4.85,10.88a27.67,27.67,0,0,0,0,4.73v21.64c-3.35,0-6.71.09-10.06,0h-.3a5.76,5.76,0,0,1,.07-.88,28.73,28.73,0,0,0,0-4.73V231.48a19.41,19.41,0,0,0,0-2h1.33c1.09,0,2.38,0,2.79,0h5.9a1.61,1.61,0,0,0,.22,0Zm3.06-.86c0,.94.08,1.91,0,2.86-.3,0-.74.07-.91.06a2.16,2.16,0,0,0-.91.16v-.86a15.29,15.29,0,0,0,0-2.87h0a.53.53,0,0,0-.15-.39l0-.05,0,0a.6.6,0,0,0-.39-.15H96.2a.63.63,0,0,0-.62.62v4c-.77.52-1.7-1.85-1.78-2.18-.59-2.22.51-4.89-.13-7.09a12.35,12.35,0,0,0-1.5-2.87h18.9C110,223.7,110.18,226.16,110.18,229.54Z"/><path d="M77.69,218.86H56.78a.62.62,0,0,0-.53.93c2.32,4.06,2,8.08,2.07,12.63a.62.62,0,0,0,.62.62h2.37v23.68a.63.63,0,0,0,.62.63H73.46a.56.56,0,0,0,.4-.16l0,0,0,0a.56.56,0,0,0,.16-.4V233h2.44a.62.62,0,0,0,.62-.62c0-4.34-.64-8.71,1.08-12.63A.63.63,0,0,0,77.69,218.86Zm-4.85,10.88a28.73,28.73,0,0,0,0,4.73v21.64c-3.35,0-6.71.08-10.06,0h-.29a6.18,6.18,0,0,1,.06-.89,28.61,28.61,0,0,0,0-4.72V230.82c0-.36.11-1.4.06-2h1.33c1.1,0,2.4,0,2.8,0h6.1Zm3.07-.87c0,.95.08,1.92,0,2.86-.31,0-.74.07-.91.07a2,2,0,0,0-.91.16v-.87a16.07,16.07,0,0,0,0-2.86.58.58,0,0,0-.16-.4l0,0,0,0a.53.53,0,0,0-.38-.15H61.93a.63.63,0,0,0-.57.38.47.47,0,0,0,0,.24v2.48a.28.28,0,0,0,0,.13v1.4c-.78.52-1.7-1.86-1.79-2.18-.58-2.22.51-4.9-.12-7.1a12.15,12.15,0,0,0-1.51-2.86h18.9C75.73,223,75.91,225.49,75.91,228.87Z"/><path d="M382.86,175.82h11.53a.58.58,0,0,0,.4-.15l0,0,0,0a.56.56,0,0,0,.16-.4v-19a.64.64,0,0,0-.63-.62H382.86a.63.63,0,0,0-.63.62v19A.63.63,0,0,0,382.86,175.82Zm11.14-19c.25,0,.16.21,0,0ZM383.48,173V158.39c0-.29.09-1,.07-1.52a22.47,22.47,0,0,0,2.52,0h5.11a9.24,9.24,0,0,0,2.29,0,1.55,1.55,0,0,1,.37-.06c0,.53-.07,1.15-.07,1.61v16.19h-7.7a9.74,9.74,0,0,0-2.29,0,1.56,1.56,0,0,1-.37.07C383.39,174.11,383.48,173.5,383.48,173Zm-.23,1.61c-.25,0-.16-.21,0,0Z"/><path d="M382.86,212.54h11.53a.58.58,0,0,0,.4-.15l0,0,0,0a.58.58,0,0,0,.16-.4V189.45a.64.64,0,0,0-.63-.62H382.86a.64.64,0,0,0-.63.62v22.47A.64.64,0,0,0,382.86,212.54Zm.62-3.81V192a19,19,0,0,0,0-2,24.76,24.76,0,0,0,3,0h5.74c.5,0,1.08-.08,1.6,0a18.72,18.72,0,0,1-.08,2.92V211.3h-8.42a13.72,13.72,0,0,1-1.93,0A20.31,20.31,0,0,1,383.48,208.73Z"/><path d="M419.3,214.57h11.54a.55.55,0,0,0,.39-.15l0,0,0,0a.54.54,0,0,0,.16-.4V191.48a.64.64,0,0,0-.62-.62H419.3a.62.62,0,0,0-.62.62V214A.63.63,0,0,0,419.3,214.57Zm.62-3.81V194.05a19.15,19.15,0,0,0,.05-2,23,23,0,0,0,3,0h5.73c.5,0,1.08-.07,1.6,0a18.78,18.78,0,0,1-.07,2.92v18.33h-8.43a13.69,13.69,0,0,1-1.93,0A20.31,20.31,0,0,1,419.92,210.76Z"/><path d="M419.3,175.82h11.54a.55.55,0,0,0,.39-.15l0,0s0,0,0,0a.56.56,0,0,0,.16-.4V156.93a.63.63,0,0,0-.62-.62H419.3a.62.62,0,0,0-.62.62V175.2A.62.62,0,0,0,419.3,175.82Zm10.95-18.52c-.25-.23,0-.39,0,0Zm-10.33,17.34a4.26,4.26,0,0,0,0-1.07V159c0-.29.09-1,.08-1.43a20.39,20.39,0,0,0,2.29,0h5.23c.79,0,1.83-.15,2.7-.07h0a5.14,5.14,0,0,0,0,1.3v15.79H423c-.89,0-2.06.17-3,.08Zm0,.19c.25.23,0,.4,0,0Z"/><path d="M418.5,253.85H430a.58.58,0,0,0,.4-.15l0,0,0,0a.58.58,0,0,0,.15-.4V230.76a.63.63,0,0,0-.62-.62H418.5a.64.64,0,0,0-.62.62v22.47A.64.64,0,0,0,418.5,253.85Zm.63-3.81V233.33a19.38,19.38,0,0,0,0-2,24.93,24.93,0,0,0,3,0h5.73c.51,0,1.09-.08,1.6,0a17.59,17.59,0,0,1-.07,2.92v18.33H421a13.84,13.84,0,0,1-1.94,0A22.27,22.27,0,0,1,419.13,250Z"/><path d="M468.67,156.31H457.13a.63.63,0,0,0-.62.62V175.2a.63.63,0,0,0,.62.62h11.54a.58.58,0,0,0,.4-.15l0,0,0,0a.56.56,0,0,0,.15-.4V156.93A.62.62,0,0,0,468.67,156.31Zm-10.95,18.52c.25.23,0,.4,0,0Zm10.33-17.34a5.65,5.65,0,0,0,0,1.3v15.79h-7.27c-.89,0-2.06.17-3,.08v0a4.78,4.78,0,0,0,0-1.07V159c0-.29.09-1,.07-1.43a20.58,20.58,0,0,0,2.3,0h5.22c.8,0,1.83-.15,2.7-.07Zm0-.19c-.24-.23.05-.39,0,0Z"/><path d="M468.67,190.86H457.13a.63.63,0,0,0-.62.62V214a.64.64,0,0,0,.62.62h11.54a.58.58,0,0,0,.4-.15s0,0,0,0l0,0a.58.58,0,0,0,.15-.4V191.48A.63.63,0,0,0,468.67,190.86Zm-.62,4.14v18.33h-8.42a13.84,13.84,0,0,1-1.94,0,22.27,22.27,0,0,1,.07-2.6V194.05a19.15,19.15,0,0,0,.05-2,22.85,22.85,0,0,0,3,0h5.73c.51,0,1.09-.07,1.6,0A17.62,17.62,0,0,1,468.05,195Z"/><path d="M467.87,230.14H456.34a.63.63,0,0,0-.62.62v22.47a.63.63,0,0,0,.62.62h11.53a.58.58,0,0,0,.4-.15l0,0,0,0a.58.58,0,0,0,.16-.4V230.76A.64.64,0,0,0,467.87,230.14Zm-.62,4.14v18.33h-8.42a13.72,13.72,0,0,1-1.93,0A20.31,20.31,0,0,1,457,250V233.33a19,19,0,0,0,.05-2,24.76,24.76,0,0,0,3,0h5.74c.5,0,1.08-.08,1.6,0A18.72,18.72,0,0,1,467.25,234.28Z"/><path d="M1000,271.59v0l-2.49-13.22a.55.55,0,0,0-.22-.35c-1.44-1.72-2.81-4.28-4.75-5.41,0,0,0,0,0-.06L988.3,148.58l-.24-7,4.92-4.92a.5.5,0,0,0,.21-.24v0l0,0q1-2.22,2-4.43a.64.64,0,0,0-.54-.94c-1.26,0-5.75.15-5.75.15-1.19-.89-2-4.48-2.59-6.1v-10.6a.64.64,0,0,0-.62-.63H638.39c-.85,0-2-.16-3.12-.18q-.4-13.71-.82-27.42,1.26-5.2,2.51-10.4h1.36a.64.64,0,0,0,.63-.62l.66-18.58a.62.62,0,0,0-1.06-.44l-4.45,5.28c-.07.09-.33.36-.6.66q-.43-6.4-.86-12.8a.64.64,0,0,0-.62-.63H603L555.72,44.2C543,43,529.84,40.74,517,40.46c0-1-.09-1.93-.13-2.9a.65.65,0,0,0-.63-.62l-.81,0V23.29a.64.64,0,0,0-.63-.62h-4.36a.61.61,0,0,0-.4.15s0,0,0,0l0,0a.54.54,0,0,0-.16.39V37.14a3.81,3.81,0,0,1-.79-.2c-.72-.27-1.36-2.79-2.7-3.51a1.82,1.82,0,0,0-.54-.19V.62a.55.55,0,0,0-.15-.39l0-.05,0,0a.54.54,0,0,0-.4-.16h-8.8a.63.63,0,0,0-.62.62V33.29h-.57a.55.55,0,0,0-.49.27l-.05,0c-1,1.33-1.78,2.66-2.66,3.12V23.29a.63.63,0,0,0-.62-.62h-4.37a.6.6,0,0,0-.39.15s0,0,0,0,0,0,0,0a.54.54,0,0,0-.16.39V36.87h-.59a.63.63,0,0,0-.62.62v3l-76.27,8.23h-40a.55.55,0,0,0-.51.31.56.56,0,0,0-.11.32l-.6,13c-1.6-1.67-2.91-4.24-4.22-6a.63.63,0,0,0-1.16.32V75.23a.63.63,0,0,0,.63.62h.84q1.34,5.2,2.68,10.41v27.59H19.72c-1.34,0-3.49-.41-4.79,0a2.15,2.15,0,0,1-.62,0,.64.64,0,0,0-.62.63v10.6c-.59,1.57-1.44,5.32-2.59,6.11.56-.39-1.63-.16-2.18-.16H5.35a.64.64,0,0,0-.54.94q1,2.21,2,4.43l0,0v0a.5.5,0,0,0,.21.24l4.92,4.92-.24,7L7.47,252.5s0,.05,0,.08c-1.94,1.14-3.29,3.65-4.75,5.39a.52.52,0,0,0-.22.35L0,271.54v0s0,.08,0,.11v49.62a.53.53,0,0,0,.15.39l0,.05,0,0a.58.58,0,0,0,.4.15H358c1.38,0,3.56.42,4.89,0a2.83,2.83,0,0,1,.65,0h46.3l21.07-.16a.65.65,0,0,0,.38-.15l0,0h17.83l21.91.17a.56.56,0,0,0,.41-.17h57.06a.56.56,0,0,0,.41.17l21.91-.17h17.83l0,0a.63.63,0,0,0,.38.15l21.07.16H993.84c1.38,0,3.56.42,4.88,0a2.91,2.91,0,0,1,.66,0,.55.55,0,0,0,.39-.15l.05,0,0,0a.54.54,0,0,0,.16-.4V271.7S1000,271.63,1000,271.59Zm-1.35-.51H982.44c0-.28,0-.6,0-.84v-3.47a55.27,55.27,0,0,0,0-7.28v-.42H984l12.35,0Q997.51,265.1,998.63,271.08Zm-6.57-17.32a33,33,0,0,1,3.51,4.08c-3.34-.07-6.67-.1-10-.06-2.47,0-5.39-.38-7.82.08h-.4l-.39,0c.07-.27.13-.55.19-.85.19-.56.4-1.11.54-1.63s.5-1.21.62-1.72a.87.87,0,0,1,.67-.39h9a16.7,16.7,0,0,1,3,0,1.59,1.59,0,0,0,.64.05A1.61,1.61,0,0,0,992.06,253.76Zm-32.63,15.13v2.19H844.87V260.51l82-.87,26.76-.28h0l5.79-.06V260C958.79,262.64,959.43,266.19,959.43,268.89ZM858.6,259.12l-14.35.15-84.81.89-12.12.13-97.09,1-4.14.05c-2.57,0-5.23-.15-7.79.08h-1.21v-.09c.42-4.34,0-8.92,0-13.26V222.19c1.48,3.81.92,8,.92,12.18a.63.63,0,0,0,.62.62h2.44v23.68a.63.63,0,0,0,.15.4l0,0,0,0a.58.58,0,0,0,.4.15h11.54a.62.62,0,0,0,.62-.62V235h2.37a.64.64,0,0,0,.62-.62c.08-4.55-.25-8.57,2.07-12.63a.63.63,0,0,0-.54-.94h-20.9a.59.59,0,0,0-.38.14V149.2h.13c5.78.59,11.94,0,17.75,0H975.38q1,34.37,2,68.72a.59.59,0,0,0-.45-.23H956a.64.64,0,0,0-.54.94c1.72,3.92,1.08,8.29,1.08,12.63a.62.62,0,0,0,.62.62h2.44v23.68a.58.58,0,0,0,.16.4l0,0,0,0a.56.56,0,0,0,.4.16h11.53a.64.64,0,0,0,.63-.63V231.88h2.36a.62.62,0,0,0,.62-.62c.08-4.51-.23-8.5,2-12.51q.32,10.67.62,21.35l.26,9.13h0c0,.87,0,1.74.07,2.61l0,.16h-.48a.62.62,0,0,0-.37.13.64.64,0,0,0-.23.33c-.43,1.52-1,3.06-1.31,4.61l-.23.81-1.12,0c-2.46-.17-5,.05-7.49.07l-7,.08Zm-21.88,16.71h-10.4a.64.64,0,0,0-.62.62c0,.39-.23,1.56,0,1.8a19.48,19.48,0,0,1-2.37-.12,19.77,19.77,0,0,1-2.38.12c.25-.24,0-1.41,0-1.8a.63.63,0,0,0-.62-.62h-12a.63.63,0,0,0-.62.62c0,.41-.25,1.58,0,1.8a20.71,20.71,0,0,1-2.17-.12c-.7,0-2.49.35-3.07,0-.39-.22-.06.11-.06-1.37a.64.64,0,0,0-.62-.62h-12.2a.63.63,0,0,0-.62.62c0,2.13.49,1.37-2.21,1.37s-2.21.67-2.21-1.37a.63.63,0,0,0-.62-.62H772.12a.64.64,0,0,0-.62.62c0,1.37.29,1.23,0,1.37-.55.31-2.13,0-2.78,0s-2.22.31-2.77,0c-.25-.14,0,0,0-1.37a.64.64,0,0,0-.63-.62H754.2a.64.64,0,0,0-.62.62c0,.14,0,.26,0,.38,0,.71.16.84.12.91a1.76,1.76,0,0,0-.78.08,3.89,3.89,0,0,1-.71.13c-.58,0-1.17-.13-1.5-.13s-.57,0-.94.08-.89-.07-1.27-.08a3.91,3.91,0,0,0-.58,0l-.09,0-.1-.06a2.57,2.57,0,0,0,.19-1v-.27a.43.43,0,0,0,0-.05v-13.6c0-.7.17-1.34.1-1.63l3.43,0,1.71,0h0l9.27-.1,75.68-.79a34.85,34.85,0,0,0,4.57-.05h.92v15.93c0,1.07-.1,1.89.27,1.68-.63.36-2.72,0-3.41,0a12.21,12.21,0,0,1-3.08,0,.88.88,0,0,0-.06-.17,5.37,5.37,0,0,1,0-1.55A.64.64,0,0,0,836.72,275.83Zm-90-1.13a2.06,2.06,0,0,1,0,.35v.06c0,.41-.1.8-.08,1H637.11a16.26,16.26,0,0,0,0-3.36v-.45H746.74A10,10,0,0,0,746.69,274.7Zm-1.26-3.62c-2.64-.22-5.4,0-8,0H637.16c0-.16,0-.42-.07-.75v-.72a55.08,55.08,0,0,0,0-6.92l103.33-1.08h0l6.14-.07h.12c0,2,0,4,0,5.94,0,.39,0,.78,0,1.14,0,.17,0,.44,0,.74,0,.57,0,1.15,0,1.72ZM655.64,232c-.17.63-.34,1.89-1.35,2a1,1,0,0,1-.44,0v-.25a1,1,0,0,0,0-.66v-2.87a.59.59,0,0,0-.05-.23.62.62,0,0,0-.57-.39H641.68a.63.63,0,0,0-.38.15s0,0,0,0,0,0,0,0a.54.54,0,0,0-.16.39,17.19,17.19,0,0,0,0,2.87v.82a2.35,2.35,0,0,0-.91-.11c-.2,0-.59.05-.92.05a14.84,14.84,0,0,1,0-3c0-3.39.17-5.84-.88-8.77h18.88a9.86,9.86,0,0,0-1.48,2.78C655.21,227.09,656.23,229.75,655.64,232Zm-13.32-.32v-.88h8.21a7.12,7.12,0,0,0,1.6,0,1.89,1.89,0,0,1,.43-.05,18.22,18.22,0,0,0,.05,2v19.66a27.67,27.67,0,0,0,0,4.73,5.33,5.33,0,0,1,0,.89h-.28c-3.35.09-6.71,0-10.06,0V236.41A28.73,28.73,0,0,0,642.32,231.68ZM637.09,144a14.14,14.14,0,0,0,0-2v0h345c1.31,0,3.38.41,4.65,0a12.72,12.72,0,0,0,.11,1.54c0,1.47.1,2.95.16,4.42H637.1a.25.25,0,0,0,0-.08v-1A16.71,16.71,0,0,0,637.09,144Zm337.07,84.9c-.17.63-.34,1.88-1.35,2a1,1,0,0,1-.43,0v-.25a1.14,1.14,0,0,0,0-.67h0v-2.86h0a.65.65,0,0,0-.39-.58.6.6,0,0,0-.24-.05H960.22a.58.58,0,0,0-.4.16l0,0,0,0a.56.56,0,0,0-.16.4,18.2,18.2,0,0,0,0,2.86v.82a2.32,2.32,0,0,0-.91-.11c-.19,0-.59.06-.92.05a14.84,14.84,0,0,1,0-3c0-3.38.18-5.84-.88-8.77h18.88a9.86,9.86,0,0,0-1.48,2.78C973.73,224,974.76,226.65,974.16,228.9Zm-13.32-.32v-.89H967c.33,0,1.21,0,2.1,0a6.19,6.19,0,0,0,1.61,0,1.81,1.81,0,0,1,.42-.05,18.22,18.22,0,0,0,0,2v19.66a28.73,28.73,0,0,0,0,4.73,6.41,6.41,0,0,1,.06.89h-.29c-3.35.09-6.71,0-10.06,0V233.31A28.73,28.73,0,0,0,960.84,228.58Zm-.17,42.08a11.22,11.22,0,0,0,0-2.59v-8.78l15.47-.17h.92l4.11,0V271c-.23,0-.66.1-1.32.1H960.67Zm30.06-31.89c.13,3.21,0,6.62.4,9.8.44,3.37,1.3,2.8-1.24,3.32-.11,0-.22,0-.33.05-1.51-.07-3-.08-4.56-.06a14.36,14.36,0,0,0-4.59.09l-.84,0v-.15h0l-.11-3.85h0q-.6-20.62-1.19-41.24-.63-22.25-1.27-44.5c-.09-2.86-.17-5.73-.25-8.59h0l-.12-4.3a.28.28,0,0,0,0-.16H978a5.83,5.83,0,0,0,1.88,0,30.13,30.13,0,0,0,3.93.09,9.07,9.07,0,0,0,3.19-.08h.08Q988.91,194,990.73,238.77Zm-3.56-98H641.78c-1.33,0-3.41-.41-4.68,0h0V139a4.09,4.09,0,0,0,0-.7V137a1,1,0,0,0,0-.2h354Zm-1.2-13.3c.55,1.53,1.28,3,1.92,4.53a.61.61,0,0,0,.54.3c1.73,0,3.59-.17,5.33,0a8.07,8.07,0,0,1-.46.93,22.49,22.49,0,0,0-1,2.34H645.61c-2.63,0-3.7-.6-4.11-1.77l-.15-4.91a.64.64,0,0,0-.24-.48.56.56,0,0,0-.38-.15l-4.83.06-.82.06-.16,0c.18.08-.67-.63-1.31-1.32V125.8H980.28c1.34,0,3.49.41,4.79,0a1,1,0,0,1,.25,0C985.24,126,985.83,127.05,986,127.44ZM603.42,124l0-.05,0,0a.58.58,0,0,0-.4-.16H397.05a.63.63,0,0,0-.62.62V129a7.72,7.72,0,0,0-1.36-1.49l-.08-.06a6.65,6.65,0,0,1-.43-.84h0c-.29-1.05-.58-2.09-.86-3.14,0-.1-.05-.2-.07-.3a8.79,8.79,0,0,0-.44-1.64l-.12-.48H607l0,.17a2.09,2.09,0,0,1-.16.27,10.74,10.74,0,0,0-.92,3.39c-.08.3-.17.6-.25.9a11.32,11.32,0,0,1-.92,1.92,7.35,7.35,0,0,0-1.17,1.31v-4.59A.55.55,0,0,0,603.42,124Zm.47,119.19a22.38,22.38,0,0,0,.16,4.29h-2.44c-2.5,0-5.1-.21-7.58,0h-1.32a18.87,18.87,0,0,0,0-3.91c0-1.64-.06-3.29,0-4.91l0-21.44c0-2.15,0-4.3,0-6.45q.06-28.31.14-56.61c0-1.11.39-3.14.1-4.37l.06,0a16.87,16.87,0,0,0,2.22-1.55l2.36-1.64,4.69,3.3c0,.13,0,.27,0,.4-.7,3.34.14,7.61.19,10.3l1,51.68q.16,8.66.32,17.31C603.89,234.09,603.71,238.7,603.89,243.23ZM617.52,258a4.17,4.17,0,0,1-1.22.06,18.39,18.39,0,0,0-3.48,0h-4.31a26,26,0,0,0-.12-3.87c0-.14,0-.26-.08-.39a.43.43,0,0,0,0-.12,3.38,3.38,0,0,0-.08-.34,12.22,12.22,0,0,0-2-4,9.1,9.1,0,0,1-.86-2.9c0-.26,0-.54,0-.82,0-.69,0-1.39,0-2.08h0q-.09-5.13-.19-10.26c0-1,.31-2.7,0-3.1V230a28.56,28.56,0,0,1,4.67.18c2,0,4.56.42,6.55,0a5.49,5.49,0,0,1,1-.08.57.57,0,0,1,0,.13c.12,1.53,0,3.11,0,4.64v14.57C617.26,251.12,618.09,255.87,617.52,258Zm-226,8.8a1.69,1.69,0,0,0,0-.23,8.41,8.41,0,0,1,0-1.74l0-.09a1.53,1.53,0,0,0,.33,0h.35l2.74,0h0l6.75.06,13.48.12c29.43.28,58.89,1,88.32.76l4.23,0c18.67-.06,37.34-.35,56-.52l19.91-.18,22-.21h2.81a.14.14,0,0,1,0,.06c0,.24,0,.51.07.8,0,.53-.1,1.11-.1,1.44v2.4l-.32,0H391.53V267A1.79,1.79,0,0,0,391.52,266.79Zm-1.23,3.46v1h-.67c-4.21-.89-9.57-.06-13.86-.08l-11.61-.08V262.7h27.46v.53a.93.93,0,0,1-.7.22.62.62,0,0,0-.62.62C390.29,266,389.93,268.33,390.29,270.25Zm0,2.25v3.59c-.37,0-.89.07-1.15.05-1.34-.08-2.72,0-4.07,0H373.83c-3,0-6-.14-9,0h-.67v-3.81l14.33.09h1.65c3,0,6.28.4,9.26.05h.9Zm-26.14-15.57V147.5a1.73,1.73,0,0,0,0-.46h29.11a4.4,4.4,0,0,1,1,.39c.57.64,1.14,1.27,1.7,1.91a5.35,5.35,0,0,1,.4,1.77L395,229H382.11a.64.64,0,0,0-.62.63v29.08a.63.63,0,0,0,.62.62h9.38c.05.75.09,1.47.11,2.17H368.77c-1.08,0-2.21-.09-3.29,0-.29,0-.89-.07-1.31-.07a1.64,1.64,0,0,0,0-.23v-.43A21,21,0,0,0,364.15,256.93Zm0-119.78v-.4h32.24c0,.06,0,.12,0,.2v3.59c-.08.38-.2.82-.35,1.29l-2,3.64a1.85,1.85,0,0,0-.33.35,10.83,10.83,0,0,0-1.52,0c-1.78-.06-3.58,0-5.36,0H364.15v-4.44A23.65,23.65,0,0,0,364.15,137.15Zm33.53-11.41c0-.12,0-.24,0-.36s0-.28,0-.38a4.93,4.93,0,0,1,.71.06c5.37.86,11.61,0,17,0h186.9v5.14a13.5,13.5,0,0,0,0,2.84,1.77,1.77,0,0,1,0,.23l-3.18,0h0l-20.71-.1L547,133l-34.36-.17c-24.47-.12-48.93.12-73.4.24l-25.3.12h-.29l-15.78.08-.17,0c0-.37-.05-.74-.1-1.09,0-.11,0-.23,0-.34a.54.54,0,0,0,.09-.31C397.67,129.71,398.07,127.46,397.68,125.74Zm204.54,15-11.92-.08H565l-11.54.07-.29,0h-1.69l-24.81-.09h-12a10.93,10.93,0,0,0-2.62,0H487.86a.56.56,0,0,0-.3.09h-.76a10.89,10.89,0,0,0-1.52-.09h-12l-24.81.09h-1.68l-.3,0L435,140.65H409.7l-11.93.08a29.12,29.12,0,0,0-.08-4,4.39,4.39,0,0,0,0-1c0-.26,0-.51,0-.77a2.55,2.55,0,0,0,0-.48v0h1.71l13.37-.06,74.76-.36q10-.06,19.91,0l92.67.45h2.22c0,.52,0,1.06,0,1.62A43.62,43.62,0,0,0,602.22,140.73ZM587.49,147l2.62,1.84a9.13,9.13,0,0,0,1.49,1.07,11,11,0,0,0,0,3c0,2.67,0,5.36,0,8l-.09,34.46-.09,36c0,2.39,0,4.78,0,7.17,0,2.89,0,5.79,0,8.69a4.55,4.55,0,0,1-.16,1c-.38.65-.73,1.23-1,1.8a7.11,7.11,0,0,0-1.1,1.94,6.53,6.53,0,0,0-.1,1.47c0,.09,0,.18,0,.28a2,2,0,0,1-.05.26.61.61,0,0,0,0,.11H568.29a6.77,6.77,0,0,0-.17-2.39,11.81,11.81,0,0,0-2.46-3.78h0c0-1.55,0-3.09-.07-4.64h0l-.21-12.69q-.61-37.6-1.24-75.22c0-1.48.45-4.1-.07-5.54q2-1.78,4-3.56a.62.62,0,0,0,.09-.75c-.67-1.19-1.35-2.37-2-3.55h14.3a36.21,36.21,0,0,0,7.72,0h1.07c-.75,1.31-1.32,2.78-2,4.13A.65.65,0,0,0,587.49,147ZM607.14,263.1v.36c-29.86,0-59.72.52-89.58.82-25.95.2-51.89-.15-77.84-.39l-4.9-.05h0c-9.49-.09-19-.22-28.48-.31-4.38-.13-8.82-.34-13.15-.07h-.31a1.83,1.83,0,0,0,0-.21v-.82a26,26,0,0,0,0-3.95v-.16c0-.92,0-1.77,0-2.56,0-.1,0-.21,0-.31a.25.25,0,0,1,0-.09H573.15c11,0,22,.46,33,0h1v4.51A29,29,0,0,0,607.14,263.1Zm-215.72-5.05h-4.24a18.39,18.39,0,0,0-3.48,0,4.17,4.17,0,0,1-1.22-.06c-.53-2,.26-6.47.26-8.06v-15c0-1.53-.12-3.11,0-4.64a.57.57,0,0,1,0-.13,5.49,5.49,0,0,1,1,.08c2,.42,4.52,0,6.55,0a28.56,28.56,0,0,1,4.67-.18v.13c-.36.4,0,2.11-.05,3.1s0,1.68-.05,2.52l-.19,10.37a9.4,9.4,0,0,1-.92,3.19,19,19,0,0,0-1.51,2.64,5.58,5.58,0,0,0-.6,1.45A17.93,17.93,0,0,0,391.42,258.05Zm4.65-12.6c.78-5.47,0-11.79.14-17.2q.21-11,.41-22l.09-4.9c0-1.17.05-2.34.07-3.51q.44-24,.89-48l4.45-3.14c.19,0,.27-.09.29-.13l0,0a2.56,2.56,0,0,0,.75.52l3.34,2.33a2.17,2.17,0,0,0,.51.39,16.71,16.71,0,0,0,.05,2.47l.06,23.5q0,17.46.08,34.93l.06,22.49c0,2,0,4,0,6,0,2.6-.36,5.52,0,8.1a.43.43,0,0,0,0,.11H406c-2.33-.23-4.81,0-7.16,0H396A11.7,11.7,0,0,0,396.07,245.45Zm11.62,3.31a1.38,1.38,0,0,0,.18.48c.68,1.6,1.7,3,1.9,4.87h-.54c-4.64-.59-9.73,0-14.41,0H393a8.41,8.41,0,0,1,.44-1.55,41,41,0,0,0,2.22-3.8Zm.67-98.88.06,0a4.64,4.64,0,0,0,.77-.54l3.32-2.33a.64.64,0,0,0,.22-.85c-.65-1.34-1.21-2.84-2-4.13h1.07a36.21,36.21,0,0,0,7.72,0h14.3c-.68,1.18-1.36,2.36-2,3.55a.63.63,0,0,0,.09.75l3.55,3.13a3.18,3.18,0,0,1,.36.77,26.09,26.09,0,0,0,.08,3.36l-.06,3.43h0c0,2.23-.07,4.47-.11,6.71-.06,3.77-.12,7.53-.19,11.3q-.44,27.3-.89,54.61c0,2.24-.07,4.48-.11,6.72-.06,3.78-.13,7.57-.19,11.36a3,3,0,0,1-.12.36,13.79,13.79,0,0,0-2.27,3.56,6.25,6.25,0,0,0-.24,2.52H411.34l-.22,0a1.06,1.06,0,0,0-.05-.47,18.21,18.21,0,0,0-.33-1.87c-1.14-3-2.16-3.07-2.16-6.06q-.12-45.15-.23-90.31C408.34,153.94,408.85,151.31,408.36,149.88Zm156,97.57c-1.63-.31-3.84.07-5.27.07a25.82,25.82,0,0,0-4.58-.05c.3-1.74-.06-3.95-.06-5.65q0-13.9,0-27.8,0-30.14,0-60.26a20.89,20.89,0,0,0,.09-4l1.92-1.63c.2-.17.75-.62,1.2-1l.32-.27a3.62,3.62,0,0,1,.37-.29h0a25.54,25.54,0,0,0,2.11,1.67,25.27,25.27,0,0,0,2.16,1.56,14.86,14.86,0,0,0,.13,2.92c0,2,.07,4,.1,6l.3,18.06.39,23.75q.14,7.94.26,15.86.2,11.61.38,23.23C564.31,242.09,563.94,245,564.39,247.45Zm.23,1.31.14,0,.07.1c.72,1.76,1.93,3.12,2.14,5.23H551.62c.17-2.31,1.29-2.73,2.32-5,0-.11.09-.2.14-.29a7.09,7.09,0,0,0,1.07,0c2.25.11,4.54,0,6.79,0Zm-1.31-100.09c-1.2-1.35-3.34-2.38-4.68-3.37a.64.64,0,0,0-.76.1,29.71,29.71,0,0,0-3.88,3.22l0,0a21.06,21.06,0,0,0-3.85-2.75c-.28-.17-.47-.27-.63-.36l-.17-.18s0,0,0,0l.27-.41a.8.8,0,0,0,.13-.13c.48-.6.94-1.22,1.39-1.84.28-.32.77-.79.77-1h12.82c.43.78.84,1.57,1.33,2.31l.26.36c.16.29.32.59.46.89l.06.1-.15.23v0a19.35,19.35,0,0,1-1.72,1.53A8.36,8.36,0,0,0,563.31,148.67Zm-15.37-3.56a.64.64,0,0,0,.23.85l4.44,3.39h0a4.75,4.75,0,0,0,.46.36l.17.13s0,.07,0,.12c-.32,1.18,0,3.07,0,4.24v2h0c0,2.45,0,4.89,0,7.34v12.81q0,28.86,0,57.71,0,6.82,0,13.65a2.2,2.2,0,0,1-.17.45,6.66,6.66,0,0,0-2.31,3.47,5.73,5.73,0,0,0-.4,2.52h-21a5.43,5.43,0,0,0-.63-.08,9.19,9.19,0,0,0,0-1.66,3,3,0,0,0-.08-.56c-.91-2.78-2.52-3-2.56-5.79l-.06-4.24-1.17-84.68c0-.32,0-.63,0-.94,0-1.78.44-4.41-.08-6.12,0,0,0-.07-.05-.11h0l.06,0c.2.05,1-.73,1.56-1.08l3.46-2.42a.64.64,0,0,0,.23-.85c-.68-1.14-1.3-2.45-2.08-3.55h.31c2.47.68,6.25.16,9.09,0h3.17a56.84,56.84,0,0,0,9,0h.7C549.49,142.74,548.91,143.82,547.94,145.11Zm-32.5,4.72a24.74,24.74,0,0,0,2.12-1.59c.51-.38,1.5-1.44,2.12-1.6,0,.27.91.75,1.49,1.25l2.11,1.81a2,2,0,0,1,.16.65c0,.5,0,1,.06,1.56.1,16.31.45,32.62.68,48.93q.27,19.23.53,38.46c0,2.59-.33,5.56.11,8.11v.05c-1.64-.33-3.85.06-5.28.06a26.91,26.91,0,0,0-4.59-.06,34.62,34.62,0,0,0,0-5.39q.06-13.55.13-27.11.15-30.27.29-60.54C515.36,153.2,515.76,151.13,515.44,149.83Zm.13,98.93c2.26.11,4.54,0,6.8,0h2.68l.14,0c0,.05.07.1.1.16.73,1.73,1.9,3.09,2.11,5.17H512c.16-2.32,1.23-2.76,2.32-5l.15-.29A8.57,8.57,0,0,0,515.57,248.76Zm12.37-104.07c.22.48.43.92.64,1-.65.54-1.45,1-2.13,1.47l-.25.19A6.47,6.47,0,0,0,524,148.7l-.07,0a26.38,26.38,0,0,0-3.79-3.25.64.64,0,0,0-.75-.1c-1.25.94-3.43,2-4.62,3.34a27.68,27.68,0,0,0-2.84-2.43c-.38-.34-1.23-.83-1.42-1.28a.59.59,0,0,1,0-.08v0h0a16.86,16.86,0,0,1,1.52-2.26,3.26,3.26,0,0,0,.19-.35l.17-.22h14C526.88,142.87,527.36,143.85,527.94,144.69Zm-18.83,0a.65.65,0,0,0,.1.76l4.66,4.2c.13.21.17.22.17.22a.33.33,0,0,0,0,.12,20.31,20.31,0,0,0,.07,3.59l0,4.57h0Q514,171.4,514,184.69q-.12,24.48-.23,49,0,6.33-.07,12.66h0a4.15,4.15,0,0,1-.83,2.36,11.58,11.58,0,0,0-1.91,3c-.22.6,0,1-.15,1.71a1.82,1.82,0,0,0,0,.68H489.43l-.17,0a1.67,1.67,0,0,0,0-.65c-.11-.54.1-1.09-.09-1.62a3.69,3.69,0,0,0-.67-1.12,7.53,7.53,0,0,0-2-2.57.67.67,0,0,0-.11-.07l0,0h0c0-1.73,0-3.47,0-5.2h0c0-1.58,0-3.17,0-4.75q-.21-41.34-.4-82.69c0-1.47.49-4.1,0-5.55l1.72-1.54.28-.26,2.91-2.62a.65.65,0,0,0,.1-.76c-.81-1.19-1.29-2.06-1.79-2.67h15.7a23.61,23.61,0,0,0,5.7,0h.15C510.07,142.88,509.55,144,509.11,144.65Zm-33.86,97.17q.15-10.29.29-20.57c0-2.41.07-4.82.1-7.23l.84-60.26a20.73,20.73,0,0,0,.14-4l1.91-1.63a12.52,12.52,0,0,0,1.79-1.43c.4-.07.72.47,2.12,1.52a10.76,10.76,0,0,0,1.38.9l.74.67a14.45,14.45,0,0,0,.07,2.56c0,2.11,0,4.23,0,6.34q0,8.79.08,17.6.15,31.65.31,63.29c0,2.47-.43,5.45,0,7.89a23.17,23.17,0,0,0-4.64,0c-1.3,0-3.58-.41-5.21-.13A38.36,38.36,0,0,0,475.25,241.82Zm2.1,6.94h6.86c.3,0,.88.1,1.15.08.9,2.24,2.38,2.82,2.6,5.27H472.6c.22-2.21,1.54-3.45,2.27-5.33l.08,0Zm12.14-103.95h0s0,0,0,.05a2.33,2.33,0,0,0-.54.5c-.94,1.09-2.89,2-3.86,3.25h0c-1.18-1.32-3.23-2.34-4.53-3.32a.62.62,0,0,0-.75.1,30,30,0,0,0-3.87,3.25,14,14,0,0,0-2.85-1.8c-.46-.34-.93-.67-1.41-1a.89.89,0,0,0-.35-.22,1.2,1.2,0,0,0,.12-.11,19.16,19.16,0,0,0,1.7-2.77l.14-.25.3-.54h14l.23.32.14.25a12.43,12.43,0,0,0,.81,1.11,3.92,3.92,0,0,1,.29.53A1.74,1.74,0,0,0,489.49,144.81Zm-19.47.72a.64.64,0,0,0,.23.85l2.67,1.86a22.58,22.58,0,0,0,2.1,1.47l.24.17c-.37,1.18,0,3.12,0,4.32l-.09,6.4h0l-.49,34.79-.51,36.79h0c0,.61,0,1.23,0,1.84l-.18,13a10,10,0,0,1-.4,1.31,15.17,15.17,0,0,0-1.73,2.68,3.55,3.55,0,0,0-.45.89,4.64,4.64,0,0,0-.07,2.08v.15H449.65a6.27,6.27,0,0,0-.53-2.92h0a7.47,7.47,0,0,0-2.21-3.06l-.06,0a.51.51,0,0,1-.07-.15v-4.88h0c0-1.26,0-2.53,0-3.8q0-41.55-.05-83.09c0-1.7.45-4.19,0-5.9a1.47,1.47,0,0,0,0-.44l5.05-3.86a.62.62,0,0,0,.23-.85c-1-1.3-1.55-2.37-2.27-3.13h.4c2.91.6,6.54.15,9.69,0H463c2.73.12,5.81.45,8.37,0h.7C471.33,143.08,470.7,144.4,470,145.53Zm-34.33,96.54.05-3.36q.13-7.56.25-15.1.5-29.78,1-59.56l.15-9.16c0-1.34.5-3.65.15-5.06a23.65,23.65,0,0,0,2.18-1.59c.53-.39,1.57-1.47,2.2-1.61l.28.23,1.15,1h0l.37.31,1.83,1.55a2.32,2.32,0,0,1,.15.64c0,.51,0,1,0,1.56-.13,16.31,0,32.63,0,48.94q0,15.51,0,31c0,2.48,0,5,0,7.45s-.44,5.58,0,8.11h0v.08a23.17,23.17,0,0,0-4.64,0c-1.31,0-3.58-.41-5.21-.13A39.37,39.37,0,0,0,435.69,242.07Zm2.08,6.69h6.87c.3,0,.88.1,1.15.08.93,2.3,2.38,2.78,2.59,5.27H433c.22-2.21,1.53-3.44,2.26-5.33l.09,0ZM450,144.33c.24.32.48.65.69,1h0a2.31,2.31,0,0,1-.14.19,24.39,24.39,0,0,1-2.78,1.92,6.29,6.29,0,0,0-1.69,1.25l-.16-.1a28.82,28.82,0,0,0-3.77-3.18.64.64,0,0,0-.76-.1c-1.29.94-3.54,2-4.75,3.37a15.5,15.5,0,0,0-2.4-2c-.25-.23-.5-.46-.77-.68a2.48,2.48,0,0,0-.24-.18,2.27,2.27,0,0,0,.3-.73,14.19,14.19,0,0,1,1.67-3l0,0,.06-.09h12.84c0,.15.41.56.69.87s.61.84.95,1.23A2.4,2.4,0,0,0,450,144.33ZM409.33,142a10.26,10.26,0,0,0,1.08,2.18c.07.15.16.39.27.65.25.67.52,1.41.8,1.41v0a10.75,10.75,0,0,1-1.86,1.24,7.35,7.35,0,0,0-2,1.18c-1.24-1.36-3.51-2.38-4.91-3.35a.42.42,0,0,0-.26-.12h-.19a.4.4,0,0,0-.21.09h0l0,0-4.76,3.35a4.71,4.71,0,0,0-2.2-2.4,25.66,25.66,0,0,0,2.45-4.3ZM605.46,250.49l.52.87a7.77,7.77,0,0,1,1,2.75h-1.83c-4.73,0-9.7-.46-14.41,0h-.31l-.23,0c.23-2.07,1.51-3.47,2.17-5.33h12A8.58,8.58,0,0,0,605.46,250.49Zm-2.62-101.75L598,145.33a.68.68,0,0,0-.26-.12h-.19a.42.42,0,0,0-.26.12c-1.35.92-3.75,2-5,3.35-.93-.85-2.5-1.36-3.31-2.19l-.39-.4.14-.16a4.15,4.15,0,0,0,.67-1.33c.46-.84.84-1.75,1.25-2.62h11.86a25.76,25.76,0,0,0,2.42,4.25A5.24,5.24,0,0,0,602.84,148.74Zm-235.2-61.5a1.36,1.36,0,0,1,0-.43h89c2.4,0,5,.21,7.61.25l-27.61,9.46-46,15.78a.62.62,0,0,0-.4.39.28.28,0,0,0,0,.13.7.7,0,0,0,0,.25c.37,1.84.72,3.7,1.1,5.54.13.66.27,1.33.4,2,.14.52.28,1,.42,1.51,0,.17.08.34.13.51a15,15,0,0,0,.94,3.48,3.77,3.77,0,0,1,.25.51,15.43,15.43,0,0,0-3-.07H367.64V90.06A17.7,17.7,0,0,0,367.64,87.24Zm102.1-.46a.56.56,0,0,0,.27-.18c.19,0,.4-.07.59-.12C480.37,84,490,79.73,499.49,76.3c.38-.13.73-.25.92-.34l.19-.07,11.71,4h0l57.9,19.78,27.22,9.3h0l6.28,2.14c1.94.66,4.29,1.94,6.33,2.16a3.05,3.05,0,0,1,.43.1,4.78,4.78,0,0,1-.47,1,36.55,36.55,0,0,0-2.65,5.4H392.79a4.57,4.57,0,0,0-.26-1.09v0l0-.16a2.23,2.23,0,0,1,0-.23,15.57,15.57,0,0,0-.72-3.63,6,6,0,0,1-.19-1.39l.07,0c.4-.21.81-.4,1.23-.6,1.1-.37,2.33-.62,3.26-.94L404,109c.73-.22,1.44-.43,2.13-.67l50.19-17Zm137.13,39.33a15.54,15.54,0,0,0,.94-3.48,25.9,25.9,0,0,1,1.2-3.33c1-2,1.94-4,2.9-5.92a.62.62,0,0,0-.37-.91L536.41,86.81h93.34a14.54,14.54,0,0,0,3,0h.69c.3,1.33,0,3.66,0,4.75l.3,10.25c.1,3.15.19,6.31.29,9.47a9.81,9.81,0,0,1,.07,2.48,2.84,2.84,0,0,0-.42.09.6.6,0,0,1-.27,0l-.35,0a.64.64,0,0,0-.63.63v12.07H609.63a15.43,15.43,0,0,0-3,.07A3.77,3.77,0,0,1,606.87,126.11Zm27.8-11A.7.7,0,0,0,635,115c1,0,2.06.08,3,.08H939.6c15.13,0,30.28-.19,45.42,0h.2c.75,2.53-.32,6.66-.15,9.2a.92.92,0,0,0,0,.26H638.39c-1.34,0-3.47-.41-4.77,0,.08-2.78.58-6.16,0-8.78a3.08,3.08,0,0,0,0-.69l.42,0A3.36,3.36,0,0,0,634.67,115.1Zm1-39.13a27,27,0,0,0-2,8.52,4,4,0,0,1-.32,1.07H533.36c-.47-.07-.92-.16-1.36-.26l-17.47-6-9.26-3.16-.81-.32H635.73ZM511,23.92h3.12v13H511ZM496.83,1.24a16,16,0,0,1,2.94,0h4.72V23.49c0,2.46.9,7.08.15,9.64-1,0-2,.16-2.72.16h-.27a33.26,33.26,0,0,0-3.6,0c-.16,0-.66,0-1-.06,0-.47-.08-1.18-.08-1.52V11C496.93,8.53,496,3.77,496.83,1.24Zm-9.27,22.68h3.12v13h-3.12Zm-1.3,14.28.42-.07a.71.71,0,0,0,.25.06h4.37a.6.6,0,0,0,.43-.18c1.85-.32,2.23-1.43,3.71-3.48l.69,0a.53.53,0,0,0,.18,0h8.8a.59.59,0,0,0,.23,0l.14,0c.54.23,1.74,3.11,3.49,3.65a12.75,12.75,0,0,0,4.36,0H515a2.45,2.45,0,0,0,.6,0,1,1,0,0,0,0,.27c.14.46-.1,1.52,0,2H486.27A11.85,11.85,0,0,1,486.26,38.2Zm-.54,3.47H511.8c3.85.11,7.69.3,11.53.67l61,5.84,5.63.54H420.36ZM369.18,55.58c.08-1.87.17-3.74.25-5.61H628a18.49,18.49,0,0,1,3.49,0c.78,2.39.35,6.15.51,8.56a17.35,17.35,0,0,0,.25,3.69,1.91,1.91,0,0,1,0,1h0c-.84,0-1.7,0-2.55,0l-.47,0H375.63c-1.85,0-3.78-.16-5.62,0a7.34,7.34,0,0,1-1.06,0l-.18,0C368.38,60.91,369.07,57.81,369.18,55.58Zm-5,19a.58.58,0,0,0-.49.26c-.06,0-.1-.13-.21-.45-.91-2.54,0-7.31,0-10V58.73c1.19,1.94,2.6,4.33,4.15,5.35a.64.64,0,0,0,.54.32h.06a9.85,9.85,0,0,0,2.92,0H628.72c1.14,0,3,.37,4.09,0H633a.64.64,0,0,0,.56-.36c1.73-1,3.37-3.52,4.75-5.46L638,66.9l-.22,6.28c-.09,2.38.49,1.43-1.31,1.43H500.73a.65.65,0,0,0-.14,0h0a.48.48,0,0,0-.12,0H364.19Zm.81,1.27s0,0,0,0H496.24c-1.2.5-2.36,1-3.35,1.37l-24,8.24c-.21,0-.41.08-.62.1H367.54a8.08,8.08,0,0,0-.46-1.61C366.44,81.44,366.17,78.19,365,75.88ZM14.93,118.43a14.32,14.32,0,0,0,0-2.45,2.54,2.54,0,0,1,0-.89H15c1.75,0,3.5,0,5.24,0H353.14c3.94,0,9.34-1,13.25,0v.62c-.61,2.64-.09,6.07,0,8.89H19.72c-1.37,0-3.45-.39-4.79,0h0a2.16,2.16,0,0,1,0-.57C15.31,122.34,14.93,120.1,14.93,118.43ZM7.74,135.51c-.28-.64-.57-1.29-.86-1.93-.19-.45-.39-.89-.59-1.34,1.74-.12,3.56,0,5.28,0a.61.61,0,0,0,.54-.3l1.74-4.11c.18-.42.91-1.75.8-2.06h347c1.32,0,3.5.42,4.78,0v1.37c0,.11,0,.19,0,.28-1.41.66-4.27.76-5.92.77l-1.21,0a.57.57,0,0,0-.36.14.62.62,0,0,0-.26.49c0,1.69-.1,3.39-.16,5.08a2.81,2.81,0,0,1-2.11,1.6H12.91c-1.39,0-3.61-.44-4.94,0ZM8.87,248.57c.87-7.73.64-15.74,1-23.52q.53-12.75,1-25.49,1-25.18,2.05-50.36H23.38l-.09,3.17h0q-.2,6.88-.4,13.79-.26,9.27-.53,18.54-.78,27.36-1.57,54.72c0,1.52-.09,3.05-.13,4.57l0,1c-.07,2.32-.13,4.65-.2,7l-.77,0a16.39,16.39,0,0,0-2.23-.06c-2.25-.06-4.52-.12-6.74,0C7.66,251.87,8.5,251.91,8.87,248.57Zm-.93,5.19c.34-.3.39-.42.38-.46a1.49,1.49,0,0,0,.48-.05,17,17,0,0,1,3.19,0h9.72c-.16.31.42,1.46.61,2.11h0c.24.83.47,1.67.71,2.5h-.51a66,66,0,0,0-8.08-.08c-3.34,0-6.67,0-10,.06A29.62,29.62,0,0,1,7.94,253.76Zm31.39,16.9v.42H20.42c-.8,0-1.34-.14-1.59-.1V259.07l4.11,0h.92l4.06.05,11.41.12v8.78A11.22,11.22,0,0,0,39.33,270.66ZM3.63,259.1l12.09,0,1,0h.83v.43c-.41,2.26,0,5,0,7.28v3.47c0,.2,0,.56,0,.84H1.37Q2.5,265.09,3.63,259.1ZM1.24,272.45a.6.6,0,0,0,0-.12H155.13v3.5H1.23A16.58,16.58,0,0,1,1.24,272.45ZM40.57,260v-.73l2,0h0l58.31.61,54.3.58v5.29a27.06,27.06,0,0,0,0,4.41v.87H40.57v-2.19C40.57,266.19,41.21,262.64,40.57,260Zm322.34,50.56c-.44,1.8,0,4.23,0,6.1v4H362c-5.72-.72-12,0-17.75,0H1.24V312c0-1.8.17-3.67,0-5.47v-.8a4.76,4.76,0,0,0,.06-.64c.83-.05,2,.16,2.58.16l20.83.27,31.76.41a.69.69,0,0,0,.31.09h7.33l43.82.57,107.81,1.38,97.12,1.24,33,.42c5.46.07,11.13.61,16.58.21l.47,0ZM23,281.08a26.7,26.7,0,0,0,3.43,0h6.26c1.29,0,2.73.44,2.74-.2a18.66,18.66,0,0,1-.11,2.66v20.36H25.62c-1.28,0-2.72-.43-2.74.19a17,17,0,0,1,.1-2.32V283.25A18.59,18.59,0,0,0,23,281.08Zm-.12,23.14h0ZM57.44,281.9a28.48,28.48,0,0,0,3.43,0h6.27c1.28,0,2.73.44,2.73-.19a17.24,17.24,0,0,1-.1,2.65v20.36H64.11L59,304.68a4.32,4.32,0,0,0-1.49,0h-.25c0-.67.13-1.54.13-2V284.06A16.64,16.64,0,0,0,57.44,281.9Zm35,0a28.48,28.48,0,0,0,3.43,0h6.26c1.29,0,2.74.44,2.74-.19a17.24,17.24,0,0,1-.1,2.65v20.36H95.05c-1.28,0-2.71-.43-2.74.19a18.81,18.81,0,0,1,.1-2.32V284.06A16.46,16.46,0,0,0,92.45,281.9Zm-.1,23.21h0a.24.24,0,0,1,0-.08A.24.24,0,0,0,92.35,305.11Zm35-23.21a28.47,28.47,0,0,0,3.43,0H137c1.29,0,2.73.44,2.74-.19a18.6,18.6,0,0,1-.1,2.65v20.36h-9.73c-1.28,0-2.72-.43-2.74.19a17,17,0,0,1,.1-2.32V284.06A18.42,18.42,0,0,0,127.31,281.9Zm35.16.7a28.65,28.65,0,0,0,3.43,0h6.26c1.29,0,2.73.44,2.74-.2a18.66,18.66,0,0,1-.11,2.66v20.35h-9.72c-1.28,0-2.72-.43-2.74.19a17,17,0,0,1,.1-2.31V284.77A18.59,18.59,0,0,0,162.47,282.6Zm0,23.41h0a1.07,1.07,0,0,1-.09-.27A1.41,1.41,0,0,0,162.43,306Zm35.69-23.41a28.65,28.65,0,0,0,3.43,0h6.26c1.28,0,2.73.44,2.73-.2a17.37,17.37,0,0,1-.1,2.66v20.35h-9.73c-1.27,0-2.71-.43-2.73.19a17,17,0,0,1,.1-2.31V284.77A18.59,18.59,0,0,0,198.12,282.6Zm35.78.56a28.48,28.48,0,0,0,3.43,0h6.26c1.29,0,2.74.44,2.74-.19a17.18,17.18,0,0,1-.1,2.65V306H236.5c-1.28,0-2.71-.43-2.74.19a18.71,18.71,0,0,1,.11-2.32V285.32A16.6,16.6,0,0,0,233.9,283.16Zm73.45.78a28.68,28.68,0,0,0,3.43,0H317c1.29,0,2.74.43,2.74-.2a17.18,17.18,0,0,1-.1,2.65v20.36H310c-1.28,0-2.72-.43-2.74.19a16.81,16.81,0,0,1,.1-2.31V286.1A18.37,18.37,0,0,0,307.35,283.94Zm55.56-.94v25.58l-35.61-.46-7-.09a.56.56,0,0,0,.36-.14l.05,0,0,0a.53.53,0,0,0,.15-.39V283.35a.63.63,0,0,0-.62-.62H306.69a.64.64,0,0,0-.62.62v24.07a.62.62,0,0,0,.18.43l-59-.76,0,0,0,0a.56.56,0,0,0,.15-.4V282.57a.63.63,0,0,0-.62-.62H233.24a.64.64,0,0,0-.62.62v24.06a.68.68,0,0,0,.07.28l-21.35-.28a.5.5,0,0,0,.12-.08l0,0,0,0a.58.58,0,0,0,.16-.4V282a.64.64,0,0,0-.63-.63h-13.6a.64.64,0,0,0-.63.63v24.06a.58.58,0,0,0,.15.37l-21-.27s0-.06,0-.1V282a.64.64,0,0,0-.62-.63H161.81a.63.63,0,0,0-.62.63v24l-20.43-.26a.58.58,0,0,0,.12-.36V281.31a.62.62,0,0,0-.62-.62H126.65a.62.62,0,0,0-.62.62v24.06a.86.86,0,0,0,0,.17l-20-.25v-24a.62.62,0,0,0-.62-.62H91.79a.63.63,0,0,0-.62.62V305.1L71,304.84V281.31a.62.62,0,0,0-.62-.62H56.78a.63.63,0,0,0-.62.62v23.34l-10.8-.14-8.77-.11V280.5a.63.63,0,0,0-.62-.62H22.36a.62.62,0,0,0-.62.62v23.71l-6.33-.08L6.16,304c-1.37,0-3.56-.47-4.88-.06h0v-23.5a24.55,24.55,0,0,1-.1-3.37h154a6.9,6.9,0,0,0,0,1.68.64.64,0,0,0,.62.62h7.53a.64.64,0,0,0,.63-.62c0-.33-.11-1.14-.07-1.62l.15-.06c1.06-.46,3.33,0,4.49,0a20.72,20.72,0,0,1,4.24,0l.42.08a14.61,14.61,0,0,1-.09,1.6.64.64,0,0,0,.63.62h6a.63.63,0,0,0,.62-.62,13.36,13.36,0,0,1-.08-1.63l.26-.05c1.55-.35,3.63,0,5.2,0a31.08,31.08,0,0,1,4.92,0c1.36.22.47-.58.47,1.68a.63.63,0,0,0,.62.62h6.53a.64.64,0,0,0,.63-.62c0-1.89-.94-1.16.77-1.37a38.79,38.79,0,0,1,4.7,0,26.46,26.46,0,0,1,4.71,0c1.71.33.77-.77.77,1.37a.63.63,0,0,0,.62.62h5.66a.63.63,0,0,0,.62-.62c0-1.87-.95-1.09.57-1.37a26.57,26.57,0,0,1,4.72,0,34.31,34.31,0,0,1,4.42,0c1.83.23.87-.7.87,1.37a.64.64,0,0,0,.63.62h6.72a.64.64,0,0,0,.62-.62c0-1.79-.79-1,.3-1.37,1.25-.41,3.37,0,4.68,0s3.13-.36,4.35,0a1.44,1.44,0,0,0,.84.07,2.51,2.51,0,0,0-.22,1.3.64.64,0,0,0,.63.62h7a.63.63,0,0,0,.37-.14.59.59,0,0,0,.25-.48c0-.44,0-.87,0-1.3l.35-.07h99.8c3.05,0,6.25.26,9.29,0h.12ZM156.38,261v-.51h0c1,0,2,0,3,0l30.25.32,5.18.05,57.28.61c-.26.37,0,1.56,0,2.47v7.81c0,1.39,0,2.78,0,4.16a8.31,8.31,0,0,0,.08,2.17c-.57.31-2.21,0-2.86,0a6.29,6.29,0,0,0-.65.05l-.74-.05c-.63,0-1,.07-1.25.09a.85.85,0,0,1-.24-.09l-.09-.06a3.75,3.75,0,0,1,.05-.43,4.34,4.34,0,0,0,0-.52c0-.11,0-.22,0-.36a.64.64,0,0,0-.62-.62H234.6a.64.64,0,0,0-.63.62c0,1.37.29,1.23,0,1.37-.55.31-2.13,0-2.77,0s-2.23.31-2.78,0c-.25-.14,0,0,0-1.37a.64.64,0,0,0-.62-.62H216.05a.64.64,0,0,0-.62.62c0,2.13.49,1.37-2.21,1.37s-2.21.67-2.21-1.37a.63.63,0,0,0-.62-.62h-12.2a.64.64,0,0,0-.62.62c0,1.48.33,1.15-.06,1.37-.58.35-2.37,0-3.07,0a20.71,20.71,0,0,1-2.17.12c.26-.22,0-1.39,0-1.8a.63.63,0,0,0-.62-.62h-12a.63.63,0,0,0-.62.62c0,.39-.24,1.56,0,1.8a19.77,19.77,0,0,1-2.38-.12,19.48,19.48,0,0,1-2.37.12c.24-.24,0-1.41,0-1.8a.64.64,0,0,0-.62-.62h-10.4a.64.64,0,0,0-.62.62c0,1.07-.11,1.89.27,1.68-.64.36-2.72,0-3.41,0a12.21,12.21,0,0,1-3.08,0,1.62,1.62,0,0,1-.06-.17,5.37,5.37,0,0,1,0-1.55C156.38,271.54,157.25,265.85,156.38,261ZM362.91,273.3a12.22,12.22,0,0,0,0,2.84H253.32c0-.3,0-.61,0-.91a.2.2,0,0,1,0-.07,10.66,10.66,0,0,0-.05-2.68v-.15h1.33c2.5.11,5,0,7.54,0h91.05c2.83,0,5.76.22,8.58,0h1.15Zm0-5v2.76H253.28a1,1,0,0,1,0-.17c0-.42,0-.84,0-1.27s.05-.7.05-1,0-.64,0-1c0-2,0-4.06,0-6.09h.11c.82,0,1.63,0,2.45,0l1.72,0,64.3.67,41,.43Zm0-118.14a48.37,48.37,0,0,0,0,6.81v63.95a.59.59,0,0,0-.38-.14h-20.9a.63.63,0,0,0-.54.94c2.32,4.06,2,8.08,2.07,12.63a.64.64,0,0,0,.62.62h2.37v23.68a.62.62,0,0,0,.62.62h11.54a.55.55,0,0,0,.39-.15l0,0s0,0,0,0a.58.58,0,0,0,.16-.4V235h2.44a.63.63,0,0,0,.62-.62c0-4.18-.56-8.37.92-12.18v32.55c0,1.88-.45,4.39,0,6.22v.49l-23.25-.24-4.51,0L320.81,261l-54.37-.58-13.76-.14-84.81-.89-12.12-.13L54.3,258.2,40,258.05l-15.62-.17q-.78-2.7-1.54-5.42a.56.56,0,0,0-.11-.2l0-.06-.05,0-.07,0a.34.34,0,0,0-.12-.06.5.5,0,0,0-.21-.05h-.52c0-1.12.07-2.24.1-3.36l.21-7.22q.32-11.34.65-22.67c2.24,4,1.93,8,2,12.51a.62.62,0,0,0,.62.62h2.36v23.68a.64.64,0,0,0,.63.63H39.78a.58.58,0,0,0,.4-.16l0,0,0,0a.56.56,0,0,0,.16-.4V231.88h2.44a.62.62,0,0,0,.62-.62c0-4.35-.64-8.71,1.08-12.63a.64.64,0,0,0-.54-.94H23.1a.59.59,0,0,0-.45.23l.13-4.51q.82-28.89,1.66-57.76a49.23,49.23,0,0,0,.18-6.19v-.26H358.1c1.37,0,3.5.41,4.81,0h0Zm-2.16,80.64c0,.94.08,1.92,0,2.86-.31,0-.74.07-.91.07a2,2,0,0,0-.91.15V233a16.18,16.18,0,0,0,0-2.87.55.55,0,0,0-.15-.39.08.08,0,0,0,0,0s0,0,0,0a.63.63,0,0,0-.39-.16H346.77a.63.63,0,0,0-.57.38.69.69,0,0,0-.05.24v2.49a.54.54,0,0,0,0,.13v1.4c-.77.51-1.7-1.86-1.79-2.19-.58-2.21.51-4.89-.12-7.09a12.1,12.1,0,0,0-1.5-2.86h18.89C360.58,225,360.75,227.44,360.75,230.82Zm-3.07,5.59v21.64c-3.35,0-6.71.09-10.06,0h-.29a7.91,7.91,0,0,1,.06-.89,27.67,27.67,0,0,0,0-4.73V232.77a19.4,19.4,0,0,0,.06-2h.19q.57,0,1.14,0c1.1,0,2.4,0,2.8,0h6.1v.88A28.73,28.73,0,0,0,357.68,236.41Zm-315.45-8.7c0,.95.07,1.92,0,2.86-.31,0-.74.07-.91.07a2,2,0,0,0-.91.15v-.86a16.07,16.07,0,0,0,0-2.86.58.58,0,0,0-.16-.4l0,0,0,0a.56.56,0,0,0-.4-.16H28.25a.64.64,0,0,0-.63.63h0v2.48h0v1.53h0c-.77.51-1.69-1.86-1.78-2.18-.58-2.22.51-4.9-.12-7.1a12.15,12.15,0,0,0-1.51-2.86h18.9C42.05,221.87,42.23,224.33,42.23,227.71Zm-3.07,5.6v21.63c-3.35,0-6.71.09-10.06,0h-.29a5,5,0,0,1,.06-.89,28.73,28.73,0,0,0,0-4.73V229.66c0-.36.11-1.4.06-2h1.33c1.09,0,2.38,0,2.79,0h6.11v.89A28.73,28.73,0,0,0,39.16,233.31ZM362.91,145a6.58,6.58,0,0,0,0,1.88v1s0,.08,0,.11H13L13.1,144a7.55,7.55,0,0,0,.1-2h.37c1.78.17,3.65,0,5.43,0H358.22c1.31,0,3.44.42,4.68,0h0Zm0-6.3a4.08,4.08,0,0,0,0,2v.09h-345c-1.34,0-3.41-.41-4.68,0h-.37l-4-4H362.91Zm-3-3.14c-.12-1.8-.54-4.32.61-5.45a2.5,2.5,0,0,1,1.15-.57h1.43l3.87,0a.64.64,0,0,0,.63-.63v-1.09a3.08,3.08,0,0,0,.71,0H392c.46,0,1.86.2,1.81,0h0a6,6,0,0,1,.79.9,30.52,30.52,0,0,0,1.82,3,.06.06,0,0,0,0,0v1.63a5.88,5.88,0,0,0,0,2.12v.07H360Zm31.66,158.23v13a2.72,2.72,0,0,1-.79,0c-1.79-.4-4.2,0-6,0a24.85,24.85,0,0,0-3.09,0c0-.47-.08-1.26-.08-1.55,0-1.75-.05-3.5-.07-5.25q-.09-6.07-.17-12.16c0-1.24-.13-2.52-.05-3.76,0-.08,0-.13,0-.19a5.9,5.9,0,0,1,.81.07c3,.52,6.38.07,9.45,0Zm0-11.17v.16H380.7a.64.64,0,0,0-.62.62l.33,24.07a.65.65,0,0,0,.63.62h10.57v9.46c0,1,0,2.07,0,3.1v.17c-2.39.51-5.63-.07-8-.07H364.15v-40c0-1,.09-2,0-3v-.35h25.69a3.05,3.05,0,0,0,.45.05v1.07a.63.63,0,0,0,.45.6l.27,0,.55.08a1.48,1.48,0,0,0,.05.24Zm17.59,2.65v35.56a19.14,19.14,0,0,1-2.31-.08h-14V279.38c2.7.21,5.49,0,8.17,0,2.07,0,5.81.68,8.19.08,0,.32-.05.65-.06,1A36.28,36.28,0,0,0,409.2,285.22ZM430.28,290v30.58l-12.85.1c-2.21,0-4.49-.13-6.7.05h-.28v-.76c.87-3.94,0-9.1,0-13.13V278.94c1.46-1,.78-1.47,1.3-1.7l.27-.08a7.07,7.07,0,0,1,.77-.08c2.42-.15,4.91,0,7.34,0h8.21c.62.07,1,.06,1.23.12s.27.64.66,1.63c0,.09,0,.18,0,.28Zm18.27-10a.24.24,0,0,1,0,.08c-.77,3.43-.09,7.88,0,11.49,0,.36,0,.73,0,1.09v27.72H436.22c-1.26,0-3.36.41-4.7.1V297.52c0-5.51,1.09-12.32-.06-18v0h7.6c2.73,0,6.88.8,9.51,0h0C448.58,279.63,448.57,279.8,448.55,280Zm21.89,9.54v31l-12.26-.1c-2.37,0-5.14-.45-7.48-.05a8.28,8.28,0,0,1-.92.07v-.35c.67-10.25,0-20.78,0-31.06V278.91a4.29,4.29,0,0,1,.16-.47,11.37,11.37,0,0,0,.83-1.19,4.82,4.82,0,0,1,1.37-.17c2.47-.17,5-.05,7.5,0l.47,0h.48a71.78,71.78,0,0,1,7.48,0,4.6,4.6,0,0,1,1.39.23,10.14,10.14,0,0,0,.84,1.22c.05.14.09.27.14.43Zm18.32-9.74c0,.09-.05.17-.07.28-.81,3.63,0,8.41,0,12.12v28.18H476.38c-1.26,0-3.36.41-4.7.1v-38c0-.91.09-1.94,0-2.94,2.55.8,6.87-.05,9.47-.05h1c1.92,0,4.27.36,6.17,0h.5A3.11,3.11,0,0,0,488.76,279.78Zm21.31,40.58H497.59c-2.13,0-4.88-.47-7,0a1.59,1.59,0,0,1-.7,0V320c.77-4.09,0-9.09,0-13.23V279c.63-1.14.8-1.62,1.18-1.81s.57-.07,1-.11l.18,0,1.05,0h14.53l.77.05c.58.13.7.56,1.42,1.87Zm18.25-40.13h0a12,12,0,0,0-.11,2.7c-.06,3.25.11,6.54.11,9.76v27.67c-1,.07-2,0-3,0h-14V282.15a20.82,20.82,0,0,0-.1-2.58.41.41,0,0,1,0-.11h7.62c2.73,0,6.88.8,9.52,0h0v.18C528.35,279.84,528.33,280,528.32,280.23Zm21.9,5.19v34.84c0,.1,0,.18,0,.25-1.58.36-4.25-.11-5.62-.1l-15,.12V280.07c.48-3.7,1.93-3,5.64-3h9c1,0,3.71-.24,4.68-.11l.26.11c.07,0,.44.79,1,1.46a5.05,5.05,0,0,1,.12.56Zm18.26,12.1v22.85c-1,.07-2,0-3,0h-14V282.44c0-.91.08-1.93,0-2.93,2.55.8,6.87-.05,9.47-.05h7.57s0,.08,0,.12C567.4,285.27,568.48,292.05,568.48,297.52Zm21.07-12.3v35.5a1.67,1.67,0,0,1-.76,0,17.29,17.29,0,0,0-3.94,0l-15.13-.12V280.45c0-.65,0-1.19.09-1.72s.24-.71.31-.94.15-.25.25-.39a1.08,1.08,0,0,0,.14-.23,1.59,1.59,0,0,0,.61-.09h8.27c2.51,0,5,.05,7.53,0h.19c.31,0,.89.12,1.16.11.4.21-.16.75,1.23,1.72a1.09,1.09,0,0,1,0,.17Zm17.59-4.89c-.62,3.94,0,8.49,0,12.47v27.9H594.73a27.44,27.44,0,0,1-3.93.15v0c.25-.12,0-.84,0-2V283.18c0-1.12.11-2.47,0-3.73,2.26.55,5.75-.07,7.69-.07,2.84,0,5.8.24,8.66,0Zm.58-2.2H590.78a.6.6,0,0,1-.35-.29,3.25,3.25,0,0,0-.22-.46,2.28,2.28,0,0,0-1-1.24,4.31,4.31,0,0,0-.79-.31,9.32,9.32,0,0,0-3.48-.4c-2.29,0-4.83.4-6.56.4h-8.3a.65.65,0,0,0-.6.46,7.15,7.15,0,0,0-.74,1.93h-.39a.61.61,0,0,0-.27,0H551.86a1.5,1.5,0,0,1-.79-.53,3.53,3.53,0,0,0-.71-1,2.69,2.69,0,0,0-1.17-.86c-2.45-1-7.16,0-9.78,0-2.22,0-6-.73-8.3-.16a2.38,2.38,0,0,0-.84.18,3.34,3.34,0,0,0-1.64,2.28c-.06.05-.25,0-1.23.09H511.27a1.2,1.2,0,0,1-.65-.66c-.13-.29-.29-.61-.47-.95l-.25-.47a.63.63,0,0,0-.54-.31H490.64a.63.63,0,0,0-.54.31l-.28.52c-.09.18-.18.36-.27.52-.3.59-.47.91-.82,1H472.6a8.75,8.75,0,0,0-1.16-.07,3.4,3.4,0,0,0-1.18-1.76l-.09-.05a1.2,1.2,0,0,0-.64-.51c-2.19-.89-6.59,0-8.94,0s-6.49-.79-9-.18a2.87,2.87,0,0,0-1.07.2,3.34,3.34,0,0,0-1.63,2.24,2.76,2.76,0,0,0-.71.13H431.91a2.91,2.91,0,0,1-.83-.24c-.09-.32-.19-.64-.3-1s-.15-.44-.27-.74a.66.66,0,0,0-.6-.46c-3.64,0-7.34-.16-11-.17-2.54-.23-5.54-.53-7.31.17a3.45,3.45,0,0,0-1.95,1.87.87.87,0,0,0-.07.17,1,1,0,0,1,0,.1,5.4,5.4,0,0,0-.75.16h-15c-1.66,0-2.19,0-2.33-.51,0-.18,0-.44,0-.86v-6.09h211.8a31.32,31.32,0,0,0,4.11,0h.84l.19,0v6.06C608.47,278.08,608.8,277.94,607.72,278.13Zm.67,5.86c3,.08,6.59.63,9.45,0a7.79,7.79,0,0,1,.82-.05v.17c0,1.12,0,2.25,0,3.38L618.44,300c0,1.75,0,3.5-.07,5.25,0,.3-.1,1.08-.08,1.55a23,23,0,0,0-3.09,0c-1.8,0-4.27-.4-6,0a4.54,4.54,0,0,1-.78.06.92.92,0,0,1,0-.18V284Zm27.46-3.26v40H616.39c-2.47,0-5.53.46-8,0v-.13c0-1,0-2.07,0-3.1V308H619a.65.65,0,0,0,.63-.62l.33-24.07a.64.64,0,0,0-.62-.62H608.39v-3.26a1.48,1.48,0,0,0,.05-.24l.55-.08.27,0a.63.63,0,0,0,.45-.6v-1.07a3.05,3.05,0,0,0,.45-.05h25.68a1.28,1.28,0,0,1,0,.21Zm0-4.76a.38.38,0,0,0,0,.15v0H609.71v-3.65h.68c3,.14,6,0,9-.05l6.2,0,10.26-.06Zm0-8.13v3.24l-11.61.08c-4.33,0-9.36-.66-13.63.08h-.9v-.59a51.6,51.6,0,0,0,0-6.58.53.53,0,0,0-.15-.39l0-.05,0,0a.58.58,0,0,0-.4-.15,1.09,1.09,0,0,1-.7-.18v-.57h27.46Zm0-119.26V261.46h-1.33c-3-.42-6.43,0-9.49,0H608.39c0-.71,0-1.44.07-2.17h9.43a.63.63,0,0,0,.62-.62V229.59a.64.64,0,0,0-.62-.63H605c0-.43,0-.86,0-1.29l-1-52-.12-6.23q-.13-7-.26-14.08h0c0-1.86-.07-3.72-.1-5.58l2.1-2.35a5.67,5.67,0,0,1,1.18-.41h29a2.46,2.46,0,0,0,0,.46Zm0-11.43a23.65,23.65,0,0,0,0,4.21v4.44H613.16l-2.22,0a19.46,19.46,0,0,0-4.75-.08,2.8,2.8,0,0,0-.24-.23h0c-.67-1.22-1.35-2.43-2-3.64-.15-.47-.27-.91-.35-1.29V137c0-.08,0-.14,0-.2h32.24Zm-12.71-1.64H603.57v-.14a6.18,6.18,0,0,0,0-1.94v-1.74l0,0a30.81,30.81,0,0,0,1.79-2.92,6.12,6.12,0,0,1,.82-.94h0c0,.19,1.37,0,1.81,0h18.52c1.61,0,3.26.11,4.87,0h.94v1.12a.64.64,0,0,0,.63.63c.69,0,2.6-.12,4.3-.21a3.31,3.31,0,0,1,2.15.73c1.15,1.13.73,3.65.61,5.45H623.14Zm375.62,171c-.15,1.8,0,3.67,0,5.47v8.73H670.23c-9.9,0-20.14-.72-30.06-.14a13.12,13.12,0,0,0-2.28.14,7.09,7.09,0,0,1-.8,0v-4.5c0-1.73.41-3.94,0-5.62v-.82l.53,0a46.32,46.32,0,0,0,6.12-.08l25.58-.32,88.43-1.13,108.9-1.4,69.24-.89h7.33a.69.69,0,0,0,.31-.09l15.78-.21,28.88-.37,8-.1c.59,0,1.67-.21,2.48-.17a4,4,0,0,0,.06.86ZM683,284h6.26a28.68,28.68,0,0,0,3.43,0,18.37,18.37,0,0,0,0,2.16v18.24a18.54,18.54,0,0,1,.1,2.65c0-.63-1.45-.2-2.74-.2h-9.73v-20a19.88,19.88,0,0,1-.11-3C680.21,284.46,681.68,284,683,284Zm73.45-.79h6.26a28.48,28.48,0,0,0,3.43,0,16.42,16.42,0,0,0,0,2.16v18.23a18.74,18.74,0,0,1,.1,2.66c0-.64-1.45-.2-2.74-.2h-9.73V286a19.94,19.94,0,0,1-.11-3C753.66,283.68,755.13,283.19,756.41,283.19Zm35.78-.55h6.26a28.65,28.65,0,0,0,3.43,0,18.59,18.59,0,0,0,0,2.17V303a17.18,17.18,0,0,1,.1,2.65c0-.63-1.45-.2-2.73-.2h-9.73v-20a18.8,18.8,0,0,1-.11-3C789.44,283.13,790.91,282.64,792.19,282.64Zm35.65,0h6.26a28.65,28.65,0,0,0,3.43,0,18.59,18.59,0,0,0,0,2.17V303a17.18,17.18,0,0,1,.1,2.65c0-.63-1.45-.2-2.74-.2h-9.72v-20a20,20,0,0,1-.12-3C825.09,283.13,826.56,282.64,827.84,282.64Zm9.82,23.07a1.32,1.32,0,0,1-.09.3h0A.83.83,0,0,0,837.66,305.71ZM863,281.93h6.26a28.47,28.47,0,0,0,3.43,0,18.42,18.42,0,0,0,0,2.16v18.23a17.37,17.37,0,0,1,.1,2.66c0-.64-1.45-.2-2.74-.2h-9.73v-20a19.94,19.94,0,0,1-.11-3C860.25,282.42,861.72,281.93,863,281.93Zm34.86,0h6.26a28.48,28.48,0,0,0,3.43,0,16.46,16.46,0,0,0,0,2.16v18.23a18.74,18.74,0,0,1,.1,2.66c0-.64-1.45-.2-2.74-.2h-9.73v-20a19.94,19.94,0,0,1-.11-3C895.11,282.42,896.58,281.93,897.86,281.93ZM907.68,305l0,.1h0A.38.38,0,0,0,907.68,305Zm25.18-23.08h6.27a28.48,28.48,0,0,0,3.43,0,16.64,16.64,0,0,0,0,2.16v18.23c0,.55.19,1.6.14,2.37h-.26a4.32,4.32,0,0,0-1.49,0l-5.09.07h-5.66v-20a19.94,19.94,0,0,1-.11-3C930.12,282.42,931.59,281.93,932.86,281.93Zm34.43-.81h6.26a26.7,26.7,0,0,0,3.43,0,18.59,18.59,0,0,0,0,2.17v18.23a17.24,17.24,0,0,1,.1,2.65c0-.63-1.45-.19-2.74-.19h-9.72v-20a19.92,19.92,0,0,1-.12-3C964.54,281.61,966,281.12,967.29,281.12Zm9.82,23.08v0h0Zm21.65-23.45V304l-20.5.26V280.5a.62.62,0,0,0-.62-.62H964a.63.63,0,0,0-.62.62v23.9h-.26l-19.31.25V281.31a.63.63,0,0,0-.62-.62H929.61a.62.62,0,0,0-.62.62v23.53l-20.16.26V281.31a.63.63,0,0,0-.62-.62H894.6a.62.62,0,0,0-.62.62v24l-17.3.22-2.74,0a.86.86,0,0,0,0-.17V281.31a.62.62,0,0,0-.62-.62H859.74a.63.63,0,0,0-.62.62v24.06a.53.53,0,0,0,.13.36l-20.44.26V282a.63.63,0,0,0-.62-.63H824.58a.64.64,0,0,0-.62.63v24.06s0,.07,0,.1l-21,.27a.56.56,0,0,0,.15-.37V282a.64.64,0,0,0-.63-.63h-13.6a.64.64,0,0,0-.63.63v24.06a.56.56,0,0,0,.16.39l0,0,0,0a.27.27,0,0,0,.12.09l-16.57.22-4.78.06a.68.68,0,0,0,.07-.28V282.57a.64.64,0,0,0-.62-.62H753.15a.63.63,0,0,0-.62.62v24.06a.58.58,0,0,0,.15.4l0,0,0,0-59,.76a.62.62,0,0,0,.18-.43V283.35a.63.63,0,0,0-.62-.62H679.7a.63.63,0,0,0-.62.62v24.07a.55.55,0,0,0,.15.39l0,0,0,0a.55.55,0,0,0,.37.15l-28.41.36-9.25.12c-1.4,0-3.54-.36-4.89.06h0V279.89c0-.82,0-1.63,0-2.44v-.06H745.86a4.19,4.19,0,0,0,.79.05c0,.44,0,.88,0,1.32a.6.6,0,0,0,.23.47.63.63,0,0,0,.39.15h7a.64.64,0,0,0,.63-.62c0-1.79-.79-1,.3-1.37,1.25-.41,3.37,0,4.67,0s3.13-.36,4.36,0a1.44,1.44,0,0,0,.84.07,2.39,2.39,0,0,0-.22,1.3.64.64,0,0,0,.62.62h6.72a.64.64,0,0,0,.63-.62c0-1.87-1-1.09.56-1.37a26.69,26.69,0,0,1,4.73,0,34.31,34.31,0,0,1,4.42,0c1.82.23.87-.7.87,1.37a.63.63,0,0,0,.62.62h5.66a.63.63,0,0,0,.62-.62c0-1.89-.93-1.16.77-1.37a39,39,0,0,1,4.71,0,26.35,26.35,0,0,1,4.7,0c1.72.33.77-.77.77,1.37a.64.64,0,0,0,.63.62h6.53a.63.63,0,0,0,.62-.62,13.36,13.36,0,0,1-.08-1.63l.26-.05c1.56-.35,3.63,0,5.21,0a31,31,0,0,1,4.91,0c1.36.22.47-.58.47,1.68a.63.63,0,0,0,.62.62h6a.64.64,0,0,0,.63-.62c0-.33-.11-1.14-.07-1.62l.15-.06c1.06-.46,3.33,0,4.49,0a20.72,20.72,0,0,1,4.24,0l.42.08a14.61,14.61,0,0,1-.09,1.6.64.64,0,0,0,.63.62h7.53a.64.64,0,0,0,.62-.62,7.43,7.43,0,0,0,.06-1.68H998.87A27.65,27.65,0,0,1,998.76,280.75Zm0-4.92H844.87v-3.5h154A14.82,14.82,0,0,1,998.79,275.83Z"/><path d="M730.7,282H717.09a.64.64,0,0,0-.62.62v24.06a.58.58,0,0,0,.16.4l0,0,0,0a.54.54,0,0,0,.39.16H730.7a.63.63,0,0,0,.62-.63V282.57A.63.63,0,0,0,730.7,282Zm-.52,24.26c0-.64-1.45-.2-2.73-.2h-9.73V286a18.67,18.67,0,0,1-.11-3c0,.66,1.46.17,2.74.17h6.26a28.46,28.46,0,0,0,3.43,0,18.37,18.37,0,0,0,0,2.16v18.23A17.37,17.37,0,0,1,730.18,306.21Z"/><path d="M656.67,282.73h-13.6a.64.64,0,0,0-.63.62v24.07a.56.56,0,0,0,.16.39l0,0,0,0a.56.56,0,0,0,.4.16h13.6a.64.64,0,0,0,.63-.62V283.35A.64.64,0,0,0,656.67,282.73ZM656.15,307c0-.63-1.45-.2-2.73-.2h-9.73v-20a18.62,18.62,0,0,1-.11-3c0,.66,1.46.18,2.74.18h6.26a28.65,28.65,0,0,0,3.43,0,18.37,18.37,0,0,0,0,2.16v18.24A17.18,17.18,0,0,1,656.15,307Z"/><path d="M653.23,177.91a.63.63,0,0,0,.62-.63v-19a.63.63,0,0,0-.62-.62H641.69a.64.64,0,0,0-.62.62v19a.61.61,0,0,0,.15.4s0,0,0,0l0,0a.58.58,0,0,0,.4.16Zm-.39-1.19c.16-.21.24-.05,0,0Zm-10.22-17.79a9.74,9.74,0,0,0,2.29,0H650a22.94,22.94,0,0,0,2.53,0c0,.48.07,1.23.07,1.52v14.64c0,.47.09,1.08.07,1.62a1.72,1.72,0,0,1-.38-.07,9.74,9.74,0,0,0-2.29,0h-7.69V160.47c0-.46-.1-1.07-.08-1.61A1.72,1.72,0,0,1,642.62,158.93Zm-.53-.06c-.17.21-.25,0,0,0Z"/><path d="M677.16,177.72l0,0a.56.56,0,0,0,.4.16h11.53a.64.64,0,0,0,.63-.63v-19a.64.64,0,0,0-.63-.62H677.6a.64.64,0,0,0-.63.62v19a.56.56,0,0,0,.16.4Zm11.58-1c.16-.21.25-.05,0,0Zm-10.22-17.79a9.74,9.74,0,0,0,2.29,0h5.11a22.75,22.75,0,0,0,2.52,0c0,.48.07,1.23.07,1.52v14.64c0,.47.09,1.08.07,1.62a1.66,1.66,0,0,1-.37-.07,9.74,9.74,0,0,0-2.29,0h-7.7V160.47c0-.46-.09-1.07-.07-1.61A1.66,1.66,0,0,1,678.52,158.93Zm-.53-.06c-.16.21-.25,0,0,0Z"/><path d="M713.65,177.72l0,0a.58.58,0,0,0,.4.16h11.54a.64.64,0,0,0,.62-.63v-19a.63.63,0,0,0-.62-.62H714.09a.64.64,0,0,0-.62.62v19a.56.56,0,0,0,.15.4Zm11.59-1c.16-.21.24-.05,0,0ZM715,158.93a9.74,9.74,0,0,0,2.29,0h5.1a22.94,22.94,0,0,0,2.53,0c0,.48.07,1.23.07,1.52v14.64c0,.47.09,1.08.07,1.62a1.72,1.72,0,0,1-.38-.07,9.74,9.74,0,0,0-2.29,0h-7.7V160.47c0-.46-.09-1.07-.07-1.61A1.72,1.72,0,0,1,715,158.93Zm-.54-.06c-.16.21-.24,0,0,0Z"/><path d="M749.83,177.72l0,0a.58.58,0,0,0,.4.16H761.8a.63.63,0,0,0,.62-.63v-19a.63.63,0,0,0-.62-.62H750.26a.64.64,0,0,0-.62.62v19a.56.56,0,0,0,.15.4S749.81,177.71,749.83,177.72Zm11.58-1c.16-.21.24-.05,0,0Zm-10.22-17.79a9.74,9.74,0,0,0,2.29,0h5.1a22.94,22.94,0,0,0,2.53,0c0,.48.07,1.23.07,1.52v14.64c0,.47.09,1.08.07,1.62a1.72,1.72,0,0,1-.38-.07,9.74,9.74,0,0,0-2.29,0h-7.69V160.47c0-.46-.1-1.07-.08-1.61A1.72,1.72,0,0,1,751.19,158.93Zm-.53-.06c-.17.21-.25,0,0,0Z"/><path d="M784.48,177.72l0,0a.58.58,0,0,0,.4.16h11.54a.63.63,0,0,0,.62-.63v-19a.63.63,0,0,0-.62-.62H784.91a.64.64,0,0,0-.62.62v19a.56.56,0,0,0,.15.4S784.46,177.71,784.48,177.72Zm11.58-1c.16-.21.24-.05,0,0Zm-10.22-17.79a9.74,9.74,0,0,0,2.29,0h5.1a22.94,22.94,0,0,0,2.53,0c0,.48.07,1.23.07,1.52v14.64c0,.47.09,1.08.07,1.62a1.72,1.72,0,0,1-.38-.07,9.74,9.74,0,0,0-2.29,0h-7.7V160.47c0-.46-.09-1.07-.07-1.61A1.72,1.72,0,0,1,785.84,158.93Zm-.54-.06c-.16.21-.24,0,0,0Z"/><path d="M820.4,177.72l0,0a.56.56,0,0,0,.4.16h11.53a.64.64,0,0,0,.63-.63v-19a.64.64,0,0,0-.63-.62H820.84a.63.63,0,0,0-.62.62v19a.56.56,0,0,0,.15.4Zm11.58-1c.16-.21.25-.05,0,0Zm-10.22-17.79a9.74,9.74,0,0,0,2.29,0h5.11a22.75,22.75,0,0,0,2.52,0c0,.48.07,1.23.07,1.52v14.64c0,.47.09,1.08.07,1.62a1.66,1.66,0,0,1-.37-.07,9.74,9.74,0,0,0-2.29,0h-7.7V160.47c0-.46-.09-1.07-.07-1.61A1.56,1.56,0,0,1,821.76,158.93Zm-.53-.06c-.16.21-.25,0,0,0Z"/><path d="M854.57,178.47l0,0a.58.58,0,0,0,.4.16h11.54a.64.64,0,0,0,.62-.63v-19a.64.64,0,0,0-.62-.62H855a.63.63,0,0,0-.62.62v19a.58.58,0,0,0,.15.4Zm11.58-1c.17-.21.25-.05,0,0Zm-10.22-17.79a9.74,9.74,0,0,0,2.29,0h5.11a22.75,22.75,0,0,0,2.52,0c0,.48.07,1.23.07,1.52v14.64c0,.47.1,1.08.07,1.62a1.76,1.76,0,0,1-.37-.07,9.74,9.74,0,0,0-2.29,0h-7.7V161.22c0-.46-.09-1.07-.07-1.61A1.18,1.18,0,0,1,855.93,159.68Zm-.53-.06c-.16.21-.24,0,0,0Z"/><path d="M889.43,177.72l0,0a.56.56,0,0,0,.4.16H901.4a.64.64,0,0,0,.63-.63v-19a.64.64,0,0,0-.63-.62H889.87a.63.63,0,0,0-.62.62v19a.56.56,0,0,0,.15.4Zm11.58-1c.16-.21.25-.05,0,0Zm-10.22-17.79a9.74,9.74,0,0,0,2.29,0h5.11a22.75,22.75,0,0,0,2.52,0c0,.48.07,1.23.07,1.52v14.64c0,.47.09,1.08.07,1.62a1.66,1.66,0,0,1-.37-.07,9.74,9.74,0,0,0-2.29,0h-7.7V160.47c0-.46-.09-1.07-.07-1.61A1.56,1.56,0,0,1,890.79,158.93Zm-.53-.06c-.16.21-.25,0,0,0Z"/><path d="M923.4,177.72l0,0a.58.58,0,0,0,.4.16h11.54a.64.64,0,0,0,.62-.63v-19a.64.64,0,0,0-.62-.62H923.84a.63.63,0,0,0-.62.62v19a.56.56,0,0,0,.15.4Zm11.59-1c.16-.21.24-.05,0,0Zm-10.22-17.79a9.74,9.74,0,0,0,2.29,0h5.1a22.78,22.78,0,0,0,2.52,0c0,.48.08,1.23.08,1.52v14.64c0,.47.09,1.08.07,1.62a1.72,1.72,0,0,1-.38-.07,9.74,9.74,0,0,0-2.29,0h-7.7V160.47c0-.46-.09-1.07-.07-1.61A1.72,1.72,0,0,1,924.77,158.93Zm-.54-.06c-.16.21-.24,0,0,0Z"/><path d="M956.46,177.72l0,0a.58.58,0,0,0,.4.16h11.54a.64.64,0,0,0,.62-.63v-19a.64.64,0,0,0-.62-.62H956.9a.63.63,0,0,0-.62.62v19a.56.56,0,0,0,.15.4Zm11.59-1c.16-.21.24-.05,0,0Zm-10.22-17.79a9.74,9.74,0,0,0,2.29,0h5.1a22.78,22.78,0,0,0,2.52,0c0,.48.08,1.23.08,1.52v14.64c0,.47.09,1.08.07,1.62a1.72,1.72,0,0,1-.38-.07,9.74,9.74,0,0,0-2.29,0h-7.7V160.47c0-.46-.09-1.07-.07-1.61A1.72,1.72,0,0,1,957.83,158.93Zm-.54-.06c-.16.21-.24,0,0,0Z"/><path d="M924.84,190.52V213a.53.53,0,0,0,.15.39l0,.05,0,0a.58.58,0,0,0,.4.15H937a.63.63,0,0,0,.62-.62V190.52a.64.64,0,0,0-.62-.62H925.46A.63.63,0,0,0,924.84,190.52Zm1.22.58a5.81,5.81,0,0,1,1.2.05,43.06,43.06,0,0,0,5.68,0,27.65,27.65,0,0,0,3.38,0,16.7,16.7,0,0,0,.06,1.69v16.66a17.62,17.62,0,0,1,.07,2.92c-.52.05-1.1,0-1.6,0h-8.77v-18A17.84,17.84,0,0,1,926.06,191.1Z"/><path d="M890,191.33V213.8a.55.55,0,0,0,.15.39l0,0,0,0a.58.58,0,0,0,.4.16h11.54a.64.64,0,0,0,.62-.62V191.33a.62.62,0,0,0-.62-.62H890.61A.63.63,0,0,0,890,191.33Zm1.22.58a5.84,5.84,0,0,1,1.2,0,43.06,43.06,0,0,0,5.68,0,27.65,27.65,0,0,0,3.38,0,16.8,16.8,0,0,0,.06,1.7v16.66a17.59,17.59,0,0,1,.07,2.92c-.52.05-1.1,0-1.6,0h-8.77v-18A17.85,17.85,0,0,1,891.21,191.91Z"/><path d="M957.64,190.52V213a.58.58,0,0,0,.15.39l0,.05,0,0a.53.53,0,0,0,.39.15H969.8a.62.62,0,0,0,.62-.62V190.52a.63.63,0,0,0-.62-.62H958.26A.64.64,0,0,0,957.64,190.52Zm1.22.58a5.91,5.91,0,0,1,1.21.05,42.91,42.91,0,0,0,5.67,0,27.65,27.65,0,0,0,3.38,0c0,.5.06,1.38.06,1.69v16.66a17.62,17.62,0,0,1,.07,2.92c-.51.05-1.09,0-1.6,0h-8.76v-18A17.84,17.84,0,0,1,958.86,191.1Z"/><path d="M856.63,191.33V213.8a.56.56,0,0,0,.16.39l0,0,0,0a.54.54,0,0,0,.39.16h11.54a.63.63,0,0,0,.62-.62V191.33a.62.62,0,0,0-.62-.62H857.25A.63.63,0,0,0,856.63,191.33Zm1.22.58a5.94,5.94,0,0,1,1.21,0,42.91,42.91,0,0,0,5.67,0,27.64,27.64,0,0,0,3.38,0c0,.51.06,1.39.06,1.7v16.66a17.59,17.59,0,0,1,.07,2.92c-.51.05-1.09,0-1.6,0h-8.76v-18A17.85,17.85,0,0,1,857.85,191.91Z"/><path d="M820.89,191.33V213.8a.55.55,0,0,0,.15.39l0,0,0,0a.58.58,0,0,0,.4.16h11.54a.64.64,0,0,0,.62-.62V191.33a.63.63,0,0,0-.62-.62H821.51A.62.62,0,0,0,820.89,191.33Zm1.22.58a5.87,5.87,0,0,1,1.2,0,42.91,42.91,0,0,0,5.67,0,27.64,27.64,0,0,0,3.38,0c0,.51.06,1.39.06,1.7v16.66a18.72,18.72,0,0,1,.08,2.92c-.52.05-1.1,0-1.6,0h-8.77v-18A17.85,17.85,0,0,1,822.11,191.91Z"/><path d="M785.53,191.33V213.8a.55.55,0,0,0,.15.39l0,0,0,0a.58.58,0,0,0,.4.16h11.54a.64.64,0,0,0,.62-.62V191.33a.62.62,0,0,0-.62-.62H786.15A.63.63,0,0,0,785.53,191.33Zm1.22.58a5.84,5.84,0,0,1,1.2,0,43.06,43.06,0,0,0,5.68,0,27.65,27.65,0,0,0,3.38,0,16.8,16.8,0,0,0,.06,1.7v16.66a17.59,17.59,0,0,1,.07,2.92c-.52.05-1.1,0-1.6,0h-8.77v-18A17.85,17.85,0,0,1,786.75,191.91Z"/><path d="M749.83,214.23l0,0a.58.58,0,0,0,.4.16H761.8a.63.63,0,0,0,.62-.62V191.33a.62.62,0,0,0-.62-.62H750.26a.63.63,0,0,0-.62.62V213.8a.55.55,0,0,0,.15.39A.08.08,0,0,0,749.83,214.23Zm1-22.32a6,6,0,0,1,1.21,0,42.91,42.91,0,0,0,5.67,0,27.65,27.65,0,0,0,3.38,0,16.8,16.8,0,0,0,.06,1.7v16.66a17.59,17.59,0,0,1,.07,2.92c-.51.05-1.09,0-1.6,0h-8.76v-18A17.85,17.85,0,0,1,750.86,191.91Z"/><path d="M714.77,191.33V213.8a.56.56,0,0,0,.16.39l0,0,0,0a.54.54,0,0,0,.39.16h11.54a.63.63,0,0,0,.62-.62V191.33a.62.62,0,0,0-.62-.62H715.39A.63.63,0,0,0,714.77,191.33Zm1.22.58a5.94,5.94,0,0,1,1.21,0,42.91,42.91,0,0,0,5.67,0,27.64,27.64,0,0,0,3.38,0c0,.51.06,1.39.06,1.7v16.66a17.59,17.59,0,0,1,.07,2.92c-.51.05-1.09,0-1.6,0H716v-18A17.85,17.85,0,0,1,716,191.91Z"/><path d="M678.19,191.33V213.8a.56.56,0,0,0,.16.39l0,0,0,0a.56.56,0,0,0,.4.16h11.53a.64.64,0,0,0,.63-.62V191.33a.63.63,0,0,0-.63-.62H678.82A.63.63,0,0,0,678.19,191.33Zm1.22.58a5.94,5.94,0,0,1,1.21,0,42.91,42.91,0,0,0,5.67,0,27.64,27.64,0,0,0,3.38,0c0,.51.06,1.39.06,1.7v16.66a18.72,18.72,0,0,1,.08,2.92c-.52.05-1.1,0-1.6,0h-8.77v-18A18.79,18.79,0,0,1,679.41,191.91Z"/><path d="M653.61,191.54H642.07a.62.62,0,0,0-.62.62v22.46a.56.56,0,0,0,.15.4l0,0,0,0a.58.58,0,0,0,.4.16h11.54a.64.64,0,0,0,.62-.63V192.16A.63.63,0,0,0,653.61,191.54ZM653.06,214c-.52.05-1.1,0-1.6,0h-8.77V196a17.85,17.85,0,0,1,0-3.27,5.87,5.87,0,0,1,1.2,0,43.06,43.06,0,0,0,5.68,0,27.65,27.65,0,0,0,3.38,0,16.8,16.8,0,0,0,.06,1.7v16.66A18.75,18.75,0,0,1,653.06,214Z"/><path d="M695.8,220.8H674.89a.64.64,0,0,0-.54.94c1.72,3.92,1.08,8.28,1.08,12.63a.63.63,0,0,0,.62.62h2.44v23.68a.58.58,0,0,0,.16.4l0,0,0,0a.56.56,0,0,0,.4.15h11.53a.63.63,0,0,0,.63-.62V235h2.36a.63.63,0,0,0,.62-.62c.08-4.55-.24-8.57,2.07-12.63A.63.63,0,0,0,695.8,220.8Zm-6,37.25c-3.35.09-6.71,0-10.06,0V236.41a28.73,28.73,0,0,0,0-4.73v-.88H688a7.21,7.21,0,0,0,1.61,0,1.81,1.81,0,0,1,.42-.05,18.22,18.22,0,0,0,0,2v19.66a28.73,28.73,0,0,0,0,4.73,6.41,6.41,0,0,1,.06.89Zm3.39-33.22c-.56,2.26.47,4.92-.13,7.17-.17.63-.34,1.89-1.35,2a.93.93,0,0,1-.43,0v-.25a1.11,1.11,0,0,0,0-.66v-2.87a.59.59,0,0,0,0-.23.63.63,0,0,0-.58-.39H679.1a.65.65,0,0,0-.38.15s0,0,0,0l0,0a.54.54,0,0,0-.16.39,18.33,18.33,0,0,0,0,2.87v.82a2.32,2.32,0,0,0-.91-.11c-.19,0-.59.05-.92.05a14.84,14.84,0,0,1,0-3c0-3.39.18-5.84-.88-8.77h18.88A9.86,9.86,0,0,0,693.19,224.83Z"/><path d="M731.62,220.21H710.71a.64.64,0,0,0-.54.94c1.72,3.92,1.08,8.29,1.08,12.63a.62.62,0,0,0,.62.62h2.44v23.68a.58.58,0,0,0,.16.4l0,0,0,0a.56.56,0,0,0,.4.16h11.53a.64.64,0,0,0,.63-.63V234.4h2.36a.62.62,0,0,0,.62-.62c.08-4.55-.24-8.57,2.07-12.63A.63.63,0,0,0,731.62,220.21Zm-6,37.25c-3.35.09-6.71,0-10.06,0V235.83a28.73,28.73,0,0,0,0-4.73v-.89h6.1c.32,0,1.21,0,2.11,0a6.19,6.19,0,0,0,1.61,0,1.81,1.81,0,0,1,.42-.05,18.22,18.22,0,0,0,.05,2v19.66a28.73,28.73,0,0,0,0,4.73,6.41,6.41,0,0,1,.06.89ZM729,224.24c-.56,2.26.47,4.93-.13,7.18-.17.63-.34,1.88-1.35,2a1,1,0,0,1-.43,0v-.25a1.14,1.14,0,0,0,0-.67v-2.86a.64.64,0,0,0-.63-.63H714.94a.58.58,0,0,0-.4.16l0,0,0,0a.56.56,0,0,0-.16.4,18.2,18.2,0,0,0,0,2.86v.82a2.32,2.32,0,0,0-.91-.11c-.19,0-.59.06-.92.05a14.84,14.84,0,0,1,0-3c0-3.38.18-5.84-.88-8.77h18.88A9.86,9.86,0,0,0,729,224.24Z"/><path d="M768.14,220.21H747.23a.63.63,0,0,0-.53.94c1.71,3.92,1.07,8.29,1.07,12.63a.63.63,0,0,0,.63.62h2.44v23.68a.58.58,0,0,0,.15.4l0,0,0,0a.58.58,0,0,0,.4.16H763a.64.64,0,0,0,.62-.63V234.4H766a.63.63,0,0,0,.62-.62c.08-4.55-.25-8.57,2.07-12.63A.63.63,0,0,0,768.14,220.21Zm-6,37.25c-3.34.09-6.71,0-10.06,0V235.83a27.67,27.67,0,0,0,0-4.73v-.89h6.11c.32,0,1.2,0,2.1,0a6.18,6.18,0,0,0,1.61,0,1.89,1.89,0,0,1,.43-.05,16.07,16.07,0,0,0,0,2v19.66a27.67,27.67,0,0,0,0,4.73,5.33,5.33,0,0,1,0,.89Zm3.4-33.22c-.56,2.26.46,4.93-.14,7.18-.16.63-.33,1.88-1.34,2a1.06,1.06,0,0,1-.44,0v-.25a1,1,0,0,0,0-.67v-2.86a.63.63,0,0,0-.18-.44A.66.66,0,0,0,763,229H751.46a.54.54,0,0,0-.39.16l-.05,0,0,0a.56.56,0,0,0-.15.4,17.07,17.07,0,0,0,0,2.86v.82a2.35,2.35,0,0,0-.91-.11c-.2,0-.6.06-.92.05a14.84,14.84,0,0,1,0-3c0-3.38.17-5.84-.89-8.77H767A9.61,9.61,0,0,0,765.54,224.24Z"/><path d="M803.74,219.52H782.83a.63.63,0,0,0-.54.94c1.72,3.92,1.08,8.28,1.08,12.62a.63.63,0,0,0,.62.63h2.44v23.68a.54.54,0,0,0,.16.39l0,.05,0,0a.56.56,0,0,0,.4.15h11.53a.62.62,0,0,0,.62-.62V233.71h2.37a.63.63,0,0,0,.62-.63c.08-4.54-.25-8.57,2.07-12.62A.63.63,0,0,0,803.74,219.52Zm-6,37.25c-3.35.09-6.71,0-10.06,0V235.13a28.73,28.73,0,0,0,0-4.73v-.89a1.46,1.46,0,0,0,.21,0h5.9c.33,0,1.21,0,2.1,0a6.19,6.19,0,0,0,1.61,0,1.72,1.72,0,0,1,.42,0,18,18,0,0,0,.05,2v19.67a28.73,28.73,0,0,0,0,4.73,5.13,5.13,0,0,1,0,.88Zm3.39-33.23c-.56,2.27.46,4.93-.13,7.18-.17.63-.34,1.88-1.35,2a1.08,1.08,0,0,1-.44,0v-.25a1,1,0,0,0,0-.66h0v-2.87h0a.65.65,0,0,0-.18-.44.63.63,0,0,0-.44-.18H787a.59.59,0,0,0-.38.15l0,0,0,0a.58.58,0,0,0-.16.4h0a18.33,18.33,0,0,0,0,2.87v.81a2.78,2.78,0,0,0-.91-.11c-.19,0-.59.06-.92.06a14.84,14.84,0,0,1,0-3c0-3.39.18-5.84-.88-8.78h18.88A10,10,0,0,0,801.13,223.54Z"/><path d="M874.43,220.21H853.52a.63.63,0,0,0-.54.94c1.72,3.92,1.08,8.29,1.08,12.63a.62.62,0,0,0,.62.62h2.44v23.68a.58.58,0,0,0,.16.4l0,0,0,0a.55.55,0,0,0,.4.16h11.53a.63.63,0,0,0,.62-.63V234.4h2.37a.62.62,0,0,0,.62-.62c.08-4.55-.25-8.57,2.07-12.63A.63.63,0,0,0,874.43,220.21Zm-6,37.25c-3.35.09-6.71,0-10.06,0V235.83a28.73,28.73,0,0,0,0-4.73v-.89h6.1c.32,0,1.21,0,2.11,0a6.19,6.19,0,0,0,1.61,0,1.81,1.81,0,0,1,.42-.05,18.22,18.22,0,0,0,0,2v19.66a28.73,28.73,0,0,0,0,4.73,5.33,5.33,0,0,1,.05.89Zm3.39-33.22c-.56,2.26.46,4.93-.13,7.18-.17.63-.34,1.88-1.35,2a1.08,1.08,0,0,1-.44,0v-.25a1,1,0,0,0,0-.67v-2.86a.63.63,0,0,0-.62-.63H857.75a.56.56,0,0,0-.4.16l0,0,0,0a.56.56,0,0,0-.16.4,18.2,18.2,0,0,0,0,2.86v.82a2.32,2.32,0,0,0-.91-.11c-.19,0-.59.06-.92.05a14.84,14.84,0,0,1,0-3c0-3.38.18-5.84-.88-8.77H873.3A9.86,9.86,0,0,0,871.82,224.24Z"/><path d="M839.08,218.86H818.17a.62.62,0,0,0-.53.93c1.71,3.92,1.07,8.29,1.07,12.63a.63.63,0,0,0,.62.62h2.45v23.68a.58.58,0,0,0,.15.4l0,0,0,0a.58.58,0,0,0,.4.16h11.54a.64.64,0,0,0,.62-.63V233h2.36a.64.64,0,0,0,.63-.62c.08-4.55-.25-8.57,2.07-12.63A.62.62,0,0,0,839.08,218.86Zm-6,37.24c-3.35.09-6.71,0-10.06,0V234.47a27.67,27.67,0,0,0,0-4.73v-.89h6.11c.32,0,1.2,0,2.1,0a6.18,6.18,0,0,0,1.61,0,1.89,1.89,0,0,1,.43,0,16.23,16.23,0,0,0,0,2v19.67a28.61,28.61,0,0,0,0,4.72,5.15,5.15,0,0,1,.06.89Zm3.4-33.22c-.56,2.26.46,4.93-.14,7.18-.16.63-.33,1.88-1.35,2a1,1,0,0,1-.43,0v-.25a1,1,0,0,0,0-.67v-2.86a.6.6,0,0,0,0-.24.64.64,0,0,0-.57-.38H822.39a.51.51,0,0,0-.38.15l0,0,0,0a.58.58,0,0,0-.15.4,17.07,17.07,0,0,0,0,2.86v.82a2.57,2.57,0,0,0-.91-.11c-.2,0-.6.06-.92,0a14.84,14.84,0,0,1,0-3c0-3.38.17-5.83-.89-8.77H838A9.58,9.58,0,0,0,836.48,222.88Z"/><path d="M908.94,219.52H888a.63.63,0,0,0-.53.94c1.71,3.92,1.07,8.28,1.07,12.62a.64.64,0,0,0,.62.63h2.45v23.68a.53.53,0,0,0,.15.39l0,.05,0,0a.58.58,0,0,0,.4.15H903.8a.63.63,0,0,0,.62-.62V233.71h2.36a.65.65,0,0,0,.63-.63c.08-4.54-.25-8.57,2.07-12.62A.63.63,0,0,0,908.94,219.52Zm-6,37.25c-3.35.09-6.71,0-10.06,0V235.13a27.67,27.67,0,0,0,0-4.73v-.89a1.61,1.61,0,0,0,.22,0H899c.32,0,1.2,0,2.09,0a6.18,6.18,0,0,0,1.61,0,1.8,1.8,0,0,1,.43,0,16,16,0,0,0,0,2v19.67a28.73,28.73,0,0,0,0,4.73,5,5,0,0,1,.06.88Zm3.4-33.23c-.56,2.27.46,4.93-.14,7.18-.16.63-.33,1.88-1.35,2a1,1,0,0,1-.43,0v-.25a1,1,0,0,0,0-.66v-2.87a.64.64,0,0,0-.62-.62H892.25a.55.55,0,0,0-.38.15l0,0,0,0a.58.58,0,0,0-.15.4h0a17.19,17.19,0,0,0,0,2.87v.81a2.83,2.83,0,0,0-.91-.11c-.2,0-.6.06-.92.06a14.84,14.84,0,0,1,0-3c0-3.39.17-5.84-.89-8.78h18.88A9.71,9.71,0,0,0,906.34,223.54Z"/><path d="M943.22,218.86H922.31a.63.63,0,0,0-.54.93c1.72,3.92,1.08,8.29,1.08,12.63a.62.62,0,0,0,.62.62h2.44v23.68a.56.56,0,0,0,.16.4l0,0,0,0a.56.56,0,0,0,.4.16h11.53a.63.63,0,0,0,.62-.63V233h2.37a.62.62,0,0,0,.62-.62c.08-4.55-.25-8.57,2.07-12.63A.62.62,0,0,0,943.22,218.86Zm-6,37.24c-3.35.09-6.71,0-10.06,0V234.47a28.73,28.73,0,0,0,0-4.73v-.89h6.1c.32,0,1.21,0,2.11,0a6.19,6.19,0,0,0,1.61,0,1.81,1.81,0,0,1,.42,0,18.22,18.22,0,0,0,.05,2v19.67a28.61,28.61,0,0,0,0,4.72,5.33,5.33,0,0,1,0,.89Zm3.39-33.22c-.56,2.26.46,4.93-.13,7.18-.17.63-.34,1.88-1.35,2a1.08,1.08,0,0,1-.44,0v-.25a1,1,0,0,0,0-.67v-2.86a.47.47,0,0,0-.05-.24.63.63,0,0,0-.57-.38H926.52a.55.55,0,0,0-.38.15l0,0,0,0a.58.58,0,0,0-.16.4,18.2,18.2,0,0,0,0,2.86v.82a2.53,2.53,0,0,0-.91-.11c-.19,0-.59.06-.92,0a14.84,14.84,0,0,1,0-3c0-3.38.18-5.83-.88-8.77h18.88A9.86,9.86,0,0,0,940.61,222.88Z"/><path d="M617.14,155.6H605.61a.63.63,0,0,0-.63.62v19a.58.58,0,0,0,.16.4l0,0,0,0a.56.56,0,0,0,.4.15h11.53a.63.63,0,0,0,.63-.62v-19A.64.64,0,0,0,617.14,155.6ZM606,156.79c-.16.21-.25,0,0,0Zm10.22,17.79a9.74,9.74,0,0,0-2.29,0h-7.7V158.39c0-.47-.09-1.08-.07-1.61a1.55,1.55,0,0,1,.37.06,9.24,9.24,0,0,0,2.29,0h5.11a22.47,22.47,0,0,0,2.52,0c0,.48.07,1.23.07,1.52V173c0,.47.09,1.08.07,1.62A1.66,1.66,0,0,1,616.22,174.58Zm.53.06c.16-.21.25,0,0,0Z"/><path d="M617.14,188.83H605.61a.64.64,0,0,0-.63.62v22.47a.54.54,0,0,0,.16.39l0,.05,0,0a.56.56,0,0,0,.4.15h11.53a.63.63,0,0,0,.63-.62V189.45A.64.64,0,0,0,617.14,188.83Zm-.54,22.49c-.52.05-1.1,0-1.6,0h-8.77v-18a18.78,18.78,0,0,1,0-3.27,5.28,5.28,0,0,1,1.21.05,42.91,42.91,0,0,0,5.67,0,25.93,25.93,0,0,0,3.38,0c0,.51.06,1.39.06,1.7V208.4A18.75,18.75,0,0,1,616.6,211.32Z"/><path d="M581.32,214V191.48a.63.63,0,0,0-.62-.62H569.16a.63.63,0,0,0-.62.62V214a.55.55,0,0,0,.15.39l0,0,0,0a.58.58,0,0,0,.4.16H580.7A.63.63,0,0,0,581.32,214Zm-1.17-.6c-.51.05-1.09,0-1.6,0h-8.76v-18a17.84,17.84,0,0,1,0-3.27,6,6,0,0,1,1.21,0,42.91,42.91,0,0,0,5.67,0,27.65,27.65,0,0,0,3.38,0,16.8,16.8,0,0,0,.06,1.7v16.66A17.62,17.62,0,0,1,580.15,213.35Z"/><path d="M568.73,175.64l0,0a.58.58,0,0,0,.4.15H580.7a.62.62,0,0,0,.62-.62V156.93a.62.62,0,0,0-.62-.62H569.16a.63.63,0,0,0-.62.62V175.2a.58.58,0,0,0,.15.4Zm11.38-.81c0,.4-.25.23,0,0Zm-8-17.28h5.56a20.39,20.39,0,0,0,2.29,0c0,.46.08,1.14.08,1.43v14.32a5.14,5.14,0,0,0,0,1.3v0c-.87.07-1.91-.08-2.7-.08h-7.59V159a7.11,7.11,0,0,0,0-1.53h0C570.55,157.42,571.44,157.55,572.15,157.55Zm-2.4-.25c0-.39.25-.23,0,0Z"/><path d="M581.5,230.14H570a.63.63,0,0,0-.62.62v22.47a.53.53,0,0,0,.15.39l0,0,0,0a.58.58,0,0,0,.4.15H581.5a.63.63,0,0,0,.62-.62V230.76A.64.64,0,0,0,581.5,230.14ZM581,252.63c-.52.05-1.1,0-1.6,0h-8.77v-18a17.85,17.85,0,0,1,0-3.27,5.21,5.21,0,0,1,1.2,0,43.06,43.06,0,0,0,5.68,0,26,26,0,0,0,3.38,0c-.05.51,0,1.39,0,1.7v16.66A18.75,18.75,0,0,1,581,252.63Z"/><path d="M530.89,175.64l0,0a.58.58,0,0,0,.4.15h11.54a.63.63,0,0,0,.62-.62V156.93a.63.63,0,0,0-.62-.62H531.33a.62.62,0,0,0-.62.62V175.2a.58.58,0,0,0,.15.4Zm11.39-.81c0,.4-.25.23,0,0Zm-8-17.28h5.55a20.58,20.58,0,0,0,2.3,0c0,.46.07,1.14.07,1.43v14.32a5.65,5.65,0,0,0,0,1.3v0c-.88.07-1.91-.08-2.71-.08H532V159a6.52,6.52,0,0,0,0-1.53h0C532.72,157.42,533.61,157.55,534.32,157.55Zm-2.4-.25c0-.39.24-.23,0,0Z"/><path d="M543.49,214V191.48a.64.64,0,0,0-.62-.62H531.33a.62.62,0,0,0-.62.62V214a.55.55,0,0,0,.15.39l0,0,0,0a.58.58,0,0,0,.4.16h11.54A.64.64,0,0,0,543.49,214Zm-1.17-.6c-.52.05-1.1,0-1.6,0H532v-18a17.85,17.85,0,0,1,0-3.27,5.87,5.87,0,0,1,1.2,0,42.91,42.91,0,0,0,5.67,0,27.81,27.81,0,0,0,3.39,0c-.05.51,0,1.39,0,1.7v16.66A18.75,18.75,0,0,1,542.32,213.35Z"/><path d="M543.66,230.14H532.13a.64.64,0,0,0-.63.62v22.47a.54.54,0,0,0,.16.39l0,0,0,0a.56.56,0,0,0,.4.15h11.53a.62.62,0,0,0,.62-.62V230.76A.63.63,0,0,0,543.66,230.14Zm-.54,22.49c-.52.05-1.1,0-1.6,0h-8.77v-18a18.78,18.78,0,0,1,0-3.27,5.28,5.28,0,0,1,1.21,0,42.91,42.91,0,0,0,5.67,0,25.93,25.93,0,0,0,3.38,0c0,.51.06,1.39.06,1.7v16.66A18.75,18.75,0,0,1,543.12,252.63Z"/><path d="M494.39,174.81l0,0a.58.58,0,0,0,.4.16h11.54a.64.64,0,0,0,.62-.63V156.1a.63.63,0,0,0-.62-.62H494.83a.62.62,0,0,0-.62.62v18.27a.58.58,0,0,0,.15.4Zm11.39-.81c0,.4-.25.23,0,0Zm-8-17.28h5.55a20.58,20.58,0,0,0,2.3,0c0,.46.07,1.14.07,1.43v14.32a5.65,5.65,0,0,0,0,1.3v0c-.88.07-1.91-.08-2.71-.08h-7.59V158.19a6.44,6.44,0,0,0,0-1.52v0C496.22,156.59,497.11,156.72,497.82,156.72Zm-2.4-.25c-.05-.39.24-.23,0,0Z"/><path d="M507,213.12V190.65a.64.64,0,0,0-.62-.62H494.83a.63.63,0,0,0-.62.62v22.47a.53.53,0,0,0,.15.39l0,.05,0,0a.54.54,0,0,0,.4.16h11.54A.64.64,0,0,0,507,213.12Zm-1.17-.6c-.52,0-1.1,0-1.6,0h-8.77v-18a17.85,17.85,0,0,1,0-3.27,5.87,5.87,0,0,1,1.2,0,42.91,42.91,0,0,0,5.67,0,27.81,27.81,0,0,0,3.39,0c-.05.51.05,1.39.05,1.7V209.6A18.75,18.75,0,0,1,505.82,212.52Z"/><path d="M507.16,229.31H495.63a.64.64,0,0,0-.63.62V252.4a.54.54,0,0,0,.16.39l0,.05,0,0a.56.56,0,0,0,.4.15h11.53a.62.62,0,0,0,.62-.62V229.93A.63.63,0,0,0,507.16,229.31Zm-.54,22.49c-.52,0-1.1,0-1.6,0h-8.77v-18a18.78,18.78,0,0,1,0-3.27,5.28,5.28,0,0,1,1.21.05,42.91,42.91,0,0,0,5.67,0,25.93,25.93,0,0,0,3.38,0c0,.51.06,1.39.06,1.7v16.66A18.75,18.75,0,0,1,506.62,251.8Z"/><path d="M409.26,115.4a.37.37,0,0,0,.08.18s0,0,0,0a.47.47,0,0,0,.1.1l.09.07.06,0a.45.45,0,0,0,.2,0H592a.63.63,0,0,0,.17-1.23L511.57,91.38c-3.42-1-7.68-3.07-11.27-3.25-2-.1-4.42,1.09-6.35,1.66L447.6,103.44l-37.94,11.18,0,0a.8.8,0,0,0-.16.08s-.05,0-.06,0l-.07.09a.75.75,0,0,0-.07.12.13.13,0,0,0,0,.06.41.41,0,0,0,0,.16s0,.09,0,.14S409.25,115.38,409.26,115.4Zm80.15-23c3.19-.94,7.25-3,10.6-3.12-.49,0,1.22.4,1.69.53l6.17,1.78,47,13.53,32.81,9.46H414.14Z"/></g></g></svg>