<svg xmlns="http://www.w3.org/2000/svg" viewBox="0 0 1000 447.51"><title>Asset 5</title><g id="Layer_2" data-name="Layer 2"><g id="Layer_1-2" data-name="Layer 1"><path d="M997.7,97.37l-221.37,9.17-31.2,1.3a1.69,1.69,0,0,0-.74.08l-10.9,4.23q1.66-19,3.31-38A1.87,1.87,0,0,0,735.18,72a2.28,2.28,0,0,0-.66-.14l-49.11-3.08L560.19,11.24l-24-11a1,1,0,0,0-.16,0l-.22-.08a2.45,2.45,0,0,0-2.2.37,1.88,1.88,0,0,0-.18.12L465.17,55.2l-128.6-8.83a2.29,2.29,0,0,0-2.28,2.28q3.45,34,6.91,68L262.5,93.35a2.49,2.49,0,0,0-.7-.09L34.15,80.08,2.36,78.24a1.93,1.93,0,0,0-1.95,1.1,1.87,1.87,0,0,0,0,2.33L57.07,196.55q44.9,91,89.8,182.06l20.54,41.63a1.89,1.89,0,0,0,.93,1.11,1.64,1.64,0,0,0,.33.14q4.31,12.18,8.62,24.35a2.34,2.34,0,0,0,2.19,1.67H872a2.26,2.26,0,0,0,2-1.12q6.59-12.42,13.19-24.84a2.33,2.33,0,0,0,2.06-1.66l37.47-108.24Q956.44,225.82,986.14,140l13.76-39.75A2.29,2.29,0,0,0,997.7,97.37ZM732.88,119.23c0-.62.1-1.24.16-1.87,1.49-.3,3.51-1.53,4.71-2l4.57-1.77q-14.73,128.82-29.45,257.66-2,17.64-4,35.28h-1L731,140.94l1.89-21.71Zm-.82-43q-4.81,55.41-9.65,110.83L706.72,367.27q-1.71,19.64-3.41,39.26H683.85L698.61,302.2l24.33-172,5.58-39.47a2.33,2.33,0,0,0-1-2.57L696.89,74.06ZM535.84,53.57q.7-23.94,1.43-47.87L668.12,65.83,683.71,73h0l17.62,8.1,3.75,1.72,1.47.68,10.59,4.86c1.25.58,4.38,2.72,6.23,3.15l.21.09-.06.41c-.16,1.29-.14,2.83-.26,3.66-.49,3.44-1,6.88-1.46,10.32q-.84,6-1.69,12-1.15,8.19-2.32,16.37-1.81,12.91-3.65,25.83l-12.87,91q-3.22,22.77-6.44,45.53l-11.52,81.4q-1.66,11.82-3.34,23.65a43.35,43.35,0,0,0-.88,4.5c-2-.19-5.4.41-7.15.6-20.58.37-41.16,1.15-61.76,1.75-28,.81-55.95,1.69-83.93,2.43l-1.06,0q2-68.16,4.06-136.31Q532.54,164.16,535.84,53.57Zm-69,6.11a1.81,1.81,0,0,0,.88-.7L532.67,7q-2,67.58-4,135.15-3.28,110.59-6.59,221.18-.7,23.86-1.42,47.75c-18.58.2-37.26-.93-55.81-1.38q-21.65-.51-43.3-.75-5.65-74.31-11.32-148.61-.78-10.06-1.54-20.14-1.17-15.27-2.33-30.54l-.42-5.52q-1.77-23.18-3.53-46.35-1.28-16.8-2.56-33.6a82.31,82.31,0,0,0-.66-8.61,2.34,2.34,0,0,1,0-.26c-.05-.53-.09-1.06-.1-1.59.44-.48.9-.94,1.4-1.4,2-1.7,4.48-3.2,6.35-4.69l4.25-3.4h0l18.67-14.93,7.25-5.79ZM339.1,51.1l120.82,8.29-2,1.64L410.2,99.14c-4.25,3.4-14.49,8.66-15.76,14.23-.52,2.26.44,5.75.61,8l1.26,16.5q2,26.73,4.07,53.46,3.48,45.57,6.95,91.15,2.64,34.59,5.27,69.17,2.19,28.62,4.36,57.25-20.77-.21-41.56-.21-6.07-59.81-12.14-119.61-9.94-97.86-19.87-195.72Zm2.59,70.43q2.22,21.91,4.45,43.83l21.39,210.73q1.67,16.32,3.31,32.65-21.15,0-42.32.25c-.28-1.26-.82-2.71-1-3.43l-13.05-63.87q-8-38.94-15.92-77.89-13.21-64.67-26.42-129.33L264.88,98.8Zm-91-24.36c2.44.14,6.31,1,9.23.89a35.84,35.84,0,0,0,1,3.66q3.46,17,6.94,34l13.71,67.1q17.4,85.14,34.79,170.29l7.35,36q-46.12.56-92.14,2.46L164,312.8Q104.78,226.24,45.58,139.69L33,121.28l-.33-.48L6.85,83.06ZM114.76,303.25q-44.9-91-89.8-182.06l-6.39-13,59.24,86.62,26.45,38.67,6.32,9.24q38.78,56.7,77.54,113.39,13.77,20.11,27.53,40.25c3.11,4.54,6.13,10.63,9.78,15.36q-21.93,1-43.87,2.2l-11.84.68Zm762,128.26c-3.46,6.51-4.19,10.66-12,11.45-12.4,1.27-25.6,0-38.07,0H194c-2.43,0-8.76,1.07-10.88,0-3.35-1.69-3.55-4.32-4.77-7.76l-4.93-13.93L230.94,417a2.69,2.69,0,0,0,.61-.14,20.89,20.89,0,0,0,3.59,0l31.91-.92,59.5-1.7h46.9l46-.45L522.8,417l138.59-5.18,19.86-.74h28.54l3,.11,151.92,9,17.44,1Q879.46,426.39,876.75,431.51Zm47.86-127.66q-18,51.93-36,103.87c-.59,1.68-2.09,4.47-2.89,6.89l-155.66-7.19c-3.78-.17-7.56-.3-11.34-.42l-5.4-.32,29.61-259q2-17.67,4-35.36l219.35-9.09,28.09-1.16Q959.54,203,924.61,303.85Z"/></g></g></svg>