<svg xmlns="http://www.w3.org/2000/svg" viewBox="0 0 1000 806.79"><title>Asset 6</title><g id="Layer_2" data-name="Layer 2"><g id="Layer_1-2" data-name="Layer 1"><path d="M1000,701.74c-.27-33.36,0-66.74,0-100.11a3.72,3.72,0,0,0-1.1-2.69c.4-6.9-2.7-13.78-10.69-19.51-.38-4.48-1-8.93-1.26-13-.73-9.88-1.71-19.75-2.88-29.6,1-12.18-3.28-26-5.51-37.84-.23-1.25-.49-2.5-.72-3.75q-1.44-8-3-16c-.75-3.74-1.58-7.48-2.39-11.21l-.63-3.11c0-.1-.06-.17-.08-.26-4.86-21.95-10.73-43.73-17.6-65.19,0-.05,0-.1,0-.15l-.18-.52a677.05,677.05,0,0,0-28.67-74.3,3.82,3.82,0,0,0-.49-1.05A615.38,615.38,0,0,0,890,258.22a5.21,5.21,0,0,0-.24-.47l-1.45-2.24c-8.08-13-16.62-25.73-25.73-38.06-4.18-5.66-8.48-11.19-12.86-16.64l-.05-.08a3.88,3.88,0,0,0-1.09-1.45l-.23-.2a525.72,525.72,0,0,0-46-49.75,3.86,3.86,0,0,0-1-1.52v0l-.07-.07-.38-.35-.1-.1c-7.33-6.8-15-13.3-22.73-19.68-4.64-3.91-9.34-7.76-14.11-11.5-4.6-3.73-9.18-7.45-13.71-11.22-.15-.12-.31-.21-.46-.32s-.23-.22-.36-.31c-33.52-24.62-70.13-46.85-108.93-62a3.68,3.68,0,0,0-1-.23l-.9-.57a3.77,3.77,0,0,0-2.27-.61q-12-5.09-24.15-9.68a3.5,3.5,0,0,0-2-1l-8.06-2.72Q592.6,24.1,583,21l-3-1a3.5,3.5,0,0,0-.63-.12q-14.37-4.48-29-8.3C532.81,7,517.09,2.44,500.68,1.44L499,.52a4.22,4.22,0,0,0-4.92.64l-.13.11a96.81,96.81,0,0,0-16.13,1.35c-3.59.61-7.16,1.29-10.73,2h0l-.07,0a487.94,487.94,0,0,0-59.21,15.84c-5.66,1.89-11.27,3.89-16.86,6l-.55.18-.6.25a548.08,548.08,0,0,0-76.2,35.28c-.6.31-1.19.59-1.78.89a3.83,3.83,0,0,0-.75.52c-3.09,1.75-6.15,3.54-9.21,5.35a4.54,4.54,0,0,0-1,.46c-.81.52-1.62,1.06-2.44,1.58q-12.84,7.74-25.23,16.18c-6.55,3.93-13.83,8-18.94,13.25-3.54,1.24-6.62,4.18-9.44,6.44-6.79,5.45-13.26,11.29-19.7,17.14q-14.82,12.74-28.71,26.5c-1,1-2,2-2.95,3l-.68.64a4.51,4.51,0,0,0-.51.58c-2,2-3.94,4-5.87,6.07-9.39,5-16.81,17.11-23.18,25.16q-9,11.4-17.61,23.1a3.32,3.32,0,0,0-.34.68A578.36,578.36,0,0,0,108,266.39l-.57.69a4.57,4.57,0,0,0-1,2.06,636.61,636.61,0,0,0-30.09,60l0,.05a4.73,4.73,0,0,0-.28.44,5,5,0,0,0-.76,1.35c-.62,1.67-1.24,3.35-1.85,5q-12.93,30.45-23,62.11c-.4,1.07-.79,2.15-1.19,3.22a3.24,3.24,0,0,0-.18,1.14C41.9,425.58,35.83,449,30.81,472.7a1.66,1.66,0,0,0-.15.33c-5.58,7.93-5.24,25.34-6.56,33.9-.61,3.95-1.18,7.9-1.77,11.85-.29,1.88-.55,3.77-.84,5.65-.1.74-.22,1.47-.32,2.21q-1.11,7.5-2.11,15c-.17,1.27-.36,2.54-.53,3.81a4.06,4.06,0,0,0-.18,1.34,1.69,1.69,0,0,0,0,.23c-2.24,17.69-4,35.44-5.35,53.22-7.78,6.11-11.35,11.78-12,17a3,3,0,0,0-.44,2.81Q.3,679.47,0,738.85a4.12,4.12,0,0,0,3,3.92C164.37,783,330.56,804.93,496.91,806.65c80.36.83,160.91-1.88,241-8.9,67-5.87,137.08-12.74,201-35,19.25-6.7,42.51-15.48,54.84-32.79C1000.1,721,1000.07,712.5,1000,701.74Zm-23.5-160.46q2.31,20.81,3.24,41.7a41.48,41.48,0,0,1-.46,6.48l-27-39.74ZM976,598.41c-2.48,4-6.29,7.34-11.8,11.15-1.14.79-2.3,1.52-3.47,2.26a170.18,170.18,0,0,1-15.47,8q2-30.09,3.91-60.17l23.67,34.81C973.46,595.33,974.91,596.9,976,598.41Zm-26-56.48V491.28l21.15,43.28Zm19.75-28.67q-9.09-18.6-18.19-37.22l12.93-4.6Q967.12,492.35,969.75,513.26Zm-20.47-45q-2.76-21.09-5.51-42.18l18.45,37.57Zm3.59-44.92c.65,2.25,1.26,4.5,1.89,6.75q-6-12.3-12.08-24.6l4.61-.66Q950.22,414.06,952.87,423.34Zm-8.15-26.28-4.9.7q-3-15.12-6.1-30.25C937.59,377.3,941.32,387.14,944.72,397.06ZM61.57,563.82,44.21,625a108.29,108.29,0,0,1-14.78-7.82q6.68-29.38,13.36-58.75ZM44.86,550.56l13.89-45.84q1.7,25.41,3.4,50.81Zm21.35,26.66Q73.32,607.58,80.45,638c-8.37-2.44-16.65-5.17-24.78-8.26l-3.92-1.53Zm80.93-290.55q-3.63,24.4-7.27,48.81l-28.19-1.73Zm-29.68,26,13.83-37h14.07ZM328,112.94l11.16,33.77L304,147.89ZM305.5,131.41,311.32,108h10.24Zm363.8,11.91-23.15-1.55a3.38,3.38,0,0,0-1.44-.1L619.92,140l11.31-30.56Zm-28.57-36.27,17.16.79q5.61,12.22,11.23,24.47Zm99.1,82.4-47.32-37.24h31.92Q732.13,170.84,739.83,189.45Zm-11.41-45.3c.49,0,.92.08,1.27.14a4.28,4.28,0,0,1-1.12,0Zm1.34.15c2.67.46,1.63,1.52.74,1.4l-.52-.42a1.7,1.7,0,0,0-.14-.1,1.47,1.47,0,0,1-.07-.79S729.76,144.33,729.76,144.3ZM839.11,259.8H811.52L801.38,217ZM802.2,205.67l14.94-.93,16.34,36.41ZM156.34,505.33q11.66,34.76,23.29,69.53l-54.89-7.32ZM120,558.94q-7.45-32.78-14.93-65.56l45.76,4.87Q135.44,528.6,120,558.94Zm70.86-206.88,9.78,61-49.89-2.28Zm-1.68-14.86L151.1,336l38.09-52Zm58.29-179.38,8.53-.27-22.89,22.72Zm-4-7.77a1.53,1.53,0,0,1,.18-.18l0,.06Zm14,17.44-10.89,39.37-27.37-1.39Zm35.84-5.22q2.49,19.95,5,39.92l-39.62,3.93Zm-34.43,30.58q4.95-17.85,9.88-35.71l18.79-.6Q273.27,174.71,258.93,192.85ZM814.15,344.53,855.48,402l-44.88,5.82Q812.37,376.18,814.15,344.53Zm-1.35-68.46,41.58,52.74H814.66Zm45.36,133.72q-3.39,32.37-6.8,64.74l-38.19-58.92Zm-11,73.11-56.56,5q8.66-32.77,17.3-65.54Q827.5,452.62,847.12,482.9ZM246.73,281.64l6.15,55.7H201.72Zm-1.11-14.13h-43l43-46.13ZM334,351.65l27.71,65.67H287.18Zm-53,60.43q-9.12-33.24-18.23-66.48l64.46,1.69Zm60-64.59h69.69l-42.16,65.27Zm245.85-10-74,1.7,32.44-63.71Zm-34.44-65.94h65.21q-12.1,30.58-24.2,61.18ZM505.94,335,470.36,273.8l67.75-2Zm-6.82,4.42H425.43l37.89-61.52Q481.23,308.6,499.12,339.37Zm-28.77-73.69,30.22-55.76,36.73,53.76Zm-6.75-4.57q-12.64-25.8-25.3-51.59l54.85-2.94ZM457,266l-62.65,1.32,37-53.56Zm-.93,8.14-37.32,60.58q-13-29.61-26.11-59.24ZM412,339.37H342.82l42.84-59.7Q398.8,309.52,412,339.37Zm6,11.89,36,63.42-78.51,2.4Zm7.2-3.77H499l-38.08,63ZM506.37,351l42.77,63.51H468Q487.17,382.72,506.37,351Zm7.31-3.64,74.12-1.71Q572,378,556.2,410.45,534.94,378.88,513.68,347.32Zm81.25,2.14,44.14,65H563.25Zm7-4.15,70.83-1.38Q659.3,377,645.84,410ZM679.8,348,724,408.93,652.91,414Q666.37,381,679.8,348Zm6.75-4.45,59.6-2-16.32,61.59Zm-2.81-8q6-31.12,12-62.25l47.62,60.27Zm-7.21-5.39-45.08-59,57-3Q682.49,299.15,676.53,330.14Zm-5.78,5.71-70.4,1.37q12.18-30.8,24.37-61.59Zm-49.11-77.53-39.82-52.11h52.44Q627.94,232.27,621.64,258.32Zm-6.23,5.13H551q11.78-26.72,23.56-53.44Zm-71.34-4.23-36.22-53h59.6Zm-35.25-61.13,37.47-44.9,21,44.9Zm-7.5-3.64-18.64-44.67h55.93Zm-7.08,4-53.9,2.89,35.29-47.48Q484.94,176.1,494.24,198.4Zm-61.31-.66Q423.27,174.87,413.6,152l54.76-1.93Zm-7.05,4H374.09l32.61-45.39Q416.29,179,425.88,201.74Zm-1.65,8.12L387.91,262.4,371.7,209.86ZM381,267.51H320.75l43.79-53.32Zm-2.38,8.12L336.36,334.5l-18.63-58.87Zm-49.26,63.59-63.82-1.67,45.1-57.46Zm-69-8.08q-3.07-27.75-6.13-55.51h49.69Zm-4.53,19.77L273.91,417l-61.08-3.36Zm-6.09-5.45-41.89,61.21q-4.92-30.6-9.82-61.21ZM223.86,494.92l-59.7-3.69,39.91-64.07Q214,461,223.86,494.92Zm-12.93-73.24L272.15,425l-41.37,64.58Q220.85,455.66,210.93,421.68ZM278.59,430l29,69-71-3.42Q257.58,462.82,278.59,430Zm6.8-4.59h74.9l-45.69,69.4Q300,460.13,285.39,425.44Zm82,3.94q18.57,35.73,37.12,71.46l-83.25-1.39Q344.34,464.41,367.4,429.38Zm7-4.14,79.27-2.43q-21.12,36.87-42.23,73.73Q392.91,460.89,374.39,425.24Zm86.28,1.67,38.8,72.53-81.14,1.39Q439.5,463.87,460.67,426.91Zm6.89-4.32h82.05Q528,458.88,506.37,495.14Zm89.2,3.87,43.44,72.86H513.32Zm7.15-3.87h76.48l-33.48,72.13Q585.42,458.66,563.91,422.59Zm83.49,4.1,47.08,68.9-80.66,3.46Q630.61,462.87,647.4,426.69Zm6.65-4.62,71.72-5.15-25,73.44Zm78.72-.56L778,489l-70.2,5.82Q720.28,458.15,732.77,421.51Zm6.41-5H801q-8.75,33.11-17.48,66.2Zm63.69-15.58L759,340.83l47.42-3.57Zm-47.22-68q.79-30.37,1.61-60.75l45.57,57.2Zm-1.4-119.89q22.05,23.1,44.08,46.21l-41-2.13Q755.78,235.12,754.25,213.07Zm44.06,195.32H736.85q8.19-30.9,16.37-61.8Zm-50.6-82.32-46.25-58.53,47.87-2.27Zm-49.9-66.48q1.89-24,3.79-48l42.93,45.77Zm9.85-53.38h38q1.51,21.85,3,43.73Zm-6.42-8.12q-6.24-19.28-12.47-38.56l49,38.56ZM690.14,254l-41.79-47.75h45.56Q692,230.08,690.14,254Zm-46.25-55.87q2.18-21.57,4.34-43.14l40.65,43.14Zm41,62.15-56.06,2.94q6.36-26.24,12.71-52.48Zm-47.91-74q-8.19-19-16.39-38.08l20.09,1.35Q638.81,167.88,637,186.25Zm-3.68,11.84H581.4q16-23.07,32-46.12Q623.36,175,633.28,198.09Zm-58.95-4-20.79-44.47,52.79-1.6Q590.34,171,574.33,194.06ZM548.18,138.8l-18.12-34.09h50.06Zm-7.67,2.86H486.67l35.58-34.35ZM477.75,139,459,102.14l54.65,2.19Zm-7.62,2.9-53.21,1.87L451.35,105Zm-61.39-1.12L392.6,104.45l50.28-2.18Zm-7.25,3.56-47.85,1.85,31.8-38Zm-2,8.2Q383.37,175,367.25,197.4l-16.74-43Zm-39.21,49.21H311l32.54-43Zm-2.65,8.12q-21.37,26-42.74,52.06-3.69-26-7.39-52.06Zm-50.09,57.65H258.15l42-52Q303.86,241.54,307.54,267.51Zm-13.89-56.73-39.91,49.35V214.74Zm-52.88,3.9-39.43,42.26q5.82-21.84,11.63-43.67Zm.44,60.95L197.31,330V275.63ZM198.32,421.05l-39,62.63q-5.58-32.46-11.15-64.92Zm-35.45,78.22L222.76,503,186.42,569.6Zm66.2,9.1q16,35.1,32.06,70.21l-68.9-2.67Zm6.75-4.68L307,507.11q-19.49,33.5-39,67Zm77.9,7.95q19.66,35.88,39.32,71.75l-78.65-4.19Zm7-4.08L404.05,509l-43.74,70.81Zm90.31,5.5q20.16,36.68,40.33,73.35L367.26,584Q389.15,548.52,411.05,513.06Zm7-4.11,81.21-1.39q-20.46,37.34-40.91,74.67Zm88.34,2.49L553,586.61H465.2Zm7.08-4h87.08L560,582.57Q536.75,545,513.47,507.44Zm94.2,3.89L654.82,584l-87.66,2.45Zm7-4.2,81-3.47L661.52,579.4Q638.06,543.26,614.62,507.13Zm87.9.75,44,69.9-77.86,5.53Q685.58,545.6,702.52,507.88Zm6.4-5.07L779.25,497,752.49,572.1Zm77.15-.84L826,569.84l-66.51,6.82Zm5.84-6.08,57-5-17.76,71.71Zm63.75,1.35,35.55,63.12-53.15,8Q846.87,532.78,855.66,497.24Zm4.88-7.89,41.83-7.07q-3.69,34.1-7.4,68.21Q877.77,519.92,860.54,489.35Zm-1.79-7.89q3.38-32,6.73-64l34.89,57Zm50.85,9.06L940,545.31l-37.69,12.35ZM902.9,463l-33.22-54.25,33.22-2.13Zm-36.13-62.18v-54l33.08,51.9Zm2.92-64.54L894.13,334q3.25,25.42,6.53,50.85Zm-3.76-7.77q-5.05-23.83-10.1-47.67l34.22,45.43Zm-10.6-61.75,14.84-2.43q7.41,20.93,14.84,41.84Zm3.32,70.17v55.64l-40-55.64Zm-42-69h28.17l10.35,48.86Zm-12.26-.21q.95,26.54,1.88,53.06l-44-55.24Zm-45.46-61.5h31.56q5.22,22,10.43,44Zm-6.8-8.12L736.91,161.3l45.37,36.79Zm-38.44-54H683.41q-6.63-14.47-13.27-28.94Zm-41.09-37,28.56-2.16q7.8,15.77,15.62,31.52Zm5.22,45,11.07,34.24-33.7-35.76Zm-64.35-17.84L596.69,105l27.08,1.24Q618.61,120.21,613.46,134.17Zm-6.11,5.67-50.45,1.52,31.8-33.93ZM572.88,62.9h27.64q-5.81,14.24-11.6,28.47Zm9.66,33.69h-49.3L565,65.44Zm-58.46-2.38L504.63,62.9H556Zm-8.26,2.08-53.15-2.12L496.38,65ZM479.27,31.23h48.45L498,53.33ZM452.91,91.9,432.82,64.71l53.26-1.5ZM424.56,67.12l19.93,27-48,2.07ZM420,36.71l36.17-3.92L426.82,54.47ZM387.5,93.77l-13.23-25.6,40.49-2.59ZM380,97l-40.54,2.3,27.31-27.89Zm-41.54-8.29,6.27-19.22,13-.49Zm38.91,16.56-31.14,37.18-11.49-34.76Zm-41.06,49.7Q321,175.2,305.63,195.47l-4.92-39.35ZM293,148.25l-35.66,1.14,44-34.95Q297.16,131.35,293,148.25ZM252,139.83c-2.34,2.69-5.61,5.43-7.41,8.51-.4.69-.67,1.12-.88,1.44a114.83,114.83,0,0,1-13,.26l32.54-23.13Zm-18.89,19-32,27.24q9.69-14,19.4-28.07C224.38,158.11,228.8,158.59,233.14,158.79Zm-5.93,15.66q-9.77,15.27-19.54,30.54H191.28Zm-26.44,38.66-34,37.69q8.07-18.84,16.15-37.69Zm.88,11.12-11.52,43.28H162.59Zm-16.38,51.4L149.7,324.19l7.23-48.56Zm.47,69.58-38.37,56.14V343.94ZM152.23,490.28l-45.7-4.86,34.68-59.31Q146.71,458.2,152.23,490.28Zm-13-80.36-35.57-4.33L139.25,353ZM136,343.36q-16.86,24.92-33.7,49.84,2.64-25.8,5.27-51.58Zm.72,74.37q-16.66,28.51-33.34,57l-2.49-61.38ZM113.22,565.66,72.42,558l26.14-56.73Q105.9,533.47,113.22,565.66ZM94,491.88q-12.21,26.5-24.43,53l-3.87-57.8Zm-26.71-12.7,26-54q1.2,29.38,2.39,58.77Zm4.67,87,40.83,7.65Q100,602.58,87.23,631.35,79.6,598.76,72,566.16Zm46.13,15.62q12.12,34.92,24.25,69.85c-16.94-2.87-33.91-6.21-50.59-10.55Zm6.44-6.15L179.43,583l-30.66,62.52Q136.65,610.55,124.52,575.63Zm60.7,13.91,29,70.44q-13-1.11-26-2.39c-3-.3-6.11-.5-9.34-.7q-7.16-.81-14.3-1.74-5.22-.76-10.42-1.58l-.33-.06Q169.54,621.53,185.22,589.54Zm6.44-5.53,69,2.68-39.6,68.73Q206.37,619.72,191.66,584Zm75.66,7.4q19.05,37.58,38.12,75.15-17.76-1-35.5-2.14c-14.18-.94-28.52-1.91-42.94-3Zm7-4.1,79,4.21-40.88,70.87Zm85.82,8.56q22.05,37.18,44.08,74.38-42.64-.93-85.23-3Q339.58,631.54,360.15,595.87Zm7.21-3.77,84.15,2.43L411.17,666Q389.26,629.06,367.36,592.1Zm91.31,6.26,49.16,72.52q-32.37.3-64.75,0-12.51-.39-24.95-.66Zm7.33-3.63h87.52l-38.36,72.53Zm94.64,3.88,46,69.66q-29.89,1.28-59.82,2.05c-8.12.16-16.23.34-24.35.44Q541.56,634.69,560.64,598.61Zm7-4.09,87.41-2.43L614,664.59Zm94.77,1.06,44.36,67-11.61.82-50.73,3q-11.43.6-22.87,1.12Zm6.93-4.2L747,585.86l-33.44,72.21Q691.45,624.73,669.36,591.38ZM754,589.92Q773.54,622,793.11,654.1c-24,3.06-48.14,5.47-72.29,7.42Q737.41,625.71,754,589.92Zm6.32-5.22,66.19-6.79L799,648.17Zm73.24-2.64,38.25,59.29c-5.85,1.17-11.68,2.27-17.48,3.34q-21.76,4-43.69,7.07l-4.59.6Zm5.93-5.79,52.84-7.93L876.8,634.16Zm60-3,35.09,51c-2.09.8-4.19,1.58-6.31,2.32l-1.09.38-3.11,1c-13.06,4.21-26.59,7.42-39.85,10.73l-.16,0Q891.76,606.06,899.48,573.3Zm4.55-7.66,37.47-12.28-4,60.95Zm9.49-84.79,28.36-2.66V532Q927.69,506.4,913.52,480.85ZM911,473V418.21l28.41,52.09Zm28.12-20.15L913.8,406.36h19.27Q936.1,429.58,939.14,452.81ZM910.5,398.24l-6.09-47.37,25.41,47.37Zm16.71-22-23.4-43.63L917.89,330Q922.56,353.08,927.21,376.21ZM900.28,325q-7.23-20.42-14.48-40.85L914,322.44Zm-16.5-61.15c3.88,6.37,7.68,12.8,11.32,19.31l-14.23-19.31Zm-5.31-8.56a10.34,10.34,0,0,0-2.91.4,2.77,2.77,0,0,1,.69,1.81c0-.56-.7-1.06-.76-1.63,0,0,0-.1,0-.15h0l-.6.19c-.15-.18-.31-.35-.47-.53a1.28,1.28,0,0,1,1.06.18c-.63-4.35-3.92-9.73-6.56-14.34Q873.77,248.21,878.47,255.3ZM864.91,257l-14.4,2.36L834,222.53ZM857.4,236.5,830,205.92c4.39.2,8.93.07,13.11.18Q850.24,221.3,857.4,236.5Zm-24.75-40.13c-3.94-.47-7.77-.64-10.67.2-.93-2.64-4.29-6-5.8-8.23l-10.11-14.62Zm-22.77.21c-4.62,0-9.29.16-13.22,1.32h0c.56.2.91.75.54,2l-.06-.06c-.09-.48-.83-1.41-.89-1.75a.08.08,0,0,0,0-.05c-.36.1-.67.17-.91.22L795,198a3.27,3.27,0,0,1,1.19-.17c-.56-2.59-2.76-5.61-3.87-7.93l-9.66-20.12ZM796.82,154.7c1.32,1.27,2.62,2.57,3.94,3.85l-4.5-3.83Zm-8.9-8.13a6.28,6.28,0,0,1-1-.08c-.69-.9-1.42-1.77-2.16-2.64C785.85,144.75,786.89,145.66,787.92,146.57Zm-4.82,8.16q4.46,6.42,8.9,12.86L779.22,155C780.58,154.91,781.9,154.8,783.1,154.73Zm-.85,32.94-42.84-34.74,26.9,1.57Q774.29,171.08,782.25,187.67Zm-7.64-41.17c-.72-.06-2.06-.2-3.11-.2-1.24-2.62-4.9-6.58-7.54-9.45ZM756,145.77l-11.72-.68c-3.91-.23-10.55-1.87-14.29-.83a1.64,1.64,0,0,1-.22,0c.18-2.25-3.87-7.71-4.91-9.82l-7.71-15.54-2.25-4.55Zm-24.54-38,16.41,21.69-30.37-23.2ZM716.13,98,705.46,96.8,691.75,83ZM666,68.58,675,77.69l-14.33-9.11Zm25.14,29-27.76,2.1-8.91-25.41ZM653.57,60.46h-4.38l-2.13-4.09Zm-9.86,7.7,8.14,23.23L620,64.81Zm-10-20c.18.35.36.7.55,1l-2.13-1.72Zm-21.32-6.23,20.48,16.55L611,55.39Q611.66,48.67,612.35,41.94ZM648.71,99.3l-53.33-2.44q6.4-15.69,12.8-31.38Zm-44-61.76-1.26,12.1L589.92,35.33Zm-24.54-.74,17,18h-25Q576.15,45.8,580.15,36.8ZM564.91,51.21,549,31.79l23.91,1.5Q568.89,42.25,564.91,51.21ZM554.65,24l-11.35-.71c-.3-1.43-.59-2.87-.89-4.3Zm2.73,30.75H509.56l29.71-22.07Q548.33,43.74,557.38,54.78Zm-24-39.62c.3,1.44.59,2.88.89,4.32l-15-8C524,12.55,528.71,13.84,533.34,15.16ZM497.47,8.93l26.37,14.18H481.31ZM485,9.13l-11.4,10q-.53-3.93-1-7.86C476.67,10.4,480.82,9.66,485,9.13ZM469.88,32.67,488.79,55l-51.07,1.43Zm-5.06-18.18c.4,3,.79,6.07,1.19,9.11l-27.49,3ZM424,24.35l-10.37,4.77-3.75-.45C414.58,27.17,419.29,25.76,424,24.35ZM393.36,34.82,403,36,383.42,49.15Zm19,4.63,6.84,17.72-36.69,2.35Zm-32.23.23L365.65,60.54l-33.34,1.25C348.28,53.91,363.66,46.77,380.13,39.68Zm-52.5,30.41,5.4-.2L322.41,81.8Zm3.94,13.61q-2.62,8.07-5.26,16.14h-9.12Zm-25.65-7.8q4.57-2.72,9.22-5.34h.12L302.17,84.09Zm5.85,9.94-6.24,14h-7.3ZM277,123.45q6.75-7.74,13.48-15.49h6Zm2.83-31c1.18-.72,2.34-1.43,3.43-2.14,3.37-2.2,6.76-4.36,10.15-6.54l-7.35,16H269.22Q274.49,96.09,279.84,92.48ZM258.39,108H276l-38.28,27.22Zm-34.12,27.7,2.32-2.11c2.18-1.92,4.35-3.85,6.56-5.73l-16.94,22.26-8.58,1.18C213.16,146.05,218.67,140.8,224.27,135.66Zm-32.61,31.43c2-2.12,4-4.25,6.06-6.33l9-1.24-26.21,25.31Zm.22,18L178,205.21l-7.69.74Zm-30.12,29.79,9.14-.88-22.42,27.08Zm3.78,18.28q-7.36,17.16-14.72,34.34H137.1Zm-26.31,8.23q-6.55,13-13.12,25.9l-7.78-.7Zm-26.62,32.81,7.94.71L96.68,304.21Q104.21,289,112.61,274.21Zm3.51,18.94q-7.38,19.75-14.75,39.5L86.5,329.48ZM82.45,336.91l15.33,3.26q-11.65,21.51-23.32,43Q78.47,360,82.45,336.91Zm15.4,20.15Q95.44,380.78,93,404.49l-20.13-1.35Q85.37,380.1,97.85,357.06Zm-7.47,55.37Q78.56,437,66.73,461.65q1.67-25.29,3.34-50.58ZM58.54,399.59l9.17-24.8q-2.29,13.32-4.6,26.64l-4.66-1.54Zm-2.49,8.05,4.64,1.54L47.88,436.55Q51.69,422,56.05,407.64ZM60.83,428l-3.24,49-17.4-5Zm-4.61,57.09L42.34,530.88q-1.7-25.38-3.4-50.75Zm-23.6,22,2.7,40.26L27,544.22Q29.44,525.6,32.62,507.08Zm2.43,48.79-7.2,31.64q-.59-17.38-1.18-34.77ZM20.47,609.08l0,1-.1-.12C20.42,609.68,20.45,609.38,20.47,609.08Zm-8.18,3.47a3.23,3.23,0,0,0,1.23,2,24.46,24.46,0,0,0,3.1,3.36c5.1,7.16,14.08,11.28,24.2,15.71,1.2.52,2.43,1,3.64,1.5l0,0a90,90,0,0,0,19.36,7.31,380,380,0,0,0,45.31,12c11.14,3,22.59,5.59,33.28,5.74q4.25.62,8.51,1.18l.82.13A98.86,98.86,0,0,0,171,664.33c18.09,2.49,36.24,4.48,54.37,6.18,1.66.21,3.28.32,4.6.49,7.57,1,15.21,1.48,22.85,1.88,43.59,3.43,87.31,5.3,131.06,6.14,5.16.27,10.33.42,15.43.25q31,.43,62.1.25c18.14.47,36.28.66,54.24-.35q24.78-.37,49.58-.93c15.53-.35,33.34,1.43,48.74-1.73,43-1.72,86-4.46,128.81-8.58,16.75-1.36,33.55-2.84,50-5.42,14.18-1.74,28.44-3.61,42.66-5.8a353.83,353.83,0,0,0,37.91-6.79A465.64,465.64,0,0,0,927.4,635.5c2.19-.74,4.38-1.51,6.58-2.29,21.24-6.83,51.08-18.52,54.16-39.33.16-1.11.27-2.24.34-3.39,15.87,19.36-36.57,40.73-49.73,45.86-50,19.48-103.59,29.89-157,36.71-9.76,1.07-19.44,2.07-29,3-67.45,6.85-135.26,9.62-203.06,10.35q-13.53,0-27.06-.1-13.43.23-26.86.28-12.07,0-24.14-.12c-80.06-.65-160.24-3.38-240-10.16-29.21-2.48-58.54-5.39-87.63-9.67-14.93-2.39-29.79-5.09-44.55-8.21C80.2,654.4,61,649.58,42.61,642.55c-6.67-2.55-16-5.9-23-10.3A37.4,37.4,0,0,1,10,621.34C9.47,618.66,10.06,615.74,12.29,612.55Zm973,115C971.41,744.12,946.76,752,927,758.14,857,780,781.7,786.61,708.94,792c-150.1,11-301.19,9-450.59-9.72q-88.41-11.1-175.7-29.48Q59.74,747.93,37,742.62c-6.55-1.53-19.28-2.22-24.93-6-3.58-2.38-2.06.56-3.87-3.27-1.21-2.55,0-9,.06-11.85l.45-88.25a54.9,54.9,0,0,0,7.63,5.7c12.52,9,29.14,14.12,42.3,18.13C91.12,667,125,672.51,158.82,676.79q9.08,1.2,18.11,2.31c93.1,11.4,187.28,14.71,281,15.48q10.56.09,21.12.12,36,.28,72-.12c74.08,0,149-2.52,222.65-12.11,61.2-6.27,123.62-16.69,178.78-41.63,10.7-4.84,28.78-13,39.38-24.22v72.61C991.86,703,994.63,716.48,985.3,727.58Z"/><path d="M875.45,255.73a.35.35,0,0,0,.11,0l-.14-.12A.8.8,0,0,1,875.45,255.73Z"/><path d="M796.21,198l.43-.12a1.52,1.52,0,0,0-.48-.1A1.42,1.42,0,0,1,796.21,198Z"/></g></g></svg>